M48
; DRILL file {KiCad (6.0.0)} date Mon Apr 18 13:44:51 2022
; FORMAT={-:-/ absolute / inch / decimal}
; #@! TF.CreationDate,2022-04-18T13:44:51-07:00
; #@! TF.GenerationSoftware,Kicad,Pcbnew,(6.0.0)
; #@! TF.FileFunction,Plated,1,2,PTH
FMAT,2
INCH
; #@! TA.AperFunction,Plated,PTH,ViaDrill
T1C0.0157
; #@! TA.AperFunction,Plated,PTH,ComponentDrill
T2C0.0320
; #@! TA.AperFunction,Plated,PTH,ComponentDrill
T3C0.0354
; #@! TA.AperFunction,Plated,PTH,ComponentDrill
T4C0.0390
; #@! TA.AperFunction,Plated,PTH,ComponentDrill
T5C0.0430
; #@! TA.AperFunction,Plated,PTH,ComponentDrill
T6C0.0472
; #@! TA.AperFunction,Plated,PTH,ComponentDrill
T7C0.0866
%
G90
G05
T1
X0.5965Y-2.0618
X0.6221Y-1.5087
X0.704Y-2.0084
X0.7079Y-1.2997
X0.7099Y-1.3922
X0.7807Y-1.3332
X0.7807Y-2.0084
X0.7807Y-2.6225
X0.7827Y-2.8528
X0.8044Y-1.9749
X0.8142Y-2.6639
X0.9711Y-2.5951
X0.9855Y-0.9946
X0.9855Y-1.2977
X0.9855Y-2.6639
X0.9874Y-1.9729
X0.9943Y-2.1994
X1.0315Y-1.9709
X1.0695Y-2.1246
X1.1089Y-2.1994
X1.185Y-2.8921
X1.185Y-3.1992
X1.2008Y-2.8134
X1.2008Y-2.5339
X1.2343Y-1.302
X1.2343Y-1.0677
X1.2913Y-2.3213
X1.3792Y-2.2603
X1.4028Y-1.593
X1.4028Y-1.7151
X1.4067Y-1.0635
X1.4067Y-0.9217
X1.4449Y-1.8846
X1.4894Y-1.034
X1.4894Y-1.528
X1.4894Y-0.8666
X1.4894Y-2.3745
X1.4907Y-2.2003
X1.5414Y-2.7921
X1.646Y-2.8528
X1.7638Y-2.3528
X1.7677Y-1.6795
X1.7768Y-1.4307
X1.8071Y-2.1599
X1.8425Y-1.6481
X1.8622Y-1.7386
X1.8622Y-2.3173
X1.8661Y-2.3921
X1.8977Y-1.8846
X1.9409Y-1.7898
X1.9409Y-2.8488
X2.103Y-0.7407
X2.1173Y-1.8981
X2.1173Y-1.9906
X2.1181Y-1.3197
X2.1201Y-1.2213
X2.1981Y-2.1024
X2.2Y-0.591
X2.202Y-1.2603
X2.202Y-1.9316
X2.3766Y-1.6699
X2.3786Y-1.0065
X2.4599Y-1.9021
X2.4658Y-1.2308
X2.4717Y-0.7032
X2.4815Y-1.3784
X2.5189Y-0.7879
X2.5892Y-1.1954
X2.6535Y-2.4512
X2.6535Y-2.6441
X2.6778Y-0.5202
X2.7244Y-1.0929
X2.7296Y-2.9178
X2.7296Y-2.4985
X2.7677Y-0.526
X2.7788Y-0.8647
X2.7906Y-1.6855
X2.7925Y-1.53
X2.8054Y-2.1383
X2.8346Y-2.2583
X2.8802Y-3.0518
X2.8819Y-2.4614
X2.8897Y-2.8462
X2.9067Y-0.9729
X2.9067Y-1.471
X2.9067Y-1.6481
X2.9087Y-2.1383
X2.9087Y-0.8036
X3.0662Y-0.7584
X3.1594Y-2.9557
X3.1653Y-2.774
X3.1955Y-0.8825
X3.2236Y-1.5891
X3.2394Y-2.3194
X3.2441Y-2.7229
X3.2685Y-3.4544
X3.2729Y-1.5989
X3.2768Y-2.3588
X3.2841Y-0.8825
X3.3018Y-1.6443
X3.3176Y-1.2407
X3.3181Y-2.3371
X3.3181Y-1.6954
X3.3504Y-1.7425
X3.3543Y-2.8331
X3.3543Y-2.2071
X3.3805Y-3.3609
X3.3858Y-2.9419
X3.3937Y-2.0063
X3.4067Y-2.3627
X3.4081Y-1.8687
X3.4111Y-1.2614
X3.4527Y-2.4473
X3.4593Y-1.0183
X3.462Y-3.0567
X3.4849Y-2.3214
X3.4884Y-1.6078
X3.5157Y-2.1638
X3.517Y-0.904
X3.5386Y-1.6324
X3.5425Y-2.2977
X3.5425Y-2.3607
X3.57Y-3.3306
X3.576Y-1.532
X3.6146Y-1.5706
X3.6146Y-2.2434
X3.6154Y-0.904
X3.6547Y-1.5379
X3.7178Y-2.9862
X3.792Y-1.3391
X3.8057Y-1.5025
X3.8062Y-2.008
X3.8792Y-1.5399
X3.8897Y-2.1599
X3.8969Y-1.6875
X3.8988Y-1.0143
X3.9173Y-2.9
X3.9262Y-3.2432
X3.933Y-2.1795
X3.9337Y-2.2269
X3.9421Y-0.9591
X3.9567Y-2.8646
X3.9869Y-0.9336
X3.9987Y-2.4376
X4.0Y-2.7544
X4.0079Y-2.3095
X4.0118Y-1.4158
X4.0157Y-1.4591
X4.0236Y-0.9709
X4.0236Y-1.9315
X4.0315Y-0.7583
X4.0433Y-2.8331
X4.0459Y-2.4376
X4.063Y-1.0024
X4.0833Y-2.4632
X4.0866Y-3.2307
X4.1567Y-0.8292
X4.2729Y-2.6462
X4.3097Y-1.5754
X4.3963Y-1.2762
X4.3983Y-2.6167
X4.4061Y-1.6758
X4.4357Y-0.9573
X4.475Y-1.1462
X4.494Y-3.2453
X4.5124Y-1.1088
X4.5479Y-1.0723
X4.5498Y-2.6167
X4.5766Y-3.911
X4.5858Y-1.0438
X4.5991Y-2.6541
X4.6176Y-3.3029
X4.6193Y-1.0103
X4.6513Y-3.7445
X4.6619Y-3.5426
X4.6823Y-3.4896
X4.6949Y-3.0677
X4.7581Y-3.5249
X4.7979Y-2.7132
T2
X4.2981Y-2.5438
X4.2981Y-2.4721
X4.3981Y-2.5438
X4.3981Y-2.4721
X4.4981Y-2.5438
X4.4981Y-2.4721
X4.5981Y-2.5438
X4.5981Y-2.4721
T4
X2.8644Y-0.6211
X3.0612Y-0.6211
T5
X4.1559Y-1.1763
X4.1559Y-1.2763
X4.1559Y-1.3763
X4.1559Y-1.4763
X4.1559Y-1.5763
X4.1559Y-1.6763
X4.1559Y-1.7763
X4.1559Y-1.8763
X4.1559Y-1.9763
X4.1559Y-2.0763
X4.1559Y-2.1763
X4.1649Y-2.2763
X4.2559Y-2.2763
X4.3559Y-2.2763
X4.4559Y-2.2763
X4.5559Y-2.2763
X4.6559Y-2.2763
X4.7559Y-1.1763
X4.7559Y-1.2763
X4.7559Y-1.3763
X4.7559Y-1.4763
X4.7559Y-1.5763
X4.7559Y-1.6763
X4.7559Y-1.7763
X4.7559Y-1.8763
X4.7559Y-1.9763
X4.7559Y-2.0763
X4.7559Y-2.1763
X4.7559Y-2.2763
T6
X0.6862Y-1.7721
X0.6862Y-2.4414
X0.6862Y-3.1107
X0.7099Y-1.8076
X0.7099Y-2.4769
X0.7099Y-3.1462
X0.7807Y-1.8489
X0.7807Y-2.5182
X0.7807Y-3.1875
X0.8831Y-1.8548
X0.8831Y-2.5241
X0.8831Y-3.1934
X0.9855Y-1.8489
X0.9855Y-2.5182
X0.9855Y-3.1875
X1.0563Y-1.8076
X1.0563Y-2.4769
X1.0563Y-3.1462
X1.0799Y-1.7721
X1.0799Y-2.4414
X1.0799Y-3.1107
X1.3949Y-1.2997
X1.3949Y-1.968
X1.3949Y-2.638
X1.4185Y-1.3351
X1.4185Y-2.0034
X1.4185Y-2.6734
X1.4894Y-1.3765
X1.4894Y-2.0447
X1.4894Y-2.7147
X1.5918Y-1.3824
X1.5918Y-2.0506
X1.5918Y-2.7206
X1.6941Y-1.3765
X1.6941Y-2.0447
X1.6941Y-2.7147
X1.765Y-1.3351
X1.765Y-2.0034
X1.765Y-2.6734
X1.7886Y-1.2997
X1.7886Y-1.968
X1.7886Y-2.638
X2.1036Y-2.368
X2.1036Y-1.0241
X2.1036Y-1.698
X2.1272Y-2.4034
X2.1272Y-1.0595
X2.1272Y-1.7334
X2.1981Y-2.4447
X2.1981Y-1.1009
X2.1981Y-1.7747
X2.3004Y-2.4506
X2.3004Y-1.1068
X2.3004Y-1.7806
X2.4028Y-2.4447
X2.4028Y-1.1009
X2.4028Y-1.7747
X2.4736Y-2.4034
X2.4736Y-1.0595
X2.4736Y-1.7334
X2.4973Y-2.368
X2.4973Y-1.0241
X2.4973Y-1.698
X2.7625Y-3.3017
X2.783Y-3.339
X2.8122Y-2.578
X2.8122Y-1.2406
X2.8122Y-1.908
X2.8358Y-2.6134
X2.8358Y-1.2761
X2.8358Y-1.9434
X2.85Y-3.3864
X2.9067Y-2.6547
X2.9067Y-1.3174
X2.9067Y-1.9847
X2.9514Y-3.4012
X3.0091Y-2.6606
X3.0091Y-1.3233
X3.0091Y-1.9906
X3.0539Y-3.4042
X3.1114Y-2.6547
X3.1114Y-1.3174
X3.1114Y-1.9847
X3.1281Y-3.3692
X3.1547Y-3.336
X3.1823Y-2.6134
X3.1823Y-1.2761
X3.1823Y-1.9434
X3.2059Y-2.578
X3.2059Y-1.2406
X3.2059Y-1.908
X3.5007Y-3.3972
X3.5143Y-3.4375
X3.5201Y-2.008
X3.5201Y-2.678
X3.5209Y-1.3391
X3.5437Y-2.0434
X3.5437Y-2.7134
X3.5445Y-1.3745
X3.5721Y-3.4958
X3.6146Y-2.0847
X3.6146Y-2.7547
X3.6154Y-1.4158
X3.6694Y-3.528
X3.717Y-2.0906
X3.717Y-2.7606
X3.7177Y-1.4217
X3.7698Y-3.5488
X3.8193Y-2.0847
X3.8193Y-2.7547
X3.8201Y-1.4158
X3.849Y-3.5272
X3.881Y-3.4991
X3.8902Y-2.0434
X3.8902Y-2.7134
X3.891Y-1.3745
X3.9138Y-2.008
X3.9138Y-2.678
X3.9146Y-1.3391
X4.2123Y-3.6198
X4.2188Y-3.6619
X4.2655Y-3.7293
X4.3558Y-3.7779
X4.4511Y-3.8158
X4.5328Y-3.8083
X4.5691Y-3.7862
T7
X1.9244Y-1.5005
X2.6744Y-0.7505
X2.6744Y-2.2505
X3.4244Y-1.5005
T3
G00X4.2906Y-2.967
M15
G01X4.3063Y-2.967
M16
G05
G00X4.307Y-2.7867
M15
G01X4.2913Y-2.7867
M16
G05
G00X4.3339Y-2.7859
M15
G01X4.3496Y-2.7859
M16
G05
G00X4.3503Y-2.9678
M15
G01X4.3346Y-2.9678
M16
G05
G00X4.4914Y-2.7859
M15
G01X4.5071Y-2.7859
M16
G05
G00X4.5078Y-2.9678
M15
G01X4.4921Y-2.9678
M16
G05
G00X4.6095Y-2.7859
M15
G01X4.6252Y-2.7859
M16
G05
G00X4.6259Y-2.9678
M15
G01X4.6102Y-2.9678
M16
G05
T0
M30
