<?xml version="1.0" encoding="UTF-8" standalone="no"?>
<svg
   version="1.1"
   width="13.009880cm"
   height="10.322560cm"
   viewBox="0 0 130098800 103225600"
   id="svg490"
   sodipodi:docname="half-swept-brd.svg"
   inkscape:version="1.1.1 (3bf5ae0d25, 2021-09-20)"
   xmlns:inkscape="http://www.inkscape.org/namespaces/inkscape"
   xmlns:sodipodi="http://sodipodi.sourceforge.net/DTD/sodipodi-0.dtd"
   xmlns="http://www.w3.org/2000/svg"
   xmlns:svg="http://www.w3.org/2000/svg"
   xmlns:rdf="http://www.w3.org/1999/02/22-rdf-syntax-ns#"
   xmlns:cc="http://creativecommons.org/ns#"
   xmlns:dc="http://purl.org/dc/elements/1.1/">
  <defs
     id="defs494" />
  <sodipodi:namedview
     id="namedview492"
     pagecolor="#ffffff"
     bordercolor="#666666"
     borderopacity="1.0"
     inkscape:pageshadow="2"
     inkscape:pageopacity="0.0"
     inkscape:pagecheckerboard="0"
     inkscape:document-units="cm"
     showgrid="false"
     inkscape:zoom="3.0429152"
     inkscape:cx="142.46207"
     inkscape:cy="203.58766"
     inkscape:window-width="3440"
     inkscape:window-height="1377"
     inkscape:window-x="-8"
     inkscape:window-y="-8"
     inkscape:window-maximized="1"
     inkscape:current-layer="svg490" />
  <title
     id="title2">SVG Picture created as half-swept-brd.svg date 2022/10/24 17:32:00 </title>
  <desc
     id="desc4">Picture generated by PCBNEW </desc>
  <g
     style="fill:#000000; fill-opacity:1.000000;stroke:#000000; stroke-opacity:1.000000; stroke-linecap:round; stroke-linejoin:round;"
     transform="translate(0 0) scale(1 1)"
     id="g6" />
  <g
     style="fill:#000000; fill-opacity:0.0;  stroke:#000000; stroke-width:0.000000; stroke-opacity:1;  stroke-linecap:round; stroke-linejoin:round;"
     id="g8" />
  <g
     style="fill:#000000; fill-opacity:0.0;  stroke:#000000; stroke-width:50000.000000; stroke-opacity:1;  stroke-linecap:round; stroke-linejoin:round;"
     id="g80">
    <path
       d="M110571979 72585605 L110571979 63685605 "
       id="path72" />
    <path
       d="M110571979 63685605 L101971979 63685605 "
       id="path74" />
    <path
       d="M101971979 72585605 L110571979 72585605 "
       id="path76" />
    <path
       d="M101971979 63685605 L101971979 72585605 "
       id="path78" />
  </g>
  <g
     style="fill:#000000; fill-opacity:0.0;  stroke:#000000; stroke-width:150000.000000; stroke-opacity:1;  stroke-linecap:round; stroke-linejoin:round;"
     id="g218">
    <path
       d="M23565778 27178316 L9665778 27178316 "
       id="path82" />
    <path
       d="M9665778 41078316 L9665778 27178316 "
       id="path84" />
    <path
       d="M9665778 41078316 L23565778 41078316 "
       id="path86" />
    <path
       d="M23565778 27178316 L23565778 41078316 "
       id="path88" />
    <path
       d="M27665780 29078316 L41565780 29078316 "
       id="path90" />
    <path
       d="M41565780 15178316 L41565780 29078316 "
       id="path92" />
    <path
       d="M41565780 15178316 L27665780 15178316 "
       id="path94" />
    <path
       d="M27665780 29078316 L27665780 15178316 "
       id="path96" />
    <path
       d="M59565777 8178316 L59565777 22078316 "
       id="path98" />
    <path
       d="M59565777 8178316 L45665777 8178316 "
       id="path100" />
    <path
       d="M45665777 22078316 L45665777 8178316 "
       id="path102" />
    <path
       d="M45665777 22078316 L59565777 22078316 "
       id="path104" />
    <path
       d="M77565778 13678317 L77565778 27578317 "
       id="path106" />
    <path
       d="M77565778 13678317 L63665778 13678317 "
       id="path108" />
    <path
       d="M63665778 27578317 L77565778 27578317 "
       id="path110" />
    <path
       d="M63665778 27578317 L63665778 13678317 "
       id="path112" />
    <path
       d="M81665776 30078316 L81665776 16178316 "
       id="path114" />
    <path
       d="M81665776 30078316 L95565776 30078316 "
       id="path116" />
    <path
       d="M95565776 16178316 L95565776 30078316 "
       id="path118" />
    <path
       d="M95565776 16178316 L81665776 16178316 "
       id="path120" />
    <path
       d="M23565778 44178316 L9665778 44178316 "
       id="path122" />
    <path
       d="M23565778 44178316 L23565778 58078316 "
       id="path124" />
    <path
       d="M9665778 58078316 L23565778 58078316 "
       id="path126" />
    <path
       d="M9665778 58078316 L9665778 44178316 "
       id="path128" />
    <path
       d="M27665780 46052316 L27665780 32152316 "
       id="path130" />
    <path
       d="M41565780 32152316 L27665780 32152316 "
       id="path132" />
    <path
       d="M27665780 46052316 L41565780 46052316 "
       id="path134" />
    <path
       d="M41565780 32152316 L41565780 46052316 "
       id="path136" />
    <path
       d="M45665779 39194316 L45665779 25294316 "
       id="path138" />
    <path
       d="M59565779 25294316 L45665779 25294316 "
       id="path140" />
    <path
       d="M59565779 25294316 L59565779 39194316 "
       id="path142" />
    <path
       d="M45665779 39194316 L59565779 39194316 "
       id="path144" />
    <path
       d="M77565780 30628319 L77565780 44528319 "
       id="path146" />
    <path
       d="M77565780 30628319 L63665780 30628319 "
       id="path148" />
    <path
       d="M63665780 44528319 L77565780 44528319 "
       id="path150" />
    <path
       d="M63665780 44528319 L63665780 30628319 "
       id="path152" />
    <path
       d="M81645778 47068316 L95545778 47068316 "
       id="path154" />
    <path
       d="M95545778 33168316 L95545778 47068316 "
       id="path156" />
    <path
       d="M95545778 33168316 L81645778 33168316 "
       id="path158" />
    <path
       d="M81645778 47068316 L81645778 33168316 "
       id="path160" />
    <path
       d="M9665778 75078313 L9665778 61178313 "
       id="path162" />
    <path
       d="M23565778 61178313 L9665778 61178313 "
       id="path164" />
    <path
       d="M9665778 75078313 L23565778 75078313 "
       id="path166" />
    <path
       d="M23565778 61178313 L23565778 75078313 "
       id="path168" />
    <path
       d="M41565777 49170315 L27665777 49170315 "
       id="path170" />
    <path
       d="M41565777 49170315 L41565777 63070315 "
       id="path172" />
    <path
       d="M27665777 63070315 L27665777 49170315 "
       id="path174" />
    <path
       d="M27665777 63070315 L41565777 63070315 "
       id="path176" />
    <path
       d="M59565776 42312317 L45665776 42312317 "
       id="path178" />
    <path
       d="M45665776 56212317 L45665776 42312317 "
       id="path180" />
    <path
       d="M59565776 42312317 L59565776 56212317 "
       id="path182" />
    <path
       d="M45665776 56212317 L59565776 56212317 "
       id="path184" />
    <path
       d="M63665778 61546319 L77565778 61546319 "
       id="path186" />
    <path
       d="M77565778 47646319 L77565778 61546319 "
       id="path188" />
    <path
       d="M77565778 47646319 L63665778 47646319 "
       id="path190" />
    <path
       d="M63665778 61546319 L63665778 47646319 "
       id="path192" />
    <path
       d="M81639432 64086316 L81639432 50186316 "
       id="path194" />
    <path
       d="M95539432 50186316 L95539432 64086316 "
       id="path196" />
    <path
       d="M95539432 50186316 L81639432 50186316 "
       id="path198" />
    <path
       d="M81639432 64086316 L95539432 64086316 "
       id="path200" />
    <path
       d="M98079744 86889956 L103954138 74292278 "
       id="path202" />
    <path
       d="M98079744 86889956 L110677422 92764350 "
       id="path204" />
    <path
       d="M116551816 80166672 L103954138 74292278 "
       id="path206" />
    <path
       d="M116551816 80166672 L110677422 92764350 "
       id="path208" />
    <path
       d="M97427753 71913925 L84001384 68316340 "
       id="path210" />
    <path
       d="M97427753 71913925 L93830168 85340294 "
       id="path212" />
    <path
       d="M80403799 81742709 L93830168 85340294 "
       id="path214" />
    <path
       d="M80403799 81742709 L84001384 68316340 "
       id="path216" />
  </g>
  <g
     style="fill:#000000; fill-opacity:0.0;  stroke:#000000; stroke-width:381000.000000; stroke-opacity:1;  stroke-linecap:round; stroke-linejoin:round;"
     id="g224">
    <path
       d="M116255777 52005066 L116255777 18985066 "
       id="path220" />
    <path
       d="M98475777 52005066 L116255777 52005066 "
       id="path222" />
  </g>
  <g
     style="fill:#000000; fill-opacity:0.0;  stroke:#000000; stroke-width:200000.000000; stroke-opacity:1;  stroke-linecap:round; stroke-linejoin:round;"
     id="g228">
    <path
       d="M103555777 17461066 L110921777 17461066 "
       id="path226" />
  </g>
  <g
     style="fill:#000000; fill-opacity:0.0;  stroke:#000000; stroke-width:381000.000000; stroke-opacity:1;  stroke-linecap:round; stroke-linejoin:round;"
     id="g232">
    <path
       d="M116255777 18985066 L98475777 18985066 "
       id="path230" />
  </g>
  <g
     style="fill:#000000; fill-opacity:0.0;  stroke:#000000; stroke-width:200000.000000; stroke-opacity:1;  stroke-linecap:round; stroke-linejoin:round;"
     id="g236">
    <path
       d="M103555777 22541066 L103555777 17461066 "
       id="path234" />
  </g>
  <g
     style="fill:#000000; fill-opacity:0.0;  stroke:#000000; stroke-width:381000.000000; stroke-opacity:1;  stroke-linecap:round; stroke-linejoin:round;"
     id="g240">
    <path
       d="M98475777 18985066 L98475777 52005066 "
       id="path238" />
  </g>
  <g
     style="fill:#000000; fill-opacity:0.0;  stroke:#000000; stroke-width:200000.000000; stroke-opacity:1;  stroke-linecap:round; stroke-linejoin:round;"
     id="g246">
    <path
       d="M110921777 22541066 L103555777 22541066 "
       id="path242" />
    <path
       d="M110921777 17461066 L110921777 22541066 "
       id="path244" />
  </g>
  <g
     style="fill:#000000; fill-opacity:0.0;  stroke:#000000; stroke-width:150000.000000; stroke-opacity:1;  stroke-linecap:round; stroke-linejoin:round;"
     id="g276">
    <path
       d="M116481978 68705605 L117981978 68705605 "
       id="path248" />
    <path
       d="M117981978 68705605 L117981978 70005605 "
       id="path250" />
    <path
       d="M116181978 70005605 L116481978 70005605 "
       id="path252" />
    <path
       d="M116481978 65205605 L113781978 65205605 "
       id="path254" />
    <path
       d="M117981978 70005605 L116481978 70005605 "
       id="path256" />
    <path
       d="M113781978 71805605 L113781978 65205605 "
       id="path258" />
    <path
       d="M116481978 71805605 L113781978 71805605 "
       id="path260" />
    <path
       d="M116481978 71805605 L116481978 65205605 "
       id="path262" />
    <path
       d="M116181978 67005605 L116181978 70005605 "
       id="path264" />
    <path
       d="M116181978 67005605 L116481978 67005605 "
       id="path266" />
    <path
       d="M77195063 67110493 L63347956 65899028 "
       id="path268" />
    <path
       d="M62136491 79746135 L75983598 80957600 "
       id="path270" />
    <path
       d="M62136491 79746135 L63347956 65899028 "
       id="path272" />
    <path
       d="M77195063 67110493 L75983598 80957600 "
       id="path274" />
  </g>
  <g
     style="fill:#000000; fill-opacity:0.0;  stroke:#000000; stroke-width:120000.000000; stroke-opacity:1;  stroke-linecap:round; stroke-linejoin:round;"
     id="g286">
    <path
       d="M114141979 60025606 L100461979 60025606 "
       id="path278" />
    <path
       d="M100461979 60025606 L100461979 24025606 "
       id="path280" />
    <path
       d="M100461979 24025606 L114141979 24025606 "
       id="path282" />
    <path
       d="M114141979 24025606 L114141979 60025606 "
       id="path284" />
  </g>
  <g
     style="fill:#000000; fill-opacity:0.0;  stroke:#000000; stroke-width:150000.000000; stroke-opacity:1;  stroke-linecap:round; stroke-linejoin:round;"
     id="g384">
    <path
       d="M116181979 66995606 L116481979 66995606 "
       id="path288" />
    <path
       d="M117981979 66995606 L116481979 66995606 "
       id="path290" />
    <path
       d="M116181979 69995606 L116181979 66995606 "
       id="path292" />
    <path
       d="M116481979 68295606 L117981979 68295606 "
       id="path294" />
    <path
       d="M116181979 69995606 L116481979 69995606 "
       id="path296" />
    <path
       d="M116481979 65195606 L113781979 65195606 "
       id="path298" />
    <path
       d="M116481979 71795606 L113781979 71795606 "
       id="path300" />
    <path
       d="M117981979 68295606 L117981979 66995606 "
       id="path302" />
    <path
       d="M113781979 65195606 L113781979 71795606 "
       id="path304" />
    <path
       d="M116481979 65195606 L116481979 71795606 "
       id="path306" />
    <g
       id="g308" />
    <g
       id="g310" />
    <g
       id="g312" />
    <g
       id="g314" />
    <g
       id="g316" />
    <g
       id="g318" />
    <g
       id="g320" />
    <g
       id="g322" />
    <g
       id="g324" />
    <g
       id="g326" />
    <g
       id="g328" />
    <g
       id="g330" />
    <g
       id="g332" />
    <g
       id="g334" />
    <g
       id="g336" />
    <g
       id="g338" />
    <g
       id="g340" />
    <g
       id="g342" />
    <g
       id="g344" />
    <g
       id="g346" />
    <g
       id="g348" />
    <g
       id="g350" />
    <g
       id="g352" />
    <g
       id="g354" />
    <g
       id="g356" />
    <g
       id="g358" />
    <g
       id="g360" />
    <g
       id="g362" />
    <g
       id="g364" />
    <g
       id="g366" />
    <g
       id="g368" />
    <g
       id="g370" />
    <g
       id="g372" />
    <g
       id="g374" />
    <g
       id="g376" />
    <g
       id="g378" />
    <g
       id="g380" />
    <g
       id="g382" />
  </g>
  <g
     style="fill:#000000; fill-opacity:0.0;  stroke:#000000; stroke-width:150000.000000; stroke-opacity:1;  stroke-linecap:round; stroke-linejoin:round;"
     id="g386" />
  <g
     style="fill:#000000; fill-opacity:0.0;  stroke:#000000; stroke-width:50000.000000; stroke-opacity:1;  stroke-linecap:round; stroke-linejoin:round;"
     id="g488">
    <path
       d="M6225831 25025021 L6266030 74293340 "
       id="path388" />
    <path
       d="M116777778.907252 20432089.998859 A1044868.000000 1044868.000000 0.0 0 0 116415777.994869 19628317.005944"
       id="path390" />
    <path
       d="M7652772.635918 23011316.516794 A4063031.000000 4063031.000000 0.0 0 0 6225830.567654 25025020.862512"
       id="path392" />
    <path
       d="M116415777.944433 19628317.095547 A105159037.000000 105159037.000000 0.0 0 0 61915780.005956 5385825.383480"
       id="path394" />
    <path
       d="M111571569.933090 95007758.174177 A283906419.000000 283906419.000000 0.0 0 0 8303777.999889 76129438.978370"
       id="path396" />
    <path
       d="M6266030.108814 74293339.991946 A1983408.000000 1983408.000000 0.0 0 0 8303777.993487 76129438.783904"
       id="path398" />
    <path
       d="M116777779 20432090 L116777778 76128316 "
       id="path400" />
    <path
       d="M61915779.989798 5385825.644702 A88062761.000000 88062761.000000 0.0 0 0 7652773.271272 23011317.361354"
       id="path402" />
    <path
       d="M111571570.300757 95007757.482075 A876006.000000 876006.000000 0.0 0 0 112778396.937383 94673550.965436"
       id="path404" />
    <path
       d="M119468793 80400477 L112778397 94673551 "
       id="path406" />
    <path
       d="M116777778.473492 76128315.887424 A2877578.000000 2877578.000000 0.0 0 0 118318793.135844 78050477.720678"
       id="path408" />
    <path
       d="M119468792.677640 80400476.922198 A2050328.000000 2050328.000000 0.0 0 0 118318792.917581 78050478.182705"
       id="path410" />
    <g
       id="g412" />
    <g
       id="g414" />
    <g
       id="g416" />
    <g
       id="g418" />
    <g
       id="g420" />
    <g
       id="g422" />
    <g
       id="g424" />
    <g
       id="g426" />
    <g
       id="g428" />
    <g
       id="g430" />
    <g
       id="g432" />
    <g
       id="g434" />
    <g
       id="g436" />
    <g
       id="g438" />
    <g
       id="g440" />
    <g
       id="g442" />
    <g
       id="g444" />
    <g
       id="g446" />
    <g
       id="g448" />
    <g
       id="g450" />
    <g
       id="g452" />
    <g
       id="g454" />
    <g
       id="g456" />
    <g
       id="g458" />
    <g
       id="g460" />
    <g
       id="g462" />
    <g
       id="g464" />
    <g
       id="g466" />
    <g
       id="g468" />
    <g
       id="g470" />
    <g
       id="g472" />
    <g
       id="g474" />
    <g
       id="g476" />
    <g
       id="g478" />
    <g
       id="g480" />
    <g
       id="g482" />
    <g
       id="g484" />
    <g
       id="g486" />
  </g>
  <metadata
     id="metadata1311">
    <rdf:RDF>
      <cc:Work
         rdf:about="">
        <dc:title>SVG Picture created as half-swept-brd.svg date 2022/10/24 17:32:00 </dc:title>
      </cc:Work>
    </rdf:RDF>
  </metadata>
</svg>
