  0
SECTION
  2
HEADER
  9
$ACADVER
  1
AC1014
  9
$HANDSEED
  5
FFFF
  9
$MEASUREMENT
 70
     1
  0
ENDSEC
  0
SECTION
  2
TABLES
  0
TABLE
  2
VPORT
  5
8
330
0
100
AcDbSymbolTable
 70
     4
  0
VPORT
  5
2E
330
8
100
AcDbSymbolTableRecord
100
AcDbViewportTableRecord
  2
*ACTIVE
 70
     0
 10
0.0
 20
0.0
 11
1.0
 21
1.0
 12
210.0
 22
148.5
 13
0.0
 23
0.0
 14
10.0
 24
10.0
 15
10.0
 25
10.0
 16
0.0
 26
0.0
 36
1.0
 17
0.0
 27
0.0
 37
0.0
 40
341.0
 41
1.24
 42
50.0
 43
0.0
 44
0.0
 50
0.0
 51
0.0
 71
     0
 72
   100
 73
     1
 74
     3
 75
     0
 76
     0
 77
     0
 78
     0
  0
ENDTAB
  0
TABLE
  2
LTYPE
  5
5
330
0
100
AcDbSymbolTable
 70
     1
  0
LTYPE
  5
14
330
5
100
AcDbSymbolTableRecord
100
AcDbLinetypeTableRecord
  2
BYBLOCK
 70
     0
  3

 72
    65
 73
     0
 40
0.0
  0
LTYPE
  5
15
330
5
100
AcDbSymbolTableRecord
100
AcDbLinetypeTableRecord
  2
BYLAYER
 70
     0
  3

 72
    65
 73
     0
 40
0.0
  0
LTYPE
  5
16
330
5
100
AcDbSymbolTableRecord
100
AcDbLinetypeTableRecord
  2
CONTINUOUS
 70
     0
  3
Solid line
 72
    65
 73
     0
 40
0.0
  0
ENDTAB
  0
TABLE
  2
LAYER
  5
2
100
AcDbSymbolTable
 70
1
  0
LAYER
  5
50
100
AcDbSymbolTableRecord
100
AcDbLayerTableRecord
  2
0
 70
0
  6
CONTINUOUS
  0
ENDTAB
  0
TABLE
  2
STYLE
  5
3
330
0
100
AcDbSymbolTable
 70
     1
  0
STYLE
  5
11
330
3
100
AcDbSymbolTableRecord
100
AcDbTextStyleTableRecord
  2
STANDARD
 70
     0
 40
0.0
 41
1.0
 50
0.0
 71
     0
 42
2.5
  3
txt
  4

  0
ENDTAB
  0
TABLE
  2
VIEW
  5
6
330
0
100
AcDbSymbolTable
 70
     0
  0
ENDTAB
  0
TABLE
  2
UCS
  5
7
330
0
100
AcDbSymbolTable
 70
     0
  0
ENDTAB
  0
TABLE
  2
APPID
  5
9
330
0
100
AcDbSymbolTable
 70
     2
  0
APPID
  5
12
330
9
100
AcDbSymbolTableRecord
100
AcDbRegAppTableRecord
  2
ACAD
 70
     0
  0
ENDTAB
  0
TABLE
  2
DIMSTYLE
  5
A
330
0
100
AcDbSymbolTable
 70
     1
  0
DIMSTYLE
105
27
330
A
100
AcDbSymbolTableRecord
100
AcDbDimStyleTableRecord
  2
ISO-25
 70
     0
  3

  4

  5

  6

  7

 40
1.0
 41
2.5
 42
0.625
 43
3.75
 44
1.25
 45
0.0
 46
0.0
 47
0.0
 48
0.0
140
2.5
141
2.5
142
0.0
143
0.03937007874016
144
1.0
145
0.0
146
1.0
147
0.625
 71
     0
 72
     0
 73
     0
 74
     0
 75
     0
 76
     0
 77
     1
 78
     8
170
     0
171
     3
172
     1
173
     0
174
     0
175
     0
176
     0
177
     0
178
     0
270
     2
271
     2
272
     2
273
     2
274
     3
340
11
275
     0
280
     0
281
     0
282
     0
283
     0
284
     8
285
     0
286
     0
287
     3
288
     0
  0
ENDTAB
  0
TABLE
  2
BLOCK_RECORD
  5
1
330
0
100
AcDbSymbolTable
 70
     1
  0
BLOCK_RECORD
  5
1F
330
1
100
AcDbSymbolTableRecord
100
AcDbBlockTableRecord
  2
*MODEL_SPACE
  0
BLOCK_RECORD
  5
1B
330
1
100
AcDbSymbolTableRecord
100
AcDbBlockTableRecord
  2
*PAPER_SPACE
  0
ENDTAB
  0
ENDSEC
  0
SECTION
  2
BLOCKS
  0
BLOCK
  5
20
330
1F
100
AcDbEntity
  8
0
100
AcDbBlockBegin
  2
*MODEL_SPACE
 70
     0
 10
0.0
 20
0.0
 30
0.0
  3
*MODEL_SPACE
  1

  0
ENDBLK
  5
21
330
1F
100
AcDbEntity
  8
0
100
AcDbBlockEnd
  0
BLOCK
  5
1C
330
1B
100
AcDbEntity
 67
     1
  8
0
100
AcDbBlockBegin
  2
*PAPER_SPACE
  1

  0
ENDBLK
  5
1D
330
1B
100
AcDbEntity
 67
     1
  8
0
100
AcDbBlockEnd
  0
ENDSEC
  0
SECTION
  2
ENTITIES
  0
SPLINE
  5
100
100
AcDbEntity
  8
0
 62
7
100
AcDbSpline
 70
8
 71
3
 72
8
 73
4
 74
0
 40
0
 40
0
 40
0
 40
0
 40
1
 40
1
 40
1
 40
1
 10
66.940519
 20
-7.815398
 30
0.0
 10
66.586616
 20
-7.815398
 30
0.0
 10
66.267560
 20
-8.028584
 30
0.0
 10
66.132127
 20
-8.355547
 30
0.0
  0
SPLINE
  5
101
100
AcDbEntity
  8
0
 62
7
100
AcDbSpline
 70
8
 71
3
 72
8
 73
4
 74
0
 40
0
 40
0
 40
0
 40
0
 40
1
 40
1
 40
1
 40
1
 10
66.132127
 20
-8.355547
 30
0.0
 10
65.996694
 20
-8.682511
 30
0.0
 10
66.071555
 20
-9.058863
 30
0.0
 10
66.321803
 20
-9.309110
 30
0.0
  0
SPLINE
  5
102
100
AcDbEntity
  8
0
 62
7
100
AcDbSpline
 70
8
 71
3
 72
8
 73
4
 74
0
 40
0
 40
0
 40
0
 40
0
 40
1
 40
1
 40
1
 40
1
 10
66.321803
 20
-9.309110
 30
0.0
 10
66.572050
 20
-9.559357
 30
0.0
 10
66.948401
 20
-9.634218
 30
0.0
 10
67.275365
 20
-9.498786
 30
0.0
  0
SPLINE
  5
103
100
AcDbEntity
  8
0
 62
7
100
AcDbSpline
 70
8
 71
3
 72
8
 73
4
 74
0
 40
0
 40
0
 40
0
 40
0
 40
1
 40
1
 40
1
 40
1
 10
67.275365
 20
-9.498786
 30
0.0
 10
67.602329
 20
-9.363353
 30
0.0
 10
67.815515
 20
-9.044297
 30
0.0
 10
67.815515
 20
-8.690394
 30
0.0
  0
SPLINE
  5
104
100
AcDbEntity
  8
0
 62
7
100
AcDbSpline
 70
8
 71
3
 72
8
 73
4
 74
0
 40
0
 40
0
 40
0
 40
0
 40
1
 40
1
 40
1
 40
1
 10
67.815515
 20
-8.690394
 30
0.0
 10
67.815515
 20
-8.458331
 30
0.0
 10
67.723328
 20
-8.235772
 30
0.0
 10
67.559235
 20
-8.071678
 30
0.0
  0
SPLINE
  5
105
100
AcDbEntity
  8
0
 62
7
100
AcDbSpline
 70
8
 71
3
 72
8
 73
4
 74
0
 40
0
 40
0
 40
0
 40
0
 40
1
 40
1
 40
1
 40
1
 10
67.559235
 20
-8.071678
 30
0.0
 10
67.395141
 20
-7.907584
 30
0.0
 10
67.172582
 20
-7.815398
 30
0.0
 10
66.940519
 20
-7.815398
 30
0.0
  0
SPLINE
  5
106
100
AcDbEntity
  8
0
 62
7
100
AcDbSpline
 70
8
 71
3
 72
8
 73
4
 74
0
 40
0
 40
0
 40
0
 40
0
 40
1
 40
1
 40
1
 40
1
 10
71.940499
 20
-7.815398
 30
0.0
 10
71.586596
 20
-7.815398
 30
0.0
 10
71.267541
 20
-8.028584
 30
0.0
 10
71.132108
 20
-8.355547
 30
0.0
  0
SPLINE
  5
107
100
AcDbEntity
  8
0
 62
7
100
AcDbSpline
 70
8
 71
3
 72
8
 73
4
 74
0
 40
0
 40
0
 40
0
 40
0
 40
1
 40
1
 40
1
 40
1
 10
71.132108
 20
-8.355547
 30
0.0
 10
70.996675
 20
-8.682511
 30
0.0
 10
71.071536
 20
-9.058863
 30
0.0
 10
71.321783
 20
-9.309110
 30
0.0
  0
SPLINE
  5
108
100
AcDbEntity
  8
0
 62
7
100
AcDbSpline
 70
8
 71
3
 72
8
 73
4
 74
0
 40
0
 40
0
 40
0
 40
0
 40
1
 40
1
 40
1
 40
1
 10
71.321783
 20
-9.309110
 30
0.0
 10
71.572030
 20
-9.559357
 30
0.0
 10
71.948382
 20
-9.634218
 30
0.0
 10
72.275346
 20
-9.498786
 30
0.0
  0
SPLINE
  5
109
100
AcDbEntity
  8
0
 62
7
100
AcDbSpline
 70
8
 71
3
 72
8
 73
4
 74
0
 40
0
 40
0
 40
0
 40
0
 40
1
 40
1
 40
1
 40
1
 10
72.275346
 20
-9.498786
 30
0.0
 10
72.602310
 20
-9.363353
 30
0.0
 10
72.815496
 20
-9.044297
 30
0.0
 10
72.815496
 20
-8.690394
 30
0.0
  0
SPLINE
  5
10a
100
AcDbEntity
  8
0
 62
7
100
AcDbSpline
 70
8
 71
3
 72
8
 73
4
 74
0
 40
0
 40
0
 40
0
 40
0
 40
1
 40
1
 40
1
 40
1
 10
72.815496
 20
-8.690394
 30
0.0
 10
72.815496
 20
-8.458331
 30
0.0
 10
72.723309
 20
-8.235772
 30
0.0
 10
72.559215
 20
-8.071678
 30
0.0
  0
SPLINE
  5
10b
100
AcDbEntity
  8
0
 62
7
100
AcDbSpline
 70
8
 71
3
 72
8
 73
4
 74
0
 40
0
 40
0
 40
0
 40
0
 40
1
 40
1
 40
1
 40
1
 10
72.559215
 20
-8.071678
 30
0.0
 10
72.395122
 20
-7.907584
 30
0.0
 10
72.172563
 20
-7.815398
 30
0.0
 10
71.940499
 20
-7.815398
 30
0.0
  0
LWPOLYLINE
  5
10c
100
AcDbEntity
  8
0
 62
7
100
AcDbPolyline
 90
1
 70
1
 10
66.940519
 20
-7.815398
 30
0.0
  0
SPLINE
  5
10d
100
AcDbEntity
  8
0
 62
7
100
AcDbSpline
 70
8
 71
3
 72
8
 73
4
 74
0
 40
0
 40
0
 40
0
 40
0
 40
1
 40
1
 40
1
 40
1
 10
69.440509
 20
-6.880402
 30
0.0
 10
69.197833
 20
-6.880402
 30
0.0
 10
68.979052
 20
-7.026586
 30
0.0
 10
68.886184
 20
-7.250790
 30
0.0
  0
SPLINE
  5
10e
100
AcDbEntity
  8
0
 62
7
100
AcDbSpline
 70
8
 71
3
 72
8
 73
4
 74
0
 40
0
 40
0
 40
0
 40
0
 40
1
 40
1
 40
1
 40
1
 10
68.886184
 20
-7.250790
 30
0.0
 10
68.793316
 20
-7.474993
 30
0.0
 10
68.844649
 20
-7.733063
 30
0.0
 10
69.016247
 20
-7.904661
 30
0.0
  0
SPLINE
  5
10f
100
AcDbEntity
  8
0
 62
7
100
AcDbSpline
 70
8
 71
3
 72
8
 73
4
 74
0
 40
0
 40
0
 40
0
 40
0
 40
1
 40
1
 40
1
 40
1
 10
69.016247
 20
-7.904661
 30
0.0
 10
69.187845
 20
-8.076259
 30
0.0
 10
69.445914
 20
-8.127592
 30
0.0
 10
69.670118
 20
-8.034724
 30
0.0
  0
SPLINE
  5
110
100
AcDbEntity
  8
0
 62
7
100
AcDbSpline
 70
8
 71
3
 72
8
 73
4
 74
0
 40
0
 40
0
 40
0
 40
0
 40
1
 40
1
 40
1
 40
1
 10
69.670118
 20
-8.034724
 30
0.0
 10
69.894321
 20
-7.941856
 30
0.0
 10
70.040506
 20
-7.723075
 30
0.0
 10
70.040506
 20
-7.480399
 30
0.0
  0
SPLINE
  5
111
100
AcDbEntity
  8
0
 62
7
100
AcDbSpline
 70
8
 71
3
 72
8
 73
4
 74
0
 40
0
 40
0
 40
0
 40
0
 40
1
 40
1
 40
1
 40
1
 10
70.040506
 20
-7.480399
 30
0.0
 10
70.040506
 20
-7.321270
 30
0.0
 10
69.977292
 20
-7.168658
 30
0.0
 10
69.864771
 20
-7.056137
 30
0.0
  0
SPLINE
  5
112
100
AcDbEntity
  8
0
 62
7
100
AcDbSpline
 70
8
 71
3
 72
8
 73
4
 74
0
 40
0
 40
0
 40
0
 40
0
 40
1
 40
1
 40
1
 40
1
 10
69.864771
 20
-7.056137
 30
0.0
 10
69.752250
 20
-6.943616
 30
0.0
 10
69.599638
 20
-6.880402
 30
0.0
 10
69.440509
 20
-6.880402
 30
0.0
  0
LWPOLYLINE
  5
113
100
AcDbEntity
  8
0
 62
7
100
AcDbPolyline
 90
1
 70
1
 10
71.940499
 20
-7.815398
 30
0.0
  0
SPLINE
  5
114
100
AcDbEntity
  8
0
 62
7
100
AcDbSpline
 70
8
 71
3
 72
8
 73
4
 74
0
 40
0
 40
0
 40
0
 40
0
 40
1
 40
1
 40
1
 40
1
 10
66.940519
 20
-8.195396
 30
0.0
 10
66.740311
 20
-8.195396
 30
0.0
 10
66.559816
 20
-8.315999
 30
0.0
 10
66.483200
 20
-8.500967
 30
0.0
  0
SPLINE
  5
115
100
AcDbEntity
  8
0
 62
7
100
AcDbSpline
 70
8
 71
3
 72
8
 73
4
 74
0
 40
0
 40
0
 40
0
 40
0
 40
1
 40
1
 40
1
 40
1
 10
66.483200
 20
-8.500967
 30
0.0
 10
66.406584
 20
-8.685935
 30
0.0
 10
66.448934
 20
-8.898842
 30
0.0
 10
66.590502
 20
-9.040411
 30
0.0
  0
SPLINE
  5
116
100
AcDbEntity
  8
0
 62
7
100
AcDbSpline
 70
8
 71
3
 72
8
 73
4
 74
0
 40
0
 40
0
 40
0
 40
0
 40
1
 40
1
 40
1
 40
1
 10
66.590502
 20
-9.040411
 30
0.0
 10
66.732071
 20
-9.181979
 30
0.0
 10
66.944978
 20
-9.224329
 30
0.0
 10
67.129946
 20
-9.147713
 30
0.0
  0
SPLINE
  5
117
100
AcDbEntity
  8
0
 62
7
100
AcDbSpline
 70
8
 71
3
 72
8
 73
4
 74
0
 40
0
 40
0
 40
0
 40
0
 40
1
 40
1
 40
1
 40
1
 10
67.129946
 20
-9.147713
 30
0.0
 10
67.314914
 20
-9.071096
 30
0.0
 10
67.435517
 20
-8.890602
 30
0.0
 10
67.435517
 20
-8.690394
 30
0.0
  0
SPLINE
  5
118
100
AcDbEntity
  8
0
 62
7
100
AcDbSpline
 70
8
 71
3
 72
8
 73
4
 74
0
 40
0
 40
0
 40
0
 40
0
 40
1
 40
1
 40
1
 40
1
 10
67.435517
 20
-8.690394
 30
0.0
 10
67.435517
 20
-8.559113
 30
0.0
 10
67.383365
 20
-8.433208
 30
0.0
 10
67.290535
 20
-8.340378
 30
0.0
  0
SPLINE
  5
119
100
AcDbEntity
  8
0
 62
7
100
AcDbSpline
 70
8
 71
3
 72
8
 73
4
 74
0
 40
0
 40
0
 40
0
 40
0
 40
1
 40
1
 40
1
 40
1
 10
67.290535
 20
-8.340378
 30
0.0
 10
67.197705
 20
-8.247548
 30
0.0
 10
67.071800
 20
-8.195396
 30
0.0
 10
66.940519
 20
-8.195396
 30
0.0
  0
LWPOLYLINE
  5
11a
100
AcDbEntity
  8
0
 62
7
100
AcDbPolyline
 90
1
 70
1
 10
69.440509
 20
-6.880402
 30
0.0
  0
SPLINE
  5
11b
100
AcDbEntity
  8
0
 62
7
100
AcDbSpline
 70
8
 71
3
 72
8
 73
4
 74
0
 40
0
 40
0
 40
0
 40
0
 40
1
 40
1
 40
1
 40
1
 10
71.940499
 20
-8.195396
 30
0.0
 10
71.740291
 20
-8.195396
 30
0.0
 10
71.559797
 20
-8.315999
 30
0.0
 10
71.483181
 20
-8.500967
 30
0.0
  0
SPLINE
  5
11c
100
AcDbEntity
  8
0
 62
7
100
AcDbSpline
 70
8
 71
3
 72
8
 73
4
 74
0
 40
0
 40
0
 40
0
 40
0
 40
1
 40
1
 40
1
 40
1
 10
71.483181
 20
-8.500967
 30
0.0
 10
71.406564
 20
-8.685935
 30
0.0
 10
71.448914
 20
-8.898842
 30
0.0
 10
71.590483
 20
-9.040411
 30
0.0
  0
SPLINE
  5
11d
100
AcDbEntity
  8
0
 62
7
100
AcDbSpline
 70
8
 71
3
 72
8
 73
4
 74
0
 40
0
 40
0
 40
0
 40
0
 40
1
 40
1
 40
1
 40
1
 10
71.590483
 20
-9.040411
 30
0.0
 10
71.732051
 20
-9.181979
 30
0.0
 10
71.944959
 20
-9.224329
 30
0.0
 10
72.129927
 20
-9.147713
 30
0.0
  0
SPLINE
  5
11e
100
AcDbEntity
  8
0
 62
7
100
AcDbSpline
 70
8
 71
3
 72
8
 73
4
 74
0
 40
0
 40
0
 40
0
 40
0
 40
1
 40
1
 40
1
 40
1
 10
72.129927
 20
-9.147713
 30
0.0
 10
72.314895
 20
-9.071096
 30
0.0
 10
72.435497
 20
-8.890602
 30
0.0
 10
72.435497
 20
-8.690394
 30
0.0
  0
SPLINE
  5
11f
100
AcDbEntity
  8
0
 62
7
100
AcDbSpline
 70
8
 71
3
 72
8
 73
4
 74
0
 40
0
 40
0
 40
0
 40
0
 40
1
 40
1
 40
1
 40
1
 10
72.435497
 20
-8.690394
 30
0.0
 10
72.435497
 20
-8.559113
 30
0.0
 10
72.383346
 20
-8.433208
 30
0.0
 10
72.290516
 20
-8.340378
 30
0.0
  0
SPLINE
  5
120
100
AcDbEntity
  8
0
 62
7
100
AcDbSpline
 70
8
 71
3
 72
8
 73
4
 74
0
 40
0
 40
0
 40
0
 40
0
 40
1
 40
1
 40
1
 40
1
 10
72.290516
 20
-8.340378
 30
0.0
 10
72.197686
 20
-8.247548
 30
0.0
 10
72.071781
 20
-8.195396
 30
0.0
 10
71.940499
 20
-8.195396
 30
0.0
  0
LWPOLYLINE
  5
121
100
AcDbEntity
  8
0
 62
7
100
AcDbPolyline
 90
1
 70
1
 10
66.940519
 20
-8.195396
 30
0.0
  0
LWPOLYLINE
  5
122
100
AcDbEntity
  8
0
 62
7
100
AcDbPolyline
 90
1
 70
1
 10
71.940499
 20
-8.195396
 30
0.0
  0
SPLINE
  5
123
100
AcDbEntity
  8
0
 62
7
100
AcDbSpline
 70
8
 71
3
 72
8
 73
4
 74
0
 40
0
 40
0
 40
0
 40
0
 40
1
 40
1
 40
1
 40
1
 10
116.777319
 20
-20.431621
 30
0.0
 10
116.781118
 20
-20.123419
 30
0.0
 10
116.648640
 20
-19.829265
 30
0.0
 10
116.415327
 20
-19.627851
 30
0.0
  0
SPLINE
  5
124
100
AcDbEntity
  8
0
 62
7
100
AcDbSpline
 70
8
 71
3
 72
8
 73
4
 74
0
 40
0
 40
0
 40
0
 40
0
 40
1
 40
1
 40
1
 40
1
 10
7.652736
 20
-23.010828
 30
0.0
 10
6.979802
 20
-23.517870
 30
0.0
 10
6.481147
 20
-24.221580
 30
0.0
 10
6.225807
 20
-25.024534
 30
0.0
  0
SPLINE
  5
125
100
AcDbEntity
  8
0
 62
7
100
AcDbSpline
 70
8
 71
3
 72
8
 73
4
 74
0
 40
0
 40
0
 40
0
 40
0
 40
1
 40
1
 40
1
 40
1
 10
116.415327
 20
-19.627851
 30
0.0
 10
99.881957
 20
-10.012548
 30
0.0
 10
81.039298
 20
-5.088393
 30
0.0
 10
61.915540
 20
-5.385414
 30
0.0
  0
SPLINE
  5
126
100
AcDbEntity
  8
0
 62
7
100
AcDbSpline
 70
8
 71
3
 72
8
 73
4
 74
0
 40
0
 40
0
 40
0
 40
0
 40
1
 40
1
 40
1
 40
1
 10
111.571137
 20
-95.007001
 30
0.0
 10
78.621508
 20
-82.349488
 30
0.0
 10
43.600457
 20
-75.947312
 30
0.0
 10
8.303746
 20
-76.128754
 30
0.0
  0
SPLINE
  5
127
100
AcDbEntity
  8
0
 62
7
100
AcDbSpline
 70
8
 71
3
 72
8
 73
4
 74
0
 40
0
 40
0
 40
0
 40
0
 40
1
 40
1
 40
1
 40
1
 10
6.265975
 20
-74.292664
 30
0.0
 10
6.344354
 20
-75.351438
 30
0.0
 10
7.242557
 20
-76.160745
 30
0.0
 10
8.303746
 20
-76.128754
 30
0.0
  0
LWPOLYLINE
  5
128
100
AcDbEntity
  8
0
 62
7
100
AcDbPolyline
 90
2
 70
0
 10
6.225807
 20
-25.024534
 30
0.0
 10
6.266006
 20
-74.292662
 30
0.0
  0
SPLINE
  5
129
100
AcDbEntity
  8
0
 62
7
100
AcDbSpline
 70
8
 71
3
 72
8
 73
4
 74
0
 40
0
 40
0
 40
0
 40
0
 40
1
 40
1
 40
1
 40
1
 10
61.915540
 20
-5.385417
 30
0.0
 10
42.373195
 20
-5.076159
 30
0.0
 10
23.283258
 20
-11.276875
 30
0.0
 10
7.652743
 20
-23.010837
 30
0.0
  0
SPLINE
  5
12a
100
AcDbEntity
  8
0
 62
7
100
AcDbSpline
 70
8
 71
3
 72
8
 73
4
 74
0
 40
0
 40
0
 40
0
 40
0
 40
1
 40
1
 40
1
 40
1
 10
111.571166
 20
-95.006952
 30
0.0
 10
111.774921
 20
-95.125282
 30
0.0
 10
112.017757
 20
-95.156538
 30
0.0
 10
112.244836
 20
-95.093661
 30
0.0
  0
SPLINE
  5
12b
100
AcDbEntity
  8
0
 62
7
100
AcDbSpline
 70
8
 71
3
 72
8
 73
4
 74
0
 40
0
 40
0
 40
0
 40
0
 40
1
 40
1
 40
1
 40
1
 10
112.244836
 20
-95.093661
 30
0.0
 10
112.471915
 20
-95.030783
 30
0.0
 10
112.664088
 20
-94.879075
 30
0.0
 10
112.777960
 20
-94.672794
 30
0.0
  0
LWPOLYLINE
  5
12c
100
AcDbEntity
  8
0
 62
7
100
AcDbPolyline
 90
2
 70
0
 10
116.777326
 20
-20.431621
 30
0.0
 10
116.777325
 20
-76.127631
 30
0.0
  0
SPLINE
  5
12d
100
AcDbEntity
  8
0
 62
7
100
AcDbSpline
 70
8
 71
3
 72
8
 73
4
 74
0
 40
0
 40
0
 40
0
 40
0
 40
1
 40
1
 40
1
 40
1
 10
116.777330
 20
-76.127630
 30
0.0
 10
116.976884
 20
-76.966958
 30
0.0
 10
117.542496
 20
-77.672468
 30
0.0
 10
118.318334
 20
-78.049786
 30
0.0
  0
SPLINE
  5
12e
100
AcDbEntity
  8
0
 62
7
100
AcDbSpline
 70
8
 71
3
 72
8
 73
4
 74
0
 40
0
 40
0
 40
0
 40
0
 40
1
 40
1
 40
1
 40
1
 10
119.468310
 20
-80.399770
 30
0.0
 10
119.699514
 20
-79.441874
 30
0.0
 10
119.216575
 20
-78.454983
 30
0.0
 10
118.318334
 20
-78.049785
 30
0.0
  0
LWPOLYLINE
  5
12f
100
AcDbEntity
  8
0
 62
7
100
AcDbPolyline
 90
2
 70
0
 10
119.468330
 20
-80.399775
 30
0.0
 10
112.777960
 20
-94.672794
 30
0.0
  0
ENDSEC
  0
SECTION
  2
OBJECTS
  0
DICTIONARY
  5
C
330
0
100
AcDbDictionary
  3
ACAD_GROUP
350
D
  3
ACAD_MLINESTYLE
350
17
  0
DICTIONARY
  5
D
330
C
100
AcDbDictionary
  0
DICTIONARY
  5
1A
330
C
100
AcDbDictionary
  0
DICTIONARY
  5
17
330
C
100
AcDbDictionary
  3
STANDARD
350
18
  0
DICTIONARY
  5
19
330
C
100
AcDbDictionary
  0
ENDSEC
  0
EOF
