%TF.GenerationSoftware,KiCad,Pcbnew,(6.0.0)*%
%TF.CreationDate,2022-06-16T08:24:19-07:00*%
%TF.ProjectId,half-swept,68616c66-2d73-4776-9570-742e6b696361,rev?*%
%TF.SameCoordinates,Original*%
%TF.FileFunction,Legend,Top*%
%TF.FilePolarity,Positive*%
%FSLAX46Y46*%
G04 Gerber Fmt 4.6, Leading zero omitted, Abs format (unit mm)*
G04 Created by KiCad (PCBNEW (6.0.0)) date 2022-06-16 08:24:19*
%MOMM*%
%LPD*%
G01*
G04 APERTURE LIST*
%ADD10C,0.150000*%
%ADD11C,0.100000*%
%ADD12C,0.120000*%
%ADD13C,0.010000*%
%ADD14C,0.200000*%
%ADD15C,0.381000*%
%ADD16C,1.752600*%
%ADD17R,1.752600X1.752600*%
%ADD18C,1.397000*%
G04 APERTURE END LIST*
D10*
%TO.C,RSW1*%
X73974447Y-17808063D02*
X73641113Y-17331873D01*
X73403018Y-17808063D02*
X73403018Y-16808063D01*
X73783971Y-16808063D01*
X73879209Y-16855683D01*
X73926828Y-16903302D01*
X73974447Y-16998540D01*
X73974447Y-17141397D01*
X73926828Y-17236635D01*
X73879209Y-17284254D01*
X73783971Y-17331873D01*
X73403018Y-17331873D01*
X74355399Y-17760444D02*
X74498256Y-17808063D01*
X74736352Y-17808063D01*
X74831590Y-17760444D01*
X74879209Y-17712825D01*
X74926828Y-17617587D01*
X74926828Y-17522349D01*
X74879209Y-17427111D01*
X74831590Y-17379492D01*
X74736352Y-17331873D01*
X74545875Y-17284254D01*
X74450637Y-17236635D01*
X74403018Y-17189016D01*
X74355399Y-17093778D01*
X74355399Y-16998540D01*
X74403018Y-16903302D01*
X74450637Y-16855683D01*
X74545875Y-16808063D01*
X74783971Y-16808063D01*
X74926828Y-16855683D01*
X75260161Y-16808063D02*
X75498256Y-17808063D01*
X75688733Y-17093778D01*
X75879209Y-17808063D01*
X76117304Y-16808063D01*
X77022066Y-17808063D02*
X76450637Y-17808063D01*
X76736352Y-17808063D02*
X76736352Y-16808063D01*
X76641113Y-16950921D01*
X76545875Y-17046159D01*
X76450637Y-17093778D01*
D11*
%TO.C,REF\u002A\u002A*%
X67228699Y-33345339D02*
X68228699Y-33345339D01*
X67276318Y-33345339D02*
X67228699Y-33250100D01*
X67228699Y-33059624D01*
X67276318Y-32964386D01*
X67323937Y-32916767D01*
X67419175Y-32869148D01*
X67704889Y-32869148D01*
X67800127Y-32916767D01*
X67847746Y-32964386D01*
X67895365Y-33059624D01*
X67895365Y-33250100D01*
X67847746Y-33345339D01*
X67228699Y-32012005D02*
X67895365Y-32012005D01*
X67228699Y-32440577D02*
X67752508Y-32440577D01*
X67847746Y-32392958D01*
X67895365Y-32297719D01*
X67895365Y-32154862D01*
X67847746Y-32059624D01*
X67800127Y-32012005D01*
X67847746Y-31107243D02*
X67895365Y-31202481D01*
X67895365Y-31392958D01*
X67847746Y-31488196D01*
X67800127Y-31535815D01*
X67704889Y-31583434D01*
X67419175Y-31583434D01*
X67323937Y-31535815D01*
X67276318Y-31488196D01*
X67228699Y-31392958D01*
X67228699Y-31202481D01*
X67276318Y-31107243D01*
X67895365Y-30678672D02*
X66895365Y-30678672D01*
X67514413Y-30583434D02*
X67895365Y-30297719D01*
X67228699Y-30297719D02*
X67609651Y-30678672D01*
X67292199Y-47235839D02*
X67292199Y-46854886D01*
X66958865Y-47092981D02*
X67816008Y-47092981D01*
X67911246Y-47045362D01*
X67958865Y-46950124D01*
X67958865Y-46854886D01*
X67911246Y-46140600D02*
X67958865Y-46235839D01*
X67958865Y-46426315D01*
X67911246Y-46521553D01*
X67816008Y-46569172D01*
X67435056Y-46569172D01*
X67339818Y-46521553D01*
X67292199Y-46426315D01*
X67292199Y-46235839D01*
X67339818Y-46140600D01*
X67435056Y-46092981D01*
X67530294Y-46092981D01*
X67625532Y-46569172D01*
X67292199Y-45664410D02*
X67958865Y-45664410D01*
X67387437Y-45664410D02*
X67339818Y-45616791D01*
X67292199Y-45521553D01*
X67292199Y-45378696D01*
X67339818Y-45283458D01*
X67435056Y-45235839D01*
X67958865Y-45235839D01*
X67292199Y-44902505D02*
X67292199Y-44521553D01*
X66958865Y-44759648D02*
X67816008Y-44759648D01*
X67911246Y-44712029D01*
X67958865Y-44616791D01*
X67958865Y-44521553D01*
X67958865Y-44188219D02*
X67292199Y-44188219D01*
X66958865Y-44188219D02*
X67006485Y-44235839D01*
X67054104Y-44188219D01*
X67006485Y-44140600D01*
X66958865Y-44188219D01*
X67054104Y-44188219D01*
X67292199Y-43712029D02*
X67958865Y-43712029D01*
X67387437Y-43712029D02*
X67339818Y-43664410D01*
X67292199Y-43569172D01*
X67292199Y-43426315D01*
X67339818Y-43331077D01*
X67435056Y-43283458D01*
X67958865Y-43283458D01*
X67292199Y-42378696D02*
X68101723Y-42378696D01*
X68196961Y-42426315D01*
X68244580Y-42473934D01*
X68292199Y-42569172D01*
X68292199Y-42712029D01*
X68244580Y-42807267D01*
X67911246Y-42378696D02*
X67958865Y-42473934D01*
X67958865Y-42664410D01*
X67911246Y-42759648D01*
X67863627Y-42807267D01*
X67768389Y-42854886D01*
X67482675Y-42854886D01*
X67387437Y-42807267D01*
X67339818Y-42759648D01*
X67292199Y-42664410D01*
X67292199Y-42473934D01*
X67339818Y-42378696D01*
D10*
%TO.C,U2*%
X117965209Y-31919933D02*
X117889018Y-31881837D01*
X117774733Y-31881837D01*
X117660447Y-31919933D01*
X117584256Y-31996123D01*
X117546161Y-32072313D01*
X117508066Y-32224694D01*
X117508066Y-32338980D01*
X117546161Y-32491361D01*
X117584256Y-32567552D01*
X117660447Y-32643742D01*
X117774733Y-32681837D01*
X117850923Y-32681837D01*
X117965209Y-32643742D01*
X118003304Y-32605647D01*
X118003304Y-32338980D01*
X117850923Y-32338980D01*
X118346161Y-32681837D02*
X118346161Y-31881837D01*
X118803304Y-32681837D01*
X118803304Y-31881837D01*
X119184256Y-32681837D02*
X119184256Y-31881837D01*
X119374733Y-31881837D01*
X119489018Y-31919933D01*
X119565209Y-31996123D01*
X119603304Y-32072313D01*
X119641399Y-32224694D01*
X119641399Y-32338980D01*
X119603304Y-32491361D01*
X119565209Y-32567552D01*
X119489018Y-32643742D01*
X119374733Y-32681837D01*
X119184256Y-32681837D01*
X118308066Y-44962790D02*
X118041399Y-44962790D01*
X118041399Y-45381837D02*
X118041399Y-44581837D01*
X118422352Y-44581837D01*
X119069971Y-44581837D02*
X118917590Y-44581837D01*
X118841399Y-44619933D01*
X118803304Y-44658028D01*
X118727113Y-44772313D01*
X118689018Y-44924694D01*
X118689018Y-45229456D01*
X118727113Y-45305647D01*
X118765209Y-45343742D01*
X118841399Y-45381837D01*
X118993780Y-45381837D01*
X119069971Y-45343742D01*
X119108066Y-45305647D01*
X119146161Y-45229456D01*
X119146161Y-45038980D01*
X119108066Y-44962790D01*
X119069971Y-44924694D01*
X118993780Y-44886599D01*
X118841399Y-44886599D01*
X118765209Y-44924694D01*
X118727113Y-44962790D01*
X118689018Y-45038980D01*
X118250923Y-50042790D02*
X118365209Y-50080885D01*
X118403304Y-50118980D01*
X118441399Y-50195171D01*
X118441399Y-50309456D01*
X118403304Y-50385647D01*
X118365209Y-50423742D01*
X118289018Y-50461837D01*
X117984256Y-50461837D01*
X117984256Y-49661837D01*
X118250923Y-49661837D01*
X118327113Y-49699933D01*
X118365209Y-49738028D01*
X118403304Y-49814218D01*
X118403304Y-49890409D01*
X118365209Y-49966599D01*
X118327113Y-50004694D01*
X118250923Y-50042790D01*
X117984256Y-50042790D01*
X119203304Y-50461837D02*
X118746161Y-50461837D01*
X118974733Y-50461837D02*
X118974733Y-49661837D01*
X118898542Y-49776123D01*
X118822352Y-49852313D01*
X118746161Y-49890409D01*
X117508066Y-36961837D02*
X117774733Y-37761837D01*
X118041399Y-36961837D01*
X118765209Y-37685647D02*
X118727113Y-37723742D01*
X118612828Y-37761837D01*
X118536637Y-37761837D01*
X118422352Y-37723742D01*
X118346161Y-37647552D01*
X118308066Y-37571361D01*
X118269971Y-37418980D01*
X118269971Y-37304694D01*
X118308066Y-37152313D01*
X118346161Y-37076123D01*
X118422352Y-36999933D01*
X118536637Y-36961837D01*
X118612828Y-36961837D01*
X118727113Y-36999933D01*
X118765209Y-37038028D01*
X119565209Y-37685647D02*
X119527113Y-37723742D01*
X119412828Y-37761837D01*
X119336637Y-37761837D01*
X119222352Y-37723742D01*
X119146161Y-37647552D01*
X119108066Y-37571361D01*
X119069971Y-37418980D01*
X119069971Y-37304694D01*
X119108066Y-37152313D01*
X119146161Y-37076123D01*
X119222352Y-36999933D01*
X119336637Y-36961837D01*
X119412828Y-36961837D01*
X119527113Y-36999933D01*
X119565209Y-37038028D01*
X107328923Y-55122790D02*
X107443209Y-55160885D01*
X107481304Y-55198980D01*
X107519399Y-55275171D01*
X107519399Y-55389456D01*
X107481304Y-55465647D01*
X107443209Y-55503742D01*
X107367018Y-55541837D01*
X107062256Y-55541837D01*
X107062256Y-54741837D01*
X107328923Y-54741837D01*
X107405113Y-54779933D01*
X107443209Y-54818028D01*
X107481304Y-54894218D01*
X107481304Y-54970409D01*
X107443209Y-55046599D01*
X107405113Y-55084694D01*
X107328923Y-55122790D01*
X107062256Y-55122790D01*
X108205113Y-55008504D02*
X108205113Y-55541837D01*
X108014637Y-54703742D02*
X107824161Y-55275171D01*
X108319399Y-55275171D01*
X118308066Y-47502790D02*
X118041399Y-47502790D01*
X118041399Y-47921837D02*
X118041399Y-47121837D01*
X118422352Y-47121837D01*
X118650923Y-47121837D02*
X119184256Y-47121837D01*
X118841399Y-47921837D01*
X118250923Y-29722790D02*
X118365209Y-29760885D01*
X118403304Y-29798980D01*
X118441399Y-29875171D01*
X118441399Y-29989456D01*
X118403304Y-30065647D01*
X118365209Y-30103742D01*
X118289018Y-30141837D01*
X117984256Y-30141837D01*
X117984256Y-29341837D01*
X118250923Y-29341837D01*
X118327113Y-29379933D01*
X118365209Y-29418028D01*
X118403304Y-29494218D01*
X118403304Y-29570409D01*
X118365209Y-29646599D01*
X118327113Y-29684694D01*
X118250923Y-29722790D01*
X117984256Y-29722790D01*
X118936637Y-29341837D02*
X119012828Y-29341837D01*
X119089018Y-29379933D01*
X119127113Y-29418028D01*
X119165209Y-29494218D01*
X119203304Y-29646599D01*
X119203304Y-29837075D01*
X119165209Y-29989456D01*
X119127113Y-30065647D01*
X119089018Y-30103742D01*
X119012828Y-30141837D01*
X118936637Y-30141837D01*
X118860447Y-30103742D01*
X118822352Y-30065647D01*
X118784256Y-29989456D01*
X118746161Y-29837075D01*
X118746161Y-29646599D01*
X118784256Y-29494218D01*
X118822352Y-29418028D01*
X118860447Y-29379933D01*
X118936637Y-29341837D01*
X107062256Y-32681837D02*
X107062256Y-31881837D01*
X107252733Y-31881837D01*
X107367018Y-31919933D01*
X107443209Y-31996123D01*
X107481304Y-32072313D01*
X107519399Y-32224694D01*
X107519399Y-32338980D01*
X107481304Y-32491361D01*
X107443209Y-32567552D01*
X107367018Y-32643742D01*
X107252733Y-32681837D01*
X107062256Y-32681837D01*
X107824161Y-31958028D02*
X107862256Y-31919933D01*
X107938447Y-31881837D01*
X108128923Y-31881837D01*
X108205113Y-31919933D01*
X108243209Y-31958028D01*
X108281304Y-32034218D01*
X108281304Y-32110409D01*
X108243209Y-32224694D01*
X107786066Y-32681837D01*
X108281304Y-32681837D01*
X107062256Y-40301837D02*
X107062256Y-39501837D01*
X107252733Y-39501837D01*
X107367018Y-39539933D01*
X107443209Y-39616123D01*
X107481304Y-39692313D01*
X107519399Y-39844694D01*
X107519399Y-39958980D01*
X107481304Y-40111361D01*
X107443209Y-40187552D01*
X107367018Y-40263742D01*
X107252733Y-40301837D01*
X107062256Y-40301837D01*
X108281304Y-40301837D02*
X107824161Y-40301837D01*
X108052733Y-40301837D02*
X108052733Y-39501837D01*
X107976542Y-39616123D01*
X107900352Y-39692313D01*
X107824161Y-39730409D01*
X107351384Y-29341837D02*
X107808527Y-29341837D01*
X107579956Y-30141837D02*
X107579956Y-29341837D01*
X107999003Y-29341837D02*
X108532337Y-30141837D01*
X108532337Y-29341837D02*
X107999003Y-30141837D01*
X108989480Y-29341837D02*
X109065670Y-29341837D01*
X109141861Y-29379933D01*
X109179956Y-29418028D01*
X109218051Y-29494218D01*
X109256146Y-29646599D01*
X109256146Y-29837075D01*
X109218051Y-29989456D01*
X109179956Y-30065647D01*
X109141861Y-30103742D01*
X109065670Y-30141837D01*
X108989480Y-30141837D01*
X108913289Y-30103742D01*
X108875194Y-30065647D01*
X108837099Y-29989456D01*
X108799003Y-29837075D01*
X108799003Y-29646599D01*
X108837099Y-29494218D01*
X108875194Y-29418028D01*
X108913289Y-29379933D01*
X108989480Y-29341837D01*
X110170432Y-29303742D02*
X109484718Y-30332313D01*
X110437099Y-30141837D02*
X110437099Y-29341837D01*
X110627575Y-29341837D01*
X110741861Y-29379933D01*
X110818051Y-29456123D01*
X110856146Y-29532313D01*
X110894241Y-29684694D01*
X110894241Y-29798980D01*
X110856146Y-29951361D01*
X110818051Y-30027552D01*
X110741861Y-30103742D01*
X110627575Y-30141837D01*
X110437099Y-30141837D01*
X111160908Y-29341837D02*
X111656146Y-29341837D01*
X111389480Y-29646599D01*
X111503765Y-29646599D01*
X111579956Y-29684694D01*
X111618051Y-29722790D01*
X111656146Y-29798980D01*
X111656146Y-29989456D01*
X111618051Y-30065647D01*
X111579956Y-30103742D01*
X111503765Y-30141837D01*
X111275194Y-30141837D01*
X111199003Y-30103742D01*
X111160908Y-30065647D01*
X118308066Y-42422790D02*
X118041399Y-42422790D01*
X118041399Y-42841837D02*
X118041399Y-42041837D01*
X118422352Y-42041837D01*
X119108066Y-42041837D02*
X118727113Y-42041837D01*
X118689018Y-42422790D01*
X118727113Y-42384694D01*
X118803304Y-42346599D01*
X118993780Y-42346599D01*
X119069971Y-42384694D01*
X119108066Y-42422790D01*
X119146161Y-42498980D01*
X119146161Y-42689456D01*
X119108066Y-42765647D01*
X119069971Y-42803742D01*
X118993780Y-42841837D01*
X118803304Y-42841837D01*
X118727113Y-42803742D01*
X118689018Y-42765647D01*
X119278030Y-56614924D02*
X119372311Y-56567784D01*
X119419452Y-56567784D01*
X119490162Y-56591354D01*
X119560873Y-56662065D01*
X119584443Y-56732775D01*
X119584443Y-56779916D01*
X119560873Y-56850626D01*
X119372311Y-57039188D01*
X118877336Y-56544213D01*
X119042328Y-56379222D01*
X119113039Y-56355652D01*
X119160179Y-56355652D01*
X119230890Y-56379222D01*
X119278030Y-56426362D01*
X119301600Y-56497073D01*
X119301600Y-56544213D01*
X119278030Y-56614924D01*
X119113039Y-56779916D01*
X119584443Y-55837107D02*
X119490162Y-55931388D01*
X119466592Y-56002098D01*
X119466592Y-56049239D01*
X119490162Y-56167090D01*
X119560873Y-56284941D01*
X119749435Y-56473503D01*
X119820145Y-56497073D01*
X119867286Y-56497073D01*
X119937997Y-56473503D01*
X120032277Y-56379222D01*
X120055848Y-56308511D01*
X120055848Y-56261371D01*
X120032277Y-56190660D01*
X119914426Y-56072809D01*
X119843716Y-56049239D01*
X119796575Y-56049239D01*
X119725865Y-56072809D01*
X119631584Y-56167090D01*
X119608013Y-56237800D01*
X119608013Y-56284941D01*
X119631584Y-56355652D01*
X112980399Y-56435647D02*
X112942304Y-56473742D01*
X112828018Y-56511837D01*
X112751828Y-56511837D01*
X112637542Y-56473742D01*
X112561352Y-56397552D01*
X112523256Y-56321361D01*
X112485161Y-56168980D01*
X112485161Y-56054694D01*
X112523256Y-55902313D01*
X112561352Y-55826123D01*
X112637542Y-55749933D01*
X112751828Y-55711837D01*
X112828018Y-55711837D01*
X112942304Y-55749933D01*
X112980399Y-55788028D01*
X113247066Y-55711837D02*
X113780399Y-55711837D01*
X113437542Y-56511837D01*
X118313519Y-35153742D02*
X118427805Y-35191837D01*
X118618281Y-35191837D01*
X118694472Y-35153742D01*
X118732567Y-35115647D01*
X118770662Y-35039456D01*
X118770662Y-34963266D01*
X118732567Y-34887075D01*
X118694472Y-34848980D01*
X118618281Y-34810885D01*
X118465900Y-34772790D01*
X118389710Y-34734694D01*
X118351614Y-34696599D01*
X118313519Y-34620409D01*
X118313519Y-34544218D01*
X118351614Y-34468028D01*
X118389710Y-34429933D01*
X118465900Y-34391837D01*
X118656376Y-34391837D01*
X118770662Y-34429933D01*
X118999233Y-34391837D02*
X119456376Y-34391837D01*
X119227805Y-35191837D02*
X119227805Y-34391837D01*
X107043209Y-36999933D02*
X106967018Y-36961837D01*
X106852733Y-36961837D01*
X106738447Y-36999933D01*
X106662256Y-37076123D01*
X106624161Y-37152313D01*
X106586066Y-37304694D01*
X106586066Y-37418980D01*
X106624161Y-37571361D01*
X106662256Y-37647552D01*
X106738447Y-37723742D01*
X106852733Y-37761837D01*
X106928923Y-37761837D01*
X107043209Y-37723742D01*
X107081304Y-37685647D01*
X107081304Y-37418980D01*
X106928923Y-37418980D01*
X107424161Y-37761837D02*
X107424161Y-36961837D01*
X107881304Y-37761837D01*
X107881304Y-36961837D01*
X108262256Y-37761837D02*
X108262256Y-36961837D01*
X108452733Y-36961837D01*
X108567018Y-36999933D01*
X108643209Y-37076123D01*
X108681304Y-37152313D01*
X108719399Y-37304694D01*
X108719399Y-37418980D01*
X108681304Y-37571361D01*
X108643209Y-37647552D01*
X108567018Y-37723742D01*
X108452733Y-37761837D01*
X108262256Y-37761837D01*
X106878724Y-56685635D02*
X106831584Y-56591354D01*
X106831584Y-56544213D01*
X106855154Y-56473503D01*
X106925865Y-56402792D01*
X106996575Y-56379222D01*
X107043716Y-56379222D01*
X107114426Y-56402792D01*
X107302988Y-56591354D01*
X106808013Y-57086329D01*
X106643022Y-56921337D01*
X106619452Y-56850626D01*
X106619452Y-56803486D01*
X106643022Y-56732775D01*
X106690162Y-56685635D01*
X106760873Y-56662065D01*
X106808013Y-56662065D01*
X106878724Y-56685635D01*
X107043716Y-56850626D01*
X106077336Y-56355652D02*
X106313039Y-56591354D01*
X106572311Y-56379222D01*
X106525171Y-56379222D01*
X106454460Y-56355652D01*
X106336609Y-56237800D01*
X106313039Y-56167090D01*
X106313039Y-56119949D01*
X106336609Y-56049239D01*
X106454460Y-55931388D01*
X106525171Y-55907817D01*
X106572311Y-55907817D01*
X106643022Y-55931388D01*
X106760873Y-56049239D01*
X106784443Y-56119949D01*
X106784443Y-56167090D01*
X109983256Y-56511837D02*
X109983256Y-55711837D01*
X110173733Y-55711837D01*
X110288018Y-55749933D01*
X110364209Y-55826123D01*
X110402304Y-55902313D01*
X110440399Y-56054694D01*
X110440399Y-56168980D01*
X110402304Y-56321361D01*
X110364209Y-56397552D01*
X110288018Y-56473742D01*
X110173733Y-56511837D01*
X109983256Y-56511837D01*
X111164209Y-55711837D02*
X110783256Y-55711837D01*
X110745161Y-56092790D01*
X110783256Y-56054694D01*
X110859447Y-56016599D01*
X111049923Y-56016599D01*
X111126113Y-56054694D01*
X111164209Y-56092790D01*
X111202304Y-56168980D01*
X111202304Y-56359456D01*
X111164209Y-56435647D01*
X111126113Y-56473742D01*
X111049923Y-56511837D01*
X110859447Y-56511837D01*
X110783256Y-56473742D01*
X110745161Y-56435647D01*
X107062256Y-42841837D02*
X107062256Y-42041837D01*
X107252733Y-42041837D01*
X107367018Y-42079933D01*
X107443209Y-42156123D01*
X107481304Y-42232313D01*
X107519399Y-42384694D01*
X107519399Y-42498980D01*
X107481304Y-42651361D01*
X107443209Y-42727552D01*
X107367018Y-42803742D01*
X107252733Y-42841837D01*
X107062256Y-42841837D01*
X108014637Y-42041837D02*
X108090828Y-42041837D01*
X108167018Y-42079933D01*
X108205113Y-42118028D01*
X108243209Y-42194218D01*
X108281304Y-42346599D01*
X108281304Y-42537075D01*
X108243209Y-42689456D01*
X108205113Y-42765647D01*
X108167018Y-42803742D01*
X108090828Y-42841837D01*
X108014637Y-42841837D01*
X107938447Y-42803742D01*
X107900352Y-42765647D01*
X107862256Y-42689456D01*
X107824161Y-42537075D01*
X107824161Y-42346599D01*
X107862256Y-42194218D01*
X107900352Y-42118028D01*
X107938447Y-42079933D01*
X108014637Y-42041837D01*
X118250923Y-52582790D02*
X118365209Y-52620885D01*
X118403304Y-52658980D01*
X118441399Y-52735171D01*
X118441399Y-52849456D01*
X118403304Y-52925647D01*
X118365209Y-52963742D01*
X118289018Y-53001837D01*
X117984256Y-53001837D01*
X117984256Y-52201837D01*
X118250923Y-52201837D01*
X118327113Y-52239933D01*
X118365209Y-52278028D01*
X118403304Y-52354218D01*
X118403304Y-52430409D01*
X118365209Y-52506599D01*
X118327113Y-52544694D01*
X118250923Y-52582790D01*
X117984256Y-52582790D01*
X118708066Y-52201837D02*
X119203304Y-52201837D01*
X118936637Y-52506599D01*
X119050923Y-52506599D01*
X119127113Y-52544694D01*
X119165209Y-52582790D01*
X119203304Y-52658980D01*
X119203304Y-52849456D01*
X119165209Y-52925647D01*
X119127113Y-52963742D01*
X119050923Y-53001837D01*
X118822352Y-53001837D01*
X118746161Y-52963742D01*
X118708066Y-52925647D01*
X115387066Y-56092790D02*
X115120399Y-56092790D01*
X115120399Y-56511837D02*
X115120399Y-55711837D01*
X115501352Y-55711837D01*
X116225161Y-56511837D02*
X115768018Y-56511837D01*
X115996590Y-56511837D02*
X115996590Y-55711837D01*
X115920399Y-55826123D01*
X115844209Y-55902313D01*
X115768018Y-55940409D01*
X118250923Y-55122790D02*
X118365209Y-55160885D01*
X118403304Y-55198980D01*
X118441399Y-55275171D01*
X118441399Y-55389456D01*
X118403304Y-55465647D01*
X118365209Y-55503742D01*
X118289018Y-55541837D01*
X117984256Y-55541837D01*
X117984256Y-54741837D01*
X118250923Y-54741837D01*
X118327113Y-54779933D01*
X118365209Y-54818028D01*
X118403304Y-54894218D01*
X118403304Y-54970409D01*
X118365209Y-55046599D01*
X118327113Y-55084694D01*
X118250923Y-55122790D01*
X117984256Y-55122790D01*
X118746161Y-54818028D02*
X118784256Y-54779933D01*
X118860447Y-54741837D01*
X119050923Y-54741837D01*
X119127113Y-54779933D01*
X119165209Y-54818028D01*
X119203304Y-54894218D01*
X119203304Y-54970409D01*
X119165209Y-55084694D01*
X118708066Y-55541837D01*
X119203304Y-55541837D01*
X108330399Y-56299933D02*
X108430399Y-56333266D01*
X108463733Y-56366599D01*
X108497066Y-56433266D01*
X108497066Y-56533266D01*
X108463733Y-56599933D01*
X108430399Y-56633266D01*
X108363733Y-56666599D01*
X108097066Y-56666599D01*
X108097066Y-55966599D01*
X108330399Y-55966599D01*
X108397066Y-55999933D01*
X108430399Y-56033266D01*
X108463733Y-56099933D01*
X108463733Y-56166599D01*
X108430399Y-56233266D01*
X108397066Y-56266599D01*
X108330399Y-56299933D01*
X108097066Y-56299933D01*
X108730399Y-55966599D02*
X109197066Y-55966599D01*
X108897066Y-56666599D01*
X107043209Y-34459933D02*
X106967018Y-34421837D01*
X106852733Y-34421837D01*
X106738447Y-34459933D01*
X106662256Y-34536123D01*
X106624161Y-34612313D01*
X106586066Y-34764694D01*
X106586066Y-34878980D01*
X106624161Y-35031361D01*
X106662256Y-35107552D01*
X106738447Y-35183742D01*
X106852733Y-35221837D01*
X106928923Y-35221837D01*
X107043209Y-35183742D01*
X107081304Y-35145647D01*
X107081304Y-34878980D01*
X106928923Y-34878980D01*
X107424161Y-35221837D02*
X107424161Y-34421837D01*
X107881304Y-35221837D01*
X107881304Y-34421837D01*
X108262256Y-35221837D02*
X108262256Y-34421837D01*
X108452733Y-34421837D01*
X108567018Y-34459933D01*
X108643209Y-34536123D01*
X108681304Y-34612313D01*
X108719399Y-34764694D01*
X108719399Y-34878980D01*
X108681304Y-35031361D01*
X108643209Y-35107552D01*
X108567018Y-35183742D01*
X108452733Y-35221837D01*
X108262256Y-35221837D01*
X118308066Y-39882790D02*
X118041399Y-39882790D01*
X118041399Y-40301837D02*
X118041399Y-39501837D01*
X118422352Y-39501837D01*
X119069971Y-39768504D02*
X119069971Y-40301837D01*
X118879494Y-39463742D02*
X118689018Y-40035171D01*
X119184256Y-40035171D01*
X107519399Y-47845647D02*
X107481304Y-47883742D01*
X107367018Y-47921837D01*
X107290828Y-47921837D01*
X107176542Y-47883742D01*
X107100352Y-47807552D01*
X107062256Y-47731361D01*
X107024161Y-47578980D01*
X107024161Y-47464694D01*
X107062256Y-47312313D01*
X107100352Y-47236123D01*
X107176542Y-47159933D01*
X107290828Y-47121837D01*
X107367018Y-47121837D01*
X107481304Y-47159933D01*
X107519399Y-47198028D01*
X108205113Y-47121837D02*
X108052733Y-47121837D01*
X107976542Y-47159933D01*
X107938447Y-47198028D01*
X107862256Y-47312313D01*
X107824161Y-47464694D01*
X107824161Y-47769456D01*
X107862256Y-47845647D01*
X107900352Y-47883742D01*
X107976542Y-47921837D01*
X108128923Y-47921837D01*
X108205113Y-47883742D01*
X108243209Y-47845647D01*
X108281304Y-47769456D01*
X108281304Y-47578980D01*
X108243209Y-47502790D01*
X108205113Y-47464694D01*
X108128923Y-47426599D01*
X107976542Y-47426599D01*
X107900352Y-47464694D01*
X107862256Y-47502790D01*
X107824161Y-47578980D01*
X107062256Y-50461837D02*
X107062256Y-49661837D01*
X107252733Y-49661837D01*
X107367018Y-49699933D01*
X107443209Y-49776123D01*
X107481304Y-49852313D01*
X107519399Y-50004694D01*
X107519399Y-50118980D01*
X107481304Y-50271361D01*
X107443209Y-50347552D01*
X107367018Y-50423742D01*
X107252733Y-50461837D01*
X107062256Y-50461837D01*
X107786066Y-49661837D02*
X108319399Y-49661837D01*
X107976542Y-50461837D01*
X107062256Y-45381837D02*
X107062256Y-44581837D01*
X107252733Y-44581837D01*
X107367018Y-44619933D01*
X107443209Y-44696123D01*
X107481304Y-44772313D01*
X107519399Y-44924694D01*
X107519399Y-45038980D01*
X107481304Y-45191361D01*
X107443209Y-45267552D01*
X107367018Y-45343742D01*
X107252733Y-45381837D01*
X107062256Y-45381837D01*
X108205113Y-44848504D02*
X108205113Y-45381837D01*
X108014637Y-44543742D02*
X107824161Y-45115171D01*
X108319399Y-45115171D01*
X117380399Y-56299933D02*
X117147066Y-56299933D01*
X117147066Y-56666599D02*
X117147066Y-55966599D01*
X117480399Y-55966599D01*
X117880399Y-55966599D02*
X117947066Y-55966599D01*
X118013733Y-55999933D01*
X118047066Y-56033266D01*
X118080399Y-56099933D01*
X118113733Y-56233266D01*
X118113733Y-56399933D01*
X118080399Y-56533266D01*
X118047066Y-56599933D01*
X118013733Y-56633266D01*
X117947066Y-56666599D01*
X117880399Y-56666599D01*
X117813733Y-56633266D01*
X117780399Y-56599933D01*
X117747066Y-56533266D01*
X117713733Y-56399933D01*
X117713733Y-56233266D01*
X117747066Y-56099933D01*
X117780399Y-56033266D01*
X117813733Y-55999933D01*
X117880399Y-55966599D01*
X107100352Y-52582790D02*
X107367018Y-52582790D01*
X107481304Y-53001837D02*
X107100352Y-53001837D01*
X107100352Y-52201837D01*
X107481304Y-52201837D01*
X108167018Y-52201837D02*
X108014637Y-52201837D01*
X107938447Y-52239933D01*
X107900352Y-52278028D01*
X107824161Y-52392313D01*
X107786066Y-52544694D01*
X107786066Y-52849456D01*
X107824161Y-52925647D01*
X107862256Y-52963742D01*
X107938447Y-53001837D01*
X108090828Y-53001837D01*
X108167018Y-52963742D01*
X108205113Y-52925647D01*
X108243209Y-52849456D01*
X108243209Y-52658980D01*
X108205113Y-52582790D01*
X108167018Y-52544694D01*
X108090828Y-52506599D01*
X107938447Y-52506599D01*
X107862256Y-52544694D01*
X107824161Y-52582790D01*
X107786066Y-52658980D01*
%TO.C,OL1*%
X110056589Y-61595563D02*
X109961351Y-61547944D01*
X109913732Y-61452706D01*
X109913732Y-60595563D01*
X110818493Y-61547944D02*
X110723255Y-61595563D01*
X110532779Y-61595563D01*
X110437541Y-61547944D01*
X110389922Y-61452706D01*
X110389922Y-61071754D01*
X110437541Y-60976516D01*
X110532779Y-60928897D01*
X110723255Y-60928897D01*
X110818493Y-60976516D01*
X110866112Y-61071754D01*
X110866112Y-61166992D01*
X110389922Y-61262230D01*
X111151827Y-60928897D02*
X111532779Y-60928897D01*
X111294684Y-61595563D02*
X111294684Y-60738421D01*
X111342303Y-60643183D01*
X111437541Y-60595563D01*
X111532779Y-60595563D01*
X111723255Y-60928897D02*
X112104208Y-60928897D01*
X111866112Y-60595563D02*
X111866112Y-61452706D01*
X111913732Y-61547944D01*
X112008970Y-61595563D01*
X112104208Y-61595563D01*
X113342303Y-61595563D02*
X113247065Y-61547944D01*
X113199446Y-61500325D01*
X113151827Y-61405087D01*
X113151827Y-61119373D01*
X113199446Y-61024135D01*
X113247065Y-60976516D01*
X113342303Y-60928897D01*
X113485160Y-60928897D01*
X113580398Y-60976516D01*
X113628017Y-61024135D01*
X113675636Y-61119373D01*
X113675636Y-61405087D01*
X113628017Y-61500325D01*
X113580398Y-61547944D01*
X113485160Y-61595563D01*
X113342303Y-61595563D01*
X114247065Y-61595563D02*
X114151827Y-61547944D01*
X114104208Y-61452706D01*
X114104208Y-60595563D01*
X115008970Y-61547944D02*
X114913732Y-61595563D01*
X114723255Y-61595563D01*
X114628017Y-61547944D01*
X114580398Y-61452706D01*
X114580398Y-61071754D01*
X114628017Y-60976516D01*
X114723255Y-60928897D01*
X114913732Y-60928897D01*
X115008970Y-60976516D01*
X115056589Y-61071754D01*
X115056589Y-61166992D01*
X114580398Y-61262230D01*
X115913732Y-61595563D02*
X115913732Y-60595563D01*
X115913732Y-61547944D02*
X115818493Y-61595563D01*
X115628017Y-61595563D01*
X115532779Y-61547944D01*
X115485160Y-61500325D01*
X115437541Y-61405087D01*
X115437541Y-61119373D01*
X115485160Y-61024135D01*
X115532779Y-60976516D01*
X115628017Y-60928897D01*
X115818493Y-60928897D01*
X115913732Y-60976516D01*
%TO.C,J2*%
X120431735Y-69933182D02*
X108331735Y-69933182D01*
X122431735Y-75783182D02*
X122431735Y-70183182D01*
X120431735Y-70183182D02*
X122431735Y-70183182D01*
X108331735Y-76033182D02*
X108331735Y-69933182D01*
X120431735Y-76033182D02*
X120431735Y-69933182D01*
X120431735Y-75783182D02*
X122431735Y-75783182D01*
X120431735Y-76033182D02*
X108331735Y-76033182D01*
D12*
%TO.C,RSW1*%
X71848733Y-16645683D02*
X72388733Y-16645683D01*
X71848733Y-16645683D02*
X71848733Y-16875683D01*
X78528733Y-16645683D02*
X78528733Y-16875683D01*
X73488733Y-16645683D02*
X76888733Y-16645683D01*
X77988733Y-16645683D02*
X78528733Y-16645683D01*
X71328733Y-12975683D02*
X71328733Y-16875683D01*
X71328733Y-12975683D02*
X79048733Y-12975683D01*
X79048733Y-12975683D02*
X79048733Y-16875683D01*
D13*
%TO.C,REF\u002A\u002A*%
X66070230Y-51959706D02*
X66873176Y-51157006D01*
X66873176Y-51157006D02*
X67161544Y-51160100D01*
X67161544Y-51160100D02*
X67449912Y-51163193D01*
X67449912Y-51163193D02*
X66602688Y-52023330D01*
X66602688Y-52023330D02*
X66484763Y-52143053D01*
X66484763Y-52143053D02*
X66369964Y-52259602D01*
X66369964Y-52259602D02*
X66259510Y-52371742D01*
X66259510Y-52371742D02*
X66154618Y-52478235D01*
X66154618Y-52478235D02*
X66056506Y-52577846D01*
X66056506Y-52577846D02*
X65966391Y-52669339D01*
X65966391Y-52669339D02*
X65885492Y-52751476D01*
X65885492Y-52751476D02*
X65815025Y-52823021D01*
X65815025Y-52823021D02*
X65756209Y-52882739D01*
X65756209Y-52882739D02*
X65710262Y-52929393D01*
X65710262Y-52929393D02*
X65678401Y-52961746D01*
X65678401Y-52961746D02*
X65664620Y-52975742D01*
X65664620Y-52975742D02*
X65573776Y-53068018D01*
X65573776Y-53068018D02*
X65573776Y-50326148D01*
X65573776Y-50326148D02*
X66070230Y-50326148D01*
X66070230Y-50326148D02*
X66070230Y-51959706D01*
X66070230Y-51959706D02*
X66070230Y-51959706D01*
G36*
X66070230Y-51959706D02*
G01*
X66873176Y-51157006D01*
X67161544Y-51160100D01*
X67449912Y-51163193D01*
X66602688Y-52023330D01*
X66484763Y-52143053D01*
X66369964Y-52259602D01*
X66259510Y-52371742D01*
X66154618Y-52478235D01*
X66056506Y-52577846D01*
X65966391Y-52669339D01*
X65885492Y-52751476D01*
X65815025Y-52823021D01*
X65756209Y-52882739D01*
X65710262Y-52929393D01*
X65678401Y-52961746D01*
X65664620Y-52975742D01*
X65573776Y-53068018D01*
X65573776Y-50326148D01*
X66070230Y-50326148D01*
X66070230Y-51959706D01*
G37*
X66070230Y-51959706D02*
X66873176Y-51157006D01*
X67161544Y-51160100D01*
X67449912Y-51163193D01*
X66602688Y-52023330D01*
X66484763Y-52143053D01*
X66369964Y-52259602D01*
X66259510Y-52371742D01*
X66154618Y-52478235D01*
X66056506Y-52577846D01*
X65966391Y-52669339D01*
X65885492Y-52751476D01*
X65815025Y-52823021D01*
X65756209Y-52882739D01*
X65710262Y-52929393D01*
X65678401Y-52961746D01*
X65664620Y-52975742D01*
X65573776Y-53068018D01*
X65573776Y-50326148D01*
X66070230Y-50326148D01*
X66070230Y-51959706D01*
X68275264Y-50825489D02*
X68275456Y-50929729D01*
X68275456Y-50929729D02*
X68275945Y-51026474D01*
X68275945Y-51026474D02*
X68276695Y-51113360D01*
X68276695Y-51113360D02*
X68277671Y-51188022D01*
X68277671Y-51188022D02*
X68278840Y-51248097D01*
X68278840Y-51248097D02*
X68280167Y-51291220D01*
X68280167Y-51291220D02*
X68281616Y-51315027D01*
X68281616Y-51315027D02*
X68282524Y-51319057D01*
X68282524Y-51319057D02*
X68294955Y-51312743D01*
X68294955Y-51312743D02*
X68319801Y-51296400D01*
X68319801Y-51296400D02*
X68343935Y-51279198D01*
X68343935Y-51279198D02*
X68458632Y-51208476D01*
X68458632Y-51208476D02*
X68580848Y-51159372D01*
X68580848Y-51159372D02*
X68711231Y-51131696D01*
X68711231Y-51131696D02*
X68850432Y-51125258D01*
X68850432Y-51125258D02*
X68868244Y-51125926D01*
X68868244Y-51125926D02*
X68957879Y-51132478D01*
X68957879Y-51132478D02*
X69034362Y-51144415D01*
X69034362Y-51144415D02*
X69106014Y-51163907D01*
X69106014Y-51163907D02*
X69181152Y-51193124D01*
X69181152Y-51193124D02*
X69251003Y-51225763D01*
X69251003Y-51225763D02*
X69378936Y-51301056D01*
X69378936Y-51301056D02*
X69491856Y-51393036D01*
X69491856Y-51393036D02*
X69588750Y-51500025D01*
X69588750Y-51500025D02*
X69668608Y-51620350D01*
X69668608Y-51620350D02*
X69730418Y-51752335D01*
X69730418Y-51752335D02*
X69773170Y-51894304D01*
X69773170Y-51894304D02*
X69795851Y-52044583D01*
X69795851Y-52044583D02*
X69799412Y-52134253D01*
X69799412Y-52134253D02*
X69789121Y-52286731D01*
X69789121Y-52286731D02*
X69757765Y-52431295D01*
X69757765Y-52431295D02*
X69704620Y-52570531D01*
X69704620Y-52570531D02*
X69647365Y-52677450D01*
X69647365Y-52677450D02*
X69561653Y-52797743D01*
X69561653Y-52797743D02*
X69460040Y-52902592D01*
X69460040Y-52902592D02*
X69344707Y-52990914D01*
X69344707Y-52990914D02*
X69217832Y-53061628D01*
X69217832Y-53061628D02*
X69081596Y-53113651D01*
X69081596Y-53113651D02*
X68938177Y-53145904D01*
X68938177Y-53145904D02*
X68789756Y-53157303D01*
X68789756Y-53157303D02*
X68689510Y-53152820D01*
X68689510Y-53152820D02*
X68544902Y-53127939D01*
X68544902Y-53127939D02*
X68404334Y-53081664D01*
X68404334Y-53081664D02*
X68271161Y-53015685D01*
X68271161Y-53015685D02*
X68148741Y-52931688D01*
X68148741Y-52931688D02*
X68040429Y-52831362D01*
X68040429Y-52831362D02*
X68032035Y-52822196D01*
X68032035Y-52822196D02*
X67950904Y-52718076D01*
X67950904Y-52718076D02*
X67881212Y-52599894D01*
X67881212Y-52599894D02*
X67826046Y-52474031D01*
X67826046Y-52474031D02*
X67788493Y-52346871D01*
X67788493Y-52346871D02*
X67779624Y-52300421D01*
X67779624Y-52300421D02*
X67777011Y-52272026D01*
X67777011Y-52272026D02*
X67774666Y-52221954D01*
X67774666Y-52221954D02*
X67773197Y-52171620D01*
X67773197Y-52171620D02*
X68269535Y-52171620D01*
X68269535Y-52171620D02*
X68280107Y-52269169D01*
X68280107Y-52269169D02*
X68310539Y-52363188D01*
X68310539Y-52363188D02*
X68339193Y-52417333D01*
X68339193Y-52417333D02*
X68406127Y-52505616D01*
X68406127Y-52505616D02*
X68485608Y-52576493D01*
X68485608Y-52576493D02*
X68575040Y-52628986D01*
X68575040Y-52628986D02*
X68671826Y-52662118D01*
X68671826Y-52662118D02*
X68773367Y-52674912D01*
X68773367Y-52674912D02*
X68877068Y-52666391D01*
X68877068Y-52666391D02*
X68949895Y-52647103D01*
X68949895Y-52647103D02*
X68992892Y-52631017D01*
X68992892Y-52631017D02*
X69033797Y-52613657D01*
X69033797Y-52613657D02*
X69049964Y-52605881D01*
X69049964Y-52605881D02*
X69095250Y-52574877D01*
X69095250Y-52574877D02*
X69144573Y-52528683D01*
X69144573Y-52528683D02*
X69192630Y-52473227D01*
X69192630Y-52473227D02*
X69234115Y-52414433D01*
X69234115Y-52414433D02*
X69255603Y-52376106D01*
X69255603Y-52376106D02*
X69275784Y-52331860D01*
X69275784Y-52331860D02*
X69288429Y-52293252D01*
X69288429Y-52293252D02*
X69295786Y-52250960D01*
X69295786Y-52250960D02*
X69300104Y-52195657D01*
X69300104Y-52195657D02*
X69300386Y-52190367D01*
X69300386Y-52190367D02*
X69297018Y-52083122D01*
X69297018Y-52083122D02*
X69274162Y-51985230D01*
X69274162Y-51985230D02*
X69230510Y-51891807D01*
X69230510Y-51891807D02*
X69212740Y-51863278D01*
X69212740Y-51863278D02*
X69148198Y-51785374D01*
X69148198Y-51785374D02*
X69069381Y-51723204D01*
X69069381Y-51723204D02*
X68979745Y-51677708D01*
X68979745Y-51677708D02*
X68882746Y-51649830D01*
X68882746Y-51649830D02*
X68781842Y-51640510D01*
X68781842Y-51640510D02*
X68680490Y-51650692D01*
X68680490Y-51650692D02*
X68582144Y-51681317D01*
X68582144Y-51681317D02*
X68568141Y-51687603D01*
X68568141Y-51687603D02*
X68480189Y-51740552D01*
X68480189Y-51740552D02*
X68406199Y-51808766D01*
X68406199Y-51808766D02*
X68347156Y-51889112D01*
X68347156Y-51889112D02*
X68304043Y-51978459D01*
X68304043Y-51978459D02*
X68277841Y-52073672D01*
X68277841Y-52073672D02*
X68269535Y-52171620D01*
X68269535Y-52171620D02*
X67773197Y-52171620D01*
X67773197Y-52171620D02*
X67772613Y-52151617D01*
X67772613Y-52151617D02*
X67770874Y-52062428D01*
X67770874Y-52062428D02*
X67769471Y-51955799D01*
X67769471Y-51955799D02*
X67768427Y-51833143D01*
X67768427Y-51833143D02*
X67767763Y-51695871D01*
X67767763Y-51695871D02*
X67767502Y-51545397D01*
X67767502Y-51545397D02*
X67767499Y-51533661D01*
X67767499Y-51533661D02*
X67767412Y-50841947D01*
X67767412Y-50841947D02*
X68275116Y-50331921D01*
X68275116Y-50331921D02*
X68275264Y-50825489D01*
X68275264Y-50825489D02*
X68275264Y-50825489D01*
G36*
X67770874Y-52062428D02*
G01*
X67769471Y-51955799D01*
X67768427Y-51833143D01*
X67767763Y-51695871D01*
X67767502Y-51545397D01*
X67767499Y-51533661D01*
X67767412Y-50841947D01*
X68275116Y-50331921D01*
X68275264Y-50825489D01*
X68275456Y-50929729D01*
X68275945Y-51026474D01*
X68276695Y-51113360D01*
X68277671Y-51188022D01*
X68278840Y-51248097D01*
X68280167Y-51291220D01*
X68281616Y-51315027D01*
X68282524Y-51319057D01*
X68294955Y-51312743D01*
X68319801Y-51296400D01*
X68343935Y-51279198D01*
X68458632Y-51208476D01*
X68580848Y-51159372D01*
X68711231Y-51131696D01*
X68850432Y-51125258D01*
X68868244Y-51125926D01*
X68957879Y-51132478D01*
X69034362Y-51144415D01*
X69106014Y-51163907D01*
X69181152Y-51193124D01*
X69251003Y-51225763D01*
X69378936Y-51301056D01*
X69491856Y-51393036D01*
X69588750Y-51500025D01*
X69668608Y-51620350D01*
X69730418Y-51752335D01*
X69773170Y-51894304D01*
X69795851Y-52044583D01*
X69799412Y-52134253D01*
X69789121Y-52286731D01*
X69757765Y-52431295D01*
X69704620Y-52570531D01*
X69647365Y-52677450D01*
X69561653Y-52797743D01*
X69460040Y-52902592D01*
X69344707Y-52990914D01*
X69217832Y-53061628D01*
X69081596Y-53113651D01*
X68938177Y-53145904D01*
X68789756Y-53157303D01*
X68689510Y-53152820D01*
X68544902Y-53127939D01*
X68404334Y-53081664D01*
X68271161Y-53015685D01*
X68148741Y-52931688D01*
X68040429Y-52831362D01*
X68032035Y-52822196D01*
X67950904Y-52718076D01*
X67881212Y-52599894D01*
X67826046Y-52474031D01*
X67788493Y-52346871D01*
X67779624Y-52300421D01*
X67777011Y-52272026D01*
X67774666Y-52221954D01*
X67773197Y-52171620D01*
X68269535Y-52171620D01*
X68280107Y-52269169D01*
X68310539Y-52363188D01*
X68339193Y-52417333D01*
X68406127Y-52505616D01*
X68485608Y-52576493D01*
X68575040Y-52628986D01*
X68671826Y-52662118D01*
X68773367Y-52674912D01*
X68877068Y-52666391D01*
X68949895Y-52647103D01*
X68992892Y-52631017D01*
X69033797Y-52613657D01*
X69049964Y-52605881D01*
X69095250Y-52574877D01*
X69144573Y-52528683D01*
X69192630Y-52473227D01*
X69234115Y-52414433D01*
X69255603Y-52376106D01*
X69275784Y-52331860D01*
X69288429Y-52293252D01*
X69295786Y-52250960D01*
X69300104Y-52195657D01*
X69300386Y-52190367D01*
X69297018Y-52083122D01*
X69274162Y-51985230D01*
X69230510Y-51891807D01*
X69212740Y-51863278D01*
X69148198Y-51785374D01*
X69069381Y-51723204D01*
X68979745Y-51677708D01*
X68882746Y-51649830D01*
X68781842Y-51640510D01*
X68680490Y-51650692D01*
X68582144Y-51681317D01*
X68568141Y-51687603D01*
X68480189Y-51740552D01*
X68406199Y-51808766D01*
X68347156Y-51889112D01*
X68304043Y-51978459D01*
X68277841Y-52073672D01*
X68269535Y-52171620D01*
X67773197Y-52171620D01*
X67772613Y-52151617D01*
X67770874Y-52062428D01*
G37*
X67770874Y-52062428D02*
X67769471Y-51955799D01*
X67768427Y-51833143D01*
X67767763Y-51695871D01*
X67767502Y-51545397D01*
X67767499Y-51533661D01*
X67767412Y-50841947D01*
X68275116Y-50331921D01*
X68275264Y-50825489D01*
X68275456Y-50929729D01*
X68275945Y-51026474D01*
X68276695Y-51113360D01*
X68277671Y-51188022D01*
X68278840Y-51248097D01*
X68280167Y-51291220D01*
X68281616Y-51315027D01*
X68282524Y-51319057D01*
X68294955Y-51312743D01*
X68319801Y-51296400D01*
X68343935Y-51279198D01*
X68458632Y-51208476D01*
X68580848Y-51159372D01*
X68711231Y-51131696D01*
X68850432Y-51125258D01*
X68868244Y-51125926D01*
X68957879Y-51132478D01*
X69034362Y-51144415D01*
X69106014Y-51163907D01*
X69181152Y-51193124D01*
X69251003Y-51225763D01*
X69378936Y-51301056D01*
X69491856Y-51393036D01*
X69588750Y-51500025D01*
X69668608Y-51620350D01*
X69730418Y-51752335D01*
X69773170Y-51894304D01*
X69795851Y-52044583D01*
X69799412Y-52134253D01*
X69789121Y-52286731D01*
X69757765Y-52431295D01*
X69704620Y-52570531D01*
X69647365Y-52677450D01*
X69561653Y-52797743D01*
X69460040Y-52902592D01*
X69344707Y-52990914D01*
X69217832Y-53061628D01*
X69081596Y-53113651D01*
X68938177Y-53145904D01*
X68789756Y-53157303D01*
X68689510Y-53152820D01*
X68544902Y-53127939D01*
X68404334Y-53081664D01*
X68271161Y-53015685D01*
X68148741Y-52931688D01*
X68040429Y-52831362D01*
X68032035Y-52822196D01*
X67950904Y-52718076D01*
X67881212Y-52599894D01*
X67826046Y-52474031D01*
X67788493Y-52346871D01*
X67779624Y-52300421D01*
X67777011Y-52272026D01*
X67774666Y-52221954D01*
X67773197Y-52171620D01*
X68269535Y-52171620D01*
X68280107Y-52269169D01*
X68310539Y-52363188D01*
X68339193Y-52417333D01*
X68406127Y-52505616D01*
X68485608Y-52576493D01*
X68575040Y-52628986D01*
X68671826Y-52662118D01*
X68773367Y-52674912D01*
X68877068Y-52666391D01*
X68949895Y-52647103D01*
X68992892Y-52631017D01*
X69033797Y-52613657D01*
X69049964Y-52605881D01*
X69095250Y-52574877D01*
X69144573Y-52528683D01*
X69192630Y-52473227D01*
X69234115Y-52414433D01*
X69255603Y-52376106D01*
X69275784Y-52331860D01*
X69288429Y-52293252D01*
X69295786Y-52250960D01*
X69300104Y-52195657D01*
X69300386Y-52190367D01*
X69297018Y-52083122D01*
X69274162Y-51985230D01*
X69230510Y-51891807D01*
X69212740Y-51863278D01*
X69148198Y-51785374D01*
X69069381Y-51723204D01*
X68979745Y-51677708D01*
X68882746Y-51649830D01*
X68781842Y-51640510D01*
X68680490Y-51650692D01*
X68582144Y-51681317D01*
X68568141Y-51687603D01*
X68480189Y-51740552D01*
X68406199Y-51808766D01*
X68347156Y-51889112D01*
X68304043Y-51978459D01*
X68277841Y-52073672D01*
X68269535Y-52171620D01*
X67773197Y-52171620D01*
X67772613Y-52151617D01*
X67770874Y-52062428D01*
X66877010Y-52366237D02*
X66899713Y-52389100D01*
X66899713Y-52389100D02*
X66934192Y-52424631D01*
X66934192Y-52424631D02*
X66978461Y-52470723D01*
X66978461Y-52470723D02*
X67030528Y-52525269D01*
X67030528Y-52525269D02*
X67088407Y-52586163D01*
X67088407Y-52586163D02*
X67150106Y-52651298D01*
X67150106Y-52651298D02*
X67213639Y-52718568D01*
X67213639Y-52718568D02*
X67277014Y-52785866D01*
X67277014Y-52785866D02*
X67338244Y-52851085D01*
X67338244Y-52851085D02*
X67395340Y-52912120D01*
X67395340Y-52912120D02*
X67446312Y-52966863D01*
X67446312Y-52966863D02*
X67489172Y-53013208D01*
X67489172Y-53013208D02*
X67521930Y-53049048D01*
X67521930Y-53049048D02*
X67542598Y-53072277D01*
X67542598Y-53072277D02*
X67544891Y-53074968D01*
X67544891Y-53074968D02*
X67573192Y-53108603D01*
X67573192Y-53108603D02*
X66953178Y-53108603D01*
X66953178Y-53108603D02*
X66779828Y-52932534D01*
X66779828Y-52932534D02*
X66726086Y-52877791D01*
X66726086Y-52877791D02*
X66675803Y-52826278D01*
X66675803Y-52826278D02*
X66631987Y-52781098D01*
X66631987Y-52781098D02*
X66597641Y-52745352D01*
X66597641Y-52745352D02*
X66575773Y-52722143D01*
X66575773Y-52722143D02*
X66572596Y-52718651D01*
X66572596Y-52718651D02*
X66538714Y-52680836D01*
X66538714Y-52680836D02*
X66699749Y-52519492D01*
X66699749Y-52519492D02*
X66749462Y-52470037D01*
X66749462Y-52470037D02*
X66793686Y-52426712D01*
X66793686Y-52426712D02*
X66829833Y-52391999D01*
X66829833Y-52391999D02*
X66855315Y-52368379D01*
X66855315Y-52368379D02*
X66867544Y-52358331D01*
X66867544Y-52358331D02*
X66868075Y-52358148D01*
X66868075Y-52358148D02*
X66877010Y-52366237D01*
X66877010Y-52366237D02*
X66877010Y-52366237D01*
G36*
X66877010Y-52366237D02*
G01*
X66899713Y-52389100D01*
X66934192Y-52424631D01*
X66978461Y-52470723D01*
X67030528Y-52525269D01*
X67088407Y-52586163D01*
X67150106Y-52651298D01*
X67213639Y-52718568D01*
X67277014Y-52785866D01*
X67338244Y-52851085D01*
X67395340Y-52912120D01*
X67446312Y-52966863D01*
X67489172Y-53013208D01*
X67521930Y-53049048D01*
X67542598Y-53072277D01*
X67544891Y-53074968D01*
X67573192Y-53108603D01*
X66953178Y-53108603D01*
X66779828Y-52932534D01*
X66726086Y-52877791D01*
X66675803Y-52826278D01*
X66631987Y-52781098D01*
X66597641Y-52745352D01*
X66575773Y-52722143D01*
X66572596Y-52718651D01*
X66538714Y-52680836D01*
X66699749Y-52519492D01*
X66749462Y-52470037D01*
X66793686Y-52426712D01*
X66829833Y-52391999D01*
X66855315Y-52368379D01*
X66867544Y-52358331D01*
X66868075Y-52358148D01*
X66877010Y-52366237D01*
G37*
X66877010Y-52366237D02*
X66899713Y-52389100D01*
X66934192Y-52424631D01*
X66978461Y-52470723D01*
X67030528Y-52525269D01*
X67088407Y-52586163D01*
X67150106Y-52651298D01*
X67213639Y-52718568D01*
X67277014Y-52785866D01*
X67338244Y-52851085D01*
X67395340Y-52912120D01*
X67446312Y-52966863D01*
X67489172Y-53013208D01*
X67521930Y-53049048D01*
X67542598Y-53072277D01*
X67544891Y-53074968D01*
X67573192Y-53108603D01*
X66953178Y-53108603D01*
X66779828Y-52932534D01*
X66726086Y-52877791D01*
X66675803Y-52826278D01*
X66631987Y-52781098D01*
X66597641Y-52745352D01*
X66575773Y-52722143D01*
X66572596Y-52718651D01*
X66538714Y-52680836D01*
X66699749Y-52519492D01*
X66749462Y-52470037D01*
X66793686Y-52426712D01*
X66829833Y-52391999D01*
X66855315Y-52368379D01*
X66867544Y-52358331D01*
X66868075Y-52358148D01*
X66877010Y-52366237D01*
D14*
X74705032Y-18591705D02*
G75*
G03*
X70554485Y-17557839I-7008037J-19286087D01*
G01*
X86983120Y-44885885D02*
G75*
G03*
X88016985Y-40735339I-19286185J7008058D01*
G01*
X66568600Y-48613703D02*
G75*
G03*
X67696985Y-48672839I1128379J10735785D01*
G01*
X68825370Y-27141975D02*
G75*
G03*
X67696985Y-27082839I-1128379J-10735785D01*
G01*
X88016985Y-35020339D02*
G75*
G03*
X86983120Y-30869794I-20320019J-2857506D01*
G01*
X67696985Y-27082839D02*
G75*
G03*
X66568600Y-27141975I-6J-10794921D01*
G01*
X60688939Y-57163974D02*
G75*
G03*
X64839485Y-58197839I7008058J19286185D01*
G01*
X64839485Y-17557839D02*
G75*
G03*
X60688937Y-18591705I2857496J-20319983D01*
G01*
X67696985Y-48672839D02*
G75*
G03*
X68825370Y-48613703I6J10794921D01*
G01*
X47376985Y-40735339D02*
G75*
G03*
X48410851Y-44885886I20319953J2857490D01*
G01*
X70554485Y-58197839D02*
G75*
G03*
X74705032Y-57163973I-2857490J20319953D01*
G01*
X48410851Y-30869791D02*
G75*
G03*
X47376985Y-35020339I19286117J-7008044D01*
G01*
D10*
%TO.C,U2*%
X117845301Y-34789293D02*
X117845301Y-34889293D01*
X117845301Y-34889293D02*
X117745301Y-34889293D01*
X117745301Y-34889293D02*
X117745301Y-34789293D01*
X117745301Y-34789293D02*
X117845301Y-34789293D01*
G36*
X117845301Y-34889293D02*
G01*
X117745301Y-34889293D01*
X117745301Y-34789293D01*
X117845301Y-34789293D01*
X117845301Y-34889293D01*
G37*
X117845301Y-34889293D02*
X117745301Y-34889293D01*
X117745301Y-34789293D01*
X117845301Y-34789293D01*
X117845301Y-34889293D01*
X118045301Y-34389293D02*
X118045301Y-34489293D01*
X118045301Y-34489293D02*
X117545301Y-34489293D01*
X117545301Y-34489293D02*
X117545301Y-34389293D01*
X117545301Y-34389293D02*
X118045301Y-34389293D01*
G36*
X118045301Y-34489293D02*
G01*
X117545301Y-34489293D01*
X117545301Y-34389293D01*
X118045301Y-34389293D01*
X118045301Y-34489293D01*
G37*
X118045301Y-34489293D02*
X117545301Y-34489293D01*
X117545301Y-34389293D01*
X118045301Y-34389293D01*
X118045301Y-34489293D01*
X118045301Y-34389293D02*
X118045301Y-34689293D01*
X118045301Y-34689293D02*
X117945301Y-34689293D01*
X117945301Y-34689293D02*
X117945301Y-34389293D01*
X117945301Y-34389293D02*
X118045301Y-34389293D01*
G36*
X118045301Y-34689293D02*
G01*
X117945301Y-34689293D01*
X117945301Y-34389293D01*
X118045301Y-34389293D01*
X118045301Y-34689293D01*
G37*
X118045301Y-34689293D02*
X117945301Y-34689293D01*
X117945301Y-34389293D01*
X118045301Y-34389293D01*
X118045301Y-34689293D01*
X118045301Y-34989293D02*
X118045301Y-35189293D01*
X118045301Y-35189293D02*
X117945301Y-35189293D01*
X117945301Y-35189293D02*
X117945301Y-34989293D01*
X117945301Y-34989293D02*
X118045301Y-34989293D01*
G36*
X118045301Y-35189293D02*
G01*
X117945301Y-35189293D01*
X117945301Y-34989293D01*
X118045301Y-34989293D01*
X118045301Y-35189293D01*
G37*
X118045301Y-35189293D02*
X117945301Y-35189293D01*
X117945301Y-34989293D01*
X118045301Y-34989293D01*
X118045301Y-35189293D01*
X117645301Y-34389293D02*
X117645301Y-35189293D01*
X117645301Y-35189293D02*
X117545301Y-35189293D01*
X117545301Y-35189293D02*
X117545301Y-34389293D01*
X117545301Y-34389293D02*
X117645301Y-34389293D01*
G36*
X117645301Y-35189293D02*
G01*
X117545301Y-35189293D01*
X117545301Y-34389293D01*
X117645301Y-34389293D01*
X117645301Y-35189293D01*
G37*
X117645301Y-35189293D02*
X117545301Y-35189293D01*
X117545301Y-34389293D01*
X117645301Y-34389293D01*
X117645301Y-35189293D01*
D15*
X106763733Y-28509933D02*
X104223733Y-28509933D01*
X122003733Y-28509933D02*
X122003733Y-25969933D01*
X104223733Y-25969933D02*
X104223733Y-28509933D01*
X104223733Y-28509933D02*
X104223733Y-58989933D01*
X104223733Y-58989933D02*
X122003733Y-58989933D01*
X122003733Y-58989933D02*
X122003733Y-28509933D01*
X106763733Y-31049933D02*
X104223733Y-31049933D01*
X122003733Y-25969933D02*
X104223733Y-25969933D01*
X106763733Y-28509933D02*
X106763733Y-31049933D01*
D11*
%TO.C,D34*%
X36163734Y-25033183D02*
X37063734Y-25933183D01*
X37063734Y-25933183D02*
X36163734Y-25933183D01*
X36163734Y-25933183D02*
X36163734Y-25033183D01*
G36*
X37063734Y-25933183D02*
G01*
X36163734Y-25933183D01*
X36163734Y-25033183D01*
X37063734Y-25933183D01*
G37*
X37063734Y-25933183D02*
X36163734Y-25933183D01*
X36163734Y-25033183D01*
X37063734Y-25933183D01*
%TO.C,D26*%
X54163732Y-52167182D02*
X55063732Y-53067182D01*
X55063732Y-53067182D02*
X54163732Y-53067182D01*
X54163732Y-53067182D02*
X54163732Y-52167182D01*
G36*
X55063732Y-53067182D02*
G01*
X54163732Y-53067182D01*
X54163732Y-52167182D01*
X55063732Y-53067182D01*
G37*
X55063732Y-53067182D02*
X54163732Y-53067182D01*
X54163732Y-52167182D01*
X55063732Y-53067182D01*
%TO.C,D31*%
X36163734Y-42007183D02*
X37063734Y-42907183D01*
X37063734Y-42907183D02*
X36163734Y-42907183D01*
X36163734Y-42907183D02*
X36163734Y-42007183D01*
G36*
X37063734Y-42907183D02*
G01*
X36163734Y-42907183D01*
X36163734Y-42007183D01*
X37063734Y-42907183D01*
G37*
X37063734Y-42907183D02*
X36163734Y-42907183D01*
X36163734Y-42007183D01*
X37063734Y-42907183D01*
%TO.C,D28*%
X36163734Y-59025182D02*
X37063734Y-59925182D01*
X37063734Y-59925182D02*
X36163734Y-59925182D01*
X36163734Y-59925182D02*
X36163734Y-59025182D01*
G36*
X37063734Y-59925182D02*
G01*
X36163734Y-59925182D01*
X36163734Y-59025182D01*
X37063734Y-59925182D01*
G37*
X37063734Y-59925182D02*
X36163734Y-59925182D01*
X36163734Y-59025182D01*
X37063734Y-59925182D01*
%TO.C,D32*%
X72163734Y-40483184D02*
X73063734Y-41383184D01*
X73063734Y-41383184D02*
X72163734Y-41383184D01*
X72163734Y-41383184D02*
X72163734Y-40483184D01*
G36*
X73063734Y-41383184D02*
G01*
X72163734Y-41383184D01*
X72163734Y-40483184D01*
X73063734Y-41383184D01*
G37*
X73063734Y-41383184D02*
X72163734Y-41383184D01*
X72163734Y-40483184D01*
X73063734Y-41383184D01*
%TO.C,D21*%
X90163733Y-26033183D02*
X91063733Y-26933183D01*
X91063733Y-26933183D02*
X90163733Y-26933183D01*
X90163733Y-26933183D02*
X90163733Y-26033183D01*
G36*
X91063733Y-26933183D02*
G01*
X90163733Y-26933183D01*
X90163733Y-26033183D01*
X91063733Y-26933183D01*
G37*
X91063733Y-26933183D02*
X90163733Y-26933183D01*
X90163733Y-26033183D01*
X91063733Y-26933183D01*
%TO.C,D19*%
X18163734Y-37033183D02*
X19063734Y-37933183D01*
X19063734Y-37933183D02*
X18163734Y-37933183D01*
X18163734Y-37933183D02*
X18163734Y-37033183D01*
G36*
X19063734Y-37933183D02*
G01*
X18163734Y-37933183D01*
X18163734Y-37033183D01*
X19063734Y-37933183D01*
G37*
X19063734Y-37933183D02*
X18163734Y-37933183D01*
X18163734Y-37033183D01*
X19063734Y-37933183D01*
%TO.C,D23*%
X54163734Y-35149183D02*
X55063734Y-36049183D01*
X55063734Y-36049183D02*
X54163734Y-36049183D01*
X54163734Y-36049183D02*
X54163734Y-35149183D01*
G36*
X55063734Y-36049183D02*
G01*
X54163734Y-36049183D01*
X54163734Y-35149183D01*
X55063734Y-36049183D01*
G37*
X55063734Y-36049183D02*
X54163734Y-36049183D01*
X54163734Y-35149183D01*
X55063734Y-36049183D01*
%TO.C,D22*%
X18163733Y-54083183D02*
X19063733Y-54983183D01*
X19063733Y-54983183D02*
X18163733Y-54983183D01*
X18163733Y-54983183D02*
X18163733Y-54083183D01*
G36*
X19063733Y-54983183D02*
G01*
X18163733Y-54983183D01*
X18163733Y-54083183D01*
X19063733Y-54983183D01*
G37*
X19063733Y-54983183D02*
X18163733Y-54983183D01*
X18163733Y-54083183D01*
X19063733Y-54983183D01*
%TO.C,D35*%
X72163734Y-23533183D02*
X73063734Y-24433183D01*
X73063734Y-24433183D02*
X72163734Y-24433183D01*
X72163734Y-24433183D02*
X72163734Y-23533183D01*
G36*
X73063734Y-24433183D02*
G01*
X72163734Y-24433183D01*
X72163734Y-23533183D01*
X73063734Y-24433183D01*
G37*
X73063734Y-24433183D02*
X72163734Y-24433183D01*
X72163734Y-23533183D01*
X73063734Y-24433183D01*
%TO.C,D25*%
X18163734Y-71033183D02*
X19063734Y-71933183D01*
X19063734Y-71933183D02*
X18163734Y-71933183D01*
X18163734Y-71933183D02*
X18163734Y-71033183D01*
G36*
X19063734Y-71933183D02*
G01*
X18163734Y-71933183D01*
X18163734Y-71033183D01*
X19063734Y-71933183D01*
G37*
X19063734Y-71933183D02*
X18163734Y-71933183D01*
X18163734Y-71033183D01*
X19063734Y-71933183D01*
%TO.C,D24*%
X90143732Y-43023183D02*
X91043732Y-43923183D01*
X91043732Y-43923183D02*
X90143732Y-43923183D01*
X90143732Y-43923183D02*
X90143732Y-43023183D01*
G36*
X91043732Y-43923183D02*
G01*
X90143732Y-43923183D01*
X90143732Y-43023183D01*
X91043732Y-43923183D01*
G37*
X91043732Y-43923183D02*
X90143732Y-43923183D01*
X90143732Y-43023183D01*
X91043732Y-43923183D01*
%TO.C,D30*%
X71585311Y-75982653D02*
X72403446Y-76957668D01*
X72403446Y-76957668D02*
X71506871Y-76879228D01*
X71506871Y-76879228D02*
X71585311Y-75982653D01*
G36*
X72403446Y-76957668D02*
G01*
X71506871Y-76879228D01*
X71585311Y-75982653D01*
X72403446Y-76957668D01*
G37*
X72403446Y-76957668D02*
X71506871Y-76879228D01*
X71585311Y-75982653D01*
X72403446Y-76957668D01*
%TO.C,D29*%
X72163734Y-57501184D02*
X73063734Y-58401184D01*
X73063734Y-58401184D02*
X72163734Y-58401184D01*
X72163734Y-58401184D02*
X72163734Y-57501184D01*
G36*
X73063734Y-58401184D02*
G01*
X72163734Y-58401184D01*
X72163734Y-57501184D01*
X73063734Y-58401184D01*
G37*
X73063734Y-58401184D02*
X72163734Y-58401184D01*
X72163734Y-57501184D01*
X73063734Y-58401184D01*
%TO.C,D33*%
X91662826Y-78785165D02*
X92299222Y-79887435D01*
X92299222Y-79887435D02*
X91429889Y-79654498D01*
X91429889Y-79654498D02*
X91662826Y-78785165D01*
G36*
X92299222Y-79887435D02*
G01*
X91429889Y-79654498D01*
X91662826Y-78785165D01*
X92299222Y-79887435D01*
G37*
X92299222Y-79887435D02*
X91429889Y-79654498D01*
X91662826Y-78785165D01*
X92299222Y-79887435D01*
%TO.C,D20*%
X54163733Y-18033183D02*
X55063733Y-18933183D01*
X55063733Y-18933183D02*
X54163733Y-18933183D01*
X54163733Y-18933183D02*
X54163733Y-18033183D01*
G36*
X55063733Y-18933183D02*
G01*
X54163733Y-18933183D01*
X54163733Y-18033183D01*
X55063733Y-18933183D01*
G37*
X55063733Y-18933183D02*
X54163733Y-18933183D01*
X54163733Y-18033183D01*
X55063733Y-18933183D01*
%TO.C,D36*%
X118536467Y-88430972D02*
X117340434Y-88866292D01*
X117340434Y-88866292D02*
X117720790Y-88050615D01*
X117720790Y-88050615D02*
X118536467Y-88430972D01*
G36*
X118536467Y-88430972D02*
G01*
X117340434Y-88866292D01*
X117720790Y-88050615D01*
X118536467Y-88430972D01*
G37*
X118536467Y-88430972D02*
X117340434Y-88866292D01*
X117720790Y-88050615D01*
X118536467Y-88430972D01*
%TO.C,D27*%
X90143734Y-60041183D02*
X91043734Y-60941183D01*
X91043734Y-60941183D02*
X90143734Y-60941183D01*
X90143734Y-60941183D02*
X90143734Y-60041183D01*
G36*
X91043734Y-60941183D02*
G01*
X90143734Y-60941183D01*
X90143734Y-60041183D01*
X91043734Y-60941183D01*
G37*
X91043734Y-60941183D02*
X90143734Y-60941183D01*
X90143734Y-60041183D01*
X91043734Y-60941183D01*
%TD*%
D16*
%TO.C,U2*%
X118193733Y-57719933D03*
X115653733Y-57719933D03*
X113113733Y-57719933D03*
X110573733Y-57719933D03*
X108033733Y-57719933D03*
X120733733Y-29779933D03*
X120733733Y-32319933D03*
X120733733Y-34859933D03*
X120733733Y-37399933D03*
X120733733Y-39939933D03*
X120733733Y-42479933D03*
X120733733Y-45019933D03*
X120733733Y-47559933D03*
X120733733Y-50099933D03*
X120733733Y-52639933D03*
X120733733Y-55179933D03*
X120733733Y-57719933D03*
X105722333Y-57719933D03*
X105493733Y-55179933D03*
X105493733Y-52639933D03*
X105493733Y-50099933D03*
X105493733Y-47559933D03*
X105493733Y-45019933D03*
X105493733Y-42479933D03*
X105493733Y-39939933D03*
X105493733Y-37399933D03*
X105493733Y-34859933D03*
X105493733Y-32319933D03*
D17*
X105493733Y-29779933D03*
%TD*%
D18*
%TO.C,OL1*%
X116723732Y-62693183D03*
X114183732Y-62693183D03*
X111643732Y-62693183D03*
X109103732Y-62693183D03*
%TD*%
M02*
