%TF.GenerationSoftware,KiCad,Pcbnew,(6.0.0)*%
%TF.CreationDate,2022-06-16T08:24:19-07:00*%
%TF.ProjectId,half-swept,68616c66-2d73-4776-9570-742e6b696361,rev?*%
%TF.SameCoordinates,Original*%
%TF.FileFunction,Soldermask,Bot*%
%TF.FilePolarity,Negative*%
%FSLAX46Y46*%
G04 Gerber Fmt 4.6, Leading zero omitted, Abs format (unit mm)*
G04 Created by KiCad (PCBNEW (6.0.0)) date 2022-06-16 08:24:19*
%MOMM*%
%LPD*%
G01*
G04 APERTURE LIST*
G04 Aperture macros list*
%AMRoundRect*
0 Rectangle with rounded corners*
0 $1 Rounding radius*
0 $2 $3 $4 $5 $6 $7 $8 $9 X,Y pos of 4 corners*
0 Add a 4 corners polygon primitive as box body*
4,1,4,$2,$3,$4,$5,$6,$7,$8,$9,$2,$3,0*
0 Add four circle primitives for the rounded corners*
1,1,$1+$1,$2,$3*
1,1,$1+$1,$4,$5*
1,1,$1+$1,$6,$7*
1,1,$1+$1,$8,$9*
0 Add four rect primitives between the rounded corners*
20,1,$1+$1,$2,$3,$4,$5,0*
20,1,$1+$1,$4,$5,$6,$7,0*
20,1,$1+$1,$6,$7,$8,$9,0*
20,1,$1+$1,$8,$9,$2,$3,0*%
G04 Aperture macros list end*
%ADD10O,2.000000X1.600000*%
%ADD11C,0.800000*%
%ADD12C,1.750000*%
%ADD13C,1.200000*%
%ADD14C,2.500000*%
%ADD15C,1.700000*%
%ADD16C,3.400000*%
%ADD17C,4.400000*%
%ADD18RoundRect,0.082000X-0.686681X0.389330X-0.743855X-0.264174X0.686681X-0.389330X0.743855X0.264174X0*%
%ADD19RoundRect,0.082000X-0.718000X0.328000X-0.718000X-0.328000X0.718000X-0.328000X0.718000X0.328000X0*%
%ADD20RoundRect,0.082000X-0.608642X0.502656X-0.778427X-0.130992X0.608642X-0.502656X0.778427X0.130992X0*%
%ADD21C,1.752600*%
%ADD22R,1.752600X1.752600*%
%ADD23RoundRect,0.082000X0.600709X0.512110X0.006171X0.789348X-0.600709X-0.512110X-0.006171X-0.789348X0*%
%ADD24C,1.397000*%
G04 APERTURE END LIST*
D10*
%TO.C,J2*%
X117231735Y-75283182D03*
X114231735Y-75283182D03*
X110231735Y-75283182D03*
X109131735Y-70683182D03*
D11*
X118831735Y-72983182D03*
X111831735Y-72983182D03*
%TD*%
D12*
%TO.C,RSW1*%
X77688733Y-15675683D03*
X72688733Y-15675683D03*
D13*
X75188733Y-14465683D03*
%TD*%
D14*
%TO.C,SW2*%
X17363734Y-44913183D03*
X22363734Y-47013183D03*
D15*
X27863734Y-41113183D03*
D16*
X22363734Y-41113183D03*
D15*
X16863734Y-41113183D03*
%TD*%
D14*
%TO.C,SW3*%
X35363734Y-32913183D03*
X40363734Y-35013183D03*
D15*
X34863734Y-29113183D03*
X45863734Y-29113183D03*
D16*
X40363734Y-29113183D03*
%TD*%
D14*
%TO.C,SW4*%
X53363733Y-25913183D03*
X58363733Y-28013183D03*
D16*
X58363733Y-22113183D03*
D15*
X52863733Y-22113183D03*
X63863733Y-22113183D03*
%TD*%
D14*
%TO.C,SW5*%
X71363734Y-31413183D03*
X76363734Y-33513183D03*
D16*
X76363734Y-27613183D03*
D15*
X81863734Y-27613183D03*
X70863734Y-27613183D03*
%TD*%
D14*
%TO.C,SW6*%
X89363733Y-33913183D03*
X94363733Y-36013183D03*
D15*
X88863733Y-30113183D03*
X99863733Y-30113183D03*
D16*
X94363733Y-30113183D03*
%TD*%
D14*
%TO.C,SW8*%
X17363734Y-61913183D03*
X22363734Y-64013183D03*
D16*
X22363734Y-58113183D03*
D15*
X27863734Y-58113183D03*
X16863734Y-58113183D03*
%TD*%
D14*
%TO.C,SW9*%
X35363734Y-49887183D03*
X40363734Y-51987183D03*
D16*
X40363734Y-46087183D03*
D15*
X34863734Y-46087183D03*
X45863734Y-46087183D03*
%TD*%
D14*
%TO.C,SW10*%
X53363734Y-43029183D03*
X58363734Y-45129183D03*
D15*
X52863734Y-39229183D03*
D16*
X58363734Y-39229183D03*
D15*
X63863734Y-39229183D03*
%TD*%
D14*
%TO.C,SW11*%
X71363734Y-48363184D03*
X76363734Y-50463184D03*
D15*
X70863734Y-44563184D03*
D16*
X76363734Y-44563184D03*
D15*
X81863734Y-44563184D03*
%TD*%
D14*
%TO.C,SW12*%
X89343732Y-50903183D03*
X94343732Y-53003183D03*
D15*
X88843732Y-47103183D03*
D16*
X94343732Y-47103183D03*
D15*
X99843732Y-47103183D03*
%TD*%
D14*
%TO.C,SW14*%
X17363734Y-78913183D03*
X22363734Y-81013183D03*
D15*
X16863734Y-75113183D03*
X27863734Y-75113183D03*
D16*
X22363734Y-75113183D03*
%TD*%
D14*
%TO.C,SW15*%
X35363734Y-66905182D03*
X40363734Y-69005182D03*
D15*
X45863734Y-63105182D03*
X34863734Y-63105182D03*
D16*
X40363734Y-63105182D03*
%TD*%
D14*
%TO.C,SW16*%
X53363732Y-60047182D03*
X58363732Y-62147182D03*
D15*
X63863732Y-56247182D03*
X52863732Y-56247182D03*
D16*
X58363732Y-56247182D03*
%TD*%
D14*
%TO.C,SW17*%
X71363734Y-65381184D03*
X76363734Y-67481184D03*
D15*
X81863734Y-61581184D03*
X70863734Y-61581184D03*
D16*
X76363734Y-61581184D03*
%TD*%
D14*
%TO.C,SW18*%
X89343734Y-67921183D03*
X94343734Y-70021183D03*
D16*
X94343734Y-64121183D03*
D15*
X88843734Y-64121183D03*
X99843734Y-64121183D03*
%TD*%
D14*
%TO.C,SW20*%
X111732857Y-84375694D03*
X107716519Y-88019734D03*
D15*
X110739335Y-95497875D03*
X115388135Y-85528489D03*
D16*
X113063735Y-90513182D03*
%TD*%
D14*
%TO.C,SW21*%
X88850591Y-86189605D03*
X93136701Y-89512144D03*
D15*
X99976325Y-85236687D03*
D16*
X94663733Y-83813182D03*
D15*
X89351141Y-82389677D03*
%TD*%
D17*
%TO.C,REF\u002A\u002A*%
X67696985Y-18827839D03*
X86746985Y-37877839D03*
X48646985Y-37877839D03*
X67696985Y-56927839D03*
%TD*%
D18*
%TO.C,D12*%
X78511957Y-74831971D03*
X78381224Y-76326263D03*
X73201011Y-75873053D03*
X73331745Y-74378761D03*
%TD*%
D19*
%TO.C,D16*%
X42963734Y-23283183D03*
X42963734Y-24783183D03*
X37763734Y-24783183D03*
X37763734Y-23283183D03*
%TD*%
%TO.C,D8*%
X60963732Y-50417182D03*
X60963732Y-51917182D03*
X55763732Y-51917182D03*
X55763732Y-50417182D03*
%TD*%
%TO.C,D2*%
X60963733Y-16283183D03*
X60963733Y-17783183D03*
X55763733Y-17783183D03*
X55763733Y-16283183D03*
%TD*%
D20*
%TO.C,D15*%
X98684055Y-78854764D03*
X98295827Y-80303653D03*
X93273012Y-78957794D03*
X93661241Y-77508905D03*
%TD*%
D19*
%TO.C,D11*%
X78963734Y-55751184D03*
X78963734Y-57251184D03*
X73763734Y-57251184D03*
X73763734Y-55751184D03*
%TD*%
D21*
%TO.C,U2*%
X118193733Y-57719933D03*
X115653733Y-57719933D03*
X113113733Y-57719933D03*
X110573733Y-57719933D03*
X108033733Y-57719933D03*
X120733733Y-29779933D03*
X120733733Y-32319933D03*
X120733733Y-34859933D03*
X120733733Y-37399933D03*
X120733733Y-39939933D03*
X120733733Y-42479933D03*
X120733733Y-45019933D03*
X120733733Y-47559933D03*
X120733733Y-50099933D03*
X120733733Y-52639933D03*
X120733733Y-55179933D03*
X120733733Y-57719933D03*
X105722333Y-57719933D03*
X105493733Y-55179933D03*
X105493733Y-52639933D03*
X105493733Y-50099933D03*
X105493733Y-47559933D03*
X105493733Y-45019933D03*
X105493733Y-42479933D03*
X105493733Y-39939933D03*
X105493733Y-37399933D03*
X105493733Y-34859933D03*
X105493733Y-32319933D03*
D22*
X105493733Y-29779933D03*
%TD*%
D19*
%TO.C,D14*%
X78963734Y-38733184D03*
X78963734Y-40233184D03*
X73763734Y-40233184D03*
X73763734Y-38733184D03*
%TD*%
%TO.C,D10*%
X42963734Y-57275182D03*
X42963734Y-58775182D03*
X37763734Y-58775182D03*
X37763734Y-57275182D03*
%TD*%
%TO.C,D1*%
X24963734Y-35283183D03*
X24963734Y-36783183D03*
X19763734Y-36783183D03*
X19763734Y-35283183D03*
%TD*%
%TO.C,D9*%
X96943734Y-58291183D03*
X96943734Y-59791183D03*
X91743734Y-59791183D03*
X91743734Y-58291183D03*
%TD*%
%TO.C,D17*%
X78963734Y-21783183D03*
X78963734Y-23283183D03*
X73763734Y-23283183D03*
X73763734Y-21783183D03*
%TD*%
D23*
%TO.C,D18*%
X117248702Y-95333447D03*
X115889240Y-94699519D03*
X118086855Y-89986719D03*
X119446317Y-90620646D03*
%TD*%
D19*
%TO.C,D4*%
X24963733Y-52333183D03*
X24963733Y-53833183D03*
X19763733Y-53833183D03*
X19763733Y-52333183D03*
%TD*%
%TO.C,D3*%
X96963733Y-24283183D03*
X96963733Y-25783183D03*
X91763733Y-25783183D03*
X91763733Y-24283183D03*
%TD*%
%TO.C,D7*%
X24963734Y-69283183D03*
X24963734Y-70783183D03*
X19763734Y-70783183D03*
X19763734Y-69283183D03*
%TD*%
D24*
%TO.C,OL1*%
X116723732Y-62693183D03*
X114183732Y-62693183D03*
X111643732Y-62693183D03*
X109103732Y-62693183D03*
%TD*%
D14*
%TO.C,SW1*%
X70101568Y-83762942D03*
X74899514Y-86290730D03*
D16*
X75413733Y-80413181D03*
D15*
X80892804Y-80892538D03*
X69934662Y-79933824D03*
%TD*%
D19*
%TO.C,D5*%
X60963734Y-33399183D03*
X60963734Y-34899183D03*
X55763734Y-34899183D03*
X55763734Y-33399183D03*
%TD*%
%TO.C,D6*%
X96943732Y-41273183D03*
X96943732Y-42773183D03*
X91743732Y-42773183D03*
X91743732Y-41273183D03*
%TD*%
%TO.C,D13*%
X42963734Y-40257183D03*
X42963734Y-41757183D03*
X37763734Y-41757183D03*
X37763734Y-40257183D03*
%TD*%
D10*
%TO.C,J1*%
X117213734Y-70663184D03*
X114213734Y-70663184D03*
X110213734Y-70663184D03*
X109113734Y-75263184D03*
D11*
X111813734Y-72963184D03*
X118813734Y-72963184D03*
%TD*%
M02*
