M48
; DRILL file {KiCad (6.0.0)} date Thu Jun 16 08:24:21 2022
; FORMAT={-:-/ absolute / inch / decimal}
; #@! TF.CreationDate,2022-06-16T08:24:21-07:00
; #@! TF.GenerationSoftware,Kicad,Pcbnew,(6.0.0)
; #@! TF.FileFunction,Plated,1,2,PTH
FMAT,2
INCH
; #@! TA.AperFunction,Plated,PTH,ViaDrill
T1C0.0157
; #@! TA.AperFunction,Plated,PTH,ComponentDrill
T2C0.0320
; #@! TA.AperFunction,Plated,PTH,ComponentDrill
T3C0.0354
; #@! TA.AperFunction,Plated,PTH,ComponentDrill
T4C0.0390
; #@! TA.AperFunction,Plated,PTH,ComponentDrill
T5C0.0430
; #@! TA.AperFunction,Plated,PTH,ComponentDrill
T6C0.0591
; #@! TA.AperFunction,Plated,PTH,ComponentDrill
T7C0.0866
%
G90
G05
T1
X0.658Y-2.0576
X0.7013Y-2.0045
X0.7053Y-1.2958
X0.7072Y-1.3883
X0.7328Y-1.5045
X0.7781Y-2.6186
X0.7781Y-1.3293
X0.7781Y-2.0045
X0.7801Y-2.8489
X0.8017Y-1.971
X0.8116Y-2.66
X0.9626Y-2.1974
X0.9685Y-2.5911
X0.9828Y-0.9907
X0.9828Y-2.66
X0.9828Y-1.2938
X0.9848Y-1.969
X1.0669Y-2.1207
X1.1063Y-2.1955
X1.1712Y-2.5203
X1.1752Y-1.9711
X1.2126Y-2.54
X1.2126Y-1.851
X1.3765Y-2.2564
X1.4001Y-1.5891
X1.4001Y-1.7111
X1.4041Y-1.0596
X1.4041Y-0.9178
X1.4828Y-2.7879
X1.4848Y-1.7446
X1.4868Y-0.8627
X1.4868Y-1.03
X1.4868Y-1.5241
X1.4868Y-2.3706
X1.4881Y-2.1964
X1.5905Y-1.912
X1.6515Y-1.9671
X1.7151Y-1.0871
X1.719Y-2.8489
X1.7519Y-2.8864
X1.7578Y-2.7526
X1.7919Y-2.3706
X1.8057Y-1.6442
X1.8155Y-1.7092
X1.8312Y-2.3115
X1.8608Y-1.7092
X2.1004Y-0.7368
X2.1147Y-1.9867
X2.1147Y-1.8942
X2.1305Y-1.2249
X2.1305Y-1.3135
X2.1954Y-2.1324
X2.1974Y-0.5871
X2.1994Y-1.9277
X2.1994Y-1.2564
X2.2992Y-2.7053
X2.374Y-1.6659
X2.376Y-1.0026
X2.4572Y-1.8982
X2.4631Y-1.2269
X2.469Y-0.6993
X2.4789Y-1.3745
X2.5163Y-0.784
X2.5334Y-2.7408
X2.5866Y-1.1915
X2.6752Y-0.5163
X2.7269Y-2.4946
X2.7269Y-2.9139
X2.7761Y-0.8608
X2.7761Y-1.0025
X2.7879Y-1.6816
X2.7899Y-1.5261
X2.7992Y-2.0656
X2.8011Y-2.7762
X2.8293Y-2.1344
X2.8661Y-2.3097
X2.8776Y-3.0479
X2.8871Y-2.8423
X2.9041Y-0.969
X2.9041Y-1.4671
X2.9041Y-1.6442
X2.9061Y-2.1344
X2.9061Y-0.7997
X2.9134Y-2.3864
X2.9252Y-2.5852
X3.0635Y-0.7545
X3.0826Y-1.912
X3.0984Y-1.0419
X3.1305Y-1.0005
X3.1567Y-2.9518
X3.1929Y-0.8785
X3.221Y-1.5852
X3.2368Y-2.3155
X3.2702Y-1.595
X3.2742Y-2.3548
X3.2815Y-0.8785
X3.2992Y-1.6404
X3.3149Y-1.2368
X3.3155Y-1.6915
X3.3155Y-2.3332
X3.3778Y-3.357
X3.3832Y-2.938
X3.4041Y-2.3588
X3.4055Y-1.8648
X3.4084Y-1.2575
X3.4567Y-1.0144
X3.4593Y-3.0528
X3.4823Y-2.3175
X3.4858Y-1.6039
X3.5143Y-0.9001
X3.536Y-1.6285
X3.5399Y-2.2938
X3.5399Y-2.1993
X3.5399Y-2.3568
X3.5734Y-1.5281
X3.5905Y-2.8526
X3.612Y-1.5667
X3.612Y-2.2395
X3.6127Y-0.9001
X3.6487Y-3.2003
X3.6521Y-1.534
X3.7152Y-2.9823
X3.7893Y-1.3352
X3.7933Y-2.6443
X3.803Y-1.4986
X3.8036Y-2.0041
X3.8307Y-2.7034
X3.8366Y-1.41
X3.8411Y-2.1974
X3.8765Y-1.536
X3.8942Y-1.6836
X3.8962Y-1.0104
X3.9235Y-3.2393
X3.9311Y-2.223
X3.9395Y-0.9552
X3.9842Y-0.9297
X3.996Y-2.7565
X3.996Y-2.4337
X4.0433Y-2.7919
X4.0433Y-2.4337
X4.0669Y-3.2112
X4.0689Y-3.4967
X4.0807Y-2.4593
X4.0807Y-2.8313
X4.1541Y-0.8253
X4.1922Y-3.3191
X4.2702Y-2.6423
X4.3071Y-1.5715
X4.3937Y-1.2722
X4.3956Y-2.6128
X4.4035Y-1.6719
X4.433Y-0.9534
X4.465Y-3.765
X4.4724Y-1.1423
X4.5098Y-1.1049
X4.5244Y-3.4886
X4.5452Y-1.0684
X4.5472Y-2.6128
X4.5583Y-3.2726
X4.5832Y-1.0399
X4.5964Y-2.6502
X4.6167Y-1.0064
X4.6923Y-3.0638
X4.693Y-3.3354
X4.7874Y-3.381
X4.7952Y-2.7093
T2
X4.2954Y-2.4682
X4.2954Y-2.5399
X4.3954Y-2.4682
X4.3954Y-2.5399
X4.4954Y-2.4682
X4.4954Y-2.5399
X4.5954Y-2.4682
X4.5954Y-2.5399
T4
X2.8618Y-0.6172
X3.0586Y-0.6172
T5
X4.1533Y-1.1724
X4.1533Y-1.2724
X4.1533Y-1.3724
X4.1533Y-1.4724
X4.1533Y-1.5724
X4.1533Y-1.6724
X4.1533Y-1.7724
X4.1533Y-1.8724
X4.1533Y-1.9724
X4.1533Y-2.0724
X4.1533Y-2.1724
X4.1623Y-2.2724
X4.2533Y-2.2724
X4.3533Y-2.2724
X4.4533Y-2.2724
X4.5533Y-2.2724
X4.6533Y-2.2724
X4.7533Y-1.1724
X4.7533Y-1.2724
X4.7533Y-1.3724
X4.7533Y-1.4724
X4.7533Y-1.5724
X4.7533Y-1.6724
X4.7533Y-1.7724
X4.7533Y-1.8724
X4.7533Y-1.9724
X4.7533Y-2.0724
X4.7533Y-2.1724
X4.7533Y-2.2724
T6
X0.6836Y-1.7682
X0.6836Y-2.4375
X0.6836Y-3.1068
X0.8805Y-1.8509
X0.8805Y-2.5202
X0.8805Y-3.1895
X1.0773Y-1.7682
X1.0773Y-2.4375
X1.0773Y-3.1068
X1.3923Y-1.2958
X1.3923Y-1.9641
X1.3923Y-2.6341
X1.5891Y-1.3785
X1.5891Y-2.0467
X1.5891Y-2.7167
X1.786Y-1.2958
X1.786Y-1.9641
X1.786Y-2.6341
X2.1009Y-2.3641
X2.1009Y-1.0202
X2.1009Y-1.6941
X2.2978Y-2.4467
X2.2978Y-1.1029
X2.2978Y-1.7767
X2.4946Y-2.3641
X2.4946Y-1.0202
X2.4946Y-1.6941
X2.7599Y-3.2978
X2.8096Y-1.2367
X2.8096Y-1.9041
X2.8096Y-2.5741
X2.9488Y-3.3973
X3.0064Y-1.3194
X3.0064Y-1.9867
X3.0064Y-2.6567
X3.1521Y-3.3321
X3.2033Y-1.2367
X3.2033Y-1.9041
X3.2033Y-2.5741
X3.4981Y-3.3933
X3.5175Y-2.0041
X3.5175Y-2.6741
X3.5183Y-1.3352
X3.6668Y-3.5241
X3.7143Y-2.0867
X3.7143Y-2.7567
X3.7151Y-1.4178
X3.8783Y-3.4952
X3.9112Y-2.0041
X3.9112Y-2.6741
X3.912Y-1.3352
X4.2325Y-3.6787
X4.2408Y-3.4653
X4.3989Y-3.3219
T7
X1.9152Y-1.4913
X2.6652Y-0.7413
X2.6652Y-2.2413
X3.4152Y-1.4913
T3
G00X4.2879Y-2.9631
M15
G01X4.3037Y-2.9631
M16
G05
G00X4.3044Y-2.7828
M15
G01X4.2887Y-2.7828
M16
G05
G00X4.3312Y-2.782
M15
G01X4.347Y-2.782
M16
G05
G00X4.3477Y-2.9639
M15
G01X4.332Y-2.9639
M16
G05
G00X4.4887Y-2.782
M15
G01X4.5045Y-2.782
M16
G05
G00X4.5052Y-2.9639
M15
G01X4.4894Y-2.9639
M16
G05
G00X4.6068Y-2.782
M15
G01X4.6226Y-2.782
M16
G05
G00X4.6233Y-2.9639
M15
G01X4.6075Y-2.9639
M16
G05
T0
M30
