%TF.GenerationSoftware,KiCad,Pcbnew,(6.0.0)*%
%TF.CreationDate,2022-04-19T22:23:16-07:00*%
%TF.ProjectId,half-swept,68616c66-2d73-4776-9570-742e6b696361,rev?*%
%TF.SameCoordinates,Original*%
%TF.FileFunction,Profile,NP*%
%FSLAX46Y46*%
G04 Gerber Fmt 4.6, Leading zero omitted, Abs format (unit mm)*
G04 Created by KiCad (PCBNEW (6.0.0)) date 2022-04-19 22:23:16*
%MOMM*%
%LPD*%
G01*
G04 APERTURE LIST*
%TA.AperFunction,Profile*%
%ADD10C,0.050000*%
%TD*%
%TA.AperFunction,Profile*%
%ADD11C,0.100000*%
%TD*%
G04 APERTURE END LIST*
D10*
X13640291Y-31739198D02*
X13680490Y-81007519D01*
X122192236Y-27146270D02*
G75*
G03*
X121830237Y-26342496I-1044782J12862D01*
G01*
X15067235Y-29725495D02*
G75*
G03*
X13640291Y-31739198I2445015J-3245009D01*
G01*
X121830237Y-26342496D02*
G75*
G03*
X69330238Y-12192495I-52476915J-90233334D01*
G01*
X115173414Y-100876700D02*
G75*
G03*
X15718236Y-82843615I-99965886J-268055225D01*
G01*
X13680490Y-81007519D02*
G75*
G03*
X15718236Y-82843615I1977998J146413D01*
G01*
X122192236Y-27146270D02*
X122192237Y-87842495D01*
X69330238Y-12192495D02*
G75*
G03*
X15067235Y-29725495I-1656758J-87608458D01*
G01*
X122080236Y-88342494D02*
G75*
G03*
X122192237Y-87842495I-1060057J499999D01*
G01*
X115173414Y-100876700D02*
G75*
G03*
X116380237Y-100542495I439901J757542D01*
G01*
X122080236Y-88342494D02*
X116380237Y-100542495D01*
D11*
%TO.C,D12*%
X73768201Y-75633828D02*
X73890715Y-74233493D01*
X74862293Y-73518293D02*
X76445152Y-73656775D01*
X76183683Y-76645358D02*
X74600826Y-76506876D01*
X77277775Y-74529822D02*
X77155261Y-75930157D01*
X76445152Y-73656775D02*
G75*
G03*
X76702402Y-73610722I43577J498098D01*
G01*
X77345974Y-74318082D02*
G75*
G03*
X77277775Y-74529821I429880J-255312D01*
G01*
X76429030Y-76735383D02*
G75*
G03*
X77185656Y-76150522I288923J408073D01*
G01*
X73700003Y-75845568D02*
G75*
G03*
X74343574Y-76552927I429898J-255316D01*
G01*
X74616946Y-73428267D02*
G75*
G03*
X74862292Y-73518292I288928J408081D01*
G01*
X74616946Y-73428266D02*
G75*
G03*
X73860320Y-74013127I-288923J-408073D01*
G01*
X73700003Y-75845568D02*
G75*
G03*
X73768201Y-75633829I-429889J255315D01*
G01*
X77155262Y-75930157D02*
G75*
G03*
X77185656Y-76150523I498087J-43579D01*
G01*
X77345975Y-74318082D02*
G75*
G03*
X76702402Y-73610722I-429900J255316D01*
G01*
X73890714Y-74233493D02*
G75*
G03*
X73860320Y-74013127I-498086J43579D01*
G01*
X74600826Y-76506875D02*
G75*
G03*
X74343575Y-76552929I-43576J-498108D01*
G01*
X76429030Y-76735383D02*
G75*
G03*
X76183683Y-76645358I-288927J-408081D01*
G01*
%TO.C,D16*%
X38330237Y-24465337D02*
X38330237Y-23059653D01*
X41730235Y-23059653D02*
X41730235Y-24465337D01*
X39235784Y-22262496D02*
X40824689Y-22262496D01*
X40824688Y-25262495D02*
X39235784Y-25262495D01*
X39235784Y-25262495D02*
G75*
G03*
X38983526Y-25330794I3J-500009D01*
G01*
X41779720Y-22842775D02*
G75*
G03*
X41730235Y-23059652I450505J-216876D01*
G01*
X41076947Y-25330794D02*
G75*
G03*
X41779720Y-24682214I252259J431700D01*
G01*
X40824689Y-22262496D02*
G75*
G03*
X41076947Y-22194197I-3J500009D01*
G01*
X41730235Y-24465337D02*
G75*
G03*
X41779720Y-24682215I499990J-2D01*
G01*
X38280752Y-24682215D02*
G75*
G03*
X38330237Y-24465338I-450505J216876D01*
G01*
X38330237Y-23059653D02*
G75*
G03*
X38280752Y-22842775I-499990J2D01*
G01*
X38983525Y-22194196D02*
G75*
G03*
X38280752Y-22842775I-252258J-431701D01*
G01*
X41779721Y-22842775D02*
G75*
G03*
X41076947Y-22194197I-450516J216877D01*
G01*
X41076947Y-25330794D02*
G75*
G03*
X40824688Y-25262495I-252261J-431710D01*
G01*
X38983525Y-22194196D02*
G75*
G03*
X39235783Y-22262495I252261J431710D01*
G01*
X38280752Y-24682215D02*
G75*
G03*
X38983525Y-25330792I450515J-216877D01*
G01*
%TO.C,D8*%
X56330236Y-51599337D02*
X56330236Y-50193653D01*
X59730234Y-50193653D02*
X59730234Y-51599337D01*
X57235783Y-49396496D02*
X58824688Y-49396496D01*
X58824687Y-52396495D02*
X57235783Y-52396495D01*
X59076946Y-52464794D02*
G75*
G03*
X59779719Y-51816214I252259J431700D01*
G01*
X59779720Y-49976775D02*
G75*
G03*
X59076946Y-49328197I-450516J216877D01*
G01*
X57235783Y-52396495D02*
G75*
G03*
X56983525Y-52464794I3J-500009D01*
G01*
X56280751Y-51816215D02*
G75*
G03*
X56983524Y-52464792I450515J-216877D01*
G01*
X56280751Y-51816215D02*
G75*
G03*
X56330236Y-51599338I-450505J216876D01*
G01*
X56983524Y-49328196D02*
G75*
G03*
X56280751Y-49976775I-252258J-431701D01*
G01*
X59730234Y-51599337D02*
G75*
G03*
X59779719Y-51816215I499990J-2D01*
G01*
X56983524Y-49328196D02*
G75*
G03*
X57235782Y-49396495I252261J431710D01*
G01*
X58824688Y-49396496D02*
G75*
G03*
X59076946Y-49328197I-3J500009D01*
G01*
X59779719Y-49976775D02*
G75*
G03*
X59730234Y-50193652I450505J-216876D01*
G01*
X59076946Y-52464794D02*
G75*
G03*
X58824687Y-52396495I-252261J-431710D01*
G01*
X56330236Y-50193653D02*
G75*
G03*
X56280751Y-49976775I-499990J2D01*
G01*
%TO.C,D2*%
X56330237Y-17465337D02*
X56330237Y-16059653D01*
X59730235Y-16059653D02*
X59730235Y-17465337D01*
X58824688Y-18262495D02*
X57235784Y-18262495D01*
X57235784Y-15262496D02*
X58824689Y-15262496D01*
X56280752Y-17682215D02*
G75*
G03*
X56983525Y-18330792I450515J-216877D01*
G01*
X59779721Y-15842775D02*
G75*
G03*
X59076947Y-15194197I-450516J216877D01*
G01*
X59076947Y-18330794D02*
G75*
G03*
X59779720Y-17682214I252259J431700D01*
G01*
X56983525Y-15194196D02*
G75*
G03*
X57235783Y-15262495I252261J431710D01*
G01*
X59076947Y-18330794D02*
G75*
G03*
X58824688Y-18262495I-252261J-431710D01*
G01*
X58824689Y-15262496D02*
G75*
G03*
X59076947Y-15194197I-3J500009D01*
G01*
X56983525Y-15194196D02*
G75*
G03*
X56280752Y-15842775I-252258J-431701D01*
G01*
X59779720Y-15842775D02*
G75*
G03*
X59730235Y-16059652I450505J-216876D01*
G01*
X56280752Y-17682215D02*
G75*
G03*
X56330237Y-17465338I-450505J216876D01*
G01*
X57235784Y-18262495D02*
G75*
G03*
X56983526Y-18330794I3J-500009D01*
G01*
X59730235Y-17465337D02*
G75*
G03*
X59779720Y-17682215I499990J-2D01*
G01*
X56330237Y-16059653D02*
G75*
G03*
X56280752Y-15842775I-499990J2D01*
G01*
%TO.C,D15*%
X95265883Y-76981084D02*
X96800648Y-77392323D01*
X97469019Y-78396690D02*
X97105201Y-79754476D01*
X96024190Y-80290099D02*
X94489426Y-79878860D01*
X93821055Y-78874492D02*
X94184873Y-77516705D01*
X94489426Y-79878860D02*
G75*
G03*
X94228087Y-79879543I-129408J-482964D01*
G01*
X93717124Y-79071172D02*
G75*
G03*
X93821055Y-78874493I-379023J326085D01*
G01*
X93717123Y-79071172D02*
G75*
G03*
X94228086Y-79879541I379033J-326089D01*
G01*
X95039897Y-76849822D02*
G75*
G03*
X94193206Y-77294410I-355395J-351702D01*
G01*
X97572950Y-78200009D02*
G75*
G03*
X97469019Y-78396689I379014J-326081D01*
G01*
X96250176Y-80421360D02*
G75*
G03*
X96024190Y-80290099I-355404J-351716D01*
G01*
X95039898Y-76849821D02*
G75*
G03*
X95265883Y-76981082I355399J351709D01*
G01*
X96800648Y-77392322D02*
G75*
G03*
X97061987Y-77391640I129409J482964D01*
G01*
X97572950Y-78200009D02*
G75*
G03*
X97061987Y-77391640I-379033J326089D01*
G01*
X94184873Y-77516705D02*
G75*
G03*
X94193206Y-77294410I-482953J129408D01*
G01*
X96250176Y-80421360D02*
G75*
G03*
X97096868Y-79976771I355396J351701D01*
G01*
X97105200Y-79754476D02*
G75*
G03*
X97096867Y-79976772I482954J-129409D01*
G01*
%TO.C,D11*%
X74330237Y-56933338D02*
X74330237Y-55527654D01*
X75235784Y-54730497D02*
X76824689Y-54730497D01*
X77730235Y-55527654D02*
X77730235Y-56933338D01*
X76824688Y-57730496D02*
X75235784Y-57730496D01*
X75235784Y-57730496D02*
G75*
G03*
X74983526Y-57798795I3J-500009D01*
G01*
X74330237Y-55527654D02*
G75*
G03*
X74280752Y-55310776I-499990J2D01*
G01*
X77076947Y-57798795D02*
G75*
G03*
X76824688Y-57730496I-252261J-431710D01*
G01*
X77730235Y-56933338D02*
G75*
G03*
X77779720Y-57150216I499990J-2D01*
G01*
X77779720Y-55310776D02*
G75*
G03*
X77730235Y-55527653I450505J-216876D01*
G01*
X77076947Y-57798795D02*
G75*
G03*
X77779720Y-57150215I252259J431700D01*
G01*
X74280752Y-57150216D02*
G75*
G03*
X74330237Y-56933339I-450505J216876D01*
G01*
X74280752Y-57150216D02*
G75*
G03*
X74983525Y-57798793I450515J-216877D01*
G01*
X76824689Y-54730497D02*
G75*
G03*
X77076947Y-54662198I-3J500009D01*
G01*
X74983525Y-54662197D02*
G75*
G03*
X74280752Y-55310776I-252258J-431701D01*
G01*
X77779721Y-55310776D02*
G75*
G03*
X77076947Y-54662198I-450516J216877D01*
G01*
X74983525Y-54662197D02*
G75*
G03*
X75235783Y-54730496I252261J431710D01*
G01*
%TO.C,D14*%
X76824688Y-40712496D02*
X75235784Y-40712496D01*
X74330237Y-39915338D02*
X74330237Y-38509654D01*
X77730235Y-38509654D02*
X77730235Y-39915338D01*
X75235784Y-37712497D02*
X76824689Y-37712497D01*
X76824689Y-37712497D02*
G75*
G03*
X77076947Y-37644198I-3J500009D01*
G01*
X74280752Y-40132216D02*
G75*
G03*
X74330237Y-39915339I-450505J216876D01*
G01*
X74280752Y-40132216D02*
G75*
G03*
X74983525Y-40780793I450515J-216877D01*
G01*
X74983525Y-37644197D02*
G75*
G03*
X75235783Y-37712496I252261J431710D01*
G01*
X74330237Y-38509654D02*
G75*
G03*
X74280752Y-38292776I-499990J2D01*
G01*
X77076947Y-40780795D02*
G75*
G03*
X77779720Y-40132215I252259J431700D01*
G01*
X77076947Y-40780795D02*
G75*
G03*
X76824688Y-40712496I-252261J-431710D01*
G01*
X74983525Y-37644197D02*
G75*
G03*
X74280752Y-38292776I-252258J-431701D01*
G01*
X75235784Y-40712496D02*
G75*
G03*
X74983526Y-40780795I3J-500009D01*
G01*
X77779720Y-38292776D02*
G75*
G03*
X77730235Y-38509653I450505J-216876D01*
G01*
X77779721Y-38292776D02*
G75*
G03*
X77076947Y-37644198I-450516J216877D01*
G01*
X77730235Y-39915338D02*
G75*
G03*
X77779720Y-40132216I499990J-2D01*
G01*
%TO.C,D10*%
X39235784Y-56254496D02*
X40824689Y-56254496D01*
X40824688Y-59254495D02*
X39235784Y-59254495D01*
X38330237Y-58457337D02*
X38330237Y-57051653D01*
X41730235Y-57051653D02*
X41730235Y-58457337D01*
X41779720Y-56834775D02*
G75*
G03*
X41730235Y-57051652I450505J-216876D01*
G01*
X41076947Y-59322794D02*
G75*
G03*
X41779720Y-58674214I252259J431700D01*
G01*
X41076947Y-59322794D02*
G75*
G03*
X40824688Y-59254495I-252261J-431710D01*
G01*
X40824689Y-56254496D02*
G75*
G03*
X41076947Y-56186197I-3J500009D01*
G01*
X39235784Y-59254495D02*
G75*
G03*
X38983526Y-59322794I3J-500009D01*
G01*
X38280752Y-58674215D02*
G75*
G03*
X38983525Y-59322792I450515J-216877D01*
G01*
X41730235Y-58457337D02*
G75*
G03*
X41779720Y-58674215I499990J-2D01*
G01*
X38983525Y-56186196D02*
G75*
G03*
X38280752Y-56834775I-252258J-431701D01*
G01*
X38280752Y-58674215D02*
G75*
G03*
X38330237Y-58457338I-450505J216876D01*
G01*
X38983525Y-56186196D02*
G75*
G03*
X39235783Y-56254495I252261J431710D01*
G01*
X38330237Y-57051653D02*
G75*
G03*
X38280752Y-56834775I-499990J2D01*
G01*
X41779721Y-56834775D02*
G75*
G03*
X41076947Y-56186197I-450516J216877D01*
G01*
%TO.C,D1*%
X20330237Y-36465337D02*
X20330237Y-35059653D01*
X23730235Y-35059653D02*
X23730235Y-36465337D01*
X22824688Y-37262495D02*
X21235784Y-37262495D01*
X21235784Y-34262496D02*
X22824689Y-34262496D01*
X20983525Y-34194196D02*
G75*
G03*
X20280752Y-34842775I-252258J-431701D01*
G01*
X22824689Y-34262496D02*
G75*
G03*
X23076947Y-34194197I-3J500009D01*
G01*
X21235784Y-37262495D02*
G75*
G03*
X20983526Y-37330794I3J-500009D01*
G01*
X23076947Y-37330794D02*
G75*
G03*
X22824688Y-37262495I-252261J-431710D01*
G01*
X23730235Y-36465337D02*
G75*
G03*
X23779720Y-36682215I499990J-2D01*
G01*
X23779721Y-34842775D02*
G75*
G03*
X23076947Y-34194197I-450516J216877D01*
G01*
X20280752Y-36682215D02*
G75*
G03*
X20983525Y-37330792I450515J-216877D01*
G01*
X23076947Y-37330794D02*
G75*
G03*
X23779720Y-36682214I252259J431700D01*
G01*
X23779720Y-34842775D02*
G75*
G03*
X23730235Y-35059652I450505J-216876D01*
G01*
X20983525Y-34194196D02*
G75*
G03*
X21235783Y-34262495I252261J431710D01*
G01*
X20330237Y-35059653D02*
G75*
G03*
X20280752Y-34842775I-499990J2D01*
G01*
X20280752Y-36682215D02*
G75*
G03*
X20330237Y-36465338I-450505J216876D01*
G01*
%TO.C,D9*%
X93215784Y-57270496D02*
X94804689Y-57270496D01*
X92310237Y-59473337D02*
X92310237Y-58067653D01*
X94804688Y-60270495D02*
X93215784Y-60270495D01*
X95710235Y-58067653D02*
X95710235Y-59473337D01*
X92963525Y-57202196D02*
G75*
G03*
X92260752Y-57850775I-252258J-431701D01*
G01*
X95710235Y-59473337D02*
G75*
G03*
X95759720Y-59690215I499990J-2D01*
G01*
X92260752Y-59690215D02*
G75*
G03*
X92310237Y-59473338I-450505J216876D01*
G01*
X95056947Y-60338794D02*
G75*
G03*
X94804688Y-60270495I-252261J-431710D01*
G01*
X95759721Y-57850775D02*
G75*
G03*
X95056947Y-57202197I-450516J216877D01*
G01*
X92260752Y-59690215D02*
G75*
G03*
X92963525Y-60338792I450515J-216877D01*
G01*
X93215784Y-60270495D02*
G75*
G03*
X92963526Y-60338794I3J-500009D01*
G01*
X94804689Y-57270496D02*
G75*
G03*
X95056947Y-57202197I-3J500009D01*
G01*
X92963525Y-57202196D02*
G75*
G03*
X93215783Y-57270495I252261J431710D01*
G01*
X92310237Y-58067653D02*
G75*
G03*
X92260752Y-57850775I-499990J2D01*
G01*
X95759720Y-57850775D02*
G75*
G03*
X95710235Y-58067652I450505J-216876D01*
G01*
X95056947Y-60338794D02*
G75*
G03*
X95759720Y-59690214I252259J431700D01*
G01*
%TO.C,D17*%
X74330238Y-22965337D02*
X74330238Y-21559653D01*
X77730236Y-21559653D02*
X77730236Y-22965337D01*
X76824689Y-23762495D02*
X75235785Y-23762495D01*
X75235785Y-20762496D02*
X76824690Y-20762496D01*
X74983526Y-20694196D02*
G75*
G03*
X74280753Y-21342775I-252258J-431701D01*
G01*
X74330238Y-21559653D02*
G75*
G03*
X74280753Y-21342775I-499990J2D01*
G01*
X74983526Y-20694196D02*
G75*
G03*
X75235784Y-20762495I252261J431710D01*
G01*
X74280753Y-23182215D02*
G75*
G03*
X74983526Y-23830792I450515J-216877D01*
G01*
X77779721Y-21342775D02*
G75*
G03*
X77730236Y-21559652I450505J-216876D01*
G01*
X77076948Y-23830794D02*
G75*
G03*
X77779721Y-23182214I252259J431700D01*
G01*
X77076948Y-23830794D02*
G75*
G03*
X76824689Y-23762495I-252261J-431710D01*
G01*
X75235785Y-23762495D02*
G75*
G03*
X74983527Y-23830794I3J-500009D01*
G01*
X77730236Y-22965337D02*
G75*
G03*
X77779721Y-23182215I499990J-2D01*
G01*
X76824690Y-20762496D02*
G75*
G03*
X77076948Y-20694197I-3J500009D01*
G01*
X77779722Y-21342775D02*
G75*
G03*
X77076948Y-20694197I-450516J216877D01*
G01*
X74280753Y-23182215D02*
G75*
G03*
X74330238Y-22965338I-450505J216876D01*
G01*
%TO.C,D18*%
X116714894Y-85719910D02*
X116120826Y-86993892D01*
X113039382Y-85556991D02*
X113633449Y-84283009D01*
X114791047Y-83943240D02*
X116231084Y-84614740D01*
X114963228Y-87333662D02*
X113523192Y-86662162D01*
X113523192Y-86662162D02*
G75*
G03*
X113265705Y-86617453I-211308J-453155D01*
G01*
X112902876Y-85732636D02*
G75*
G03*
X113265704Y-86617451I316649J-386953D01*
G01*
X115162988Y-87502171D02*
G75*
G03*
X116074019Y-87211363I411069J284644D01*
G01*
X116851399Y-85544265D02*
G75*
G03*
X116488571Y-84659449I-316648J386954D01*
G01*
X115162988Y-87502171D02*
G75*
G03*
X114963228Y-87333662I-411074J-284652D01*
G01*
X114591288Y-83774729D02*
G75*
G03*
X114791046Y-83943238I411074J284651D01*
G01*
X113633449Y-84283009D02*
G75*
G03*
X113680257Y-84065537I-453144J211307D01*
G01*
X112902876Y-85732636D02*
G75*
G03*
X113039381Y-85556992I-316633J386942D01*
G01*
X114591287Y-83774730D02*
G75*
G03*
X113680257Y-84065537I-411068J-284645D01*
G01*
X116851399Y-85544264D02*
G75*
G03*
X116714894Y-85719909I316641J-386949D01*
G01*
X116120826Y-86993892D02*
G75*
G03*
X116074018Y-87211364I453144J-211307D01*
G01*
X116231084Y-84614740D02*
G75*
G03*
X116488571Y-84659449I211308J453155D01*
G01*
%TO.C,D4*%
X20330237Y-53515337D02*
X20330237Y-52109653D01*
X22824688Y-54312495D02*
X21235784Y-54312495D01*
X21235784Y-51312496D02*
X22824689Y-51312496D01*
X23730235Y-52109653D02*
X23730235Y-53515337D01*
X23076947Y-54380794D02*
G75*
G03*
X22824688Y-54312495I-252261J-431710D01*
G01*
X20983525Y-51244196D02*
G75*
G03*
X21235783Y-51312495I252261J431710D01*
G01*
X23076947Y-54380794D02*
G75*
G03*
X23779720Y-53732214I252259J431700D01*
G01*
X23779720Y-51892775D02*
G75*
G03*
X23730235Y-52109652I450505J-216876D01*
G01*
X20983525Y-51244196D02*
G75*
G03*
X20280752Y-51892775I-252258J-431701D01*
G01*
X23779721Y-51892775D02*
G75*
G03*
X23076947Y-51244197I-450516J216877D01*
G01*
X21235784Y-54312495D02*
G75*
G03*
X20983526Y-54380794I3J-500009D01*
G01*
X20280752Y-53732215D02*
G75*
G03*
X20983525Y-54380792I450515J-216877D01*
G01*
X22824689Y-51312496D02*
G75*
G03*
X23076947Y-51244197I-3J500009D01*
G01*
X20330237Y-52109653D02*
G75*
G03*
X20280752Y-51892775I-499990J2D01*
G01*
X20280752Y-53732215D02*
G75*
G03*
X20330237Y-53515338I-450505J216876D01*
G01*
X23730235Y-53515337D02*
G75*
G03*
X23779720Y-53732215I499990J-2D01*
G01*
%TO.C,D3*%
X93235783Y-23262496D02*
X94824688Y-23262496D01*
X95730234Y-24059653D02*
X95730234Y-25465337D01*
X94824687Y-26262495D02*
X93235783Y-26262495D01*
X92330236Y-25465337D02*
X92330236Y-24059653D01*
X92330236Y-24059653D02*
G75*
G03*
X92280751Y-23842775I-499990J2D01*
G01*
X92280751Y-25682215D02*
G75*
G03*
X92983524Y-26330792I450515J-216877D01*
G01*
X92983524Y-23194196D02*
G75*
G03*
X93235782Y-23262495I252261J431710D01*
G01*
X95076946Y-26330794D02*
G75*
G03*
X94824687Y-26262495I-252261J-431710D01*
G01*
X94824688Y-23262496D02*
G75*
G03*
X95076946Y-23194197I-3J500009D01*
G01*
X95730234Y-25465337D02*
G75*
G03*
X95779719Y-25682215I499990J-2D01*
G01*
X92983524Y-23194196D02*
G75*
G03*
X92280751Y-23842775I-252258J-431701D01*
G01*
X95779720Y-23842775D02*
G75*
G03*
X95076946Y-23194197I-450516J216877D01*
G01*
X95076946Y-26330794D02*
G75*
G03*
X95779719Y-25682214I252259J431700D01*
G01*
X95779719Y-23842775D02*
G75*
G03*
X95730234Y-24059652I450505J-216876D01*
G01*
X92280751Y-25682215D02*
G75*
G03*
X92330236Y-25465338I-450505J216876D01*
G01*
X93235783Y-26262495D02*
G75*
G03*
X92983525Y-26330794I3J-500009D01*
G01*
%TO.C,D7*%
X21235785Y-68262496D02*
X22824690Y-68262496D01*
X23730236Y-69059653D02*
X23730236Y-70465337D01*
X22824689Y-71262495D02*
X21235785Y-71262495D01*
X20330238Y-70465337D02*
X20330238Y-69059653D01*
X23076948Y-71330794D02*
G75*
G03*
X23779721Y-70682214I252259J431700D01*
G01*
X21235785Y-71262495D02*
G75*
G03*
X20983527Y-71330794I3J-500009D01*
G01*
X20330238Y-69059653D02*
G75*
G03*
X20280753Y-68842775I-499990J2D01*
G01*
X23779721Y-68842775D02*
G75*
G03*
X23730236Y-69059652I450505J-216876D01*
G01*
X20280753Y-70682215D02*
G75*
G03*
X20983526Y-71330792I450515J-216877D01*
G01*
X20983526Y-68194196D02*
G75*
G03*
X21235784Y-68262495I252261J431710D01*
G01*
X20983526Y-68194196D02*
G75*
G03*
X20280753Y-68842775I-252258J-431701D01*
G01*
X23779722Y-68842775D02*
G75*
G03*
X23076948Y-68194197I-450516J216877D01*
G01*
X20280753Y-70682215D02*
G75*
G03*
X20330238Y-70465338I-450505J216876D01*
G01*
X23076948Y-71330794D02*
G75*
G03*
X22824689Y-71262495I-252261J-431710D01*
G01*
X23730236Y-70465337D02*
G75*
G03*
X23779721Y-70682215I499990J-2D01*
G01*
X22824690Y-68262496D02*
G75*
G03*
X23076948Y-68194197I-3J500009D01*
G01*
%TO.C,D5*%
X56330237Y-34581337D02*
X56330237Y-33175653D01*
X59730235Y-33175653D02*
X59730235Y-34581337D01*
X58824688Y-35378495D02*
X57235784Y-35378495D01*
X57235784Y-32378496D02*
X58824689Y-32378496D01*
X56330237Y-33175653D02*
G75*
G03*
X56280752Y-32958775I-499990J2D01*
G01*
X58824689Y-32378496D02*
G75*
G03*
X59076947Y-32310197I-3J500009D01*
G01*
X56983525Y-32310196D02*
G75*
G03*
X57235783Y-32378495I252261J431710D01*
G01*
X59076947Y-35446794D02*
G75*
G03*
X59779720Y-34798214I252259J431700D01*
G01*
X56280752Y-34798215D02*
G75*
G03*
X56330237Y-34581338I-450505J216876D01*
G01*
X57235784Y-35378495D02*
G75*
G03*
X56983526Y-35446794I3J-500009D01*
G01*
X59076947Y-35446794D02*
G75*
G03*
X58824688Y-35378495I-252261J-431710D01*
G01*
X59779720Y-32958775D02*
G75*
G03*
X59730235Y-33175652I450505J-216876D01*
G01*
X59730235Y-34581337D02*
G75*
G03*
X59779720Y-34798215I499990J-2D01*
G01*
X56280752Y-34798215D02*
G75*
G03*
X56983525Y-35446792I450515J-216877D01*
G01*
X59779721Y-32958775D02*
G75*
G03*
X59076947Y-32310197I-450516J216877D01*
G01*
X56983525Y-32310196D02*
G75*
G03*
X56280752Y-32958775I-252258J-431701D01*
G01*
%TO.C,D6*%
X95710235Y-41049654D02*
X95710235Y-42455338D01*
X94804688Y-43252496D02*
X93215784Y-43252496D01*
X92310237Y-42455338D02*
X92310237Y-41049654D01*
X93215784Y-40252497D02*
X94804689Y-40252497D01*
X95056947Y-43320795D02*
G75*
G03*
X94804688Y-43252496I-252261J-431710D01*
G01*
X92260752Y-42672216D02*
G75*
G03*
X92963525Y-43320793I450515J-216877D01*
G01*
X95759720Y-40832776D02*
G75*
G03*
X95710235Y-41049653I450505J-216876D01*
G01*
X93215784Y-43252496D02*
G75*
G03*
X92963526Y-43320795I3J-500009D01*
G01*
X95759721Y-40832776D02*
G75*
G03*
X95056947Y-40184198I-450516J216877D01*
G01*
X95710235Y-42455338D02*
G75*
G03*
X95759720Y-42672216I499990J-2D01*
G01*
X92310237Y-41049654D02*
G75*
G03*
X92260752Y-40832776I-499990J2D01*
G01*
X92963525Y-40184197D02*
G75*
G03*
X93215783Y-40252496I252261J431710D01*
G01*
X92260752Y-42672216D02*
G75*
G03*
X92310237Y-42455339I-450505J216876D01*
G01*
X94804689Y-40252497D02*
G75*
G03*
X95056947Y-40184198I-3J500009D01*
G01*
X92963525Y-40184197D02*
G75*
G03*
X92260752Y-40832776I-252258J-431701D01*
G01*
X95056947Y-43320795D02*
G75*
G03*
X95759720Y-42672215I252259J431700D01*
G01*
%TO.C,D13*%
X41730236Y-40033653D02*
X41730236Y-41439337D01*
X40824689Y-42236495D02*
X39235785Y-42236495D01*
X38330238Y-41439337D02*
X38330238Y-40033653D01*
X39235785Y-39236496D02*
X40824690Y-39236496D01*
X41779722Y-39816775D02*
G75*
G03*
X41076948Y-39168197I-450516J216877D01*
G01*
X41076948Y-42304794D02*
G75*
G03*
X41779721Y-41656214I252259J431700D01*
G01*
X40824690Y-39236496D02*
G75*
G03*
X41076948Y-39168197I-3J500009D01*
G01*
X38280753Y-41656215D02*
G75*
G03*
X38330238Y-41439338I-450505J216876D01*
G01*
X38983526Y-39168196D02*
G75*
G03*
X38280753Y-39816775I-252258J-431701D01*
G01*
X41730236Y-41439337D02*
G75*
G03*
X41779721Y-41656215I499990J-2D01*
G01*
X41076948Y-42304794D02*
G75*
G03*
X40824689Y-42236495I-252261J-431710D01*
G01*
X38280753Y-41656215D02*
G75*
G03*
X38983526Y-42304792I450515J-216877D01*
G01*
X38983526Y-39168196D02*
G75*
G03*
X39235784Y-39236495I252261J431710D01*
G01*
X41779721Y-39816775D02*
G75*
G03*
X41730236Y-40033652I450505J-216876D01*
G01*
X38330238Y-40033653D02*
G75*
G03*
X38280753Y-39816775I-499990J2D01*
G01*
X39235785Y-42236495D02*
G75*
G03*
X38983527Y-42304794I3J-500009D01*
G01*
%TO.C,D34*%
X39235784Y-25262495D02*
X40824688Y-25262495D01*
X40824688Y-22262496D02*
X39235783Y-22262496D01*
X38330237Y-23059653D02*
X38330237Y-24465337D01*
X41730235Y-24465337D02*
X41730235Y-23059653D01*
X41779720Y-22842775D02*
G75*
G03*
X41730235Y-23059653I450505J-216876D01*
G01*
X41730235Y-24465338D02*
G75*
G03*
X41779720Y-24682215I499990J-1D01*
G01*
X40824689Y-22262495D02*
G75*
G03*
X41076947Y-22194196I5J499982D01*
G01*
X41779720Y-22842775D02*
G75*
G03*
X41076947Y-22194196I-450515J216878D01*
G01*
X38280752Y-24682215D02*
G75*
G03*
X38330237Y-24465337I-450505J216876D01*
G01*
X38983525Y-22194198D02*
G75*
G03*
X38280752Y-22842775I-252258J-431700D01*
G01*
X38983525Y-22194197D02*
G75*
G03*
X39235783Y-22262496I252261J431710D01*
G01*
X38330237Y-23059652D02*
G75*
G03*
X38280752Y-22842775I-499990J1D01*
G01*
X41076946Y-25330794D02*
G75*
G03*
X40824688Y-25262495I-252261J-431710D01*
G01*
X41076947Y-25330792D02*
G75*
G03*
X41779720Y-24682215I252258J431700D01*
G01*
X38280752Y-24682214D02*
G75*
G03*
X38983525Y-25330794I450515J-216879D01*
G01*
X39235784Y-25262495D02*
G75*
G03*
X38983525Y-25330794I-6J-499982D01*
G01*
%TO.C,D26*%
X59730234Y-51599337D02*
X59730234Y-50193653D01*
X56330236Y-50193653D02*
X56330236Y-51599337D01*
X57235783Y-52396495D02*
X58824687Y-52396495D01*
X58824687Y-49396496D02*
X57235782Y-49396496D01*
X59076946Y-52464792D02*
G75*
G03*
X59779719Y-51816215I252258J431700D01*
G01*
X59779719Y-49976775D02*
G75*
G03*
X59076946Y-49328196I-450515J216878D01*
G01*
X56280751Y-51816215D02*
G75*
G03*
X56330236Y-51599337I-450505J216876D01*
G01*
X56983524Y-49328197D02*
G75*
G03*
X57235782Y-49396496I252261J431710D01*
G01*
X56280751Y-51816214D02*
G75*
G03*
X56983524Y-52464794I450515J-216879D01*
G01*
X59779719Y-49976775D02*
G75*
G03*
X59730234Y-50193653I450505J-216876D01*
G01*
X56983524Y-49328198D02*
G75*
G03*
X56280751Y-49976775I-252258J-431700D01*
G01*
X59076945Y-52464794D02*
G75*
G03*
X58824687Y-52396495I-252261J-431710D01*
G01*
X56330236Y-50193652D02*
G75*
G03*
X56280751Y-49976775I-499990J1D01*
G01*
X58824688Y-49396495D02*
G75*
G03*
X59076946Y-49328196I5J499982D01*
G01*
X57235783Y-52396495D02*
G75*
G03*
X56983524Y-52464794I-6J-499982D01*
G01*
X59730234Y-51599338D02*
G75*
G03*
X59779719Y-51816215I499990J-1D01*
G01*
%TO.C,D31*%
X38330238Y-40033653D02*
X38330238Y-41439337D01*
X41730236Y-41439337D02*
X41730236Y-40033653D01*
X39235785Y-42236495D02*
X40824689Y-42236495D01*
X40824689Y-39236496D02*
X39235784Y-39236496D01*
X41779721Y-39816775D02*
G75*
G03*
X41730236Y-40033653I450505J-216876D01*
G01*
X40824690Y-39236495D02*
G75*
G03*
X41076948Y-39168196I5J499982D01*
G01*
X38280753Y-41656214D02*
G75*
G03*
X38983526Y-42304794I450515J-216879D01*
G01*
X39235785Y-42236495D02*
G75*
G03*
X38983526Y-42304794I-6J-499982D01*
G01*
X38983526Y-39168198D02*
G75*
G03*
X38280753Y-39816775I-252258J-431700D01*
G01*
X41076948Y-42304792D02*
G75*
G03*
X41779721Y-41656215I252258J431700D01*
G01*
X38983526Y-39168197D02*
G75*
G03*
X39235784Y-39236496I252261J431710D01*
G01*
X38330238Y-40033652D02*
G75*
G03*
X38280753Y-39816775I-499990J1D01*
G01*
X41730236Y-41439338D02*
G75*
G03*
X41779721Y-41656215I499990J-1D01*
G01*
X38280753Y-41656215D02*
G75*
G03*
X38330238Y-41439337I-450505J216876D01*
G01*
X41779721Y-39816775D02*
G75*
G03*
X41076948Y-39168196I-450515J216878D01*
G01*
X41076947Y-42304794D02*
G75*
G03*
X40824689Y-42236495I-252261J-431710D01*
G01*
%TO.C,D28*%
X41730235Y-58457337D02*
X41730235Y-57051653D01*
X40824688Y-56254496D02*
X39235783Y-56254496D01*
X39235784Y-59254495D02*
X40824688Y-59254495D01*
X38330237Y-57051653D02*
X38330237Y-58457337D01*
X41779720Y-56834775D02*
G75*
G03*
X41076947Y-56186196I-450515J216878D01*
G01*
X41076946Y-59322794D02*
G75*
G03*
X40824688Y-59254495I-252261J-431710D01*
G01*
X38280752Y-58674214D02*
G75*
G03*
X38983525Y-59322794I450515J-216879D01*
G01*
X40824689Y-56254495D02*
G75*
G03*
X41076947Y-56186196I5J499982D01*
G01*
X41076947Y-59322792D02*
G75*
G03*
X41779720Y-58674215I252258J431700D01*
G01*
X38983525Y-56186198D02*
G75*
G03*
X38280752Y-56834775I-252258J-431700D01*
G01*
X41730235Y-58457338D02*
G75*
G03*
X41779720Y-58674215I499990J-1D01*
G01*
X41779720Y-56834775D02*
G75*
G03*
X41730235Y-57051653I450505J-216876D01*
G01*
X39235784Y-59254495D02*
G75*
G03*
X38983525Y-59322794I-6J-499982D01*
G01*
X38280752Y-58674215D02*
G75*
G03*
X38330237Y-58457337I-450505J216876D01*
G01*
X38330237Y-57051652D02*
G75*
G03*
X38280752Y-56834775I-499990J1D01*
G01*
X38983525Y-56186197D02*
G75*
G03*
X39235783Y-56254496I252261J431710D01*
G01*
%TO.C,D32*%
X75235784Y-40712496D02*
X76824688Y-40712496D01*
X77730235Y-39915338D02*
X77730235Y-38509654D01*
X74330237Y-38509654D02*
X74330237Y-39915338D01*
X76824688Y-37712497D02*
X75235783Y-37712497D01*
X74280752Y-40132216D02*
G75*
G03*
X74330237Y-39915338I-450505J216876D01*
G01*
X77730235Y-39915339D02*
G75*
G03*
X77779720Y-40132216I499990J-1D01*
G01*
X75235784Y-40712496D02*
G75*
G03*
X74983525Y-40780795I-6J-499982D01*
G01*
X77779720Y-38292776D02*
G75*
G03*
X77076947Y-37644197I-450515J216878D01*
G01*
X76824689Y-37712496D02*
G75*
G03*
X77076947Y-37644197I5J499982D01*
G01*
X77076947Y-40780793D02*
G75*
G03*
X77779720Y-40132216I252258J431700D01*
G01*
X74280752Y-40132215D02*
G75*
G03*
X74983525Y-40780795I450515J-216879D01*
G01*
X74330237Y-38509653D02*
G75*
G03*
X74280752Y-38292776I-499990J1D01*
G01*
X74983525Y-37644198D02*
G75*
G03*
X75235783Y-37712497I252261J431710D01*
G01*
X77076946Y-40780795D02*
G75*
G03*
X76824688Y-40712496I-252261J-431710D01*
G01*
X77779720Y-38292776D02*
G75*
G03*
X77730235Y-38509654I450505J-216876D01*
G01*
X74983525Y-37644199D02*
G75*
G03*
X74280752Y-38292776I-252258J-431700D01*
G01*
%TO.C,D21*%
X95730234Y-25465337D02*
X95730234Y-24059653D01*
X92330236Y-24059653D02*
X92330236Y-25465337D01*
X93235783Y-26262495D02*
X94824687Y-26262495D01*
X94824687Y-23262496D02*
X93235782Y-23262496D01*
X92280751Y-25682214D02*
G75*
G03*
X92983524Y-26330794I450515J-216879D01*
G01*
X95730234Y-25465338D02*
G75*
G03*
X95779719Y-25682215I499990J-1D01*
G01*
X92983524Y-23194197D02*
G75*
G03*
X93235782Y-23262496I252261J431710D01*
G01*
X95779719Y-23842775D02*
G75*
G03*
X95730234Y-24059653I450505J-216876D01*
G01*
X94824688Y-23262495D02*
G75*
G03*
X95076946Y-23194196I5J499982D01*
G01*
X95779719Y-23842775D02*
G75*
G03*
X95076946Y-23194196I-450515J216878D01*
G01*
X92330236Y-24059652D02*
G75*
G03*
X92280751Y-23842775I-499990J1D01*
G01*
X92280751Y-25682215D02*
G75*
G03*
X92330236Y-25465337I-450505J216876D01*
G01*
X93235783Y-26262495D02*
G75*
G03*
X92983524Y-26330794I-6J-499982D01*
G01*
X95076946Y-26330792D02*
G75*
G03*
X95779719Y-25682215I252258J431700D01*
G01*
X92983524Y-23194198D02*
G75*
G03*
X92280751Y-23842775I-252258J-431700D01*
G01*
X95076945Y-26330794D02*
G75*
G03*
X94824687Y-26262495I-252261J-431710D01*
G01*
%TO.C,D19*%
X21235784Y-37262495D02*
X22824688Y-37262495D01*
X20330237Y-35059653D02*
X20330237Y-36465337D01*
X23730235Y-36465337D02*
X23730235Y-35059653D01*
X22824688Y-34262496D02*
X21235783Y-34262496D01*
X23076947Y-37330792D02*
G75*
G03*
X23779720Y-36682215I252258J431700D01*
G01*
X23779720Y-34842775D02*
G75*
G03*
X23730235Y-35059653I450505J-216876D01*
G01*
X23730235Y-36465338D02*
G75*
G03*
X23779720Y-36682215I499990J-1D01*
G01*
X20983525Y-34194197D02*
G75*
G03*
X21235783Y-34262496I252261J431710D01*
G01*
X22824689Y-34262495D02*
G75*
G03*
X23076947Y-34194196I5J499982D01*
G01*
X20280752Y-36682215D02*
G75*
G03*
X20330237Y-36465337I-450505J216876D01*
G01*
X20983525Y-34194198D02*
G75*
G03*
X20280752Y-34842775I-252258J-431700D01*
G01*
X20330237Y-35059652D02*
G75*
G03*
X20280752Y-34842775I-499990J1D01*
G01*
X20280752Y-36682214D02*
G75*
G03*
X20983525Y-37330794I450515J-216879D01*
G01*
X23779720Y-34842775D02*
G75*
G03*
X23076947Y-34194196I-450515J216878D01*
G01*
X23076946Y-37330794D02*
G75*
G03*
X22824688Y-37262495I-252261J-431710D01*
G01*
X21235784Y-37262495D02*
G75*
G03*
X20983525Y-37330794I-6J-499982D01*
G01*
%TO.C,D23*%
X57235784Y-35378495D02*
X58824688Y-35378495D01*
X56330237Y-33175653D02*
X56330237Y-34581337D01*
X58824688Y-32378496D02*
X57235783Y-32378496D01*
X59730235Y-34581337D02*
X59730235Y-33175653D01*
X59779720Y-32958775D02*
G75*
G03*
X59730235Y-33175653I450505J-216876D01*
G01*
X59076947Y-35446792D02*
G75*
G03*
X59779720Y-34798215I252258J431700D01*
G01*
X59730235Y-34581338D02*
G75*
G03*
X59779720Y-34798215I499990J-1D01*
G01*
X58824689Y-32378495D02*
G75*
G03*
X59076947Y-32310196I5J499982D01*
G01*
X59076946Y-35446794D02*
G75*
G03*
X58824688Y-35378495I-252261J-431710D01*
G01*
X59779720Y-32958775D02*
G75*
G03*
X59076947Y-32310196I-450515J216878D01*
G01*
X56983525Y-32310198D02*
G75*
G03*
X56280752Y-32958775I-252258J-431700D01*
G01*
X56330237Y-33175652D02*
G75*
G03*
X56280752Y-32958775I-499990J1D01*
G01*
X56983525Y-32310197D02*
G75*
G03*
X57235783Y-32378496I252261J431710D01*
G01*
X56280752Y-34798214D02*
G75*
G03*
X56983525Y-35446794I450515J-216879D01*
G01*
X57235784Y-35378495D02*
G75*
G03*
X56983525Y-35446794I-6J-499982D01*
G01*
X56280752Y-34798215D02*
G75*
G03*
X56330237Y-34581337I-450505J216876D01*
G01*
%TO.C,D22*%
X20330237Y-52109653D02*
X20330237Y-53515337D01*
X23730235Y-53515337D02*
X23730235Y-52109653D01*
X21235784Y-54312495D02*
X22824688Y-54312495D01*
X22824688Y-51312496D02*
X21235783Y-51312496D01*
X22824689Y-51312495D02*
G75*
G03*
X23076947Y-51244196I5J499982D01*
G01*
X23076946Y-54380794D02*
G75*
G03*
X22824688Y-54312495I-252261J-431710D01*
G01*
X21235784Y-54312495D02*
G75*
G03*
X20983525Y-54380794I-6J-499982D01*
G01*
X23076947Y-54380792D02*
G75*
G03*
X23779720Y-53732215I252258J431700D01*
G01*
X20280752Y-53732215D02*
G75*
G03*
X20330237Y-53515337I-450505J216876D01*
G01*
X20280752Y-53732214D02*
G75*
G03*
X20983525Y-54380794I450515J-216879D01*
G01*
X20983525Y-51244198D02*
G75*
G03*
X20280752Y-51892775I-252258J-431700D01*
G01*
X23779720Y-51892775D02*
G75*
G03*
X23076947Y-51244196I-450515J216878D01*
G01*
X23779720Y-51892775D02*
G75*
G03*
X23730235Y-52109653I450505J-216876D01*
G01*
X20983525Y-51244197D02*
G75*
G03*
X21235783Y-51312496I252261J431710D01*
G01*
X23730235Y-53515338D02*
G75*
G03*
X23779720Y-53732215I499990J-1D01*
G01*
X20330237Y-52109652D02*
G75*
G03*
X20280752Y-51892775I-499990J1D01*
G01*
%TO.C,D35*%
X74330238Y-21559653D02*
X74330238Y-22965337D01*
X75235785Y-23762495D02*
X76824689Y-23762495D01*
X76824689Y-20762496D02*
X75235784Y-20762496D01*
X77730236Y-22965337D02*
X77730236Y-21559653D01*
X77779721Y-21342775D02*
G75*
G03*
X77730236Y-21559653I450505J-216876D01*
G01*
X74983526Y-20694197D02*
G75*
G03*
X75235784Y-20762496I252261J431710D01*
G01*
X74280753Y-23182215D02*
G75*
G03*
X74330238Y-22965337I-450505J216876D01*
G01*
X77076947Y-23830794D02*
G75*
G03*
X76824689Y-23762495I-252261J-431710D01*
G01*
X77730236Y-22965338D02*
G75*
G03*
X77779721Y-23182215I499990J-1D01*
G01*
X77076948Y-23830792D02*
G75*
G03*
X77779721Y-23182215I252258J431700D01*
G01*
X74330238Y-21559652D02*
G75*
G03*
X74280753Y-21342775I-499990J1D01*
G01*
X77779721Y-21342775D02*
G75*
G03*
X77076948Y-20694196I-450515J216878D01*
G01*
X75235785Y-23762495D02*
G75*
G03*
X74983526Y-23830794I-6J-499982D01*
G01*
X76824690Y-20762495D02*
G75*
G03*
X77076948Y-20694196I5J499982D01*
G01*
X74983526Y-20694198D02*
G75*
G03*
X74280753Y-21342775I-252258J-431700D01*
G01*
X74280753Y-23182214D02*
G75*
G03*
X74983526Y-23830794I450515J-216879D01*
G01*
%TO.C,D25*%
X23730236Y-70465337D02*
X23730236Y-69059653D01*
X20330238Y-69059653D02*
X20330238Y-70465337D01*
X21235785Y-71262495D02*
X22824689Y-71262495D01*
X22824689Y-68262496D02*
X21235784Y-68262496D01*
X23076948Y-71330792D02*
G75*
G03*
X23779721Y-70682215I252258J431700D01*
G01*
X20330238Y-69059652D02*
G75*
G03*
X20280753Y-68842775I-499990J1D01*
G01*
X23076947Y-71330794D02*
G75*
G03*
X22824689Y-71262495I-252261J-431710D01*
G01*
X23779721Y-68842775D02*
G75*
G03*
X23076948Y-68194196I-450515J216878D01*
G01*
X23779721Y-68842775D02*
G75*
G03*
X23730236Y-69059653I450505J-216876D01*
G01*
X20983526Y-68194198D02*
G75*
G03*
X20280753Y-68842775I-252258J-431700D01*
G01*
X22824690Y-68262495D02*
G75*
G03*
X23076948Y-68194196I5J499982D01*
G01*
X21235785Y-71262495D02*
G75*
G03*
X20983526Y-71330794I-6J-499982D01*
G01*
X23730236Y-70465338D02*
G75*
G03*
X23779721Y-70682215I499990J-1D01*
G01*
X20280753Y-70682215D02*
G75*
G03*
X20330238Y-70465337I-450505J216876D01*
G01*
X20280753Y-70682214D02*
G75*
G03*
X20983526Y-71330794I450515J-216879D01*
G01*
X20983526Y-68194197D02*
G75*
G03*
X21235784Y-68262496I252261J431710D01*
G01*
%TO.C,D24*%
X95710235Y-42455338D02*
X95710235Y-41049654D01*
X93215784Y-43252496D02*
X94804688Y-43252496D01*
X94804688Y-40252497D02*
X93215783Y-40252497D01*
X92310237Y-41049654D02*
X92310237Y-42455338D01*
X95710235Y-42455339D02*
G75*
G03*
X95759720Y-42672216I499990J-1D01*
G01*
X92260752Y-42672216D02*
G75*
G03*
X92310237Y-42455338I-450505J216876D01*
G01*
X92310237Y-41049653D02*
G75*
G03*
X92260752Y-40832776I-499990J1D01*
G01*
X92963525Y-40184199D02*
G75*
G03*
X92260752Y-40832776I-252258J-431700D01*
G01*
X92260752Y-42672215D02*
G75*
G03*
X92963525Y-43320795I450515J-216879D01*
G01*
X92963525Y-40184198D02*
G75*
G03*
X93215783Y-40252497I252261J431710D01*
G01*
X95759720Y-40832776D02*
G75*
G03*
X95056947Y-40184197I-450515J216878D01*
G01*
X95056947Y-43320793D02*
G75*
G03*
X95759720Y-42672216I252258J431700D01*
G01*
X95759720Y-40832776D02*
G75*
G03*
X95710235Y-41049654I450505J-216876D01*
G01*
X94804689Y-40252496D02*
G75*
G03*
X95056947Y-40184197I5J499982D01*
G01*
X95056946Y-43320795D02*
G75*
G03*
X94804688Y-43252496I-252261J-431710D01*
G01*
X93215784Y-43252496D02*
G75*
G03*
X92963525Y-43320795I-6J-499982D01*
G01*
%TO.C,D30*%
X77155261Y-75930157D02*
X77277775Y-74529822D01*
X76445151Y-73656775D02*
X74862292Y-73518293D01*
X73890715Y-74233493D02*
X73768201Y-75633828D01*
X74600826Y-76506876D02*
X76183683Y-76645358D01*
X76429030Y-76735381D02*
G75*
G03*
X77185656Y-76150523I288923J408072D01*
G01*
X77345974Y-74318082D02*
G75*
G03*
X77277775Y-74529822I429888J-255315D01*
G01*
X73890714Y-74233492D02*
G75*
G03*
X73860320Y-74013127I-498086J43578D01*
G01*
X73700003Y-75845567D02*
G75*
G03*
X74343574Y-76552929I429898J-255318D01*
G01*
X73700002Y-75845567D02*
G75*
G03*
X73768201Y-75633828I-429888J255314D01*
G01*
X76429029Y-76735383D02*
G75*
G03*
X76183683Y-76645358I-288925J-408073D01*
G01*
X74600826Y-76506876D02*
G75*
G03*
X74343574Y-76552929I-43583J-498079D01*
G01*
X76445152Y-73656774D02*
G75*
G03*
X76702402Y-73610721I43577J498098D01*
G01*
X74616946Y-73428268D02*
G75*
G03*
X74862292Y-73518293I288927J408081D01*
G01*
X74616946Y-73428267D02*
G75*
G03*
X73860320Y-74013127I-288923J-408073D01*
G01*
X77345974Y-74318082D02*
G75*
G03*
X76702402Y-73610721I-429899J255317D01*
G01*
X77155262Y-75930158D02*
G75*
G03*
X77185656Y-76150523I498087J-43578D01*
G01*
%TO.C,D29*%
X77730235Y-56933338D02*
X77730235Y-55527654D01*
X74330237Y-55527654D02*
X74330237Y-56933338D01*
X76824688Y-54730497D02*
X75235783Y-54730497D01*
X75235784Y-57730496D02*
X76824688Y-57730496D01*
X77076947Y-57798793D02*
G75*
G03*
X77779720Y-57150216I252258J431700D01*
G01*
X74280752Y-57150215D02*
G75*
G03*
X74983525Y-57798795I450515J-216879D01*
G01*
X77779720Y-55310776D02*
G75*
G03*
X77076947Y-54662197I-450515J216878D01*
G01*
X77730235Y-56933339D02*
G75*
G03*
X77779720Y-57150216I499990J-1D01*
G01*
X74983525Y-54662199D02*
G75*
G03*
X74280752Y-55310776I-252258J-431700D01*
G01*
X77779720Y-55310776D02*
G75*
G03*
X77730235Y-55527654I450505J-216876D01*
G01*
X77076946Y-57798795D02*
G75*
G03*
X76824688Y-57730496I-252261J-431710D01*
G01*
X74280752Y-57150216D02*
G75*
G03*
X74330237Y-56933338I-450505J216876D01*
G01*
X74330237Y-55527653D02*
G75*
G03*
X74280752Y-55310776I-499990J1D01*
G01*
X76824689Y-54730496D02*
G75*
G03*
X77076947Y-54662197I5J499982D01*
G01*
X75235784Y-57730496D02*
G75*
G03*
X74983525Y-57798795I-6J-499982D01*
G01*
X74983525Y-54662198D02*
G75*
G03*
X75235783Y-54730497I252261J431710D01*
G01*
%TO.C,D33*%
X94184873Y-77516705D02*
X93821055Y-78874492D01*
X96800647Y-77392322D02*
X95265882Y-76981083D01*
X97105201Y-79754476D02*
X97469019Y-78396690D01*
X94489426Y-79878860D02*
X96024190Y-80290099D01*
X93717124Y-79071171D02*
G75*
G03*
X94228086Y-79879543I379032J-326091D01*
G01*
X95039898Y-76849822D02*
G75*
G03*
X94193206Y-77294410I-355396J-351702D01*
G01*
X96250178Y-80421357D02*
G75*
G03*
X97096867Y-79976772I355394J351700D01*
G01*
X96250175Y-80421360D02*
G75*
G03*
X96024190Y-80290099I-355400J-351710D01*
G01*
X97572950Y-78200009D02*
G75*
G03*
X97061988Y-77391639I-379032J326090D01*
G01*
X94184873Y-77516704D02*
G75*
G03*
X94193206Y-77294410I-482983J129408D01*
G01*
X96800648Y-77392321D02*
G75*
G03*
X97061988Y-77391639I129410J482944D01*
G01*
X97105200Y-79754477D02*
G75*
G03*
X97096867Y-79976772I482954J-129408D01*
G01*
X95039898Y-76849822D02*
G75*
G03*
X95265882Y-76981083I355399J351709D01*
G01*
X94489426Y-79878861D02*
G75*
G03*
X94228086Y-79879543I-129410J-482943D01*
G01*
X97572951Y-78200009D02*
G75*
G03*
X97469019Y-78396690I379021J-326086D01*
G01*
X93717124Y-79071172D02*
G75*
G03*
X93821055Y-78874492I-379023J326085D01*
G01*
%TO.C,D20*%
X56330237Y-16059653D02*
X56330237Y-17465337D01*
X58824688Y-15262496D02*
X57235783Y-15262496D01*
X59730235Y-17465337D02*
X59730235Y-16059653D01*
X57235784Y-18262495D02*
X58824688Y-18262495D01*
X59076947Y-18330792D02*
G75*
G03*
X59779720Y-17682215I252258J431700D01*
G01*
X59779720Y-15842775D02*
G75*
G03*
X59730235Y-16059653I450505J-216876D01*
G01*
X57235784Y-18262495D02*
G75*
G03*
X56983525Y-18330794I-6J-499982D01*
G01*
X59779720Y-15842775D02*
G75*
G03*
X59076947Y-15194196I-450515J216878D01*
G01*
X56280752Y-17682214D02*
G75*
G03*
X56983525Y-18330794I450515J-216879D01*
G01*
X59730235Y-17465338D02*
G75*
G03*
X59779720Y-17682215I499990J-1D01*
G01*
X56983525Y-15194198D02*
G75*
G03*
X56280752Y-15842775I-252258J-431700D01*
G01*
X59076946Y-18330794D02*
G75*
G03*
X58824688Y-18262495I-252261J-431710D01*
G01*
X56280752Y-17682215D02*
G75*
G03*
X56330237Y-17465337I-450505J216876D01*
G01*
X56330237Y-16059652D02*
G75*
G03*
X56280752Y-15842775I-499990J1D01*
G01*
X58824689Y-15262495D02*
G75*
G03*
X59076947Y-15194196I5J499982D01*
G01*
X56983525Y-15194197D02*
G75*
G03*
X57235783Y-15262496I252261J431710D01*
G01*
%TO.C,D36*%
X113523192Y-86662162D02*
X114963228Y-87333662D01*
X113633449Y-84283009D02*
X113039382Y-85556991D01*
X116120826Y-86993892D02*
X116714894Y-85719910D01*
X116231083Y-84614740D02*
X114791046Y-83943239D01*
X114591287Y-83774731D02*
G75*
G03*
X114791046Y-83943239I411074J284652D01*
G01*
X116851399Y-85544265D02*
G75*
G03*
X116714894Y-85719910I316641J-386948D01*
G01*
X114591287Y-83774731D02*
G75*
G03*
X113680257Y-84065537I-411068J-284645D01*
G01*
X113633449Y-84283008D02*
G75*
G03*
X113680257Y-84065537I-453144J211306D01*
G01*
X116120826Y-86993893D02*
G75*
G03*
X116074018Y-87211364I453144J-211306D01*
G01*
X112902877Y-85732635D02*
G75*
G03*
X113265704Y-86617453I316648J-386955D01*
G01*
X115162987Y-87502171D02*
G75*
G03*
X114963228Y-87333662I-411074J-284652D01*
G01*
X113523192Y-86662162D02*
G75*
G03*
X113265704Y-86617453I-211311J-453163D01*
G01*
X115162989Y-87502169D02*
G75*
G03*
X116074018Y-87211364I411068J284644D01*
G01*
X112902876Y-85732636D02*
G75*
G03*
X113039382Y-85556991I-316640J386948D01*
G01*
X116851399Y-85544265D02*
G75*
G03*
X116488572Y-84659448I-316648J386954D01*
G01*
X116231084Y-84614738D02*
G75*
G03*
X116488572Y-84659448I211306J453134D01*
G01*
%TO.C,D27*%
X93215784Y-60270495D02*
X94804688Y-60270495D01*
X92310237Y-58067653D02*
X92310237Y-59473337D01*
X95710235Y-59473337D02*
X95710235Y-58067653D01*
X94804688Y-57270496D02*
X93215783Y-57270496D01*
X95759720Y-57850775D02*
G75*
G03*
X95710235Y-58067653I450505J-216876D01*
G01*
X92260752Y-59690214D02*
G75*
G03*
X92963525Y-60338794I450515J-216879D01*
G01*
X95759720Y-57850775D02*
G75*
G03*
X95056947Y-57202196I-450515J216878D01*
G01*
X92260752Y-59690215D02*
G75*
G03*
X92310237Y-59473337I-450505J216876D01*
G01*
X94804689Y-57270495D02*
G75*
G03*
X95056947Y-57202196I5J499982D01*
G01*
X92310237Y-58067652D02*
G75*
G03*
X92260752Y-57850775I-499990J1D01*
G01*
X95056947Y-60338792D02*
G75*
G03*
X95759720Y-59690215I252258J431700D01*
G01*
X95710235Y-59473338D02*
G75*
G03*
X95759720Y-59690215I499990J-1D01*
G01*
X93215784Y-60270495D02*
G75*
G03*
X92963525Y-60338794I-6J-499982D01*
G01*
X92963525Y-57202198D02*
G75*
G03*
X92260752Y-57850775I-252258J-431700D01*
G01*
X95056946Y-60338794D02*
G75*
G03*
X94804688Y-60270495I-252261J-431710D01*
G01*
X92963525Y-57202197D02*
G75*
G03*
X93215783Y-57270496I252261J431710D01*
G01*
%TD*%
M02*
