%TF.GenerationSoftware,KiCad,Pcbnew,(6.0.0)*%
%TF.CreationDate,2022-06-16T08:24:19-07:00*%
%TF.ProjectId,half-swept,68616c66-2d73-4776-9570-742e6b696361,rev?*%
%TF.SameCoordinates,Original*%
%TF.FileFunction,Profile,NP*%
%FSLAX46Y46*%
G04 Gerber Fmt 4.6, Leading zero omitted, Abs format (unit mm)*
G04 Created by KiCad (PCBNEW (6.0.0)) date 2022-06-16 08:24:19*
%MOMM*%
%LPD*%
G01*
G04 APERTURE LIST*
%TA.AperFunction,Profile*%
%ADD10C,0.050000*%
%TD*%
%TA.AperFunction,Profile*%
%ADD11C,0.100000*%
%TD*%
G04 APERTURE END LIST*
D10*
X13973789Y-32009886D02*
X14013987Y-81278206D01*
X122525733Y-27416958D02*
G75*
G03*
X122163735Y-26613184I-1044783J12862D01*
G01*
X15400733Y-29996183D02*
G75*
G03*
X13973789Y-32009886I2445014J-3245008D01*
G01*
X122163735Y-26613184D02*
G75*
G03*
X69663734Y-12463183I-52476915J-90233334D01*
G01*
X115506911Y-101147388D02*
G75*
G03*
X16051734Y-83114303I-99965887J-268055225D01*
G01*
X14013985Y-81278206D02*
G75*
G03*
X16051734Y-83114303I1978000J146415D01*
G01*
X122525734Y-27416958D02*
X122525734Y-88113183D01*
X69663734Y-12463183D02*
G75*
G03*
X15400733Y-29996183I-1656756J-87608458D01*
G01*
X122413733Y-88613182D02*
G75*
G03*
X122525734Y-88113183I-1060056J499999D01*
G01*
X115506911Y-101147388D02*
G75*
G03*
X116713735Y-100813183I439902J757542D01*
G01*
X122413732Y-88613182D02*
X116713735Y-100813183D01*
D11*
%TO.C,D12*%
X76762526Y-77006070D02*
G75*
G03*
X76517179Y-76916045I-288927J-408081D01*
G01*
X74934322Y-76777562D02*
G75*
G03*
X74677071Y-76823616I-43576J-498108D01*
G01*
X74224210Y-74504180D02*
G75*
G03*
X74193816Y-74283814I-498086J43579D01*
G01*
X77679471Y-74588769D02*
G75*
G03*
X77035898Y-73881409I-429900J255316D01*
G01*
X77488758Y-76200844D02*
G75*
G03*
X77519152Y-76421210I498087J-43579D01*
G01*
X74033499Y-76116255D02*
G75*
G03*
X74101697Y-75904516I-429889J255315D01*
G01*
X74950442Y-73698953D02*
G75*
G03*
X74193816Y-74283814I-288923J-408073D01*
G01*
X74950442Y-73698954D02*
G75*
G03*
X75195788Y-73788979I288928J408081D01*
G01*
X74033499Y-76116255D02*
G75*
G03*
X74677070Y-76823614I429898J-255316D01*
G01*
X76762526Y-77006070D02*
G75*
G03*
X77519152Y-76421209I288923J408073D01*
G01*
X77679470Y-74588769D02*
G75*
G03*
X77611271Y-74800508I429880J-255312D01*
G01*
X76778648Y-73927462D02*
G75*
G03*
X77035898Y-73881409I43577J498098D01*
G01*
X77611271Y-74800509D02*
X77488757Y-76200844D01*
X76517179Y-76916045D02*
X74934322Y-76777563D01*
X75195789Y-73788980D02*
X76778648Y-73927462D01*
X74101697Y-75904515D02*
X74224211Y-74504180D01*
%TO.C,D16*%
X38614250Y-24952903D02*
G75*
G03*
X39317023Y-25601480I450515J-216877D01*
G01*
X39317023Y-22464884D02*
G75*
G03*
X39569281Y-22533183I252261J431710D01*
G01*
X41410445Y-25601482D02*
G75*
G03*
X41158186Y-25533183I-252261J-431710D01*
G01*
X42113217Y-23113463D02*
G75*
G03*
X41410445Y-22464885I-450514J216878D01*
G01*
X39317023Y-22464884D02*
G75*
G03*
X38614250Y-23113463I-252258J-431701D01*
G01*
X38663735Y-23330341D02*
G75*
G03*
X38614250Y-23113463I-499990J2D01*
G01*
X38614250Y-24952903D02*
G75*
G03*
X38663735Y-24736026I-450505J216876D01*
G01*
X42063733Y-24736025D02*
G75*
G03*
X42113218Y-24952903I499990J-2D01*
G01*
X41158187Y-22533184D02*
G75*
G03*
X41410445Y-22464885I-3J500009D01*
G01*
X41410445Y-25601482D02*
G75*
G03*
X42113218Y-24952902I252259J431700D01*
G01*
X42113218Y-23113463D02*
G75*
G03*
X42063733Y-23330340I450505J-216876D01*
G01*
X39569282Y-25533183D02*
G75*
G03*
X39317024Y-25601482I3J-500009D01*
G01*
X41158186Y-25533183D02*
X39569282Y-25533183D01*
X39569282Y-22533184D02*
X41158187Y-22533184D01*
X42063733Y-23330341D02*
X42063733Y-24736025D01*
X38663735Y-24736025D02*
X38663735Y-23330341D01*
%TO.C,D8*%
X56663733Y-50464340D02*
G75*
G03*
X56614248Y-50247462I-499990J2D01*
G01*
X59410443Y-52735481D02*
G75*
G03*
X59158184Y-52667182I-252261J-431710D01*
G01*
X60113216Y-50247462D02*
G75*
G03*
X60063731Y-50464339I450505J-216876D01*
G01*
X59158185Y-49667183D02*
G75*
G03*
X59410443Y-49598884I-3J500009D01*
G01*
X57317021Y-49598883D02*
G75*
G03*
X57569279Y-49667182I252261J431710D01*
G01*
X60063731Y-51870024D02*
G75*
G03*
X60113216Y-52086902I499990J-2D01*
G01*
X57317021Y-49598883D02*
G75*
G03*
X56614248Y-50247462I-252258J-431701D01*
G01*
X56614248Y-52086902D02*
G75*
G03*
X56663733Y-51870025I-450505J216876D01*
G01*
X56614248Y-52086902D02*
G75*
G03*
X57317021Y-52735479I450515J-216877D01*
G01*
X57569280Y-52667182D02*
G75*
G03*
X57317022Y-52735481I3J-500009D01*
G01*
X60113215Y-50247462D02*
G75*
G03*
X59410443Y-49598884I-450514J216878D01*
G01*
X59410443Y-52735481D02*
G75*
G03*
X60113216Y-52086901I252259J431700D01*
G01*
X59158184Y-52667182D02*
X57569280Y-52667182D01*
X57569280Y-49667183D02*
X59158185Y-49667183D01*
X60063731Y-50464340D02*
X60063731Y-51870024D01*
X56663733Y-51870024D02*
X56663733Y-50464340D01*
%TO.C,D2*%
X56663734Y-16330341D02*
G75*
G03*
X56614249Y-16113463I-499990J2D01*
G01*
X60063732Y-17736025D02*
G75*
G03*
X60113217Y-17952903I499990J-2D01*
G01*
X57569281Y-18533183D02*
G75*
G03*
X57317023Y-18601482I3J-500009D01*
G01*
X56614249Y-17952903D02*
G75*
G03*
X56663734Y-17736026I-450505J216876D01*
G01*
X60113217Y-16113463D02*
G75*
G03*
X60063732Y-16330340I450505J-216876D01*
G01*
X57317022Y-15464884D02*
G75*
G03*
X56614249Y-16113463I-252258J-431701D01*
G01*
X59158186Y-15533184D02*
G75*
G03*
X59410444Y-15464885I-3J500009D01*
G01*
X59410444Y-18601482D02*
G75*
G03*
X59158185Y-18533183I-252261J-431710D01*
G01*
X57317022Y-15464884D02*
G75*
G03*
X57569280Y-15533183I252261J431710D01*
G01*
X59410444Y-18601482D02*
G75*
G03*
X60113217Y-17952902I252259J431700D01*
G01*
X60113216Y-16113463D02*
G75*
G03*
X59410444Y-15464885I-450514J216878D01*
G01*
X56614249Y-17952903D02*
G75*
G03*
X57317022Y-18601480I450515J-216877D01*
G01*
X57569281Y-15533184D02*
X59158186Y-15533184D01*
X59158185Y-18533183D02*
X57569281Y-18533183D01*
X60063732Y-16330341D02*
X60063732Y-17736025D01*
X56663734Y-17736025D02*
X56663734Y-16330341D01*
%TO.C,D15*%
X97438697Y-80025164D02*
G75*
G03*
X97430364Y-80247460I482954J-129409D01*
G01*
X96583673Y-80692048D02*
G75*
G03*
X97430365Y-80247459I355396J351701D01*
G01*
X94518370Y-77787393D02*
G75*
G03*
X94526703Y-77565098I-482953J129408D01*
G01*
X97906447Y-78470697D02*
G75*
G03*
X97395484Y-77662328I-379033J326089D01*
G01*
X97134145Y-77663010D02*
G75*
G03*
X97395484Y-77662328I129409J482964D01*
G01*
X95373395Y-77120509D02*
G75*
G03*
X95599380Y-77251770I355399J351709D01*
G01*
X96583673Y-80692048D02*
G75*
G03*
X96357687Y-80560787I-355404J-351716D01*
G01*
X97906447Y-78470697D02*
G75*
G03*
X97802516Y-78667377I379014J-326081D01*
G01*
X95373394Y-77120510D02*
G75*
G03*
X94526703Y-77565098I-355395J-351702D01*
G01*
X94050620Y-79341860D02*
G75*
G03*
X94561583Y-80150229I379033J-326089D01*
G01*
X94050621Y-79341860D02*
G75*
G03*
X94154552Y-79145181I-379023J326085D01*
G01*
X94822923Y-80149548D02*
G75*
G03*
X94561584Y-80150231I-129408J-482973D01*
G01*
X94154552Y-79145180D02*
X94518370Y-77787393D01*
X96357687Y-80560787D02*
X94822923Y-80149548D01*
X97802516Y-78667378D02*
X97438698Y-80025164D01*
X95599380Y-77251772D02*
X97134145Y-77663011D01*
%TO.C,D11*%
X75317023Y-54932885D02*
G75*
G03*
X75569281Y-55001184I252261J431710D01*
G01*
X78113217Y-55581464D02*
G75*
G03*
X77410445Y-54932886I-450514J216878D01*
G01*
X75317023Y-54932885D02*
G75*
G03*
X74614250Y-55581464I-252258J-431701D01*
G01*
X77158187Y-55001185D02*
G75*
G03*
X77410445Y-54932886I-3J500009D01*
G01*
X74614250Y-57420904D02*
G75*
G03*
X75317023Y-58069481I450515J-216877D01*
G01*
X74614250Y-57420904D02*
G75*
G03*
X74663735Y-57204027I-450505J216876D01*
G01*
X77410445Y-58069483D02*
G75*
G03*
X78113218Y-57420903I252259J431700D01*
G01*
X78113218Y-55581464D02*
G75*
G03*
X78063733Y-55798341I450505J-216876D01*
G01*
X78063733Y-57204026D02*
G75*
G03*
X78113218Y-57420904I499990J-2D01*
G01*
X77410445Y-58069483D02*
G75*
G03*
X77158186Y-58001184I-252261J-431710D01*
G01*
X74663735Y-55798342D02*
G75*
G03*
X74614250Y-55581464I-499990J2D01*
G01*
X75569282Y-58001184D02*
G75*
G03*
X75317024Y-58069483I3J-500009D01*
G01*
X77158186Y-58001184D02*
X75569282Y-58001184D01*
X78063733Y-55798342D02*
X78063733Y-57204026D01*
X75569282Y-55001185D02*
X77158187Y-55001185D01*
X74663735Y-57204026D02*
X74663735Y-55798342D01*
%TO.C,D14*%
X78063733Y-40186026D02*
G75*
G03*
X78113218Y-40402904I499990J-2D01*
G01*
X78113217Y-38563464D02*
G75*
G03*
X77410445Y-37914886I-450514J216878D01*
G01*
X78113218Y-38563464D02*
G75*
G03*
X78063733Y-38780341I450505J-216876D01*
G01*
X75569282Y-40983184D02*
G75*
G03*
X75317024Y-41051483I3J-500009D01*
G01*
X75317023Y-37914885D02*
G75*
G03*
X74614250Y-38563464I-252258J-431701D01*
G01*
X77410445Y-41051483D02*
G75*
G03*
X77158186Y-40983184I-252261J-431710D01*
G01*
X77410445Y-41051483D02*
G75*
G03*
X78113218Y-40402903I252259J431700D01*
G01*
X74663735Y-38780342D02*
G75*
G03*
X74614250Y-38563464I-499990J2D01*
G01*
X75317023Y-37914885D02*
G75*
G03*
X75569281Y-37983184I252261J431710D01*
G01*
X74614250Y-40402904D02*
G75*
G03*
X75317023Y-41051481I450515J-216877D01*
G01*
X74614250Y-40402904D02*
G75*
G03*
X74663735Y-40186027I-450505J216876D01*
G01*
X77158187Y-37983185D02*
G75*
G03*
X77410445Y-37914886I-3J500009D01*
G01*
X75569282Y-37983185D02*
X77158187Y-37983185D01*
X78063733Y-38780342D02*
X78063733Y-40186026D01*
X74663735Y-40186026D02*
X74663735Y-38780342D01*
X77158186Y-40983184D02*
X75569282Y-40983184D01*
%TO.C,D10*%
X42113217Y-57105462D02*
G75*
G03*
X41410445Y-56456884I-450514J216878D01*
G01*
X38663735Y-57322340D02*
G75*
G03*
X38614250Y-57105462I-499990J2D01*
G01*
X39317023Y-56456883D02*
G75*
G03*
X39569281Y-56525182I252261J431710D01*
G01*
X38614250Y-58944902D02*
G75*
G03*
X38663735Y-58728025I-450505J216876D01*
G01*
X39317023Y-56456883D02*
G75*
G03*
X38614250Y-57105462I-252258J-431701D01*
G01*
X42063733Y-58728024D02*
G75*
G03*
X42113218Y-58944902I499990J-2D01*
G01*
X38614250Y-58944902D02*
G75*
G03*
X39317023Y-59593479I450515J-216877D01*
G01*
X39569282Y-59525182D02*
G75*
G03*
X39317024Y-59593481I3J-500009D01*
G01*
X41158187Y-56525183D02*
G75*
G03*
X41410445Y-56456884I-3J500009D01*
G01*
X41410445Y-59593481D02*
G75*
G03*
X41158186Y-59525182I-252261J-431710D01*
G01*
X41410445Y-59593481D02*
G75*
G03*
X42113218Y-58944901I252259J431700D01*
G01*
X42113218Y-57105462D02*
G75*
G03*
X42063733Y-57322339I450505J-216876D01*
G01*
X42063733Y-57322340D02*
X42063733Y-58728024D01*
X38663735Y-58728024D02*
X38663735Y-57322340D01*
X41158186Y-59525182D02*
X39569282Y-59525182D01*
X39569282Y-56525183D02*
X41158187Y-56525183D01*
%TO.C,D1*%
X20614250Y-36952903D02*
G75*
G03*
X20663735Y-36736026I-450505J216876D01*
G01*
X20663735Y-35330341D02*
G75*
G03*
X20614250Y-35113463I-499990J2D01*
G01*
X21317023Y-34464884D02*
G75*
G03*
X21569281Y-34533183I252261J431710D01*
G01*
X24113218Y-35113463D02*
G75*
G03*
X24063733Y-35330340I450505J-216876D01*
G01*
X23410445Y-37601482D02*
G75*
G03*
X24113218Y-36952902I252259J431700D01*
G01*
X20614250Y-36952903D02*
G75*
G03*
X21317023Y-37601480I450515J-216877D01*
G01*
X24113217Y-35113463D02*
G75*
G03*
X23410445Y-34464885I-450514J216878D01*
G01*
X24063733Y-36736025D02*
G75*
G03*
X24113218Y-36952903I499990J-2D01*
G01*
X23410445Y-37601482D02*
G75*
G03*
X23158186Y-37533183I-252261J-431710D01*
G01*
X21569282Y-37533183D02*
G75*
G03*
X21317024Y-37601482I3J-500009D01*
G01*
X23158187Y-34533184D02*
G75*
G03*
X23410445Y-34464885I-3J500009D01*
G01*
X21317023Y-34464884D02*
G75*
G03*
X20614250Y-35113463I-252258J-431701D01*
G01*
X21569282Y-34533184D02*
X23158187Y-34533184D01*
X23158186Y-37533183D02*
X21569282Y-37533183D01*
X24063733Y-35330341D02*
X24063733Y-36736025D01*
X20663735Y-36736025D02*
X20663735Y-35330341D01*
%TO.C,D9*%
X95390445Y-60609482D02*
G75*
G03*
X96093218Y-59960902I252259J431700D01*
G01*
X96093218Y-58121463D02*
G75*
G03*
X96043733Y-58338340I450505J-216876D01*
G01*
X92643735Y-58338341D02*
G75*
G03*
X92594250Y-58121463I-499990J2D01*
G01*
X93297023Y-57472884D02*
G75*
G03*
X93549281Y-57541183I252261J431710D01*
G01*
X95138187Y-57541184D02*
G75*
G03*
X95390445Y-57472885I-3J500009D01*
G01*
X93549282Y-60541183D02*
G75*
G03*
X93297024Y-60609482I3J-500009D01*
G01*
X92594250Y-59960903D02*
G75*
G03*
X93297023Y-60609480I450515J-216877D01*
G01*
X96093217Y-58121463D02*
G75*
G03*
X95390445Y-57472885I-450514J216878D01*
G01*
X95390445Y-60609482D02*
G75*
G03*
X95138186Y-60541183I-252261J-431710D01*
G01*
X92594250Y-59960903D02*
G75*
G03*
X92643735Y-59744026I-450505J216876D01*
G01*
X96043733Y-59744025D02*
G75*
G03*
X96093218Y-59960903I499990J-2D01*
G01*
X93297023Y-57472884D02*
G75*
G03*
X92594250Y-58121463I-252258J-431701D01*
G01*
X96043733Y-58338341D02*
X96043733Y-59744025D01*
X95138186Y-60541183D02*
X93549282Y-60541183D01*
X92643735Y-59744025D02*
X92643735Y-58338341D01*
X93549282Y-57541184D02*
X95138187Y-57541184D01*
%TO.C,D17*%
X74614250Y-23452903D02*
G75*
G03*
X74663735Y-23236026I-450505J216876D01*
G01*
X78113217Y-21613463D02*
G75*
G03*
X77410445Y-20964885I-450514J216878D01*
G01*
X77158187Y-21033184D02*
G75*
G03*
X77410445Y-20964885I-3J500009D01*
G01*
X78063733Y-23236025D02*
G75*
G03*
X78113218Y-23452903I499990J-2D01*
G01*
X75569282Y-24033183D02*
G75*
G03*
X75317024Y-24101482I3J-500009D01*
G01*
X77410445Y-24101482D02*
G75*
G03*
X77158186Y-24033183I-252261J-431710D01*
G01*
X77410445Y-24101482D02*
G75*
G03*
X78113218Y-23452902I252259J431700D01*
G01*
X78113218Y-21613463D02*
G75*
G03*
X78063733Y-21830340I450505J-216876D01*
G01*
X74614250Y-23452903D02*
G75*
G03*
X75317023Y-24101480I450515J-216877D01*
G01*
X75317023Y-20964884D02*
G75*
G03*
X75569281Y-21033183I252261J431710D01*
G01*
X74663735Y-21830341D02*
G75*
G03*
X74614250Y-21613463I-499990J2D01*
G01*
X75317023Y-20964884D02*
G75*
G03*
X74614250Y-21613463I-252258J-431701D01*
G01*
X75569282Y-21033184D02*
X77158187Y-21033184D01*
X77158186Y-24033183D02*
X75569282Y-24033183D01*
X78063733Y-21830341D02*
X78063733Y-23236025D01*
X74663735Y-23236025D02*
X74663735Y-21830341D01*
%TO.C,D18*%
X118691489Y-94014029D02*
G75*
G03*
X118646780Y-94271516I453155J-211308D01*
G01*
X116312337Y-93903771D02*
G75*
G03*
X116094865Y-93856963I-211307J-453144D01*
G01*
X117761965Y-94634344D02*
G75*
G03*
X117586320Y-94497839I-386949J-316641D01*
G01*
X119531499Y-92374232D02*
G75*
G03*
X119240692Y-91463202I-284645J411068D01*
G01*
X117573593Y-90685821D02*
G75*
G03*
X117749237Y-90822326I386942J316633D01*
G01*
X119023220Y-91416394D02*
G75*
G03*
X119240692Y-91463202I211307J453144D01*
G01*
X119531500Y-92374233D02*
G75*
G03*
X119362991Y-92573991I284651J-411074D01*
G01*
X115804058Y-92945933D02*
G75*
G03*
X115972567Y-92746173I-284652J411074D01*
G01*
X117761964Y-94634344D02*
G75*
G03*
X118646780Y-94271516I386954J316648D01*
G01*
X115804058Y-92945933D02*
G75*
G03*
X116094866Y-93856964I284644J-411069D01*
G01*
X117573593Y-90685821D02*
G75*
G03*
X116688778Y-91048649I-386953J-316649D01*
G01*
X116644067Y-91306137D02*
G75*
G03*
X116688776Y-91048650I-453155J211308D01*
G01*
X115972567Y-92746173D02*
X116644067Y-91306137D01*
X119362989Y-92573992D02*
X118691489Y-94014029D01*
X117749238Y-90822327D02*
X119023220Y-91416394D01*
X117586319Y-94497839D02*
X116312337Y-93903771D01*
%TO.C,D4*%
X24063732Y-53786025D02*
G75*
G03*
X24113217Y-54002903I499990J-2D01*
G01*
X20614249Y-54002903D02*
G75*
G03*
X20663734Y-53786026I-450505J216876D01*
G01*
X20663734Y-52380341D02*
G75*
G03*
X20614249Y-52163463I-499990J2D01*
G01*
X23158186Y-51583184D02*
G75*
G03*
X23410444Y-51514885I-3J500009D01*
G01*
X20614249Y-54002903D02*
G75*
G03*
X21317022Y-54651480I450515J-216877D01*
G01*
X21569281Y-54583183D02*
G75*
G03*
X21317023Y-54651482I3J-500009D01*
G01*
X24113216Y-52163463D02*
G75*
G03*
X23410444Y-51514885I-450514J216878D01*
G01*
X21317022Y-51514884D02*
G75*
G03*
X20614249Y-52163463I-252258J-431701D01*
G01*
X24113217Y-52163463D02*
G75*
G03*
X24063732Y-52380340I450505J-216876D01*
G01*
X23410444Y-54651482D02*
G75*
G03*
X24113217Y-54002902I252259J431700D01*
G01*
X21317022Y-51514884D02*
G75*
G03*
X21569280Y-51583183I252261J431710D01*
G01*
X23410444Y-54651482D02*
G75*
G03*
X23158185Y-54583183I-252261J-431710D01*
G01*
X24063732Y-52380341D02*
X24063732Y-53786025D01*
X21569281Y-51583184D02*
X23158186Y-51583184D01*
X23158185Y-54583183D02*
X21569281Y-54583183D01*
X20663734Y-53786025D02*
X20663734Y-52380341D01*
%TO.C,D3*%
X93569281Y-26533183D02*
G75*
G03*
X93317023Y-26601482I3J-500009D01*
G01*
X92614249Y-25952903D02*
G75*
G03*
X92663734Y-25736026I-450505J216876D01*
G01*
X96113217Y-24113463D02*
G75*
G03*
X96063732Y-24330340I450505J-216876D01*
G01*
X95410444Y-26601482D02*
G75*
G03*
X96113217Y-25952902I252259J431700D01*
G01*
X96113216Y-24113463D02*
G75*
G03*
X95410444Y-23464885I-450514J216878D01*
G01*
X93317022Y-23464884D02*
G75*
G03*
X92614249Y-24113463I-252258J-431701D01*
G01*
X96063732Y-25736025D02*
G75*
G03*
X96113217Y-25952903I499990J-2D01*
G01*
X95158186Y-23533184D02*
G75*
G03*
X95410444Y-23464885I-3J500009D01*
G01*
X95410444Y-26601482D02*
G75*
G03*
X95158185Y-26533183I-252261J-431710D01*
G01*
X93317022Y-23464884D02*
G75*
G03*
X93569280Y-23533183I252261J431710D01*
G01*
X92614249Y-25952903D02*
G75*
G03*
X93317022Y-26601480I450515J-216877D01*
G01*
X92663734Y-24330341D02*
G75*
G03*
X92614249Y-24113463I-499990J2D01*
G01*
X92663734Y-25736025D02*
X92663734Y-24330341D01*
X95158185Y-26533183D02*
X93569281Y-26533183D01*
X96063732Y-24330341D02*
X96063732Y-25736025D01*
X93569281Y-23533184D02*
X95158186Y-23533184D01*
%TO.C,D7*%
X23158187Y-68533184D02*
G75*
G03*
X23410445Y-68464885I-3J500009D01*
G01*
X24063733Y-70736025D02*
G75*
G03*
X24113218Y-70952903I499990J-2D01*
G01*
X23410445Y-71601482D02*
G75*
G03*
X23158186Y-71533183I-252261J-431710D01*
G01*
X20614250Y-70952903D02*
G75*
G03*
X20663735Y-70736026I-450505J216876D01*
G01*
X24113217Y-69113463D02*
G75*
G03*
X23410445Y-68464885I-450514J216878D01*
G01*
X21317023Y-68464884D02*
G75*
G03*
X20614250Y-69113463I-252258J-431701D01*
G01*
X21317023Y-68464884D02*
G75*
G03*
X21569281Y-68533183I252261J431710D01*
G01*
X20614250Y-70952903D02*
G75*
G03*
X21317023Y-71601480I450515J-216877D01*
G01*
X24113218Y-69113463D02*
G75*
G03*
X24063733Y-69330340I450505J-216876D01*
G01*
X20663735Y-69330341D02*
G75*
G03*
X20614250Y-69113463I-499990J2D01*
G01*
X21569282Y-71533183D02*
G75*
G03*
X21317024Y-71601482I3J-500009D01*
G01*
X23410445Y-71601482D02*
G75*
G03*
X24113218Y-70952902I252259J431700D01*
G01*
X20663735Y-70736025D02*
X20663735Y-69330341D01*
X23158186Y-71533183D02*
X21569282Y-71533183D01*
X24063733Y-69330341D02*
X24063733Y-70736025D01*
X21569282Y-68533184D02*
X23158187Y-68533184D01*
%TO.C,D5*%
X57317023Y-32580884D02*
G75*
G03*
X56614250Y-33229463I-252258J-431701D01*
G01*
X60113217Y-33229463D02*
G75*
G03*
X59410445Y-32580885I-450514J216878D01*
G01*
X56614250Y-35068903D02*
G75*
G03*
X57317023Y-35717480I450515J-216877D01*
G01*
X60063733Y-34852025D02*
G75*
G03*
X60113218Y-35068903I499990J-2D01*
G01*
X60113218Y-33229463D02*
G75*
G03*
X60063733Y-33446340I450505J-216876D01*
G01*
X59410445Y-35717482D02*
G75*
G03*
X59158186Y-35649183I-252261J-431710D01*
G01*
X57569282Y-35649183D02*
G75*
G03*
X57317024Y-35717482I3J-500009D01*
G01*
X56614250Y-35068903D02*
G75*
G03*
X56663735Y-34852026I-450505J216876D01*
G01*
X59410445Y-35717482D02*
G75*
G03*
X60113218Y-35068902I252259J431700D01*
G01*
X57317023Y-32580884D02*
G75*
G03*
X57569281Y-32649183I252261J431710D01*
G01*
X59158187Y-32649184D02*
G75*
G03*
X59410445Y-32580885I-3J500009D01*
G01*
X56663735Y-33446341D02*
G75*
G03*
X56614250Y-33229463I-499990J2D01*
G01*
X57569282Y-32649184D02*
X59158187Y-32649184D01*
X59158186Y-35649183D02*
X57569282Y-35649183D01*
X60063733Y-33446341D02*
X60063733Y-34852025D01*
X56663735Y-34852025D02*
X56663735Y-33446341D01*
%TO.C,D6*%
X95390443Y-43591482D02*
G75*
G03*
X96093216Y-42942902I252259J431700D01*
G01*
X93297021Y-40454884D02*
G75*
G03*
X92594248Y-41103463I-252258J-431701D01*
G01*
X95138185Y-40523184D02*
G75*
G03*
X95390443Y-40454885I-3J500009D01*
G01*
X92594248Y-42942903D02*
G75*
G03*
X92643733Y-42726026I-450505J216876D01*
G01*
X93297021Y-40454884D02*
G75*
G03*
X93549279Y-40523183I252261J431710D01*
G01*
X92643733Y-41320341D02*
G75*
G03*
X92594248Y-41103463I-499990J2D01*
G01*
X96043731Y-42726025D02*
G75*
G03*
X96093216Y-42942903I499990J-2D01*
G01*
X96093215Y-41103463D02*
G75*
G03*
X95390443Y-40454885I-450514J216878D01*
G01*
X93549280Y-43523183D02*
G75*
G03*
X93297022Y-43591482I3J-500009D01*
G01*
X96093216Y-41103463D02*
G75*
G03*
X96043731Y-41320340I450505J-216876D01*
G01*
X92594248Y-42942903D02*
G75*
G03*
X93297021Y-43591480I450515J-216877D01*
G01*
X95390443Y-43591482D02*
G75*
G03*
X95138184Y-43523183I-252261J-431710D01*
G01*
X93549280Y-40523184D02*
X95138185Y-40523184D01*
X92643733Y-42726025D02*
X92643733Y-41320341D01*
X95138184Y-43523183D02*
X93549280Y-43523183D01*
X96043731Y-41320341D02*
X96043731Y-42726025D01*
%TO.C,D13*%
X39569282Y-42507183D02*
G75*
G03*
X39317024Y-42575482I3J-500009D01*
G01*
X38663735Y-40304341D02*
G75*
G03*
X38614250Y-40087463I-499990J2D01*
G01*
X42113218Y-40087463D02*
G75*
G03*
X42063733Y-40304340I450505J-216876D01*
G01*
X39317023Y-39438884D02*
G75*
G03*
X39569281Y-39507183I252261J431710D01*
G01*
X38614250Y-41926903D02*
G75*
G03*
X39317023Y-42575480I450515J-216877D01*
G01*
X41410445Y-42575482D02*
G75*
G03*
X41158186Y-42507183I-252261J-431710D01*
G01*
X42063733Y-41710025D02*
G75*
G03*
X42113218Y-41926903I499990J-2D01*
G01*
X39317023Y-39438884D02*
G75*
G03*
X38614250Y-40087463I-252258J-431701D01*
G01*
X38614250Y-41926903D02*
G75*
G03*
X38663735Y-41710026I-450505J216876D01*
G01*
X41158187Y-39507184D02*
G75*
G03*
X41410445Y-39438885I-3J500009D01*
G01*
X41410445Y-42575482D02*
G75*
G03*
X42113218Y-41926902I252259J431700D01*
G01*
X42113217Y-40087463D02*
G75*
G03*
X41410445Y-39438885I-450514J216878D01*
G01*
X39569282Y-39507184D02*
X41158187Y-39507184D01*
X38663735Y-41710025D02*
X38663735Y-40304341D01*
X41158186Y-42507183D02*
X39569282Y-42507183D01*
X42063733Y-40304341D02*
X42063733Y-41710025D01*
%TO.C,D34*%
X39569282Y-25533183D02*
G75*
G03*
X39317023Y-25601482I-6J-499982D01*
G01*
X38614249Y-24952901D02*
G75*
G03*
X39317023Y-25601482I450516J-216879D01*
G01*
X41410445Y-25601480D02*
G75*
G03*
X42113218Y-24952903I252258J431700D01*
G01*
X41410444Y-25601482D02*
G75*
G03*
X41158186Y-25533183I-252261J-431710D01*
G01*
X38663735Y-23330340D02*
G75*
G03*
X38614250Y-23113463I-499990J1D01*
G01*
X39317023Y-22464885D02*
G75*
G03*
X39569281Y-22533184I252261J431710D01*
G01*
X39317023Y-22464886D02*
G75*
G03*
X38614250Y-23113463I-252258J-431700D01*
G01*
X38614250Y-24952903D02*
G75*
G03*
X38663735Y-24736025I-450505J216876D01*
G01*
X42113218Y-23113463D02*
G75*
G03*
X41410445Y-22464884I-450515J216878D01*
G01*
X41158187Y-22533183D02*
G75*
G03*
X41410445Y-22464884I5J499982D01*
G01*
X42063733Y-24736026D02*
G75*
G03*
X42113218Y-24952903I499990J-1D01*
G01*
X42113218Y-23113463D02*
G75*
G03*
X42063733Y-23330341I450505J-216876D01*
G01*
X42063733Y-24736025D02*
X42063733Y-23330341D01*
X38663735Y-23330341D02*
X38663735Y-24736025D01*
X41158186Y-22533184D02*
X39569281Y-22533184D01*
X39569282Y-25533183D02*
X41158186Y-25533183D01*
%TO.C,D26*%
X60063731Y-51870025D02*
G75*
G03*
X60113216Y-52086902I499990J-1D01*
G01*
X57569280Y-52667182D02*
G75*
G03*
X57317021Y-52735481I-6J-499982D01*
G01*
X59158185Y-49667182D02*
G75*
G03*
X59410443Y-49598883I5J499982D01*
G01*
X56663733Y-50464339D02*
G75*
G03*
X56614248Y-50247462I-499990J1D01*
G01*
X59410442Y-52735481D02*
G75*
G03*
X59158184Y-52667182I-252261J-431710D01*
G01*
X57317021Y-49598885D02*
G75*
G03*
X56614248Y-50247462I-252258J-431700D01*
G01*
X60113216Y-50247462D02*
G75*
G03*
X60063731Y-50464340I450505J-216876D01*
G01*
X56614247Y-52086900D02*
G75*
G03*
X57317021Y-52735481I450516J-216879D01*
G01*
X57317021Y-49598884D02*
G75*
G03*
X57569279Y-49667183I252261J431710D01*
G01*
X56614248Y-52086902D02*
G75*
G03*
X56663733Y-51870024I-450505J216876D01*
G01*
X60113216Y-50247462D02*
G75*
G03*
X59410443Y-49598883I-450515J216878D01*
G01*
X59410443Y-52735479D02*
G75*
G03*
X60113216Y-52086902I252258J431700D01*
G01*
X59158184Y-49667183D02*
X57569279Y-49667183D01*
X57569280Y-52667182D02*
X59158184Y-52667182D01*
X56663733Y-50464340D02*
X56663733Y-51870024D01*
X60063731Y-51870024D02*
X60063731Y-50464340D01*
%TO.C,D31*%
X41410444Y-42575482D02*
G75*
G03*
X41158186Y-42507183I-252261J-431710D01*
G01*
X42113218Y-40087463D02*
G75*
G03*
X41410445Y-39438884I-450515J216878D01*
G01*
X38614250Y-41926903D02*
G75*
G03*
X38663735Y-41710025I-450505J216876D01*
G01*
X42063733Y-41710026D02*
G75*
G03*
X42113218Y-41926903I499990J-1D01*
G01*
X38663735Y-40304340D02*
G75*
G03*
X38614250Y-40087463I-499990J1D01*
G01*
X39317023Y-39438885D02*
G75*
G03*
X39569281Y-39507184I252261J431710D01*
G01*
X41410445Y-42575480D02*
G75*
G03*
X42113218Y-41926903I252258J431700D01*
G01*
X39317023Y-39438886D02*
G75*
G03*
X38614250Y-40087463I-252258J-431700D01*
G01*
X39569282Y-42507183D02*
G75*
G03*
X39317023Y-42575482I-6J-499982D01*
G01*
X38614249Y-41926901D02*
G75*
G03*
X39317023Y-42575482I450516J-216879D01*
G01*
X41158187Y-39507183D02*
G75*
G03*
X41410445Y-39438884I5J499982D01*
G01*
X42113218Y-40087463D02*
G75*
G03*
X42063733Y-40304341I450505J-216876D01*
G01*
X41158186Y-39507184D02*
X39569281Y-39507184D01*
X39569282Y-42507183D02*
X41158186Y-42507183D01*
X42063733Y-41710025D02*
X42063733Y-40304341D01*
X38663735Y-40304341D02*
X38663735Y-41710025D01*
%TO.C,D28*%
X39317023Y-56456884D02*
G75*
G03*
X39569281Y-56525183I252261J431710D01*
G01*
X38663735Y-57322339D02*
G75*
G03*
X38614250Y-57105462I-499990J1D01*
G01*
X38614250Y-58944902D02*
G75*
G03*
X38663735Y-58728024I-450505J216876D01*
G01*
X39569282Y-59525182D02*
G75*
G03*
X39317023Y-59593481I-6J-499982D01*
G01*
X42113218Y-57105462D02*
G75*
G03*
X42063733Y-57322340I450505J-216876D01*
G01*
X42063733Y-58728025D02*
G75*
G03*
X42113218Y-58944902I499990J-1D01*
G01*
X39317023Y-56456885D02*
G75*
G03*
X38614250Y-57105462I-252258J-431700D01*
G01*
X41410445Y-59593479D02*
G75*
G03*
X42113218Y-58944902I252258J431700D01*
G01*
X41158187Y-56525182D02*
G75*
G03*
X41410445Y-56456883I5J499982D01*
G01*
X38614249Y-58944900D02*
G75*
G03*
X39317023Y-59593481I450516J-216879D01*
G01*
X41410444Y-59593481D02*
G75*
G03*
X41158186Y-59525182I-252261J-431710D01*
G01*
X42113218Y-57105462D02*
G75*
G03*
X41410445Y-56456883I-450515J216878D01*
G01*
X38663735Y-57322340D02*
X38663735Y-58728024D01*
X39569282Y-59525182D02*
X41158186Y-59525182D01*
X41158186Y-56525183D02*
X39569281Y-56525183D01*
X42063733Y-58728024D02*
X42063733Y-57322340D01*
%TO.C,D32*%
X75317023Y-37914887D02*
G75*
G03*
X74614250Y-38563464I-252258J-431700D01*
G01*
X78113218Y-38563464D02*
G75*
G03*
X78063733Y-38780342I450505J-216876D01*
G01*
X77410444Y-41051483D02*
G75*
G03*
X77158186Y-40983184I-252261J-431710D01*
G01*
X75317023Y-37914886D02*
G75*
G03*
X75569281Y-37983185I252261J431710D01*
G01*
X74663735Y-38780341D02*
G75*
G03*
X74614250Y-38563464I-499990J1D01*
G01*
X74614249Y-40402902D02*
G75*
G03*
X75317023Y-41051483I450516J-216879D01*
G01*
X77410445Y-41051481D02*
G75*
G03*
X78113218Y-40402904I252258J431700D01*
G01*
X77158187Y-37983184D02*
G75*
G03*
X77410445Y-37914885I5J499982D01*
G01*
X78113218Y-38563464D02*
G75*
G03*
X77410445Y-37914885I-450515J216878D01*
G01*
X75569282Y-40983184D02*
G75*
G03*
X75317023Y-41051483I-6J-499982D01*
G01*
X78063733Y-40186027D02*
G75*
G03*
X78113218Y-40402904I499990J-1D01*
G01*
X74614250Y-40402904D02*
G75*
G03*
X74663735Y-40186026I-450505J216876D01*
G01*
X77158186Y-37983185D02*
X75569281Y-37983185D01*
X74663735Y-38780342D02*
X74663735Y-40186026D01*
X78063733Y-40186026D02*
X78063733Y-38780342D01*
X75569282Y-40983184D02*
X77158186Y-40983184D01*
%TO.C,D21*%
X95410443Y-26601482D02*
G75*
G03*
X95158185Y-26533183I-252261J-431710D01*
G01*
X93317022Y-23464886D02*
G75*
G03*
X92614249Y-24113463I-252258J-431700D01*
G01*
X95410444Y-26601480D02*
G75*
G03*
X96113217Y-25952903I252258J431700D01*
G01*
X93569281Y-26533183D02*
G75*
G03*
X93317022Y-26601482I-6J-499982D01*
G01*
X92614249Y-25952903D02*
G75*
G03*
X92663734Y-25736025I-450505J216876D01*
G01*
X92663734Y-24330340D02*
G75*
G03*
X92614249Y-24113463I-499990J1D01*
G01*
X96113217Y-24113463D02*
G75*
G03*
X95410444Y-23464884I-450515J216878D01*
G01*
X95158186Y-23533183D02*
G75*
G03*
X95410444Y-23464884I5J499982D01*
G01*
X96113217Y-24113463D02*
G75*
G03*
X96063732Y-24330341I450505J-216876D01*
G01*
X93317022Y-23464885D02*
G75*
G03*
X93569280Y-23533184I252261J431710D01*
G01*
X96063732Y-25736026D02*
G75*
G03*
X96113217Y-25952903I499990J-1D01*
G01*
X92614248Y-25952901D02*
G75*
G03*
X93317022Y-26601482I450516J-216879D01*
G01*
X95158185Y-23533184D02*
X93569280Y-23533184D01*
X93569281Y-26533183D02*
X95158185Y-26533183D01*
X92663734Y-24330341D02*
X92663734Y-25736025D01*
X96063732Y-25736025D02*
X96063732Y-24330341D01*
%TO.C,D19*%
X21569282Y-37533183D02*
G75*
G03*
X21317023Y-37601482I-6J-499982D01*
G01*
X23410444Y-37601482D02*
G75*
G03*
X23158186Y-37533183I-252261J-431710D01*
G01*
X24113218Y-35113463D02*
G75*
G03*
X23410445Y-34464884I-450515J216878D01*
G01*
X20614249Y-36952901D02*
G75*
G03*
X21317023Y-37601482I450516J-216879D01*
G01*
X20663735Y-35330340D02*
G75*
G03*
X20614250Y-35113463I-499990J1D01*
G01*
X21317023Y-34464886D02*
G75*
G03*
X20614250Y-35113463I-252258J-431700D01*
G01*
X20614250Y-36952903D02*
G75*
G03*
X20663735Y-36736025I-450505J216876D01*
G01*
X23158187Y-34533183D02*
G75*
G03*
X23410445Y-34464884I5J499982D01*
G01*
X21317023Y-34464885D02*
G75*
G03*
X21569281Y-34533184I252261J431710D01*
G01*
X24063733Y-36736026D02*
G75*
G03*
X24113218Y-36952903I499990J-1D01*
G01*
X24113218Y-35113463D02*
G75*
G03*
X24063733Y-35330341I450505J-216876D01*
G01*
X23410445Y-37601480D02*
G75*
G03*
X24113218Y-36952903I252258J431700D01*
G01*
X23158186Y-34533184D02*
X21569281Y-34533184D01*
X24063733Y-36736025D02*
X24063733Y-35330341D01*
X20663735Y-35330341D02*
X20663735Y-36736025D01*
X21569282Y-37533183D02*
X23158186Y-37533183D01*
%TO.C,D23*%
X56614250Y-35068903D02*
G75*
G03*
X56663735Y-34852025I-450505J216876D01*
G01*
X57569282Y-35649183D02*
G75*
G03*
X57317023Y-35717482I-6J-499982D01*
G01*
X56614249Y-35068901D02*
G75*
G03*
X57317023Y-35717482I450516J-216879D01*
G01*
X57317023Y-32580885D02*
G75*
G03*
X57569281Y-32649184I252261J431710D01*
G01*
X56663735Y-33446340D02*
G75*
G03*
X56614250Y-33229463I-499990J1D01*
G01*
X57317023Y-32580886D02*
G75*
G03*
X56614250Y-33229463I-252258J-431700D01*
G01*
X60113218Y-33229463D02*
G75*
G03*
X59410445Y-32580884I-450515J216878D01*
G01*
X59410444Y-35717482D02*
G75*
G03*
X59158186Y-35649183I-252261J-431710D01*
G01*
X59158187Y-32649183D02*
G75*
G03*
X59410445Y-32580884I5J499982D01*
G01*
X60063733Y-34852026D02*
G75*
G03*
X60113218Y-35068903I499990J-1D01*
G01*
X59410445Y-35717480D02*
G75*
G03*
X60113218Y-35068903I252258J431700D01*
G01*
X60113218Y-33229463D02*
G75*
G03*
X60063733Y-33446341I450505J-216876D01*
G01*
X60063733Y-34852025D02*
X60063733Y-33446341D01*
X59158186Y-32649184D02*
X57569281Y-32649184D01*
X56663735Y-33446341D02*
X56663735Y-34852025D01*
X57569282Y-35649183D02*
X59158186Y-35649183D01*
%TO.C,D22*%
X20663734Y-52380340D02*
G75*
G03*
X20614249Y-52163463I-499990J1D01*
G01*
X24063732Y-53786026D02*
G75*
G03*
X24113217Y-54002903I499990J-1D01*
G01*
X21317022Y-51514885D02*
G75*
G03*
X21569280Y-51583184I252261J431710D01*
G01*
X24113217Y-52163463D02*
G75*
G03*
X24063732Y-52380341I450505J-216876D01*
G01*
X24113217Y-52163463D02*
G75*
G03*
X23410444Y-51514884I-450515J216878D01*
G01*
X21317022Y-51514886D02*
G75*
G03*
X20614249Y-52163463I-252258J-431700D01*
G01*
X20614248Y-54002901D02*
G75*
G03*
X21317022Y-54651482I450516J-216879D01*
G01*
X20614249Y-54002903D02*
G75*
G03*
X20663734Y-53786025I-450505J216876D01*
G01*
X23410444Y-54651480D02*
G75*
G03*
X24113217Y-54002903I252258J431700D01*
G01*
X21569281Y-54583183D02*
G75*
G03*
X21317022Y-54651482I-6J-499982D01*
G01*
X23410443Y-54651482D02*
G75*
G03*
X23158185Y-54583183I-252261J-431710D01*
G01*
X23158186Y-51583183D02*
G75*
G03*
X23410444Y-51514884I5J499982D01*
G01*
X23158185Y-51583184D02*
X21569280Y-51583184D01*
X21569281Y-54583183D02*
X23158185Y-54583183D01*
X24063732Y-53786025D02*
X24063732Y-52380341D01*
X20663734Y-52380341D02*
X20663734Y-53786025D01*
%TO.C,D35*%
X74614249Y-23452901D02*
G75*
G03*
X75317023Y-24101482I450516J-216879D01*
G01*
X75317023Y-20964886D02*
G75*
G03*
X74614250Y-21613463I-252258J-431700D01*
G01*
X77158187Y-21033183D02*
G75*
G03*
X77410445Y-20964884I5J499982D01*
G01*
X75569282Y-24033183D02*
G75*
G03*
X75317023Y-24101482I-6J-499982D01*
G01*
X78113218Y-21613463D02*
G75*
G03*
X77410445Y-20964884I-450515J216878D01*
G01*
X74663735Y-21830340D02*
G75*
G03*
X74614250Y-21613463I-499990J1D01*
G01*
X77410445Y-24101480D02*
G75*
G03*
X78113218Y-23452903I252258J431700D01*
G01*
X78063733Y-23236026D02*
G75*
G03*
X78113218Y-23452903I499990J-1D01*
G01*
X77410444Y-24101482D02*
G75*
G03*
X77158186Y-24033183I-252261J-431710D01*
G01*
X74614250Y-23452903D02*
G75*
G03*
X74663735Y-23236025I-450505J216876D01*
G01*
X75317023Y-20964885D02*
G75*
G03*
X75569281Y-21033184I252261J431710D01*
G01*
X78113218Y-21613463D02*
G75*
G03*
X78063733Y-21830341I450505J-216876D01*
G01*
X78063733Y-23236025D02*
X78063733Y-21830341D01*
X77158186Y-21033184D02*
X75569281Y-21033184D01*
X75569282Y-24033183D02*
X77158186Y-24033183D01*
X74663735Y-21830341D02*
X74663735Y-23236025D01*
%TO.C,D25*%
X21317023Y-68464885D02*
G75*
G03*
X21569281Y-68533184I252261J431710D01*
G01*
X20614249Y-70952901D02*
G75*
G03*
X21317023Y-71601482I450516J-216879D01*
G01*
X20614250Y-70952903D02*
G75*
G03*
X20663735Y-70736025I-450505J216876D01*
G01*
X24063733Y-70736026D02*
G75*
G03*
X24113218Y-70952903I499990J-1D01*
G01*
X21569282Y-71533183D02*
G75*
G03*
X21317023Y-71601482I-6J-499982D01*
G01*
X23158187Y-68533183D02*
G75*
G03*
X23410445Y-68464884I5J499982D01*
G01*
X21317023Y-68464886D02*
G75*
G03*
X20614250Y-69113463I-252258J-431700D01*
G01*
X24113218Y-69113463D02*
G75*
G03*
X24063733Y-69330341I450505J-216876D01*
G01*
X24113218Y-69113463D02*
G75*
G03*
X23410445Y-68464884I-450515J216878D01*
G01*
X23410444Y-71601482D02*
G75*
G03*
X23158186Y-71533183I-252261J-431710D01*
G01*
X20663735Y-69330340D02*
G75*
G03*
X20614250Y-69113463I-499990J1D01*
G01*
X23410445Y-71601480D02*
G75*
G03*
X24113218Y-70952903I252258J431700D01*
G01*
X23158186Y-68533184D02*
X21569281Y-68533184D01*
X21569282Y-71533183D02*
X23158186Y-71533183D01*
X20663735Y-69330341D02*
X20663735Y-70736025D01*
X24063733Y-70736025D02*
X24063733Y-69330341D01*
%TO.C,D24*%
X93549280Y-43523183D02*
G75*
G03*
X93297021Y-43591482I-6J-499982D01*
G01*
X95390442Y-43591482D02*
G75*
G03*
X95138184Y-43523183I-252261J-431710D01*
G01*
X95138185Y-40523183D02*
G75*
G03*
X95390443Y-40454884I5J499982D01*
G01*
X96093216Y-41103463D02*
G75*
G03*
X96043731Y-41320341I450505J-216876D01*
G01*
X95390443Y-43591480D02*
G75*
G03*
X96093216Y-42942903I252258J431700D01*
G01*
X96093216Y-41103463D02*
G75*
G03*
X95390443Y-40454884I-450515J216878D01*
G01*
X93297021Y-40454885D02*
G75*
G03*
X93549279Y-40523184I252261J431710D01*
G01*
X92594247Y-42942901D02*
G75*
G03*
X93297021Y-43591482I450516J-216879D01*
G01*
X93297021Y-40454886D02*
G75*
G03*
X92594248Y-41103463I-252258J-431700D01*
G01*
X92643733Y-41320340D02*
G75*
G03*
X92594248Y-41103463I-499990J1D01*
G01*
X92594248Y-42942903D02*
G75*
G03*
X92643733Y-42726025I-450505J216876D01*
G01*
X96043731Y-42726026D02*
G75*
G03*
X96093216Y-42942903I499990J-1D01*
G01*
X92643733Y-41320341D02*
X92643733Y-42726025D01*
X95138184Y-40523184D02*
X93549279Y-40523184D01*
X93549280Y-43523183D02*
X95138184Y-43523183D01*
X96043731Y-42726025D02*
X96043731Y-41320341D01*
%TO.C,D30*%
X77488758Y-76200845D02*
G75*
G03*
X77519152Y-76421210I498087J-43578D01*
G01*
X77679470Y-74588769D02*
G75*
G03*
X77035898Y-73881408I-429899J255317D01*
G01*
X74950442Y-73698954D02*
G75*
G03*
X74193816Y-74283814I-288923J-408073D01*
G01*
X74950442Y-73698955D02*
G75*
G03*
X75195788Y-73788980I288927J408081D01*
G01*
X76778648Y-73927461D02*
G75*
G03*
X77035898Y-73881408I43577J498098D01*
G01*
X74934322Y-76777563D02*
G75*
G03*
X74677070Y-76823616I-43583J-498079D01*
G01*
X76762525Y-77006070D02*
G75*
G03*
X76517179Y-76916045I-288925J-408073D01*
G01*
X74033498Y-76116254D02*
G75*
G03*
X74101697Y-75904515I-429888J255314D01*
G01*
X74033497Y-76116253D02*
G75*
G03*
X74677070Y-76823616I429900J-255318D01*
G01*
X74224210Y-74504179D02*
G75*
G03*
X74193816Y-74283814I-498086J43578D01*
G01*
X77679470Y-74588769D02*
G75*
G03*
X77611271Y-74800509I429888J-255315D01*
G01*
X76762526Y-77006068D02*
G75*
G03*
X77519152Y-76421210I288923J408072D01*
G01*
X74934322Y-76777563D02*
X76517179Y-76916045D01*
X74224211Y-74504180D02*
X74101697Y-75904515D01*
X76778647Y-73927462D02*
X75195788Y-73788980D01*
X77488757Y-76200844D02*
X77611271Y-74800509D01*
%TO.C,D29*%
X75317023Y-54932886D02*
G75*
G03*
X75569281Y-55001185I252261J431710D01*
G01*
X75569282Y-58001184D02*
G75*
G03*
X75317023Y-58069483I-6J-499982D01*
G01*
X77158187Y-55001184D02*
G75*
G03*
X77410445Y-54932885I5J499982D01*
G01*
X74663735Y-55798341D02*
G75*
G03*
X74614250Y-55581464I-499990J1D01*
G01*
X74614250Y-57420904D02*
G75*
G03*
X74663735Y-57204026I-450505J216876D01*
G01*
X77410444Y-58069483D02*
G75*
G03*
X77158186Y-58001184I-252261J-431710D01*
G01*
X78113218Y-55581464D02*
G75*
G03*
X78063733Y-55798342I450505J-216876D01*
G01*
X75317023Y-54932887D02*
G75*
G03*
X74614250Y-55581464I-252258J-431700D01*
G01*
X78063733Y-57204027D02*
G75*
G03*
X78113218Y-57420904I499990J-1D01*
G01*
X78113218Y-55581464D02*
G75*
G03*
X77410445Y-54932885I-450515J216878D01*
G01*
X74614249Y-57420902D02*
G75*
G03*
X75317023Y-58069483I450516J-216879D01*
G01*
X77410445Y-58069481D02*
G75*
G03*
X78113218Y-57420904I252258J431700D01*
G01*
X75569282Y-58001184D02*
X77158186Y-58001184D01*
X77158186Y-55001185D02*
X75569281Y-55001185D01*
X74663735Y-55798342D02*
X74663735Y-57204026D01*
X78063733Y-57204026D02*
X78063733Y-55798342D01*
%TO.C,D33*%
X94050621Y-79341860D02*
G75*
G03*
X94154552Y-79145180I-379023J326085D01*
G01*
X97906448Y-78470697D02*
G75*
G03*
X97802516Y-78667378I379021J-326086D01*
G01*
X94822923Y-80149549D02*
G75*
G03*
X94561583Y-80150231I-129410J-482943D01*
G01*
X95373395Y-77120510D02*
G75*
G03*
X95599379Y-77251771I355399J351709D01*
G01*
X97438697Y-80025165D02*
G75*
G03*
X97430364Y-80247460I482954J-129408D01*
G01*
X97134145Y-77663009D02*
G75*
G03*
X97395485Y-77662327I129410J482944D01*
G01*
X94518370Y-77787392D02*
G75*
G03*
X94526703Y-77565098I-482983J129408D01*
G01*
X97906447Y-78470697D02*
G75*
G03*
X97395485Y-77662327I-379032J326090D01*
G01*
X96583672Y-80692048D02*
G75*
G03*
X96357687Y-80560787I-355400J-351710D01*
G01*
X96583675Y-80692045D02*
G75*
G03*
X97430364Y-80247460I355394J351700D01*
G01*
X95373395Y-77120510D02*
G75*
G03*
X94526703Y-77565098I-355396J-351702D01*
G01*
X94050620Y-79341858D02*
G75*
G03*
X94561583Y-80150231I379033J-326091D01*
G01*
X94822923Y-80149548D02*
X96357687Y-80560787D01*
X97438698Y-80025164D02*
X97802516Y-78667378D01*
X97134144Y-77663010D02*
X95599379Y-77251771D01*
X94518370Y-77787393D02*
X94154552Y-79145180D01*
%TO.C,D20*%
X57317022Y-15464885D02*
G75*
G03*
X57569280Y-15533184I252261J431710D01*
G01*
X59158186Y-15533183D02*
G75*
G03*
X59410444Y-15464884I5J499982D01*
G01*
X56663734Y-16330340D02*
G75*
G03*
X56614249Y-16113463I-499990J1D01*
G01*
X56614249Y-17952903D02*
G75*
G03*
X56663734Y-17736025I-450505J216876D01*
G01*
X59410443Y-18601482D02*
G75*
G03*
X59158185Y-18533183I-252261J-431710D01*
G01*
X57317022Y-15464886D02*
G75*
G03*
X56614249Y-16113463I-252258J-431700D01*
G01*
X60063732Y-17736026D02*
G75*
G03*
X60113217Y-17952903I499990J-1D01*
G01*
X56614248Y-17952901D02*
G75*
G03*
X57317022Y-18601482I450516J-216879D01*
G01*
X60113217Y-16113463D02*
G75*
G03*
X59410444Y-15464884I-450515J216878D01*
G01*
X57569281Y-18533183D02*
G75*
G03*
X57317022Y-18601482I-6J-499982D01*
G01*
X60113217Y-16113463D02*
G75*
G03*
X60063732Y-16330341I450505J-216876D01*
G01*
X59410444Y-18601480D02*
G75*
G03*
X60113217Y-17952903I252258J431700D01*
G01*
X57569281Y-18533183D02*
X59158185Y-18533183D01*
X60063732Y-17736025D02*
X60063732Y-16330341D01*
X59158185Y-15533184D02*
X57569280Y-15533184D01*
X56663734Y-16330341D02*
X56663734Y-17736025D01*
%TO.C,D36*%
X118691491Y-94014029D02*
G75*
G03*
X118646781Y-94271517I453134J-211306D01*
G01*
X117761964Y-94634344D02*
G75*
G03*
X118646781Y-94271517I386954J316648D01*
G01*
X117573593Y-90685821D02*
G75*
G03*
X117749238Y-90822327I386948J316640D01*
G01*
X115804060Y-92945934D02*
G75*
G03*
X116094865Y-93856963I284644J-411068D01*
G01*
X116644067Y-91306137D02*
G75*
G03*
X116688776Y-91048649I-453163J211311D01*
G01*
X115804058Y-92945932D02*
G75*
G03*
X115972567Y-92746173I-284652J411074D01*
G01*
X117573595Y-90685821D02*
G75*
G03*
X116688776Y-91048649I-386955J-316649D01*
G01*
X116312336Y-93903771D02*
G75*
G03*
X116094865Y-93856963I-211306J-453144D01*
G01*
X119023221Y-91416394D02*
G75*
G03*
X119240692Y-91463202I211306J453144D01*
G01*
X119531498Y-92374232D02*
G75*
G03*
X119240692Y-91463202I-284645J411068D01*
G01*
X117761964Y-94634344D02*
G75*
G03*
X117586319Y-94497839I-386948J-316641D01*
G01*
X119531498Y-92374232D02*
G75*
G03*
X119362990Y-92573991I284652J-411074D01*
G01*
X118691489Y-94014028D02*
X119362990Y-92573991D01*
X116312337Y-93903771D02*
X117586319Y-94497839D01*
X119023220Y-91416394D02*
X117749238Y-90822327D01*
X116644067Y-91306137D02*
X115972567Y-92746173D01*
%TO.C,D27*%
X93297023Y-57472885D02*
G75*
G03*
X93549281Y-57541184I252261J431710D01*
G01*
X95390444Y-60609482D02*
G75*
G03*
X95138186Y-60541183I-252261J-431710D01*
G01*
X93297023Y-57472886D02*
G75*
G03*
X92594250Y-58121463I-252258J-431700D01*
G01*
X93549282Y-60541183D02*
G75*
G03*
X93297023Y-60609482I-6J-499982D01*
G01*
X96043733Y-59744026D02*
G75*
G03*
X96093218Y-59960903I499990J-1D01*
G01*
X95390445Y-60609480D02*
G75*
G03*
X96093218Y-59960903I252258J431700D01*
G01*
X92643735Y-58338340D02*
G75*
G03*
X92594250Y-58121463I-499990J1D01*
G01*
X95138187Y-57541183D02*
G75*
G03*
X95390445Y-57472884I5J499982D01*
G01*
X92594250Y-59960903D02*
G75*
G03*
X92643735Y-59744025I-450505J216876D01*
G01*
X96093218Y-58121463D02*
G75*
G03*
X95390445Y-57472884I-450515J216878D01*
G01*
X92594249Y-59960901D02*
G75*
G03*
X93297023Y-60609482I450516J-216879D01*
G01*
X96093218Y-58121463D02*
G75*
G03*
X96043733Y-58338341I450505J-216876D01*
G01*
X95138186Y-57541184D02*
X93549281Y-57541184D01*
X96043733Y-59744025D02*
X96043733Y-58338341D01*
X92643735Y-58338341D02*
X92643735Y-59744025D01*
X93549282Y-60541183D02*
X95138186Y-60541183D01*
%TD*%
M02*
