%TF.GenerationSoftware,KiCad,Pcbnew,(6.0.0)*%
%TF.CreationDate,2022-05-05T22:03:01-07:00*%
%TF.ProjectId,half-swept,68616c66-2d73-4776-9570-742e6b696361,rev?*%
%TF.SameCoordinates,Original*%
%TF.FileFunction,Legend,Bot*%
%TF.FilePolarity,Positive*%
%FSLAX46Y46*%
G04 Gerber Fmt 4.6, Leading zero omitted, Abs format (unit mm)*
G04 Created by KiCad (PCBNEW (6.0.0)) date 2022-05-05 22:03:01*
%MOMM*%
%LPD*%
G01*
G04 APERTURE LIST*
%ADD10C,0.100000*%
%ADD11C,0.150000*%
%ADD12C,0.200000*%
%ADD13C,0.010000*%
%ADD14C,0.381000*%
%ADD15R,1.752600X1.752600*%
%ADD16C,1.752600*%
%ADD17C,1.397000*%
G04 APERTURE END LIST*
D10*
%TO.C,REF\u002A\u002A*%
X67292199Y-42410339D02*
X68292199Y-42410339D01*
X67339818Y-42410339D02*
X67292199Y-42505577D01*
X67292199Y-42696053D01*
X67339818Y-42791291D01*
X67387437Y-42838910D01*
X67482675Y-42886529D01*
X67768389Y-42886529D01*
X67863627Y-42838910D01*
X67911246Y-42791291D01*
X67958865Y-42696053D01*
X67958865Y-42505577D01*
X67911246Y-42410339D01*
X67292199Y-43743672D02*
X67958865Y-43743672D01*
X67292199Y-43315100D02*
X67816008Y-43315100D01*
X67911246Y-43362719D01*
X67958865Y-43457958D01*
X67958865Y-43600815D01*
X67911246Y-43696053D01*
X67863627Y-43743672D01*
X67911246Y-44648434D02*
X67958865Y-44553196D01*
X67958865Y-44362719D01*
X67911246Y-44267481D01*
X67863627Y-44219862D01*
X67768389Y-44172243D01*
X67482675Y-44172243D01*
X67387437Y-44219862D01*
X67339818Y-44267481D01*
X67292199Y-44362719D01*
X67292199Y-44553196D01*
X67339818Y-44648434D01*
X67958865Y-45077005D02*
X66958865Y-45077005D01*
X67577913Y-45172243D02*
X67958865Y-45457958D01*
X67292199Y-45457958D02*
X67673151Y-45077005D01*
X67228699Y-28456339D02*
X67228699Y-28837291D01*
X66895365Y-28599196D02*
X67752508Y-28599196D01*
X67847746Y-28646815D01*
X67895365Y-28742053D01*
X67895365Y-28837291D01*
X67847746Y-29551577D02*
X67895365Y-29456339D01*
X67895365Y-29265862D01*
X67847746Y-29170624D01*
X67752508Y-29123005D01*
X67371556Y-29123005D01*
X67276318Y-29170624D01*
X67228699Y-29265862D01*
X67228699Y-29456339D01*
X67276318Y-29551577D01*
X67371556Y-29599196D01*
X67466794Y-29599196D01*
X67562032Y-29123005D01*
X67228699Y-30027767D02*
X67895365Y-30027767D01*
X67323937Y-30027767D02*
X67276318Y-30075386D01*
X67228699Y-30170624D01*
X67228699Y-30313481D01*
X67276318Y-30408719D01*
X67371556Y-30456339D01*
X67895365Y-30456339D01*
X67228699Y-30789672D02*
X67228699Y-31170624D01*
X66895365Y-30932529D02*
X67752508Y-30932529D01*
X67847746Y-30980148D01*
X67895365Y-31075386D01*
X67895365Y-31170624D01*
X67895365Y-31503958D02*
X67228699Y-31503958D01*
X66895365Y-31503958D02*
X66942985Y-31456339D01*
X66990604Y-31503958D01*
X66942985Y-31551577D01*
X66895365Y-31503958D01*
X66990604Y-31503958D01*
X67228699Y-31980148D02*
X67895365Y-31980148D01*
X67323937Y-31980148D02*
X67276318Y-32027767D01*
X67228699Y-32123005D01*
X67228699Y-32265862D01*
X67276318Y-32361100D01*
X67371556Y-32408719D01*
X67895365Y-32408719D01*
X67228699Y-33313481D02*
X68038223Y-33313481D01*
X68133461Y-33265862D01*
X68181080Y-33218243D01*
X68228699Y-33123005D01*
X68228699Y-32980148D01*
X68181080Y-32884910D01*
X67847746Y-33313481D02*
X67895365Y-33218243D01*
X67895365Y-33027767D01*
X67847746Y-32932529D01*
X67800127Y-32884910D01*
X67704889Y-32837291D01*
X67419175Y-32837291D01*
X67323937Y-32884910D01*
X67276318Y-32932529D01*
X67228699Y-33027767D01*
X67228699Y-33218243D01*
X67276318Y-33313481D01*
D11*
%TO.C,U2*%
X108076460Y-45246493D02*
X108076460Y-44446493D01*
X107885984Y-44446493D01*
X107771698Y-44484589D01*
X107695507Y-44560779D01*
X107657412Y-44636969D01*
X107619317Y-44789350D01*
X107619317Y-44903636D01*
X107657412Y-45056017D01*
X107695507Y-45132208D01*
X107771698Y-45208398D01*
X107885984Y-45246493D01*
X108076460Y-45246493D01*
X106933603Y-44713160D02*
X106933603Y-45246493D01*
X107124079Y-44408398D02*
X107314555Y-44979827D01*
X106819317Y-44979827D01*
X108095507Y-36864589D02*
X108171698Y-36826493D01*
X108285984Y-36826493D01*
X108400269Y-36864589D01*
X108476460Y-36940779D01*
X108514555Y-37016969D01*
X108552650Y-37169350D01*
X108552650Y-37283636D01*
X108514555Y-37436017D01*
X108476460Y-37512208D01*
X108400269Y-37588398D01*
X108285984Y-37626493D01*
X108209793Y-37626493D01*
X108095507Y-37588398D01*
X108057412Y-37550303D01*
X108057412Y-37283636D01*
X108209793Y-37283636D01*
X107714555Y-37626493D02*
X107714555Y-36826493D01*
X107257412Y-37626493D01*
X107257412Y-36826493D01*
X106876460Y-37626493D02*
X106876460Y-36826493D01*
X106685984Y-36826493D01*
X106571698Y-36864589D01*
X106495507Y-36940779D01*
X106457412Y-37016969D01*
X106419317Y-37169350D01*
X106419317Y-37283636D01*
X106457412Y-37436017D01*
X106495507Y-37512208D01*
X106571698Y-37588398D01*
X106685984Y-37626493D01*
X106876460Y-37626493D01*
X107809793Y-54987446D02*
X107695507Y-55025541D01*
X107657412Y-55063636D01*
X107619317Y-55139827D01*
X107619317Y-55254112D01*
X107657412Y-55330303D01*
X107695507Y-55368398D01*
X107771698Y-55406493D01*
X108076460Y-55406493D01*
X108076460Y-54606493D01*
X107809793Y-54606493D01*
X107733603Y-54644589D01*
X107695507Y-54682684D01*
X107657412Y-54758874D01*
X107657412Y-54835065D01*
X107695507Y-54911255D01*
X107733603Y-54949350D01*
X107809793Y-54987446D01*
X108076460Y-54987446D01*
X106933603Y-54873160D02*
X106933603Y-55406493D01*
X107124079Y-54568398D02*
X107314555Y-55139827D01*
X106819317Y-55139827D01*
X115753650Y-55957446D02*
X116020317Y-55957446D01*
X116020317Y-56376493D02*
X116020317Y-55576493D01*
X115639364Y-55576493D01*
X114915555Y-56376493D02*
X115372698Y-56376493D01*
X115144126Y-56376493D02*
X115144126Y-55576493D01*
X115220317Y-55690779D01*
X115296507Y-55766969D01*
X115372698Y-55805065D01*
X118731793Y-49907446D02*
X118617507Y-49945541D01*
X118579412Y-49983636D01*
X118541317Y-50059827D01*
X118541317Y-50174112D01*
X118579412Y-50250303D01*
X118617507Y-50288398D01*
X118693698Y-50326493D01*
X118998460Y-50326493D01*
X118998460Y-49526493D01*
X118731793Y-49526493D01*
X118655603Y-49564589D01*
X118617507Y-49602684D01*
X118579412Y-49678874D01*
X118579412Y-49755065D01*
X118617507Y-49831255D01*
X118655603Y-49869350D01*
X118731793Y-49907446D01*
X118998460Y-49907446D01*
X117779412Y-50326493D02*
X118236555Y-50326493D01*
X118007984Y-50326493D02*
X118007984Y-49526493D01*
X118084174Y-49640779D01*
X118160364Y-49716969D01*
X118236555Y-49755065D01*
X119017507Y-31784589D02*
X119093698Y-31746493D01*
X119207984Y-31746493D01*
X119322269Y-31784589D01*
X119398460Y-31860779D01*
X119436555Y-31936969D01*
X119474650Y-32089350D01*
X119474650Y-32203636D01*
X119436555Y-32356017D01*
X119398460Y-32432208D01*
X119322269Y-32508398D01*
X119207984Y-32546493D01*
X119131793Y-32546493D01*
X119017507Y-32508398D01*
X118979412Y-32470303D01*
X118979412Y-32203636D01*
X119131793Y-32203636D01*
X118636555Y-32546493D02*
X118636555Y-31746493D01*
X118179412Y-32546493D01*
X118179412Y-31746493D01*
X117798460Y-32546493D02*
X117798460Y-31746493D01*
X117607984Y-31746493D01*
X117493698Y-31784589D01*
X117417507Y-31860779D01*
X117379412Y-31936969D01*
X117341317Y-32089350D01*
X117341317Y-32203636D01*
X117379412Y-32356017D01*
X117417507Y-32432208D01*
X117493698Y-32508398D01*
X117607984Y-32546493D01*
X117798460Y-32546493D01*
X118731793Y-29587446D02*
X118617507Y-29625541D01*
X118579412Y-29663636D01*
X118541317Y-29739827D01*
X118541317Y-29854112D01*
X118579412Y-29930303D01*
X118617507Y-29968398D01*
X118693698Y-30006493D01*
X118998460Y-30006493D01*
X118998460Y-29206493D01*
X118731793Y-29206493D01*
X118655603Y-29244589D01*
X118617507Y-29282684D01*
X118579412Y-29358874D01*
X118579412Y-29435065D01*
X118617507Y-29511255D01*
X118655603Y-29549350D01*
X118731793Y-29587446D01*
X118998460Y-29587446D01*
X118046079Y-29206493D02*
X117969888Y-29206493D01*
X117893698Y-29244589D01*
X117855603Y-29282684D01*
X117817507Y-29358874D01*
X117779412Y-29511255D01*
X117779412Y-29701731D01*
X117817507Y-29854112D01*
X117855603Y-29930303D01*
X117893698Y-29968398D01*
X117969888Y-30006493D01*
X118046079Y-30006493D01*
X118122269Y-29968398D01*
X118160364Y-29930303D01*
X118198460Y-29854112D01*
X118236555Y-29701731D01*
X118236555Y-29511255D01*
X118198460Y-29358874D01*
X118160364Y-29282684D01*
X118122269Y-29244589D01*
X118046079Y-29206493D01*
X108038364Y-52447446D02*
X107771698Y-52447446D01*
X107657412Y-52866493D02*
X108038364Y-52866493D01*
X108038364Y-52066493D01*
X107657412Y-52066493D01*
X106971698Y-52066493D02*
X107124079Y-52066493D01*
X107200269Y-52104589D01*
X107238364Y-52142684D01*
X107314555Y-52256969D01*
X107352650Y-52409350D01*
X107352650Y-52714112D01*
X107314555Y-52790303D01*
X107276460Y-52828398D01*
X107200269Y-52866493D01*
X107047888Y-52866493D01*
X106971698Y-52828398D01*
X106933603Y-52790303D01*
X106895507Y-52714112D01*
X106895507Y-52523636D01*
X106933603Y-52447446D01*
X106971698Y-52409350D01*
X107047888Y-52371255D01*
X107200269Y-52371255D01*
X107276460Y-52409350D01*
X107314555Y-52447446D01*
X107352650Y-52523636D01*
X111565588Y-29206493D02*
X111108445Y-29206493D01*
X111337016Y-30006493D02*
X111337016Y-29206493D01*
X110917969Y-29206493D02*
X110384635Y-30006493D01*
X110384635Y-29206493D02*
X110917969Y-30006493D01*
X109927492Y-29206493D02*
X109851302Y-29206493D01*
X109775112Y-29244589D01*
X109737016Y-29282684D01*
X109698921Y-29358874D01*
X109660826Y-29511255D01*
X109660826Y-29701731D01*
X109698921Y-29854112D01*
X109737016Y-29930303D01*
X109775112Y-29968398D01*
X109851302Y-30006493D01*
X109927492Y-30006493D01*
X110003683Y-29968398D01*
X110041778Y-29930303D01*
X110079873Y-29854112D01*
X110117969Y-29701731D01*
X110117969Y-29511255D01*
X110079873Y-29358874D01*
X110041778Y-29282684D01*
X110003683Y-29244589D01*
X109927492Y-29206493D01*
X108746540Y-29168398D02*
X109432254Y-30196969D01*
X108479873Y-30006493D02*
X108479873Y-29206493D01*
X108289397Y-29206493D01*
X108175112Y-29244589D01*
X108098921Y-29320779D01*
X108060826Y-29396969D01*
X108022731Y-29549350D01*
X108022731Y-29663636D01*
X108060826Y-29816017D01*
X108098921Y-29892208D01*
X108175112Y-29968398D01*
X108289397Y-30006493D01*
X108479873Y-30006493D01*
X107756064Y-29206493D02*
X107260826Y-29206493D01*
X107527492Y-29511255D01*
X107413207Y-29511255D01*
X107337016Y-29549350D01*
X107298921Y-29587446D01*
X107260826Y-29663636D01*
X107260826Y-29854112D01*
X107298921Y-29930303D01*
X107337016Y-29968398D01*
X107413207Y-30006493D01*
X107641778Y-30006493D01*
X107717969Y-29968398D01*
X107756064Y-29930303D01*
X118731793Y-52447446D02*
X118617507Y-52485541D01*
X118579412Y-52523636D01*
X118541317Y-52599827D01*
X118541317Y-52714112D01*
X118579412Y-52790303D01*
X118617507Y-52828398D01*
X118693698Y-52866493D01*
X118998460Y-52866493D01*
X118998460Y-52066493D01*
X118731793Y-52066493D01*
X118655603Y-52104589D01*
X118617507Y-52142684D01*
X118579412Y-52218874D01*
X118579412Y-52295065D01*
X118617507Y-52371255D01*
X118655603Y-52409350D01*
X118731793Y-52447446D01*
X118998460Y-52447446D01*
X118274650Y-52066493D02*
X117779412Y-52066493D01*
X118046079Y-52371255D01*
X117931793Y-52371255D01*
X117855603Y-52409350D01*
X117817507Y-52447446D01*
X117779412Y-52523636D01*
X117779412Y-52714112D01*
X117817507Y-52790303D01*
X117855603Y-52828398D01*
X117931793Y-52866493D01*
X118160364Y-52866493D01*
X118236555Y-52828398D01*
X118274650Y-52790303D01*
X107619317Y-47710303D02*
X107657412Y-47748398D01*
X107771698Y-47786493D01*
X107847888Y-47786493D01*
X107962174Y-47748398D01*
X108038364Y-47672208D01*
X108076460Y-47596017D01*
X108114555Y-47443636D01*
X108114555Y-47329350D01*
X108076460Y-47176969D01*
X108038364Y-47100779D01*
X107962174Y-47024589D01*
X107847888Y-46986493D01*
X107771698Y-46986493D01*
X107657412Y-47024589D01*
X107619317Y-47062684D01*
X106933603Y-46986493D02*
X107085984Y-46986493D01*
X107162174Y-47024589D01*
X107200269Y-47062684D01*
X107276460Y-47176969D01*
X107314555Y-47329350D01*
X107314555Y-47634112D01*
X107276460Y-47710303D01*
X107238364Y-47748398D01*
X107162174Y-47786493D01*
X107009793Y-47786493D01*
X106933603Y-47748398D01*
X106895507Y-47710303D01*
X106857412Y-47634112D01*
X106857412Y-47443636D01*
X106895507Y-47367446D01*
X106933603Y-47329350D01*
X107009793Y-47291255D01*
X107162174Y-47291255D01*
X107238364Y-47329350D01*
X107276460Y-47367446D01*
X107314555Y-47443636D01*
X108076460Y-32546493D02*
X108076460Y-31746493D01*
X107885984Y-31746493D01*
X107771698Y-31784589D01*
X107695507Y-31860779D01*
X107657412Y-31936969D01*
X107619317Y-32089350D01*
X107619317Y-32203636D01*
X107657412Y-32356017D01*
X107695507Y-32432208D01*
X107771698Y-32508398D01*
X107885984Y-32546493D01*
X108076460Y-32546493D01*
X107314555Y-31822684D02*
X107276460Y-31784589D01*
X107200269Y-31746493D01*
X107009793Y-31746493D01*
X106933603Y-31784589D01*
X106895507Y-31822684D01*
X106857412Y-31898874D01*
X106857412Y-31975065D01*
X106895507Y-32089350D01*
X107352650Y-32546493D01*
X106857412Y-32546493D01*
X108076460Y-42706493D02*
X108076460Y-41906493D01*
X107885984Y-41906493D01*
X107771698Y-41944589D01*
X107695507Y-42020779D01*
X107657412Y-42096969D01*
X107619317Y-42249350D01*
X107619317Y-42363636D01*
X107657412Y-42516017D01*
X107695507Y-42592208D01*
X107771698Y-42668398D01*
X107885984Y-42706493D01*
X108076460Y-42706493D01*
X107124079Y-41906493D02*
X107047888Y-41906493D01*
X106971698Y-41944589D01*
X106933603Y-41982684D01*
X106895507Y-42058874D01*
X106857412Y-42211255D01*
X106857412Y-42401731D01*
X106895507Y-42554112D01*
X106933603Y-42630303D01*
X106971698Y-42668398D01*
X107047888Y-42706493D01*
X107124079Y-42706493D01*
X107200269Y-42668398D01*
X107238364Y-42630303D01*
X107276460Y-42554112D01*
X107314555Y-42401731D01*
X107314555Y-42211255D01*
X107276460Y-42058874D01*
X107238364Y-41982684D01*
X107200269Y-41944589D01*
X107124079Y-41906493D01*
X118731793Y-54987446D02*
X118617507Y-55025541D01*
X118579412Y-55063636D01*
X118541317Y-55139827D01*
X118541317Y-55254112D01*
X118579412Y-55330303D01*
X118617507Y-55368398D01*
X118693698Y-55406493D01*
X118998460Y-55406493D01*
X118998460Y-54606493D01*
X118731793Y-54606493D01*
X118655603Y-54644589D01*
X118617507Y-54682684D01*
X118579412Y-54758874D01*
X118579412Y-54835065D01*
X118617507Y-54911255D01*
X118655603Y-54949350D01*
X118731793Y-54987446D01*
X118998460Y-54987446D01*
X118236555Y-54682684D02*
X118198460Y-54644589D01*
X118122269Y-54606493D01*
X117931793Y-54606493D01*
X117855603Y-54644589D01*
X117817507Y-54682684D01*
X117779412Y-54758874D01*
X117779412Y-54835065D01*
X117817507Y-54949350D01*
X118274650Y-55406493D01*
X117779412Y-55406493D01*
X106311281Y-56149597D02*
X106405562Y-56196737D01*
X106452703Y-56196737D01*
X106523413Y-56173167D01*
X106594124Y-56102456D01*
X106617694Y-56031746D01*
X106617694Y-55984605D01*
X106594124Y-55913895D01*
X106405562Y-55725333D01*
X105910587Y-56220308D01*
X106075579Y-56385299D01*
X106146290Y-56408869D01*
X106193430Y-56408869D01*
X106264141Y-56385299D01*
X106311281Y-56338159D01*
X106334851Y-56267448D01*
X106334851Y-56220308D01*
X106311281Y-56149597D01*
X106146290Y-55984605D01*
X106641264Y-56950985D02*
X106405562Y-56715282D01*
X106617694Y-56456010D01*
X106617694Y-56503150D01*
X106641264Y-56573861D01*
X106759116Y-56691712D01*
X106829826Y-56715282D01*
X106876967Y-56715282D01*
X106947677Y-56691712D01*
X107065528Y-56573861D01*
X107089099Y-56503150D01*
X107089099Y-56456010D01*
X107065528Y-56385299D01*
X106947677Y-56267448D01*
X106876967Y-56243878D01*
X106829826Y-56243878D01*
X119511975Y-56078886D02*
X119464835Y-56173167D01*
X119464835Y-56220308D01*
X119488405Y-56291018D01*
X119559116Y-56361729D01*
X119629826Y-56385299D01*
X119676967Y-56385299D01*
X119747677Y-56361729D01*
X119936239Y-56173167D01*
X119441264Y-55678192D01*
X119276273Y-55843184D01*
X119252703Y-55913895D01*
X119252703Y-55961035D01*
X119276273Y-56031746D01*
X119323413Y-56078886D01*
X119394124Y-56102456D01*
X119441264Y-56102456D01*
X119511975Y-56078886D01*
X119676967Y-55913895D01*
X118734158Y-56385299D02*
X118828439Y-56291018D01*
X118899149Y-56267448D01*
X118946290Y-56267448D01*
X119064141Y-56291018D01*
X119181992Y-56361729D01*
X119370554Y-56550291D01*
X119394124Y-56621001D01*
X119394124Y-56668142D01*
X119370554Y-56738853D01*
X119276273Y-56833133D01*
X119205562Y-56856704D01*
X119158422Y-56856704D01*
X119087711Y-56833133D01*
X118969860Y-56715282D01*
X118946290Y-56644572D01*
X118946290Y-56597431D01*
X118969860Y-56526721D01*
X119064141Y-56432440D01*
X119134851Y-56408869D01*
X119181992Y-56408869D01*
X119252703Y-56432440D01*
X113080317Y-56300303D02*
X113118412Y-56338398D01*
X113232698Y-56376493D01*
X113308888Y-56376493D01*
X113423174Y-56338398D01*
X113499364Y-56262208D01*
X113537460Y-56186017D01*
X113575555Y-56033636D01*
X113575555Y-55919350D01*
X113537460Y-55766969D01*
X113499364Y-55690779D01*
X113423174Y-55614589D01*
X113308888Y-55576493D01*
X113232698Y-55576493D01*
X113118412Y-55614589D01*
X113080317Y-55652684D01*
X112813650Y-55576493D02*
X112280317Y-55576493D01*
X112623174Y-56376493D01*
X108076460Y-50326493D02*
X108076460Y-49526493D01*
X107885984Y-49526493D01*
X107771698Y-49564589D01*
X107695507Y-49640779D01*
X107657412Y-49716969D01*
X107619317Y-49869350D01*
X107619317Y-49983636D01*
X107657412Y-50136017D01*
X107695507Y-50212208D01*
X107771698Y-50288398D01*
X107885984Y-50326493D01*
X108076460Y-50326493D01*
X107352650Y-49526493D02*
X106819317Y-49526493D01*
X107162174Y-50326493D01*
X118674650Y-39747446D02*
X118941317Y-39747446D01*
X118941317Y-40166493D02*
X118941317Y-39366493D01*
X118560364Y-39366493D01*
X117912745Y-39633160D02*
X117912745Y-40166493D01*
X118103222Y-39328398D02*
X118293698Y-39899827D01*
X117798460Y-39899827D01*
X108076460Y-40166493D02*
X108076460Y-39366493D01*
X107885984Y-39366493D01*
X107771698Y-39404589D01*
X107695507Y-39480779D01*
X107657412Y-39556969D01*
X107619317Y-39709350D01*
X107619317Y-39823636D01*
X107657412Y-39976017D01*
X107695507Y-40052208D01*
X107771698Y-40128398D01*
X107885984Y-40166493D01*
X108076460Y-40166493D01*
X106857412Y-40166493D02*
X107314555Y-40166493D01*
X107085984Y-40166493D02*
X107085984Y-39366493D01*
X107162174Y-39480779D01*
X107238364Y-39556969D01*
X107314555Y-39595065D01*
X108095507Y-34324589D02*
X108171698Y-34286493D01*
X108285984Y-34286493D01*
X108400269Y-34324589D01*
X108476460Y-34400779D01*
X108514555Y-34476969D01*
X108552650Y-34629350D01*
X108552650Y-34743636D01*
X108514555Y-34896017D01*
X108476460Y-34972208D01*
X108400269Y-35048398D01*
X108285984Y-35086493D01*
X108209793Y-35086493D01*
X108095507Y-35048398D01*
X108057412Y-35010303D01*
X108057412Y-34743636D01*
X108209793Y-34743636D01*
X107714555Y-35086493D02*
X107714555Y-34286493D01*
X107257412Y-35086493D01*
X107257412Y-34286493D01*
X106876460Y-35086493D02*
X106876460Y-34286493D01*
X106685984Y-34286493D01*
X106571698Y-34324589D01*
X106495507Y-34400779D01*
X106457412Y-34476969D01*
X106419317Y-34629350D01*
X106419317Y-34743636D01*
X106457412Y-34896017D01*
X106495507Y-34972208D01*
X106571698Y-35048398D01*
X106685984Y-35086493D01*
X106876460Y-35086493D01*
X110997460Y-56376493D02*
X110997460Y-55576493D01*
X110806984Y-55576493D01*
X110692698Y-55614589D01*
X110616507Y-55690779D01*
X110578412Y-55766969D01*
X110540317Y-55919350D01*
X110540317Y-56033636D01*
X110578412Y-56186017D01*
X110616507Y-56262208D01*
X110692698Y-56338398D01*
X110806984Y-56376493D01*
X110997460Y-56376493D01*
X109816507Y-55576493D02*
X110197460Y-55576493D01*
X110235555Y-55957446D01*
X110197460Y-55919350D01*
X110121269Y-55881255D01*
X109930793Y-55881255D01*
X109854603Y-55919350D01*
X109816507Y-55957446D01*
X109778412Y-56033636D01*
X109778412Y-56224112D01*
X109816507Y-56300303D01*
X109854603Y-56338398D01*
X109930793Y-56376493D01*
X110121269Y-56376493D01*
X110197460Y-56338398D01*
X110235555Y-56300303D01*
X118674650Y-44827446D02*
X118941317Y-44827446D01*
X118941317Y-45246493D02*
X118941317Y-44446493D01*
X118560364Y-44446493D01*
X117912745Y-44446493D02*
X118065126Y-44446493D01*
X118141317Y-44484589D01*
X118179412Y-44522684D01*
X118255603Y-44636969D01*
X118293698Y-44789350D01*
X118293698Y-45094112D01*
X118255603Y-45170303D01*
X118217507Y-45208398D01*
X118141317Y-45246493D01*
X117988936Y-45246493D01*
X117912745Y-45208398D01*
X117874650Y-45170303D01*
X117836555Y-45094112D01*
X117836555Y-44903636D01*
X117874650Y-44827446D01*
X117912745Y-44789350D01*
X117988936Y-44751255D01*
X118141317Y-44751255D01*
X118217507Y-44789350D01*
X118255603Y-44827446D01*
X118293698Y-44903636D01*
X119474650Y-36826493D02*
X119207984Y-37626493D01*
X118941317Y-36826493D01*
X118217507Y-37550303D02*
X118255603Y-37588398D01*
X118369888Y-37626493D01*
X118446079Y-37626493D01*
X118560364Y-37588398D01*
X118636555Y-37512208D01*
X118674650Y-37436017D01*
X118712745Y-37283636D01*
X118712745Y-37169350D01*
X118674650Y-37016969D01*
X118636555Y-36940779D01*
X118560364Y-36864589D01*
X118446079Y-36826493D01*
X118369888Y-36826493D01*
X118255603Y-36864589D01*
X118217507Y-36902684D01*
X117417507Y-37550303D02*
X117455603Y-37588398D01*
X117569888Y-37626493D01*
X117646079Y-37626493D01*
X117760364Y-37588398D01*
X117836555Y-37512208D01*
X117874650Y-37436017D01*
X117912745Y-37283636D01*
X117912745Y-37169350D01*
X117874650Y-37016969D01*
X117836555Y-36940779D01*
X117760364Y-36864589D01*
X117646079Y-36826493D01*
X117569888Y-36826493D01*
X117455603Y-36864589D01*
X117417507Y-36902684D01*
X108730317Y-56164589D02*
X108630317Y-56197922D01*
X108596984Y-56231255D01*
X108563650Y-56297922D01*
X108563650Y-56397922D01*
X108596984Y-56464589D01*
X108630317Y-56497922D01*
X108696984Y-56531255D01*
X108963650Y-56531255D01*
X108963650Y-55831255D01*
X108730317Y-55831255D01*
X108663650Y-55864589D01*
X108630317Y-55897922D01*
X108596984Y-55964589D01*
X108596984Y-56031255D01*
X108630317Y-56097922D01*
X108663650Y-56131255D01*
X108730317Y-56164589D01*
X108963650Y-56164589D01*
X108330317Y-55831255D02*
X107863650Y-55831255D01*
X108163650Y-56531255D01*
X118674650Y-47367446D02*
X118941317Y-47367446D01*
X118941317Y-47786493D02*
X118941317Y-46986493D01*
X118560364Y-46986493D01*
X118331793Y-46986493D02*
X117798460Y-46986493D01*
X118141317Y-47786493D01*
X117680317Y-56164589D02*
X117913650Y-56164589D01*
X117913650Y-56531255D02*
X117913650Y-55831255D01*
X117580317Y-55831255D01*
X117180317Y-55831255D02*
X117113650Y-55831255D01*
X117046984Y-55864589D01*
X117013650Y-55897922D01*
X116980317Y-55964589D01*
X116946984Y-56097922D01*
X116946984Y-56264589D01*
X116980317Y-56397922D01*
X117013650Y-56464589D01*
X117046984Y-56497922D01*
X117113650Y-56531255D01*
X117180317Y-56531255D01*
X117246984Y-56497922D01*
X117280317Y-56464589D01*
X117313650Y-56397922D01*
X117346984Y-56264589D01*
X117346984Y-56097922D01*
X117313650Y-55964589D01*
X117280317Y-55897922D01*
X117246984Y-55864589D01*
X117180317Y-55831255D01*
X118520317Y-35028398D02*
X118406031Y-35066493D01*
X118215555Y-35066493D01*
X118139364Y-35028398D01*
X118101269Y-34990303D01*
X118063174Y-34914112D01*
X118063174Y-34837922D01*
X118101269Y-34761731D01*
X118139364Y-34723636D01*
X118215555Y-34685541D01*
X118367936Y-34647446D01*
X118444126Y-34609350D01*
X118482222Y-34571255D01*
X118520317Y-34495065D01*
X118520317Y-34418874D01*
X118482222Y-34342684D01*
X118444126Y-34304589D01*
X118367936Y-34266493D01*
X118177460Y-34266493D01*
X118063174Y-34304589D01*
X117834603Y-34266493D02*
X117377460Y-34266493D01*
X117606031Y-35066493D02*
X117606031Y-34266493D01*
X118674650Y-42287446D02*
X118941317Y-42287446D01*
X118941317Y-42706493D02*
X118941317Y-41906493D01*
X118560364Y-41906493D01*
X117874650Y-41906493D02*
X118255603Y-41906493D01*
X118293698Y-42287446D01*
X118255603Y-42249350D01*
X118179412Y-42211255D01*
X117988936Y-42211255D01*
X117912745Y-42249350D01*
X117874650Y-42287446D01*
X117836555Y-42363636D01*
X117836555Y-42554112D01*
X117874650Y-42630303D01*
X117912745Y-42668398D01*
X117988936Y-42706493D01*
X118179412Y-42706493D01*
X118255603Y-42668398D01*
X118293698Y-42630303D01*
%TO.C,OL2*%
X116223175Y-66880218D02*
X116223175Y-66213552D01*
X116223175Y-66404028D02*
X116175556Y-66308790D01*
X116127937Y-66261171D01*
X116032699Y-66213552D01*
X115937461Y-66213552D01*
X115604127Y-66880218D02*
X115604127Y-66213552D01*
X115604127Y-65880218D02*
X115651746Y-65927838D01*
X115604127Y-65975457D01*
X115556508Y-65927838D01*
X115604127Y-65880218D01*
X115604127Y-65975457D01*
X114699365Y-66213552D02*
X114699365Y-67023076D01*
X114746985Y-67118314D01*
X114794604Y-67165933D01*
X114889842Y-67213552D01*
X115032699Y-67213552D01*
X115127937Y-67165933D01*
X114699365Y-66832599D02*
X114794604Y-66880218D01*
X114985080Y-66880218D01*
X115080318Y-66832599D01*
X115127937Y-66784980D01*
X115175556Y-66689742D01*
X115175556Y-66404028D01*
X115127937Y-66308790D01*
X115080318Y-66261171D01*
X114985080Y-66213552D01*
X114794604Y-66213552D01*
X114699365Y-66261171D01*
X114223175Y-66880218D02*
X114223175Y-65880218D01*
X113794604Y-66880218D02*
X113794604Y-66356409D01*
X113842223Y-66261171D01*
X113937461Y-66213552D01*
X114080318Y-66213552D01*
X114175556Y-66261171D01*
X114223175Y-66308790D01*
X113461270Y-66213552D02*
X113080318Y-66213552D01*
X113318413Y-65880218D02*
X113318413Y-66737361D01*
X113270794Y-66832599D01*
X113175556Y-66880218D01*
X113080318Y-66880218D01*
X111842223Y-66880218D02*
X111937461Y-66832599D01*
X111985080Y-66784980D01*
X112032699Y-66689742D01*
X112032699Y-66404028D01*
X111985080Y-66308790D01*
X111937461Y-66261171D01*
X111842223Y-66213552D01*
X111699365Y-66213552D01*
X111604127Y-66261171D01*
X111556508Y-66308790D01*
X111508889Y-66404028D01*
X111508889Y-66689742D01*
X111556508Y-66784980D01*
X111604127Y-66832599D01*
X111699365Y-66880218D01*
X111842223Y-66880218D01*
X110937461Y-66880218D02*
X111032699Y-66832599D01*
X111080318Y-66737361D01*
X111080318Y-65880218D01*
X110175556Y-66832599D02*
X110270794Y-66880218D01*
X110461270Y-66880218D01*
X110556508Y-66832599D01*
X110604127Y-66737361D01*
X110604127Y-66356409D01*
X110556508Y-66261171D01*
X110461270Y-66213552D01*
X110270794Y-66213552D01*
X110175556Y-66261171D01*
X110127937Y-66356409D01*
X110127937Y-66451647D01*
X110604127Y-66546885D01*
X109270794Y-66880218D02*
X109270794Y-65880218D01*
X109270794Y-66832599D02*
X109366032Y-66880218D01*
X109556508Y-66880218D01*
X109651746Y-66832599D01*
X109699365Y-66784980D01*
X109746985Y-66689742D01*
X109746985Y-66404028D01*
X109699365Y-66308790D01*
X109651746Y-66261171D01*
X109556508Y-66213552D01*
X109366032Y-66213552D01*
X109270794Y-66261171D01*
D12*
%TO.C,REF\u002A\u002A*%
X67696985Y-27082839D02*
G75*
G03*
X66568600Y-27141975I-6J-10794921D01*
G01*
X86983119Y-44885887D02*
G75*
G03*
X88016985Y-40735339I-19286117J7008044D01*
G01*
X47376985Y-40735339D02*
G75*
G03*
X48410850Y-44885885I20320050J2857512D01*
G01*
X48410849Y-30869795D02*
G75*
G03*
X47376985Y-35020339I19286252J-7008071D01*
G01*
X60688940Y-57163974D02*
G75*
G03*
X64839485Y-58197839I7008051J19286154D01*
G01*
X70554485Y-58197839D02*
G75*
G03*
X74705030Y-57163974I-2857506J20320019D01*
G01*
X68825370Y-27141975D02*
G75*
G03*
X67696985Y-27082839I-1128379J-10735785D01*
G01*
X88016985Y-35020339D02*
G75*
G03*
X86983119Y-30869791I-20319983J-2857496D01*
G01*
X67696985Y-48672839D02*
G75*
G03*
X68825370Y-48613703I6J10794921D01*
G01*
X74705034Y-18591705D02*
G75*
G03*
X70554485Y-17557839I-7008041J-19286105D01*
G01*
X66568600Y-48613703D02*
G75*
G03*
X67696985Y-48672839I1128379J10735785D01*
G01*
X64839485Y-17557839D02*
G75*
G03*
X60688939Y-18591704I2857512J-20320050D01*
G01*
D13*
X68474703Y-52402414D02*
X68452000Y-52425277D01*
X68452000Y-52425277D02*
X68417521Y-52460808D01*
X68417521Y-52460808D02*
X68373252Y-52506900D01*
X68373252Y-52506900D02*
X68321185Y-52561446D01*
X68321185Y-52561446D02*
X68263306Y-52622340D01*
X68263306Y-52622340D02*
X68201607Y-52687475D01*
X68201607Y-52687475D02*
X68138074Y-52754745D01*
X68138074Y-52754745D02*
X68074699Y-52822043D01*
X68074699Y-52822043D02*
X68013469Y-52887262D01*
X68013469Y-52887262D02*
X67956373Y-52948297D01*
X67956373Y-52948297D02*
X67905401Y-53003040D01*
X67905401Y-53003040D02*
X67862541Y-53049385D01*
X67862541Y-53049385D02*
X67829783Y-53085225D01*
X67829783Y-53085225D02*
X67809115Y-53108454D01*
X67809115Y-53108454D02*
X67806822Y-53111145D01*
X67806822Y-53111145D02*
X67778521Y-53144780D01*
X67778521Y-53144780D02*
X68398535Y-53144780D01*
X68398535Y-53144780D02*
X68571885Y-52968711D01*
X68571885Y-52968711D02*
X68625627Y-52913968D01*
X68625627Y-52913968D02*
X68675910Y-52862455D01*
X68675910Y-52862455D02*
X68719726Y-52817275D01*
X68719726Y-52817275D02*
X68754072Y-52781529D01*
X68754072Y-52781529D02*
X68775940Y-52758320D01*
X68775940Y-52758320D02*
X68779117Y-52754828D01*
X68779117Y-52754828D02*
X68812999Y-52717013D01*
X68812999Y-52717013D02*
X68651964Y-52555669D01*
X68651964Y-52555669D02*
X68602251Y-52506214D01*
X68602251Y-52506214D02*
X68558027Y-52462889D01*
X68558027Y-52462889D02*
X68521880Y-52428176D01*
X68521880Y-52428176D02*
X68496398Y-52404556D01*
X68496398Y-52404556D02*
X68484169Y-52394508D01*
X68484169Y-52394508D02*
X68483638Y-52394325D01*
X68483638Y-52394325D02*
X68474703Y-52402414D01*
X68474703Y-52402414D02*
X68474703Y-52402414D01*
G36*
X68484169Y-52394508D02*
G01*
X68496398Y-52404556D01*
X68521880Y-52428176D01*
X68558027Y-52462889D01*
X68602251Y-52506214D01*
X68651964Y-52555669D01*
X68812999Y-52717013D01*
X68779117Y-52754828D01*
X68775940Y-52758320D01*
X68754072Y-52781529D01*
X68719726Y-52817275D01*
X68675910Y-52862455D01*
X68625627Y-52913968D01*
X68571885Y-52968711D01*
X68398535Y-53144780D01*
X67778521Y-53144780D01*
X67806822Y-53111145D01*
X67809115Y-53108454D01*
X67829783Y-53085225D01*
X67862541Y-53049385D01*
X67905401Y-53003040D01*
X67956373Y-52948297D01*
X68013469Y-52887262D01*
X68074699Y-52822043D01*
X68138074Y-52754745D01*
X68201607Y-52687475D01*
X68263306Y-52622340D01*
X68321185Y-52561446D01*
X68373252Y-52506900D01*
X68417521Y-52460808D01*
X68452000Y-52425277D01*
X68474703Y-52402414D01*
X68483638Y-52394325D01*
X68484169Y-52394508D01*
G37*
X68484169Y-52394508D02*
X68496398Y-52404556D01*
X68521880Y-52428176D01*
X68558027Y-52462889D01*
X68602251Y-52506214D01*
X68651964Y-52555669D01*
X68812999Y-52717013D01*
X68779117Y-52754828D01*
X68775940Y-52758320D01*
X68754072Y-52781529D01*
X68719726Y-52817275D01*
X68675910Y-52862455D01*
X68625627Y-52913968D01*
X68571885Y-52968711D01*
X68398535Y-53144780D01*
X67778521Y-53144780D01*
X67806822Y-53111145D01*
X67809115Y-53108454D01*
X67829783Y-53085225D01*
X67862541Y-53049385D01*
X67905401Y-53003040D01*
X67956373Y-52948297D01*
X68013469Y-52887262D01*
X68074699Y-52822043D01*
X68138074Y-52754745D01*
X68201607Y-52687475D01*
X68263306Y-52622340D01*
X68321185Y-52561446D01*
X68373252Y-52506900D01*
X68417521Y-52460808D01*
X68452000Y-52425277D01*
X68474703Y-52402414D01*
X68483638Y-52394325D01*
X68484169Y-52394508D01*
X67076449Y-50861666D02*
X67076257Y-50965906D01*
X67076257Y-50965906D02*
X67075768Y-51062651D01*
X67075768Y-51062651D02*
X67075018Y-51149537D01*
X67075018Y-51149537D02*
X67074042Y-51224199D01*
X67074042Y-51224199D02*
X67072873Y-51284274D01*
X67072873Y-51284274D02*
X67071546Y-51327397D01*
X67071546Y-51327397D02*
X67070097Y-51351204D01*
X67070097Y-51351204D02*
X67069189Y-51355234D01*
X67069189Y-51355234D02*
X67056758Y-51348920D01*
X67056758Y-51348920D02*
X67031912Y-51332577D01*
X67031912Y-51332577D02*
X67007778Y-51315375D01*
X67007778Y-51315375D02*
X66893081Y-51244653D01*
X66893081Y-51244653D02*
X66770865Y-51195549D01*
X66770865Y-51195549D02*
X66640482Y-51167873D01*
X66640482Y-51167873D02*
X66501281Y-51161435D01*
X66501281Y-51161435D02*
X66483469Y-51162103D01*
X66483469Y-51162103D02*
X66393834Y-51168655D01*
X66393834Y-51168655D02*
X66317351Y-51180592D01*
X66317351Y-51180592D02*
X66245699Y-51200084D01*
X66245699Y-51200084D02*
X66170561Y-51229301D01*
X66170561Y-51229301D02*
X66100710Y-51261940D01*
X66100710Y-51261940D02*
X65972777Y-51337233D01*
X65972777Y-51337233D02*
X65859857Y-51429213D01*
X65859857Y-51429213D02*
X65762963Y-51536202D01*
X65762963Y-51536202D02*
X65683105Y-51656527D01*
X65683105Y-51656527D02*
X65621295Y-51788512D01*
X65621295Y-51788512D02*
X65578543Y-51930481D01*
X65578543Y-51930481D02*
X65555862Y-52080760D01*
X65555862Y-52080760D02*
X65552301Y-52170430D01*
X65552301Y-52170430D02*
X65562592Y-52322908D01*
X65562592Y-52322908D02*
X65593948Y-52467472D01*
X65593948Y-52467472D02*
X65647093Y-52606708D01*
X65647093Y-52606708D02*
X65704348Y-52713627D01*
X65704348Y-52713627D02*
X65790060Y-52833920D01*
X65790060Y-52833920D02*
X65891673Y-52938769D01*
X65891673Y-52938769D02*
X66007006Y-53027091D01*
X66007006Y-53027091D02*
X66133881Y-53097805D01*
X66133881Y-53097805D02*
X66270117Y-53149828D01*
X66270117Y-53149828D02*
X66413536Y-53182081D01*
X66413536Y-53182081D02*
X66561957Y-53193480D01*
X66561957Y-53193480D02*
X66662203Y-53188997D01*
X66662203Y-53188997D02*
X66806811Y-53164116D01*
X66806811Y-53164116D02*
X66947379Y-53117841D01*
X66947379Y-53117841D02*
X67080552Y-53051862D01*
X67080552Y-53051862D02*
X67202972Y-52967865D01*
X67202972Y-52967865D02*
X67311284Y-52867539D01*
X67311284Y-52867539D02*
X67319678Y-52858373D01*
X67319678Y-52858373D02*
X67400809Y-52754253D01*
X67400809Y-52754253D02*
X67470501Y-52636071D01*
X67470501Y-52636071D02*
X67525667Y-52510208D01*
X67525667Y-52510208D02*
X67563220Y-52383048D01*
X67563220Y-52383048D02*
X67572089Y-52336598D01*
X67572089Y-52336598D02*
X67574702Y-52308203D01*
X67574702Y-52308203D02*
X67577047Y-52258131D01*
X67577047Y-52258131D02*
X67578516Y-52207797D01*
X67578516Y-52207797D02*
X67082178Y-52207797D01*
X67082178Y-52207797D02*
X67071606Y-52305346D01*
X67071606Y-52305346D02*
X67041174Y-52399365D01*
X67041174Y-52399365D02*
X67012520Y-52453510D01*
X67012520Y-52453510D02*
X66945586Y-52541793D01*
X66945586Y-52541793D02*
X66866105Y-52612670D01*
X66866105Y-52612670D02*
X66776673Y-52665163D01*
X66776673Y-52665163D02*
X66679887Y-52698295D01*
X66679887Y-52698295D02*
X66578346Y-52711089D01*
X66578346Y-52711089D02*
X66474645Y-52702568D01*
X66474645Y-52702568D02*
X66401818Y-52683280D01*
X66401818Y-52683280D02*
X66358821Y-52667194D01*
X66358821Y-52667194D02*
X66317916Y-52649834D01*
X66317916Y-52649834D02*
X66301749Y-52642058D01*
X66301749Y-52642058D02*
X66256463Y-52611054D01*
X66256463Y-52611054D02*
X66207140Y-52564860D01*
X66207140Y-52564860D02*
X66159083Y-52509404D01*
X66159083Y-52509404D02*
X66117598Y-52450610D01*
X66117598Y-52450610D02*
X66096110Y-52412283D01*
X66096110Y-52412283D02*
X66075929Y-52368037D01*
X66075929Y-52368037D02*
X66063284Y-52329429D01*
X66063284Y-52329429D02*
X66055927Y-52287137D01*
X66055927Y-52287137D02*
X66051609Y-52231834D01*
X66051609Y-52231834D02*
X66051327Y-52226544D01*
X66051327Y-52226544D02*
X66054695Y-52119299D01*
X66054695Y-52119299D02*
X66077551Y-52021407D01*
X66077551Y-52021407D02*
X66121203Y-51927984D01*
X66121203Y-51927984D02*
X66138973Y-51899455D01*
X66138973Y-51899455D02*
X66203515Y-51821551D01*
X66203515Y-51821551D02*
X66282332Y-51759381D01*
X66282332Y-51759381D02*
X66371968Y-51713885D01*
X66371968Y-51713885D02*
X66468967Y-51686007D01*
X66468967Y-51686007D02*
X66569871Y-51676687D01*
X66569871Y-51676687D02*
X66671223Y-51686869D01*
X66671223Y-51686869D02*
X66769569Y-51717494D01*
X66769569Y-51717494D02*
X66783572Y-51723780D01*
X66783572Y-51723780D02*
X66871524Y-51776729D01*
X66871524Y-51776729D02*
X66945514Y-51844943D01*
X66945514Y-51844943D02*
X67004557Y-51925289D01*
X67004557Y-51925289D02*
X67047670Y-52014636D01*
X67047670Y-52014636D02*
X67073872Y-52109849D01*
X67073872Y-52109849D02*
X67082178Y-52207797D01*
X67082178Y-52207797D02*
X67578516Y-52207797D01*
X67578516Y-52207797D02*
X67579100Y-52187794D01*
X67579100Y-52187794D02*
X67580839Y-52098605D01*
X67580839Y-52098605D02*
X67582242Y-51991976D01*
X67582242Y-51991976D02*
X67583286Y-51869320D01*
X67583286Y-51869320D02*
X67583950Y-51732048D01*
X67583950Y-51732048D02*
X67584211Y-51581574D01*
X67584211Y-51581574D02*
X67584214Y-51569838D01*
X67584214Y-51569838D02*
X67584301Y-50878124D01*
X67584301Y-50878124D02*
X67076597Y-50368098D01*
X67076597Y-50368098D02*
X67076449Y-50861666D01*
X67076449Y-50861666D02*
X67076449Y-50861666D01*
G36*
X67574702Y-52308203D02*
G01*
X67572089Y-52336598D01*
X67563220Y-52383048D01*
X67525667Y-52510208D01*
X67470501Y-52636071D01*
X67400809Y-52754253D01*
X67319678Y-52858373D01*
X67311284Y-52867539D01*
X67202972Y-52967865D01*
X67080552Y-53051862D01*
X66947379Y-53117841D01*
X66806811Y-53164116D01*
X66662203Y-53188997D01*
X66561957Y-53193480D01*
X66413536Y-53182081D01*
X66270117Y-53149828D01*
X66133881Y-53097805D01*
X66007006Y-53027091D01*
X65891673Y-52938769D01*
X65790060Y-52833920D01*
X65704348Y-52713627D01*
X65647093Y-52606708D01*
X65593948Y-52467472D01*
X65562592Y-52322908D01*
X65556088Y-52226544D01*
X66051327Y-52226544D01*
X66051609Y-52231834D01*
X66055927Y-52287137D01*
X66063284Y-52329429D01*
X66075929Y-52368037D01*
X66096110Y-52412283D01*
X66117598Y-52450610D01*
X66159083Y-52509404D01*
X66207140Y-52564860D01*
X66256463Y-52611054D01*
X66301749Y-52642058D01*
X66317916Y-52649834D01*
X66358821Y-52667194D01*
X66401818Y-52683280D01*
X66474645Y-52702568D01*
X66578346Y-52711089D01*
X66679887Y-52698295D01*
X66776673Y-52665163D01*
X66866105Y-52612670D01*
X66945586Y-52541793D01*
X67012520Y-52453510D01*
X67041174Y-52399365D01*
X67071606Y-52305346D01*
X67082178Y-52207797D01*
X67073872Y-52109849D01*
X67047670Y-52014636D01*
X67004557Y-51925289D01*
X66945514Y-51844943D01*
X66871524Y-51776729D01*
X66783572Y-51723780D01*
X66769569Y-51717494D01*
X66671223Y-51686869D01*
X66569871Y-51676687D01*
X66468967Y-51686007D01*
X66371968Y-51713885D01*
X66282332Y-51759381D01*
X66203515Y-51821551D01*
X66138973Y-51899455D01*
X66121203Y-51927984D01*
X66077551Y-52021407D01*
X66054695Y-52119299D01*
X66051327Y-52226544D01*
X65556088Y-52226544D01*
X65552301Y-52170430D01*
X65555862Y-52080760D01*
X65578543Y-51930481D01*
X65621295Y-51788512D01*
X65683105Y-51656527D01*
X65762963Y-51536202D01*
X65859857Y-51429213D01*
X65972777Y-51337233D01*
X66100710Y-51261940D01*
X66170561Y-51229301D01*
X66245699Y-51200084D01*
X66317351Y-51180592D01*
X66393834Y-51168655D01*
X66483469Y-51162103D01*
X66501281Y-51161435D01*
X66640482Y-51167873D01*
X66770865Y-51195549D01*
X66893081Y-51244653D01*
X67007778Y-51315375D01*
X67031912Y-51332577D01*
X67056758Y-51348920D01*
X67069189Y-51355234D01*
X67070097Y-51351204D01*
X67071546Y-51327397D01*
X67072873Y-51284274D01*
X67074042Y-51224199D01*
X67075018Y-51149537D01*
X67075768Y-51062651D01*
X67076257Y-50965906D01*
X67076449Y-50861666D01*
X67076597Y-50368098D01*
X67584301Y-50878124D01*
X67584214Y-51569838D01*
X67584211Y-51581574D01*
X67583950Y-51732048D01*
X67583286Y-51869320D01*
X67582242Y-51991976D01*
X67580839Y-52098605D01*
X67579100Y-52187794D01*
X67578516Y-52207797D01*
X67577047Y-52258131D01*
X67574702Y-52308203D01*
G37*
X67574702Y-52308203D02*
X67572089Y-52336598D01*
X67563220Y-52383048D01*
X67525667Y-52510208D01*
X67470501Y-52636071D01*
X67400809Y-52754253D01*
X67319678Y-52858373D01*
X67311284Y-52867539D01*
X67202972Y-52967865D01*
X67080552Y-53051862D01*
X66947379Y-53117841D01*
X66806811Y-53164116D01*
X66662203Y-53188997D01*
X66561957Y-53193480D01*
X66413536Y-53182081D01*
X66270117Y-53149828D01*
X66133881Y-53097805D01*
X66007006Y-53027091D01*
X65891673Y-52938769D01*
X65790060Y-52833920D01*
X65704348Y-52713627D01*
X65647093Y-52606708D01*
X65593948Y-52467472D01*
X65562592Y-52322908D01*
X65556088Y-52226544D01*
X66051327Y-52226544D01*
X66051609Y-52231834D01*
X66055927Y-52287137D01*
X66063284Y-52329429D01*
X66075929Y-52368037D01*
X66096110Y-52412283D01*
X66117598Y-52450610D01*
X66159083Y-52509404D01*
X66207140Y-52564860D01*
X66256463Y-52611054D01*
X66301749Y-52642058D01*
X66317916Y-52649834D01*
X66358821Y-52667194D01*
X66401818Y-52683280D01*
X66474645Y-52702568D01*
X66578346Y-52711089D01*
X66679887Y-52698295D01*
X66776673Y-52665163D01*
X66866105Y-52612670D01*
X66945586Y-52541793D01*
X67012520Y-52453510D01*
X67041174Y-52399365D01*
X67071606Y-52305346D01*
X67082178Y-52207797D01*
X67073872Y-52109849D01*
X67047670Y-52014636D01*
X67004557Y-51925289D01*
X66945514Y-51844943D01*
X66871524Y-51776729D01*
X66783572Y-51723780D01*
X66769569Y-51717494D01*
X66671223Y-51686869D01*
X66569871Y-51676687D01*
X66468967Y-51686007D01*
X66371968Y-51713885D01*
X66282332Y-51759381D01*
X66203515Y-51821551D01*
X66138973Y-51899455D01*
X66121203Y-51927984D01*
X66077551Y-52021407D01*
X66054695Y-52119299D01*
X66051327Y-52226544D01*
X65556088Y-52226544D01*
X65552301Y-52170430D01*
X65555862Y-52080760D01*
X65578543Y-51930481D01*
X65621295Y-51788512D01*
X65683105Y-51656527D01*
X65762963Y-51536202D01*
X65859857Y-51429213D01*
X65972777Y-51337233D01*
X66100710Y-51261940D01*
X66170561Y-51229301D01*
X66245699Y-51200084D01*
X66317351Y-51180592D01*
X66393834Y-51168655D01*
X66483469Y-51162103D01*
X66501281Y-51161435D01*
X66640482Y-51167873D01*
X66770865Y-51195549D01*
X66893081Y-51244653D01*
X67007778Y-51315375D01*
X67031912Y-51332577D01*
X67056758Y-51348920D01*
X67069189Y-51355234D01*
X67070097Y-51351204D01*
X67071546Y-51327397D01*
X67072873Y-51284274D01*
X67074042Y-51224199D01*
X67075018Y-51149537D01*
X67075768Y-51062651D01*
X67076257Y-50965906D01*
X67076449Y-50861666D01*
X67076597Y-50368098D01*
X67584301Y-50878124D01*
X67584214Y-51569838D01*
X67584211Y-51581574D01*
X67583950Y-51732048D01*
X67583286Y-51869320D01*
X67582242Y-51991976D01*
X67580839Y-52098605D01*
X67579100Y-52187794D01*
X67578516Y-52207797D01*
X67577047Y-52258131D01*
X67574702Y-52308203D01*
X69281483Y-51995883D02*
X68478537Y-51193183D01*
X68478537Y-51193183D02*
X68190169Y-51196277D01*
X68190169Y-51196277D02*
X67901801Y-51199370D01*
X67901801Y-51199370D02*
X68749025Y-52059507D01*
X68749025Y-52059507D02*
X68866950Y-52179230D01*
X68866950Y-52179230D02*
X68981749Y-52295779D01*
X68981749Y-52295779D02*
X69092203Y-52407919D01*
X69092203Y-52407919D02*
X69197095Y-52514412D01*
X69197095Y-52514412D02*
X69295207Y-52614023D01*
X69295207Y-52614023D02*
X69385322Y-52705516D01*
X69385322Y-52705516D02*
X69466221Y-52787653D01*
X69466221Y-52787653D02*
X69536688Y-52859198D01*
X69536688Y-52859198D02*
X69595504Y-52918916D01*
X69595504Y-52918916D02*
X69641451Y-52965570D01*
X69641451Y-52965570D02*
X69673312Y-52997923D01*
X69673312Y-52997923D02*
X69687093Y-53011919D01*
X69687093Y-53011919D02*
X69777937Y-53104195D01*
X69777937Y-53104195D02*
X69777937Y-50362325D01*
X69777937Y-50362325D02*
X69281483Y-50362325D01*
X69281483Y-50362325D02*
X69281483Y-51995883D01*
X69281483Y-51995883D02*
X69281483Y-51995883D01*
G36*
X69777937Y-53104195D02*
G01*
X69687093Y-53011919D01*
X69673312Y-52997923D01*
X69641451Y-52965570D01*
X69595504Y-52918916D01*
X69536688Y-52859198D01*
X69466221Y-52787653D01*
X69385322Y-52705516D01*
X69295207Y-52614023D01*
X69197095Y-52514412D01*
X69092203Y-52407919D01*
X68981749Y-52295779D01*
X68866950Y-52179230D01*
X68749025Y-52059507D01*
X67901801Y-51199370D01*
X68190169Y-51196277D01*
X68478537Y-51193183D01*
X69281483Y-51995883D01*
X69281483Y-50362325D01*
X69777937Y-50362325D01*
X69777937Y-53104195D01*
G37*
X69777937Y-53104195D02*
X69687093Y-53011919D01*
X69673312Y-52997923D01*
X69641451Y-52965570D01*
X69595504Y-52918916D01*
X69536688Y-52859198D01*
X69466221Y-52787653D01*
X69385322Y-52705516D01*
X69295207Y-52614023D01*
X69197095Y-52514412D01*
X69092203Y-52407919D01*
X68981749Y-52295779D01*
X68866950Y-52179230D01*
X68749025Y-52059507D01*
X67901801Y-51199370D01*
X68190169Y-51196277D01*
X68478537Y-51193183D01*
X69281483Y-51995883D01*
X69281483Y-50362325D01*
X69777937Y-50362325D01*
X69777937Y-53104195D01*
D10*
%TO.C,D12*%
X79786598Y-76579417D02*
X78811583Y-77397552D01*
X78811583Y-77397552D02*
X79708158Y-77475992D01*
X79708158Y-77475992D02*
X79786598Y-76579417D01*
G36*
X79708158Y-77475992D02*
G01*
X78811583Y-77397552D01*
X79786598Y-76579417D01*
X79708158Y-77475992D01*
G37*
X79708158Y-77475992D02*
X78811583Y-77397552D01*
X79786598Y-76579417D01*
X79708158Y-77475992D01*
%TO.C,D16*%
X44396985Y-24897839D02*
X43496985Y-25797839D01*
X43496985Y-25797839D02*
X44396985Y-25797839D01*
X44396985Y-25797839D02*
X44396985Y-24897839D01*
G36*
X44396985Y-25797839D02*
G01*
X43496985Y-25797839D01*
X44396985Y-24897839D01*
X44396985Y-25797839D01*
G37*
X44396985Y-25797839D02*
X43496985Y-25797839D01*
X44396985Y-24897839D01*
X44396985Y-25797839D01*
%TO.C,D8*%
X62396983Y-52031838D02*
X61496983Y-52931838D01*
X61496983Y-52931838D02*
X62396983Y-52931838D01*
X62396983Y-52931838D02*
X62396983Y-52031838D01*
G36*
X62396983Y-52931838D02*
G01*
X61496983Y-52931838D01*
X62396983Y-52031838D01*
X62396983Y-52931838D01*
G37*
X62396983Y-52931838D02*
X61496983Y-52931838D01*
X62396983Y-52031838D01*
X62396983Y-52931838D01*
%TO.C,D2*%
X62396984Y-17897839D02*
X61496984Y-18797839D01*
X61496984Y-18797839D02*
X62396984Y-18797839D01*
X62396984Y-18797839D02*
X62396984Y-17897839D01*
G36*
X62396984Y-18797839D02*
G01*
X61496984Y-18797839D01*
X62396984Y-17897839D01*
X62396984Y-18797839D01*
G37*
X62396984Y-18797839D02*
X61496984Y-18797839D01*
X62396984Y-17897839D01*
X62396984Y-18797839D01*
%TO.C,D15*%
X99609854Y-80823901D02*
X98507584Y-81460297D01*
X98507584Y-81460297D02*
X99376917Y-81693234D01*
X99376917Y-81693234D02*
X99609854Y-80823901D01*
G36*
X99376917Y-81693234D02*
G01*
X98507584Y-81460297D01*
X99609854Y-80823901D01*
X99376917Y-81693234D01*
G37*
X99376917Y-81693234D02*
X98507584Y-81460297D01*
X99609854Y-80823901D01*
X99376917Y-81693234D01*
%TO.C,D11*%
X80396985Y-57365840D02*
X79496985Y-58265840D01*
X79496985Y-58265840D02*
X80396985Y-58265840D01*
X80396985Y-58265840D02*
X80396985Y-57365840D01*
G36*
X80396985Y-58265840D02*
G01*
X79496985Y-58265840D01*
X80396985Y-57365840D01*
X80396985Y-58265840D01*
G37*
X80396985Y-58265840D02*
X79496985Y-58265840D01*
X80396985Y-57365840D01*
X80396985Y-58265840D01*
D14*
%TO.C,U2*%
X104056984Y-25834589D02*
X104056984Y-58854589D01*
X104056984Y-58854589D02*
X121836984Y-58854589D01*
X106596984Y-30914589D02*
X104056984Y-30914589D01*
X106596984Y-28374589D02*
X104056984Y-28374589D01*
X121836984Y-25834589D02*
X104056984Y-25834589D01*
X121836984Y-58854589D02*
X121836984Y-25834589D01*
X106596984Y-28374589D02*
X106596984Y-30914589D01*
D11*
X118791619Y-34263619D02*
X118791619Y-34363619D01*
X118791619Y-34363619D02*
X119291619Y-34363619D01*
X119291619Y-34363619D02*
X119291619Y-34263619D01*
X119291619Y-34263619D02*
X118791619Y-34263619D01*
G36*
X119291619Y-34363619D02*
G01*
X118791619Y-34363619D01*
X118791619Y-34263619D01*
X119291619Y-34263619D01*
X119291619Y-34363619D01*
G37*
X119291619Y-34363619D02*
X118791619Y-34363619D01*
X118791619Y-34263619D01*
X119291619Y-34263619D01*
X119291619Y-34363619D01*
X118791619Y-34263619D02*
X118791619Y-34563619D01*
X118791619Y-34563619D02*
X118891619Y-34563619D01*
X118891619Y-34563619D02*
X118891619Y-34263619D01*
X118891619Y-34263619D02*
X118791619Y-34263619D01*
G36*
X118891619Y-34563619D02*
G01*
X118791619Y-34563619D01*
X118791619Y-34263619D01*
X118891619Y-34263619D01*
X118891619Y-34563619D01*
G37*
X118891619Y-34563619D02*
X118791619Y-34563619D01*
X118791619Y-34263619D01*
X118891619Y-34263619D01*
X118891619Y-34563619D01*
X118991619Y-34663619D02*
X118991619Y-34763619D01*
X118991619Y-34763619D02*
X119091619Y-34763619D01*
X119091619Y-34763619D02*
X119091619Y-34663619D01*
X119091619Y-34663619D02*
X118991619Y-34663619D01*
G36*
X119091619Y-34763619D02*
G01*
X118991619Y-34763619D01*
X118991619Y-34663619D01*
X119091619Y-34663619D01*
X119091619Y-34763619D01*
G37*
X119091619Y-34763619D02*
X118991619Y-34763619D01*
X118991619Y-34663619D01*
X119091619Y-34663619D01*
X119091619Y-34763619D01*
X118791619Y-34863619D02*
X118791619Y-35063619D01*
X118791619Y-35063619D02*
X118891619Y-35063619D01*
X118891619Y-35063619D02*
X118891619Y-34863619D01*
X118891619Y-34863619D02*
X118791619Y-34863619D01*
G36*
X118891619Y-35063619D02*
G01*
X118791619Y-35063619D01*
X118791619Y-34863619D01*
X118891619Y-34863619D01*
X118891619Y-35063619D01*
G37*
X118891619Y-35063619D02*
X118791619Y-35063619D01*
X118791619Y-34863619D01*
X118891619Y-34863619D01*
X118891619Y-35063619D01*
X119191619Y-34263619D02*
X119191619Y-35063619D01*
X119191619Y-35063619D02*
X119291619Y-35063619D01*
X119291619Y-35063619D02*
X119291619Y-34263619D01*
X119291619Y-34263619D02*
X119191619Y-34263619D01*
G36*
X119291619Y-35063619D02*
G01*
X119191619Y-35063619D01*
X119191619Y-34263619D01*
X119291619Y-34263619D01*
X119291619Y-35063619D01*
G37*
X119291619Y-35063619D02*
X119191619Y-35063619D01*
X119191619Y-34263619D01*
X119291619Y-34263619D01*
X119291619Y-35063619D01*
D10*
%TO.C,D14*%
X80396985Y-40347840D02*
X79496985Y-41247840D01*
X79496985Y-41247840D02*
X80396985Y-41247840D01*
X80396985Y-41247840D02*
X80396985Y-40347840D01*
G36*
X80396985Y-41247840D02*
G01*
X79496985Y-41247840D01*
X80396985Y-40347840D01*
X80396985Y-41247840D01*
G37*
X80396985Y-41247840D02*
X79496985Y-41247840D01*
X80396985Y-40347840D01*
X80396985Y-41247840D01*
%TO.C,D10*%
X44396985Y-58889838D02*
X43496985Y-59789838D01*
X43496985Y-59789838D02*
X44396985Y-59789838D01*
X44396985Y-59789838D02*
X44396985Y-58889838D01*
G36*
X44396985Y-59789838D02*
G01*
X43496985Y-59789838D01*
X44396985Y-58889838D01*
X44396985Y-59789838D01*
G37*
X44396985Y-59789838D02*
X43496985Y-59789838D01*
X44396985Y-58889838D01*
X44396985Y-59789838D01*
%TO.C,D1*%
X26396985Y-36897839D02*
X25496985Y-37797839D01*
X25496985Y-37797839D02*
X26396985Y-37797839D01*
X26396985Y-37797839D02*
X26396985Y-36897839D01*
G36*
X26396985Y-37797839D02*
G01*
X25496985Y-37797839D01*
X26396985Y-36897839D01*
X26396985Y-37797839D01*
G37*
X26396985Y-37797839D02*
X25496985Y-37797839D01*
X26396985Y-36897839D01*
X26396985Y-37797839D01*
%TO.C,D9*%
X98376985Y-59905839D02*
X97476985Y-60805839D01*
X97476985Y-60805839D02*
X98376985Y-60805839D01*
X98376985Y-60805839D02*
X98376985Y-59905839D01*
G36*
X98376985Y-60805839D02*
G01*
X97476985Y-60805839D01*
X98376985Y-59905839D01*
X98376985Y-60805839D01*
G37*
X98376985Y-60805839D02*
X97476985Y-60805839D01*
X98376985Y-59905839D01*
X98376985Y-60805839D01*
%TO.C,D17*%
X80396985Y-23397839D02*
X79496985Y-24297839D01*
X79496985Y-24297839D02*
X80396985Y-24297839D01*
X80396985Y-24297839D02*
X80396985Y-23397839D01*
G36*
X80396985Y-24297839D02*
G01*
X79496985Y-24297839D01*
X80396985Y-23397839D01*
X80396985Y-24297839D01*
G37*
X80396985Y-24297839D02*
X79496985Y-24297839D01*
X80396985Y-23397839D01*
X80396985Y-24297839D01*
%TO.C,D4*%
X26396984Y-53947839D02*
X25496984Y-54847839D01*
X25496984Y-54847839D02*
X26396984Y-54847839D01*
X26396984Y-54847839D02*
X26396984Y-53947839D01*
G36*
X26396984Y-54847839D02*
G01*
X25496984Y-54847839D01*
X26396984Y-53947839D01*
X26396984Y-54847839D01*
G37*
X26396984Y-54847839D02*
X25496984Y-54847839D01*
X26396984Y-53947839D01*
X26396984Y-54847839D01*
%TO.C,D3*%
X98396984Y-25897839D02*
X97496984Y-26797839D01*
X97496984Y-26797839D02*
X98396984Y-26797839D01*
X98396984Y-26797839D02*
X98396984Y-25897839D01*
G36*
X98396984Y-26797839D02*
G01*
X97496984Y-26797839D01*
X98396984Y-25897839D01*
X98396984Y-26797839D01*
G37*
X98396984Y-26797839D02*
X97496984Y-26797839D01*
X98396984Y-25897839D01*
X98396984Y-26797839D01*
%TO.C,D7*%
X26396985Y-70897839D02*
X25496985Y-71797839D01*
X25496985Y-71797839D02*
X26396985Y-71797839D01*
X26396985Y-71797839D02*
X26396985Y-70897839D01*
G36*
X26396985Y-71797839D02*
G01*
X25496985Y-71797839D01*
X26396985Y-70897839D01*
X26396985Y-71797839D01*
G37*
X26396985Y-71797839D02*
X25496985Y-71797839D01*
X26396985Y-70897839D01*
X26396985Y-71797839D01*
%TO.C,D5*%
X62396985Y-35013839D02*
X61496985Y-35913839D01*
X61496985Y-35913839D02*
X62396985Y-35913839D01*
X62396985Y-35913839D02*
X62396985Y-35013839D01*
G36*
X62396985Y-35913839D02*
G01*
X61496985Y-35913839D01*
X62396985Y-35013839D01*
X62396985Y-35913839D01*
G37*
X62396985Y-35913839D02*
X61496985Y-35913839D01*
X62396985Y-35013839D01*
X62396985Y-35913839D01*
%TO.C,D6*%
X98376984Y-42887839D02*
X97476984Y-43787839D01*
X97476984Y-43787839D02*
X98376984Y-43787839D01*
X98376984Y-43787839D02*
X98376984Y-42887839D01*
G36*
X98376984Y-43787839D02*
G01*
X97476984Y-43787839D01*
X98376984Y-42887839D01*
X98376984Y-43787839D01*
G37*
X98376984Y-43787839D02*
X97476984Y-43787839D01*
X98376984Y-42887839D01*
X98376984Y-43787839D01*
%TO.C,D13*%
X44396985Y-41871839D02*
X43496985Y-42771839D01*
X43496985Y-42771839D02*
X44396985Y-42771839D01*
X44396985Y-42771839D02*
X44396985Y-41871839D01*
G36*
X44396985Y-42771839D02*
G01*
X43496985Y-42771839D01*
X44396985Y-41871839D01*
X44396985Y-42771839D01*
G37*
X44396985Y-42771839D02*
X43496985Y-42771839D01*
X44396985Y-41871839D01*
X44396985Y-42771839D01*
D11*
%TO.C,J1*%
X108146985Y-69777840D02*
X108146985Y-75877840D01*
X120246985Y-70027840D02*
X122246985Y-70027840D01*
X120246985Y-69777840D02*
X108146985Y-69777840D01*
X120246985Y-69777840D02*
X120246985Y-75877840D01*
X122246985Y-70027840D02*
X122246985Y-75627840D01*
X120246985Y-75627840D02*
X122246985Y-75627840D01*
X120246985Y-75877840D02*
X108146985Y-75877840D01*
%TD*%
D15*
%TO.C,U2*%
X105326984Y-29644589D03*
D16*
X105326984Y-32184589D03*
X105326984Y-34724589D03*
X105326984Y-37264589D03*
X105326984Y-39804589D03*
X105326984Y-42344589D03*
X105326984Y-44884589D03*
X105326984Y-47424589D03*
X105326984Y-49964589D03*
X105326984Y-52504589D03*
X105326984Y-55044589D03*
X105555584Y-57584589D03*
X120566984Y-57584589D03*
X120566984Y-55044589D03*
X120566984Y-52504589D03*
X120566984Y-49964589D03*
X120566984Y-47424589D03*
X120566984Y-44884589D03*
X120566984Y-42344589D03*
X120566984Y-39804589D03*
X120566984Y-37264589D03*
X120566984Y-34724589D03*
X120566984Y-32184589D03*
X120566984Y-29644589D03*
X107866984Y-57584589D03*
X110406984Y-57584589D03*
X112946984Y-57584589D03*
X115486984Y-57584589D03*
X118026984Y-57584589D03*
%TD*%
D17*
%TO.C,OL2*%
X116556985Y-64377838D03*
X114016985Y-64377838D03*
X111476985Y-64377838D03*
X108936985Y-64377838D03*
%TD*%
M02*
