M48
; DRILL file {KiCad (6.0.0)} date Thu May  5 22:03:03 2022
; FORMAT={-:-/ absolute / inch / decimal}
; #@! TF.CreationDate,2022-05-05T22:03:03-07:00
; #@! TF.GenerationSoftware,Kicad,Pcbnew,(6.0.0)
; #@! TF.FileFunction,NonPlated,1,2,NPTH
FMAT,2
INCH
; #@! TA.AperFunction,NonPlated,NPTH,ComponentDrill
T1C0.0315
; #@! TA.AperFunction,NonPlated,NPTH,ComponentDrill
T2C0.0472
; #@! TA.AperFunction,NonPlated,NPTH,ComponentDrill
T3C0.0630
; #@! TA.AperFunction,NonPlated,NPTH,ComponentDrill
T4C0.0669
; #@! TA.AperFunction,NonPlated,NPTH,ComponentDrill
T5C0.1339
%
G90
G05
T1
X4.3956Y-2.8672
X4.3963Y-2.868
X4.6711Y-2.8672
X4.6718Y-2.868
T2
X2.9536Y-0.5642
T3
X4.5678Y-3.8371
X4.7664Y-3.4196
T4
X0.6574Y-1.6133
X0.6574Y-2.2826
X0.6574Y-2.9519
X1.0904Y-1.6133
X1.0904Y-2.2826
X1.0904Y-2.9519
X1.366Y-1.1409
X1.366Y-1.8091
X1.366Y-2.4791
X1.7991Y-1.1409
X1.7991Y-1.8091
X1.7991Y-2.4791
X2.0747Y-2.2091
X2.0747Y-0.8653
X2.0747Y-1.5391
X2.5078Y-2.2091
X2.5078Y-0.8653
X2.5078Y-1.5391
X2.7468Y-3.1417
X2.7833Y-1.0818
X2.7833Y-1.7491
X2.7833Y-2.4191
X3.1782Y-3.1794
X3.2164Y-1.0818
X3.2164Y-1.7491
X3.2164Y-2.4191
X3.4912Y-1.8491
X3.4912Y-2.5191
X3.492Y-1.1802
X3.5112Y-3.2384
X3.9243Y-1.8491
X3.9243Y-2.5191
X3.9251Y-1.1802
X3.9295Y-3.3504
T5
X0.8739Y-1.6133
X0.8739Y-2.2826
X0.8739Y-2.9519
X1.5826Y-1.1409
X1.5826Y-1.8091
X1.5826Y-2.4791
X2.2912Y-2.2091
X2.2912Y-0.8653
X2.2912Y-1.5391
X2.9625Y-3.1605
X2.9999Y-1.0818
X2.9999Y-1.7491
X2.9999Y-2.4191
X3.7078Y-1.8491
X3.7078Y-2.5191
X3.7085Y-1.1802
X3.7204Y-3.2944
T0
M30
