M48
; DRILL file {KiCad (6.0.0)} date Thu May  5 22:03:03 2022
; FORMAT={-:-/ absolute / inch / decimal}
; #@! TF.CreationDate,2022-05-05T22:03:03-07:00
; #@! TF.GenerationSoftware,Kicad,Pcbnew,(6.0.0)
; #@! TF.FileFunction,Plated,1,2,PTH
FMAT,2
INCH
; #@! TA.AperFunction,Plated,PTH,ViaDrill
T1C0.0157
; #@! TA.AperFunction,Plated,PTH,ComponentDrill
T2C0.0300
; #@! TA.AperFunction,Plated,PTH,ComponentDrill
T3C0.0320
; #@! TA.AperFunction,Plated,PTH,ComponentDrill
T4C0.0354
; #@! TA.AperFunction,Plated,PTH,ComponentDrill
T5C0.0390
; #@! TA.AperFunction,Plated,PTH,ComponentDrill
T6C0.0394
; #@! TA.AperFunction,Plated,PTH,ComponentDrill
T7C0.0430
; #@! TA.AperFunction,Plated,PTH,ComponentDrill
T8C0.0591
; #@! TA.AperFunction,Plated,PTH,ComponentDrill
T9C0.0866
%
G90
G05
T1
X0.6515Y-2.0523
X0.6948Y-1.9991
X0.6987Y-1.2905
X0.7007Y-1.383
X0.7263Y-1.4991
X0.7715Y-1.3239
X0.7715Y-1.9991
X0.7715Y-2.6133
X0.7735Y-2.8436
X0.7952Y-1.9657
X0.805Y-2.6546
X0.956Y-2.1921
X0.9619Y-2.5858
X0.9763Y-0.9853
X0.9763Y-2.6546
X0.9763Y-1.2885
X0.9782Y-1.9637
X1.0603Y-2.1153
X1.0997Y-2.1901
X1.1647Y-2.515
X1.1686Y-1.9657
X1.206Y-2.5346
X1.206Y-1.8457
X1.37Y-2.2511
X1.3936Y-1.5838
X1.3936Y-1.7058
X1.3975Y-1.0542
X1.3975Y-0.9125
X1.4763Y-2.7826
X1.4782Y-1.7393
X1.4802Y-1.0247
X1.4802Y-0.8574
X1.4802Y-1.5188
X1.4802Y-2.3653
X1.4815Y-2.1911
X1.584Y-1.9067
X1.645Y-1.9618
X1.7085Y-1.0818
X1.7125Y-2.8436
X1.7454Y-2.8811
X1.7513Y-2.7472
X1.7853Y-2.3653
X1.7991Y-1.6389
X1.8089Y-1.7039
X1.8247Y-2.3062
X1.8542Y-1.7039
X2.0938Y-0.7315
X2.1081Y-1.8889
X2.1081Y-1.9814
X2.1239Y-1.2196
X2.1239Y-1.3082
X2.1889Y-2.1271
X2.1908Y-0.5818
X2.1928Y-1.9224
X2.1928Y-1.2511
X2.2926Y-2.7
X2.3674Y-1.6606
X2.3694Y-0.9972
X2.4507Y-1.8928
X2.4566Y-1.2216
X2.4625Y-0.694
X2.4723Y-1.3692
X2.5097Y-0.7787
X2.5269Y-2.7354
X2.58Y-1.1862
X2.6686Y-0.511
X2.7204Y-2.4893
X2.7204Y-2.9086
X2.7696Y-0.8554
X2.7696Y-0.9972
X2.7814Y-1.6763
X2.7833Y-1.5208
X2.7926Y-2.0602
X2.7946Y-2.7709
X2.8227Y-2.129
X2.8595Y-2.3043
X2.871Y-3.0425
X2.8805Y-2.837
X2.8975Y-0.9637
X2.8975Y-1.4617
X2.8975Y-1.6389
X2.8995Y-2.129
X2.8995Y-0.7944
X2.9068Y-2.3811
X2.9186Y-2.5799
X3.057Y-0.7491
X3.0761Y-1.9067
X3.0918Y-1.0366
X3.1239Y-0.9952
X3.1502Y-2.9464
X3.1863Y-0.8732
X3.2144Y-1.5798
X3.2302Y-2.3102
X3.2637Y-1.5897
X3.2676Y-2.3495
X3.2749Y-0.8732
X3.2926Y-1.635
X3.3084Y-1.2315
X3.3089Y-1.6861
X3.3089Y-2.3279
X3.3713Y-3.3517
X3.3766Y-2.9326
X3.3975Y-2.3535
X3.3989Y-1.8594
X3.4019Y-1.2522
X3.4501Y-1.009
X3.4528Y-3.0474
X3.4757Y-2.3122
X3.4792Y-1.5985
X3.5078Y-0.8948
X3.5294Y-1.6231
X3.5333Y-2.2885
X3.5333Y-2.194
X3.5333Y-2.3515
X3.5668Y-1.5227
X3.584Y-2.8472
X3.6054Y-1.5613
X3.6054Y-2.2342
X3.6062Y-0.8948
X3.6456Y-1.5287
X3.7086Y-2.977
X3.7828Y-1.3299
X3.7867Y-2.639
X3.7965Y-1.4932
X3.797Y-1.9987
X3.8241Y-2.698
X3.83Y-1.4047
X3.8345Y-2.192
X3.87Y-1.5306
X3.8877Y-1.6783
X3.8896Y-1.005
X3.917Y-3.234
X3.9245Y-2.2177
X3.933Y-0.9499
X3.9554Y-2.462
X3.9633Y-2.2494
X3.9777Y-0.9244
X3.9895Y-2.7512
X3.9895Y-2.4283
X4.0367Y-2.7866
X4.0367Y-2.4283
X4.0741Y-2.4539
X4.0741Y-2.826
X4.1475Y-0.82
X4.2402Y-3.0709
X4.2637Y-2.6369
X4.3005Y-1.5661
X4.3501Y-3.4051
X4.3787Y-3.4836
X4.3871Y-1.2669
X4.3891Y-2.6075
X4.3969Y-1.6665
X4.426Y-2.6449
X4.4265Y-0.948
X4.4658Y-1.137
X4.5032Y-1.0996
X4.5387Y-1.0631
X4.5406Y-2.6075
X4.5767Y-1.0346
X4.5899Y-2.6449
X4.6101Y-1.0011
X4.6857Y-3.0585
X4.7283Y-3.0984
X4.7887Y-2.7039
T2
X4.0708Y-3.677
X4.1041Y-3.6056
X4.291Y-3.2131
X4.3243Y-3.1418
T3
X4.2889Y-2.4629
X4.2889Y-2.5346
X4.3889Y-2.4629
X4.3889Y-2.5346
X4.4889Y-2.4629
X4.4889Y-2.5346
X4.5889Y-2.4629
X4.5889Y-2.5346
T5
X2.8552Y-0.6118
X3.052Y-0.6118
T6
X4.2053Y-3.668
X4.2959Y-3.7103
X4.3866Y-3.7526
X4.4039Y-3.2506
X4.4772Y-3.7948
X4.4945Y-3.2928
X4.5852Y-3.3351
X4.6758Y-3.3773
T7
X4.1467Y-1.1671
X4.1467Y-1.2671
X4.1467Y-1.3671
X4.1467Y-1.4671
X4.1467Y-1.5671
X4.1467Y-1.6671
X4.1467Y-1.7671
X4.1467Y-1.8671
X4.1467Y-1.9671
X4.1467Y-2.0671
X4.1467Y-2.1671
X4.1557Y-2.2671
X4.2467Y-2.2671
X4.3467Y-2.2671
X4.4467Y-2.2671
X4.5467Y-2.2671
X4.6467Y-2.2671
X4.7467Y-1.1671
X4.7467Y-1.2671
X4.7467Y-1.3671
X4.7467Y-1.4671
X4.7467Y-1.5671
X4.7467Y-1.6671
X4.7467Y-1.7671
X4.7467Y-1.8671
X4.7467Y-1.9671
X4.7467Y-2.0671
X4.7467Y-2.1671
X4.7467Y-2.2671
T8
X0.677Y-1.7629
X0.677Y-2.4322
X0.677Y-3.1015
X0.8739Y-1.8456
X0.8739Y-2.5149
X0.8739Y-3.1842
X1.0707Y-1.7629
X1.0707Y-2.4322
X1.0707Y-3.1015
X1.3857Y-1.2905
X1.3857Y-1.9587
X1.3857Y-2.6287
X1.5826Y-1.3731
X1.5826Y-2.0414
X1.5826Y-2.7114
X1.7794Y-1.2905
X1.7794Y-1.9587
X1.7794Y-2.6287
X2.0944Y-2.3587
X2.0944Y-1.0149
X2.0944Y-1.6887
X2.2912Y-2.4414
X2.2912Y-1.0976
X2.2912Y-1.7714
X2.4881Y-2.3587
X2.4881Y-1.0149
X2.4881Y-1.6887
X2.7533Y-3.2924
X2.803Y-1.2314
X2.803Y-1.8987
X2.803Y-2.5687
X2.9422Y-3.3919
X2.9999Y-1.3141
X2.9999Y-1.9814
X2.9999Y-2.6514
X3.1455Y-3.3267
X3.1967Y-1.2314
X3.1967Y-1.8987
X3.1967Y-2.5687
X3.4915Y-3.388
X3.5109Y-1.9987
X3.5109Y-2.6687
X3.5117Y-1.3298
X3.6602Y-3.5188
X3.7078Y-2.0814
X3.7078Y-2.7514
X3.7085Y-1.4125
X3.8718Y-3.4899
X3.9046Y-1.9987
X3.9046Y-2.6687
X3.9054Y-1.3298
T9
X1.9152Y-1.4913
X2.6652Y-0.7413
X2.6652Y-2.2413
X3.4152Y-1.4913
T4
G00X4.2814Y-2.9578
M15
G01X4.2971Y-2.9578
M16
G05
G00X4.2978Y-2.7775
M15
G01X4.2821Y-2.7775
M16
G05
G00X4.3247Y-2.7767
M15
G01X4.3404Y-2.7767
M16
G05
G00X4.3411Y-2.9586
M15
G01X4.3254Y-2.9586
M16
G05
G00X4.4822Y-2.7767
M15
G01X4.4979Y-2.7767
M16
G05
G00X4.4986Y-2.9586
M15
G01X4.4829Y-2.9586
M16
G05
G00X4.6003Y-2.7767
M15
G01X4.616Y-2.7767
M16
G05
G00X4.6167Y-2.9586
M15
G01X4.601Y-2.9586
M16
G05
T0
M30
