M48
; DRILL file {KiCad (6.0.0)} date Tue Apr 19 22:23:18 2022
; FORMAT={-:-/ absolute / inch / decimal}
; #@! TF.CreationDate,2022-04-19T22:23:18-07:00
; #@! TF.GenerationSoftware,Kicad,Pcbnew,(6.0.0)
; #@! TF.FileFunction,Plated,1,2,PTH
FMAT,2
INCH
; #@! TA.AperFunction,Plated,PTH,ViaDrill
T1C0.0157
; #@! TA.AperFunction,Plated,PTH,ComponentDrill
T2C0.0320
; #@! TA.AperFunction,Plated,PTH,ComponentDrill
T3C0.0354
; #@! TA.AperFunction,Plated,PTH,ComponentDrill
T4C0.0390
; #@! TA.AperFunction,Plated,PTH,ComponentDrill
T5C0.0430
; #@! TA.AperFunction,Plated,PTH,ComponentDrill
T6C0.0591
; #@! TA.AperFunction,Plated,PTH,ComponentDrill
T7C0.0866
%
G90
G05
T1
X0.6449Y-2.0469
X0.6882Y-1.9938
X0.6921Y-1.2851
X0.6941Y-1.3777
X0.7197Y-1.4938
X0.765Y-1.3186
X0.765Y-1.9938
X0.765Y-2.608
X0.7669Y-2.8383
X0.7886Y-1.9603
X0.7984Y-2.6493
X0.9494Y-2.1868
X0.9553Y-2.5805
X0.9697Y-0.98
X0.9697Y-2.6493
X0.9697Y-1.2832
X0.9717Y-1.9584
X1.0538Y-2.11
X1.0931Y-2.1848
X1.1581Y-2.5096
X1.162Y-1.9604
X1.1994Y-2.5293
X1.1994Y-1.8403
X1.3634Y-2.2458
X1.387Y-1.5784
X1.387Y-1.7005
X1.391Y-1.0489
X1.391Y-0.9072
X1.4697Y-2.7773
X1.4717Y-1.734
X1.4736Y-1.0194
X1.4736Y-0.8521
X1.4736Y-1.5135
X1.4736Y-2.3599
X1.475Y-2.1858
X1.5774Y-1.9014
X1.6384Y-1.9565
X1.702Y-1.0765
X1.7059Y-2.8383
X1.7388Y-2.8758
X1.7447Y-2.7419
X1.7787Y-2.3599
X1.7925Y-1.6336
X1.8024Y-1.6985
X1.8181Y-2.3009
X1.8476Y-1.6985
X2.0872Y-0.7262
X2.1016Y-1.8836
X2.1016Y-1.9761
X2.1173Y-1.2143
X2.1173Y-1.3029
X2.1823Y-2.1218
X2.1843Y-0.5765
X2.1862Y-1.2458
X2.1862Y-1.917
X2.2861Y-2.6947
X2.3609Y-1.6553
X2.3628Y-0.9919
X2.4441Y-1.8875
X2.45Y-1.2162
X2.4559Y-0.6887
X2.4658Y-1.3639
X2.5032Y-0.7733
X2.5203Y-2.7301
X2.5735Y-1.1809
X2.662Y-0.5057
X2.7138Y-2.484
X2.7138Y-2.9032
X2.763Y-0.8501
X2.763Y-0.9918
X2.7748Y-1.671
X2.7768Y-1.5155
X2.7861Y-2.0549
X2.788Y-2.7655
X2.8162Y-2.1237
X2.853Y-2.299
X2.8645Y-3.0372
X2.8739Y-2.8317
X2.891Y-0.9584
X2.891Y-1.4564
X2.891Y-1.6336
X2.8929Y-0.7891
X2.8929Y-2.1237
X2.9002Y-2.3758
X2.912Y-2.5746
X3.0504Y-0.7438
X3.0695Y-1.9014
X3.0853Y-1.0313
X3.1173Y-0.9899
X3.1436Y-2.9411
X3.1798Y-0.8679
X3.2079Y-1.5745
X3.2236Y-2.3048
X3.2571Y-1.5844
X3.261Y-2.3442
X3.2683Y-0.8679
X3.2861Y-1.6297
X3.3018Y-1.2262
X3.3024Y-1.6808
X3.3024Y-2.3225
X3.3647Y-3.3463
X3.3701Y-2.9273
X3.391Y-2.3481
X3.3924Y-1.8541
X3.3953Y-1.2468
X3.4435Y-1.0037
X3.4462Y-3.0421
X3.4691Y-2.3069
X3.4726Y-1.5932
X3.5012Y-0.8895
X3.5228Y-1.6178
X3.5268Y-2.1887
X3.5268Y-2.2832
X3.5268Y-2.3462
X3.5602Y-1.5174
X3.5774Y-2.8419
X3.5988Y-1.556
X3.5988Y-2.2288
X3.5996Y-0.8895
X3.6355Y-3.1897
X3.639Y-1.5233
X3.702Y-2.9717
X3.7762Y-1.3246
X3.7801Y-2.6336
X3.7899Y-1.4879
X3.7905Y-1.9934
X3.8175Y-2.6927
X3.8235Y-1.3994
X3.828Y-2.1867
X3.8634Y-1.5253
X3.8811Y-1.6729
X3.8831Y-0.9997
X3.9104Y-3.2287
X3.9179Y-2.2124
X3.9264Y-0.9446
X3.9711Y-0.9191
X3.9829Y-2.7458
X3.9829Y-2.423
X4.0301Y-2.7813
X4.0301Y-2.423
X4.0538Y-3.2006
X4.0557Y-3.486
X4.0675Y-2.4486
X4.0675Y-2.8206
X4.141Y-0.8147
X4.2571Y-2.6316
X4.2939Y-1.5608
X4.3805Y-1.2616
X4.3825Y-2.6021
X4.3904Y-1.6612
X4.4199Y-0.9427
X4.4593Y-1.1317
X4.4782Y-3.2307
X4.4967Y-1.0943
X4.5321Y-1.0578
X4.5341Y-2.6021
X4.5701Y-1.0292
X4.5833Y-2.6395
X4.6018Y-3.2884
X4.6036Y-0.9958
X4.6462Y-3.5281
X4.6791Y-3.0531
X4.7093Y-3.5766
X4.7821Y-2.6986
T2
X4.2823Y-2.4576
X4.2823Y-2.5292
X4.3823Y-2.4576
X4.3823Y-2.5292
X4.4823Y-2.4576
X4.4823Y-2.5292
X4.5823Y-2.4576
X4.5823Y-2.5292
T4
X2.8486Y-0.6065
X3.0455Y-0.6065
T5
X4.1402Y-1.1618
X4.1402Y-1.2618
X4.1402Y-1.3618
X4.1402Y-1.4618
X4.1402Y-1.5618
X4.1402Y-1.6618
X4.1402Y-1.7618
X4.1402Y-1.8618
X4.1402Y-1.9618
X4.1402Y-2.0618
X4.1402Y-2.1618
X4.1492Y-2.2618
X4.2402Y-2.2618
X4.3402Y-2.2618
X4.4402Y-2.2618
X4.5402Y-2.2618
X4.6402Y-2.2618
X4.7402Y-1.1618
X4.7402Y-1.2618
X4.7402Y-1.3618
X4.7402Y-1.4618
X4.7402Y-1.5618
X4.7402Y-1.6618
X4.7402Y-1.7618
X4.7402Y-1.8618
X4.7402Y-1.9618
X4.7402Y-2.0618
X4.7402Y-2.1618
X4.7402Y-2.2618
T6
X0.6705Y-1.7576
X0.6705Y-2.4269
X0.6705Y-3.0962
X0.8673Y-1.8403
X0.8673Y-2.5095
X0.8673Y-3.1788
X1.0642Y-1.7576
X1.0642Y-2.4269
X1.0642Y-3.0962
X1.3791Y-1.2851
X1.3791Y-2.6234
X1.3791Y-1.9534
X1.576Y-1.3678
X1.576Y-2.7061
X1.576Y-2.0361
X1.7728Y-1.2851
X1.7728Y-2.6234
X1.7728Y-1.9534
X2.0878Y-2.3534
X2.0878Y-1.0095
X2.0878Y-1.6834
X2.2847Y-2.4361
X2.2847Y-1.0922
X2.2847Y-1.7661
X2.4815Y-2.3534
X2.4815Y-1.0095
X2.4815Y-1.6834
X2.7468Y-3.2871
X2.7965Y-1.8934
X2.7965Y-2.5634
X2.7965Y-1.2261
X2.9357Y-3.3866
X2.9933Y-1.9761
X2.9933Y-2.6461
X2.9933Y-1.3088
X3.139Y-3.3214
X3.1902Y-1.8934
X3.1902Y-2.5634
X3.1902Y-1.2261
X3.4849Y-3.3826
X3.5043Y-1.9934
X3.5043Y-2.6634
X3.5051Y-1.3245
X3.6537Y-3.5134
X3.7012Y-2.0761
X3.7012Y-2.7461
X3.702Y-1.4072
X3.8652Y-3.4845
X3.898Y-1.9934
X3.898Y-2.6634
X3.8988Y-1.3245
X4.1966Y-3.6053
X4.34Y-3.7634
X4.5534Y-3.7716
T7
X1.9087Y-1.4859
X2.6587Y-0.7359
X2.6587Y-2.2359
X3.4087Y-1.4859
T3
G00X4.2748Y-2.9525
M15
G01X4.2906Y-2.9525
M16
G05
G00X4.2913Y-2.7721
M15
G01X4.2755Y-2.7721
M16
G05
G00X4.3181Y-2.7714
M15
G01X4.3339Y-2.7714
M16
G05
G00X4.3346Y-2.9532
M15
G01X4.3188Y-2.9532
M16
G05
G00X4.4756Y-2.7714
M15
G01X4.4913Y-2.7714
M16
G05
G00X4.4921Y-2.9532
M15
G01X4.4763Y-2.9532
M16
G05
G00X4.5937Y-2.7714
M15
G01X4.6095Y-2.7714
M16
G05
G00X4.6102Y-2.9532
M15
G01X4.5944Y-2.9532
M16
G05
T0
M30
