%TF.GenerationSoftware,KiCad,Pcbnew,(6.0.0)*%
%TF.CreationDate,2022-05-06T00:59:20-07:00*%
%TF.ProjectId,half-swept,68616c66-2d73-4776-9570-742e6b696361,rev?*%
%TF.SameCoordinates,Original*%
%TF.FileFunction,Legend,Bot*%
%TF.FilePolarity,Positive*%
%FSLAX46Y46*%
G04 Gerber Fmt 4.6, Leading zero omitted, Abs format (unit mm)*
G04 Created by KiCad (PCBNEW (6.0.0)) date 2022-05-06 00:59:20*
%MOMM*%
%LPD*%
G01*
G04 APERTURE LIST*
%ADD10C,0.100000*%
%ADD11C,0.150000*%
%ADD12C,0.010000*%
%ADD13C,0.200000*%
%ADD14C,0.381000*%
%ADD15C,1.752600*%
%ADD16R,1.752600X1.752600*%
%ADD17C,1.397000*%
G04 APERTURE END LIST*
D10*
%TO.C,REF\u002A\u002A*%
X67351370Y-28557888D02*
X67351370Y-28938840D01*
X67018036Y-28700745D02*
X67875179Y-28700745D01*
X67970417Y-28748364D01*
X68018036Y-28843602D01*
X68018036Y-28938840D01*
X67970417Y-29653126D02*
X68018036Y-29557888D01*
X68018036Y-29367411D01*
X67970417Y-29272173D01*
X67875179Y-29224554D01*
X67494227Y-29224554D01*
X67398989Y-29272173D01*
X67351370Y-29367411D01*
X67351370Y-29557888D01*
X67398989Y-29653126D01*
X67494227Y-29700745D01*
X67589465Y-29700745D01*
X67684703Y-29224554D01*
X67351370Y-30129316D02*
X68018036Y-30129316D01*
X67446608Y-30129316D02*
X67398989Y-30176935D01*
X67351370Y-30272173D01*
X67351370Y-30415030D01*
X67398989Y-30510268D01*
X67494227Y-30557888D01*
X68018036Y-30557888D01*
X67351370Y-30891221D02*
X67351370Y-31272173D01*
X67018036Y-31034078D02*
X67875179Y-31034078D01*
X67970417Y-31081697D01*
X68018036Y-31176935D01*
X68018036Y-31272173D01*
X68018036Y-31605507D02*
X67351370Y-31605507D01*
X67018036Y-31605507D02*
X67065656Y-31557888D01*
X67113275Y-31605507D01*
X67065656Y-31653126D01*
X67018036Y-31605507D01*
X67113275Y-31605507D01*
X67351370Y-32081697D02*
X68018036Y-32081697D01*
X67446608Y-32081697D02*
X67398989Y-32129316D01*
X67351370Y-32224554D01*
X67351370Y-32367411D01*
X67398989Y-32462649D01*
X67494227Y-32510268D01*
X68018036Y-32510268D01*
X67351370Y-33415030D02*
X68160894Y-33415030D01*
X68256132Y-33367411D01*
X68303751Y-33319792D01*
X68351370Y-33224554D01*
X68351370Y-33081697D01*
X68303751Y-32986459D01*
X67970417Y-33415030D02*
X68018036Y-33319792D01*
X68018036Y-33129316D01*
X67970417Y-33034078D01*
X67922798Y-32986459D01*
X67827560Y-32938840D01*
X67541846Y-32938840D01*
X67446608Y-32986459D01*
X67398989Y-33034078D01*
X67351370Y-33129316D01*
X67351370Y-33319792D01*
X67398989Y-33415030D01*
X67414870Y-42511888D02*
X68414870Y-42511888D01*
X67462489Y-42511888D02*
X67414870Y-42607126D01*
X67414870Y-42797602D01*
X67462489Y-42892840D01*
X67510108Y-42940459D01*
X67605346Y-42988078D01*
X67891060Y-42988078D01*
X67986298Y-42940459D01*
X68033917Y-42892840D01*
X68081536Y-42797602D01*
X68081536Y-42607126D01*
X68033917Y-42511888D01*
X67414870Y-43845221D02*
X68081536Y-43845221D01*
X67414870Y-43416649D02*
X67938679Y-43416649D01*
X68033917Y-43464268D01*
X68081536Y-43559507D01*
X68081536Y-43702364D01*
X68033917Y-43797602D01*
X67986298Y-43845221D01*
X68033917Y-44749983D02*
X68081536Y-44654745D01*
X68081536Y-44464268D01*
X68033917Y-44369030D01*
X67986298Y-44321411D01*
X67891060Y-44273792D01*
X67605346Y-44273792D01*
X67510108Y-44321411D01*
X67462489Y-44369030D01*
X67414870Y-44464268D01*
X67414870Y-44654745D01*
X67462489Y-44749983D01*
X68081536Y-45178554D02*
X67081536Y-45178554D01*
X67700584Y-45273792D02*
X68081536Y-45559507D01*
X67414870Y-45559507D02*
X67795822Y-45178554D01*
D11*
%TO.C,U2*%
X118797321Y-42388995D02*
X119063988Y-42388995D01*
X119063988Y-42808042D02*
X119063988Y-42008042D01*
X118683035Y-42008042D01*
X117997321Y-42008042D02*
X118378274Y-42008042D01*
X118416369Y-42388995D01*
X118378274Y-42350899D01*
X118302083Y-42312804D01*
X118111607Y-42312804D01*
X118035416Y-42350899D01*
X117997321Y-42388995D01*
X117959226Y-42465185D01*
X117959226Y-42655661D01*
X117997321Y-42731852D01*
X118035416Y-42769947D01*
X118111607Y-42808042D01*
X118302083Y-42808042D01*
X118378274Y-42769947D01*
X118416369Y-42731852D01*
X118642988Y-35129947D02*
X118528702Y-35168042D01*
X118338226Y-35168042D01*
X118262035Y-35129947D01*
X118223940Y-35091852D01*
X118185845Y-35015661D01*
X118185845Y-34939471D01*
X118223940Y-34863280D01*
X118262035Y-34825185D01*
X118338226Y-34787090D01*
X118490607Y-34748995D01*
X118566797Y-34710899D01*
X118604893Y-34672804D01*
X118642988Y-34596614D01*
X118642988Y-34520423D01*
X118604893Y-34444233D01*
X118566797Y-34406138D01*
X118490607Y-34368042D01*
X118300131Y-34368042D01*
X118185845Y-34406138D01*
X117957274Y-34368042D02*
X117500131Y-34368042D01*
X117728702Y-35168042D02*
X117728702Y-34368042D01*
X117802988Y-56266138D02*
X118036321Y-56266138D01*
X118036321Y-56632804D02*
X118036321Y-55932804D01*
X117702988Y-55932804D01*
X117302988Y-55932804D02*
X117236321Y-55932804D01*
X117169655Y-55966138D01*
X117136321Y-55999471D01*
X117102988Y-56066138D01*
X117069655Y-56199471D01*
X117069655Y-56366138D01*
X117102988Y-56499471D01*
X117136321Y-56566138D01*
X117169655Y-56599471D01*
X117236321Y-56632804D01*
X117302988Y-56632804D01*
X117369655Y-56599471D01*
X117402988Y-56566138D01*
X117436321Y-56499471D01*
X117469655Y-56366138D01*
X117469655Y-56199471D01*
X117436321Y-56066138D01*
X117402988Y-55999471D01*
X117369655Y-55966138D01*
X117302988Y-55932804D01*
X118797321Y-47468995D02*
X119063988Y-47468995D01*
X119063988Y-47888042D02*
X119063988Y-47088042D01*
X118683035Y-47088042D01*
X118454464Y-47088042D02*
X117921131Y-47088042D01*
X118263988Y-47888042D01*
X108852988Y-56266138D02*
X108752988Y-56299471D01*
X108719655Y-56332804D01*
X108686321Y-56399471D01*
X108686321Y-56499471D01*
X108719655Y-56566138D01*
X108752988Y-56599471D01*
X108819655Y-56632804D01*
X109086321Y-56632804D01*
X109086321Y-55932804D01*
X108852988Y-55932804D01*
X108786321Y-55966138D01*
X108752988Y-55999471D01*
X108719655Y-56066138D01*
X108719655Y-56132804D01*
X108752988Y-56199471D01*
X108786321Y-56232804D01*
X108852988Y-56266138D01*
X109086321Y-56266138D01*
X108452988Y-55932804D02*
X107986321Y-55932804D01*
X108286321Y-56632804D01*
X119597321Y-36928042D02*
X119330655Y-37728042D01*
X119063988Y-36928042D01*
X118340178Y-37651852D02*
X118378274Y-37689947D01*
X118492559Y-37728042D01*
X118568750Y-37728042D01*
X118683035Y-37689947D01*
X118759226Y-37613757D01*
X118797321Y-37537566D01*
X118835416Y-37385185D01*
X118835416Y-37270899D01*
X118797321Y-37118518D01*
X118759226Y-37042328D01*
X118683035Y-36966138D01*
X118568750Y-36928042D01*
X118492559Y-36928042D01*
X118378274Y-36966138D01*
X118340178Y-37004233D01*
X117540178Y-37651852D02*
X117578274Y-37689947D01*
X117692559Y-37728042D01*
X117768750Y-37728042D01*
X117883035Y-37689947D01*
X117959226Y-37613757D01*
X117997321Y-37537566D01*
X118035416Y-37385185D01*
X118035416Y-37270899D01*
X117997321Y-37118518D01*
X117959226Y-37042328D01*
X117883035Y-36966138D01*
X117768750Y-36928042D01*
X117692559Y-36928042D01*
X117578274Y-36966138D01*
X117540178Y-37004233D01*
X118797321Y-44928995D02*
X119063988Y-44928995D01*
X119063988Y-45348042D02*
X119063988Y-44548042D01*
X118683035Y-44548042D01*
X118035416Y-44548042D02*
X118187797Y-44548042D01*
X118263988Y-44586138D01*
X118302083Y-44624233D01*
X118378274Y-44738518D01*
X118416369Y-44890899D01*
X118416369Y-45195661D01*
X118378274Y-45271852D01*
X118340178Y-45309947D01*
X118263988Y-45348042D01*
X118111607Y-45348042D01*
X118035416Y-45309947D01*
X117997321Y-45271852D01*
X117959226Y-45195661D01*
X117959226Y-45005185D01*
X117997321Y-44928995D01*
X118035416Y-44890899D01*
X118111607Y-44852804D01*
X118263988Y-44852804D01*
X118340178Y-44890899D01*
X118378274Y-44928995D01*
X118416369Y-45005185D01*
X111120131Y-56478042D02*
X111120131Y-55678042D01*
X110929655Y-55678042D01*
X110815369Y-55716138D01*
X110739178Y-55792328D01*
X110701083Y-55868518D01*
X110662988Y-56020899D01*
X110662988Y-56135185D01*
X110701083Y-56287566D01*
X110739178Y-56363757D01*
X110815369Y-56439947D01*
X110929655Y-56478042D01*
X111120131Y-56478042D01*
X109939178Y-55678042D02*
X110320131Y-55678042D01*
X110358226Y-56058995D01*
X110320131Y-56020899D01*
X110243940Y-55982804D01*
X110053464Y-55982804D01*
X109977274Y-56020899D01*
X109939178Y-56058995D01*
X109901083Y-56135185D01*
X109901083Y-56325661D01*
X109939178Y-56401852D01*
X109977274Y-56439947D01*
X110053464Y-56478042D01*
X110243940Y-56478042D01*
X110320131Y-56439947D01*
X110358226Y-56401852D01*
X108218178Y-34426138D02*
X108294369Y-34388042D01*
X108408655Y-34388042D01*
X108522940Y-34426138D01*
X108599131Y-34502328D01*
X108637226Y-34578518D01*
X108675321Y-34730899D01*
X108675321Y-34845185D01*
X108637226Y-34997566D01*
X108599131Y-35073757D01*
X108522940Y-35149947D01*
X108408655Y-35188042D01*
X108332464Y-35188042D01*
X108218178Y-35149947D01*
X108180083Y-35111852D01*
X108180083Y-34845185D01*
X108332464Y-34845185D01*
X107837226Y-35188042D02*
X107837226Y-34388042D01*
X107380083Y-35188042D01*
X107380083Y-34388042D01*
X106999131Y-35188042D02*
X106999131Y-34388042D01*
X106808655Y-34388042D01*
X106694369Y-34426138D01*
X106618178Y-34502328D01*
X106580083Y-34578518D01*
X106541988Y-34730899D01*
X106541988Y-34845185D01*
X106580083Y-34997566D01*
X106618178Y-35073757D01*
X106694369Y-35149947D01*
X106808655Y-35188042D01*
X106999131Y-35188042D01*
X108199131Y-40268042D02*
X108199131Y-39468042D01*
X108008655Y-39468042D01*
X107894369Y-39506138D01*
X107818178Y-39582328D01*
X107780083Y-39658518D01*
X107741988Y-39810899D01*
X107741988Y-39925185D01*
X107780083Y-40077566D01*
X107818178Y-40153757D01*
X107894369Y-40229947D01*
X108008655Y-40268042D01*
X108199131Y-40268042D01*
X106980083Y-40268042D02*
X107437226Y-40268042D01*
X107208655Y-40268042D02*
X107208655Y-39468042D01*
X107284845Y-39582328D01*
X107361035Y-39658518D01*
X107437226Y-39696614D01*
X118797321Y-39848995D02*
X119063988Y-39848995D01*
X119063988Y-40268042D02*
X119063988Y-39468042D01*
X118683035Y-39468042D01*
X118035416Y-39734709D02*
X118035416Y-40268042D01*
X118225893Y-39429947D02*
X118416369Y-40001376D01*
X117921131Y-40001376D01*
X108199131Y-50428042D02*
X108199131Y-49628042D01*
X108008655Y-49628042D01*
X107894369Y-49666138D01*
X107818178Y-49742328D01*
X107780083Y-49818518D01*
X107741988Y-49970899D01*
X107741988Y-50085185D01*
X107780083Y-50237566D01*
X107818178Y-50313757D01*
X107894369Y-50389947D01*
X108008655Y-50428042D01*
X108199131Y-50428042D01*
X107475321Y-49628042D02*
X106941988Y-49628042D01*
X107284845Y-50428042D01*
X113202988Y-56401852D02*
X113241083Y-56439947D01*
X113355369Y-56478042D01*
X113431559Y-56478042D01*
X113545845Y-56439947D01*
X113622035Y-56363757D01*
X113660131Y-56287566D01*
X113698226Y-56135185D01*
X113698226Y-56020899D01*
X113660131Y-55868518D01*
X113622035Y-55792328D01*
X113545845Y-55716138D01*
X113431559Y-55678042D01*
X113355369Y-55678042D01*
X113241083Y-55716138D01*
X113202988Y-55754233D01*
X112936321Y-55678042D02*
X112402988Y-55678042D01*
X112745845Y-56478042D01*
X119634646Y-56180435D02*
X119587506Y-56274716D01*
X119587506Y-56321857D01*
X119611076Y-56392567D01*
X119681787Y-56463278D01*
X119752497Y-56486848D01*
X119799638Y-56486848D01*
X119870348Y-56463278D01*
X120058910Y-56274716D01*
X119563935Y-55779741D01*
X119398944Y-55944733D01*
X119375374Y-56015444D01*
X119375374Y-56062584D01*
X119398944Y-56133295D01*
X119446084Y-56180435D01*
X119516795Y-56204005D01*
X119563935Y-56204005D01*
X119634646Y-56180435D01*
X119799638Y-56015444D01*
X118856829Y-56486848D02*
X118951110Y-56392567D01*
X119021820Y-56368997D01*
X119068961Y-56368997D01*
X119186812Y-56392567D01*
X119304663Y-56463278D01*
X119493225Y-56651840D01*
X119516795Y-56722550D01*
X119516795Y-56769691D01*
X119493225Y-56840402D01*
X119398944Y-56934682D01*
X119328233Y-56958253D01*
X119281093Y-56958253D01*
X119210382Y-56934682D01*
X119092531Y-56816831D01*
X119068961Y-56746121D01*
X119068961Y-56698980D01*
X119092531Y-56628270D01*
X119186812Y-56533989D01*
X119257522Y-56510418D01*
X119304663Y-56510418D01*
X119375374Y-56533989D01*
X106433952Y-56251146D02*
X106528233Y-56298286D01*
X106575374Y-56298286D01*
X106646084Y-56274716D01*
X106716795Y-56204005D01*
X106740365Y-56133295D01*
X106740365Y-56086154D01*
X106716795Y-56015444D01*
X106528233Y-55826882D01*
X106033258Y-56321857D01*
X106198250Y-56486848D01*
X106268961Y-56510418D01*
X106316101Y-56510418D01*
X106386812Y-56486848D01*
X106433952Y-56439708D01*
X106457522Y-56368997D01*
X106457522Y-56321857D01*
X106433952Y-56251146D01*
X106268961Y-56086154D01*
X106763935Y-57052534D02*
X106528233Y-56816831D01*
X106740365Y-56557559D01*
X106740365Y-56604699D01*
X106763935Y-56675410D01*
X106881787Y-56793261D01*
X106952497Y-56816831D01*
X106999638Y-56816831D01*
X107070348Y-56793261D01*
X107188199Y-56675410D01*
X107211770Y-56604699D01*
X107211770Y-56557559D01*
X107188199Y-56486848D01*
X107070348Y-56368997D01*
X106999638Y-56345427D01*
X106952497Y-56345427D01*
X118854464Y-55088995D02*
X118740178Y-55127090D01*
X118702083Y-55165185D01*
X118663988Y-55241376D01*
X118663988Y-55355661D01*
X118702083Y-55431852D01*
X118740178Y-55469947D01*
X118816369Y-55508042D01*
X119121131Y-55508042D01*
X119121131Y-54708042D01*
X118854464Y-54708042D01*
X118778274Y-54746138D01*
X118740178Y-54784233D01*
X118702083Y-54860423D01*
X118702083Y-54936614D01*
X118740178Y-55012804D01*
X118778274Y-55050899D01*
X118854464Y-55088995D01*
X119121131Y-55088995D01*
X118359226Y-54784233D02*
X118321131Y-54746138D01*
X118244940Y-54708042D01*
X118054464Y-54708042D01*
X117978274Y-54746138D01*
X117940178Y-54784233D01*
X117902083Y-54860423D01*
X117902083Y-54936614D01*
X117940178Y-55050899D01*
X118397321Y-55508042D01*
X117902083Y-55508042D01*
X108199131Y-42808042D02*
X108199131Y-42008042D01*
X108008655Y-42008042D01*
X107894369Y-42046138D01*
X107818178Y-42122328D01*
X107780083Y-42198518D01*
X107741988Y-42350899D01*
X107741988Y-42465185D01*
X107780083Y-42617566D01*
X107818178Y-42693757D01*
X107894369Y-42769947D01*
X108008655Y-42808042D01*
X108199131Y-42808042D01*
X107246750Y-42008042D02*
X107170559Y-42008042D01*
X107094369Y-42046138D01*
X107056274Y-42084233D01*
X107018178Y-42160423D01*
X106980083Y-42312804D01*
X106980083Y-42503280D01*
X107018178Y-42655661D01*
X107056274Y-42731852D01*
X107094369Y-42769947D01*
X107170559Y-42808042D01*
X107246750Y-42808042D01*
X107322940Y-42769947D01*
X107361035Y-42731852D01*
X107399131Y-42655661D01*
X107437226Y-42503280D01*
X107437226Y-42312804D01*
X107399131Y-42160423D01*
X107361035Y-42084233D01*
X107322940Y-42046138D01*
X107246750Y-42008042D01*
X108199131Y-32648042D02*
X108199131Y-31848042D01*
X108008655Y-31848042D01*
X107894369Y-31886138D01*
X107818178Y-31962328D01*
X107780083Y-32038518D01*
X107741988Y-32190899D01*
X107741988Y-32305185D01*
X107780083Y-32457566D01*
X107818178Y-32533757D01*
X107894369Y-32609947D01*
X108008655Y-32648042D01*
X108199131Y-32648042D01*
X107437226Y-31924233D02*
X107399131Y-31886138D01*
X107322940Y-31848042D01*
X107132464Y-31848042D01*
X107056274Y-31886138D01*
X107018178Y-31924233D01*
X106980083Y-32000423D01*
X106980083Y-32076614D01*
X107018178Y-32190899D01*
X107475321Y-32648042D01*
X106980083Y-32648042D01*
X107741988Y-47811852D02*
X107780083Y-47849947D01*
X107894369Y-47888042D01*
X107970559Y-47888042D01*
X108084845Y-47849947D01*
X108161035Y-47773757D01*
X108199131Y-47697566D01*
X108237226Y-47545185D01*
X108237226Y-47430899D01*
X108199131Y-47278518D01*
X108161035Y-47202328D01*
X108084845Y-47126138D01*
X107970559Y-47088042D01*
X107894369Y-47088042D01*
X107780083Y-47126138D01*
X107741988Y-47164233D01*
X107056274Y-47088042D02*
X107208655Y-47088042D01*
X107284845Y-47126138D01*
X107322940Y-47164233D01*
X107399131Y-47278518D01*
X107437226Y-47430899D01*
X107437226Y-47735661D01*
X107399131Y-47811852D01*
X107361035Y-47849947D01*
X107284845Y-47888042D01*
X107132464Y-47888042D01*
X107056274Y-47849947D01*
X107018178Y-47811852D01*
X106980083Y-47735661D01*
X106980083Y-47545185D01*
X107018178Y-47468995D01*
X107056274Y-47430899D01*
X107132464Y-47392804D01*
X107284845Y-47392804D01*
X107361035Y-47430899D01*
X107399131Y-47468995D01*
X107437226Y-47545185D01*
X118854464Y-52548995D02*
X118740178Y-52587090D01*
X118702083Y-52625185D01*
X118663988Y-52701376D01*
X118663988Y-52815661D01*
X118702083Y-52891852D01*
X118740178Y-52929947D01*
X118816369Y-52968042D01*
X119121131Y-52968042D01*
X119121131Y-52168042D01*
X118854464Y-52168042D01*
X118778274Y-52206138D01*
X118740178Y-52244233D01*
X118702083Y-52320423D01*
X118702083Y-52396614D01*
X118740178Y-52472804D01*
X118778274Y-52510899D01*
X118854464Y-52548995D01*
X119121131Y-52548995D01*
X118397321Y-52168042D02*
X117902083Y-52168042D01*
X118168750Y-52472804D01*
X118054464Y-52472804D01*
X117978274Y-52510899D01*
X117940178Y-52548995D01*
X117902083Y-52625185D01*
X117902083Y-52815661D01*
X117940178Y-52891852D01*
X117978274Y-52929947D01*
X118054464Y-52968042D01*
X118283035Y-52968042D01*
X118359226Y-52929947D01*
X118397321Y-52891852D01*
X111688259Y-29308042D02*
X111231116Y-29308042D01*
X111459687Y-30108042D02*
X111459687Y-29308042D01*
X111040640Y-29308042D02*
X110507306Y-30108042D01*
X110507306Y-29308042D02*
X111040640Y-30108042D01*
X110050163Y-29308042D02*
X109973973Y-29308042D01*
X109897783Y-29346138D01*
X109859687Y-29384233D01*
X109821592Y-29460423D01*
X109783497Y-29612804D01*
X109783497Y-29803280D01*
X109821592Y-29955661D01*
X109859687Y-30031852D01*
X109897783Y-30069947D01*
X109973973Y-30108042D01*
X110050163Y-30108042D01*
X110126354Y-30069947D01*
X110164449Y-30031852D01*
X110202544Y-29955661D01*
X110240640Y-29803280D01*
X110240640Y-29612804D01*
X110202544Y-29460423D01*
X110164449Y-29384233D01*
X110126354Y-29346138D01*
X110050163Y-29308042D01*
X108869211Y-29269947D02*
X109554925Y-30298518D01*
X108602544Y-30108042D02*
X108602544Y-29308042D01*
X108412068Y-29308042D01*
X108297783Y-29346138D01*
X108221592Y-29422328D01*
X108183497Y-29498518D01*
X108145402Y-29650899D01*
X108145402Y-29765185D01*
X108183497Y-29917566D01*
X108221592Y-29993757D01*
X108297783Y-30069947D01*
X108412068Y-30108042D01*
X108602544Y-30108042D01*
X107878735Y-29308042D02*
X107383497Y-29308042D01*
X107650163Y-29612804D01*
X107535878Y-29612804D01*
X107459687Y-29650899D01*
X107421592Y-29688995D01*
X107383497Y-29765185D01*
X107383497Y-29955661D01*
X107421592Y-30031852D01*
X107459687Y-30069947D01*
X107535878Y-30108042D01*
X107764449Y-30108042D01*
X107840640Y-30069947D01*
X107878735Y-30031852D01*
X108161035Y-52548995D02*
X107894369Y-52548995D01*
X107780083Y-52968042D02*
X108161035Y-52968042D01*
X108161035Y-52168042D01*
X107780083Y-52168042D01*
X107094369Y-52168042D02*
X107246750Y-52168042D01*
X107322940Y-52206138D01*
X107361035Y-52244233D01*
X107437226Y-52358518D01*
X107475321Y-52510899D01*
X107475321Y-52815661D01*
X107437226Y-52891852D01*
X107399131Y-52929947D01*
X107322940Y-52968042D01*
X107170559Y-52968042D01*
X107094369Y-52929947D01*
X107056274Y-52891852D01*
X107018178Y-52815661D01*
X107018178Y-52625185D01*
X107056274Y-52548995D01*
X107094369Y-52510899D01*
X107170559Y-52472804D01*
X107322940Y-52472804D01*
X107399131Y-52510899D01*
X107437226Y-52548995D01*
X107475321Y-52625185D01*
X118854464Y-29688995D02*
X118740178Y-29727090D01*
X118702083Y-29765185D01*
X118663988Y-29841376D01*
X118663988Y-29955661D01*
X118702083Y-30031852D01*
X118740178Y-30069947D01*
X118816369Y-30108042D01*
X119121131Y-30108042D01*
X119121131Y-29308042D01*
X118854464Y-29308042D01*
X118778274Y-29346138D01*
X118740178Y-29384233D01*
X118702083Y-29460423D01*
X118702083Y-29536614D01*
X118740178Y-29612804D01*
X118778274Y-29650899D01*
X118854464Y-29688995D01*
X119121131Y-29688995D01*
X118168750Y-29308042D02*
X118092559Y-29308042D01*
X118016369Y-29346138D01*
X117978274Y-29384233D01*
X117940178Y-29460423D01*
X117902083Y-29612804D01*
X117902083Y-29803280D01*
X117940178Y-29955661D01*
X117978274Y-30031852D01*
X118016369Y-30069947D01*
X118092559Y-30108042D01*
X118168750Y-30108042D01*
X118244940Y-30069947D01*
X118283035Y-30031852D01*
X118321131Y-29955661D01*
X118359226Y-29803280D01*
X118359226Y-29612804D01*
X118321131Y-29460423D01*
X118283035Y-29384233D01*
X118244940Y-29346138D01*
X118168750Y-29308042D01*
X119140178Y-31886138D02*
X119216369Y-31848042D01*
X119330655Y-31848042D01*
X119444940Y-31886138D01*
X119521131Y-31962328D01*
X119559226Y-32038518D01*
X119597321Y-32190899D01*
X119597321Y-32305185D01*
X119559226Y-32457566D01*
X119521131Y-32533757D01*
X119444940Y-32609947D01*
X119330655Y-32648042D01*
X119254464Y-32648042D01*
X119140178Y-32609947D01*
X119102083Y-32571852D01*
X119102083Y-32305185D01*
X119254464Y-32305185D01*
X118759226Y-32648042D02*
X118759226Y-31848042D01*
X118302083Y-32648042D01*
X118302083Y-31848042D01*
X117921131Y-32648042D02*
X117921131Y-31848042D01*
X117730655Y-31848042D01*
X117616369Y-31886138D01*
X117540178Y-31962328D01*
X117502083Y-32038518D01*
X117463988Y-32190899D01*
X117463988Y-32305185D01*
X117502083Y-32457566D01*
X117540178Y-32533757D01*
X117616369Y-32609947D01*
X117730655Y-32648042D01*
X117921131Y-32648042D01*
X118854464Y-50008995D02*
X118740178Y-50047090D01*
X118702083Y-50085185D01*
X118663988Y-50161376D01*
X118663988Y-50275661D01*
X118702083Y-50351852D01*
X118740178Y-50389947D01*
X118816369Y-50428042D01*
X119121131Y-50428042D01*
X119121131Y-49628042D01*
X118854464Y-49628042D01*
X118778274Y-49666138D01*
X118740178Y-49704233D01*
X118702083Y-49780423D01*
X118702083Y-49856614D01*
X118740178Y-49932804D01*
X118778274Y-49970899D01*
X118854464Y-50008995D01*
X119121131Y-50008995D01*
X117902083Y-50428042D02*
X118359226Y-50428042D01*
X118130655Y-50428042D02*
X118130655Y-49628042D01*
X118206845Y-49742328D01*
X118283035Y-49818518D01*
X118359226Y-49856614D01*
X115876321Y-56058995D02*
X116142988Y-56058995D01*
X116142988Y-56478042D02*
X116142988Y-55678042D01*
X115762035Y-55678042D01*
X115038226Y-56478042D02*
X115495369Y-56478042D01*
X115266797Y-56478042D02*
X115266797Y-55678042D01*
X115342988Y-55792328D01*
X115419178Y-55868518D01*
X115495369Y-55906614D01*
X107932464Y-55088995D02*
X107818178Y-55127090D01*
X107780083Y-55165185D01*
X107741988Y-55241376D01*
X107741988Y-55355661D01*
X107780083Y-55431852D01*
X107818178Y-55469947D01*
X107894369Y-55508042D01*
X108199131Y-55508042D01*
X108199131Y-54708042D01*
X107932464Y-54708042D01*
X107856274Y-54746138D01*
X107818178Y-54784233D01*
X107780083Y-54860423D01*
X107780083Y-54936614D01*
X107818178Y-55012804D01*
X107856274Y-55050899D01*
X107932464Y-55088995D01*
X108199131Y-55088995D01*
X107056274Y-54974709D02*
X107056274Y-55508042D01*
X107246750Y-54669947D02*
X107437226Y-55241376D01*
X106941988Y-55241376D01*
X108218178Y-36966138D02*
X108294369Y-36928042D01*
X108408655Y-36928042D01*
X108522940Y-36966138D01*
X108599131Y-37042328D01*
X108637226Y-37118518D01*
X108675321Y-37270899D01*
X108675321Y-37385185D01*
X108637226Y-37537566D01*
X108599131Y-37613757D01*
X108522940Y-37689947D01*
X108408655Y-37728042D01*
X108332464Y-37728042D01*
X108218178Y-37689947D01*
X108180083Y-37651852D01*
X108180083Y-37385185D01*
X108332464Y-37385185D01*
X107837226Y-37728042D02*
X107837226Y-36928042D01*
X107380083Y-37728042D01*
X107380083Y-36928042D01*
X106999131Y-37728042D02*
X106999131Y-36928042D01*
X106808655Y-36928042D01*
X106694369Y-36966138D01*
X106618178Y-37042328D01*
X106580083Y-37118518D01*
X106541988Y-37270899D01*
X106541988Y-37385185D01*
X106580083Y-37537566D01*
X106618178Y-37613757D01*
X106694369Y-37689947D01*
X106808655Y-37728042D01*
X106999131Y-37728042D01*
X108199131Y-45348042D02*
X108199131Y-44548042D01*
X108008655Y-44548042D01*
X107894369Y-44586138D01*
X107818178Y-44662328D01*
X107780083Y-44738518D01*
X107741988Y-44890899D01*
X107741988Y-45005185D01*
X107780083Y-45157566D01*
X107818178Y-45233757D01*
X107894369Y-45309947D01*
X108008655Y-45348042D01*
X108199131Y-45348042D01*
X107056274Y-44814709D02*
X107056274Y-45348042D01*
X107246750Y-44509947D02*
X107437226Y-45081376D01*
X106941988Y-45081376D01*
%TO.C,OL2*%
X116345847Y-66981766D02*
X116345847Y-66315100D01*
X116345847Y-66505576D02*
X116298228Y-66410338D01*
X116250609Y-66362719D01*
X116155371Y-66315100D01*
X116060133Y-66315100D01*
X115726799Y-66981766D02*
X115726799Y-66315100D01*
X115726799Y-65981766D02*
X115774418Y-66029386D01*
X115726799Y-66077005D01*
X115679180Y-66029386D01*
X115726799Y-65981766D01*
X115726799Y-66077005D01*
X114822037Y-66315100D02*
X114822037Y-67124624D01*
X114869657Y-67219862D01*
X114917276Y-67267481D01*
X115012514Y-67315100D01*
X115155371Y-67315100D01*
X115250609Y-67267481D01*
X114822037Y-66934147D02*
X114917276Y-66981766D01*
X115107752Y-66981766D01*
X115202990Y-66934147D01*
X115250609Y-66886528D01*
X115298228Y-66791290D01*
X115298228Y-66505576D01*
X115250609Y-66410338D01*
X115202990Y-66362719D01*
X115107752Y-66315100D01*
X114917276Y-66315100D01*
X114822037Y-66362719D01*
X114345847Y-66981766D02*
X114345847Y-65981766D01*
X113917276Y-66981766D02*
X113917276Y-66457957D01*
X113964895Y-66362719D01*
X114060133Y-66315100D01*
X114202990Y-66315100D01*
X114298228Y-66362719D01*
X114345847Y-66410338D01*
X113583942Y-66315100D02*
X113202990Y-66315100D01*
X113441085Y-65981766D02*
X113441085Y-66838909D01*
X113393466Y-66934147D01*
X113298228Y-66981766D01*
X113202990Y-66981766D01*
X111964895Y-66981766D02*
X112060133Y-66934147D01*
X112107752Y-66886528D01*
X112155371Y-66791290D01*
X112155371Y-66505576D01*
X112107752Y-66410338D01*
X112060133Y-66362719D01*
X111964895Y-66315100D01*
X111822037Y-66315100D01*
X111726799Y-66362719D01*
X111679180Y-66410338D01*
X111631561Y-66505576D01*
X111631561Y-66791290D01*
X111679180Y-66886528D01*
X111726799Y-66934147D01*
X111822037Y-66981766D01*
X111964895Y-66981766D01*
X111060133Y-66981766D02*
X111155371Y-66934147D01*
X111202990Y-66838909D01*
X111202990Y-65981766D01*
X110298228Y-66934147D02*
X110393466Y-66981766D01*
X110583942Y-66981766D01*
X110679180Y-66934147D01*
X110726799Y-66838909D01*
X110726799Y-66457957D01*
X110679180Y-66362719D01*
X110583942Y-66315100D01*
X110393466Y-66315100D01*
X110298228Y-66362719D01*
X110250609Y-66457957D01*
X110250609Y-66553195D01*
X110726799Y-66648433D01*
X109393466Y-66981766D02*
X109393466Y-65981766D01*
X109393466Y-66934147D02*
X109488704Y-66981766D01*
X109679180Y-66981766D01*
X109774418Y-66934147D01*
X109822037Y-66886528D01*
X109869657Y-66791290D01*
X109869657Y-66505576D01*
X109822037Y-66410338D01*
X109774418Y-66362719D01*
X109679180Y-66315100D01*
X109488704Y-66315100D01*
X109393466Y-66362719D01*
D12*
%TO.C,REF\u002A\u002A*%
X69404154Y-52097432D02*
X68601208Y-51294732D01*
X68601208Y-51294732D02*
X68312840Y-51297826D01*
X68312840Y-51297826D02*
X68024472Y-51300919D01*
X68024472Y-51300919D02*
X68871696Y-52161056D01*
X68871696Y-52161056D02*
X68989621Y-52280779D01*
X68989621Y-52280779D02*
X69104420Y-52397328D01*
X69104420Y-52397328D02*
X69214874Y-52509468D01*
X69214874Y-52509468D02*
X69319766Y-52615961D01*
X69319766Y-52615961D02*
X69417878Y-52715572D01*
X69417878Y-52715572D02*
X69507993Y-52807065D01*
X69507993Y-52807065D02*
X69588892Y-52889202D01*
X69588892Y-52889202D02*
X69659359Y-52960747D01*
X69659359Y-52960747D02*
X69718175Y-53020465D01*
X69718175Y-53020465D02*
X69764122Y-53067119D01*
X69764122Y-53067119D02*
X69795983Y-53099472D01*
X69795983Y-53099472D02*
X69809764Y-53113468D01*
X69809764Y-53113468D02*
X69900608Y-53205744D01*
X69900608Y-53205744D02*
X69900608Y-50463874D01*
X69900608Y-50463874D02*
X69404154Y-50463874D01*
X69404154Y-50463874D02*
X69404154Y-52097432D01*
X69404154Y-52097432D02*
X69404154Y-52097432D01*
G36*
X69900608Y-53205744D02*
G01*
X69809764Y-53113468D01*
X69795983Y-53099472D01*
X69764122Y-53067119D01*
X69718175Y-53020465D01*
X69659359Y-52960747D01*
X69588892Y-52889202D01*
X69507993Y-52807065D01*
X69417878Y-52715572D01*
X69319766Y-52615961D01*
X69214874Y-52509468D01*
X69104420Y-52397328D01*
X68989621Y-52280779D01*
X68871696Y-52161056D01*
X68024472Y-51300919D01*
X68312840Y-51297826D01*
X68601208Y-51294732D01*
X69404154Y-52097432D01*
X69404154Y-50463874D01*
X69900608Y-50463874D01*
X69900608Y-53205744D01*
G37*
X69900608Y-53205744D02*
X69809764Y-53113468D01*
X69795983Y-53099472D01*
X69764122Y-53067119D01*
X69718175Y-53020465D01*
X69659359Y-52960747D01*
X69588892Y-52889202D01*
X69507993Y-52807065D01*
X69417878Y-52715572D01*
X69319766Y-52615961D01*
X69214874Y-52509468D01*
X69104420Y-52397328D01*
X68989621Y-52280779D01*
X68871696Y-52161056D01*
X68024472Y-51300919D01*
X68312840Y-51297826D01*
X68601208Y-51294732D01*
X69404154Y-52097432D01*
X69404154Y-50463874D01*
X69900608Y-50463874D01*
X69900608Y-53205744D01*
X67199120Y-50963215D02*
X67198928Y-51067455D01*
X67198928Y-51067455D02*
X67198439Y-51164200D01*
X67198439Y-51164200D02*
X67197689Y-51251086D01*
X67197689Y-51251086D02*
X67196713Y-51325748D01*
X67196713Y-51325748D02*
X67195544Y-51385823D01*
X67195544Y-51385823D02*
X67194217Y-51428946D01*
X67194217Y-51428946D02*
X67192768Y-51452753D01*
X67192768Y-51452753D02*
X67191860Y-51456783D01*
X67191860Y-51456783D02*
X67179429Y-51450469D01*
X67179429Y-51450469D02*
X67154583Y-51434126D01*
X67154583Y-51434126D02*
X67130449Y-51416924D01*
X67130449Y-51416924D02*
X67015752Y-51346202D01*
X67015752Y-51346202D02*
X66893536Y-51297098D01*
X66893536Y-51297098D02*
X66763153Y-51269422D01*
X66763153Y-51269422D02*
X66623952Y-51262984D01*
X66623952Y-51262984D02*
X66606140Y-51263652D01*
X66606140Y-51263652D02*
X66516505Y-51270204D01*
X66516505Y-51270204D02*
X66440022Y-51282141D01*
X66440022Y-51282141D02*
X66368370Y-51301633D01*
X66368370Y-51301633D02*
X66293232Y-51330850D01*
X66293232Y-51330850D02*
X66223381Y-51363489D01*
X66223381Y-51363489D02*
X66095448Y-51438782D01*
X66095448Y-51438782D02*
X65982528Y-51530762D01*
X65982528Y-51530762D02*
X65885634Y-51637751D01*
X65885634Y-51637751D02*
X65805776Y-51758076D01*
X65805776Y-51758076D02*
X65743966Y-51890061D01*
X65743966Y-51890061D02*
X65701214Y-52032030D01*
X65701214Y-52032030D02*
X65678533Y-52182309D01*
X65678533Y-52182309D02*
X65674972Y-52271979D01*
X65674972Y-52271979D02*
X65685263Y-52424457D01*
X65685263Y-52424457D02*
X65716619Y-52569021D01*
X65716619Y-52569021D02*
X65769764Y-52708257D01*
X65769764Y-52708257D02*
X65827019Y-52815176D01*
X65827019Y-52815176D02*
X65912731Y-52935469D01*
X65912731Y-52935469D02*
X66014344Y-53040318D01*
X66014344Y-53040318D02*
X66129677Y-53128640D01*
X66129677Y-53128640D02*
X66256552Y-53199354D01*
X66256552Y-53199354D02*
X66392788Y-53251377D01*
X66392788Y-53251377D02*
X66536207Y-53283630D01*
X66536207Y-53283630D02*
X66684628Y-53295029D01*
X66684628Y-53295029D02*
X66784874Y-53290546D01*
X66784874Y-53290546D02*
X66929482Y-53265665D01*
X66929482Y-53265665D02*
X67070050Y-53219390D01*
X67070050Y-53219390D02*
X67203223Y-53153411D01*
X67203223Y-53153411D02*
X67325643Y-53069414D01*
X67325643Y-53069414D02*
X67433955Y-52969088D01*
X67433955Y-52969088D02*
X67442349Y-52959922D01*
X67442349Y-52959922D02*
X67523480Y-52855802D01*
X67523480Y-52855802D02*
X67593172Y-52737620D01*
X67593172Y-52737620D02*
X67648338Y-52611757D01*
X67648338Y-52611757D02*
X67685891Y-52484597D01*
X67685891Y-52484597D02*
X67694760Y-52438147D01*
X67694760Y-52438147D02*
X67697373Y-52409752D01*
X67697373Y-52409752D02*
X67699718Y-52359680D01*
X67699718Y-52359680D02*
X67701187Y-52309346D01*
X67701187Y-52309346D02*
X67204849Y-52309346D01*
X67204849Y-52309346D02*
X67194277Y-52406895D01*
X67194277Y-52406895D02*
X67163845Y-52500914D01*
X67163845Y-52500914D02*
X67135191Y-52555059D01*
X67135191Y-52555059D02*
X67068257Y-52643342D01*
X67068257Y-52643342D02*
X66988776Y-52714219D01*
X66988776Y-52714219D02*
X66899344Y-52766712D01*
X66899344Y-52766712D02*
X66802558Y-52799844D01*
X66802558Y-52799844D02*
X66701017Y-52812638D01*
X66701017Y-52812638D02*
X66597316Y-52804117D01*
X66597316Y-52804117D02*
X66524489Y-52784829D01*
X66524489Y-52784829D02*
X66481492Y-52768743D01*
X66481492Y-52768743D02*
X66440587Y-52751383D01*
X66440587Y-52751383D02*
X66424420Y-52743607D01*
X66424420Y-52743607D02*
X66379134Y-52712603D01*
X66379134Y-52712603D02*
X66329811Y-52666409D01*
X66329811Y-52666409D02*
X66281754Y-52610953D01*
X66281754Y-52610953D02*
X66240269Y-52552159D01*
X66240269Y-52552159D02*
X66218781Y-52513832D01*
X66218781Y-52513832D02*
X66198600Y-52469586D01*
X66198600Y-52469586D02*
X66185955Y-52430978D01*
X66185955Y-52430978D02*
X66178598Y-52388686D01*
X66178598Y-52388686D02*
X66174280Y-52333383D01*
X66174280Y-52333383D02*
X66173998Y-52328093D01*
X66173998Y-52328093D02*
X66177366Y-52220848D01*
X66177366Y-52220848D02*
X66200222Y-52122956D01*
X66200222Y-52122956D02*
X66243874Y-52029533D01*
X66243874Y-52029533D02*
X66261644Y-52001004D01*
X66261644Y-52001004D02*
X66326186Y-51923100D01*
X66326186Y-51923100D02*
X66405003Y-51860930D01*
X66405003Y-51860930D02*
X66494639Y-51815434D01*
X66494639Y-51815434D02*
X66591638Y-51787556D01*
X66591638Y-51787556D02*
X66692542Y-51778236D01*
X66692542Y-51778236D02*
X66793894Y-51788418D01*
X66793894Y-51788418D02*
X66892240Y-51819043D01*
X66892240Y-51819043D02*
X66906243Y-51825329D01*
X66906243Y-51825329D02*
X66994195Y-51878278D01*
X66994195Y-51878278D02*
X67068185Y-51946492D01*
X67068185Y-51946492D02*
X67127228Y-52026838D01*
X67127228Y-52026838D02*
X67170341Y-52116185D01*
X67170341Y-52116185D02*
X67196543Y-52211398D01*
X67196543Y-52211398D02*
X67204849Y-52309346D01*
X67204849Y-52309346D02*
X67701187Y-52309346D01*
X67701187Y-52309346D02*
X67701771Y-52289343D01*
X67701771Y-52289343D02*
X67703510Y-52200154D01*
X67703510Y-52200154D02*
X67704913Y-52093525D01*
X67704913Y-52093525D02*
X67705957Y-51970869D01*
X67705957Y-51970869D02*
X67706621Y-51833597D01*
X67706621Y-51833597D02*
X67706882Y-51683123D01*
X67706882Y-51683123D02*
X67706885Y-51671387D01*
X67706885Y-51671387D02*
X67706972Y-50979673D01*
X67706972Y-50979673D02*
X67199268Y-50469647D01*
X67199268Y-50469647D02*
X67199120Y-50963215D01*
X67199120Y-50963215D02*
X67199120Y-50963215D01*
G36*
X67697373Y-52409752D02*
G01*
X67694760Y-52438147D01*
X67685891Y-52484597D01*
X67648338Y-52611757D01*
X67593172Y-52737620D01*
X67523480Y-52855802D01*
X67442349Y-52959922D01*
X67433955Y-52969088D01*
X67325643Y-53069414D01*
X67203223Y-53153411D01*
X67070050Y-53219390D01*
X66929482Y-53265665D01*
X66784874Y-53290546D01*
X66684628Y-53295029D01*
X66536207Y-53283630D01*
X66392788Y-53251377D01*
X66256552Y-53199354D01*
X66129677Y-53128640D01*
X66014344Y-53040318D01*
X65912731Y-52935469D01*
X65827019Y-52815176D01*
X65769764Y-52708257D01*
X65716619Y-52569021D01*
X65685263Y-52424457D01*
X65678759Y-52328093D01*
X66173998Y-52328093D01*
X66174280Y-52333383D01*
X66178598Y-52388686D01*
X66185955Y-52430978D01*
X66198600Y-52469586D01*
X66218781Y-52513832D01*
X66240269Y-52552159D01*
X66281754Y-52610953D01*
X66329811Y-52666409D01*
X66379134Y-52712603D01*
X66424420Y-52743607D01*
X66440587Y-52751383D01*
X66481492Y-52768743D01*
X66524489Y-52784829D01*
X66597316Y-52804117D01*
X66701017Y-52812638D01*
X66802558Y-52799844D01*
X66899344Y-52766712D01*
X66988776Y-52714219D01*
X67068257Y-52643342D01*
X67135191Y-52555059D01*
X67163845Y-52500914D01*
X67194277Y-52406895D01*
X67204849Y-52309346D01*
X67196543Y-52211398D01*
X67170341Y-52116185D01*
X67127228Y-52026838D01*
X67068185Y-51946492D01*
X66994195Y-51878278D01*
X66906243Y-51825329D01*
X66892240Y-51819043D01*
X66793894Y-51788418D01*
X66692542Y-51778236D01*
X66591638Y-51787556D01*
X66494639Y-51815434D01*
X66405003Y-51860930D01*
X66326186Y-51923100D01*
X66261644Y-52001004D01*
X66243874Y-52029533D01*
X66200222Y-52122956D01*
X66177366Y-52220848D01*
X66173998Y-52328093D01*
X65678759Y-52328093D01*
X65674972Y-52271979D01*
X65678533Y-52182309D01*
X65701214Y-52032030D01*
X65743966Y-51890061D01*
X65805776Y-51758076D01*
X65885634Y-51637751D01*
X65982528Y-51530762D01*
X66095448Y-51438782D01*
X66223381Y-51363489D01*
X66293232Y-51330850D01*
X66368370Y-51301633D01*
X66440022Y-51282141D01*
X66516505Y-51270204D01*
X66606140Y-51263652D01*
X66623952Y-51262984D01*
X66763153Y-51269422D01*
X66893536Y-51297098D01*
X67015752Y-51346202D01*
X67130449Y-51416924D01*
X67154583Y-51434126D01*
X67179429Y-51450469D01*
X67191860Y-51456783D01*
X67192768Y-51452753D01*
X67194217Y-51428946D01*
X67195544Y-51385823D01*
X67196713Y-51325748D01*
X67197689Y-51251086D01*
X67198439Y-51164200D01*
X67198928Y-51067455D01*
X67199120Y-50963215D01*
X67199268Y-50469647D01*
X67706972Y-50979673D01*
X67706885Y-51671387D01*
X67706882Y-51683123D01*
X67706621Y-51833597D01*
X67705957Y-51970869D01*
X67704913Y-52093525D01*
X67703510Y-52200154D01*
X67701771Y-52289343D01*
X67701187Y-52309346D01*
X67699718Y-52359680D01*
X67697373Y-52409752D01*
G37*
X67697373Y-52409752D02*
X67694760Y-52438147D01*
X67685891Y-52484597D01*
X67648338Y-52611757D01*
X67593172Y-52737620D01*
X67523480Y-52855802D01*
X67442349Y-52959922D01*
X67433955Y-52969088D01*
X67325643Y-53069414D01*
X67203223Y-53153411D01*
X67070050Y-53219390D01*
X66929482Y-53265665D01*
X66784874Y-53290546D01*
X66684628Y-53295029D01*
X66536207Y-53283630D01*
X66392788Y-53251377D01*
X66256552Y-53199354D01*
X66129677Y-53128640D01*
X66014344Y-53040318D01*
X65912731Y-52935469D01*
X65827019Y-52815176D01*
X65769764Y-52708257D01*
X65716619Y-52569021D01*
X65685263Y-52424457D01*
X65678759Y-52328093D01*
X66173998Y-52328093D01*
X66174280Y-52333383D01*
X66178598Y-52388686D01*
X66185955Y-52430978D01*
X66198600Y-52469586D01*
X66218781Y-52513832D01*
X66240269Y-52552159D01*
X66281754Y-52610953D01*
X66329811Y-52666409D01*
X66379134Y-52712603D01*
X66424420Y-52743607D01*
X66440587Y-52751383D01*
X66481492Y-52768743D01*
X66524489Y-52784829D01*
X66597316Y-52804117D01*
X66701017Y-52812638D01*
X66802558Y-52799844D01*
X66899344Y-52766712D01*
X66988776Y-52714219D01*
X67068257Y-52643342D01*
X67135191Y-52555059D01*
X67163845Y-52500914D01*
X67194277Y-52406895D01*
X67204849Y-52309346D01*
X67196543Y-52211398D01*
X67170341Y-52116185D01*
X67127228Y-52026838D01*
X67068185Y-51946492D01*
X66994195Y-51878278D01*
X66906243Y-51825329D01*
X66892240Y-51819043D01*
X66793894Y-51788418D01*
X66692542Y-51778236D01*
X66591638Y-51787556D01*
X66494639Y-51815434D01*
X66405003Y-51860930D01*
X66326186Y-51923100D01*
X66261644Y-52001004D01*
X66243874Y-52029533D01*
X66200222Y-52122956D01*
X66177366Y-52220848D01*
X66173998Y-52328093D01*
X65678759Y-52328093D01*
X65674972Y-52271979D01*
X65678533Y-52182309D01*
X65701214Y-52032030D01*
X65743966Y-51890061D01*
X65805776Y-51758076D01*
X65885634Y-51637751D01*
X65982528Y-51530762D01*
X66095448Y-51438782D01*
X66223381Y-51363489D01*
X66293232Y-51330850D01*
X66368370Y-51301633D01*
X66440022Y-51282141D01*
X66516505Y-51270204D01*
X66606140Y-51263652D01*
X66623952Y-51262984D01*
X66763153Y-51269422D01*
X66893536Y-51297098D01*
X67015752Y-51346202D01*
X67130449Y-51416924D01*
X67154583Y-51434126D01*
X67179429Y-51450469D01*
X67191860Y-51456783D01*
X67192768Y-51452753D01*
X67194217Y-51428946D01*
X67195544Y-51385823D01*
X67196713Y-51325748D01*
X67197689Y-51251086D01*
X67198439Y-51164200D01*
X67198928Y-51067455D01*
X67199120Y-50963215D01*
X67199268Y-50469647D01*
X67706972Y-50979673D01*
X67706885Y-51671387D01*
X67706882Y-51683123D01*
X67706621Y-51833597D01*
X67705957Y-51970869D01*
X67704913Y-52093525D01*
X67703510Y-52200154D01*
X67701771Y-52289343D01*
X67701187Y-52309346D01*
X67699718Y-52359680D01*
X67697373Y-52409752D01*
X68597374Y-52503963D02*
X68574671Y-52526826D01*
X68574671Y-52526826D02*
X68540192Y-52562357D01*
X68540192Y-52562357D02*
X68495923Y-52608449D01*
X68495923Y-52608449D02*
X68443856Y-52662995D01*
X68443856Y-52662995D02*
X68385977Y-52723889D01*
X68385977Y-52723889D02*
X68324278Y-52789024D01*
X68324278Y-52789024D02*
X68260745Y-52856294D01*
X68260745Y-52856294D02*
X68197370Y-52923592D01*
X68197370Y-52923592D02*
X68136140Y-52988811D01*
X68136140Y-52988811D02*
X68079044Y-53049846D01*
X68079044Y-53049846D02*
X68028072Y-53104589D01*
X68028072Y-53104589D02*
X67985212Y-53150934D01*
X67985212Y-53150934D02*
X67952454Y-53186774D01*
X67952454Y-53186774D02*
X67931786Y-53210003D01*
X67931786Y-53210003D02*
X67929493Y-53212694D01*
X67929493Y-53212694D02*
X67901192Y-53246329D01*
X67901192Y-53246329D02*
X68521206Y-53246329D01*
X68521206Y-53246329D02*
X68694556Y-53070260D01*
X68694556Y-53070260D02*
X68748298Y-53015517D01*
X68748298Y-53015517D02*
X68798581Y-52964004D01*
X68798581Y-52964004D02*
X68842397Y-52918824D01*
X68842397Y-52918824D02*
X68876743Y-52883078D01*
X68876743Y-52883078D02*
X68898611Y-52859869D01*
X68898611Y-52859869D02*
X68901788Y-52856377D01*
X68901788Y-52856377D02*
X68935670Y-52818562D01*
X68935670Y-52818562D02*
X68774635Y-52657218D01*
X68774635Y-52657218D02*
X68724922Y-52607763D01*
X68724922Y-52607763D02*
X68680698Y-52564438D01*
X68680698Y-52564438D02*
X68644551Y-52529725D01*
X68644551Y-52529725D02*
X68619069Y-52506105D01*
X68619069Y-52506105D02*
X68606840Y-52496057D01*
X68606840Y-52496057D02*
X68606309Y-52495874D01*
X68606309Y-52495874D02*
X68597374Y-52503963D01*
X68597374Y-52503963D02*
X68597374Y-52503963D01*
G36*
X68606840Y-52496057D02*
G01*
X68619069Y-52506105D01*
X68644551Y-52529725D01*
X68680698Y-52564438D01*
X68724922Y-52607763D01*
X68774635Y-52657218D01*
X68935670Y-52818562D01*
X68901788Y-52856377D01*
X68898611Y-52859869D01*
X68876743Y-52883078D01*
X68842397Y-52918824D01*
X68798581Y-52964004D01*
X68748298Y-53015517D01*
X68694556Y-53070260D01*
X68521206Y-53246329D01*
X67901192Y-53246329D01*
X67929493Y-53212694D01*
X67931786Y-53210003D01*
X67952454Y-53186774D01*
X67985212Y-53150934D01*
X68028072Y-53104589D01*
X68079044Y-53049846D01*
X68136140Y-52988811D01*
X68197370Y-52923592D01*
X68260745Y-52856294D01*
X68324278Y-52789024D01*
X68385977Y-52723889D01*
X68443856Y-52662995D01*
X68495923Y-52608449D01*
X68540192Y-52562357D01*
X68574671Y-52526826D01*
X68597374Y-52503963D01*
X68606309Y-52495874D01*
X68606840Y-52496057D01*
G37*
X68606840Y-52496057D02*
X68619069Y-52506105D01*
X68644551Y-52529725D01*
X68680698Y-52564438D01*
X68724922Y-52607763D01*
X68774635Y-52657218D01*
X68935670Y-52818562D01*
X68901788Y-52856377D01*
X68898611Y-52859869D01*
X68876743Y-52883078D01*
X68842397Y-52918824D01*
X68798581Y-52964004D01*
X68748298Y-53015517D01*
X68694556Y-53070260D01*
X68521206Y-53246329D01*
X67901192Y-53246329D01*
X67929493Y-53212694D01*
X67931786Y-53210003D01*
X67952454Y-53186774D01*
X67985212Y-53150934D01*
X68028072Y-53104589D01*
X68079044Y-53049846D01*
X68136140Y-52988811D01*
X68197370Y-52923592D01*
X68260745Y-52856294D01*
X68324278Y-52789024D01*
X68385977Y-52723889D01*
X68443856Y-52662995D01*
X68495923Y-52608449D01*
X68540192Y-52562357D01*
X68574671Y-52526826D01*
X68597374Y-52503963D01*
X68606309Y-52495874D01*
X68606840Y-52496057D01*
D13*
X64962156Y-17659388D02*
G75*
G03*
X60811610Y-18693253I2857512J-20320050D01*
G01*
X66691271Y-48715252D02*
G75*
G03*
X67819656Y-48774388I1128379J10735785D01*
G01*
X74827705Y-18693254D02*
G75*
G03*
X70677156Y-17659388I-7008041J-19286105D01*
G01*
X67819656Y-48774388D02*
G75*
G03*
X68948041Y-48715252I6J10794921D01*
G01*
X88139656Y-35121888D02*
G75*
G03*
X87105790Y-30971340I-20319983J-2857496D01*
G01*
X68948041Y-27243524D02*
G75*
G03*
X67819656Y-27184388I-1128379J-10735785D01*
G01*
X70677156Y-58299388D02*
G75*
G03*
X74827701Y-57265523I-2857506J20320019D01*
G01*
X60811611Y-57265523D02*
G75*
G03*
X64962156Y-58299388I7008051J19286154D01*
G01*
X48533520Y-30971344D02*
G75*
G03*
X47499656Y-35121888I19286252J-7008071D01*
G01*
X47499656Y-40836888D02*
G75*
G03*
X48533521Y-44987434I20320050J2857512D01*
G01*
X87105790Y-44987436D02*
G75*
G03*
X88139656Y-40836888I-19286117J7008044D01*
G01*
X67819656Y-27184388D02*
G75*
G03*
X66691271Y-27243524I-6J-10794921D01*
G01*
D10*
%TO.C,D12*%
X99732524Y-80925449D02*
X98630254Y-81561845D01*
X98630254Y-81561845D02*
X99499587Y-81794782D01*
X99499587Y-81794782D02*
X99732524Y-80925449D01*
G36*
X99499587Y-81794782D02*
G01*
X98630254Y-81561845D01*
X99732524Y-80925449D01*
X99499587Y-81794782D01*
G37*
X99499587Y-81794782D02*
X98630254Y-81561845D01*
X99732524Y-80925449D01*
X99499587Y-81794782D01*
%TO.C,D16*%
X44519658Y-24999387D02*
X43619658Y-25899387D01*
X43619658Y-25899387D02*
X44519658Y-25899387D01*
X44519658Y-25899387D02*
X44519658Y-24999387D01*
G36*
X44519658Y-25899387D02*
G01*
X43619658Y-25899387D01*
X44519658Y-24999387D01*
X44519658Y-25899387D01*
G37*
X44519658Y-25899387D02*
X43619658Y-25899387D01*
X44519658Y-24999387D01*
X44519658Y-25899387D01*
%TO.C,D8*%
X62519654Y-52133387D02*
X61619654Y-53033387D01*
X61619654Y-53033387D02*
X62519654Y-53033387D01*
X62519654Y-53033387D02*
X62519654Y-52133387D01*
G36*
X62519654Y-53033387D02*
G01*
X61619654Y-53033387D01*
X62519654Y-52133387D01*
X62519654Y-53033387D01*
G37*
X62519654Y-53033387D02*
X61619654Y-53033387D01*
X62519654Y-52133387D01*
X62519654Y-53033387D01*
%TO.C,D2*%
X62519655Y-17999388D02*
X61619655Y-18899388D01*
X61619655Y-18899388D02*
X62519655Y-18899388D01*
X62519655Y-18899388D02*
X62519655Y-17999388D01*
G36*
X62519655Y-18899388D02*
G01*
X61619655Y-18899388D01*
X62519655Y-17999388D01*
X62519655Y-18899388D01*
G37*
X62519655Y-18899388D02*
X61619655Y-18899388D01*
X62519655Y-17999388D01*
X62519655Y-18899388D01*
%TO.C,D15*%
X118353445Y-88478810D02*
X117157412Y-88914131D01*
X117157412Y-88914131D02*
X117973089Y-89294487D01*
X117973089Y-89294487D02*
X118353445Y-88478810D01*
G36*
X117973089Y-89294487D02*
G01*
X117157412Y-88914131D01*
X118353445Y-88478810D01*
X117973089Y-89294487D01*
G37*
X117973089Y-89294487D02*
X117157412Y-88914131D01*
X118353445Y-88478810D01*
X117973089Y-89294487D01*
%TO.C,D11*%
X80519656Y-57467389D02*
X79619656Y-58367389D01*
X79619656Y-58367389D02*
X80519656Y-58367389D01*
X80519656Y-58367389D02*
X80519656Y-57467389D01*
G36*
X80519656Y-58367389D02*
G01*
X79619656Y-58367389D01*
X80519656Y-57467389D01*
X80519656Y-58367389D01*
G37*
X80519656Y-58367389D02*
X79619656Y-58367389D01*
X80519656Y-57467389D01*
X80519656Y-58367389D01*
D11*
%TO.C,U2*%
X119314290Y-34365168D02*
X119314290Y-35165168D01*
X119314290Y-35165168D02*
X119414290Y-35165168D01*
X119414290Y-35165168D02*
X119414290Y-34365168D01*
X119414290Y-34365168D02*
X119314290Y-34365168D01*
G36*
X119414290Y-35165168D02*
G01*
X119314290Y-35165168D01*
X119314290Y-34365168D01*
X119414290Y-34365168D01*
X119414290Y-35165168D01*
G37*
X119414290Y-35165168D02*
X119314290Y-35165168D01*
X119314290Y-34365168D01*
X119414290Y-34365168D01*
X119414290Y-35165168D01*
X118914290Y-34965168D02*
X118914290Y-35165168D01*
X118914290Y-35165168D02*
X119014290Y-35165168D01*
X119014290Y-35165168D02*
X119014290Y-34965168D01*
X119014290Y-34965168D02*
X118914290Y-34965168D01*
G36*
X119014290Y-35165168D02*
G01*
X118914290Y-35165168D01*
X118914290Y-34965168D01*
X119014290Y-34965168D01*
X119014290Y-35165168D01*
G37*
X119014290Y-35165168D02*
X118914290Y-35165168D01*
X118914290Y-34965168D01*
X119014290Y-34965168D01*
X119014290Y-35165168D01*
X119114290Y-34765168D02*
X119114290Y-34865168D01*
X119114290Y-34865168D02*
X119214290Y-34865168D01*
X119214290Y-34865168D02*
X119214290Y-34765168D01*
X119214290Y-34765168D02*
X119114290Y-34765168D01*
G36*
X119214290Y-34865168D02*
G01*
X119114290Y-34865168D01*
X119114290Y-34765168D01*
X119214290Y-34765168D01*
X119214290Y-34865168D01*
G37*
X119214290Y-34865168D02*
X119114290Y-34865168D01*
X119114290Y-34765168D01*
X119214290Y-34765168D01*
X119214290Y-34865168D01*
X118914290Y-34365168D02*
X118914290Y-34665168D01*
X118914290Y-34665168D02*
X119014290Y-34665168D01*
X119014290Y-34665168D02*
X119014290Y-34365168D01*
X119014290Y-34365168D02*
X118914290Y-34365168D01*
G36*
X119014290Y-34665168D02*
G01*
X118914290Y-34665168D01*
X118914290Y-34365168D01*
X119014290Y-34365168D01*
X119014290Y-34665168D01*
G37*
X119014290Y-34665168D02*
X118914290Y-34665168D01*
X118914290Y-34365168D01*
X119014290Y-34365168D01*
X119014290Y-34665168D01*
X118914290Y-34365168D02*
X118914290Y-34465168D01*
X118914290Y-34465168D02*
X119414290Y-34465168D01*
X119414290Y-34465168D02*
X119414290Y-34365168D01*
X119414290Y-34365168D02*
X118914290Y-34365168D01*
G36*
X119414290Y-34465168D02*
G01*
X118914290Y-34465168D01*
X118914290Y-34365168D01*
X119414290Y-34365168D01*
X119414290Y-34465168D01*
G37*
X119414290Y-34465168D02*
X118914290Y-34465168D01*
X118914290Y-34365168D01*
X119414290Y-34365168D01*
X119414290Y-34465168D01*
D14*
X106719655Y-28476138D02*
X106719655Y-31016138D01*
X121959655Y-58956138D02*
X121959655Y-25936138D01*
X121959655Y-25936138D02*
X104179655Y-25936138D01*
X106719655Y-28476138D02*
X104179655Y-28476138D01*
X106719655Y-31016138D02*
X104179655Y-31016138D01*
X104179655Y-58956138D02*
X121959655Y-58956138D01*
X104179655Y-25936138D02*
X104179655Y-58956138D01*
D10*
%TO.C,D14*%
X80519658Y-40449390D02*
X79619658Y-41349390D01*
X79619658Y-41349390D02*
X80519658Y-41349390D01*
X80519658Y-41349390D02*
X80519658Y-40449390D01*
G36*
X80519658Y-41349390D02*
G01*
X79619658Y-41349390D01*
X80519658Y-40449390D01*
X80519658Y-41349390D01*
G37*
X80519658Y-41349390D02*
X79619658Y-41349390D01*
X80519658Y-40449390D01*
X80519658Y-41349390D01*
%TO.C,D10*%
X44519655Y-58991386D02*
X43619655Y-59891386D01*
X43619655Y-59891386D02*
X44519655Y-59891386D01*
X44519655Y-59891386D02*
X44519655Y-58991386D01*
G36*
X44519655Y-59891386D02*
G01*
X43619655Y-59891386D01*
X44519655Y-58991386D01*
X44519655Y-59891386D01*
G37*
X44519655Y-59891386D02*
X43619655Y-59891386D01*
X44519655Y-58991386D01*
X44519655Y-59891386D01*
%TO.C,D1*%
X26519655Y-36999388D02*
X25619655Y-37899388D01*
X25619655Y-37899388D02*
X26519655Y-37899388D01*
X26519655Y-37899388D02*
X26519655Y-36999388D01*
G36*
X26519655Y-37899388D02*
G01*
X25619655Y-37899388D01*
X26519655Y-36999388D01*
X26519655Y-37899388D01*
G37*
X26519655Y-37899388D02*
X25619655Y-37899388D01*
X26519655Y-36999388D01*
X26519655Y-37899388D01*
%TO.C,D9*%
X98499658Y-60007388D02*
X97599658Y-60907388D01*
X97599658Y-60907388D02*
X98499658Y-60907388D01*
X98499658Y-60907388D02*
X98499658Y-60007388D01*
G36*
X98499658Y-60907388D02*
G01*
X97599658Y-60907388D01*
X98499658Y-60007388D01*
X98499658Y-60907388D01*
G37*
X98499658Y-60907388D02*
X97599658Y-60907388D01*
X98499658Y-60007388D01*
X98499658Y-60907388D01*
%TO.C,D17*%
X80519655Y-23499387D02*
X79619655Y-24399387D01*
X79619655Y-24399387D02*
X80519655Y-24399387D01*
X80519655Y-24399387D02*
X80519655Y-23499387D01*
G36*
X80519655Y-24399387D02*
G01*
X79619655Y-24399387D01*
X80519655Y-23499387D01*
X80519655Y-24399387D01*
G37*
X80519655Y-24399387D02*
X79619655Y-24399387D01*
X80519655Y-23499387D01*
X80519655Y-24399387D01*
%TO.C,D4*%
X26519653Y-54049388D02*
X25619653Y-54949388D01*
X25619653Y-54949388D02*
X26519653Y-54949388D01*
X26519653Y-54949388D02*
X26519653Y-54049388D01*
G36*
X26519653Y-54949388D02*
G01*
X25619653Y-54949388D01*
X26519653Y-54049388D01*
X26519653Y-54949388D01*
G37*
X26519653Y-54949388D02*
X25619653Y-54949388D01*
X26519653Y-54049388D01*
X26519653Y-54949388D01*
%TO.C,D3*%
X98519655Y-25999388D02*
X97619655Y-26899388D01*
X97619655Y-26899388D02*
X98519655Y-26899388D01*
X98519655Y-26899388D02*
X98519655Y-25999388D01*
G36*
X98519655Y-26899388D02*
G01*
X97619655Y-26899388D01*
X98519655Y-25999388D01*
X98519655Y-26899388D01*
G37*
X98519655Y-26899388D02*
X97619655Y-26899388D01*
X98519655Y-25999388D01*
X98519655Y-26899388D01*
%TO.C,D7*%
X26519656Y-70999388D02*
X25619656Y-71899388D01*
X25619656Y-71899388D02*
X26519656Y-71899388D01*
X26519656Y-71899388D02*
X26519656Y-70999388D01*
G36*
X26519656Y-71899388D02*
G01*
X25619656Y-71899388D01*
X26519656Y-70999388D01*
X26519656Y-71899388D01*
G37*
X26519656Y-71899388D02*
X25619656Y-71899388D01*
X26519656Y-70999388D01*
X26519656Y-71899388D01*
%TO.C,D5*%
X62519658Y-35115387D02*
X61619658Y-36015387D01*
X61619658Y-36015387D02*
X62519658Y-36015387D01*
X62519658Y-36015387D02*
X62519658Y-35115387D01*
G36*
X62519658Y-36015387D02*
G01*
X61619658Y-36015387D01*
X62519658Y-35115387D01*
X62519658Y-36015387D01*
G37*
X62519658Y-36015387D02*
X61619658Y-36015387D01*
X62519658Y-35115387D01*
X62519658Y-36015387D01*
%TO.C,D6*%
X98499655Y-42989388D02*
X97599655Y-43889388D01*
X97599655Y-43889388D02*
X98499655Y-43889388D01*
X98499655Y-43889388D02*
X98499655Y-42989388D01*
G36*
X98499655Y-43889388D02*
G01*
X97599655Y-43889388D01*
X98499655Y-42989388D01*
X98499655Y-43889388D01*
G37*
X98499655Y-43889388D02*
X97599655Y-43889388D01*
X98499655Y-42989388D01*
X98499655Y-43889388D01*
%TO.C,D13*%
X44519656Y-41973388D02*
X43619656Y-42873388D01*
X43619656Y-42873388D02*
X44519656Y-42873388D01*
X44519656Y-42873388D02*
X44519656Y-41973388D01*
G36*
X44519656Y-42873388D02*
G01*
X43619656Y-42873388D01*
X44519656Y-41973388D01*
X44519656Y-42873388D01*
G37*
X44519656Y-42873388D02*
X43619656Y-42873388D01*
X44519656Y-41973388D01*
X44519656Y-42873388D01*
D11*
%TO.C,J1*%
X120369657Y-75979388D02*
X108269657Y-75979388D01*
X120369657Y-75729388D02*
X122369657Y-75729388D01*
X122369657Y-70129388D02*
X122369657Y-75729388D01*
X120369657Y-69879388D02*
X120369657Y-75979388D01*
X120369657Y-69879388D02*
X108269657Y-69879388D01*
X120369657Y-70129388D02*
X122369657Y-70129388D01*
X108269657Y-69879388D02*
X108269657Y-75979388D01*
%TD*%
D15*
%TO.C,U2*%
X118149655Y-57686138D03*
X115609655Y-57686138D03*
X113069655Y-57686138D03*
X110529655Y-57686138D03*
X107989655Y-57686138D03*
X120689655Y-29746138D03*
X120689655Y-32286138D03*
X120689655Y-34826138D03*
X120689655Y-37366138D03*
X120689655Y-39906138D03*
X120689655Y-42446138D03*
X120689655Y-44986138D03*
X120689655Y-47526138D03*
X120689655Y-50066138D03*
X120689655Y-52606138D03*
X120689655Y-55146138D03*
X120689655Y-57686138D03*
X105678255Y-57686138D03*
X105449655Y-55146138D03*
X105449655Y-52606138D03*
X105449655Y-50066138D03*
X105449655Y-47526138D03*
X105449655Y-44986138D03*
X105449655Y-42446138D03*
X105449655Y-39906138D03*
X105449655Y-37366138D03*
X105449655Y-34826138D03*
X105449655Y-32286138D03*
D16*
X105449655Y-29746138D03*
%TD*%
D17*
%TO.C,OL2*%
X109059657Y-64479386D03*
X111599657Y-64479386D03*
X114139657Y-64479386D03*
X116679657Y-64479386D03*
%TD*%
M02*
