M48
; DRILL file {KiCad (6.0.0)} date Tue Apr 19 03:34:01 2022
; FORMAT={-:-/ absolute / inch / decimal}
; #@! TF.CreationDate,2022-04-19T03:34:01-07:00
; #@! TF.GenerationSoftware,Kicad,Pcbnew,(6.0.0)
; #@! TF.FileFunction,Plated,1,2,PTH
FMAT,2
INCH
; #@! TA.AperFunction,Plated,PTH,ViaDrill
T1C0.0157
; #@! TA.AperFunction,Plated,PTH,ComponentDrill
T2C0.0320
; #@! TA.AperFunction,Plated,PTH,ComponentDrill
T3C0.0354
; #@! TA.AperFunction,Plated,PTH,ComponentDrill
T4C0.0390
; #@! TA.AperFunction,Plated,PTH,ComponentDrill
T5C0.0430
; #@! TA.AperFunction,Plated,PTH,ComponentDrill
T6C0.0866
%
G90
G05
T1
X0.6627Y-2.0611
X0.7061Y-2.008
X0.7376Y-1.508
X0.7633Y-2.6585
X0.7828Y-2.008
X0.7828Y-1.3328
X0.7848Y-2.8525
X0.8064Y-1.9745
X0.8163Y-2.6635
X0.8361Y-2.6053
X0.97Y-3.0526
X0.9843Y-1.7677
X0.9876Y-0.9942
X0.9876Y-2.6635
X0.9876Y-1.2974
X0.9895Y-1.9725
X0.9936Y-2.4419
X1.0741Y-1.9539
X1.0977Y-2.0622
X1.1373Y-1.9754
X1.2173Y-2.5435
X1.3221Y-0.9185
X1.3241Y-1.0642
X1.3755Y-1.7293
X1.3794Y-1.5679
X1.3813Y-2.2599
X1.4877Y-2.8061
X1.4895Y-1.7481
X1.4915Y-1.5277
X1.4915Y-0.8662
X1.4915Y-1.0336
X1.4915Y-2.3741
X1.4928Y-2.2
X1.524Y-2.8525
X1.6843Y-1.2905
X1.6971Y-1.8722
X1.7001Y-2.6331
X1.7178Y-1.7709
X1.7567Y-2.8899
X1.7966Y-2.3741
X1.7981Y-1.5882
X1.8202Y-1.7127
X1.8223Y-2.7529
X1.836Y-2.2509
X1.8477Y-1.0524
X1.8655Y-1.7127
X1.8989Y-0.6626
X1.9954Y-2.139
X2.0092Y-1.9657
X2.0111Y-1.5996
X2.0111Y-1.8161
X2.0151Y-2.5819
X2.1194Y-1.9903
X2.1194Y-1.8977
X2.1352Y-1.2285
X2.1352Y-1.317
X2.141Y-0.759
X2.2003Y-2.1171
X2.2021Y-0.5907
X2.2041Y-1.2599
X2.2041Y-1.9312
X2.3996Y-1.0177
X2.4048Y-1.4559
X2.4068Y-0.8279
X2.4088Y-2.3594
X2.4324Y-2.6193
X2.462Y-1.9017
X2.4679Y-1.2304
X2.4737Y-0.6764
X2.4818Y-1.3356
X2.521Y-0.7875
X2.531Y-1.8041
X2.5382Y-2.7443
X2.5603Y-0.6252
X2.5913Y-1.1951
X2.6097Y-2.5069
X2.6799Y-0.5199
X2.6824Y-1.4579
X2.7152Y-2.3856
X2.7316Y-2.9174
X2.7809Y-1.006
X2.7927Y-1.6851
X2.7946Y-1.5296
X2.8039Y-2.0691
X2.8097Y-0.7675
X2.8215Y-2.1868
X2.8313Y-0.8718
X2.8823Y-3.0514
X2.8918Y-2.8459
X2.9088Y-2.3457
X2.9088Y-0.9725
X2.9088Y-1.6477
X2.9088Y-1.4706
X2.9108Y-2.1379
X2.9108Y-0.8033
X3.0683Y-0.758
X3.0697Y-3.3271
X3.1031Y-1.0455
X3.1161Y-2.5768
X3.1174Y-1.2374
X3.1215Y-1.9163
X3.1352Y-1.004
X3.1614Y-2.9553
X3.2125Y-1.5301
X3.2415Y-2.319
X3.275Y-1.5985
X3.2789Y-2.3584
X3.2917Y-2.8684
X3.3202Y-2.3367
X3.3202Y-1.695
X3.3556Y-2.4756
X3.3576Y-2.3831
X3.3851Y-1.6862
X3.3879Y-2.9415
X3.4116Y-1.6182
X3.4245Y-1.2394
X3.4521Y-1.7945
X3.4816Y-1.6488
X3.5032Y-2.7866
X3.519Y-0.9037
X3.5446Y-1.6035
X3.5446Y-2.2974
X3.5448Y-2.2136
X3.5544Y-0.9972
X3.5602Y-3.0164
X3.5761Y-0.765
X3.5781Y-1.5316
X3.6167Y-1.5702
X3.6167Y-2.243
X3.6175Y-0.9036
X3.6214Y-2.4677
X3.6371Y-1.7925
X3.6534Y-3.2038
X3.6568Y-1.5375
X3.7199Y-2.9858
X3.7219Y-1.3297
X3.7957Y-3.4743
X3.8263Y-2.6781
X3.8282Y-2.0089
X3.8571Y-1.2379
X3.8813Y-1.5395
X3.8871Y-0.948
X3.8871Y-1.0583
X3.8932Y-2.2234
X3.9151Y-3.2382
X3.9245Y-1.0819
X3.9245Y-0.761
X3.9358Y-2.2266
X3.958Y-0.9736
X3.9698Y-1.5878
X3.9889Y-0.9333
X3.9955Y-1.501
X4.0008Y-2.4372
X4.0138Y-2.2736
X4.0308Y-1.6488
X4.0313Y-3.0361
X4.0349Y-1.2352
X4.048Y-2.4372
X4.0544Y-1.9067
X4.0854Y-2.4628
X4.1588Y-0.8288
X4.1693Y-2.6457
X4.2613Y-1.9262
X4.275Y-2.6458
X4.3064Y-3.2458
X4.3118Y-1.575
X4.3425Y-2.6831
X4.3984Y-1.2758
X4.4004Y-2.6163
X4.4082Y-1.6754
X4.4378Y-0.9569
X4.4771Y-1.1459
X4.4947Y-3.7428
X4.4961Y-3.2449
X4.5145Y-1.1085
X4.55Y-1.0719
X4.5519Y-2.6163
X4.5879Y-1.0434
X4.6012Y-2.6537
X4.6197Y-3.3025
X4.6214Y-1.0099
X4.6521Y-3.5345
X4.689Y-2.4724
X4.8Y-2.7128
T2
X4.3001Y-2.4718
X4.3001Y-2.5434
X4.4001Y-2.4718
X4.4001Y-2.5434
X4.5001Y-2.4718
X4.5001Y-2.5434
X4.6001Y-2.4718
X4.6001Y-2.5434
T4
X2.8665Y-0.6207
X3.0633Y-0.6207
T5
X4.158Y-1.176
X4.158Y-1.276
X4.158Y-1.376
X4.158Y-1.476
X4.158Y-1.576
X4.158Y-1.676
X4.158Y-1.776
X4.158Y-1.876
X4.158Y-1.976
X4.158Y-2.076
X4.158Y-2.176
X4.167Y-2.276
X4.258Y-2.276
X4.358Y-2.276
X4.458Y-2.276
X4.558Y-2.276
X4.658Y-2.276
X4.758Y-1.176
X4.758Y-1.276
X4.758Y-1.376
X4.758Y-1.476
X4.758Y-1.576
X4.758Y-1.676
X4.758Y-1.776
X4.758Y-1.876
X4.758Y-1.976
X4.758Y-2.076
X4.758Y-2.176
X4.758Y-2.276
T6
X1.9265Y-1.5001
X2.6765Y-0.7501
X2.6765Y-2.2501
X3.4265Y-1.5001
T3
G00X4.2927Y-2.9666
M15
G01X4.3084Y-2.9666
M16
G05
G00X4.3091Y-2.7863
M15
G01X4.2934Y-2.7863
M16
G05
G00X4.336Y-2.7855
M15
G01X4.3517Y-2.7855
M16
G05
G00X4.3524Y-2.9674
M15
G01X4.3367Y-2.9674
M16
G05
G00X4.4935Y-2.7855
M15
G01X4.5092Y-2.7855
M16
G05
G00X4.5099Y-2.9674
M15
G01X4.4942Y-2.9674
M16
G05
G00X4.6116Y-2.7855
M15
G01X4.6273Y-2.7855
M16
G05
G00X4.628Y-2.9674
M15
G01X4.6123Y-2.9674
M16
G05
T0
M30
