%TF.GenerationSoftware,KiCad,Pcbnew,(6.0.0)*%
%TF.CreationDate,2022-04-18T13:44:49-07:00*%
%TF.ProjectId,half-swept,68616c66-2d73-4776-9570-742e6b696361,rev?*%
%TF.SameCoordinates,Original*%
%TF.FileFunction,Legend,Top*%
%TF.FilePolarity,Positive*%
%FSLAX46Y46*%
G04 Gerber Fmt 4.6, Leading zero omitted, Abs format (unit mm)*
G04 Created by KiCad (PCBNEW (6.0.0)) date 2022-04-18 13:44:49*
%MOMM*%
%LPD*%
G01*
G04 APERTURE LIST*
%ADD10C,0.150000*%
%ADD11C,0.100000*%
%ADD12C,0.120000*%
%ADD13C,0.200000*%
%ADD14C,0.010000*%
%ADD15C,0.381000*%
%ADD16R,1.752600X1.752600*%
%ADD17C,1.752600*%
%ADD18C,1.397000*%
G04 APERTURE END LIST*
D10*
%TO.C,SW21*%
X95174510Y-75650514D02*
X95300174Y-75733485D01*
X95530157Y-75795108D01*
X95634474Y-75773761D01*
X95692795Y-75740090D01*
X95763441Y-75660421D01*
X95788091Y-75568429D01*
X95766744Y-75464111D01*
X95733072Y-75405790D01*
X95653404Y-75335144D01*
X95481743Y-75239848D01*
X95402074Y-75169203D01*
X95368403Y-75110881D01*
X95347056Y-75006564D01*
X95371705Y-74914571D01*
X95442351Y-74834903D01*
X95500672Y-74801231D01*
X95604990Y-74779884D01*
X95834972Y-74841507D01*
X95960637Y-74924478D01*
X96294937Y-74964755D02*
X96266100Y-75992304D01*
X96634957Y-75351656D01*
X96634072Y-76090902D01*
X97122873Y-75186599D01*
X97420199Y-75364865D02*
X97478520Y-75331194D01*
X97582838Y-75309847D01*
X97812820Y-75371470D01*
X97892489Y-75442116D01*
X97926160Y-75500437D01*
X97947507Y-75604755D01*
X97922858Y-75696748D01*
X97839887Y-75822413D01*
X97140033Y-76226474D01*
X97737987Y-76386695D01*
X98657916Y-76633189D02*
X98105959Y-76485293D01*
X98381938Y-76559241D02*
X98640757Y-75593315D01*
X98511790Y-75706655D01*
X98395147Y-75773999D01*
X98290830Y-75795346D01*
%TO.C,SW20*%
X115002425Y-82553120D02*
X115111773Y-82656651D01*
X115327561Y-82757275D01*
X115434000Y-82754366D01*
X115497283Y-82731334D01*
X115580689Y-82665143D01*
X115620939Y-82578828D01*
X115618031Y-82472388D01*
X115594998Y-82409106D01*
X115528807Y-82325699D01*
X115376302Y-82202043D01*
X115310112Y-82118636D01*
X115287079Y-82055354D01*
X115284171Y-81948914D01*
X115324420Y-81862599D01*
X115407827Y-81796409D01*
X115471109Y-81773376D01*
X115577549Y-81770468D01*
X115793336Y-81871091D01*
X115902684Y-81974623D01*
X116224912Y-82072338D02*
X116018081Y-83079269D01*
X116492581Y-82512405D01*
X116363341Y-83240267D01*
X117001747Y-82434582D01*
X117263600Y-82661770D02*
X117326882Y-82638737D01*
X117433322Y-82635829D01*
X117649110Y-82736453D01*
X117715300Y-82819859D01*
X117738333Y-82883142D01*
X117741241Y-82989581D01*
X117700991Y-83075896D01*
X117597460Y-83185244D01*
X116838074Y-83461638D01*
X117399121Y-83723259D01*
X118382787Y-83078572D02*
X118469102Y-83118822D01*
X118535293Y-83202228D01*
X118558325Y-83265511D01*
X118561234Y-83371950D01*
X118523892Y-83564705D01*
X118423269Y-83780493D01*
X118299613Y-83932998D01*
X118216206Y-83999188D01*
X118152924Y-84022221D01*
X118046484Y-84025129D01*
X117960169Y-83984880D01*
X117893979Y-83901473D01*
X117870946Y-83838191D01*
X117868038Y-83731751D01*
X117905379Y-83538996D01*
X118006002Y-83323209D01*
X118129658Y-83170703D01*
X118213065Y-83104513D01*
X118276348Y-83081480D01*
X118382787Y-83078572D01*
%TO.C,SW18*%
X92701059Y-56125135D02*
X92843916Y-56172754D01*
X93082011Y-56172754D01*
X93177249Y-56125135D01*
X93224868Y-56077516D01*
X93272487Y-55982278D01*
X93272487Y-55887040D01*
X93224868Y-55791802D01*
X93177249Y-55744183D01*
X93082011Y-55696564D01*
X92891535Y-55648945D01*
X92796297Y-55601326D01*
X92748678Y-55553707D01*
X92701059Y-55458469D01*
X92701059Y-55363231D01*
X92748678Y-55267993D01*
X92796297Y-55220374D01*
X92891535Y-55172754D01*
X93129630Y-55172754D01*
X93272487Y-55220374D01*
X93605821Y-55172754D02*
X93843916Y-56172754D01*
X94034392Y-55458469D01*
X94224868Y-56172754D01*
X94462963Y-55172754D01*
X95367725Y-56172754D02*
X94796297Y-56172754D01*
X95082011Y-56172754D02*
X95082011Y-55172754D01*
X94986773Y-55315612D01*
X94891535Y-55410850D01*
X94796297Y-55458469D01*
X95939154Y-55601326D02*
X95843916Y-55553707D01*
X95796297Y-55506088D01*
X95748678Y-55410850D01*
X95748678Y-55363231D01*
X95796297Y-55267993D01*
X95843916Y-55220374D01*
X95939154Y-55172754D01*
X96129630Y-55172754D01*
X96224868Y-55220374D01*
X96272487Y-55267993D01*
X96320106Y-55363231D01*
X96320106Y-55410850D01*
X96272487Y-55506088D01*
X96224868Y-55553707D01*
X96129630Y-55601326D01*
X95939154Y-55601326D01*
X95843916Y-55648945D01*
X95796297Y-55696564D01*
X95748678Y-55791802D01*
X95748678Y-55982278D01*
X95796297Y-56077516D01*
X95843916Y-56125135D01*
X95939154Y-56172754D01*
X96129630Y-56172754D01*
X96224868Y-56125135D01*
X96272487Y-56077516D01*
X96320106Y-55982278D01*
X96320106Y-55791802D01*
X96272487Y-55696564D01*
X96224868Y-55648945D01*
X96129630Y-55601326D01*
%TO.C,SW17*%
X74721058Y-53585136D02*
X74863915Y-53632755D01*
X75102010Y-53632755D01*
X75197248Y-53585136D01*
X75244867Y-53537517D01*
X75292486Y-53442279D01*
X75292486Y-53347041D01*
X75244867Y-53251803D01*
X75197248Y-53204184D01*
X75102010Y-53156565D01*
X74911534Y-53108946D01*
X74816296Y-53061327D01*
X74768677Y-53013708D01*
X74721058Y-52918470D01*
X74721058Y-52823232D01*
X74768677Y-52727994D01*
X74816296Y-52680375D01*
X74911534Y-52632755D01*
X75149629Y-52632755D01*
X75292486Y-52680375D01*
X75625820Y-52632755D02*
X75863915Y-53632755D01*
X76054391Y-52918470D01*
X76244867Y-53632755D01*
X76482962Y-52632755D01*
X77387724Y-53632755D02*
X76816296Y-53632755D01*
X77102010Y-53632755D02*
X77102010Y-52632755D01*
X77006772Y-52775613D01*
X76911534Y-52870851D01*
X76816296Y-52918470D01*
X77721058Y-52632755D02*
X78387724Y-52632755D01*
X77959153Y-53632755D01*
%TO.C,SW16*%
X56721057Y-48251135D02*
X56863914Y-48298754D01*
X57102009Y-48298754D01*
X57197247Y-48251135D01*
X57244866Y-48203516D01*
X57292485Y-48108278D01*
X57292485Y-48013040D01*
X57244866Y-47917802D01*
X57197247Y-47870183D01*
X57102009Y-47822564D01*
X56911533Y-47774945D01*
X56816295Y-47727326D01*
X56768676Y-47679707D01*
X56721057Y-47584469D01*
X56721057Y-47489231D01*
X56768676Y-47393993D01*
X56816295Y-47346374D01*
X56911533Y-47298754D01*
X57149628Y-47298754D01*
X57292485Y-47346374D01*
X57625819Y-47298754D02*
X57863914Y-48298754D01*
X58054390Y-47584469D01*
X58244866Y-48298754D01*
X58482961Y-47298754D01*
X59387723Y-48298754D02*
X58816295Y-48298754D01*
X59102009Y-48298754D02*
X59102009Y-47298754D01*
X59006771Y-47441612D01*
X58911533Y-47536850D01*
X58816295Y-47584469D01*
X60244866Y-47298754D02*
X60054390Y-47298754D01*
X59959152Y-47346374D01*
X59911533Y-47393993D01*
X59816295Y-47536850D01*
X59768676Y-47727326D01*
X59768676Y-48108278D01*
X59816295Y-48203516D01*
X59863914Y-48251135D01*
X59959152Y-48298754D01*
X60149628Y-48298754D01*
X60244866Y-48251135D01*
X60292485Y-48203516D01*
X60340104Y-48108278D01*
X60340104Y-47870183D01*
X60292485Y-47774945D01*
X60244866Y-47727326D01*
X60149628Y-47679707D01*
X59959152Y-47679707D01*
X59863914Y-47727326D01*
X59816295Y-47774945D01*
X59768676Y-47870183D01*
%TO.C,SW15*%
X38721060Y-55109135D02*
X38863917Y-55156754D01*
X39102012Y-55156754D01*
X39197250Y-55109135D01*
X39244869Y-55061516D01*
X39292488Y-54966278D01*
X39292488Y-54871040D01*
X39244869Y-54775802D01*
X39197250Y-54728183D01*
X39102012Y-54680564D01*
X38911536Y-54632945D01*
X38816298Y-54585326D01*
X38768679Y-54537707D01*
X38721060Y-54442469D01*
X38721060Y-54347231D01*
X38768679Y-54251993D01*
X38816298Y-54204374D01*
X38911536Y-54156754D01*
X39149631Y-54156754D01*
X39292488Y-54204374D01*
X39625822Y-54156754D02*
X39863917Y-55156754D01*
X40054393Y-54442469D01*
X40244869Y-55156754D01*
X40482964Y-54156754D01*
X41387726Y-55156754D02*
X40816298Y-55156754D01*
X41102012Y-55156754D02*
X41102012Y-54156754D01*
X41006774Y-54299612D01*
X40911536Y-54394850D01*
X40816298Y-54442469D01*
X42292488Y-54156754D02*
X41816298Y-54156754D01*
X41768679Y-54632945D01*
X41816298Y-54585326D01*
X41911536Y-54537707D01*
X42149631Y-54537707D01*
X42244869Y-54585326D01*
X42292488Y-54632945D01*
X42340107Y-54728183D01*
X42340107Y-54966278D01*
X42292488Y-55061516D01*
X42244869Y-55109135D01*
X42149631Y-55156754D01*
X41911536Y-55156754D01*
X41816298Y-55109135D01*
X41768679Y-55061516D01*
%TO.C,SW14*%
X20721059Y-67117135D02*
X20863916Y-67164754D01*
X21102011Y-67164754D01*
X21197249Y-67117135D01*
X21244868Y-67069516D01*
X21292487Y-66974278D01*
X21292487Y-66879040D01*
X21244868Y-66783802D01*
X21197249Y-66736183D01*
X21102011Y-66688564D01*
X20911535Y-66640945D01*
X20816297Y-66593326D01*
X20768678Y-66545707D01*
X20721059Y-66450469D01*
X20721059Y-66355231D01*
X20768678Y-66259993D01*
X20816297Y-66212374D01*
X20911535Y-66164754D01*
X21149630Y-66164754D01*
X21292487Y-66212374D01*
X21625821Y-66164754D02*
X21863916Y-67164754D01*
X22054392Y-66450469D01*
X22244868Y-67164754D01*
X22482963Y-66164754D01*
X23387725Y-67164754D02*
X22816297Y-67164754D01*
X23102011Y-67164754D02*
X23102011Y-66164754D01*
X23006773Y-66307612D01*
X22911535Y-66402850D01*
X22816297Y-66450469D01*
X24244868Y-66498088D02*
X24244868Y-67164754D01*
X24006773Y-66117135D02*
X23768678Y-66831421D01*
X24387725Y-66831421D01*
%TO.C,SW12*%
X92701058Y-39107136D02*
X92843915Y-39154755D01*
X93082010Y-39154755D01*
X93177248Y-39107136D01*
X93224867Y-39059517D01*
X93272486Y-38964279D01*
X93272486Y-38869041D01*
X93224867Y-38773803D01*
X93177248Y-38726184D01*
X93082010Y-38678565D01*
X92891534Y-38630946D01*
X92796296Y-38583327D01*
X92748677Y-38535708D01*
X92701058Y-38440470D01*
X92701058Y-38345232D01*
X92748677Y-38249994D01*
X92796296Y-38202375D01*
X92891534Y-38154755D01*
X93129629Y-38154755D01*
X93272486Y-38202375D01*
X93605820Y-38154755D02*
X93843915Y-39154755D01*
X94034391Y-38440470D01*
X94224867Y-39154755D01*
X94462962Y-38154755D01*
X95367724Y-39154755D02*
X94796296Y-39154755D01*
X95082010Y-39154755D02*
X95082010Y-38154755D01*
X94986772Y-38297613D01*
X94891534Y-38392851D01*
X94796296Y-38440470D01*
X95748677Y-38249994D02*
X95796296Y-38202375D01*
X95891534Y-38154755D01*
X96129629Y-38154755D01*
X96224867Y-38202375D01*
X96272486Y-38249994D01*
X96320105Y-38345232D01*
X96320105Y-38440470D01*
X96272486Y-38583327D01*
X95701058Y-39154755D01*
X96320105Y-39154755D01*
%TO.C,SW11*%
X74721059Y-36567137D02*
X74863916Y-36614756D01*
X75102011Y-36614756D01*
X75197249Y-36567137D01*
X75244868Y-36519518D01*
X75292487Y-36424280D01*
X75292487Y-36329042D01*
X75244868Y-36233804D01*
X75197249Y-36186185D01*
X75102011Y-36138566D01*
X74911535Y-36090947D01*
X74816297Y-36043328D01*
X74768678Y-35995709D01*
X74721059Y-35900471D01*
X74721059Y-35805233D01*
X74768678Y-35709995D01*
X74816297Y-35662376D01*
X74911535Y-35614756D01*
X75149630Y-35614756D01*
X75292487Y-35662376D01*
X75625821Y-35614756D02*
X75863916Y-36614756D01*
X76054392Y-35900471D01*
X76244868Y-36614756D01*
X76482963Y-35614756D01*
X77387725Y-36614756D02*
X76816297Y-36614756D01*
X77102011Y-36614756D02*
X77102011Y-35614756D01*
X77006773Y-35757614D01*
X76911535Y-35852852D01*
X76816297Y-35900471D01*
X78340106Y-36614756D02*
X77768678Y-36614756D01*
X78054392Y-36614756D02*
X78054392Y-35614756D01*
X77959154Y-35757614D01*
X77863916Y-35852852D01*
X77768678Y-35900471D01*
%TO.C,SW10*%
X56721059Y-31233134D02*
X56863916Y-31280753D01*
X57102011Y-31280753D01*
X57197249Y-31233134D01*
X57244868Y-31185515D01*
X57292487Y-31090277D01*
X57292487Y-30995039D01*
X57244868Y-30899801D01*
X57197249Y-30852182D01*
X57102011Y-30804563D01*
X56911535Y-30756944D01*
X56816297Y-30709325D01*
X56768678Y-30661706D01*
X56721059Y-30566468D01*
X56721059Y-30471230D01*
X56768678Y-30375992D01*
X56816297Y-30328373D01*
X56911535Y-30280753D01*
X57149630Y-30280753D01*
X57292487Y-30328373D01*
X57625821Y-30280753D02*
X57863916Y-31280753D01*
X58054392Y-30566468D01*
X58244868Y-31280753D01*
X58482963Y-30280753D01*
X59387725Y-31280753D02*
X58816297Y-31280753D01*
X59102011Y-31280753D02*
X59102011Y-30280753D01*
X59006773Y-30423611D01*
X58911535Y-30518849D01*
X58816297Y-30566468D01*
X60006773Y-30280753D02*
X60102011Y-30280753D01*
X60197249Y-30328373D01*
X60244868Y-30375992D01*
X60292487Y-30471230D01*
X60340106Y-30661706D01*
X60340106Y-30899801D01*
X60292487Y-31090277D01*
X60244868Y-31185515D01*
X60197249Y-31233134D01*
X60102011Y-31280753D01*
X60006773Y-31280753D01*
X59911535Y-31233134D01*
X59863916Y-31185515D01*
X59816297Y-31090277D01*
X59768678Y-30899801D01*
X59768678Y-30661706D01*
X59816297Y-30471230D01*
X59863916Y-30375992D01*
X59911535Y-30328373D01*
X60006773Y-30280753D01*
%TO.C,SW9*%
X39197250Y-38091135D02*
X39340107Y-38138754D01*
X39578203Y-38138754D01*
X39673441Y-38091135D01*
X39721060Y-38043516D01*
X39768679Y-37948278D01*
X39768679Y-37853040D01*
X39721060Y-37757802D01*
X39673441Y-37710183D01*
X39578203Y-37662564D01*
X39387726Y-37614945D01*
X39292488Y-37567326D01*
X39244869Y-37519707D01*
X39197250Y-37424469D01*
X39197250Y-37329231D01*
X39244869Y-37233993D01*
X39292488Y-37186374D01*
X39387726Y-37138754D01*
X39625822Y-37138754D01*
X39768679Y-37186374D01*
X40102012Y-37138754D02*
X40340107Y-38138754D01*
X40530584Y-37424469D01*
X40721060Y-38138754D01*
X40959155Y-37138754D01*
X41387726Y-38138754D02*
X41578203Y-38138754D01*
X41673441Y-38091135D01*
X41721060Y-38043516D01*
X41816298Y-37900659D01*
X41863917Y-37710183D01*
X41863917Y-37329231D01*
X41816298Y-37233993D01*
X41768679Y-37186374D01*
X41673441Y-37138754D01*
X41482964Y-37138754D01*
X41387726Y-37186374D01*
X41340107Y-37233993D01*
X41292488Y-37329231D01*
X41292488Y-37567326D01*
X41340107Y-37662564D01*
X41387726Y-37710183D01*
X41482964Y-37757802D01*
X41673441Y-37757802D01*
X41768679Y-37710183D01*
X41816298Y-37662564D01*
X41863917Y-37567326D01*
%TO.C,SW8*%
X21197248Y-50117135D02*
X21340105Y-50164754D01*
X21578201Y-50164754D01*
X21673439Y-50117135D01*
X21721058Y-50069516D01*
X21768677Y-49974278D01*
X21768677Y-49879040D01*
X21721058Y-49783802D01*
X21673439Y-49736183D01*
X21578201Y-49688564D01*
X21387724Y-49640945D01*
X21292486Y-49593326D01*
X21244867Y-49545707D01*
X21197248Y-49450469D01*
X21197248Y-49355231D01*
X21244867Y-49259993D01*
X21292486Y-49212374D01*
X21387724Y-49164754D01*
X21625820Y-49164754D01*
X21768677Y-49212374D01*
X22102010Y-49164754D02*
X22340105Y-50164754D01*
X22530582Y-49450469D01*
X22721058Y-50164754D01*
X22959153Y-49164754D01*
X23482962Y-49593326D02*
X23387724Y-49545707D01*
X23340105Y-49498088D01*
X23292486Y-49402850D01*
X23292486Y-49355231D01*
X23340105Y-49259993D01*
X23387724Y-49212374D01*
X23482962Y-49164754D01*
X23673439Y-49164754D01*
X23768677Y-49212374D01*
X23816296Y-49259993D01*
X23863915Y-49355231D01*
X23863915Y-49402850D01*
X23816296Y-49498088D01*
X23768677Y-49545707D01*
X23673439Y-49593326D01*
X23482962Y-49593326D01*
X23387724Y-49640945D01*
X23340105Y-49688564D01*
X23292486Y-49783802D01*
X23292486Y-49974278D01*
X23340105Y-50069516D01*
X23387724Y-50117135D01*
X23482962Y-50164754D01*
X23673439Y-50164754D01*
X23768677Y-50117135D01*
X23816296Y-50069516D01*
X23863915Y-49974278D01*
X23863915Y-49783802D01*
X23816296Y-49688564D01*
X23768677Y-49640945D01*
X23673439Y-49593326D01*
%TO.C,SW6*%
X93197247Y-22117136D02*
X93340104Y-22164755D01*
X93578200Y-22164755D01*
X93673438Y-22117136D01*
X93721057Y-22069517D01*
X93768676Y-21974279D01*
X93768676Y-21879041D01*
X93721057Y-21783803D01*
X93673438Y-21736184D01*
X93578200Y-21688565D01*
X93387723Y-21640946D01*
X93292485Y-21593327D01*
X93244866Y-21545708D01*
X93197247Y-21450470D01*
X93197247Y-21355232D01*
X93244866Y-21259994D01*
X93292485Y-21212375D01*
X93387723Y-21164755D01*
X93625819Y-21164755D01*
X93768676Y-21212375D01*
X94102009Y-21164755D02*
X94340104Y-22164755D01*
X94530581Y-21450470D01*
X94721057Y-22164755D01*
X94959152Y-21164755D01*
X95768676Y-21164755D02*
X95578200Y-21164755D01*
X95482961Y-21212375D01*
X95435342Y-21259994D01*
X95340104Y-21402851D01*
X95292485Y-21593327D01*
X95292485Y-21974279D01*
X95340104Y-22069517D01*
X95387723Y-22117136D01*
X95482961Y-22164755D01*
X95673438Y-22164755D01*
X95768676Y-22117136D01*
X95816295Y-22069517D01*
X95863914Y-21974279D01*
X95863914Y-21736184D01*
X95816295Y-21640946D01*
X95768676Y-21593327D01*
X95673438Y-21545708D01*
X95482961Y-21545708D01*
X95387723Y-21593327D01*
X95340104Y-21640946D01*
X95292485Y-21736184D01*
%TO.C,SW5*%
X75197249Y-19617134D02*
X75340106Y-19664753D01*
X75578202Y-19664753D01*
X75673440Y-19617134D01*
X75721059Y-19569515D01*
X75768678Y-19474277D01*
X75768678Y-19379039D01*
X75721059Y-19283801D01*
X75673440Y-19236182D01*
X75578202Y-19188563D01*
X75387725Y-19140944D01*
X75292487Y-19093325D01*
X75244868Y-19045706D01*
X75197249Y-18950468D01*
X75197249Y-18855230D01*
X75244868Y-18759992D01*
X75292487Y-18712373D01*
X75387725Y-18664753D01*
X75625821Y-18664753D01*
X75768678Y-18712373D01*
X76102011Y-18664753D02*
X76340106Y-19664753D01*
X76530583Y-18950468D01*
X76721059Y-19664753D01*
X76959154Y-18664753D01*
X77816297Y-18664753D02*
X77340106Y-18664753D01*
X77292487Y-19140944D01*
X77340106Y-19093325D01*
X77435344Y-19045706D01*
X77673440Y-19045706D01*
X77768678Y-19093325D01*
X77816297Y-19140944D01*
X77863916Y-19236182D01*
X77863916Y-19474277D01*
X77816297Y-19569515D01*
X77768678Y-19617134D01*
X77673440Y-19664753D01*
X77435344Y-19664753D01*
X77340106Y-19617134D01*
X77292487Y-19569515D01*
%TO.C,SW4*%
X57197249Y-14117135D02*
X57340106Y-14164754D01*
X57578202Y-14164754D01*
X57673440Y-14117135D01*
X57721059Y-14069516D01*
X57768678Y-13974278D01*
X57768678Y-13879040D01*
X57721059Y-13783802D01*
X57673440Y-13736183D01*
X57578202Y-13688564D01*
X57387725Y-13640945D01*
X57292487Y-13593326D01*
X57244868Y-13545707D01*
X57197249Y-13450469D01*
X57197249Y-13355231D01*
X57244868Y-13259993D01*
X57292487Y-13212374D01*
X57387725Y-13164754D01*
X57625821Y-13164754D01*
X57768678Y-13212374D01*
X58102011Y-13164754D02*
X58340106Y-14164754D01*
X58530583Y-13450469D01*
X58721059Y-14164754D01*
X58959154Y-13164754D01*
X59768678Y-13498088D02*
X59768678Y-14164754D01*
X59530583Y-13117135D02*
X59292487Y-13831421D01*
X59911535Y-13831421D01*
%TO.C,SW3*%
X39197249Y-21117135D02*
X39340106Y-21164754D01*
X39578202Y-21164754D01*
X39673440Y-21117135D01*
X39721059Y-21069516D01*
X39768678Y-20974278D01*
X39768678Y-20879040D01*
X39721059Y-20783802D01*
X39673440Y-20736183D01*
X39578202Y-20688564D01*
X39387725Y-20640945D01*
X39292487Y-20593326D01*
X39244868Y-20545707D01*
X39197249Y-20450469D01*
X39197249Y-20355231D01*
X39244868Y-20259993D01*
X39292487Y-20212374D01*
X39387725Y-20164754D01*
X39625821Y-20164754D01*
X39768678Y-20212374D01*
X40102011Y-20164754D02*
X40340106Y-21164754D01*
X40530583Y-20450469D01*
X40721059Y-21164754D01*
X40959154Y-20164754D01*
X41244868Y-20164754D02*
X41863916Y-20164754D01*
X41530583Y-20545707D01*
X41673440Y-20545707D01*
X41768678Y-20593326D01*
X41816297Y-20640945D01*
X41863916Y-20736183D01*
X41863916Y-20974278D01*
X41816297Y-21069516D01*
X41768678Y-21117135D01*
X41673440Y-21164754D01*
X41387725Y-21164754D01*
X41292487Y-21117135D01*
X41244868Y-21069516D01*
%TO.C,SW2*%
X21197248Y-33117135D02*
X21340105Y-33164754D01*
X21578201Y-33164754D01*
X21673439Y-33117135D01*
X21721058Y-33069516D01*
X21768677Y-32974278D01*
X21768677Y-32879040D01*
X21721058Y-32783802D01*
X21673439Y-32736183D01*
X21578201Y-32688564D01*
X21387724Y-32640945D01*
X21292486Y-32593326D01*
X21244867Y-32545707D01*
X21197248Y-32450469D01*
X21197248Y-32355231D01*
X21244867Y-32259993D01*
X21292486Y-32212374D01*
X21387724Y-32164754D01*
X21625820Y-32164754D01*
X21768677Y-32212374D01*
X22102010Y-32164754D02*
X22340105Y-33164754D01*
X22530582Y-32450469D01*
X22721058Y-33164754D01*
X22959153Y-32164754D01*
X23292486Y-32259993D02*
X23340105Y-32212374D01*
X23435343Y-32164754D01*
X23673439Y-32164754D01*
X23768677Y-32212374D01*
X23816296Y-32259993D01*
X23863915Y-32355231D01*
X23863915Y-32450469D01*
X23816296Y-32593326D01*
X23244867Y-33164754D01*
X23863915Y-33164754D01*
%TO.C,SW1*%
X74957489Y-72340446D02*
X75095652Y-72400334D01*
X75332841Y-72421086D01*
X75431867Y-72381948D01*
X75483455Y-72338661D01*
X75539194Y-72247935D01*
X75547494Y-72153060D01*
X75508357Y-72054034D01*
X75465069Y-72002445D01*
X75374344Y-71946707D01*
X75188743Y-71882668D01*
X75098017Y-71826930D01*
X75054730Y-71775342D01*
X75015592Y-71676316D01*
X75023893Y-71581440D01*
X75079631Y-71490715D01*
X75131219Y-71447427D01*
X75230245Y-71408290D01*
X75467435Y-71429041D01*
X75605598Y-71488930D01*
X75941813Y-71470544D02*
X76091847Y-72487490D01*
X76343852Y-71792523D01*
X76471349Y-72520692D01*
X76795694Y-71545249D01*
X77609857Y-72620299D02*
X77040603Y-72570495D01*
X77325230Y-72595397D02*
X77412386Y-71599202D01*
X77305060Y-71733215D01*
X77201883Y-71819790D01*
X77102857Y-71858928D01*
%TO.C,RSW1*%
X74041297Y-17907254D02*
X73707963Y-17431064D01*
X73469868Y-17907254D02*
X73469868Y-16907254D01*
X73850821Y-16907254D01*
X73946059Y-16954874D01*
X73993678Y-17002493D01*
X74041297Y-17097731D01*
X74041297Y-17240588D01*
X73993678Y-17335826D01*
X73946059Y-17383445D01*
X73850821Y-17431064D01*
X73469868Y-17431064D01*
X74422249Y-17859635D02*
X74565106Y-17907254D01*
X74803202Y-17907254D01*
X74898440Y-17859635D01*
X74946059Y-17812016D01*
X74993678Y-17716778D01*
X74993678Y-17621540D01*
X74946059Y-17526302D01*
X74898440Y-17478683D01*
X74803202Y-17431064D01*
X74612725Y-17383445D01*
X74517487Y-17335826D01*
X74469868Y-17288207D01*
X74422249Y-17192969D01*
X74422249Y-17097731D01*
X74469868Y-17002493D01*
X74517487Y-16954874D01*
X74612725Y-16907254D01*
X74850821Y-16907254D01*
X74993678Y-16954874D01*
X75327011Y-16907254D02*
X75565106Y-17907254D01*
X75755583Y-17192969D01*
X75946059Y-17907254D01*
X76184154Y-16907254D01*
X77088916Y-17907254D02*
X76517487Y-17907254D01*
X76803202Y-17907254D02*
X76803202Y-16907254D01*
X76707963Y-17050112D01*
X76612725Y-17145350D01*
X76517487Y-17192969D01*
D11*
%TO.C,REF\u002A\u002A*%
X67525797Y-47470374D02*
X67525797Y-47089421D01*
X67192463Y-47327516D02*
X68049606Y-47327516D01*
X68144844Y-47279897D01*
X68192463Y-47184659D01*
X68192463Y-47089421D01*
X68144844Y-46375135D02*
X68192463Y-46470374D01*
X68192463Y-46660850D01*
X68144844Y-46756088D01*
X68049606Y-46803707D01*
X67668654Y-46803707D01*
X67573416Y-46756088D01*
X67525797Y-46660850D01*
X67525797Y-46470374D01*
X67573416Y-46375135D01*
X67668654Y-46327516D01*
X67763892Y-46327516D01*
X67859130Y-46803707D01*
X67525797Y-45898945D02*
X68192463Y-45898945D01*
X67621035Y-45898945D02*
X67573416Y-45851326D01*
X67525797Y-45756088D01*
X67525797Y-45613231D01*
X67573416Y-45517993D01*
X67668654Y-45470374D01*
X68192463Y-45470374D01*
X67525797Y-45137040D02*
X67525797Y-44756088D01*
X67192463Y-44994183D02*
X68049606Y-44994183D01*
X68144844Y-44946564D01*
X68192463Y-44851326D01*
X68192463Y-44756088D01*
X68192463Y-44422754D02*
X67525797Y-44422754D01*
X67192463Y-44422754D02*
X67240083Y-44470374D01*
X67287702Y-44422754D01*
X67240083Y-44375135D01*
X67192463Y-44422754D01*
X67287702Y-44422754D01*
X67525797Y-43946564D02*
X68192463Y-43946564D01*
X67621035Y-43946564D02*
X67573416Y-43898945D01*
X67525797Y-43803707D01*
X67525797Y-43660850D01*
X67573416Y-43565612D01*
X67668654Y-43517993D01*
X68192463Y-43517993D01*
X67525797Y-42613231D02*
X68335321Y-42613231D01*
X68430559Y-42660850D01*
X68478178Y-42708469D01*
X68525797Y-42803707D01*
X68525797Y-42946564D01*
X68478178Y-43041802D01*
X68144844Y-42613231D02*
X68192463Y-42708469D01*
X68192463Y-42898945D01*
X68144844Y-42994183D01*
X68097225Y-43041802D01*
X68001987Y-43089421D01*
X67716273Y-43089421D01*
X67621035Y-43041802D01*
X67573416Y-42994183D01*
X67525797Y-42898945D01*
X67525797Y-42708469D01*
X67573416Y-42613231D01*
X67462297Y-33579874D02*
X68462297Y-33579874D01*
X67509916Y-33579874D02*
X67462297Y-33484635D01*
X67462297Y-33294159D01*
X67509916Y-33198921D01*
X67557535Y-33151302D01*
X67652773Y-33103683D01*
X67938487Y-33103683D01*
X68033725Y-33151302D01*
X68081344Y-33198921D01*
X68128963Y-33294159D01*
X68128963Y-33484635D01*
X68081344Y-33579874D01*
X67462297Y-32246540D02*
X68128963Y-32246540D01*
X67462297Y-32675112D02*
X67986106Y-32675112D01*
X68081344Y-32627493D01*
X68128963Y-32532254D01*
X68128963Y-32389397D01*
X68081344Y-32294159D01*
X68033725Y-32246540D01*
X68081344Y-31341778D02*
X68128963Y-31437016D01*
X68128963Y-31627493D01*
X68081344Y-31722731D01*
X68033725Y-31770350D01*
X67938487Y-31817969D01*
X67652773Y-31817969D01*
X67557535Y-31770350D01*
X67509916Y-31722731D01*
X67462297Y-31627493D01*
X67462297Y-31437016D01*
X67509916Y-31341778D01*
X68128963Y-30913207D02*
X67128963Y-30913207D01*
X67748011Y-30817969D02*
X68128963Y-30532254D01*
X67462297Y-30532254D02*
X67843249Y-30913207D01*
D10*
%TO.C,U2*%
X107167200Y-52681982D02*
X107433866Y-52681982D01*
X107548152Y-53101029D02*
X107167200Y-53101029D01*
X107167200Y-52301029D01*
X107548152Y-52301029D01*
X108233866Y-52301029D02*
X108081485Y-52301029D01*
X108005295Y-52339125D01*
X107967200Y-52377220D01*
X107891009Y-52491505D01*
X107852914Y-52643886D01*
X107852914Y-52948648D01*
X107891009Y-53024839D01*
X107929104Y-53062934D01*
X108005295Y-53101029D01*
X108157676Y-53101029D01*
X108233866Y-53062934D01*
X108271961Y-53024839D01*
X108310057Y-52948648D01*
X108310057Y-52758172D01*
X108271961Y-52681982D01*
X108233866Y-52643886D01*
X108157676Y-52605791D01*
X108005295Y-52605791D01*
X107929104Y-52643886D01*
X107891009Y-52681982D01*
X107852914Y-52758172D01*
X117447247Y-56399125D02*
X117213914Y-56399125D01*
X117213914Y-56765791D02*
X117213914Y-56065791D01*
X117547247Y-56065791D01*
X117947247Y-56065791D02*
X118013914Y-56065791D01*
X118080581Y-56099125D01*
X118113914Y-56132458D01*
X118147247Y-56199125D01*
X118180581Y-56332458D01*
X118180581Y-56499125D01*
X118147247Y-56632458D01*
X118113914Y-56699125D01*
X118080581Y-56732458D01*
X118013914Y-56765791D01*
X117947247Y-56765791D01*
X117880581Y-56732458D01*
X117847247Y-56699125D01*
X117813914Y-56632458D01*
X117780581Y-56499125D01*
X117780581Y-56332458D01*
X117813914Y-56199125D01*
X117847247Y-56132458D01*
X117880581Y-56099125D01*
X117947247Y-56065791D01*
X107129104Y-45481029D02*
X107129104Y-44681029D01*
X107319581Y-44681029D01*
X107433866Y-44719125D01*
X107510057Y-44795315D01*
X107548152Y-44871505D01*
X107586247Y-45023886D01*
X107586247Y-45138172D01*
X107548152Y-45290553D01*
X107510057Y-45366744D01*
X107433866Y-45442934D01*
X107319581Y-45481029D01*
X107129104Y-45481029D01*
X108271961Y-44947696D02*
X108271961Y-45481029D01*
X108081485Y-44642934D02*
X107891009Y-45214363D01*
X108386247Y-45214363D01*
X107129104Y-50561029D02*
X107129104Y-49761029D01*
X107319581Y-49761029D01*
X107433866Y-49799125D01*
X107510057Y-49875315D01*
X107548152Y-49951505D01*
X107586247Y-50103886D01*
X107586247Y-50218172D01*
X107548152Y-50370553D01*
X107510057Y-50446744D01*
X107433866Y-50522934D01*
X107319581Y-50561029D01*
X107129104Y-50561029D01*
X107852914Y-49761029D02*
X108386247Y-49761029D01*
X108043390Y-50561029D01*
X107586247Y-47944839D02*
X107548152Y-47982934D01*
X107433866Y-48021029D01*
X107357676Y-48021029D01*
X107243390Y-47982934D01*
X107167200Y-47906744D01*
X107129104Y-47830553D01*
X107091009Y-47678172D01*
X107091009Y-47563886D01*
X107129104Y-47411505D01*
X107167200Y-47335315D01*
X107243390Y-47259125D01*
X107357676Y-47221029D01*
X107433866Y-47221029D01*
X107548152Y-47259125D01*
X107586247Y-47297220D01*
X108271961Y-47221029D02*
X108119581Y-47221029D01*
X108043390Y-47259125D01*
X108005295Y-47297220D01*
X107929104Y-47411505D01*
X107891009Y-47563886D01*
X107891009Y-47868648D01*
X107929104Y-47944839D01*
X107967200Y-47982934D01*
X108043390Y-48021029D01*
X108195771Y-48021029D01*
X108271961Y-47982934D01*
X108310057Y-47944839D01*
X108348152Y-47868648D01*
X108348152Y-47678172D01*
X108310057Y-47601982D01*
X108271961Y-47563886D01*
X108195771Y-47525791D01*
X108043390Y-47525791D01*
X107967200Y-47563886D01*
X107929104Y-47601982D01*
X107891009Y-47678172D01*
X118374914Y-39981982D02*
X118108247Y-39981982D01*
X118108247Y-40401029D02*
X118108247Y-39601029D01*
X118489200Y-39601029D01*
X119136819Y-39867696D02*
X119136819Y-40401029D01*
X118946342Y-39562934D02*
X118755866Y-40134363D01*
X119251104Y-40134363D01*
X107110057Y-34559125D02*
X107033866Y-34521029D01*
X106919581Y-34521029D01*
X106805295Y-34559125D01*
X106729104Y-34635315D01*
X106691009Y-34711505D01*
X106652914Y-34863886D01*
X106652914Y-34978172D01*
X106691009Y-35130553D01*
X106729104Y-35206744D01*
X106805295Y-35282934D01*
X106919581Y-35321029D01*
X106995771Y-35321029D01*
X107110057Y-35282934D01*
X107148152Y-35244839D01*
X107148152Y-34978172D01*
X106995771Y-34978172D01*
X107491009Y-35321029D02*
X107491009Y-34521029D01*
X107948152Y-35321029D01*
X107948152Y-34521029D01*
X108329104Y-35321029D02*
X108329104Y-34521029D01*
X108519581Y-34521029D01*
X108633866Y-34559125D01*
X108710057Y-34635315D01*
X108748152Y-34711505D01*
X108786247Y-34863886D01*
X108786247Y-34978172D01*
X108748152Y-35130553D01*
X108710057Y-35206744D01*
X108633866Y-35282934D01*
X108519581Y-35321029D01*
X108329104Y-35321029D01*
X108397247Y-56399125D02*
X108497247Y-56432458D01*
X108530581Y-56465791D01*
X108563914Y-56532458D01*
X108563914Y-56632458D01*
X108530581Y-56699125D01*
X108497247Y-56732458D01*
X108430581Y-56765791D01*
X108163914Y-56765791D01*
X108163914Y-56065791D01*
X108397247Y-56065791D01*
X108463914Y-56099125D01*
X108497247Y-56132458D01*
X108530581Y-56199125D01*
X108530581Y-56265791D01*
X108497247Y-56332458D01*
X108463914Y-56365791D01*
X108397247Y-56399125D01*
X108163914Y-56399125D01*
X108797247Y-56065791D02*
X109263914Y-56065791D01*
X108963914Y-56765791D01*
X118317771Y-55221982D02*
X118432057Y-55260077D01*
X118470152Y-55298172D01*
X118508247Y-55374363D01*
X118508247Y-55488648D01*
X118470152Y-55564839D01*
X118432057Y-55602934D01*
X118355866Y-55641029D01*
X118051104Y-55641029D01*
X118051104Y-54841029D01*
X118317771Y-54841029D01*
X118393961Y-54879125D01*
X118432057Y-54917220D01*
X118470152Y-54993410D01*
X118470152Y-55069601D01*
X118432057Y-55145791D01*
X118393961Y-55183886D01*
X118317771Y-55221982D01*
X118051104Y-55221982D01*
X118813009Y-54917220D02*
X118851104Y-54879125D01*
X118927295Y-54841029D01*
X119117771Y-54841029D01*
X119193961Y-54879125D01*
X119232057Y-54917220D01*
X119270152Y-54993410D01*
X119270152Y-55069601D01*
X119232057Y-55183886D01*
X118774914Y-55641029D01*
X119270152Y-55641029D01*
X115453914Y-56191982D02*
X115187247Y-56191982D01*
X115187247Y-56611029D02*
X115187247Y-55811029D01*
X115568200Y-55811029D01*
X116292009Y-56611029D02*
X115834866Y-56611029D01*
X116063438Y-56611029D02*
X116063438Y-55811029D01*
X115987247Y-55925315D01*
X115911057Y-56001505D01*
X115834866Y-56039601D01*
X118317771Y-52681982D02*
X118432057Y-52720077D01*
X118470152Y-52758172D01*
X118508247Y-52834363D01*
X118508247Y-52948648D01*
X118470152Y-53024839D01*
X118432057Y-53062934D01*
X118355866Y-53101029D01*
X118051104Y-53101029D01*
X118051104Y-52301029D01*
X118317771Y-52301029D01*
X118393961Y-52339125D01*
X118432057Y-52377220D01*
X118470152Y-52453410D01*
X118470152Y-52529601D01*
X118432057Y-52605791D01*
X118393961Y-52643886D01*
X118317771Y-52681982D01*
X118051104Y-52681982D01*
X118774914Y-52301029D02*
X119270152Y-52301029D01*
X119003485Y-52605791D01*
X119117771Y-52605791D01*
X119193961Y-52643886D01*
X119232057Y-52681982D01*
X119270152Y-52758172D01*
X119270152Y-52948648D01*
X119232057Y-53024839D01*
X119193961Y-53062934D01*
X119117771Y-53101029D01*
X118889200Y-53101029D01*
X118813009Y-53062934D01*
X118774914Y-53024839D01*
X107129104Y-42941029D02*
X107129104Y-42141029D01*
X107319581Y-42141029D01*
X107433866Y-42179125D01*
X107510057Y-42255315D01*
X107548152Y-42331505D01*
X107586247Y-42483886D01*
X107586247Y-42598172D01*
X107548152Y-42750553D01*
X107510057Y-42826744D01*
X107433866Y-42902934D01*
X107319581Y-42941029D01*
X107129104Y-42941029D01*
X108081485Y-42141029D02*
X108157676Y-42141029D01*
X108233866Y-42179125D01*
X108271961Y-42217220D01*
X108310057Y-42293410D01*
X108348152Y-42445791D01*
X108348152Y-42636267D01*
X108310057Y-42788648D01*
X108271961Y-42864839D01*
X108233866Y-42902934D01*
X108157676Y-42941029D01*
X108081485Y-42941029D01*
X108005295Y-42902934D01*
X107967200Y-42864839D01*
X107929104Y-42788648D01*
X107891009Y-42636267D01*
X107891009Y-42445791D01*
X107929104Y-42293410D01*
X107967200Y-42217220D01*
X108005295Y-42179125D01*
X108081485Y-42141029D01*
X110050104Y-56611029D02*
X110050104Y-55811029D01*
X110240581Y-55811029D01*
X110354866Y-55849125D01*
X110431057Y-55925315D01*
X110469152Y-56001505D01*
X110507247Y-56153886D01*
X110507247Y-56268172D01*
X110469152Y-56420553D01*
X110431057Y-56496744D01*
X110354866Y-56572934D01*
X110240581Y-56611029D01*
X110050104Y-56611029D01*
X111231057Y-55811029D02*
X110850104Y-55811029D01*
X110812009Y-56191982D01*
X110850104Y-56153886D01*
X110926295Y-56115791D01*
X111116771Y-56115791D01*
X111192961Y-56153886D01*
X111231057Y-56191982D01*
X111269152Y-56268172D01*
X111269152Y-56458648D01*
X111231057Y-56534839D01*
X111192961Y-56572934D01*
X111116771Y-56611029D01*
X110926295Y-56611029D01*
X110850104Y-56572934D01*
X110812009Y-56534839D01*
X106945572Y-56784827D02*
X106898432Y-56690546D01*
X106898432Y-56643405D01*
X106922002Y-56572695D01*
X106992713Y-56501984D01*
X107063423Y-56478414D01*
X107110564Y-56478414D01*
X107181274Y-56501984D01*
X107369836Y-56690546D01*
X106874861Y-57185521D01*
X106709870Y-57020529D01*
X106686300Y-56949818D01*
X106686300Y-56902678D01*
X106709870Y-56831967D01*
X106757010Y-56784827D01*
X106827721Y-56761257D01*
X106874861Y-56761257D01*
X106945572Y-56784827D01*
X107110564Y-56949818D01*
X106144184Y-56454844D02*
X106379887Y-56690546D01*
X106639159Y-56478414D01*
X106592019Y-56478414D01*
X106521308Y-56454844D01*
X106403457Y-56336992D01*
X106379887Y-56266282D01*
X106379887Y-56219141D01*
X106403457Y-56148431D01*
X106521308Y-56030580D01*
X106592019Y-56007009D01*
X106639159Y-56007009D01*
X106709870Y-56030580D01*
X106827721Y-56148431D01*
X106851291Y-56219141D01*
X106851291Y-56266282D01*
X107110057Y-37099125D02*
X107033866Y-37061029D01*
X106919581Y-37061029D01*
X106805295Y-37099125D01*
X106729104Y-37175315D01*
X106691009Y-37251505D01*
X106652914Y-37403886D01*
X106652914Y-37518172D01*
X106691009Y-37670553D01*
X106729104Y-37746744D01*
X106805295Y-37822934D01*
X106919581Y-37861029D01*
X106995771Y-37861029D01*
X107110057Y-37822934D01*
X107148152Y-37784839D01*
X107148152Y-37518172D01*
X106995771Y-37518172D01*
X107491009Y-37861029D02*
X107491009Y-37061029D01*
X107948152Y-37861029D01*
X107948152Y-37061029D01*
X108329104Y-37861029D02*
X108329104Y-37061029D01*
X108519581Y-37061029D01*
X108633866Y-37099125D01*
X108710057Y-37175315D01*
X108748152Y-37251505D01*
X108786247Y-37403886D01*
X108786247Y-37518172D01*
X108748152Y-37670553D01*
X108710057Y-37746744D01*
X108633866Y-37822934D01*
X108519581Y-37861029D01*
X108329104Y-37861029D01*
X118380367Y-35252934D02*
X118494653Y-35291029D01*
X118685129Y-35291029D01*
X118761320Y-35252934D01*
X118799415Y-35214839D01*
X118837510Y-35138648D01*
X118837510Y-35062458D01*
X118799415Y-34986267D01*
X118761320Y-34948172D01*
X118685129Y-34910077D01*
X118532748Y-34871982D01*
X118456558Y-34833886D01*
X118418462Y-34795791D01*
X118380367Y-34719601D01*
X118380367Y-34643410D01*
X118418462Y-34567220D01*
X118456558Y-34529125D01*
X118532748Y-34491029D01*
X118723224Y-34491029D01*
X118837510Y-34529125D01*
X119066081Y-34491029D02*
X119523224Y-34491029D01*
X119294653Y-35291029D02*
X119294653Y-34491029D01*
X113047247Y-56534839D02*
X113009152Y-56572934D01*
X112894866Y-56611029D01*
X112818676Y-56611029D01*
X112704390Y-56572934D01*
X112628200Y-56496744D01*
X112590104Y-56420553D01*
X112552009Y-56268172D01*
X112552009Y-56153886D01*
X112590104Y-56001505D01*
X112628200Y-55925315D01*
X112704390Y-55849125D01*
X112818676Y-55811029D01*
X112894866Y-55811029D01*
X113009152Y-55849125D01*
X113047247Y-55887220D01*
X113313914Y-55811029D02*
X113847247Y-55811029D01*
X113504390Y-56611029D01*
X119344878Y-56714116D02*
X119439159Y-56666976D01*
X119486300Y-56666976D01*
X119557010Y-56690546D01*
X119627721Y-56761257D01*
X119651291Y-56831967D01*
X119651291Y-56879108D01*
X119627721Y-56949818D01*
X119439159Y-57138380D01*
X118944184Y-56643405D01*
X119109176Y-56478414D01*
X119179887Y-56454844D01*
X119227027Y-56454844D01*
X119297738Y-56478414D01*
X119344878Y-56525554D01*
X119368448Y-56596265D01*
X119368448Y-56643405D01*
X119344878Y-56714116D01*
X119179887Y-56879108D01*
X119651291Y-55936299D02*
X119557010Y-56030580D01*
X119533440Y-56101290D01*
X119533440Y-56148431D01*
X119557010Y-56266282D01*
X119627721Y-56384133D01*
X119816283Y-56572695D01*
X119886993Y-56596265D01*
X119934134Y-56596265D01*
X120004845Y-56572695D01*
X120099125Y-56478414D01*
X120122696Y-56407703D01*
X120122696Y-56360563D01*
X120099125Y-56289852D01*
X119981274Y-56172001D01*
X119910564Y-56148431D01*
X119863423Y-56148431D01*
X119792713Y-56172001D01*
X119698432Y-56266282D01*
X119674861Y-56336992D01*
X119674861Y-56384133D01*
X119698432Y-56454844D01*
X118374914Y-42521982D02*
X118108247Y-42521982D01*
X118108247Y-42941029D02*
X118108247Y-42141029D01*
X118489200Y-42141029D01*
X119174914Y-42141029D02*
X118793961Y-42141029D01*
X118755866Y-42521982D01*
X118793961Y-42483886D01*
X118870152Y-42445791D01*
X119060628Y-42445791D01*
X119136819Y-42483886D01*
X119174914Y-42521982D01*
X119213009Y-42598172D01*
X119213009Y-42788648D01*
X119174914Y-42864839D01*
X119136819Y-42902934D01*
X119060628Y-42941029D01*
X118870152Y-42941029D01*
X118793961Y-42902934D01*
X118755866Y-42864839D01*
X107418232Y-29441029D02*
X107875375Y-29441029D01*
X107646804Y-30241029D02*
X107646804Y-29441029D01*
X108065851Y-29441029D02*
X108599185Y-30241029D01*
X108599185Y-29441029D02*
X108065851Y-30241029D01*
X109056328Y-29441029D02*
X109132518Y-29441029D01*
X109208709Y-29479125D01*
X109246804Y-29517220D01*
X109284899Y-29593410D01*
X109322994Y-29745791D01*
X109322994Y-29936267D01*
X109284899Y-30088648D01*
X109246804Y-30164839D01*
X109208709Y-30202934D01*
X109132518Y-30241029D01*
X109056328Y-30241029D01*
X108980137Y-30202934D01*
X108942042Y-30164839D01*
X108903947Y-30088648D01*
X108865851Y-29936267D01*
X108865851Y-29745791D01*
X108903947Y-29593410D01*
X108942042Y-29517220D01*
X108980137Y-29479125D01*
X109056328Y-29441029D01*
X110237280Y-29402934D02*
X109551566Y-30431505D01*
X110503947Y-30241029D02*
X110503947Y-29441029D01*
X110694423Y-29441029D01*
X110808709Y-29479125D01*
X110884899Y-29555315D01*
X110922994Y-29631505D01*
X110961089Y-29783886D01*
X110961089Y-29898172D01*
X110922994Y-30050553D01*
X110884899Y-30126744D01*
X110808709Y-30202934D01*
X110694423Y-30241029D01*
X110503947Y-30241029D01*
X111227756Y-29441029D02*
X111722994Y-29441029D01*
X111456328Y-29745791D01*
X111570613Y-29745791D01*
X111646804Y-29783886D01*
X111684899Y-29821982D01*
X111722994Y-29898172D01*
X111722994Y-30088648D01*
X111684899Y-30164839D01*
X111646804Y-30202934D01*
X111570613Y-30241029D01*
X111342042Y-30241029D01*
X111265851Y-30202934D01*
X111227756Y-30164839D01*
X107129104Y-40401029D02*
X107129104Y-39601029D01*
X107319581Y-39601029D01*
X107433866Y-39639125D01*
X107510057Y-39715315D01*
X107548152Y-39791505D01*
X107586247Y-39943886D01*
X107586247Y-40058172D01*
X107548152Y-40210553D01*
X107510057Y-40286744D01*
X107433866Y-40362934D01*
X107319581Y-40401029D01*
X107129104Y-40401029D01*
X108348152Y-40401029D02*
X107891009Y-40401029D01*
X108119581Y-40401029D02*
X108119581Y-39601029D01*
X108043390Y-39715315D01*
X107967200Y-39791505D01*
X107891009Y-39829601D01*
X107129104Y-32781029D02*
X107129104Y-31981029D01*
X107319581Y-31981029D01*
X107433866Y-32019125D01*
X107510057Y-32095315D01*
X107548152Y-32171505D01*
X107586247Y-32323886D01*
X107586247Y-32438172D01*
X107548152Y-32590553D01*
X107510057Y-32666744D01*
X107433866Y-32742934D01*
X107319581Y-32781029D01*
X107129104Y-32781029D01*
X107891009Y-32057220D02*
X107929104Y-32019125D01*
X108005295Y-31981029D01*
X108195771Y-31981029D01*
X108271961Y-32019125D01*
X108310057Y-32057220D01*
X108348152Y-32133410D01*
X108348152Y-32209601D01*
X108310057Y-32323886D01*
X107852914Y-32781029D01*
X108348152Y-32781029D01*
X118317771Y-29821982D02*
X118432057Y-29860077D01*
X118470152Y-29898172D01*
X118508247Y-29974363D01*
X118508247Y-30088648D01*
X118470152Y-30164839D01*
X118432057Y-30202934D01*
X118355866Y-30241029D01*
X118051104Y-30241029D01*
X118051104Y-29441029D01*
X118317771Y-29441029D01*
X118393961Y-29479125D01*
X118432057Y-29517220D01*
X118470152Y-29593410D01*
X118470152Y-29669601D01*
X118432057Y-29745791D01*
X118393961Y-29783886D01*
X118317771Y-29821982D01*
X118051104Y-29821982D01*
X119003485Y-29441029D02*
X119079676Y-29441029D01*
X119155866Y-29479125D01*
X119193961Y-29517220D01*
X119232057Y-29593410D01*
X119270152Y-29745791D01*
X119270152Y-29936267D01*
X119232057Y-30088648D01*
X119193961Y-30164839D01*
X119155866Y-30202934D01*
X119079676Y-30241029D01*
X119003485Y-30241029D01*
X118927295Y-30202934D01*
X118889200Y-30164839D01*
X118851104Y-30088648D01*
X118813009Y-29936267D01*
X118813009Y-29745791D01*
X118851104Y-29593410D01*
X118889200Y-29517220D01*
X118927295Y-29479125D01*
X119003485Y-29441029D01*
X118374914Y-47601982D02*
X118108247Y-47601982D01*
X118108247Y-48021029D02*
X118108247Y-47221029D01*
X118489200Y-47221029D01*
X118717771Y-47221029D02*
X119251104Y-47221029D01*
X118908247Y-48021029D01*
X107395771Y-55221982D02*
X107510057Y-55260077D01*
X107548152Y-55298172D01*
X107586247Y-55374363D01*
X107586247Y-55488648D01*
X107548152Y-55564839D01*
X107510057Y-55602934D01*
X107433866Y-55641029D01*
X107129104Y-55641029D01*
X107129104Y-54841029D01*
X107395771Y-54841029D01*
X107471961Y-54879125D01*
X107510057Y-54917220D01*
X107548152Y-54993410D01*
X107548152Y-55069601D01*
X107510057Y-55145791D01*
X107471961Y-55183886D01*
X107395771Y-55221982D01*
X107129104Y-55221982D01*
X108271961Y-55107696D02*
X108271961Y-55641029D01*
X108081485Y-54802934D02*
X107891009Y-55374363D01*
X108386247Y-55374363D01*
X117574914Y-37061029D02*
X117841581Y-37861029D01*
X118108247Y-37061029D01*
X118832057Y-37784839D02*
X118793961Y-37822934D01*
X118679676Y-37861029D01*
X118603485Y-37861029D01*
X118489200Y-37822934D01*
X118413009Y-37746744D01*
X118374914Y-37670553D01*
X118336819Y-37518172D01*
X118336819Y-37403886D01*
X118374914Y-37251505D01*
X118413009Y-37175315D01*
X118489200Y-37099125D01*
X118603485Y-37061029D01*
X118679676Y-37061029D01*
X118793961Y-37099125D01*
X118832057Y-37137220D01*
X119632057Y-37784839D02*
X119593961Y-37822934D01*
X119479676Y-37861029D01*
X119403485Y-37861029D01*
X119289200Y-37822934D01*
X119213009Y-37746744D01*
X119174914Y-37670553D01*
X119136819Y-37518172D01*
X119136819Y-37403886D01*
X119174914Y-37251505D01*
X119213009Y-37175315D01*
X119289200Y-37099125D01*
X119403485Y-37061029D01*
X119479676Y-37061029D01*
X119593961Y-37099125D01*
X119632057Y-37137220D01*
X118317771Y-50141982D02*
X118432057Y-50180077D01*
X118470152Y-50218172D01*
X118508247Y-50294363D01*
X118508247Y-50408648D01*
X118470152Y-50484839D01*
X118432057Y-50522934D01*
X118355866Y-50561029D01*
X118051104Y-50561029D01*
X118051104Y-49761029D01*
X118317771Y-49761029D01*
X118393961Y-49799125D01*
X118432057Y-49837220D01*
X118470152Y-49913410D01*
X118470152Y-49989601D01*
X118432057Y-50065791D01*
X118393961Y-50103886D01*
X118317771Y-50141982D01*
X118051104Y-50141982D01*
X119270152Y-50561029D02*
X118813009Y-50561029D01*
X119041581Y-50561029D02*
X119041581Y-49761029D01*
X118965390Y-49875315D01*
X118889200Y-49951505D01*
X118813009Y-49989601D01*
X118374914Y-45061982D02*
X118108247Y-45061982D01*
X118108247Y-45481029D02*
X118108247Y-44681029D01*
X118489200Y-44681029D01*
X119136819Y-44681029D02*
X118984438Y-44681029D01*
X118908247Y-44719125D01*
X118870152Y-44757220D01*
X118793961Y-44871505D01*
X118755866Y-45023886D01*
X118755866Y-45328648D01*
X118793961Y-45404839D01*
X118832057Y-45442934D01*
X118908247Y-45481029D01*
X119060628Y-45481029D01*
X119136819Y-45442934D01*
X119174914Y-45404839D01*
X119213009Y-45328648D01*
X119213009Y-45138172D01*
X119174914Y-45061982D01*
X119136819Y-45023886D01*
X119060628Y-44985791D01*
X118908247Y-44985791D01*
X118832057Y-45023886D01*
X118793961Y-45061982D01*
X118755866Y-45138172D01*
X118032057Y-32019125D02*
X117955866Y-31981029D01*
X117841581Y-31981029D01*
X117727295Y-32019125D01*
X117651104Y-32095315D01*
X117613009Y-32171505D01*
X117574914Y-32323886D01*
X117574914Y-32438172D01*
X117613009Y-32590553D01*
X117651104Y-32666744D01*
X117727295Y-32742934D01*
X117841581Y-32781029D01*
X117917771Y-32781029D01*
X118032057Y-32742934D01*
X118070152Y-32704839D01*
X118070152Y-32438172D01*
X117917771Y-32438172D01*
X118413009Y-32781029D02*
X118413009Y-31981029D01*
X118870152Y-32781029D01*
X118870152Y-31981029D01*
X119251104Y-32781029D02*
X119251104Y-31981029D01*
X119441581Y-31981029D01*
X119555866Y-32019125D01*
X119632057Y-32095315D01*
X119670152Y-32171505D01*
X119708247Y-32323886D01*
X119708247Y-32438172D01*
X119670152Y-32590553D01*
X119632057Y-32666744D01*
X119555866Y-32742934D01*
X119441581Y-32781029D01*
X119251104Y-32781029D01*
%TO.C,OL1*%
X110123441Y-61694753D02*
X110028203Y-61647134D01*
X109980584Y-61551896D01*
X109980584Y-60694753D01*
X110885345Y-61647134D02*
X110790107Y-61694753D01*
X110599631Y-61694753D01*
X110504393Y-61647134D01*
X110456774Y-61551896D01*
X110456774Y-61170944D01*
X110504393Y-61075706D01*
X110599631Y-61028087D01*
X110790107Y-61028087D01*
X110885345Y-61075706D01*
X110932964Y-61170944D01*
X110932964Y-61266182D01*
X110456774Y-61361420D01*
X111218679Y-61028087D02*
X111599631Y-61028087D01*
X111361536Y-61694753D02*
X111361536Y-60837611D01*
X111409155Y-60742373D01*
X111504393Y-60694753D01*
X111599631Y-60694753D01*
X111790107Y-61028087D02*
X112171060Y-61028087D01*
X111932964Y-60694753D02*
X111932964Y-61551896D01*
X111980584Y-61647134D01*
X112075822Y-61694753D01*
X112171060Y-61694753D01*
X113409155Y-61694753D02*
X113313917Y-61647134D01*
X113266298Y-61599515D01*
X113218679Y-61504277D01*
X113218679Y-61218563D01*
X113266298Y-61123325D01*
X113313917Y-61075706D01*
X113409155Y-61028087D01*
X113552012Y-61028087D01*
X113647250Y-61075706D01*
X113694869Y-61123325D01*
X113742488Y-61218563D01*
X113742488Y-61504277D01*
X113694869Y-61599515D01*
X113647250Y-61647134D01*
X113552012Y-61694753D01*
X113409155Y-61694753D01*
X114313917Y-61694753D02*
X114218679Y-61647134D01*
X114171060Y-61551896D01*
X114171060Y-60694753D01*
X115075822Y-61647134D02*
X114980584Y-61694753D01*
X114790107Y-61694753D01*
X114694869Y-61647134D01*
X114647250Y-61551896D01*
X114647250Y-61170944D01*
X114694869Y-61075706D01*
X114790107Y-61028087D01*
X114980584Y-61028087D01*
X115075822Y-61075706D01*
X115123441Y-61170944D01*
X115123441Y-61266182D01*
X114647250Y-61361420D01*
X115980584Y-61694753D02*
X115980584Y-60694753D01*
X115980584Y-61647134D02*
X115885345Y-61694753D01*
X115694869Y-61694753D01*
X115599631Y-61647134D01*
X115552012Y-61599515D01*
X115504393Y-61504277D01*
X115504393Y-61218563D01*
X115552012Y-61123325D01*
X115599631Y-61075706D01*
X115694869Y-61028087D01*
X115885345Y-61028087D01*
X115980584Y-61075706D01*
%TO.C,J2*%
X120498584Y-76132373D02*
X108398584Y-76132373D01*
X120498584Y-75882373D02*
X122498584Y-75882373D01*
X120498584Y-76132373D02*
X120498584Y-70032373D01*
X108398584Y-76132373D02*
X108398584Y-70032373D01*
X120498584Y-70282373D02*
X122498584Y-70282373D01*
X122498584Y-75882373D02*
X122498584Y-70282373D01*
X120498584Y-70032373D02*
X108398584Y-70032373D01*
D12*
%TO.C,RSW1*%
X79115583Y-13074874D02*
X79115583Y-16974874D01*
X71395583Y-13074874D02*
X79115583Y-13074874D01*
X71395583Y-13074874D02*
X71395583Y-16974874D01*
X78055583Y-16744874D02*
X78595583Y-16744874D01*
X73555583Y-16744874D02*
X76955583Y-16744874D01*
X78595583Y-16744874D02*
X78595583Y-16974874D01*
X71915583Y-16744874D02*
X71915583Y-16974874D01*
X71915583Y-16744874D02*
X72455583Y-16744874D01*
D13*
%TO.C,REF\u002A\u002A*%
X48644449Y-31104326D02*
G75*
G03*
X47610583Y-35254874I19286117J-7008044D01*
G01*
X70788083Y-58432374D02*
G75*
G03*
X74938630Y-57398508I-2857490J20319953D01*
G01*
X47610583Y-40969874D02*
G75*
G03*
X48644449Y-45120421I20319953J2857490D01*
G01*
X67930583Y-48907374D02*
G75*
G03*
X69058968Y-48848238I6J10794921D01*
G01*
X65073083Y-17792374D02*
G75*
G03*
X60922535Y-18826240I2857496J-20319983D01*
G01*
X60922537Y-57398509D02*
G75*
G03*
X65073083Y-58432374I7008058J19286185D01*
G01*
X67930583Y-27317374D02*
G75*
G03*
X66802198Y-27376510I-6J-10794921D01*
G01*
X88250583Y-35254874D02*
G75*
G03*
X87216718Y-31104329I-20320019J-2857506D01*
G01*
X69058968Y-27376510D02*
G75*
G03*
X67930583Y-27317374I-1128379J-10735785D01*
G01*
X66802198Y-48848238D02*
G75*
G03*
X67930583Y-48907374I1128379J10735785D01*
G01*
X87216718Y-45120420D02*
G75*
G03*
X88250583Y-40969874I-19286185J7008058D01*
G01*
X74938630Y-18826240D02*
G75*
G03*
X70788083Y-17792374I-7008037J-19286087D01*
G01*
D14*
X67110608Y-52600772D02*
X67133311Y-52623635D01*
X67133311Y-52623635D02*
X67167790Y-52659166D01*
X67167790Y-52659166D02*
X67212059Y-52705258D01*
X67212059Y-52705258D02*
X67264126Y-52759804D01*
X67264126Y-52759804D02*
X67322005Y-52820698D01*
X67322005Y-52820698D02*
X67383704Y-52885833D01*
X67383704Y-52885833D02*
X67447237Y-52953103D01*
X67447237Y-52953103D02*
X67510612Y-53020401D01*
X67510612Y-53020401D02*
X67571842Y-53085620D01*
X67571842Y-53085620D02*
X67628938Y-53146655D01*
X67628938Y-53146655D02*
X67679910Y-53201398D01*
X67679910Y-53201398D02*
X67722770Y-53247743D01*
X67722770Y-53247743D02*
X67755528Y-53283583D01*
X67755528Y-53283583D02*
X67776196Y-53306812D01*
X67776196Y-53306812D02*
X67778489Y-53309503D01*
X67778489Y-53309503D02*
X67806790Y-53343138D01*
X67806790Y-53343138D02*
X67186776Y-53343138D01*
X67186776Y-53343138D02*
X67013426Y-53167069D01*
X67013426Y-53167069D02*
X66959684Y-53112326D01*
X66959684Y-53112326D02*
X66909401Y-53060813D01*
X66909401Y-53060813D02*
X66865585Y-53015633D01*
X66865585Y-53015633D02*
X66831239Y-52979887D01*
X66831239Y-52979887D02*
X66809371Y-52956678D01*
X66809371Y-52956678D02*
X66806194Y-52953186D01*
X66806194Y-52953186D02*
X66772312Y-52915371D01*
X66772312Y-52915371D02*
X66933347Y-52754027D01*
X66933347Y-52754027D02*
X66983060Y-52704572D01*
X66983060Y-52704572D02*
X67027284Y-52661247D01*
X67027284Y-52661247D02*
X67063431Y-52626534D01*
X67063431Y-52626534D02*
X67088913Y-52602914D01*
X67088913Y-52602914D02*
X67101142Y-52592866D01*
X67101142Y-52592866D02*
X67101673Y-52592683D01*
X67101673Y-52592683D02*
X67110608Y-52600772D01*
X67110608Y-52600772D02*
X67110608Y-52600772D01*
G36*
X67110608Y-52600772D02*
G01*
X67133311Y-52623635D01*
X67167790Y-52659166D01*
X67212059Y-52705258D01*
X67264126Y-52759804D01*
X67322005Y-52820698D01*
X67383704Y-52885833D01*
X67447237Y-52953103D01*
X67510612Y-53020401D01*
X67571842Y-53085620D01*
X67628938Y-53146655D01*
X67679910Y-53201398D01*
X67722770Y-53247743D01*
X67755528Y-53283583D01*
X67776196Y-53306812D01*
X67778489Y-53309503D01*
X67806790Y-53343138D01*
X67186776Y-53343138D01*
X67013426Y-53167069D01*
X66959684Y-53112326D01*
X66909401Y-53060813D01*
X66865585Y-53015633D01*
X66831239Y-52979887D01*
X66809371Y-52956678D01*
X66806194Y-52953186D01*
X66772312Y-52915371D01*
X66933347Y-52754027D01*
X66983060Y-52704572D01*
X67027284Y-52661247D01*
X67063431Y-52626534D01*
X67088913Y-52602914D01*
X67101142Y-52592866D01*
X67101673Y-52592683D01*
X67110608Y-52600772D01*
G37*
X67110608Y-52600772D02*
X67133311Y-52623635D01*
X67167790Y-52659166D01*
X67212059Y-52705258D01*
X67264126Y-52759804D01*
X67322005Y-52820698D01*
X67383704Y-52885833D01*
X67447237Y-52953103D01*
X67510612Y-53020401D01*
X67571842Y-53085620D01*
X67628938Y-53146655D01*
X67679910Y-53201398D01*
X67722770Y-53247743D01*
X67755528Y-53283583D01*
X67776196Y-53306812D01*
X67778489Y-53309503D01*
X67806790Y-53343138D01*
X67186776Y-53343138D01*
X67013426Y-53167069D01*
X66959684Y-53112326D01*
X66909401Y-53060813D01*
X66865585Y-53015633D01*
X66831239Y-52979887D01*
X66809371Y-52956678D01*
X66806194Y-52953186D01*
X66772312Y-52915371D01*
X66933347Y-52754027D01*
X66983060Y-52704572D01*
X67027284Y-52661247D01*
X67063431Y-52626534D01*
X67088913Y-52602914D01*
X67101142Y-52592866D01*
X67101673Y-52592683D01*
X67110608Y-52600772D01*
X68508862Y-51060024D02*
X68509054Y-51164264D01*
X68509054Y-51164264D02*
X68509543Y-51261009D01*
X68509543Y-51261009D02*
X68510293Y-51347895D01*
X68510293Y-51347895D02*
X68511269Y-51422557D01*
X68511269Y-51422557D02*
X68512438Y-51482632D01*
X68512438Y-51482632D02*
X68513765Y-51525755D01*
X68513765Y-51525755D02*
X68515214Y-51549562D01*
X68515214Y-51549562D02*
X68516122Y-51553592D01*
X68516122Y-51553592D02*
X68528553Y-51547278D01*
X68528553Y-51547278D02*
X68553399Y-51530935D01*
X68553399Y-51530935D02*
X68577533Y-51513733D01*
X68577533Y-51513733D02*
X68692230Y-51443011D01*
X68692230Y-51443011D02*
X68814446Y-51393907D01*
X68814446Y-51393907D02*
X68944829Y-51366231D01*
X68944829Y-51366231D02*
X69084030Y-51359793D01*
X69084030Y-51359793D02*
X69101842Y-51360461D01*
X69101842Y-51360461D02*
X69191477Y-51367013D01*
X69191477Y-51367013D02*
X69267960Y-51378950D01*
X69267960Y-51378950D02*
X69339612Y-51398442D01*
X69339612Y-51398442D02*
X69414750Y-51427659D01*
X69414750Y-51427659D02*
X69484601Y-51460298D01*
X69484601Y-51460298D02*
X69612534Y-51535591D01*
X69612534Y-51535591D02*
X69725454Y-51627571D01*
X69725454Y-51627571D02*
X69822348Y-51734560D01*
X69822348Y-51734560D02*
X69902206Y-51854885D01*
X69902206Y-51854885D02*
X69964016Y-51986870D01*
X69964016Y-51986870D02*
X70006768Y-52128839D01*
X70006768Y-52128839D02*
X70029449Y-52279118D01*
X70029449Y-52279118D02*
X70033010Y-52368788D01*
X70033010Y-52368788D02*
X70022719Y-52521266D01*
X70022719Y-52521266D02*
X69991363Y-52665830D01*
X69991363Y-52665830D02*
X69938218Y-52805066D01*
X69938218Y-52805066D02*
X69880963Y-52911985D01*
X69880963Y-52911985D02*
X69795251Y-53032278D01*
X69795251Y-53032278D02*
X69693638Y-53137127D01*
X69693638Y-53137127D02*
X69578305Y-53225449D01*
X69578305Y-53225449D02*
X69451430Y-53296163D01*
X69451430Y-53296163D02*
X69315194Y-53348186D01*
X69315194Y-53348186D02*
X69171775Y-53380439D01*
X69171775Y-53380439D02*
X69023354Y-53391838D01*
X69023354Y-53391838D02*
X68923108Y-53387355D01*
X68923108Y-53387355D02*
X68778500Y-53362474D01*
X68778500Y-53362474D02*
X68637932Y-53316199D01*
X68637932Y-53316199D02*
X68504759Y-53250220D01*
X68504759Y-53250220D02*
X68382339Y-53166223D01*
X68382339Y-53166223D02*
X68274027Y-53065897D01*
X68274027Y-53065897D02*
X68265633Y-53056731D01*
X68265633Y-53056731D02*
X68184502Y-52952611D01*
X68184502Y-52952611D02*
X68114810Y-52834429D01*
X68114810Y-52834429D02*
X68059644Y-52708566D01*
X68059644Y-52708566D02*
X68022091Y-52581406D01*
X68022091Y-52581406D02*
X68013222Y-52534956D01*
X68013222Y-52534956D02*
X68010609Y-52506561D01*
X68010609Y-52506561D02*
X68008264Y-52456489D01*
X68008264Y-52456489D02*
X68006795Y-52406155D01*
X68006795Y-52406155D02*
X68503133Y-52406155D01*
X68503133Y-52406155D02*
X68513705Y-52503704D01*
X68513705Y-52503704D02*
X68544137Y-52597723D01*
X68544137Y-52597723D02*
X68572791Y-52651868D01*
X68572791Y-52651868D02*
X68639725Y-52740151D01*
X68639725Y-52740151D02*
X68719206Y-52811028D01*
X68719206Y-52811028D02*
X68808638Y-52863521D01*
X68808638Y-52863521D02*
X68905424Y-52896653D01*
X68905424Y-52896653D02*
X69006965Y-52909447D01*
X69006965Y-52909447D02*
X69110666Y-52900926D01*
X69110666Y-52900926D02*
X69183493Y-52881638D01*
X69183493Y-52881638D02*
X69226490Y-52865552D01*
X69226490Y-52865552D02*
X69267395Y-52848192D01*
X69267395Y-52848192D02*
X69283562Y-52840416D01*
X69283562Y-52840416D02*
X69328848Y-52809412D01*
X69328848Y-52809412D02*
X69378171Y-52763218D01*
X69378171Y-52763218D02*
X69426228Y-52707762D01*
X69426228Y-52707762D02*
X69467713Y-52648968D01*
X69467713Y-52648968D02*
X69489201Y-52610641D01*
X69489201Y-52610641D02*
X69509382Y-52566395D01*
X69509382Y-52566395D02*
X69522027Y-52527787D01*
X69522027Y-52527787D02*
X69529384Y-52485495D01*
X69529384Y-52485495D02*
X69533702Y-52430192D01*
X69533702Y-52430192D02*
X69533984Y-52424902D01*
X69533984Y-52424902D02*
X69530616Y-52317657D01*
X69530616Y-52317657D02*
X69507760Y-52219765D01*
X69507760Y-52219765D02*
X69464108Y-52126342D01*
X69464108Y-52126342D02*
X69446338Y-52097813D01*
X69446338Y-52097813D02*
X69381796Y-52019909D01*
X69381796Y-52019909D02*
X69302979Y-51957739D01*
X69302979Y-51957739D02*
X69213343Y-51912243D01*
X69213343Y-51912243D02*
X69116344Y-51884365D01*
X69116344Y-51884365D02*
X69015440Y-51875045D01*
X69015440Y-51875045D02*
X68914088Y-51885227D01*
X68914088Y-51885227D02*
X68815742Y-51915852D01*
X68815742Y-51915852D02*
X68801739Y-51922138D01*
X68801739Y-51922138D02*
X68713787Y-51975087D01*
X68713787Y-51975087D02*
X68639797Y-52043301D01*
X68639797Y-52043301D02*
X68580754Y-52123647D01*
X68580754Y-52123647D02*
X68537641Y-52212994D01*
X68537641Y-52212994D02*
X68511439Y-52308207D01*
X68511439Y-52308207D02*
X68503133Y-52406155D01*
X68503133Y-52406155D02*
X68006795Y-52406155D01*
X68006795Y-52406155D02*
X68006211Y-52386152D01*
X68006211Y-52386152D02*
X68004472Y-52296963D01*
X68004472Y-52296963D02*
X68003069Y-52190334D01*
X68003069Y-52190334D02*
X68002025Y-52067678D01*
X68002025Y-52067678D02*
X68001361Y-51930406D01*
X68001361Y-51930406D02*
X68001100Y-51779932D01*
X68001100Y-51779932D02*
X68001097Y-51768196D01*
X68001097Y-51768196D02*
X68001010Y-51076482D01*
X68001010Y-51076482D02*
X68508714Y-50566456D01*
X68508714Y-50566456D02*
X68508862Y-51060024D01*
X68508862Y-51060024D02*
X68508862Y-51060024D01*
G36*
X68004472Y-52296963D02*
G01*
X68003069Y-52190334D01*
X68002025Y-52067678D01*
X68001361Y-51930406D01*
X68001100Y-51779932D01*
X68001097Y-51768196D01*
X68001010Y-51076482D01*
X68508714Y-50566456D01*
X68508862Y-51060024D01*
X68509054Y-51164264D01*
X68509543Y-51261009D01*
X68510293Y-51347895D01*
X68511269Y-51422557D01*
X68512438Y-51482632D01*
X68513765Y-51525755D01*
X68515214Y-51549562D01*
X68516122Y-51553592D01*
X68528553Y-51547278D01*
X68553399Y-51530935D01*
X68577533Y-51513733D01*
X68692230Y-51443011D01*
X68814446Y-51393907D01*
X68944829Y-51366231D01*
X69084030Y-51359793D01*
X69101842Y-51360461D01*
X69191477Y-51367013D01*
X69267960Y-51378950D01*
X69339612Y-51398442D01*
X69414750Y-51427659D01*
X69484601Y-51460298D01*
X69612534Y-51535591D01*
X69725454Y-51627571D01*
X69822348Y-51734560D01*
X69902206Y-51854885D01*
X69964016Y-51986870D01*
X70006768Y-52128839D01*
X70029449Y-52279118D01*
X70033010Y-52368788D01*
X70022719Y-52521266D01*
X69991363Y-52665830D01*
X69938218Y-52805066D01*
X69880963Y-52911985D01*
X69795251Y-53032278D01*
X69693638Y-53137127D01*
X69578305Y-53225449D01*
X69451430Y-53296163D01*
X69315194Y-53348186D01*
X69171775Y-53380439D01*
X69023354Y-53391838D01*
X68923108Y-53387355D01*
X68778500Y-53362474D01*
X68637932Y-53316199D01*
X68504759Y-53250220D01*
X68382339Y-53166223D01*
X68274027Y-53065897D01*
X68265633Y-53056731D01*
X68184502Y-52952611D01*
X68114810Y-52834429D01*
X68059644Y-52708566D01*
X68022091Y-52581406D01*
X68013222Y-52534956D01*
X68010609Y-52506561D01*
X68008264Y-52456489D01*
X68006795Y-52406155D01*
X68503133Y-52406155D01*
X68513705Y-52503704D01*
X68544137Y-52597723D01*
X68572791Y-52651868D01*
X68639725Y-52740151D01*
X68719206Y-52811028D01*
X68808638Y-52863521D01*
X68905424Y-52896653D01*
X69006965Y-52909447D01*
X69110666Y-52900926D01*
X69183493Y-52881638D01*
X69226490Y-52865552D01*
X69267395Y-52848192D01*
X69283562Y-52840416D01*
X69328848Y-52809412D01*
X69378171Y-52763218D01*
X69426228Y-52707762D01*
X69467713Y-52648968D01*
X69489201Y-52610641D01*
X69509382Y-52566395D01*
X69522027Y-52527787D01*
X69529384Y-52485495D01*
X69533702Y-52430192D01*
X69533984Y-52424902D01*
X69530616Y-52317657D01*
X69507760Y-52219765D01*
X69464108Y-52126342D01*
X69446338Y-52097813D01*
X69381796Y-52019909D01*
X69302979Y-51957739D01*
X69213343Y-51912243D01*
X69116344Y-51884365D01*
X69015440Y-51875045D01*
X68914088Y-51885227D01*
X68815742Y-51915852D01*
X68801739Y-51922138D01*
X68713787Y-51975087D01*
X68639797Y-52043301D01*
X68580754Y-52123647D01*
X68537641Y-52212994D01*
X68511439Y-52308207D01*
X68503133Y-52406155D01*
X68006795Y-52406155D01*
X68006211Y-52386152D01*
X68004472Y-52296963D01*
G37*
X68004472Y-52296963D02*
X68003069Y-52190334D01*
X68002025Y-52067678D01*
X68001361Y-51930406D01*
X68001100Y-51779932D01*
X68001097Y-51768196D01*
X68001010Y-51076482D01*
X68508714Y-50566456D01*
X68508862Y-51060024D01*
X68509054Y-51164264D01*
X68509543Y-51261009D01*
X68510293Y-51347895D01*
X68511269Y-51422557D01*
X68512438Y-51482632D01*
X68513765Y-51525755D01*
X68515214Y-51549562D01*
X68516122Y-51553592D01*
X68528553Y-51547278D01*
X68553399Y-51530935D01*
X68577533Y-51513733D01*
X68692230Y-51443011D01*
X68814446Y-51393907D01*
X68944829Y-51366231D01*
X69084030Y-51359793D01*
X69101842Y-51360461D01*
X69191477Y-51367013D01*
X69267960Y-51378950D01*
X69339612Y-51398442D01*
X69414750Y-51427659D01*
X69484601Y-51460298D01*
X69612534Y-51535591D01*
X69725454Y-51627571D01*
X69822348Y-51734560D01*
X69902206Y-51854885D01*
X69964016Y-51986870D01*
X70006768Y-52128839D01*
X70029449Y-52279118D01*
X70033010Y-52368788D01*
X70022719Y-52521266D01*
X69991363Y-52665830D01*
X69938218Y-52805066D01*
X69880963Y-52911985D01*
X69795251Y-53032278D01*
X69693638Y-53137127D01*
X69578305Y-53225449D01*
X69451430Y-53296163D01*
X69315194Y-53348186D01*
X69171775Y-53380439D01*
X69023354Y-53391838D01*
X68923108Y-53387355D01*
X68778500Y-53362474D01*
X68637932Y-53316199D01*
X68504759Y-53250220D01*
X68382339Y-53166223D01*
X68274027Y-53065897D01*
X68265633Y-53056731D01*
X68184502Y-52952611D01*
X68114810Y-52834429D01*
X68059644Y-52708566D01*
X68022091Y-52581406D01*
X68013222Y-52534956D01*
X68010609Y-52506561D01*
X68008264Y-52456489D01*
X68006795Y-52406155D01*
X68503133Y-52406155D01*
X68513705Y-52503704D01*
X68544137Y-52597723D01*
X68572791Y-52651868D01*
X68639725Y-52740151D01*
X68719206Y-52811028D01*
X68808638Y-52863521D01*
X68905424Y-52896653D01*
X69006965Y-52909447D01*
X69110666Y-52900926D01*
X69183493Y-52881638D01*
X69226490Y-52865552D01*
X69267395Y-52848192D01*
X69283562Y-52840416D01*
X69328848Y-52809412D01*
X69378171Y-52763218D01*
X69426228Y-52707762D01*
X69467713Y-52648968D01*
X69489201Y-52610641D01*
X69509382Y-52566395D01*
X69522027Y-52527787D01*
X69529384Y-52485495D01*
X69533702Y-52430192D01*
X69533984Y-52424902D01*
X69530616Y-52317657D01*
X69507760Y-52219765D01*
X69464108Y-52126342D01*
X69446338Y-52097813D01*
X69381796Y-52019909D01*
X69302979Y-51957739D01*
X69213343Y-51912243D01*
X69116344Y-51884365D01*
X69015440Y-51875045D01*
X68914088Y-51885227D01*
X68815742Y-51915852D01*
X68801739Y-51922138D01*
X68713787Y-51975087D01*
X68639797Y-52043301D01*
X68580754Y-52123647D01*
X68537641Y-52212994D01*
X68511439Y-52308207D01*
X68503133Y-52406155D01*
X68006795Y-52406155D01*
X68006211Y-52386152D01*
X68004472Y-52296963D01*
X66303828Y-52194241D02*
X67106774Y-51391541D01*
X67106774Y-51391541D02*
X67395142Y-51394635D01*
X67395142Y-51394635D02*
X67683510Y-51397728D01*
X67683510Y-51397728D02*
X66836286Y-52257865D01*
X66836286Y-52257865D02*
X66718361Y-52377588D01*
X66718361Y-52377588D02*
X66603562Y-52494137D01*
X66603562Y-52494137D02*
X66493108Y-52606277D01*
X66493108Y-52606277D02*
X66388216Y-52712770D01*
X66388216Y-52712770D02*
X66290104Y-52812381D01*
X66290104Y-52812381D02*
X66199989Y-52903874D01*
X66199989Y-52903874D02*
X66119090Y-52986011D01*
X66119090Y-52986011D02*
X66048623Y-53057556D01*
X66048623Y-53057556D02*
X65989807Y-53117274D01*
X65989807Y-53117274D02*
X65943860Y-53163928D01*
X65943860Y-53163928D02*
X65911999Y-53196281D01*
X65911999Y-53196281D02*
X65898218Y-53210277D01*
X65898218Y-53210277D02*
X65807374Y-53302553D01*
X65807374Y-53302553D02*
X65807374Y-50560683D01*
X65807374Y-50560683D02*
X66303828Y-50560683D01*
X66303828Y-50560683D02*
X66303828Y-52194241D01*
X66303828Y-52194241D02*
X66303828Y-52194241D01*
G36*
X66303828Y-52194241D02*
G01*
X67106774Y-51391541D01*
X67395142Y-51394635D01*
X67683510Y-51397728D01*
X66836286Y-52257865D01*
X66718361Y-52377588D01*
X66603562Y-52494137D01*
X66493108Y-52606277D01*
X66388216Y-52712770D01*
X66290104Y-52812381D01*
X66199989Y-52903874D01*
X66119090Y-52986011D01*
X66048623Y-53057556D01*
X65989807Y-53117274D01*
X65943860Y-53163928D01*
X65911999Y-53196281D01*
X65898218Y-53210277D01*
X65807374Y-53302553D01*
X65807374Y-50560683D01*
X66303828Y-50560683D01*
X66303828Y-52194241D01*
G37*
X66303828Y-52194241D02*
X67106774Y-51391541D01*
X67395142Y-51394635D01*
X67683510Y-51397728D01*
X66836286Y-52257865D01*
X66718361Y-52377588D01*
X66603562Y-52494137D01*
X66493108Y-52606277D01*
X66388216Y-52712770D01*
X66290104Y-52812381D01*
X66199989Y-52903874D01*
X66119090Y-52986011D01*
X66048623Y-53057556D01*
X65989807Y-53117274D01*
X65943860Y-53163928D01*
X65911999Y-53196281D01*
X65898218Y-53210277D01*
X65807374Y-53302553D01*
X65807374Y-50560683D01*
X66303828Y-50560683D01*
X66303828Y-52194241D01*
D15*
%TO.C,U2*%
X106830581Y-28609125D02*
X106830581Y-31149125D01*
X122070581Y-26069125D02*
X104290581Y-26069125D01*
X106830581Y-31149125D02*
X104290581Y-31149125D01*
X122070581Y-59089125D02*
X122070581Y-28609125D01*
X104290581Y-59089125D02*
X122070581Y-59089125D01*
X104290581Y-28609125D02*
X104290581Y-59089125D01*
X104290581Y-26069125D02*
X104290581Y-28609125D01*
X122070581Y-28609125D02*
X122070581Y-26069125D01*
X106830581Y-28609125D02*
X104290581Y-28609125D01*
D10*
X117712149Y-34488485D02*
X117712149Y-35288485D01*
X117712149Y-35288485D02*
X117612149Y-35288485D01*
X117612149Y-35288485D02*
X117612149Y-34488485D01*
X117612149Y-34488485D02*
X117712149Y-34488485D01*
G36*
X117712149Y-35288485D02*
G01*
X117612149Y-35288485D01*
X117612149Y-34488485D01*
X117712149Y-34488485D01*
X117712149Y-35288485D01*
G37*
X117712149Y-35288485D02*
X117612149Y-35288485D01*
X117612149Y-34488485D01*
X117712149Y-34488485D01*
X117712149Y-35288485D01*
X118112149Y-35088485D02*
X118112149Y-35288485D01*
X118112149Y-35288485D02*
X118012149Y-35288485D01*
X118012149Y-35288485D02*
X118012149Y-35088485D01*
X118012149Y-35088485D02*
X118112149Y-35088485D01*
G36*
X118112149Y-35288485D02*
G01*
X118012149Y-35288485D01*
X118012149Y-35088485D01*
X118112149Y-35088485D01*
X118112149Y-35288485D01*
G37*
X118112149Y-35288485D02*
X118012149Y-35288485D01*
X118012149Y-35088485D01*
X118112149Y-35088485D01*
X118112149Y-35288485D01*
X118112149Y-34488485D02*
X118112149Y-34788485D01*
X118112149Y-34788485D02*
X118012149Y-34788485D01*
X118012149Y-34788485D02*
X118012149Y-34488485D01*
X118012149Y-34488485D02*
X118112149Y-34488485D01*
G36*
X118112149Y-34788485D02*
G01*
X118012149Y-34788485D01*
X118012149Y-34488485D01*
X118112149Y-34488485D01*
X118112149Y-34788485D01*
G37*
X118112149Y-34788485D02*
X118012149Y-34788485D01*
X118012149Y-34488485D01*
X118112149Y-34488485D01*
X118112149Y-34788485D01*
X118112149Y-34488485D02*
X118112149Y-34588485D01*
X118112149Y-34588485D02*
X117612149Y-34588485D01*
X117612149Y-34588485D02*
X117612149Y-34488485D01*
X117612149Y-34488485D02*
X118112149Y-34488485D01*
G36*
X118112149Y-34588485D02*
G01*
X117612149Y-34588485D01*
X117612149Y-34488485D01*
X118112149Y-34488485D01*
X118112149Y-34588485D01*
G37*
X118112149Y-34588485D02*
X117612149Y-34588485D01*
X117612149Y-34488485D01*
X118112149Y-34488485D01*
X118112149Y-34588485D01*
X117912149Y-34888485D02*
X117912149Y-34988485D01*
X117912149Y-34988485D02*
X117812149Y-34988485D01*
X117812149Y-34988485D02*
X117812149Y-34888485D01*
X117812149Y-34888485D02*
X117912149Y-34888485D01*
G36*
X117912149Y-34988485D02*
G01*
X117812149Y-34988485D01*
X117812149Y-34888485D01*
X117912149Y-34888485D01*
X117912149Y-34988485D01*
G37*
X117912149Y-34988485D02*
X117812149Y-34988485D01*
X117812149Y-34888485D01*
X117912149Y-34888485D01*
X117912149Y-34988485D01*
D11*
%TO.C,D34*%
X36230583Y-25132374D02*
X37130583Y-26032374D01*
X37130583Y-26032374D02*
X36230583Y-26032374D01*
X36230583Y-26032374D02*
X36230583Y-25132374D01*
G36*
X37130583Y-26032374D02*
G01*
X36230583Y-26032374D01*
X36230583Y-25132374D01*
X37130583Y-26032374D01*
G37*
X37130583Y-26032374D02*
X36230583Y-26032374D01*
X36230583Y-25132374D01*
X37130583Y-26032374D01*
%TO.C,D26*%
X54230581Y-52266374D02*
X55130581Y-53166374D01*
X55130581Y-53166374D02*
X54230581Y-53166374D01*
X54230581Y-53166374D02*
X54230581Y-52266374D01*
G36*
X55130581Y-53166374D02*
G01*
X54230581Y-53166374D01*
X54230581Y-52266374D01*
X55130581Y-53166374D01*
G37*
X55130581Y-53166374D02*
X54230581Y-53166374D01*
X54230581Y-52266374D01*
X55130581Y-53166374D01*
%TO.C,D31*%
X36230584Y-42106374D02*
X37130584Y-43006374D01*
X37130584Y-43006374D02*
X36230584Y-43006374D01*
X36230584Y-43006374D02*
X36230584Y-42106374D01*
G36*
X37130584Y-43006374D02*
G01*
X36230584Y-43006374D01*
X36230584Y-42106374D01*
X37130584Y-43006374D01*
G37*
X37130584Y-43006374D02*
X36230584Y-43006374D01*
X36230584Y-42106374D01*
X37130584Y-43006374D01*
%TO.C,D28*%
X36230584Y-59124374D02*
X37130584Y-60024374D01*
X37130584Y-60024374D02*
X36230584Y-60024374D01*
X36230584Y-60024374D02*
X36230584Y-59124374D01*
G36*
X37130584Y-60024374D02*
G01*
X36230584Y-60024374D01*
X36230584Y-59124374D01*
X37130584Y-60024374D01*
G37*
X37130584Y-60024374D02*
X36230584Y-60024374D01*
X36230584Y-59124374D01*
X37130584Y-60024374D01*
%TO.C,D32*%
X72230583Y-40582376D02*
X73130583Y-41482376D01*
X73130583Y-41482376D02*
X72230583Y-41482376D01*
X72230583Y-41482376D02*
X72230583Y-40582376D01*
G36*
X73130583Y-41482376D02*
G01*
X72230583Y-41482376D01*
X72230583Y-40582376D01*
X73130583Y-41482376D01*
G37*
X73130583Y-41482376D02*
X72230583Y-41482376D01*
X72230583Y-40582376D01*
X73130583Y-41482376D01*
%TO.C,D21*%
X90230581Y-26132375D02*
X91130581Y-27032375D01*
X91130581Y-27032375D02*
X90230581Y-27032375D01*
X90230581Y-27032375D02*
X90230581Y-26132375D01*
G36*
X91130581Y-27032375D02*
G01*
X90230581Y-27032375D01*
X90230581Y-26132375D01*
X91130581Y-27032375D01*
G37*
X91130581Y-27032375D02*
X90230581Y-27032375D01*
X90230581Y-26132375D01*
X91130581Y-27032375D01*
%TO.C,D19*%
X18230582Y-37132374D02*
X19130582Y-38032374D01*
X19130582Y-38032374D02*
X18230582Y-38032374D01*
X18230582Y-38032374D02*
X18230582Y-37132374D01*
G36*
X19130582Y-38032374D02*
G01*
X18230582Y-38032374D01*
X18230582Y-37132374D01*
X19130582Y-38032374D01*
G37*
X19130582Y-38032374D02*
X18230582Y-38032374D01*
X18230582Y-37132374D01*
X19130582Y-38032374D01*
%TO.C,D23*%
X54230583Y-35248373D02*
X55130583Y-36148373D01*
X55130583Y-36148373D02*
X54230583Y-36148373D01*
X54230583Y-36148373D02*
X54230583Y-35248373D01*
G36*
X55130583Y-36148373D02*
G01*
X54230583Y-36148373D01*
X54230583Y-35248373D01*
X55130583Y-36148373D01*
G37*
X55130583Y-36148373D02*
X54230583Y-36148373D01*
X54230583Y-35248373D01*
X55130583Y-36148373D01*
%TO.C,D22*%
X18230582Y-54182374D02*
X19130582Y-55082374D01*
X19130582Y-55082374D02*
X18230582Y-55082374D01*
X18230582Y-55082374D02*
X18230582Y-54182374D01*
G36*
X19130582Y-55082374D02*
G01*
X18230582Y-55082374D01*
X18230582Y-54182374D01*
X19130582Y-55082374D01*
G37*
X19130582Y-55082374D02*
X18230582Y-55082374D01*
X18230582Y-54182374D01*
X19130582Y-55082374D01*
%TO.C,D35*%
X72230583Y-23632373D02*
X73130583Y-24532373D01*
X73130583Y-24532373D02*
X72230583Y-24532373D01*
X72230583Y-24532373D02*
X72230583Y-23632373D01*
G36*
X73130583Y-24532373D02*
G01*
X72230583Y-24532373D01*
X72230583Y-23632373D01*
X73130583Y-24532373D01*
G37*
X73130583Y-24532373D02*
X72230583Y-24532373D01*
X72230583Y-23632373D01*
X73130583Y-24532373D01*
%TO.C,D25*%
X18230583Y-71132374D02*
X19130583Y-72032374D01*
X19130583Y-72032374D02*
X18230583Y-72032374D01*
X18230583Y-72032374D02*
X18230583Y-71132374D01*
G36*
X19130583Y-72032374D02*
G01*
X18230583Y-72032374D01*
X18230583Y-71132374D01*
X19130583Y-72032374D01*
G37*
X19130583Y-72032374D02*
X18230583Y-72032374D01*
X18230583Y-71132374D01*
X19130583Y-72032374D01*
%TO.C,D24*%
X90210582Y-43122375D02*
X91110582Y-44022375D01*
X91110582Y-44022375D02*
X90210582Y-44022375D01*
X90210582Y-44022375D02*
X90210582Y-43122375D01*
G36*
X91110582Y-44022375D02*
G01*
X90210582Y-44022375D01*
X90210582Y-43122375D01*
X91110582Y-44022375D01*
G37*
X91110582Y-44022375D02*
X90210582Y-44022375D01*
X90210582Y-43122375D01*
X91110582Y-44022375D01*
%TO.C,D30*%
X71652161Y-76081843D02*
X72470296Y-77056858D01*
X72470296Y-77056858D02*
X71573721Y-76978418D01*
X71573721Y-76978418D02*
X71652161Y-76081843D01*
G36*
X72470296Y-77056858D02*
G01*
X71573721Y-76978418D01*
X71652161Y-76081843D01*
X72470296Y-77056858D01*
G37*
X72470296Y-77056858D02*
X71573721Y-76978418D01*
X71652161Y-76081843D01*
X72470296Y-77056858D01*
%TO.C,D29*%
X72230582Y-57600375D02*
X73130582Y-58500375D01*
X73130582Y-58500375D02*
X72230582Y-58500375D01*
X72230582Y-58500375D02*
X72230582Y-57600375D01*
G36*
X73130582Y-58500375D02*
G01*
X72230582Y-58500375D01*
X72230582Y-57600375D01*
X73130582Y-58500375D01*
G37*
X73130582Y-58500375D02*
X72230582Y-58500375D01*
X72230582Y-57600375D01*
X73130582Y-58500375D01*
%TO.C,D33*%
X91729675Y-78884355D02*
X92366071Y-79986625D01*
X92366071Y-79986625D02*
X91496738Y-79753688D01*
X91496738Y-79753688D02*
X91729675Y-78884355D01*
G36*
X92366071Y-79986625D02*
G01*
X91496738Y-79753688D01*
X91729675Y-78884355D01*
X92366071Y-79986625D01*
G37*
X92366071Y-79986625D02*
X91496738Y-79753688D01*
X91729675Y-78884355D01*
X92366071Y-79986625D01*
%TO.C,D20*%
X54230583Y-18132374D02*
X55130583Y-19032374D01*
X55130583Y-19032374D02*
X54230583Y-19032374D01*
X54230583Y-19032374D02*
X54230583Y-18132374D01*
G36*
X55130583Y-19032374D02*
G01*
X54230583Y-19032374D01*
X54230583Y-18132374D01*
X55130583Y-19032374D01*
G37*
X55130583Y-19032374D02*
X54230583Y-19032374D01*
X54230583Y-18132374D01*
X55130583Y-19032374D01*
%TO.C,D36*%
X111048375Y-85139641D02*
X111483695Y-86335674D01*
X111483695Y-86335674D02*
X110668018Y-85955318D01*
X110668018Y-85955318D02*
X111048375Y-85139641D01*
G36*
X111483695Y-86335674D02*
G01*
X110668018Y-85955318D01*
X111048375Y-85139641D01*
X111483695Y-86335674D01*
G37*
X111483695Y-86335674D02*
X110668018Y-85955318D01*
X111048375Y-85139641D01*
X111483695Y-86335674D01*
%TO.C,D27*%
X90210583Y-60140374D02*
X91110583Y-61040374D01*
X91110583Y-61040374D02*
X90210583Y-61040374D01*
X90210583Y-61040374D02*
X90210583Y-60140374D01*
G36*
X91110583Y-61040374D02*
G01*
X90210583Y-61040374D01*
X90210583Y-60140374D01*
X91110583Y-61040374D01*
G37*
X91110583Y-61040374D02*
X90210583Y-61040374D01*
X90210583Y-60140374D01*
X91110583Y-61040374D01*
%TD*%
D16*
%TO.C,U2*%
X105560581Y-29879125D03*
D17*
X105560581Y-32419125D03*
X105560581Y-34959125D03*
X105560581Y-37499125D03*
X105560581Y-40039125D03*
X105560581Y-42579125D03*
X105560581Y-45119125D03*
X105560581Y-47659125D03*
X105560581Y-50199125D03*
X105560581Y-52739125D03*
X105560581Y-55279125D03*
X105789181Y-57819125D03*
X120800581Y-57819125D03*
X120800581Y-55279125D03*
X120800581Y-52739125D03*
X120800581Y-50199125D03*
X120800581Y-47659125D03*
X120800581Y-45119125D03*
X120800581Y-42579125D03*
X120800581Y-40039125D03*
X120800581Y-37499125D03*
X120800581Y-34959125D03*
X120800581Y-32419125D03*
X120800581Y-29879125D03*
X108100581Y-57819125D03*
X110640581Y-57819125D03*
X113180581Y-57819125D03*
X115720581Y-57819125D03*
X118260581Y-57819125D03*
%TD*%
D18*
%TO.C,OL1*%
X109170584Y-62792373D03*
X111710584Y-62792373D03*
X114250584Y-62792373D03*
X116790584Y-62792373D03*
%TD*%
M02*
