M48
; DRILL file {KiCad (6.0.0)} date Fri May  6 00:59:21 2022
; FORMAT={-:-/ absolute / inch / decimal}
; #@! TF.CreationDate,2022-05-06T00:59:21-07:00
; #@! TF.GenerationSoftware,Kicad,Pcbnew,(6.0.0)
; #@! TF.FileFunction,Plated,1,2,PTH
FMAT,2
INCH
; #@! TA.AperFunction,Plated,PTH,ViaDrill
T1C0.0157
; #@! TA.AperFunction,Plated,PTH,ComponentDrill
T2C0.0300
; #@! TA.AperFunction,Plated,PTH,ComponentDrill
T3C0.0320
; #@! TA.AperFunction,Plated,PTH,ComponentDrill
T4C0.0354
; #@! TA.AperFunction,Plated,PTH,ComponentDrill
T5C0.0390
; #@! TA.AperFunction,Plated,PTH,ComponentDrill
T6C0.0394
; #@! TA.AperFunction,Plated,PTH,ComponentDrill
T7C0.0430
; #@! TA.AperFunction,Plated,PTH,ComponentDrill
T8C0.0591
; #@! TA.AperFunction,Plated,PTH,ComponentDrill
T9C0.0866
%
G90
G05
T1
X0.6563Y-2.0563
X0.6996Y-2.0031
X0.7035Y-1.2945
X0.7055Y-1.387
X0.7311Y-1.5031
X0.7764Y-2.0031
X0.7764Y-2.6173
X0.7764Y-1.3279
X0.7783Y-2.8476
X0.8Y-1.9697
X0.8098Y-2.6586
X0.9608Y-2.1961
X0.9667Y-2.5898
X0.9811Y-0.9893
X0.9811Y-1.2925
X0.9811Y-2.6586
X0.9831Y-1.9677
X1.0652Y-2.1193
X1.1045Y-2.1941
X1.1695Y-2.5189
X1.1734Y-1.9697
X1.2108Y-2.5386
X1.2108Y-1.8497
X1.3748Y-2.2551
X1.3984Y-1.7098
X1.3984Y-1.5878
X1.4023Y-1.0582
X1.4023Y-0.9165
X1.4811Y-2.7866
X1.4831Y-1.7433
X1.485Y-1.0287
X1.485Y-0.8614
X1.485Y-1.5228
X1.485Y-2.3693
X1.4863Y-2.1951
X1.5888Y-1.9107
X1.6498Y-1.9658
X1.7134Y-1.0858
X1.7173Y-2.8476
X1.7502Y-2.8851
X1.7561Y-2.7512
X1.7901Y-2.3693
X1.8039Y-1.6429
X1.8138Y-1.7078
X1.8295Y-2.3102
X1.859Y-1.7078
X2.0986Y-0.7355
X2.113Y-1.9854
X2.113Y-1.8929
X2.1287Y-1.2236
X2.1287Y-1.3122
X2.1937Y-2.1311
X2.1957Y-0.5858
X2.1976Y-1.2551
X2.1976Y-1.9264
X2.2974Y-2.704
X2.3722Y-1.6646
X2.3742Y-1.0012
X2.4555Y-1.8968
X2.4614Y-1.2256
X2.4673Y-0.698
X2.4772Y-1.3732
X2.5146Y-0.7827
X2.5317Y-2.7394
X2.5848Y-1.1902
X2.6348Y-2.7442
X2.6734Y-0.515
X2.7744Y-0.8594
X2.7744Y-1.0012
X2.7862Y-1.6803
X2.7882Y-1.5248
X2.7974Y-2.0642
X2.8275Y-2.133
X2.8326Y-2.8007
X2.8414Y-3.1741
X2.8644Y-2.3083
X2.8747Y-3.0821
X2.9023Y-0.9677
X2.9023Y-1.4657
X2.9023Y-1.6429
X2.9043Y-2.133
X2.9043Y-0.7984
X2.9116Y-2.3851
X2.9209Y-3.1415
X2.9234Y-2.5839
X3.0618Y-0.7531
X3.0809Y-1.9107
X3.0967Y-1.0406
X3.1287Y-0.9992
X3.1911Y-0.8772
X3.2193Y-1.5838
X3.235Y-2.3141
X3.2685Y-1.5937
X3.2724Y-2.3535
X3.2797Y-0.8772
X3.2974Y-1.639
X3.3132Y-1.2355
X3.3138Y-2.3319
X3.3138Y-1.6901
X3.3159Y-2.4095
X3.3395Y-2.9764
X3.3761Y-3.3557
X3.3844Y-3.0929
X3.4023Y-2.3575
X3.4037Y-1.8634
X3.4067Y-1.2562
X3.4549Y-1.013
X3.4576Y-3.0514
X3.4805Y-2.3162
X3.484Y-1.6025
X3.5126Y-0.8988
X3.5342Y-1.6271
X3.5382Y-2.2925
X3.5382Y-2.198
X3.5382Y-2.3555
X3.5716Y-1.5267
X3.5888Y-2.8512
X3.6102Y-2.2382
X3.6102Y-1.5653
X3.611Y-0.8988
X3.6504Y-1.5327
X3.6794Y-2.9173
X3.7134Y-2.981
X3.7876Y-1.3339
X3.7915Y-2.643
X3.8013Y-1.4972
X3.8019Y-2.0027
X3.8289Y-2.702
X3.8348Y-1.4087
X3.8394Y-2.196
X3.8748Y-1.5346
X3.8925Y-1.6823
X3.8945Y-1.009
X3.9218Y-3.238
X3.9293Y-2.2217
X3.9378Y-0.9539
X3.9602Y-2.466
X3.9681Y-2.2534
X3.9825Y-0.9284
X3.9943Y-2.7552
X3.9943Y-2.4323
X4.0415Y-2.7906
X4.0415Y-2.4323
X4.0491Y-3.4468
X4.0789Y-2.83
X4.0789Y-2.4579
X4.0883Y-3.4981
X4.1523Y-0.824
X4.1654Y-2.6732
X4.2685Y-2.6409
X4.3053Y-1.5701
X4.3919Y-1.2709
X4.3939Y-2.6115
X4.4018Y-1.6705
X4.4237Y-3.2149
X4.4313Y-0.952
X4.4707Y-1.141
X4.5081Y-1.1036
X4.5435Y-1.0671
X4.5455Y-2.6115
X4.5815Y-1.0386
X4.5947Y-2.6489
X4.6149Y-1.0051
X4.6614Y-2.4055
X4.6844Y-3.28
X4.6905Y-3.0625
X4.7126Y-2.6693
X4.7935Y-2.7079
T2
X2.7027Y-3.4042
X2.7096Y-3.3258
X2.7511Y-2.893
X2.7579Y-2.8146
T3
X4.2937Y-2.4669
X4.2937Y-2.5386
X4.3937Y-2.4669
X4.3937Y-2.5386
X4.4937Y-2.4669
X4.4937Y-2.5386
X4.5937Y-2.4669
X4.5937Y-2.5386
T5
X2.86Y-0.6158
X3.0569Y-0.6158
T6
X2.8261Y-3.3498
X2.8699Y-2.8896
X2.9257Y-3.3585
X2.9695Y-2.8983
X3.0253Y-3.3672
X3.0692Y-2.907
X3.1249Y-3.376
X3.1688Y-2.9157
T7
X4.1516Y-1.1711
X4.1516Y-1.2711
X4.1516Y-1.3711
X4.1516Y-1.4711
X4.1516Y-1.5711
X4.1516Y-1.6711
X4.1516Y-1.7711
X4.1516Y-1.8711
X4.1516Y-1.9711
X4.1516Y-2.0711
X4.1516Y-2.1711
X4.1606Y-2.2711
X4.2516Y-2.2711
X4.3516Y-2.2711
X4.4516Y-2.2711
X4.5516Y-2.2711
X4.6516Y-2.2711
X4.7516Y-1.1711
X4.7516Y-1.2711
X4.7516Y-1.3711
X4.7516Y-1.4711
X4.7516Y-1.5711
X4.7516Y-1.6711
X4.7516Y-1.7711
X4.7516Y-1.8711
X4.7516Y-1.9711
X4.7516Y-2.0711
X4.7516Y-2.1711
X4.7516Y-2.2711
T8
X0.6819Y-1.7669
X0.6819Y-2.4362
X0.6819Y-3.1055
X0.8787Y-1.8496
X0.8787Y-2.5189
X0.8787Y-3.1882
X1.0756Y-1.7669
X1.0756Y-2.4362
X1.0756Y-3.1055
X1.3905Y-2.6327
X1.3905Y-1.9627
X1.3905Y-1.2945
X1.5874Y-2.7154
X1.5874Y-2.0454
X1.5874Y-1.3771
X1.7842Y-2.6327
X1.7842Y-1.9627
X1.7842Y-1.2945
X2.0992Y-2.3627
X2.0992Y-1.0189
X2.0992Y-1.6927
X2.296Y-2.4454
X2.296Y-1.1016
X2.296Y-1.7754
X2.4929Y-2.3627
X2.4929Y-1.0189
X2.4929Y-1.6927
X2.8079Y-1.2354
X2.8079Y-2.5727
X2.8079Y-1.9027
X3.0047Y-1.3181
X3.0047Y-2.6554
X3.0047Y-1.9854
X3.2016Y-1.2354
X3.2016Y-2.5727
X3.2016Y-1.9027
X3.4963Y-3.392
X3.5157Y-2.0027
X3.5157Y-2.6727
X3.5165Y-1.3338
X3.6651Y-3.5228
X3.7126Y-2.0854
X3.7126Y-2.7554
X3.7134Y-1.4165
X3.8766Y-3.4939
X3.9094Y-2.0027
X3.9094Y-2.6727
X3.9102Y-1.3338
X4.2002Y-3.6115
X4.3437Y-3.7696
X4.557Y-3.7779
T9
X1.9201Y-1.4953
X2.6701Y-0.7453
X2.6701Y-2.2453
X3.4201Y-1.4953
T4
G00X4.2862Y-2.9618
M15
G01X4.302Y-2.9618
M16
G05
G00X4.3027Y-2.7815
M15
G01X4.2869Y-2.7815
M16
G05
G00X4.3295Y-2.7807
M15
G01X4.3453Y-2.7807
M16
G05
G00X4.346Y-2.9626
M15
G01X4.3302Y-2.9626
M16
G05
G00X4.487Y-2.7807
M15
G01X4.5027Y-2.7807
M16
G05
G00X4.5035Y-2.9626
M15
G01X4.4877Y-2.9626
M16
G05
G00X4.6051Y-2.7807
M15
G01X4.6209Y-2.7807
M16
G05
G00X4.6216Y-2.9626
M15
G01X4.6058Y-2.9626
M16
G05
T0
M30
