%TF.GenerationSoftware,KiCad,Pcbnew,(6.0.0)*%
%TF.CreationDate,2022-05-06T00:59:20-07:00*%
%TF.ProjectId,half-swept,68616c66-2d73-4776-9570-742e6b696361,rev?*%
%TF.SameCoordinates,Original*%
%TF.FileFunction,Soldermask,Bot*%
%TF.FilePolarity,Negative*%
%FSLAX46Y46*%
G04 Gerber Fmt 4.6, Leading zero omitted, Abs format (unit mm)*
G04 Created by KiCad (PCBNEW (6.0.0)) date 2022-05-06 00:59:20*
%MOMM*%
%LPD*%
G01*
G04 APERTURE LIST*
G04 Aperture macros list*
%AMRoundRect*
0 Rectangle with rounded corners*
0 $1 Rounding radius*
0 $2 $3 $4 $5 $6 $7 $8 $9 X,Y pos of 4 corners*
0 Add a 4 corners polygon primitive as box body*
4,1,4,$2,$3,$4,$5,$6,$7,$8,$9,$2,$3,0*
0 Add four circle primitives for the rounded corners*
1,1,$1+$1,$2,$3*
1,1,$1+$1,$4,$5*
1,1,$1+$1,$6,$7*
1,1,$1+$1,$8,$9*
0 Add four rect primitives between the rounded corners*
20,1,$1+$1,$2,$3,$4,$5,0*
20,1,$1+$1,$4,$5,$6,$7,0*
20,1,$1+$1,$6,$7,$8,$9,0*
20,1,$1+$1,$8,$9,$2,$3,0*%
%AMHorizOval*
0 Thick line with rounded ends*
0 $1 width*
0 $2 $3 position (X,Y) of the first rounded end (center of the circle)*
0 $4 $5 position (X,Y) of the second rounded end (center of the circle)*
0 Add line between two ends*
20,1,$1,$2,$3,$4,$5,0*
0 Add two circle primitives to create the rounded ends*
1,1,$1,$2,$3*
1,1,$1,$4,$5*%
G04 Aperture macros list end*
%ADD10O,2.000000X1.600000*%
%ADD11C,0.800000*%
%ADD12C,1.750000*%
%ADD13C,1.200000*%
%ADD14C,2.500000*%
%ADD15C,1.700000*%
%ADD16C,3.400000*%
%ADD17C,4.400000*%
%ADD18RoundRect,0.082000X-0.608642X0.502656X-0.778427X-0.130992X0.608642X-0.502656X0.778427X0.130992X0*%
%ADD19RoundRect,0.082000X-0.718000X0.328000X-0.718000X-0.328000X0.718000X-0.328000X0.718000X0.328000X0*%
%ADD20HorizOval,1.524000X0.000000X0.000000X0.000000X0.000000X0*%
%ADD21C,1.524000*%
%ADD22HorizOval,2.000000X0.043578X0.498097X-0.043578X-0.498097X0*%
%ADD23RoundRect,0.082000X-0.512110X0.600709X-0.789348X0.006171X0.512110X-0.600709X0.789348X-0.006171X0*%
%ADD24C,1.752600*%
%ADD25R,1.752600X1.752600*%
%ADD26C,1.397000*%
G04 APERTURE END LIST*
D10*
%TO.C,J2*%
X117187658Y-75249388D03*
X114187658Y-75249388D03*
X110187658Y-75249388D03*
X109087658Y-70649388D03*
D11*
X118787658Y-72949388D03*
X111787658Y-72949388D03*
%TD*%
D12*
%TO.C,RSW1*%
X77644655Y-15641890D03*
X72644655Y-15641890D03*
D13*
X75144655Y-14431890D03*
%TD*%
D14*
%TO.C,SW2*%
X17319655Y-44879388D03*
X22319655Y-46979388D03*
D15*
X27819655Y-41079388D03*
D16*
X22319655Y-41079388D03*
D15*
X16819655Y-41079388D03*
%TD*%
D14*
%TO.C,SW3*%
X35319658Y-32879387D03*
X40319658Y-34979387D03*
D15*
X34819658Y-29079387D03*
X45819658Y-29079387D03*
D16*
X40319658Y-29079387D03*
%TD*%
D14*
%TO.C,SW4*%
X53319655Y-25879388D03*
X58319655Y-27979388D03*
D16*
X58319655Y-22079388D03*
D15*
X52819655Y-22079388D03*
X63819655Y-22079388D03*
%TD*%
D14*
%TO.C,SW5*%
X71319655Y-31379387D03*
X76319655Y-33479387D03*
D16*
X76319655Y-27579387D03*
D15*
X81819655Y-27579387D03*
X70819655Y-27579387D03*
%TD*%
D14*
%TO.C,SW6*%
X89319655Y-33879388D03*
X94319655Y-35979388D03*
D15*
X88819655Y-30079388D03*
X99819655Y-30079388D03*
D16*
X94319655Y-30079388D03*
%TD*%
D14*
%TO.C,SW8*%
X17319656Y-61879388D03*
X22319656Y-63979388D03*
D16*
X22319656Y-58079388D03*
D15*
X27819656Y-58079388D03*
X16819656Y-58079388D03*
%TD*%
D14*
%TO.C,SW9*%
X35319656Y-49853388D03*
X40319656Y-51953388D03*
D16*
X40319656Y-46053388D03*
D15*
X34819656Y-46053388D03*
X45819656Y-46053388D03*
%TD*%
D14*
%TO.C,SW10*%
X53319658Y-42995387D03*
X58319658Y-45095387D03*
D15*
X52819658Y-39195387D03*
D16*
X58319658Y-39195387D03*
D15*
X63819658Y-39195387D03*
%TD*%
D14*
%TO.C,SW11*%
X71319658Y-48329390D03*
X76319658Y-50429390D03*
D15*
X70819658Y-44529390D03*
D16*
X76319658Y-44529390D03*
D15*
X81819658Y-44529390D03*
%TD*%
D14*
%TO.C,SW12*%
X89299655Y-50869388D03*
X94299655Y-52969388D03*
D15*
X88799655Y-47069388D03*
D16*
X94299655Y-47069388D03*
D15*
X99799655Y-47069388D03*
%TD*%
D14*
%TO.C,SW14*%
X17319656Y-78879388D03*
X22319656Y-80979388D03*
D15*
X16819656Y-75079388D03*
X27819656Y-75079388D03*
D16*
X22319656Y-75079388D03*
%TD*%
D14*
%TO.C,SW15*%
X35319655Y-66871386D03*
X40319655Y-68971386D03*
D15*
X45819655Y-63071386D03*
X34819655Y-63071386D03*
D16*
X40319655Y-63071386D03*
%TD*%
D14*
%TO.C,SW16*%
X53319654Y-60013387D03*
X58319654Y-62113387D03*
D15*
X63819654Y-56213387D03*
X52819654Y-56213387D03*
D16*
X58319654Y-56213387D03*
%TD*%
D14*
%TO.C,SW17*%
X71319656Y-65347389D03*
X76319656Y-67447389D03*
D15*
X81819656Y-61547389D03*
X70819656Y-61547389D03*
D16*
X76319656Y-61547389D03*
%TD*%
D14*
%TO.C,SW18*%
X89299658Y-67887388D03*
X94299658Y-69987388D03*
D16*
X94299658Y-64087388D03*
D15*
X88799658Y-64087388D03*
X99799658Y-64087388D03*
%TD*%
D14*
%TO.C,SW21*%
X106685182Y-91732427D03*
X110329222Y-95748765D03*
D15*
X117807363Y-92725949D03*
D16*
X112822670Y-90401549D03*
D15*
X107837977Y-88077149D03*
%TD*%
D17*
%TO.C,REF\u002A\u002A*%
X67819656Y-18929388D03*
X86869656Y-37979388D03*
X48769656Y-37979388D03*
X67819656Y-57029388D03*
%TD*%
D18*
%TO.C,D12*%
X98639976Y-78820968D03*
X98251748Y-80269857D03*
X93228933Y-78923998D03*
X93617162Y-77475109D03*
%TD*%
D19*
%TO.C,D16*%
X42919658Y-23249387D03*
X42919658Y-24749387D03*
X37719658Y-24749387D03*
X37719658Y-23249387D03*
%TD*%
%TO.C,D8*%
X60919654Y-50383387D03*
X60919654Y-51883387D03*
X55719654Y-51883387D03*
X55719654Y-50383387D03*
%TD*%
D20*
%TO.C,SW7*%
X68824041Y-84474887D03*
D21*
X68649730Y-86467277D03*
D22*
X79373124Y-85749150D03*
X76842790Y-85527774D03*
X74312455Y-85306398D03*
X71782121Y-85085023D03*
%TD*%
D19*
%TO.C,D2*%
X60919655Y-16249388D03*
X60919655Y-17749388D03*
X55719655Y-17749388D03*
X55719655Y-16249388D03*
%TD*%
D23*
%TO.C,D15*%
X117642935Y-86216582D03*
X117009007Y-87576044D03*
X112296207Y-85378429D03*
X112930134Y-84018967D03*
%TD*%
D19*
%TO.C,D11*%
X78919656Y-55717389D03*
X78919656Y-57217389D03*
X73719656Y-57217389D03*
X73719656Y-55717389D03*
%TD*%
D24*
%TO.C,U2*%
X118149655Y-57686138D03*
X115609655Y-57686138D03*
X113069655Y-57686138D03*
X110529655Y-57686138D03*
X107989655Y-57686138D03*
X120689655Y-29746138D03*
X120689655Y-32286138D03*
X120689655Y-34826138D03*
X120689655Y-37366138D03*
X120689655Y-39906138D03*
X120689655Y-42446138D03*
X120689655Y-44986138D03*
X120689655Y-47526138D03*
X120689655Y-50066138D03*
X120689655Y-52606138D03*
X120689655Y-55146138D03*
X120689655Y-57686138D03*
X105678255Y-57686138D03*
X105449655Y-55146138D03*
X105449655Y-52606138D03*
X105449655Y-50066138D03*
X105449655Y-47526138D03*
X105449655Y-44986138D03*
X105449655Y-42446138D03*
X105449655Y-39906138D03*
X105449655Y-37366138D03*
X105449655Y-34826138D03*
X105449655Y-32286138D03*
D25*
X105449655Y-29746138D03*
%TD*%
D19*
%TO.C,D14*%
X78919658Y-38699390D03*
X78919658Y-40199390D03*
X73719658Y-40199390D03*
X73719658Y-38699390D03*
%TD*%
%TO.C,D10*%
X42919655Y-57241386D03*
X42919655Y-58741386D03*
X37719655Y-58741386D03*
X37719655Y-57241386D03*
%TD*%
%TO.C,D1*%
X24919655Y-35249388D03*
X24919655Y-36749388D03*
X19719655Y-36749388D03*
X19719655Y-35249388D03*
%TD*%
%TO.C,D9*%
X96899658Y-58257388D03*
X96899658Y-59757388D03*
X91699658Y-59757388D03*
X91699658Y-58257388D03*
%TD*%
%TO.C,D17*%
X78919655Y-21749387D03*
X78919655Y-23249387D03*
X73719655Y-23249387D03*
X73719655Y-21749387D03*
%TD*%
%TO.C,D4*%
X24919653Y-52299388D03*
X24919653Y-53799388D03*
X19719653Y-53799388D03*
X19719653Y-52299388D03*
%TD*%
%TO.C,D3*%
X96919655Y-24249388D03*
X96919655Y-25749388D03*
X91719655Y-25749388D03*
X91719655Y-24249388D03*
%TD*%
%TO.C,D7*%
X24919656Y-69249388D03*
X24919656Y-70749388D03*
X19719656Y-70749388D03*
X19719656Y-69249388D03*
%TD*%
D26*
%TO.C,OL1*%
X116679657Y-62659388D03*
X114139657Y-62659388D03*
X111599657Y-62659388D03*
X109059657Y-62659388D03*
%TD*%
D14*
%TO.C,SW1*%
X88806512Y-86155809D03*
X93092622Y-89478348D03*
D16*
X94619654Y-83779386D03*
D15*
X99932246Y-85202891D03*
X89307062Y-82355881D03*
%TD*%
D19*
%TO.C,D5*%
X60919658Y-33365387D03*
X60919658Y-34865387D03*
X55719658Y-34865387D03*
X55719658Y-33365387D03*
%TD*%
%TO.C,D6*%
X96899655Y-41239388D03*
X96899655Y-42739388D03*
X91699655Y-42739388D03*
X91699655Y-41239388D03*
%TD*%
%TO.C,D13*%
X42919656Y-40223388D03*
X42919656Y-41723388D03*
X37719656Y-41723388D03*
X37719656Y-40223388D03*
%TD*%
D10*
%TO.C,J1*%
X117169657Y-70629388D03*
X114169657Y-70629388D03*
X110169657Y-70629388D03*
X109069657Y-75229388D03*
D11*
X111769657Y-72929388D03*
X118769657Y-72929388D03*
%TD*%
M02*
