%TF.GenerationSoftware,KiCad,Pcbnew,(6.0.0)*%
%TF.CreationDate,2022-05-06T00:59:20-07:00*%
%TF.ProjectId,half-swept,68616c66-2d73-4776-9570-742e6b696361,rev?*%
%TF.SameCoordinates,Original*%
%TF.FileFunction,Legend,Top*%
%TF.FilePolarity,Positive*%
%FSLAX46Y46*%
G04 Gerber Fmt 4.6, Leading zero omitted, Abs format (unit mm)*
G04 Created by KiCad (PCBNEW (6.0.0)) date 2022-05-06 00:59:20*
%MOMM*%
%LPD*%
G01*
G04 APERTURE LIST*
%ADD10C,0.150000*%
%ADD11C,0.100000*%
%ADD12C,0.120000*%
%ADD13C,0.010000*%
%ADD14C,0.200000*%
%ADD15C,0.381000*%
%ADD16C,1.752600*%
%ADD17R,1.752600X1.752600*%
%ADD18C,1.397000*%
G04 APERTURE END LIST*
D10*
%TO.C,RSW1*%
X73930369Y-17774270D02*
X73597035Y-17298080D01*
X73358940Y-17774270D02*
X73358940Y-16774270D01*
X73739893Y-16774270D01*
X73835131Y-16821890D01*
X73882750Y-16869509D01*
X73930369Y-16964747D01*
X73930369Y-17107604D01*
X73882750Y-17202842D01*
X73835131Y-17250461D01*
X73739893Y-17298080D01*
X73358940Y-17298080D01*
X74311321Y-17726651D02*
X74454178Y-17774270D01*
X74692274Y-17774270D01*
X74787512Y-17726651D01*
X74835131Y-17679032D01*
X74882750Y-17583794D01*
X74882750Y-17488556D01*
X74835131Y-17393318D01*
X74787512Y-17345699D01*
X74692274Y-17298080D01*
X74501797Y-17250461D01*
X74406559Y-17202842D01*
X74358940Y-17155223D01*
X74311321Y-17059985D01*
X74311321Y-16964747D01*
X74358940Y-16869509D01*
X74406559Y-16821890D01*
X74501797Y-16774270D01*
X74739893Y-16774270D01*
X74882750Y-16821890D01*
X75216083Y-16774270D02*
X75454178Y-17774270D01*
X75644655Y-17059985D01*
X75835131Y-17774270D01*
X76073226Y-16774270D01*
X76977988Y-17774270D02*
X76406559Y-17774270D01*
X76692274Y-17774270D02*
X76692274Y-16774270D01*
X76597035Y-16917128D01*
X76501797Y-17012366D01*
X76406559Y-17059985D01*
D11*
%TO.C,REF\u002A\u002A*%
X67351370Y-33446888D02*
X68351370Y-33446888D01*
X67398989Y-33446888D02*
X67351370Y-33351649D01*
X67351370Y-33161173D01*
X67398989Y-33065935D01*
X67446608Y-33018316D01*
X67541846Y-32970697D01*
X67827560Y-32970697D01*
X67922798Y-33018316D01*
X67970417Y-33065935D01*
X68018036Y-33161173D01*
X68018036Y-33351649D01*
X67970417Y-33446888D01*
X67351370Y-32113554D02*
X68018036Y-32113554D01*
X67351370Y-32542126D02*
X67875179Y-32542126D01*
X67970417Y-32494507D01*
X68018036Y-32399268D01*
X68018036Y-32256411D01*
X67970417Y-32161173D01*
X67922798Y-32113554D01*
X67970417Y-31208792D02*
X68018036Y-31304030D01*
X68018036Y-31494507D01*
X67970417Y-31589745D01*
X67922798Y-31637364D01*
X67827560Y-31684983D01*
X67541846Y-31684983D01*
X67446608Y-31637364D01*
X67398989Y-31589745D01*
X67351370Y-31494507D01*
X67351370Y-31304030D01*
X67398989Y-31208792D01*
X68018036Y-30780221D02*
X67018036Y-30780221D01*
X67637084Y-30684983D02*
X68018036Y-30399268D01*
X67351370Y-30399268D02*
X67732322Y-30780221D01*
X67414870Y-47337388D02*
X67414870Y-46956435D01*
X67081536Y-47194530D02*
X67938679Y-47194530D01*
X68033917Y-47146911D01*
X68081536Y-47051673D01*
X68081536Y-46956435D01*
X68033917Y-46242149D02*
X68081536Y-46337388D01*
X68081536Y-46527864D01*
X68033917Y-46623102D01*
X67938679Y-46670721D01*
X67557727Y-46670721D01*
X67462489Y-46623102D01*
X67414870Y-46527864D01*
X67414870Y-46337388D01*
X67462489Y-46242149D01*
X67557727Y-46194530D01*
X67652965Y-46194530D01*
X67748203Y-46670721D01*
X67414870Y-45765959D02*
X68081536Y-45765959D01*
X67510108Y-45765959D02*
X67462489Y-45718340D01*
X67414870Y-45623102D01*
X67414870Y-45480245D01*
X67462489Y-45385007D01*
X67557727Y-45337388D01*
X68081536Y-45337388D01*
X67414870Y-45004054D02*
X67414870Y-44623102D01*
X67081536Y-44861197D02*
X67938679Y-44861197D01*
X68033917Y-44813578D01*
X68081536Y-44718340D01*
X68081536Y-44623102D01*
X68081536Y-44289768D02*
X67414870Y-44289768D01*
X67081536Y-44289768D02*
X67129156Y-44337388D01*
X67176775Y-44289768D01*
X67129156Y-44242149D01*
X67081536Y-44289768D01*
X67176775Y-44289768D01*
X67414870Y-43813578D02*
X68081536Y-43813578D01*
X67510108Y-43813578D02*
X67462489Y-43765959D01*
X67414870Y-43670721D01*
X67414870Y-43527864D01*
X67462489Y-43432626D01*
X67557727Y-43385007D01*
X68081536Y-43385007D01*
X67414870Y-42480245D02*
X68224394Y-42480245D01*
X68319632Y-42527864D01*
X68367251Y-42575483D01*
X68414870Y-42670721D01*
X68414870Y-42813578D01*
X68367251Y-42908816D01*
X68033917Y-42480245D02*
X68081536Y-42575483D01*
X68081536Y-42765959D01*
X68033917Y-42861197D01*
X67986298Y-42908816D01*
X67891060Y-42956435D01*
X67605346Y-42956435D01*
X67510108Y-42908816D01*
X67462489Y-42861197D01*
X67414870Y-42765959D01*
X67414870Y-42575483D01*
X67462489Y-42480245D01*
D10*
%TO.C,U2*%
X117921131Y-31886138D02*
X117844940Y-31848042D01*
X117730655Y-31848042D01*
X117616369Y-31886138D01*
X117540178Y-31962328D01*
X117502083Y-32038518D01*
X117463988Y-32190899D01*
X117463988Y-32305185D01*
X117502083Y-32457566D01*
X117540178Y-32533757D01*
X117616369Y-32609947D01*
X117730655Y-32648042D01*
X117806845Y-32648042D01*
X117921131Y-32609947D01*
X117959226Y-32571852D01*
X117959226Y-32305185D01*
X117806845Y-32305185D01*
X118302083Y-32648042D02*
X118302083Y-31848042D01*
X118759226Y-32648042D01*
X118759226Y-31848042D01*
X119140178Y-32648042D02*
X119140178Y-31848042D01*
X119330655Y-31848042D01*
X119444940Y-31886138D01*
X119521131Y-31962328D01*
X119559226Y-32038518D01*
X119597321Y-32190899D01*
X119597321Y-32305185D01*
X119559226Y-32457566D01*
X119521131Y-32533757D01*
X119444940Y-32609947D01*
X119330655Y-32648042D01*
X119140178Y-32648042D01*
X118263988Y-44928995D02*
X117997321Y-44928995D01*
X117997321Y-45348042D02*
X117997321Y-44548042D01*
X118378274Y-44548042D01*
X119025893Y-44548042D02*
X118873512Y-44548042D01*
X118797321Y-44586138D01*
X118759226Y-44624233D01*
X118683035Y-44738518D01*
X118644940Y-44890899D01*
X118644940Y-45195661D01*
X118683035Y-45271852D01*
X118721131Y-45309947D01*
X118797321Y-45348042D01*
X118949702Y-45348042D01*
X119025893Y-45309947D01*
X119063988Y-45271852D01*
X119102083Y-45195661D01*
X119102083Y-45005185D01*
X119063988Y-44928995D01*
X119025893Y-44890899D01*
X118949702Y-44852804D01*
X118797321Y-44852804D01*
X118721131Y-44890899D01*
X118683035Y-44928995D01*
X118644940Y-45005185D01*
X118206845Y-50008995D02*
X118321131Y-50047090D01*
X118359226Y-50085185D01*
X118397321Y-50161376D01*
X118397321Y-50275661D01*
X118359226Y-50351852D01*
X118321131Y-50389947D01*
X118244940Y-50428042D01*
X117940178Y-50428042D01*
X117940178Y-49628042D01*
X118206845Y-49628042D01*
X118283035Y-49666138D01*
X118321131Y-49704233D01*
X118359226Y-49780423D01*
X118359226Y-49856614D01*
X118321131Y-49932804D01*
X118283035Y-49970899D01*
X118206845Y-50008995D01*
X117940178Y-50008995D01*
X119159226Y-50428042D02*
X118702083Y-50428042D01*
X118930655Y-50428042D02*
X118930655Y-49628042D01*
X118854464Y-49742328D01*
X118778274Y-49818518D01*
X118702083Y-49856614D01*
X117463988Y-36928042D02*
X117730655Y-37728042D01*
X117997321Y-36928042D01*
X118721131Y-37651852D02*
X118683035Y-37689947D01*
X118568750Y-37728042D01*
X118492559Y-37728042D01*
X118378274Y-37689947D01*
X118302083Y-37613757D01*
X118263988Y-37537566D01*
X118225893Y-37385185D01*
X118225893Y-37270899D01*
X118263988Y-37118518D01*
X118302083Y-37042328D01*
X118378274Y-36966138D01*
X118492559Y-36928042D01*
X118568750Y-36928042D01*
X118683035Y-36966138D01*
X118721131Y-37004233D01*
X119521131Y-37651852D02*
X119483035Y-37689947D01*
X119368750Y-37728042D01*
X119292559Y-37728042D01*
X119178274Y-37689947D01*
X119102083Y-37613757D01*
X119063988Y-37537566D01*
X119025893Y-37385185D01*
X119025893Y-37270899D01*
X119063988Y-37118518D01*
X119102083Y-37042328D01*
X119178274Y-36966138D01*
X119292559Y-36928042D01*
X119368750Y-36928042D01*
X119483035Y-36966138D01*
X119521131Y-37004233D01*
X107284845Y-55088995D02*
X107399131Y-55127090D01*
X107437226Y-55165185D01*
X107475321Y-55241376D01*
X107475321Y-55355661D01*
X107437226Y-55431852D01*
X107399131Y-55469947D01*
X107322940Y-55508042D01*
X107018178Y-55508042D01*
X107018178Y-54708042D01*
X107284845Y-54708042D01*
X107361035Y-54746138D01*
X107399131Y-54784233D01*
X107437226Y-54860423D01*
X107437226Y-54936614D01*
X107399131Y-55012804D01*
X107361035Y-55050899D01*
X107284845Y-55088995D01*
X107018178Y-55088995D01*
X108161035Y-54974709D02*
X108161035Y-55508042D01*
X107970559Y-54669947D02*
X107780083Y-55241376D01*
X108275321Y-55241376D01*
X118263988Y-47468995D02*
X117997321Y-47468995D01*
X117997321Y-47888042D02*
X117997321Y-47088042D01*
X118378274Y-47088042D01*
X118606845Y-47088042D02*
X119140178Y-47088042D01*
X118797321Y-47888042D01*
X118206845Y-29688995D02*
X118321131Y-29727090D01*
X118359226Y-29765185D01*
X118397321Y-29841376D01*
X118397321Y-29955661D01*
X118359226Y-30031852D01*
X118321131Y-30069947D01*
X118244940Y-30108042D01*
X117940178Y-30108042D01*
X117940178Y-29308042D01*
X118206845Y-29308042D01*
X118283035Y-29346138D01*
X118321131Y-29384233D01*
X118359226Y-29460423D01*
X118359226Y-29536614D01*
X118321131Y-29612804D01*
X118283035Y-29650899D01*
X118206845Y-29688995D01*
X117940178Y-29688995D01*
X118892559Y-29308042D02*
X118968750Y-29308042D01*
X119044940Y-29346138D01*
X119083035Y-29384233D01*
X119121131Y-29460423D01*
X119159226Y-29612804D01*
X119159226Y-29803280D01*
X119121131Y-29955661D01*
X119083035Y-30031852D01*
X119044940Y-30069947D01*
X118968750Y-30108042D01*
X118892559Y-30108042D01*
X118816369Y-30069947D01*
X118778274Y-30031852D01*
X118740178Y-29955661D01*
X118702083Y-29803280D01*
X118702083Y-29612804D01*
X118740178Y-29460423D01*
X118778274Y-29384233D01*
X118816369Y-29346138D01*
X118892559Y-29308042D01*
X107018178Y-32648042D02*
X107018178Y-31848042D01*
X107208655Y-31848042D01*
X107322940Y-31886138D01*
X107399131Y-31962328D01*
X107437226Y-32038518D01*
X107475321Y-32190899D01*
X107475321Y-32305185D01*
X107437226Y-32457566D01*
X107399131Y-32533757D01*
X107322940Y-32609947D01*
X107208655Y-32648042D01*
X107018178Y-32648042D01*
X107780083Y-31924233D02*
X107818178Y-31886138D01*
X107894369Y-31848042D01*
X108084845Y-31848042D01*
X108161035Y-31886138D01*
X108199131Y-31924233D01*
X108237226Y-32000423D01*
X108237226Y-32076614D01*
X108199131Y-32190899D01*
X107741988Y-32648042D01*
X108237226Y-32648042D01*
X107018178Y-40268042D02*
X107018178Y-39468042D01*
X107208655Y-39468042D01*
X107322940Y-39506138D01*
X107399131Y-39582328D01*
X107437226Y-39658518D01*
X107475321Y-39810899D01*
X107475321Y-39925185D01*
X107437226Y-40077566D01*
X107399131Y-40153757D01*
X107322940Y-40229947D01*
X107208655Y-40268042D01*
X107018178Y-40268042D01*
X108237226Y-40268042D02*
X107780083Y-40268042D01*
X108008655Y-40268042D02*
X108008655Y-39468042D01*
X107932464Y-39582328D01*
X107856274Y-39658518D01*
X107780083Y-39696614D01*
X107307306Y-29308042D02*
X107764449Y-29308042D01*
X107535878Y-30108042D02*
X107535878Y-29308042D01*
X107954925Y-29308042D02*
X108488259Y-30108042D01*
X108488259Y-29308042D02*
X107954925Y-30108042D01*
X108945402Y-29308042D02*
X109021592Y-29308042D01*
X109097783Y-29346138D01*
X109135878Y-29384233D01*
X109173973Y-29460423D01*
X109212068Y-29612804D01*
X109212068Y-29803280D01*
X109173973Y-29955661D01*
X109135878Y-30031852D01*
X109097783Y-30069947D01*
X109021592Y-30108042D01*
X108945402Y-30108042D01*
X108869211Y-30069947D01*
X108831116Y-30031852D01*
X108793021Y-29955661D01*
X108754925Y-29803280D01*
X108754925Y-29612804D01*
X108793021Y-29460423D01*
X108831116Y-29384233D01*
X108869211Y-29346138D01*
X108945402Y-29308042D01*
X110126354Y-29269947D02*
X109440640Y-30298518D01*
X110393021Y-30108042D02*
X110393021Y-29308042D01*
X110583497Y-29308042D01*
X110697783Y-29346138D01*
X110773973Y-29422328D01*
X110812068Y-29498518D01*
X110850163Y-29650899D01*
X110850163Y-29765185D01*
X110812068Y-29917566D01*
X110773973Y-29993757D01*
X110697783Y-30069947D01*
X110583497Y-30108042D01*
X110393021Y-30108042D01*
X111116830Y-29308042D02*
X111612068Y-29308042D01*
X111345402Y-29612804D01*
X111459687Y-29612804D01*
X111535878Y-29650899D01*
X111573973Y-29688995D01*
X111612068Y-29765185D01*
X111612068Y-29955661D01*
X111573973Y-30031852D01*
X111535878Y-30069947D01*
X111459687Y-30108042D01*
X111231116Y-30108042D01*
X111154925Y-30069947D01*
X111116830Y-30031852D01*
X118263988Y-42388995D02*
X117997321Y-42388995D01*
X117997321Y-42808042D02*
X117997321Y-42008042D01*
X118378274Y-42008042D01*
X119063988Y-42008042D02*
X118683035Y-42008042D01*
X118644940Y-42388995D01*
X118683035Y-42350899D01*
X118759226Y-42312804D01*
X118949702Y-42312804D01*
X119025893Y-42350899D01*
X119063988Y-42388995D01*
X119102083Y-42465185D01*
X119102083Y-42655661D01*
X119063988Y-42731852D01*
X119025893Y-42769947D01*
X118949702Y-42808042D01*
X118759226Y-42808042D01*
X118683035Y-42769947D01*
X118644940Y-42731852D01*
X119233952Y-56581129D02*
X119328233Y-56533989D01*
X119375374Y-56533989D01*
X119446084Y-56557559D01*
X119516795Y-56628270D01*
X119540365Y-56698980D01*
X119540365Y-56746121D01*
X119516795Y-56816831D01*
X119328233Y-57005393D01*
X118833258Y-56510418D01*
X118998250Y-56345427D01*
X119068961Y-56321857D01*
X119116101Y-56321857D01*
X119186812Y-56345427D01*
X119233952Y-56392567D01*
X119257522Y-56463278D01*
X119257522Y-56510418D01*
X119233952Y-56581129D01*
X119068961Y-56746121D01*
X119540365Y-55803312D02*
X119446084Y-55897593D01*
X119422514Y-55968303D01*
X119422514Y-56015444D01*
X119446084Y-56133295D01*
X119516795Y-56251146D01*
X119705357Y-56439708D01*
X119776067Y-56463278D01*
X119823208Y-56463278D01*
X119893919Y-56439708D01*
X119988199Y-56345427D01*
X120011770Y-56274716D01*
X120011770Y-56227576D01*
X119988199Y-56156865D01*
X119870348Y-56039014D01*
X119799638Y-56015444D01*
X119752497Y-56015444D01*
X119681787Y-56039014D01*
X119587506Y-56133295D01*
X119563935Y-56204005D01*
X119563935Y-56251146D01*
X119587506Y-56321857D01*
X112936321Y-56401852D02*
X112898226Y-56439947D01*
X112783940Y-56478042D01*
X112707750Y-56478042D01*
X112593464Y-56439947D01*
X112517274Y-56363757D01*
X112479178Y-56287566D01*
X112441083Y-56135185D01*
X112441083Y-56020899D01*
X112479178Y-55868518D01*
X112517274Y-55792328D01*
X112593464Y-55716138D01*
X112707750Y-55678042D01*
X112783940Y-55678042D01*
X112898226Y-55716138D01*
X112936321Y-55754233D01*
X113202988Y-55678042D02*
X113736321Y-55678042D01*
X113393464Y-56478042D01*
X118269441Y-35119947D02*
X118383727Y-35158042D01*
X118574203Y-35158042D01*
X118650394Y-35119947D01*
X118688489Y-35081852D01*
X118726584Y-35005661D01*
X118726584Y-34929471D01*
X118688489Y-34853280D01*
X118650394Y-34815185D01*
X118574203Y-34777090D01*
X118421822Y-34738995D01*
X118345632Y-34700899D01*
X118307536Y-34662804D01*
X118269441Y-34586614D01*
X118269441Y-34510423D01*
X118307536Y-34434233D01*
X118345632Y-34396138D01*
X118421822Y-34358042D01*
X118612298Y-34358042D01*
X118726584Y-34396138D01*
X118955155Y-34358042D02*
X119412298Y-34358042D01*
X119183727Y-35158042D02*
X119183727Y-34358042D01*
X106999131Y-36966138D02*
X106922940Y-36928042D01*
X106808655Y-36928042D01*
X106694369Y-36966138D01*
X106618178Y-37042328D01*
X106580083Y-37118518D01*
X106541988Y-37270899D01*
X106541988Y-37385185D01*
X106580083Y-37537566D01*
X106618178Y-37613757D01*
X106694369Y-37689947D01*
X106808655Y-37728042D01*
X106884845Y-37728042D01*
X106999131Y-37689947D01*
X107037226Y-37651852D01*
X107037226Y-37385185D01*
X106884845Y-37385185D01*
X107380083Y-37728042D02*
X107380083Y-36928042D01*
X107837226Y-37728042D01*
X107837226Y-36928042D01*
X108218178Y-37728042D02*
X108218178Y-36928042D01*
X108408655Y-36928042D01*
X108522940Y-36966138D01*
X108599131Y-37042328D01*
X108637226Y-37118518D01*
X108675321Y-37270899D01*
X108675321Y-37385185D01*
X108637226Y-37537566D01*
X108599131Y-37613757D01*
X108522940Y-37689947D01*
X108408655Y-37728042D01*
X108218178Y-37728042D01*
X106834646Y-56651840D02*
X106787506Y-56557559D01*
X106787506Y-56510418D01*
X106811076Y-56439708D01*
X106881787Y-56368997D01*
X106952497Y-56345427D01*
X106999638Y-56345427D01*
X107070348Y-56368997D01*
X107258910Y-56557559D01*
X106763935Y-57052534D01*
X106598944Y-56887542D01*
X106575374Y-56816831D01*
X106575374Y-56769691D01*
X106598944Y-56698980D01*
X106646084Y-56651840D01*
X106716795Y-56628270D01*
X106763935Y-56628270D01*
X106834646Y-56651840D01*
X106999638Y-56816831D01*
X106033258Y-56321857D02*
X106268961Y-56557559D01*
X106528233Y-56345427D01*
X106481093Y-56345427D01*
X106410382Y-56321857D01*
X106292531Y-56204005D01*
X106268961Y-56133295D01*
X106268961Y-56086154D01*
X106292531Y-56015444D01*
X106410382Y-55897593D01*
X106481093Y-55874022D01*
X106528233Y-55874022D01*
X106598944Y-55897593D01*
X106716795Y-56015444D01*
X106740365Y-56086154D01*
X106740365Y-56133295D01*
X109939178Y-56478042D02*
X109939178Y-55678042D01*
X110129655Y-55678042D01*
X110243940Y-55716138D01*
X110320131Y-55792328D01*
X110358226Y-55868518D01*
X110396321Y-56020899D01*
X110396321Y-56135185D01*
X110358226Y-56287566D01*
X110320131Y-56363757D01*
X110243940Y-56439947D01*
X110129655Y-56478042D01*
X109939178Y-56478042D01*
X111120131Y-55678042D02*
X110739178Y-55678042D01*
X110701083Y-56058995D01*
X110739178Y-56020899D01*
X110815369Y-55982804D01*
X111005845Y-55982804D01*
X111082035Y-56020899D01*
X111120131Y-56058995D01*
X111158226Y-56135185D01*
X111158226Y-56325661D01*
X111120131Y-56401852D01*
X111082035Y-56439947D01*
X111005845Y-56478042D01*
X110815369Y-56478042D01*
X110739178Y-56439947D01*
X110701083Y-56401852D01*
X107018178Y-42808042D02*
X107018178Y-42008042D01*
X107208655Y-42008042D01*
X107322940Y-42046138D01*
X107399131Y-42122328D01*
X107437226Y-42198518D01*
X107475321Y-42350899D01*
X107475321Y-42465185D01*
X107437226Y-42617566D01*
X107399131Y-42693757D01*
X107322940Y-42769947D01*
X107208655Y-42808042D01*
X107018178Y-42808042D01*
X107970559Y-42008042D02*
X108046750Y-42008042D01*
X108122940Y-42046138D01*
X108161035Y-42084233D01*
X108199131Y-42160423D01*
X108237226Y-42312804D01*
X108237226Y-42503280D01*
X108199131Y-42655661D01*
X108161035Y-42731852D01*
X108122940Y-42769947D01*
X108046750Y-42808042D01*
X107970559Y-42808042D01*
X107894369Y-42769947D01*
X107856274Y-42731852D01*
X107818178Y-42655661D01*
X107780083Y-42503280D01*
X107780083Y-42312804D01*
X107818178Y-42160423D01*
X107856274Y-42084233D01*
X107894369Y-42046138D01*
X107970559Y-42008042D01*
X118206845Y-52548995D02*
X118321131Y-52587090D01*
X118359226Y-52625185D01*
X118397321Y-52701376D01*
X118397321Y-52815661D01*
X118359226Y-52891852D01*
X118321131Y-52929947D01*
X118244940Y-52968042D01*
X117940178Y-52968042D01*
X117940178Y-52168042D01*
X118206845Y-52168042D01*
X118283035Y-52206138D01*
X118321131Y-52244233D01*
X118359226Y-52320423D01*
X118359226Y-52396614D01*
X118321131Y-52472804D01*
X118283035Y-52510899D01*
X118206845Y-52548995D01*
X117940178Y-52548995D01*
X118663988Y-52168042D02*
X119159226Y-52168042D01*
X118892559Y-52472804D01*
X119006845Y-52472804D01*
X119083035Y-52510899D01*
X119121131Y-52548995D01*
X119159226Y-52625185D01*
X119159226Y-52815661D01*
X119121131Y-52891852D01*
X119083035Y-52929947D01*
X119006845Y-52968042D01*
X118778274Y-52968042D01*
X118702083Y-52929947D01*
X118663988Y-52891852D01*
X115342988Y-56058995D02*
X115076321Y-56058995D01*
X115076321Y-56478042D02*
X115076321Y-55678042D01*
X115457274Y-55678042D01*
X116181083Y-56478042D02*
X115723940Y-56478042D01*
X115952512Y-56478042D02*
X115952512Y-55678042D01*
X115876321Y-55792328D01*
X115800131Y-55868518D01*
X115723940Y-55906614D01*
X118206845Y-55088995D02*
X118321131Y-55127090D01*
X118359226Y-55165185D01*
X118397321Y-55241376D01*
X118397321Y-55355661D01*
X118359226Y-55431852D01*
X118321131Y-55469947D01*
X118244940Y-55508042D01*
X117940178Y-55508042D01*
X117940178Y-54708042D01*
X118206845Y-54708042D01*
X118283035Y-54746138D01*
X118321131Y-54784233D01*
X118359226Y-54860423D01*
X118359226Y-54936614D01*
X118321131Y-55012804D01*
X118283035Y-55050899D01*
X118206845Y-55088995D01*
X117940178Y-55088995D01*
X118702083Y-54784233D02*
X118740178Y-54746138D01*
X118816369Y-54708042D01*
X119006845Y-54708042D01*
X119083035Y-54746138D01*
X119121131Y-54784233D01*
X119159226Y-54860423D01*
X119159226Y-54936614D01*
X119121131Y-55050899D01*
X118663988Y-55508042D01*
X119159226Y-55508042D01*
X108286321Y-56266138D02*
X108386321Y-56299471D01*
X108419655Y-56332804D01*
X108452988Y-56399471D01*
X108452988Y-56499471D01*
X108419655Y-56566138D01*
X108386321Y-56599471D01*
X108319655Y-56632804D01*
X108052988Y-56632804D01*
X108052988Y-55932804D01*
X108286321Y-55932804D01*
X108352988Y-55966138D01*
X108386321Y-55999471D01*
X108419655Y-56066138D01*
X108419655Y-56132804D01*
X108386321Y-56199471D01*
X108352988Y-56232804D01*
X108286321Y-56266138D01*
X108052988Y-56266138D01*
X108686321Y-55932804D02*
X109152988Y-55932804D01*
X108852988Y-56632804D01*
X106999131Y-34426138D02*
X106922940Y-34388042D01*
X106808655Y-34388042D01*
X106694369Y-34426138D01*
X106618178Y-34502328D01*
X106580083Y-34578518D01*
X106541988Y-34730899D01*
X106541988Y-34845185D01*
X106580083Y-34997566D01*
X106618178Y-35073757D01*
X106694369Y-35149947D01*
X106808655Y-35188042D01*
X106884845Y-35188042D01*
X106999131Y-35149947D01*
X107037226Y-35111852D01*
X107037226Y-34845185D01*
X106884845Y-34845185D01*
X107380083Y-35188042D02*
X107380083Y-34388042D01*
X107837226Y-35188042D01*
X107837226Y-34388042D01*
X108218178Y-35188042D02*
X108218178Y-34388042D01*
X108408655Y-34388042D01*
X108522940Y-34426138D01*
X108599131Y-34502328D01*
X108637226Y-34578518D01*
X108675321Y-34730899D01*
X108675321Y-34845185D01*
X108637226Y-34997566D01*
X108599131Y-35073757D01*
X108522940Y-35149947D01*
X108408655Y-35188042D01*
X108218178Y-35188042D01*
X118263988Y-39848995D02*
X117997321Y-39848995D01*
X117997321Y-40268042D02*
X117997321Y-39468042D01*
X118378274Y-39468042D01*
X119025893Y-39734709D02*
X119025893Y-40268042D01*
X118835416Y-39429947D02*
X118644940Y-40001376D01*
X119140178Y-40001376D01*
X107475321Y-47811852D02*
X107437226Y-47849947D01*
X107322940Y-47888042D01*
X107246750Y-47888042D01*
X107132464Y-47849947D01*
X107056274Y-47773757D01*
X107018178Y-47697566D01*
X106980083Y-47545185D01*
X106980083Y-47430899D01*
X107018178Y-47278518D01*
X107056274Y-47202328D01*
X107132464Y-47126138D01*
X107246750Y-47088042D01*
X107322940Y-47088042D01*
X107437226Y-47126138D01*
X107475321Y-47164233D01*
X108161035Y-47088042D02*
X108008655Y-47088042D01*
X107932464Y-47126138D01*
X107894369Y-47164233D01*
X107818178Y-47278518D01*
X107780083Y-47430899D01*
X107780083Y-47735661D01*
X107818178Y-47811852D01*
X107856274Y-47849947D01*
X107932464Y-47888042D01*
X108084845Y-47888042D01*
X108161035Y-47849947D01*
X108199131Y-47811852D01*
X108237226Y-47735661D01*
X108237226Y-47545185D01*
X108199131Y-47468995D01*
X108161035Y-47430899D01*
X108084845Y-47392804D01*
X107932464Y-47392804D01*
X107856274Y-47430899D01*
X107818178Y-47468995D01*
X107780083Y-47545185D01*
X107018178Y-50428042D02*
X107018178Y-49628042D01*
X107208655Y-49628042D01*
X107322940Y-49666138D01*
X107399131Y-49742328D01*
X107437226Y-49818518D01*
X107475321Y-49970899D01*
X107475321Y-50085185D01*
X107437226Y-50237566D01*
X107399131Y-50313757D01*
X107322940Y-50389947D01*
X107208655Y-50428042D01*
X107018178Y-50428042D01*
X107741988Y-49628042D02*
X108275321Y-49628042D01*
X107932464Y-50428042D01*
X107018178Y-45348042D02*
X107018178Y-44548042D01*
X107208655Y-44548042D01*
X107322940Y-44586138D01*
X107399131Y-44662328D01*
X107437226Y-44738518D01*
X107475321Y-44890899D01*
X107475321Y-45005185D01*
X107437226Y-45157566D01*
X107399131Y-45233757D01*
X107322940Y-45309947D01*
X107208655Y-45348042D01*
X107018178Y-45348042D01*
X108161035Y-44814709D02*
X108161035Y-45348042D01*
X107970559Y-44509947D02*
X107780083Y-45081376D01*
X108275321Y-45081376D01*
X117336321Y-56266138D02*
X117102988Y-56266138D01*
X117102988Y-56632804D02*
X117102988Y-55932804D01*
X117436321Y-55932804D01*
X117836321Y-55932804D02*
X117902988Y-55932804D01*
X117969655Y-55966138D01*
X118002988Y-55999471D01*
X118036321Y-56066138D01*
X118069655Y-56199471D01*
X118069655Y-56366138D01*
X118036321Y-56499471D01*
X118002988Y-56566138D01*
X117969655Y-56599471D01*
X117902988Y-56632804D01*
X117836321Y-56632804D01*
X117769655Y-56599471D01*
X117736321Y-56566138D01*
X117702988Y-56499471D01*
X117669655Y-56366138D01*
X117669655Y-56199471D01*
X117702988Y-56066138D01*
X117736321Y-55999471D01*
X117769655Y-55966138D01*
X117836321Y-55932804D01*
X107056274Y-52548995D02*
X107322940Y-52548995D01*
X107437226Y-52968042D02*
X107056274Y-52968042D01*
X107056274Y-52168042D01*
X107437226Y-52168042D01*
X108122940Y-52168042D02*
X107970559Y-52168042D01*
X107894369Y-52206138D01*
X107856274Y-52244233D01*
X107780083Y-52358518D01*
X107741988Y-52510899D01*
X107741988Y-52815661D01*
X107780083Y-52891852D01*
X107818178Y-52929947D01*
X107894369Y-52968042D01*
X108046750Y-52968042D01*
X108122940Y-52929947D01*
X108161035Y-52891852D01*
X108199131Y-52815661D01*
X108199131Y-52625185D01*
X108161035Y-52548995D01*
X108122940Y-52510899D01*
X108046750Y-52472804D01*
X107894369Y-52472804D01*
X107818178Y-52510899D01*
X107780083Y-52548995D01*
X107741988Y-52625185D01*
%TO.C,OL1*%
X110012514Y-61561768D02*
X109917276Y-61514149D01*
X109869657Y-61418911D01*
X109869657Y-60561768D01*
X110774418Y-61514149D02*
X110679180Y-61561768D01*
X110488704Y-61561768D01*
X110393466Y-61514149D01*
X110345847Y-61418911D01*
X110345847Y-61037959D01*
X110393466Y-60942721D01*
X110488704Y-60895102D01*
X110679180Y-60895102D01*
X110774418Y-60942721D01*
X110822037Y-61037959D01*
X110822037Y-61133197D01*
X110345847Y-61228435D01*
X111107752Y-60895102D02*
X111488704Y-60895102D01*
X111250609Y-61561768D02*
X111250609Y-60704626D01*
X111298228Y-60609388D01*
X111393466Y-60561768D01*
X111488704Y-60561768D01*
X111679180Y-60895102D02*
X112060133Y-60895102D01*
X111822037Y-60561768D02*
X111822037Y-61418911D01*
X111869657Y-61514149D01*
X111964895Y-61561768D01*
X112060133Y-61561768D01*
X113298228Y-61561768D02*
X113202990Y-61514149D01*
X113155371Y-61466530D01*
X113107752Y-61371292D01*
X113107752Y-61085578D01*
X113155371Y-60990340D01*
X113202990Y-60942721D01*
X113298228Y-60895102D01*
X113441085Y-60895102D01*
X113536323Y-60942721D01*
X113583942Y-60990340D01*
X113631561Y-61085578D01*
X113631561Y-61371292D01*
X113583942Y-61466530D01*
X113536323Y-61514149D01*
X113441085Y-61561768D01*
X113298228Y-61561768D01*
X114202990Y-61561768D02*
X114107752Y-61514149D01*
X114060133Y-61418911D01*
X114060133Y-60561768D01*
X114964895Y-61514149D02*
X114869657Y-61561768D01*
X114679180Y-61561768D01*
X114583942Y-61514149D01*
X114536323Y-61418911D01*
X114536323Y-61037959D01*
X114583942Y-60942721D01*
X114679180Y-60895102D01*
X114869657Y-60895102D01*
X114964895Y-60942721D01*
X115012514Y-61037959D01*
X115012514Y-61133197D01*
X114536323Y-61228435D01*
X115869657Y-61561768D02*
X115869657Y-60561768D01*
X115869657Y-61514149D02*
X115774418Y-61561768D01*
X115583942Y-61561768D01*
X115488704Y-61514149D01*
X115441085Y-61466530D01*
X115393466Y-61371292D01*
X115393466Y-61085578D01*
X115441085Y-60990340D01*
X115488704Y-60942721D01*
X115583942Y-60895102D01*
X115774418Y-60895102D01*
X115869657Y-60942721D01*
%TO.C,J2*%
X120387658Y-69899388D02*
X108287658Y-69899388D01*
X122387658Y-75749388D02*
X122387658Y-70149388D01*
X120387658Y-70149388D02*
X122387658Y-70149388D01*
X108287658Y-75999388D02*
X108287658Y-69899388D01*
X120387658Y-75999388D02*
X120387658Y-69899388D01*
X120387658Y-75749388D02*
X122387658Y-75749388D01*
X120387658Y-75999388D02*
X108287658Y-75999388D01*
D12*
%TO.C,RSW1*%
X71804655Y-16611890D02*
X72344655Y-16611890D01*
X71804655Y-16611890D02*
X71804655Y-16841890D01*
X78484655Y-16611890D02*
X78484655Y-16841890D01*
X73444655Y-16611890D02*
X76844655Y-16611890D01*
X77944655Y-16611890D02*
X78484655Y-16611890D01*
X71284655Y-12941890D02*
X71284655Y-16841890D01*
X71284655Y-12941890D02*
X79004655Y-12941890D01*
X79004655Y-12941890D02*
X79004655Y-16841890D01*
D13*
%TO.C,REF\u002A\u002A*%
X66192901Y-52061255D02*
X66995847Y-51258555D01*
X66995847Y-51258555D02*
X67284215Y-51261649D01*
X67284215Y-51261649D02*
X67572583Y-51264742D01*
X67572583Y-51264742D02*
X66725359Y-52124879D01*
X66725359Y-52124879D02*
X66607434Y-52244602D01*
X66607434Y-52244602D02*
X66492635Y-52361151D01*
X66492635Y-52361151D02*
X66382181Y-52473291D01*
X66382181Y-52473291D02*
X66277289Y-52579784D01*
X66277289Y-52579784D02*
X66179177Y-52679395D01*
X66179177Y-52679395D02*
X66089062Y-52770888D01*
X66089062Y-52770888D02*
X66008163Y-52853025D01*
X66008163Y-52853025D02*
X65937696Y-52924570D01*
X65937696Y-52924570D02*
X65878880Y-52984288D01*
X65878880Y-52984288D02*
X65832933Y-53030942D01*
X65832933Y-53030942D02*
X65801072Y-53063295D01*
X65801072Y-53063295D02*
X65787291Y-53077291D01*
X65787291Y-53077291D02*
X65696447Y-53169567D01*
X65696447Y-53169567D02*
X65696447Y-50427697D01*
X65696447Y-50427697D02*
X66192901Y-50427697D01*
X66192901Y-50427697D02*
X66192901Y-52061255D01*
X66192901Y-52061255D02*
X66192901Y-52061255D01*
G36*
X66192901Y-52061255D02*
G01*
X66995847Y-51258555D01*
X67284215Y-51261649D01*
X67572583Y-51264742D01*
X66725359Y-52124879D01*
X66607434Y-52244602D01*
X66492635Y-52361151D01*
X66382181Y-52473291D01*
X66277289Y-52579784D01*
X66179177Y-52679395D01*
X66089062Y-52770888D01*
X66008163Y-52853025D01*
X65937696Y-52924570D01*
X65878880Y-52984288D01*
X65832933Y-53030942D01*
X65801072Y-53063295D01*
X65787291Y-53077291D01*
X65696447Y-53169567D01*
X65696447Y-50427697D01*
X66192901Y-50427697D01*
X66192901Y-52061255D01*
G37*
X66192901Y-52061255D02*
X66995847Y-51258555D01*
X67284215Y-51261649D01*
X67572583Y-51264742D01*
X66725359Y-52124879D01*
X66607434Y-52244602D01*
X66492635Y-52361151D01*
X66382181Y-52473291D01*
X66277289Y-52579784D01*
X66179177Y-52679395D01*
X66089062Y-52770888D01*
X66008163Y-52853025D01*
X65937696Y-52924570D01*
X65878880Y-52984288D01*
X65832933Y-53030942D01*
X65801072Y-53063295D01*
X65787291Y-53077291D01*
X65696447Y-53169567D01*
X65696447Y-50427697D01*
X66192901Y-50427697D01*
X66192901Y-52061255D01*
X68397935Y-50927038D02*
X68398127Y-51031278D01*
X68398127Y-51031278D02*
X68398616Y-51128023D01*
X68398616Y-51128023D02*
X68399366Y-51214909D01*
X68399366Y-51214909D02*
X68400342Y-51289571D01*
X68400342Y-51289571D02*
X68401511Y-51349646D01*
X68401511Y-51349646D02*
X68402838Y-51392769D01*
X68402838Y-51392769D02*
X68404287Y-51416576D01*
X68404287Y-51416576D02*
X68405195Y-51420606D01*
X68405195Y-51420606D02*
X68417626Y-51414292D01*
X68417626Y-51414292D02*
X68442472Y-51397949D01*
X68442472Y-51397949D02*
X68466606Y-51380747D01*
X68466606Y-51380747D02*
X68581303Y-51310025D01*
X68581303Y-51310025D02*
X68703519Y-51260921D01*
X68703519Y-51260921D02*
X68833902Y-51233245D01*
X68833902Y-51233245D02*
X68973103Y-51226807D01*
X68973103Y-51226807D02*
X68990915Y-51227475D01*
X68990915Y-51227475D02*
X69080550Y-51234027D01*
X69080550Y-51234027D02*
X69157033Y-51245964D01*
X69157033Y-51245964D02*
X69228685Y-51265456D01*
X69228685Y-51265456D02*
X69303823Y-51294673D01*
X69303823Y-51294673D02*
X69373674Y-51327312D01*
X69373674Y-51327312D02*
X69501607Y-51402605D01*
X69501607Y-51402605D02*
X69614527Y-51494585D01*
X69614527Y-51494585D02*
X69711421Y-51601574D01*
X69711421Y-51601574D02*
X69791279Y-51721899D01*
X69791279Y-51721899D02*
X69853089Y-51853884D01*
X69853089Y-51853884D02*
X69895841Y-51995853D01*
X69895841Y-51995853D02*
X69918522Y-52146132D01*
X69918522Y-52146132D02*
X69922083Y-52235802D01*
X69922083Y-52235802D02*
X69911792Y-52388280D01*
X69911792Y-52388280D02*
X69880436Y-52532844D01*
X69880436Y-52532844D02*
X69827291Y-52672080D01*
X69827291Y-52672080D02*
X69770036Y-52778999D01*
X69770036Y-52778999D02*
X69684324Y-52899292D01*
X69684324Y-52899292D02*
X69582711Y-53004141D01*
X69582711Y-53004141D02*
X69467378Y-53092463D01*
X69467378Y-53092463D02*
X69340503Y-53163177D01*
X69340503Y-53163177D02*
X69204267Y-53215200D01*
X69204267Y-53215200D02*
X69060848Y-53247453D01*
X69060848Y-53247453D02*
X68912427Y-53258852D01*
X68912427Y-53258852D02*
X68812181Y-53254369D01*
X68812181Y-53254369D02*
X68667573Y-53229488D01*
X68667573Y-53229488D02*
X68527005Y-53183213D01*
X68527005Y-53183213D02*
X68393832Y-53117234D01*
X68393832Y-53117234D02*
X68271412Y-53033237D01*
X68271412Y-53033237D02*
X68163100Y-52932911D01*
X68163100Y-52932911D02*
X68154706Y-52923745D01*
X68154706Y-52923745D02*
X68073575Y-52819625D01*
X68073575Y-52819625D02*
X68003883Y-52701443D01*
X68003883Y-52701443D02*
X67948717Y-52575580D01*
X67948717Y-52575580D02*
X67911164Y-52448420D01*
X67911164Y-52448420D02*
X67902295Y-52401970D01*
X67902295Y-52401970D02*
X67899682Y-52373575D01*
X67899682Y-52373575D02*
X67897337Y-52323503D01*
X67897337Y-52323503D02*
X67895868Y-52273169D01*
X67895868Y-52273169D02*
X68392206Y-52273169D01*
X68392206Y-52273169D02*
X68402778Y-52370718D01*
X68402778Y-52370718D02*
X68433210Y-52464737D01*
X68433210Y-52464737D02*
X68461864Y-52518882D01*
X68461864Y-52518882D02*
X68528798Y-52607165D01*
X68528798Y-52607165D02*
X68608279Y-52678042D01*
X68608279Y-52678042D02*
X68697711Y-52730535D01*
X68697711Y-52730535D02*
X68794497Y-52763667D01*
X68794497Y-52763667D02*
X68896038Y-52776461D01*
X68896038Y-52776461D02*
X68999739Y-52767940D01*
X68999739Y-52767940D02*
X69072566Y-52748652D01*
X69072566Y-52748652D02*
X69115563Y-52732566D01*
X69115563Y-52732566D02*
X69156468Y-52715206D01*
X69156468Y-52715206D02*
X69172635Y-52707430D01*
X69172635Y-52707430D02*
X69217921Y-52676426D01*
X69217921Y-52676426D02*
X69267244Y-52630232D01*
X69267244Y-52630232D02*
X69315301Y-52574776D01*
X69315301Y-52574776D02*
X69356786Y-52515982D01*
X69356786Y-52515982D02*
X69378274Y-52477655D01*
X69378274Y-52477655D02*
X69398455Y-52433409D01*
X69398455Y-52433409D02*
X69411100Y-52394801D01*
X69411100Y-52394801D02*
X69418457Y-52352509D01*
X69418457Y-52352509D02*
X69422775Y-52297206D01*
X69422775Y-52297206D02*
X69423057Y-52291916D01*
X69423057Y-52291916D02*
X69419689Y-52184671D01*
X69419689Y-52184671D02*
X69396833Y-52086779D01*
X69396833Y-52086779D02*
X69353181Y-51993356D01*
X69353181Y-51993356D02*
X69335411Y-51964827D01*
X69335411Y-51964827D02*
X69270869Y-51886923D01*
X69270869Y-51886923D02*
X69192052Y-51824753D01*
X69192052Y-51824753D02*
X69102416Y-51779257D01*
X69102416Y-51779257D02*
X69005417Y-51751379D01*
X69005417Y-51751379D02*
X68904513Y-51742059D01*
X68904513Y-51742059D02*
X68803161Y-51752241D01*
X68803161Y-51752241D02*
X68704815Y-51782866D01*
X68704815Y-51782866D02*
X68690812Y-51789152D01*
X68690812Y-51789152D02*
X68602860Y-51842101D01*
X68602860Y-51842101D02*
X68528870Y-51910315D01*
X68528870Y-51910315D02*
X68469827Y-51990661D01*
X68469827Y-51990661D02*
X68426714Y-52080008D01*
X68426714Y-52080008D02*
X68400512Y-52175221D01*
X68400512Y-52175221D02*
X68392206Y-52273169D01*
X68392206Y-52273169D02*
X67895868Y-52273169D01*
X67895868Y-52273169D02*
X67895284Y-52253166D01*
X67895284Y-52253166D02*
X67893545Y-52163977D01*
X67893545Y-52163977D02*
X67892142Y-52057348D01*
X67892142Y-52057348D02*
X67891098Y-51934692D01*
X67891098Y-51934692D02*
X67890434Y-51797420D01*
X67890434Y-51797420D02*
X67890173Y-51646946D01*
X67890173Y-51646946D02*
X67890170Y-51635210D01*
X67890170Y-51635210D02*
X67890083Y-50943496D01*
X67890083Y-50943496D02*
X68397787Y-50433470D01*
X68397787Y-50433470D02*
X68397935Y-50927038D01*
X68397935Y-50927038D02*
X68397935Y-50927038D01*
G36*
X67893545Y-52163977D02*
G01*
X67892142Y-52057348D01*
X67891098Y-51934692D01*
X67890434Y-51797420D01*
X67890173Y-51646946D01*
X67890170Y-51635210D01*
X67890083Y-50943496D01*
X68397787Y-50433470D01*
X68397935Y-50927038D01*
X68398127Y-51031278D01*
X68398616Y-51128023D01*
X68399366Y-51214909D01*
X68400342Y-51289571D01*
X68401511Y-51349646D01*
X68402838Y-51392769D01*
X68404287Y-51416576D01*
X68405195Y-51420606D01*
X68417626Y-51414292D01*
X68442472Y-51397949D01*
X68466606Y-51380747D01*
X68581303Y-51310025D01*
X68703519Y-51260921D01*
X68833902Y-51233245D01*
X68973103Y-51226807D01*
X68990915Y-51227475D01*
X69080550Y-51234027D01*
X69157033Y-51245964D01*
X69228685Y-51265456D01*
X69303823Y-51294673D01*
X69373674Y-51327312D01*
X69501607Y-51402605D01*
X69614527Y-51494585D01*
X69711421Y-51601574D01*
X69791279Y-51721899D01*
X69853089Y-51853884D01*
X69895841Y-51995853D01*
X69918522Y-52146132D01*
X69922083Y-52235802D01*
X69911792Y-52388280D01*
X69880436Y-52532844D01*
X69827291Y-52672080D01*
X69770036Y-52778999D01*
X69684324Y-52899292D01*
X69582711Y-53004141D01*
X69467378Y-53092463D01*
X69340503Y-53163177D01*
X69204267Y-53215200D01*
X69060848Y-53247453D01*
X68912427Y-53258852D01*
X68812181Y-53254369D01*
X68667573Y-53229488D01*
X68527005Y-53183213D01*
X68393832Y-53117234D01*
X68271412Y-53033237D01*
X68163100Y-52932911D01*
X68154706Y-52923745D01*
X68073575Y-52819625D01*
X68003883Y-52701443D01*
X67948717Y-52575580D01*
X67911164Y-52448420D01*
X67902295Y-52401970D01*
X67899682Y-52373575D01*
X67897337Y-52323503D01*
X67895868Y-52273169D01*
X68392206Y-52273169D01*
X68402778Y-52370718D01*
X68433210Y-52464737D01*
X68461864Y-52518882D01*
X68528798Y-52607165D01*
X68608279Y-52678042D01*
X68697711Y-52730535D01*
X68794497Y-52763667D01*
X68896038Y-52776461D01*
X68999739Y-52767940D01*
X69072566Y-52748652D01*
X69115563Y-52732566D01*
X69156468Y-52715206D01*
X69172635Y-52707430D01*
X69217921Y-52676426D01*
X69267244Y-52630232D01*
X69315301Y-52574776D01*
X69356786Y-52515982D01*
X69378274Y-52477655D01*
X69398455Y-52433409D01*
X69411100Y-52394801D01*
X69418457Y-52352509D01*
X69422775Y-52297206D01*
X69423057Y-52291916D01*
X69419689Y-52184671D01*
X69396833Y-52086779D01*
X69353181Y-51993356D01*
X69335411Y-51964827D01*
X69270869Y-51886923D01*
X69192052Y-51824753D01*
X69102416Y-51779257D01*
X69005417Y-51751379D01*
X68904513Y-51742059D01*
X68803161Y-51752241D01*
X68704815Y-51782866D01*
X68690812Y-51789152D01*
X68602860Y-51842101D01*
X68528870Y-51910315D01*
X68469827Y-51990661D01*
X68426714Y-52080008D01*
X68400512Y-52175221D01*
X68392206Y-52273169D01*
X67895868Y-52273169D01*
X67895284Y-52253166D01*
X67893545Y-52163977D01*
G37*
X67893545Y-52163977D02*
X67892142Y-52057348D01*
X67891098Y-51934692D01*
X67890434Y-51797420D01*
X67890173Y-51646946D01*
X67890170Y-51635210D01*
X67890083Y-50943496D01*
X68397787Y-50433470D01*
X68397935Y-50927038D01*
X68398127Y-51031278D01*
X68398616Y-51128023D01*
X68399366Y-51214909D01*
X68400342Y-51289571D01*
X68401511Y-51349646D01*
X68402838Y-51392769D01*
X68404287Y-51416576D01*
X68405195Y-51420606D01*
X68417626Y-51414292D01*
X68442472Y-51397949D01*
X68466606Y-51380747D01*
X68581303Y-51310025D01*
X68703519Y-51260921D01*
X68833902Y-51233245D01*
X68973103Y-51226807D01*
X68990915Y-51227475D01*
X69080550Y-51234027D01*
X69157033Y-51245964D01*
X69228685Y-51265456D01*
X69303823Y-51294673D01*
X69373674Y-51327312D01*
X69501607Y-51402605D01*
X69614527Y-51494585D01*
X69711421Y-51601574D01*
X69791279Y-51721899D01*
X69853089Y-51853884D01*
X69895841Y-51995853D01*
X69918522Y-52146132D01*
X69922083Y-52235802D01*
X69911792Y-52388280D01*
X69880436Y-52532844D01*
X69827291Y-52672080D01*
X69770036Y-52778999D01*
X69684324Y-52899292D01*
X69582711Y-53004141D01*
X69467378Y-53092463D01*
X69340503Y-53163177D01*
X69204267Y-53215200D01*
X69060848Y-53247453D01*
X68912427Y-53258852D01*
X68812181Y-53254369D01*
X68667573Y-53229488D01*
X68527005Y-53183213D01*
X68393832Y-53117234D01*
X68271412Y-53033237D01*
X68163100Y-52932911D01*
X68154706Y-52923745D01*
X68073575Y-52819625D01*
X68003883Y-52701443D01*
X67948717Y-52575580D01*
X67911164Y-52448420D01*
X67902295Y-52401970D01*
X67899682Y-52373575D01*
X67897337Y-52323503D01*
X67895868Y-52273169D01*
X68392206Y-52273169D01*
X68402778Y-52370718D01*
X68433210Y-52464737D01*
X68461864Y-52518882D01*
X68528798Y-52607165D01*
X68608279Y-52678042D01*
X68697711Y-52730535D01*
X68794497Y-52763667D01*
X68896038Y-52776461D01*
X68999739Y-52767940D01*
X69072566Y-52748652D01*
X69115563Y-52732566D01*
X69156468Y-52715206D01*
X69172635Y-52707430D01*
X69217921Y-52676426D01*
X69267244Y-52630232D01*
X69315301Y-52574776D01*
X69356786Y-52515982D01*
X69378274Y-52477655D01*
X69398455Y-52433409D01*
X69411100Y-52394801D01*
X69418457Y-52352509D01*
X69422775Y-52297206D01*
X69423057Y-52291916D01*
X69419689Y-52184671D01*
X69396833Y-52086779D01*
X69353181Y-51993356D01*
X69335411Y-51964827D01*
X69270869Y-51886923D01*
X69192052Y-51824753D01*
X69102416Y-51779257D01*
X69005417Y-51751379D01*
X68904513Y-51742059D01*
X68803161Y-51752241D01*
X68704815Y-51782866D01*
X68690812Y-51789152D01*
X68602860Y-51842101D01*
X68528870Y-51910315D01*
X68469827Y-51990661D01*
X68426714Y-52080008D01*
X68400512Y-52175221D01*
X68392206Y-52273169D01*
X67895868Y-52273169D01*
X67895284Y-52253166D01*
X67893545Y-52163977D01*
X66999681Y-52467786D02*
X67022384Y-52490649D01*
X67022384Y-52490649D02*
X67056863Y-52526180D01*
X67056863Y-52526180D02*
X67101132Y-52572272D01*
X67101132Y-52572272D02*
X67153199Y-52626818D01*
X67153199Y-52626818D02*
X67211078Y-52687712D01*
X67211078Y-52687712D02*
X67272777Y-52752847D01*
X67272777Y-52752847D02*
X67336310Y-52820117D01*
X67336310Y-52820117D02*
X67399685Y-52887415D01*
X67399685Y-52887415D02*
X67460915Y-52952634D01*
X67460915Y-52952634D02*
X67518011Y-53013669D01*
X67518011Y-53013669D02*
X67568983Y-53068412D01*
X67568983Y-53068412D02*
X67611843Y-53114757D01*
X67611843Y-53114757D02*
X67644601Y-53150597D01*
X67644601Y-53150597D02*
X67665269Y-53173826D01*
X67665269Y-53173826D02*
X67667562Y-53176517D01*
X67667562Y-53176517D02*
X67695863Y-53210152D01*
X67695863Y-53210152D02*
X67075849Y-53210152D01*
X67075849Y-53210152D02*
X66902499Y-53034083D01*
X66902499Y-53034083D02*
X66848757Y-52979340D01*
X66848757Y-52979340D02*
X66798474Y-52927827D01*
X66798474Y-52927827D02*
X66754658Y-52882647D01*
X66754658Y-52882647D02*
X66720312Y-52846901D01*
X66720312Y-52846901D02*
X66698444Y-52823692D01*
X66698444Y-52823692D02*
X66695267Y-52820200D01*
X66695267Y-52820200D02*
X66661385Y-52782385D01*
X66661385Y-52782385D02*
X66822420Y-52621041D01*
X66822420Y-52621041D02*
X66872133Y-52571586D01*
X66872133Y-52571586D02*
X66916357Y-52528261D01*
X66916357Y-52528261D02*
X66952504Y-52493548D01*
X66952504Y-52493548D02*
X66977986Y-52469928D01*
X66977986Y-52469928D02*
X66990215Y-52459880D01*
X66990215Y-52459880D02*
X66990746Y-52459697D01*
X66990746Y-52459697D02*
X66999681Y-52467786D01*
X66999681Y-52467786D02*
X66999681Y-52467786D01*
G36*
X66999681Y-52467786D02*
G01*
X67022384Y-52490649D01*
X67056863Y-52526180D01*
X67101132Y-52572272D01*
X67153199Y-52626818D01*
X67211078Y-52687712D01*
X67272777Y-52752847D01*
X67336310Y-52820117D01*
X67399685Y-52887415D01*
X67460915Y-52952634D01*
X67518011Y-53013669D01*
X67568983Y-53068412D01*
X67611843Y-53114757D01*
X67644601Y-53150597D01*
X67665269Y-53173826D01*
X67667562Y-53176517D01*
X67695863Y-53210152D01*
X67075849Y-53210152D01*
X66902499Y-53034083D01*
X66848757Y-52979340D01*
X66798474Y-52927827D01*
X66754658Y-52882647D01*
X66720312Y-52846901D01*
X66698444Y-52823692D01*
X66695267Y-52820200D01*
X66661385Y-52782385D01*
X66822420Y-52621041D01*
X66872133Y-52571586D01*
X66916357Y-52528261D01*
X66952504Y-52493548D01*
X66977986Y-52469928D01*
X66990215Y-52459880D01*
X66990746Y-52459697D01*
X66999681Y-52467786D01*
G37*
X66999681Y-52467786D02*
X67022384Y-52490649D01*
X67056863Y-52526180D01*
X67101132Y-52572272D01*
X67153199Y-52626818D01*
X67211078Y-52687712D01*
X67272777Y-52752847D01*
X67336310Y-52820117D01*
X67399685Y-52887415D01*
X67460915Y-52952634D01*
X67518011Y-53013669D01*
X67568983Y-53068412D01*
X67611843Y-53114757D01*
X67644601Y-53150597D01*
X67665269Y-53173826D01*
X67667562Y-53176517D01*
X67695863Y-53210152D01*
X67075849Y-53210152D01*
X66902499Y-53034083D01*
X66848757Y-52979340D01*
X66798474Y-52927827D01*
X66754658Y-52882647D01*
X66720312Y-52846901D01*
X66698444Y-52823692D01*
X66695267Y-52820200D01*
X66661385Y-52782385D01*
X66822420Y-52621041D01*
X66872133Y-52571586D01*
X66916357Y-52528261D01*
X66952504Y-52493548D01*
X66977986Y-52469928D01*
X66990215Y-52459880D01*
X66990746Y-52459697D01*
X66999681Y-52467786D01*
D14*
X74827703Y-18693254D02*
G75*
G03*
X70677156Y-17659388I-7008037J-19286087D01*
G01*
X87105791Y-44987434D02*
G75*
G03*
X88139656Y-40836888I-19286185J7008058D01*
G01*
X66691271Y-48715252D02*
G75*
G03*
X67819656Y-48774388I1128379J10735785D01*
G01*
X68948041Y-27243524D02*
G75*
G03*
X67819656Y-27184388I-1128379J-10735785D01*
G01*
X88139656Y-35121888D02*
G75*
G03*
X87105791Y-30971343I-20320019J-2857506D01*
G01*
X67819656Y-27184388D02*
G75*
G03*
X66691271Y-27243524I-6J-10794921D01*
G01*
X60811610Y-57265523D02*
G75*
G03*
X64962156Y-58299388I7008058J19286185D01*
G01*
X64962156Y-17659388D02*
G75*
G03*
X60811608Y-18693254I2857496J-20319983D01*
G01*
X67819656Y-48774388D02*
G75*
G03*
X68948041Y-48715252I6J10794921D01*
G01*
X47499656Y-40836888D02*
G75*
G03*
X48533522Y-44987435I20319953J2857490D01*
G01*
X70677156Y-58299388D02*
G75*
G03*
X74827703Y-57265522I-2857490J20319953D01*
G01*
X48533522Y-30971340D02*
G75*
G03*
X47499656Y-35121888I19286117J-7008044D01*
G01*
D10*
%TO.C,U2*%
X117801223Y-34755498D02*
X117801223Y-34855498D01*
X117801223Y-34855498D02*
X117701223Y-34855498D01*
X117701223Y-34855498D02*
X117701223Y-34755498D01*
X117701223Y-34755498D02*
X117801223Y-34755498D01*
G36*
X117801223Y-34855498D02*
G01*
X117701223Y-34855498D01*
X117701223Y-34755498D01*
X117801223Y-34755498D01*
X117801223Y-34855498D01*
G37*
X117801223Y-34855498D02*
X117701223Y-34855498D01*
X117701223Y-34755498D01*
X117801223Y-34755498D01*
X117801223Y-34855498D01*
X118001223Y-34355498D02*
X118001223Y-34455498D01*
X118001223Y-34455498D02*
X117501223Y-34455498D01*
X117501223Y-34455498D02*
X117501223Y-34355498D01*
X117501223Y-34355498D02*
X118001223Y-34355498D01*
G36*
X118001223Y-34455498D02*
G01*
X117501223Y-34455498D01*
X117501223Y-34355498D01*
X118001223Y-34355498D01*
X118001223Y-34455498D01*
G37*
X118001223Y-34455498D02*
X117501223Y-34455498D01*
X117501223Y-34355498D01*
X118001223Y-34355498D01*
X118001223Y-34455498D01*
X118001223Y-34355498D02*
X118001223Y-34655498D01*
X118001223Y-34655498D02*
X117901223Y-34655498D01*
X117901223Y-34655498D02*
X117901223Y-34355498D01*
X117901223Y-34355498D02*
X118001223Y-34355498D01*
G36*
X118001223Y-34655498D02*
G01*
X117901223Y-34655498D01*
X117901223Y-34355498D01*
X118001223Y-34355498D01*
X118001223Y-34655498D01*
G37*
X118001223Y-34655498D02*
X117901223Y-34655498D01*
X117901223Y-34355498D01*
X118001223Y-34355498D01*
X118001223Y-34655498D01*
X118001223Y-34955498D02*
X118001223Y-35155498D01*
X118001223Y-35155498D02*
X117901223Y-35155498D01*
X117901223Y-35155498D02*
X117901223Y-34955498D01*
X117901223Y-34955498D02*
X118001223Y-34955498D01*
G36*
X118001223Y-35155498D02*
G01*
X117901223Y-35155498D01*
X117901223Y-34955498D01*
X118001223Y-34955498D01*
X118001223Y-35155498D01*
G37*
X118001223Y-35155498D02*
X117901223Y-35155498D01*
X117901223Y-34955498D01*
X118001223Y-34955498D01*
X118001223Y-35155498D01*
X117601223Y-34355498D02*
X117601223Y-35155498D01*
X117601223Y-35155498D02*
X117501223Y-35155498D01*
X117501223Y-35155498D02*
X117501223Y-34355498D01*
X117501223Y-34355498D02*
X117601223Y-34355498D01*
G36*
X117601223Y-35155498D02*
G01*
X117501223Y-35155498D01*
X117501223Y-34355498D01*
X117601223Y-34355498D01*
X117601223Y-35155498D01*
G37*
X117601223Y-35155498D02*
X117501223Y-35155498D01*
X117501223Y-34355498D01*
X117601223Y-34355498D01*
X117601223Y-35155498D01*
D15*
X106719655Y-28476138D02*
X104179655Y-28476138D01*
X121959655Y-28476138D02*
X121959655Y-25936138D01*
X104179655Y-25936138D02*
X104179655Y-28476138D01*
X104179655Y-28476138D02*
X104179655Y-58956138D01*
X104179655Y-58956138D02*
X121959655Y-58956138D01*
X121959655Y-58956138D02*
X121959655Y-28476138D01*
X106719655Y-31016138D02*
X104179655Y-31016138D01*
X121959655Y-25936138D02*
X104179655Y-25936138D01*
X106719655Y-28476138D02*
X106719655Y-31016138D01*
D11*
%TO.C,D34*%
X36119658Y-24999387D02*
X37019658Y-25899387D01*
X37019658Y-25899387D02*
X36119658Y-25899387D01*
X36119658Y-25899387D02*
X36119658Y-24999387D01*
G36*
X37019658Y-25899387D02*
G01*
X36119658Y-25899387D01*
X36119658Y-24999387D01*
X37019658Y-25899387D01*
G37*
X37019658Y-25899387D02*
X36119658Y-25899387D01*
X36119658Y-24999387D01*
X37019658Y-25899387D01*
%TO.C,D26*%
X54119654Y-52133387D02*
X55019654Y-53033387D01*
X55019654Y-53033387D02*
X54119654Y-53033387D01*
X54119654Y-53033387D02*
X54119654Y-52133387D01*
G36*
X55019654Y-53033387D02*
G01*
X54119654Y-53033387D01*
X54119654Y-52133387D01*
X55019654Y-53033387D01*
G37*
X55019654Y-53033387D02*
X54119654Y-53033387D01*
X54119654Y-52133387D01*
X55019654Y-53033387D01*
%TO.C,D31*%
X36119656Y-41973388D02*
X37019656Y-42873388D01*
X37019656Y-42873388D02*
X36119656Y-42873388D01*
X36119656Y-42873388D02*
X36119656Y-41973388D01*
G36*
X37019656Y-42873388D02*
G01*
X36119656Y-42873388D01*
X36119656Y-41973388D01*
X37019656Y-42873388D01*
G37*
X37019656Y-42873388D02*
X36119656Y-42873388D01*
X36119656Y-41973388D01*
X37019656Y-42873388D01*
%TO.C,D28*%
X36119655Y-58991386D02*
X37019655Y-59891386D01*
X37019655Y-59891386D02*
X36119655Y-59891386D01*
X36119655Y-59891386D02*
X36119655Y-58991386D01*
G36*
X37019655Y-59891386D02*
G01*
X36119655Y-59891386D01*
X36119655Y-58991386D01*
X37019655Y-59891386D01*
G37*
X37019655Y-59891386D02*
X36119655Y-59891386D01*
X36119655Y-58991386D01*
X37019655Y-59891386D01*
%TO.C,D32*%
X72119658Y-40449390D02*
X73019658Y-41349390D01*
X73019658Y-41349390D02*
X72119658Y-41349390D01*
X72119658Y-41349390D02*
X72119658Y-40449390D01*
G36*
X73019658Y-41349390D02*
G01*
X72119658Y-41349390D01*
X72119658Y-40449390D01*
X73019658Y-41349390D01*
G37*
X73019658Y-41349390D02*
X72119658Y-41349390D01*
X72119658Y-40449390D01*
X73019658Y-41349390D01*
%TO.C,D21*%
X90119655Y-25999388D02*
X91019655Y-26899388D01*
X91019655Y-26899388D02*
X90119655Y-26899388D01*
X90119655Y-26899388D02*
X90119655Y-25999388D01*
G36*
X91019655Y-26899388D02*
G01*
X90119655Y-26899388D01*
X90119655Y-25999388D01*
X91019655Y-26899388D01*
G37*
X91019655Y-26899388D02*
X90119655Y-26899388D01*
X90119655Y-25999388D01*
X91019655Y-26899388D01*
%TO.C,D19*%
X18119655Y-36999388D02*
X19019655Y-37899388D01*
X19019655Y-37899388D02*
X18119655Y-37899388D01*
X18119655Y-37899388D02*
X18119655Y-36999388D01*
G36*
X19019655Y-37899388D02*
G01*
X18119655Y-37899388D01*
X18119655Y-36999388D01*
X19019655Y-37899388D01*
G37*
X19019655Y-37899388D02*
X18119655Y-37899388D01*
X18119655Y-36999388D01*
X19019655Y-37899388D01*
%TO.C,D23*%
X54119658Y-35115387D02*
X55019658Y-36015387D01*
X55019658Y-36015387D02*
X54119658Y-36015387D01*
X54119658Y-36015387D02*
X54119658Y-35115387D01*
G36*
X55019658Y-36015387D02*
G01*
X54119658Y-36015387D01*
X54119658Y-35115387D01*
X55019658Y-36015387D01*
G37*
X55019658Y-36015387D02*
X54119658Y-36015387D01*
X54119658Y-35115387D01*
X55019658Y-36015387D01*
%TO.C,D22*%
X18119653Y-54049388D02*
X19019653Y-54949388D01*
X19019653Y-54949388D02*
X18119653Y-54949388D01*
X18119653Y-54949388D02*
X18119653Y-54049388D01*
G36*
X19019653Y-54949388D02*
G01*
X18119653Y-54949388D01*
X18119653Y-54049388D01*
X19019653Y-54949388D01*
G37*
X19019653Y-54949388D02*
X18119653Y-54949388D01*
X18119653Y-54049388D01*
X19019653Y-54949388D01*
%TO.C,D35*%
X72119655Y-23499387D02*
X73019655Y-24399387D01*
X73019655Y-24399387D02*
X72119655Y-24399387D01*
X72119655Y-24399387D02*
X72119655Y-23499387D01*
G36*
X73019655Y-24399387D02*
G01*
X72119655Y-24399387D01*
X72119655Y-23499387D01*
X73019655Y-24399387D01*
G37*
X73019655Y-24399387D02*
X72119655Y-24399387D01*
X72119655Y-23499387D01*
X73019655Y-24399387D01*
%TO.C,D25*%
X18119656Y-70999388D02*
X19019656Y-71899388D01*
X19019656Y-71899388D02*
X18119656Y-71899388D01*
X18119656Y-71899388D02*
X18119656Y-70999388D01*
G36*
X19019656Y-71899388D02*
G01*
X18119656Y-71899388D01*
X18119656Y-70999388D01*
X19019656Y-71899388D01*
G37*
X19019656Y-71899388D02*
X18119656Y-71899388D01*
X18119656Y-70999388D01*
X19019656Y-71899388D01*
%TO.C,D24*%
X90099655Y-42989388D02*
X90999655Y-43889388D01*
X90999655Y-43889388D02*
X90099655Y-43889388D01*
X90099655Y-43889388D02*
X90099655Y-42989388D01*
G36*
X90999655Y-43889388D02*
G01*
X90099655Y-43889388D01*
X90099655Y-42989388D01*
X90999655Y-43889388D01*
G37*
X90999655Y-43889388D02*
X90099655Y-43889388D01*
X90099655Y-42989388D01*
X90999655Y-43889388D01*
%TO.C,D30*%
X91618747Y-78751369D02*
X92255143Y-79853639D01*
X92255143Y-79853639D02*
X91385810Y-79620702D01*
X91385810Y-79620702D02*
X91618747Y-78751369D01*
G36*
X92255143Y-79853639D02*
G01*
X91385810Y-79620702D01*
X91618747Y-78751369D01*
X92255143Y-79853639D01*
G37*
X92255143Y-79853639D02*
X91385810Y-79620702D01*
X91618747Y-78751369D01*
X92255143Y-79853639D01*
%TO.C,D29*%
X72119656Y-57467389D02*
X73019656Y-58367389D01*
X73019656Y-58367389D02*
X72119656Y-58367389D01*
X72119656Y-58367389D02*
X72119656Y-57467389D01*
G36*
X73019656Y-58367389D02*
G01*
X72119656Y-58367389D01*
X72119656Y-57467389D01*
X73019656Y-58367389D01*
G37*
X73019656Y-58367389D02*
X72119656Y-58367389D01*
X72119656Y-57467389D01*
X73019656Y-58367389D01*
%TO.C,D33*%
X110740460Y-84928817D02*
X111175780Y-86124850D01*
X111175780Y-86124850D02*
X110360103Y-85744494D01*
X110360103Y-85744494D02*
X110740460Y-84928817D01*
G36*
X111175780Y-86124850D02*
G01*
X110360103Y-85744494D01*
X110740460Y-84928817D01*
X111175780Y-86124850D01*
G37*
X111175780Y-86124850D02*
X110360103Y-85744494D01*
X110740460Y-84928817D01*
X111175780Y-86124850D01*
%TO.C,D20*%
X54119655Y-17999388D02*
X55019655Y-18899388D01*
X55019655Y-18899388D02*
X54119655Y-18899388D01*
X54119655Y-18899388D02*
X54119655Y-17999388D01*
G36*
X55019655Y-18899388D02*
G01*
X54119655Y-18899388D01*
X54119655Y-17999388D01*
X55019655Y-18899388D01*
G37*
X55019655Y-18899388D02*
X54119655Y-18899388D01*
X54119655Y-17999388D01*
X55019655Y-18899388D01*
%TO.C,D27*%
X90099658Y-60007388D02*
X90999658Y-60907388D01*
X90999658Y-60907388D02*
X90099658Y-60907388D01*
X90099658Y-60907388D02*
X90099658Y-60007388D01*
G36*
X90999658Y-60907388D02*
G01*
X90099658Y-60907388D01*
X90099658Y-60007388D01*
X90999658Y-60907388D01*
G37*
X90999658Y-60907388D02*
X90099658Y-60907388D01*
X90099658Y-60007388D01*
X90999658Y-60907388D01*
%TD*%
D16*
%TO.C,U2*%
X118149655Y-57686138D03*
X115609655Y-57686138D03*
X113069655Y-57686138D03*
X110529655Y-57686138D03*
X107989655Y-57686138D03*
X120689655Y-29746138D03*
X120689655Y-32286138D03*
X120689655Y-34826138D03*
X120689655Y-37366138D03*
X120689655Y-39906138D03*
X120689655Y-42446138D03*
X120689655Y-44986138D03*
X120689655Y-47526138D03*
X120689655Y-50066138D03*
X120689655Y-52606138D03*
X120689655Y-55146138D03*
X120689655Y-57686138D03*
X105678255Y-57686138D03*
X105449655Y-55146138D03*
X105449655Y-52606138D03*
X105449655Y-50066138D03*
X105449655Y-47526138D03*
X105449655Y-44986138D03*
X105449655Y-42446138D03*
X105449655Y-39906138D03*
X105449655Y-37366138D03*
X105449655Y-34826138D03*
X105449655Y-32286138D03*
D17*
X105449655Y-29746138D03*
%TD*%
D18*
%TO.C,OL1*%
X116679657Y-62659388D03*
X114139657Y-62659388D03*
X111599657Y-62659388D03*
X109059657Y-62659388D03*
%TD*%
M02*
