%TF.GenerationSoftware,KiCad,Pcbnew,(6.0.0)*%
%TF.CreationDate,2022-05-06T00:59:20-07:00*%
%TF.ProjectId,half-swept,68616c66-2d73-4776-9570-742e6b696361,rev?*%
%TF.SameCoordinates,Original*%
%TF.FileFunction,Profile,NP*%
%FSLAX46Y46*%
G04 Gerber Fmt 4.6, Leading zero omitted, Abs format (unit mm)*
G04 Created by KiCad (PCBNEW (6.0.0)) date 2022-05-06 00:59:20*
%MOMM*%
%LPD*%
G01*
G04 APERTURE LIST*
%TA.AperFunction,Profile*%
%ADD10C,0.050000*%
%TD*%
%TA.AperFunction,Profile*%
%ADD11C,0.100000*%
%TD*%
G04 APERTURE END LIST*
D10*
X122369655Y-88579386D02*
X116669656Y-100779387D01*
X13929710Y-31976091D02*
X13969912Y-81244410D01*
X122481655Y-27383163D02*
G75*
G03*
X122119658Y-26579389I-1044780J12864D01*
G01*
X15356656Y-29962386D02*
G75*
G03*
X13929710Y-31976091I2445015J-3245011D01*
G01*
X122119658Y-26579388D02*
G75*
G03*
X69619659Y-12429387I-52476918J-90233343D01*
G01*
X115462832Y-101113593D02*
G75*
G03*
X16007656Y-83080508I-99965884J-268055213D01*
G01*
X13969908Y-81244410D02*
G75*
G03*
X16007656Y-83080508I1977998J146411D01*
G01*
X122481657Y-27383163D02*
X122481656Y-88079387D01*
X69619659Y-12429387D02*
G75*
G03*
X15356656Y-29962386I-1656760J-87608459D01*
G01*
X122369655Y-88579386D02*
G75*
G03*
X122481656Y-88079387I-1060057J499998D01*
G01*
X115462833Y-101113592D02*
G75*
G03*
X116669656Y-100779387I439901J757542D01*
G01*
D11*
%TO.C,D12*%
X96539594Y-80658252D02*
G75*
G03*
X96313608Y-80526991I-355400J-351710D01*
G01*
X94778844Y-80115752D02*
G75*
G03*
X94517505Y-80116435I-129408J-482973D01*
G01*
X94474291Y-77753597D02*
G75*
G03*
X94482624Y-77531302I-482953J129408D01*
G01*
X97862368Y-78436901D02*
G75*
G03*
X97351405Y-77628532I-379033J326089D01*
G01*
X97394618Y-79991368D02*
G75*
G03*
X97386285Y-80213664I482954J-129409D01*
G01*
X94006542Y-79308064D02*
G75*
G03*
X94110473Y-79111385I-379023J326085D01*
G01*
X95329315Y-77086714D02*
G75*
G03*
X94482624Y-77531302I-355395J-351702D01*
G01*
X95329316Y-77086713D02*
G75*
G03*
X95555301Y-77217974I355399J351709D01*
G01*
X94006541Y-79308064D02*
G75*
G03*
X94517504Y-80116433I379033J-326089D01*
G01*
X96539593Y-80658253D02*
G75*
G03*
X97386286Y-80213663I355396J351703D01*
G01*
X97862368Y-78436901D02*
G75*
G03*
X97758437Y-78633581I379014J-326081D01*
G01*
X97090066Y-77629214D02*
G75*
G03*
X97351405Y-77628532I129409J482964D01*
G01*
X97758437Y-78633582D02*
X97394619Y-79991368D01*
X96313608Y-80526991D02*
X94778844Y-80115752D01*
X95555301Y-77217976D02*
X97090066Y-77629215D01*
X94110473Y-79111384D02*
X94474291Y-77753597D01*
%TO.C,D16*%
X38570174Y-24919107D02*
G75*
G03*
X39272947Y-25567684I450515J-216877D01*
G01*
X39272947Y-22431088D02*
G75*
G03*
X39525205Y-22499387I252261J431710D01*
G01*
X41366369Y-25567686D02*
G75*
G03*
X41114110Y-25499387I-252261J-431710D01*
G01*
X42069143Y-23079667D02*
G75*
G03*
X41366369Y-22431089I-450516J216877D01*
G01*
X39272947Y-22431088D02*
G75*
G03*
X38570174Y-23079667I-252258J-431701D01*
G01*
X38619659Y-23296545D02*
G75*
G03*
X38570174Y-23079667I-499990J2D01*
G01*
X38570174Y-24919107D02*
G75*
G03*
X38619659Y-24702230I-450505J216876D01*
G01*
X42019657Y-24702229D02*
G75*
G03*
X42069142Y-24919107I499990J-2D01*
G01*
X41114111Y-22499388D02*
G75*
G03*
X41366369Y-22431089I-3J500009D01*
G01*
X41366369Y-25567686D02*
G75*
G03*
X42069142Y-24919106I252259J431700D01*
G01*
X42069142Y-23079667D02*
G75*
G03*
X42019657Y-23296544I450505J-216876D01*
G01*
X39525206Y-25499387D02*
G75*
G03*
X39272948Y-25567686I3J-500009D01*
G01*
X41114110Y-25499387D02*
X39525206Y-25499387D01*
X39525206Y-22499388D02*
X41114111Y-22499388D01*
X42019657Y-23296545D02*
X42019657Y-24702229D01*
X38619659Y-24702229D02*
X38619659Y-23296545D01*
%TO.C,D8*%
X56619655Y-50430545D02*
G75*
G03*
X56570170Y-50213667I-499990J2D01*
G01*
X59366365Y-52701686D02*
G75*
G03*
X59114106Y-52633387I-252261J-431710D01*
G01*
X60069138Y-50213667D02*
G75*
G03*
X60019653Y-50430544I450505J-216876D01*
G01*
X59114107Y-49633388D02*
G75*
G03*
X59366365Y-49565089I-3J500009D01*
G01*
X57272943Y-49565088D02*
G75*
G03*
X57525201Y-49633387I252261J431710D01*
G01*
X60019653Y-51836229D02*
G75*
G03*
X60069138Y-52053107I499990J-2D01*
G01*
X57272943Y-49565088D02*
G75*
G03*
X56570170Y-50213667I-252258J-431701D01*
G01*
X56570170Y-52053107D02*
G75*
G03*
X56619655Y-51836230I-450505J216876D01*
G01*
X56570170Y-52053107D02*
G75*
G03*
X57272943Y-52701684I450515J-216877D01*
G01*
X57525202Y-52633387D02*
G75*
G03*
X57272944Y-52701686I3J-500009D01*
G01*
X60069139Y-50213667D02*
G75*
G03*
X59366365Y-49565089I-450516J216877D01*
G01*
X59366365Y-52701686D02*
G75*
G03*
X60069138Y-52053106I252259J431700D01*
G01*
X59114106Y-52633387D02*
X57525202Y-52633387D01*
X57525202Y-49633388D02*
X59114107Y-49633388D01*
X60019653Y-50430545D02*
X60019653Y-51836229D01*
X56619655Y-51836229D02*
X56619655Y-50430545D01*
%TO.C,D2*%
X56619656Y-16296546D02*
G75*
G03*
X56570171Y-16079668I-499990J2D01*
G01*
X60019654Y-17702230D02*
G75*
G03*
X60069139Y-17919108I499990J-2D01*
G01*
X57525203Y-18499388D02*
G75*
G03*
X57272945Y-18567687I3J-500009D01*
G01*
X56570171Y-17919108D02*
G75*
G03*
X56619656Y-17702231I-450505J216876D01*
G01*
X60069139Y-16079668D02*
G75*
G03*
X60019654Y-16296545I450505J-216876D01*
G01*
X57272944Y-15431089D02*
G75*
G03*
X56570171Y-16079668I-252258J-431701D01*
G01*
X59114108Y-15499389D02*
G75*
G03*
X59366366Y-15431090I-3J500009D01*
G01*
X59366366Y-18567687D02*
G75*
G03*
X59114107Y-18499388I-252261J-431710D01*
G01*
X57272944Y-15431089D02*
G75*
G03*
X57525202Y-15499388I252261J431710D01*
G01*
X59366366Y-18567687D02*
G75*
G03*
X60069139Y-17919107I252259J431700D01*
G01*
X60069140Y-16079668D02*
G75*
G03*
X59366366Y-15431090I-450516J216877D01*
G01*
X56570171Y-17919108D02*
G75*
G03*
X57272944Y-18567685I450515J-216877D01*
G01*
X57525203Y-15499389D02*
X59114108Y-15499389D01*
X59114107Y-18499388D02*
X57525203Y-18499388D01*
X60019654Y-16296546D02*
X60019654Y-17702230D01*
X56619656Y-17702230D02*
X56619656Y-16296546D01*
%TO.C,D15*%
X116213259Y-87152947D02*
G75*
G03*
X116166451Y-87370419I453144J-211307D01*
G01*
X115255421Y-87661226D02*
G75*
G03*
X116166452Y-87370418I411069J284644D01*
G01*
X113725882Y-84442064D02*
G75*
G03*
X113772690Y-84224592I-453144J211307D01*
G01*
X116943832Y-85703321D02*
G75*
G03*
X116581004Y-84818504I-316649J386954D01*
G01*
X116323517Y-84773795D02*
G75*
G03*
X116581004Y-84818504I211308J453155D01*
G01*
X114683721Y-83933784D02*
G75*
G03*
X114883479Y-84102293I411074J284651D01*
G01*
X115255421Y-87661226D02*
G75*
G03*
X115055661Y-87492717I-411079J-284658D01*
G01*
X116943832Y-85703320D02*
G75*
G03*
X116807327Y-85878964I316633J-386942D01*
G01*
X114683720Y-83933785D02*
G75*
G03*
X113772690Y-84224592I-411068J-284645D01*
G01*
X112995309Y-85891691D02*
G75*
G03*
X113358137Y-86776506I316649J-386953D01*
G01*
X112995309Y-85891691D02*
G75*
G03*
X113131814Y-85716047I-316640J386948D01*
G01*
X113615625Y-86821217D02*
G75*
G03*
X113358138Y-86776508I-211308J-453155D01*
G01*
X113131815Y-85716046D02*
X113725882Y-84442064D01*
X115055661Y-87492717D02*
X113615625Y-86821217D01*
X116807327Y-85878965D02*
X116213259Y-87152947D01*
X114883480Y-84102295D02*
X116323517Y-84773795D01*
%TO.C,D11*%
X75272945Y-54899090D02*
G75*
G03*
X75525203Y-54967389I252261J431710D01*
G01*
X78069141Y-55547669D02*
G75*
G03*
X77366367Y-54899091I-450516J216877D01*
G01*
X75272945Y-54899090D02*
G75*
G03*
X74570172Y-55547669I-252258J-431701D01*
G01*
X77114109Y-54967390D02*
G75*
G03*
X77366367Y-54899091I-3J500009D01*
G01*
X74570172Y-57387109D02*
G75*
G03*
X75272945Y-58035686I450515J-216877D01*
G01*
X74570172Y-57387109D02*
G75*
G03*
X74619657Y-57170232I-450505J216876D01*
G01*
X77366367Y-58035688D02*
G75*
G03*
X78069140Y-57387108I252259J431700D01*
G01*
X78069140Y-55547669D02*
G75*
G03*
X78019655Y-55764546I450505J-216876D01*
G01*
X78019655Y-57170231D02*
G75*
G03*
X78069140Y-57387109I499990J-2D01*
G01*
X77366367Y-58035688D02*
G75*
G03*
X77114108Y-57967389I-252261J-431710D01*
G01*
X74619657Y-55764547D02*
G75*
G03*
X74570172Y-55547669I-499990J2D01*
G01*
X75525204Y-57967389D02*
G75*
G03*
X75272946Y-58035688I3J-500009D01*
G01*
X77114108Y-57967389D02*
X75525204Y-57967389D01*
X78019655Y-55764547D02*
X78019655Y-57170231D01*
X75525204Y-54967390D02*
X77114109Y-54967390D01*
X74619657Y-57170231D02*
X74619657Y-55764547D01*
%TO.C,D14*%
X78019657Y-40152232D02*
G75*
G03*
X78069142Y-40369110I499990J-2D01*
G01*
X78069143Y-38529670D02*
G75*
G03*
X77366369Y-37881092I-450516J216877D01*
G01*
X78069142Y-38529670D02*
G75*
G03*
X78019657Y-38746547I450505J-216876D01*
G01*
X75525206Y-40949390D02*
G75*
G03*
X75272948Y-41017689I3J-500009D01*
G01*
X75272947Y-37881091D02*
G75*
G03*
X74570174Y-38529670I-252258J-431701D01*
G01*
X77366369Y-41017689D02*
G75*
G03*
X77114110Y-40949390I-252261J-431710D01*
G01*
X77366369Y-41017689D02*
G75*
G03*
X78069142Y-40369109I252259J431700D01*
G01*
X74619659Y-38746548D02*
G75*
G03*
X74570174Y-38529670I-499990J2D01*
G01*
X75272947Y-37881091D02*
G75*
G03*
X75525205Y-37949390I252261J431710D01*
G01*
X74570174Y-40369110D02*
G75*
G03*
X75272947Y-41017687I450515J-216877D01*
G01*
X74570174Y-40369110D02*
G75*
G03*
X74619659Y-40152233I-450505J216876D01*
G01*
X77114111Y-37949391D02*
G75*
G03*
X77366369Y-37881092I-3J500009D01*
G01*
X75525206Y-37949391D02*
X77114111Y-37949391D01*
X78019657Y-38746548D02*
X78019657Y-40152232D01*
X74619659Y-40152232D02*
X74619659Y-38746548D01*
X77114110Y-40949390D02*
X75525206Y-40949390D01*
%TO.C,D10*%
X42069140Y-57071666D02*
G75*
G03*
X41366366Y-56423088I-450516J216877D01*
G01*
X38619656Y-57288544D02*
G75*
G03*
X38570171Y-57071666I-499990J2D01*
G01*
X39272944Y-56423087D02*
G75*
G03*
X39525202Y-56491386I252261J431710D01*
G01*
X38570171Y-58911106D02*
G75*
G03*
X38619656Y-58694229I-450505J216876D01*
G01*
X39272944Y-56423087D02*
G75*
G03*
X38570171Y-57071666I-252258J-431701D01*
G01*
X42019654Y-58694228D02*
G75*
G03*
X42069139Y-58911106I499990J-2D01*
G01*
X38570171Y-58911106D02*
G75*
G03*
X39272944Y-59559683I450515J-216877D01*
G01*
X39525203Y-59491386D02*
G75*
G03*
X39272945Y-59559685I3J-500009D01*
G01*
X41114108Y-56491387D02*
G75*
G03*
X41366366Y-56423088I-3J500009D01*
G01*
X41366366Y-59559685D02*
G75*
G03*
X41114107Y-59491386I-252261J-431710D01*
G01*
X41366366Y-59559685D02*
G75*
G03*
X42069139Y-58911105I252259J431700D01*
G01*
X42069139Y-57071666D02*
G75*
G03*
X42019654Y-57288543I450505J-216876D01*
G01*
X42019654Y-57288544D02*
X42019654Y-58694228D01*
X38619656Y-58694228D02*
X38619656Y-57288544D01*
X41114107Y-59491386D02*
X39525203Y-59491386D01*
X39525203Y-56491387D02*
X41114108Y-56491387D01*
%TO.C,D1*%
X20570171Y-36919108D02*
G75*
G03*
X20619656Y-36702231I-450505J216876D01*
G01*
X20619656Y-35296546D02*
G75*
G03*
X20570171Y-35079668I-499990J2D01*
G01*
X21272944Y-34431089D02*
G75*
G03*
X21525202Y-34499388I252261J431710D01*
G01*
X24069139Y-35079668D02*
G75*
G03*
X24019654Y-35296545I450505J-216876D01*
G01*
X23366366Y-37567687D02*
G75*
G03*
X24069139Y-36919107I252259J431700D01*
G01*
X20570171Y-36919108D02*
G75*
G03*
X21272944Y-37567685I450515J-216877D01*
G01*
X24069140Y-35079668D02*
G75*
G03*
X23366366Y-34431090I-450516J216877D01*
G01*
X24019654Y-36702230D02*
G75*
G03*
X24069139Y-36919108I499990J-2D01*
G01*
X23366366Y-37567687D02*
G75*
G03*
X23114107Y-37499388I-252261J-431710D01*
G01*
X21525203Y-37499388D02*
G75*
G03*
X21272945Y-37567687I3J-500009D01*
G01*
X23114108Y-34499389D02*
G75*
G03*
X23366366Y-34431090I-3J500009D01*
G01*
X21272944Y-34431089D02*
G75*
G03*
X20570171Y-35079668I-252258J-431701D01*
G01*
X21525203Y-34499389D02*
X23114108Y-34499389D01*
X23114107Y-37499388D02*
X21525203Y-37499388D01*
X24019654Y-35296546D02*
X24019654Y-36702230D01*
X20619656Y-36702230D02*
X20619656Y-35296546D01*
%TO.C,D9*%
X95346369Y-60575687D02*
G75*
G03*
X96049142Y-59927107I252259J431700D01*
G01*
X96049142Y-58087668D02*
G75*
G03*
X95999657Y-58304545I450505J-216876D01*
G01*
X92599659Y-58304546D02*
G75*
G03*
X92550174Y-58087668I-499990J2D01*
G01*
X93252947Y-57439089D02*
G75*
G03*
X93505205Y-57507388I252261J431710D01*
G01*
X95094111Y-57507389D02*
G75*
G03*
X95346369Y-57439090I-3J500009D01*
G01*
X93505206Y-60507388D02*
G75*
G03*
X93252948Y-60575687I3J-500009D01*
G01*
X92550174Y-59927108D02*
G75*
G03*
X93252947Y-60575685I450515J-216877D01*
G01*
X96049143Y-58087668D02*
G75*
G03*
X95346369Y-57439090I-450516J216877D01*
G01*
X95346369Y-60575687D02*
G75*
G03*
X95094110Y-60507388I-252261J-431710D01*
G01*
X92550174Y-59927108D02*
G75*
G03*
X92599659Y-59710231I-450505J216876D01*
G01*
X95999657Y-59710230D02*
G75*
G03*
X96049142Y-59927108I499990J-2D01*
G01*
X93252947Y-57439089D02*
G75*
G03*
X92550174Y-58087668I-252258J-431701D01*
G01*
X95999657Y-58304546D02*
X95999657Y-59710230D01*
X95094110Y-60507388D02*
X93505206Y-60507388D01*
X92599659Y-59710230D02*
X92599659Y-58304546D01*
X93505206Y-57507389D02*
X95094111Y-57507389D01*
%TO.C,D17*%
X74570171Y-23419107D02*
G75*
G03*
X74619656Y-23202230I-450505J216876D01*
G01*
X78069140Y-21579667D02*
G75*
G03*
X77366366Y-20931089I-450516J216877D01*
G01*
X77114108Y-20999388D02*
G75*
G03*
X77366366Y-20931089I-3J500009D01*
G01*
X78019654Y-23202229D02*
G75*
G03*
X78069139Y-23419107I499990J-2D01*
G01*
X75525203Y-23999387D02*
G75*
G03*
X75272945Y-24067686I3J-500009D01*
G01*
X77366366Y-24067686D02*
G75*
G03*
X77114107Y-23999387I-252261J-431710D01*
G01*
X77366366Y-24067686D02*
G75*
G03*
X78069139Y-23419106I252259J431700D01*
G01*
X78069139Y-21579667D02*
G75*
G03*
X78019654Y-21796544I450505J-216876D01*
G01*
X74570171Y-23419107D02*
G75*
G03*
X75272944Y-24067684I450515J-216877D01*
G01*
X75272944Y-20931088D02*
G75*
G03*
X75525202Y-20999387I252261J431710D01*
G01*
X74619656Y-21796545D02*
G75*
G03*
X74570171Y-21579667I-499990J2D01*
G01*
X75272944Y-20931088D02*
G75*
G03*
X74570171Y-21579667I-252258J-431701D01*
G01*
X75525203Y-20999388D02*
X77114108Y-20999388D01*
X77114107Y-23999387D02*
X75525203Y-23999387D01*
X78019654Y-21796545D02*
X78019654Y-23202229D01*
X74619656Y-23202229D02*
X74619656Y-21796545D01*
%TO.C,D4*%
X24019652Y-53752230D02*
G75*
G03*
X24069137Y-53969108I499990J-2D01*
G01*
X20570169Y-53969108D02*
G75*
G03*
X20619654Y-53752231I-450505J216876D01*
G01*
X20619654Y-52346546D02*
G75*
G03*
X20570169Y-52129668I-499990J2D01*
G01*
X23114106Y-51549389D02*
G75*
G03*
X23366364Y-51481090I-3J500009D01*
G01*
X20570169Y-53969108D02*
G75*
G03*
X21272942Y-54617685I450515J-216877D01*
G01*
X21525201Y-54549388D02*
G75*
G03*
X21272943Y-54617687I3J-500009D01*
G01*
X24069138Y-52129668D02*
G75*
G03*
X23366364Y-51481090I-450516J216877D01*
G01*
X21272942Y-51481089D02*
G75*
G03*
X20570169Y-52129668I-252258J-431701D01*
G01*
X24069137Y-52129668D02*
G75*
G03*
X24019652Y-52346545I450505J-216876D01*
G01*
X23366364Y-54617687D02*
G75*
G03*
X24069137Y-53969107I252259J431700D01*
G01*
X21272942Y-51481089D02*
G75*
G03*
X21525200Y-51549388I252261J431710D01*
G01*
X23366364Y-54617687D02*
G75*
G03*
X23114105Y-54549388I-252261J-431710D01*
G01*
X24019652Y-52346546D02*
X24019652Y-53752230D01*
X21525201Y-51549389D02*
X23114106Y-51549389D01*
X23114105Y-54549388D02*
X21525201Y-54549388D01*
X20619654Y-53752230D02*
X20619654Y-52346546D01*
%TO.C,D3*%
X93525203Y-26499388D02*
G75*
G03*
X93272945Y-26567687I3J-500009D01*
G01*
X92570171Y-25919108D02*
G75*
G03*
X92619656Y-25702231I-450505J216876D01*
G01*
X96069139Y-24079668D02*
G75*
G03*
X96019654Y-24296545I450505J-216876D01*
G01*
X95366366Y-26567687D02*
G75*
G03*
X96069139Y-25919107I252259J431700D01*
G01*
X96069140Y-24079668D02*
G75*
G03*
X95366366Y-23431090I-450516J216877D01*
G01*
X93272944Y-23431089D02*
G75*
G03*
X92570171Y-24079668I-252258J-431701D01*
G01*
X96019654Y-25702230D02*
G75*
G03*
X96069139Y-25919108I499990J-2D01*
G01*
X95114108Y-23499389D02*
G75*
G03*
X95366366Y-23431090I-3J500009D01*
G01*
X95366366Y-26567687D02*
G75*
G03*
X95114107Y-26499388I-252261J-431710D01*
G01*
X93272944Y-23431089D02*
G75*
G03*
X93525202Y-23499388I252261J431710D01*
G01*
X92570171Y-25919108D02*
G75*
G03*
X93272944Y-26567685I450515J-216877D01*
G01*
X92619656Y-24296546D02*
G75*
G03*
X92570171Y-24079668I-499990J2D01*
G01*
X92619656Y-25702230D02*
X92619656Y-24296546D01*
X95114107Y-26499388D02*
X93525203Y-26499388D01*
X96019654Y-24296546D02*
X96019654Y-25702230D01*
X93525203Y-23499389D02*
X95114108Y-23499389D01*
%TO.C,D7*%
X23114109Y-68499389D02*
G75*
G03*
X23366367Y-68431090I-3J500009D01*
G01*
X24019655Y-70702230D02*
G75*
G03*
X24069140Y-70919108I499990J-2D01*
G01*
X23366367Y-71567687D02*
G75*
G03*
X23114108Y-71499388I-252261J-431710D01*
G01*
X20570172Y-70919108D02*
G75*
G03*
X20619657Y-70702231I-450505J216876D01*
G01*
X24069141Y-69079668D02*
G75*
G03*
X23366367Y-68431090I-450516J216877D01*
G01*
X21272945Y-68431089D02*
G75*
G03*
X20570172Y-69079668I-252258J-431701D01*
G01*
X21272945Y-68431089D02*
G75*
G03*
X21525203Y-68499388I252261J431710D01*
G01*
X20570172Y-70919108D02*
G75*
G03*
X21272945Y-71567685I450515J-216877D01*
G01*
X24069140Y-69079668D02*
G75*
G03*
X24019655Y-69296545I450505J-216876D01*
G01*
X20619657Y-69296546D02*
G75*
G03*
X20570172Y-69079668I-499990J2D01*
G01*
X21525204Y-71499388D02*
G75*
G03*
X21272946Y-71567687I3J-500009D01*
G01*
X23366367Y-71567687D02*
G75*
G03*
X24069140Y-70919107I252259J431700D01*
G01*
X20619657Y-70702230D02*
X20619657Y-69296546D01*
X23114108Y-71499388D02*
X21525204Y-71499388D01*
X24019655Y-69296546D02*
X24019655Y-70702230D01*
X21525204Y-68499389D02*
X23114109Y-68499389D01*
%TO.C,D5*%
X57272947Y-32547088D02*
G75*
G03*
X56570174Y-33195667I-252258J-431701D01*
G01*
X60069143Y-33195667D02*
G75*
G03*
X59366369Y-32547089I-450516J216877D01*
G01*
X56570174Y-35035107D02*
G75*
G03*
X57272947Y-35683684I450515J-216877D01*
G01*
X60019657Y-34818229D02*
G75*
G03*
X60069142Y-35035107I499990J-2D01*
G01*
X60069142Y-33195667D02*
G75*
G03*
X60019657Y-33412544I450505J-216876D01*
G01*
X59366369Y-35683686D02*
G75*
G03*
X59114110Y-35615387I-252261J-431710D01*
G01*
X57525206Y-35615387D02*
G75*
G03*
X57272948Y-35683686I3J-500009D01*
G01*
X56570174Y-35035107D02*
G75*
G03*
X56619659Y-34818230I-450505J216876D01*
G01*
X59366369Y-35683686D02*
G75*
G03*
X60069142Y-35035106I252259J431700D01*
G01*
X57272947Y-32547088D02*
G75*
G03*
X57525205Y-32615387I252261J431710D01*
G01*
X59114111Y-32615388D02*
G75*
G03*
X59366369Y-32547089I-3J500009D01*
G01*
X56619659Y-33412545D02*
G75*
G03*
X56570174Y-33195667I-499990J2D01*
G01*
X57525206Y-32615388D02*
X59114111Y-32615388D01*
X59114110Y-35615387D02*
X57525206Y-35615387D01*
X60019657Y-33412545D02*
X60019657Y-34818229D01*
X56619659Y-34818229D02*
X56619659Y-33412545D01*
%TO.C,D6*%
X95346366Y-43557687D02*
G75*
G03*
X96049139Y-42909107I252259J431700D01*
G01*
X93252944Y-40421089D02*
G75*
G03*
X92550171Y-41069668I-252258J-431701D01*
G01*
X95094108Y-40489389D02*
G75*
G03*
X95346366Y-40421090I-3J500009D01*
G01*
X92550171Y-42909108D02*
G75*
G03*
X92599656Y-42692231I-450505J216876D01*
G01*
X93252944Y-40421089D02*
G75*
G03*
X93505202Y-40489388I252261J431710D01*
G01*
X92599656Y-41286546D02*
G75*
G03*
X92550171Y-41069668I-499990J2D01*
G01*
X95999654Y-42692230D02*
G75*
G03*
X96049139Y-42909108I499990J-2D01*
G01*
X96049140Y-41069668D02*
G75*
G03*
X95346366Y-40421090I-450516J216877D01*
G01*
X93505203Y-43489388D02*
G75*
G03*
X93252945Y-43557687I3J-500009D01*
G01*
X96049139Y-41069668D02*
G75*
G03*
X95999654Y-41286545I450505J-216876D01*
G01*
X92550171Y-42909108D02*
G75*
G03*
X93252944Y-43557685I450515J-216877D01*
G01*
X95346366Y-43557687D02*
G75*
G03*
X95094107Y-43489388I-252261J-431710D01*
G01*
X93505203Y-40489389D02*
X95094108Y-40489389D01*
X92599656Y-42692230D02*
X92599656Y-41286546D01*
X95094107Y-43489388D02*
X93505203Y-43489388D01*
X95999654Y-41286546D02*
X95999654Y-42692230D01*
%TO.C,D13*%
X39525204Y-42473388D02*
G75*
G03*
X39272946Y-42541687I3J-500009D01*
G01*
X38619657Y-40270546D02*
G75*
G03*
X38570172Y-40053668I-499990J2D01*
G01*
X42069140Y-40053668D02*
G75*
G03*
X42019655Y-40270545I450505J-216876D01*
G01*
X39272945Y-39405089D02*
G75*
G03*
X39525203Y-39473388I252261J431710D01*
G01*
X38570172Y-41893108D02*
G75*
G03*
X39272945Y-42541685I450515J-216877D01*
G01*
X41366367Y-42541687D02*
G75*
G03*
X41114108Y-42473388I-252261J-431710D01*
G01*
X42019655Y-41676230D02*
G75*
G03*
X42069140Y-41893108I499990J-2D01*
G01*
X39272945Y-39405089D02*
G75*
G03*
X38570172Y-40053668I-252258J-431701D01*
G01*
X38570172Y-41893108D02*
G75*
G03*
X38619657Y-41676231I-450505J216876D01*
G01*
X41114109Y-39473389D02*
G75*
G03*
X41366367Y-39405090I-3J500009D01*
G01*
X41366367Y-42541687D02*
G75*
G03*
X42069140Y-41893107I252259J431700D01*
G01*
X42069141Y-40053668D02*
G75*
G03*
X41366367Y-39405090I-450516J216877D01*
G01*
X39525204Y-39473389D02*
X41114109Y-39473389D01*
X38619657Y-41676230D02*
X38619657Y-40270546D01*
X41114108Y-42473388D02*
X39525204Y-42473388D01*
X42019655Y-40270546D02*
X42019655Y-41676230D01*
%TO.C,D34*%
X39525206Y-25499387D02*
G75*
G03*
X39272947Y-25567686I-6J-499982D01*
G01*
X38570174Y-24919106D02*
G75*
G03*
X39272947Y-25567686I450515J-216879D01*
G01*
X41366369Y-25567684D02*
G75*
G03*
X42069142Y-24919107I252258J431700D01*
G01*
X41366368Y-25567686D02*
G75*
G03*
X41114110Y-25499387I-252261J-431710D01*
G01*
X38619659Y-23296544D02*
G75*
G03*
X38570174Y-23079667I-499990J1D01*
G01*
X39272947Y-22431089D02*
G75*
G03*
X39525205Y-22499388I252261J431710D01*
G01*
X39272947Y-22431090D02*
G75*
G03*
X38570174Y-23079667I-252258J-431700D01*
G01*
X38570174Y-24919107D02*
G75*
G03*
X38619659Y-24702229I-450505J216876D01*
G01*
X42069142Y-23079667D02*
G75*
G03*
X41366369Y-22431088I-450515J216878D01*
G01*
X41114111Y-22499387D02*
G75*
G03*
X41366369Y-22431088I5J499982D01*
G01*
X42019657Y-24702230D02*
G75*
G03*
X42069142Y-24919107I499990J-1D01*
G01*
X42069142Y-23079667D02*
G75*
G03*
X42019657Y-23296545I450505J-216876D01*
G01*
X42019657Y-24702229D02*
X42019657Y-23296545D01*
X38619659Y-23296545D02*
X38619659Y-24702229D01*
X41114110Y-22499388D02*
X39525205Y-22499388D01*
X39525206Y-25499387D02*
X41114110Y-25499387D01*
%TO.C,D26*%
X60019653Y-51836230D02*
G75*
G03*
X60069138Y-52053107I499990J-1D01*
G01*
X57525202Y-52633387D02*
G75*
G03*
X57272943Y-52701686I-6J-499982D01*
G01*
X59114107Y-49633387D02*
G75*
G03*
X59366365Y-49565088I5J499982D01*
G01*
X56619655Y-50430544D02*
G75*
G03*
X56570170Y-50213667I-499990J1D01*
G01*
X59366364Y-52701686D02*
G75*
G03*
X59114106Y-52633387I-252261J-431710D01*
G01*
X57272943Y-49565090D02*
G75*
G03*
X56570170Y-50213667I-252258J-431700D01*
G01*
X60069138Y-50213667D02*
G75*
G03*
X60019653Y-50430545I450505J-216876D01*
G01*
X56570170Y-52053106D02*
G75*
G03*
X57272943Y-52701686I450515J-216879D01*
G01*
X57272943Y-49565089D02*
G75*
G03*
X57525201Y-49633388I252261J431710D01*
G01*
X56570170Y-52053107D02*
G75*
G03*
X56619655Y-51836229I-450505J216876D01*
G01*
X60069138Y-50213667D02*
G75*
G03*
X59366365Y-49565088I-450515J216878D01*
G01*
X59366365Y-52701684D02*
G75*
G03*
X60069138Y-52053107I252258J431700D01*
G01*
X59114106Y-49633388D02*
X57525201Y-49633388D01*
X57525202Y-52633387D02*
X59114106Y-52633387D01*
X56619655Y-50430545D02*
X56619655Y-51836229D01*
X60019653Y-51836229D02*
X60019653Y-50430545D01*
%TO.C,D31*%
X41366366Y-42541687D02*
G75*
G03*
X41114108Y-42473388I-252261J-431710D01*
G01*
X42069140Y-40053668D02*
G75*
G03*
X41366367Y-39405089I-450515J216878D01*
G01*
X38570172Y-41893108D02*
G75*
G03*
X38619657Y-41676230I-450505J216876D01*
G01*
X42019655Y-41676231D02*
G75*
G03*
X42069140Y-41893108I499990J-1D01*
G01*
X38619657Y-40270545D02*
G75*
G03*
X38570172Y-40053668I-499990J1D01*
G01*
X39272945Y-39405090D02*
G75*
G03*
X39525203Y-39473389I252261J431710D01*
G01*
X41366367Y-42541685D02*
G75*
G03*
X42069140Y-41893108I252258J431700D01*
G01*
X39272945Y-39405091D02*
G75*
G03*
X38570172Y-40053668I-252258J-431700D01*
G01*
X39525204Y-42473388D02*
G75*
G03*
X39272945Y-42541687I-6J-499982D01*
G01*
X38570172Y-41893107D02*
G75*
G03*
X39272945Y-42541687I450515J-216879D01*
G01*
X41114109Y-39473388D02*
G75*
G03*
X41366367Y-39405089I5J499982D01*
G01*
X42069140Y-40053668D02*
G75*
G03*
X42019655Y-40270546I450505J-216876D01*
G01*
X41114108Y-39473389D02*
X39525203Y-39473389D01*
X39525204Y-42473388D02*
X41114108Y-42473388D01*
X42019655Y-41676230D02*
X42019655Y-40270546D01*
X38619657Y-40270546D02*
X38619657Y-41676230D01*
%TO.C,D28*%
X39272944Y-56423088D02*
G75*
G03*
X39525202Y-56491387I252261J431710D01*
G01*
X38619656Y-57288543D02*
G75*
G03*
X38570171Y-57071666I-499990J1D01*
G01*
X38570171Y-58911106D02*
G75*
G03*
X38619656Y-58694228I-450505J216876D01*
G01*
X39525203Y-59491386D02*
G75*
G03*
X39272944Y-59559685I-6J-499982D01*
G01*
X42069139Y-57071666D02*
G75*
G03*
X42019654Y-57288544I450505J-216876D01*
G01*
X42019654Y-58694229D02*
G75*
G03*
X42069139Y-58911106I499990J-1D01*
G01*
X39272944Y-56423089D02*
G75*
G03*
X38570171Y-57071666I-252258J-431700D01*
G01*
X41366366Y-59559683D02*
G75*
G03*
X42069139Y-58911106I252258J431700D01*
G01*
X41114108Y-56491386D02*
G75*
G03*
X41366366Y-56423087I5J499982D01*
G01*
X38570171Y-58911105D02*
G75*
G03*
X39272944Y-59559685I450515J-216879D01*
G01*
X41366365Y-59559685D02*
G75*
G03*
X41114107Y-59491386I-252261J-431710D01*
G01*
X42069139Y-57071666D02*
G75*
G03*
X41366366Y-56423087I-450515J216878D01*
G01*
X38619656Y-57288544D02*
X38619656Y-58694228D01*
X39525203Y-59491386D02*
X41114107Y-59491386D01*
X41114107Y-56491387D02*
X39525202Y-56491387D01*
X42019654Y-58694228D02*
X42019654Y-57288544D01*
%TO.C,D32*%
X75272947Y-37881093D02*
G75*
G03*
X74570174Y-38529670I-252258J-431700D01*
G01*
X78069142Y-38529670D02*
G75*
G03*
X78019657Y-38746548I450505J-216876D01*
G01*
X77366368Y-41017689D02*
G75*
G03*
X77114110Y-40949390I-252261J-431710D01*
G01*
X75272947Y-37881092D02*
G75*
G03*
X75525205Y-37949391I252261J431710D01*
G01*
X74619659Y-38746547D02*
G75*
G03*
X74570174Y-38529670I-499990J1D01*
G01*
X74570174Y-40369109D02*
G75*
G03*
X75272947Y-41017689I450515J-216879D01*
G01*
X77366369Y-41017687D02*
G75*
G03*
X78069142Y-40369110I252258J431700D01*
G01*
X77114111Y-37949390D02*
G75*
G03*
X77366369Y-37881091I5J499982D01*
G01*
X78069142Y-38529670D02*
G75*
G03*
X77366369Y-37881091I-450515J216878D01*
G01*
X75525206Y-40949390D02*
G75*
G03*
X75272947Y-41017689I-6J-499982D01*
G01*
X78019657Y-40152233D02*
G75*
G03*
X78069142Y-40369110I499990J-1D01*
G01*
X74570174Y-40369110D02*
G75*
G03*
X74619659Y-40152232I-450505J216876D01*
G01*
X77114110Y-37949391D02*
X75525205Y-37949391D01*
X74619659Y-38746548D02*
X74619659Y-40152232D01*
X78019657Y-40152232D02*
X78019657Y-38746548D01*
X75525206Y-40949390D02*
X77114110Y-40949390D01*
%TO.C,D21*%
X95366365Y-26567687D02*
G75*
G03*
X95114107Y-26499388I-252261J-431710D01*
G01*
X93272944Y-23431091D02*
G75*
G03*
X92570171Y-24079668I-252258J-431700D01*
G01*
X95366366Y-26567685D02*
G75*
G03*
X96069139Y-25919108I252258J431700D01*
G01*
X93525203Y-26499388D02*
G75*
G03*
X93272944Y-26567687I-6J-499982D01*
G01*
X92570171Y-25919108D02*
G75*
G03*
X92619656Y-25702230I-450505J216876D01*
G01*
X92619656Y-24296545D02*
G75*
G03*
X92570171Y-24079668I-499990J1D01*
G01*
X96069139Y-24079668D02*
G75*
G03*
X95366366Y-23431089I-450515J216878D01*
G01*
X95114108Y-23499388D02*
G75*
G03*
X95366366Y-23431089I5J499982D01*
G01*
X96069139Y-24079668D02*
G75*
G03*
X96019654Y-24296546I450505J-216876D01*
G01*
X93272944Y-23431090D02*
G75*
G03*
X93525202Y-23499389I252261J431710D01*
G01*
X96019654Y-25702231D02*
G75*
G03*
X96069139Y-25919108I499990J-1D01*
G01*
X92570171Y-25919107D02*
G75*
G03*
X93272944Y-26567687I450515J-216879D01*
G01*
X95114107Y-23499389D02*
X93525202Y-23499389D01*
X93525203Y-26499388D02*
X95114107Y-26499388D01*
X92619656Y-24296546D02*
X92619656Y-25702230D01*
X96019654Y-25702230D02*
X96019654Y-24296546D01*
%TO.C,D19*%
X21525203Y-37499388D02*
G75*
G03*
X21272944Y-37567687I-6J-499982D01*
G01*
X23366365Y-37567687D02*
G75*
G03*
X23114107Y-37499388I-252261J-431710D01*
G01*
X24069139Y-35079668D02*
G75*
G03*
X23366366Y-34431089I-450515J216878D01*
G01*
X20570171Y-36919107D02*
G75*
G03*
X21272944Y-37567687I450515J-216879D01*
G01*
X20619656Y-35296545D02*
G75*
G03*
X20570171Y-35079668I-499990J1D01*
G01*
X21272944Y-34431091D02*
G75*
G03*
X20570171Y-35079668I-252258J-431700D01*
G01*
X20570171Y-36919108D02*
G75*
G03*
X20619656Y-36702230I-450505J216876D01*
G01*
X23114108Y-34499388D02*
G75*
G03*
X23366366Y-34431089I5J499982D01*
G01*
X21272944Y-34431090D02*
G75*
G03*
X21525202Y-34499389I252261J431710D01*
G01*
X24019654Y-36702231D02*
G75*
G03*
X24069139Y-36919108I499990J-1D01*
G01*
X24069139Y-35079668D02*
G75*
G03*
X24019654Y-35296546I450505J-216876D01*
G01*
X23366366Y-37567685D02*
G75*
G03*
X24069139Y-36919108I252258J431700D01*
G01*
X23114107Y-34499389D02*
X21525202Y-34499389D01*
X24019654Y-36702230D02*
X24019654Y-35296546D01*
X20619656Y-35296546D02*
X20619656Y-36702230D01*
X21525203Y-37499388D02*
X23114107Y-37499388D01*
%TO.C,D23*%
X56570174Y-35035107D02*
G75*
G03*
X56619659Y-34818229I-450505J216876D01*
G01*
X57525206Y-35615387D02*
G75*
G03*
X57272947Y-35683686I-6J-499982D01*
G01*
X56570174Y-35035106D02*
G75*
G03*
X57272947Y-35683686I450515J-216879D01*
G01*
X57272947Y-32547089D02*
G75*
G03*
X57525205Y-32615388I252261J431710D01*
G01*
X56619659Y-33412544D02*
G75*
G03*
X56570174Y-33195667I-499990J1D01*
G01*
X57272947Y-32547090D02*
G75*
G03*
X56570174Y-33195667I-252258J-431700D01*
G01*
X60069142Y-33195667D02*
G75*
G03*
X59366369Y-32547088I-450515J216878D01*
G01*
X59366368Y-35683686D02*
G75*
G03*
X59114110Y-35615387I-252261J-431710D01*
G01*
X59114111Y-32615387D02*
G75*
G03*
X59366369Y-32547088I5J499982D01*
G01*
X60019657Y-34818230D02*
G75*
G03*
X60069142Y-35035107I499990J-1D01*
G01*
X59366369Y-35683684D02*
G75*
G03*
X60069142Y-35035107I252258J431700D01*
G01*
X60069142Y-33195667D02*
G75*
G03*
X60019657Y-33412545I450505J-216876D01*
G01*
X60019657Y-34818229D02*
X60019657Y-33412545D01*
X59114110Y-32615388D02*
X57525205Y-32615388D01*
X56619659Y-33412545D02*
X56619659Y-34818229D01*
X57525206Y-35615387D02*
X59114110Y-35615387D01*
%TO.C,D22*%
X20619654Y-52346545D02*
G75*
G03*
X20570169Y-52129668I-499990J1D01*
G01*
X24019652Y-53752231D02*
G75*
G03*
X24069137Y-53969108I499990J-1D01*
G01*
X21272942Y-51481090D02*
G75*
G03*
X21525200Y-51549389I252261J431710D01*
G01*
X24069137Y-52129668D02*
G75*
G03*
X24019652Y-52346546I450505J-216876D01*
G01*
X24069137Y-52129668D02*
G75*
G03*
X23366364Y-51481089I-450515J216878D01*
G01*
X21272942Y-51481091D02*
G75*
G03*
X20570169Y-52129668I-252258J-431700D01*
G01*
X20570169Y-53969107D02*
G75*
G03*
X21272942Y-54617687I450515J-216879D01*
G01*
X20570169Y-53969108D02*
G75*
G03*
X20619654Y-53752230I-450505J216876D01*
G01*
X23366364Y-54617685D02*
G75*
G03*
X24069137Y-53969108I252258J431700D01*
G01*
X21525201Y-54549388D02*
G75*
G03*
X21272942Y-54617687I-6J-499982D01*
G01*
X23366363Y-54617687D02*
G75*
G03*
X23114105Y-54549388I-252261J-431710D01*
G01*
X23114106Y-51549388D02*
G75*
G03*
X23366364Y-51481089I5J499982D01*
G01*
X23114105Y-51549389D02*
X21525200Y-51549389D01*
X21525201Y-54549388D02*
X23114105Y-54549388D01*
X24019652Y-53752230D02*
X24019652Y-52346546D01*
X20619654Y-52346546D02*
X20619654Y-53752230D01*
%TO.C,D35*%
X74570171Y-23419106D02*
G75*
G03*
X75272944Y-24067686I450515J-216879D01*
G01*
X75272944Y-20931090D02*
G75*
G03*
X74570171Y-21579667I-252258J-431700D01*
G01*
X77114108Y-20999387D02*
G75*
G03*
X77366366Y-20931088I5J499982D01*
G01*
X75525203Y-23999387D02*
G75*
G03*
X75272944Y-24067686I-6J-499982D01*
G01*
X78069139Y-21579667D02*
G75*
G03*
X77366366Y-20931088I-450515J216878D01*
G01*
X74619656Y-21796544D02*
G75*
G03*
X74570171Y-21579667I-499990J1D01*
G01*
X77366366Y-24067684D02*
G75*
G03*
X78069139Y-23419107I252258J431700D01*
G01*
X78019654Y-23202230D02*
G75*
G03*
X78069139Y-23419107I499990J-1D01*
G01*
X77366365Y-24067686D02*
G75*
G03*
X77114107Y-23999387I-252261J-431710D01*
G01*
X74570171Y-23419107D02*
G75*
G03*
X74619656Y-23202229I-450505J216876D01*
G01*
X75272944Y-20931089D02*
G75*
G03*
X75525202Y-20999388I252261J431710D01*
G01*
X78069139Y-21579667D02*
G75*
G03*
X78019654Y-21796545I450505J-216876D01*
G01*
X78019654Y-23202229D02*
X78019654Y-21796545D01*
X77114107Y-20999388D02*
X75525202Y-20999388D01*
X75525203Y-23999387D02*
X77114107Y-23999387D01*
X74619656Y-21796545D02*
X74619656Y-23202229D01*
%TO.C,D25*%
X21272945Y-68431090D02*
G75*
G03*
X21525203Y-68499389I252261J431710D01*
G01*
X20570172Y-70919107D02*
G75*
G03*
X21272945Y-71567687I450515J-216879D01*
G01*
X20570172Y-70919108D02*
G75*
G03*
X20619657Y-70702230I-450505J216876D01*
G01*
X24019655Y-70702231D02*
G75*
G03*
X24069140Y-70919108I499990J-1D01*
G01*
X21525204Y-71499388D02*
G75*
G03*
X21272945Y-71567687I-6J-499982D01*
G01*
X23114109Y-68499388D02*
G75*
G03*
X23366367Y-68431089I5J499982D01*
G01*
X21272945Y-68431091D02*
G75*
G03*
X20570172Y-69079668I-252258J-431700D01*
G01*
X24069140Y-69079668D02*
G75*
G03*
X24019655Y-69296546I450505J-216876D01*
G01*
X24069140Y-69079668D02*
G75*
G03*
X23366367Y-68431089I-450515J216878D01*
G01*
X23366366Y-71567687D02*
G75*
G03*
X23114108Y-71499388I-252261J-431710D01*
G01*
X20619657Y-69296545D02*
G75*
G03*
X20570172Y-69079668I-499990J1D01*
G01*
X23366367Y-71567685D02*
G75*
G03*
X24069140Y-70919108I252258J431700D01*
G01*
X23114108Y-68499389D02*
X21525203Y-68499389D01*
X21525204Y-71499388D02*
X23114108Y-71499388D01*
X20619657Y-69296546D02*
X20619657Y-70702230D01*
X24019655Y-70702230D02*
X24019655Y-69296546D01*
%TO.C,D24*%
X93505203Y-43489388D02*
G75*
G03*
X93252944Y-43557687I-6J-499982D01*
G01*
X95346365Y-43557687D02*
G75*
G03*
X95094107Y-43489388I-252261J-431710D01*
G01*
X95094108Y-40489388D02*
G75*
G03*
X95346366Y-40421089I5J499982D01*
G01*
X96049139Y-41069668D02*
G75*
G03*
X95999654Y-41286546I450505J-216876D01*
G01*
X95346366Y-43557685D02*
G75*
G03*
X96049139Y-42909108I252258J431700D01*
G01*
X96049139Y-41069668D02*
G75*
G03*
X95346366Y-40421089I-450515J216878D01*
G01*
X93252944Y-40421090D02*
G75*
G03*
X93505202Y-40489389I252261J431710D01*
G01*
X92550171Y-42909107D02*
G75*
G03*
X93252944Y-43557687I450515J-216879D01*
G01*
X93252944Y-40421091D02*
G75*
G03*
X92550171Y-41069668I-252258J-431700D01*
G01*
X92599656Y-41286545D02*
G75*
G03*
X92550171Y-41069668I-499990J1D01*
G01*
X92550171Y-42909108D02*
G75*
G03*
X92599656Y-42692230I-450505J216876D01*
G01*
X95999654Y-42692231D02*
G75*
G03*
X96049139Y-42909108I499990J-1D01*
G01*
X92599656Y-41286546D02*
X92599656Y-42692230D01*
X95094107Y-40489389D02*
X93505202Y-40489389D01*
X93505203Y-43489388D02*
X95094107Y-43489388D01*
X95999654Y-42692230D02*
X95999654Y-41286546D01*
%TO.C,D30*%
X97394618Y-79991369D02*
G75*
G03*
X97386285Y-80213664I482954J-129408D01*
G01*
X97862368Y-78436901D02*
G75*
G03*
X97351406Y-77628531I-379032J326090D01*
G01*
X95329316Y-77086714D02*
G75*
G03*
X94482624Y-77531302I-355396J-351702D01*
G01*
X95329316Y-77086714D02*
G75*
G03*
X95555300Y-77217975I355399J351709D01*
G01*
X97090066Y-77629214D02*
G75*
G03*
X97351406Y-77628531I129409J482965D01*
G01*
X94778844Y-80115753D02*
G75*
G03*
X94517504Y-80116435I-129410J-482943D01*
G01*
X96539593Y-80658252D02*
G75*
G03*
X96313608Y-80526991I-355396J-351702D01*
G01*
X94006542Y-79308064D02*
G75*
G03*
X94110473Y-79111384I-379023J326085D01*
G01*
X94006542Y-79308063D02*
G75*
G03*
X94517504Y-80116435I379032J-326091D01*
G01*
X94474291Y-77753596D02*
G75*
G03*
X94482624Y-77531302I-482953J129407D01*
G01*
X97862369Y-78436901D02*
G75*
G03*
X97758437Y-78633582I379021J-326086D01*
G01*
X96539596Y-80658249D02*
G75*
G03*
X97386285Y-80213664I355394J351700D01*
G01*
X94778844Y-80115752D02*
X96313608Y-80526991D01*
X94474291Y-77753597D02*
X94110473Y-79111384D01*
X97090065Y-77629214D02*
X95555300Y-77217975D01*
X97394619Y-79991368D02*
X97758437Y-78633582D01*
%TO.C,D29*%
X75272945Y-54899091D02*
G75*
G03*
X75525203Y-54967390I252261J431710D01*
G01*
X75525204Y-57967389D02*
G75*
G03*
X75272945Y-58035688I-6J-499982D01*
G01*
X77114109Y-54967389D02*
G75*
G03*
X77366367Y-54899090I5J499982D01*
G01*
X74619657Y-55764546D02*
G75*
G03*
X74570172Y-55547669I-499990J1D01*
G01*
X74570172Y-57387109D02*
G75*
G03*
X74619657Y-57170231I-450505J216876D01*
G01*
X77366366Y-58035688D02*
G75*
G03*
X77114108Y-57967389I-252261J-431710D01*
G01*
X78069140Y-55547669D02*
G75*
G03*
X78019655Y-55764547I450505J-216876D01*
G01*
X75272945Y-54899092D02*
G75*
G03*
X74570172Y-55547669I-252258J-431700D01*
G01*
X78019655Y-57170232D02*
G75*
G03*
X78069140Y-57387109I499990J-1D01*
G01*
X78069140Y-55547669D02*
G75*
G03*
X77366367Y-54899090I-450515J216878D01*
G01*
X74570172Y-57387108D02*
G75*
G03*
X75272945Y-58035688I450515J-216879D01*
G01*
X77366367Y-58035686D02*
G75*
G03*
X78069140Y-57387109I252258J431700D01*
G01*
X75525204Y-57967389D02*
X77114108Y-57967389D01*
X77114108Y-54967390D02*
X75525203Y-54967390D01*
X74619657Y-55764547D02*
X74619657Y-57170231D01*
X78019655Y-57170231D02*
X78019655Y-55764547D01*
%TO.C,D33*%
X112995309Y-85891691D02*
G75*
G03*
X113131815Y-85716046I-316640J386948D01*
G01*
X116943832Y-85703320D02*
G75*
G03*
X116807327Y-85878965I316641J-386948D01*
G01*
X113615625Y-86821218D02*
G75*
G03*
X113358137Y-86776508I-211307J-453134D01*
G01*
X114683720Y-83933786D02*
G75*
G03*
X114883479Y-84102294I411074J284652D01*
G01*
X116213259Y-87152948D02*
G75*
G03*
X116166451Y-87370419I453144J-211306D01*
G01*
X116323517Y-84773793D02*
G75*
G03*
X116581005Y-84818503I211306J453134D01*
G01*
X113725883Y-84442063D02*
G75*
G03*
X113772690Y-84224592I-453174J211312D01*
G01*
X116943832Y-85703320D02*
G75*
G03*
X116581005Y-84818503I-316648J386954D01*
G01*
X115255420Y-87661226D02*
G75*
G03*
X115055661Y-87492717I-411074J-284652D01*
G01*
X115255422Y-87661224D02*
G75*
G03*
X116166451Y-87370419I411068J284644D01*
G01*
X114683720Y-83933786D02*
G75*
G03*
X113772690Y-84224592I-411068J-284645D01*
G01*
X112995310Y-85891690D02*
G75*
G03*
X113358137Y-86776508I316648J-386955D01*
G01*
X113615625Y-86821217D02*
X115055661Y-87492717D01*
X116213259Y-87152947D02*
X116807327Y-85878965D01*
X116323516Y-84773795D02*
X114883479Y-84102294D01*
X113725882Y-84442064D02*
X113131815Y-85716046D01*
%TO.C,D20*%
X57272944Y-15431090D02*
G75*
G03*
X57525202Y-15499389I252261J431710D01*
G01*
X59114108Y-15499388D02*
G75*
G03*
X59366366Y-15431089I5J499982D01*
G01*
X56619656Y-16296545D02*
G75*
G03*
X56570171Y-16079668I-499990J1D01*
G01*
X56570171Y-17919108D02*
G75*
G03*
X56619656Y-17702230I-450505J216876D01*
G01*
X59366365Y-18567687D02*
G75*
G03*
X59114107Y-18499388I-252261J-431710D01*
G01*
X57272944Y-15431091D02*
G75*
G03*
X56570171Y-16079668I-252258J-431700D01*
G01*
X60019654Y-17702231D02*
G75*
G03*
X60069139Y-17919108I499990J-1D01*
G01*
X56570171Y-17919107D02*
G75*
G03*
X57272944Y-18567687I450515J-216879D01*
G01*
X60069139Y-16079668D02*
G75*
G03*
X59366366Y-15431089I-450515J216878D01*
G01*
X57525203Y-18499388D02*
G75*
G03*
X57272944Y-18567687I-6J-499982D01*
G01*
X60069139Y-16079668D02*
G75*
G03*
X60019654Y-16296546I450505J-216876D01*
G01*
X59366366Y-18567685D02*
G75*
G03*
X60069139Y-17919108I252258J431700D01*
G01*
X57525203Y-18499388D02*
X59114107Y-18499388D01*
X60019654Y-17702230D02*
X60019654Y-16296546D01*
X59114107Y-15499389D02*
X57525202Y-15499389D01*
X56619656Y-16296546D02*
X56619656Y-17702230D01*
%TO.C,D27*%
X93252947Y-57439090D02*
G75*
G03*
X93505205Y-57507389I252261J431710D01*
G01*
X95346368Y-60575687D02*
G75*
G03*
X95094110Y-60507388I-252261J-431710D01*
G01*
X93252947Y-57439091D02*
G75*
G03*
X92550174Y-58087668I-252258J-431700D01*
G01*
X93505206Y-60507388D02*
G75*
G03*
X93252947Y-60575687I-6J-499982D01*
G01*
X95999657Y-59710231D02*
G75*
G03*
X96049142Y-59927108I499990J-1D01*
G01*
X95346369Y-60575685D02*
G75*
G03*
X96049142Y-59927108I252258J431700D01*
G01*
X92599659Y-58304545D02*
G75*
G03*
X92550174Y-58087668I-499990J1D01*
G01*
X95094111Y-57507388D02*
G75*
G03*
X95346369Y-57439089I5J499982D01*
G01*
X92550174Y-59927108D02*
G75*
G03*
X92599659Y-59710230I-450505J216876D01*
G01*
X96049142Y-58087668D02*
G75*
G03*
X95346369Y-57439089I-450515J216878D01*
G01*
X92550174Y-59927107D02*
G75*
G03*
X93252947Y-60575687I450515J-216879D01*
G01*
X96049142Y-58087668D02*
G75*
G03*
X95999657Y-58304546I450505J-216876D01*
G01*
X95094110Y-57507389D02*
X93505205Y-57507389D01*
X95999657Y-59710230D02*
X95999657Y-58304546D01*
X92599659Y-58304546D02*
X92599659Y-59710230D01*
X93505206Y-60507388D02*
X95094110Y-60507388D01*
%TD*%
M02*
