%TF.GenerationSoftware,KiCad,Pcbnew,(6.0.0)*%
%TF.CreationDate,2022-05-06T00:59:20-07:00*%
%TF.ProjectId,half-swept,68616c66-2d73-4776-9570-742e6b696361,rev?*%
%TF.SameCoordinates,Original*%
%TF.FileFunction,Paste,Top*%
%TF.FilePolarity,Positive*%
%FSLAX46Y46*%
G04 Gerber Fmt 4.6, Leading zero omitted, Abs format (unit mm)*
G04 Created by KiCad (PCBNEW (6.0.0)) date 2022-05-06 00:59:20*
%MOMM*%
%LPD*%
G01*
G04 APERTURE LIST*
G04 Aperture macros list*
%AMRoundRect*
0 Rectangle with rounded corners*
0 $1 Rounding radius*
0 $2 $3 $4 $5 $6 $7 $8 $9 X,Y pos of 4 corners*
0 Add a 4 corners polygon primitive as box body*
4,1,4,$2,$3,$4,$5,$6,$7,$8,$9,$2,$3,0*
0 Add four circle primitives for the rounded corners*
1,1,$1+$1,$2,$3*
1,1,$1+$1,$4,$5*
1,1,$1+$1,$6,$7*
1,1,$1+$1,$8,$9*
0 Add four rect primitives between the rounded corners*
20,1,$1+$1,$2,$3,$4,$5,0*
20,1,$1+$1,$4,$5,$6,$7,0*
20,1,$1+$1,$6,$7,$8,$9,0*
20,1,$1+$1,$8,$9,$2,$3,0*%
G04 Aperture macros list end*
%ADD10RoundRect,0.082000X-0.718000X0.328000X-0.718000X-0.328000X0.718000X-0.328000X0.718000X0.328000X0*%
%ADD11RoundRect,0.082000X-0.608642X0.502656X-0.778427X-0.130992X0.608642X-0.502656X0.778427X0.130992X0*%
%ADD12RoundRect,0.082000X-0.512110X0.600709X-0.789348X0.006171X0.512110X-0.600709X0.789348X-0.006171X0*%
G04 APERTURE END LIST*
D10*
%TO.C,D34*%
X37719658Y-23249387D03*
X37719658Y-24749387D03*
X42919658Y-24749387D03*
X42919658Y-23249387D03*
%TD*%
%TO.C,D26*%
X55719654Y-50383387D03*
X55719654Y-51883387D03*
X60919654Y-51883387D03*
X60919654Y-50383387D03*
%TD*%
%TO.C,D31*%
X37719656Y-40223388D03*
X37719656Y-41723388D03*
X42919656Y-41723388D03*
X42919656Y-40223388D03*
%TD*%
%TO.C,D28*%
X37719655Y-57241386D03*
X37719655Y-58741386D03*
X42919655Y-58741386D03*
X42919655Y-57241386D03*
%TD*%
%TO.C,D32*%
X73719658Y-38699390D03*
X73719658Y-40199390D03*
X78919658Y-40199390D03*
X78919658Y-38699390D03*
%TD*%
%TO.C,D21*%
X91719655Y-24249388D03*
X91719655Y-25749388D03*
X96919655Y-25749388D03*
X96919655Y-24249388D03*
%TD*%
%TO.C,D19*%
X19719655Y-35249388D03*
X19719655Y-36749388D03*
X24919655Y-36749388D03*
X24919655Y-35249388D03*
%TD*%
%TO.C,D23*%
X55719658Y-33365387D03*
X55719658Y-34865387D03*
X60919658Y-34865387D03*
X60919658Y-33365387D03*
%TD*%
%TO.C,D22*%
X19719653Y-52299388D03*
X19719653Y-53799388D03*
X24919653Y-53799388D03*
X24919653Y-52299388D03*
%TD*%
%TO.C,D35*%
X73719655Y-21749387D03*
X73719655Y-23249387D03*
X78919655Y-23249387D03*
X78919655Y-21749387D03*
%TD*%
%TO.C,D25*%
X19719656Y-69249388D03*
X19719656Y-70749388D03*
X24919656Y-70749388D03*
X24919656Y-69249388D03*
%TD*%
%TO.C,D24*%
X91699655Y-41239388D03*
X91699655Y-42739388D03*
X96899655Y-42739388D03*
X96899655Y-41239388D03*
%TD*%
D11*
%TO.C,D30*%
X93617162Y-77475109D03*
X93228933Y-78923998D03*
X98251748Y-80269857D03*
X98639976Y-78820968D03*
%TD*%
D10*
%TO.C,D29*%
X73719656Y-55717389D03*
X73719656Y-57217389D03*
X78919656Y-57217389D03*
X78919656Y-55717389D03*
%TD*%
D12*
%TO.C,D33*%
X112930134Y-84018967D03*
X112296207Y-85378429D03*
X117009007Y-87576044D03*
X117642935Y-86216582D03*
%TD*%
D10*
%TO.C,D20*%
X55719655Y-16249388D03*
X55719655Y-17749388D03*
X60919655Y-17749388D03*
X60919655Y-16249388D03*
%TD*%
%TO.C,D27*%
X91699658Y-58257388D03*
X91699658Y-59757388D03*
X96899658Y-59757388D03*
X96899658Y-58257388D03*
%TD*%
M02*
