M48
; DRILL file {KiCad (6.0.0)} date Fri May  6 00:59:21 2022
; FORMAT={-:-/ absolute / inch / decimal}
; #@! TF.CreationDate,2022-05-06T00:59:21-07:00
; #@! TF.GenerationSoftware,Kicad,Pcbnew,(6.0.0)
; #@! TF.FileFunction,NonPlated,1,2,NPTH
FMAT,2
INCH
; #@! TA.AperFunction,NonPlated,NPTH,ComponentDrill
T1C0.0315
; #@! TA.AperFunction,NonPlated,NPTH,ComponentDrill
T2C0.0472
; #@! TA.AperFunction,NonPlated,NPTH,ComponentDrill
T3C0.0630
; #@! TA.AperFunction,NonPlated,NPTH,ComponentDrill
T4C0.0669
; #@! TA.AperFunction,NonPlated,NPTH,ComponentDrill
T5C0.1339
%
G90
G05
T1
X4.4004Y-2.8712
X4.4011Y-2.872
X4.676Y-2.8712
X4.6767Y-2.872
T2
X2.9585Y-0.5682
T3
X3.2245Y-3.3847
X3.2684Y-2.9244
T4
X0.6622Y-1.6173
X0.6622Y-2.2866
X0.6622Y-2.9559
X1.0953Y-1.6173
X1.0953Y-2.2866
X1.0953Y-2.9559
X1.3709Y-2.4831
X1.3709Y-1.8131
X1.3709Y-1.1449
X1.8039Y-2.4831
X1.8039Y-1.8131
X1.8039Y-1.1449
X2.0795Y-2.2131
X2.0795Y-0.8693
X2.0795Y-1.5431
X2.5126Y-2.2131
X2.5126Y-0.8693
X2.5126Y-1.5431
X2.7882Y-1.0858
X2.7882Y-2.4231
X2.7882Y-1.7531
X3.2212Y-1.0858
X3.2212Y-2.4231
X3.2212Y-1.7531
X3.496Y-1.8531
X3.496Y-2.5231
X3.4968Y-1.1842
X3.516Y-3.2424
X3.9291Y-1.8531
X3.9291Y-2.5231
X3.9299Y-1.1842
X3.9343Y-3.3544
X4.2456Y-3.4676
X4.6381Y-3.6506
T5
X0.8787Y-1.6173
X0.8787Y-2.2866
X0.8787Y-2.9559
X1.5874Y-2.4831
X1.5874Y-1.8131
X1.5874Y-1.1449
X2.296Y-2.2131
X2.296Y-0.8693
X2.296Y-1.5431
X3.0047Y-1.0858
X3.0047Y-2.4231
X3.0047Y-1.7531
X3.7126Y-1.8531
X3.7126Y-2.5231
X3.7134Y-1.1842
X3.7252Y-3.2984
X4.4418Y-3.5591
T0
M30
