%TF.GenerationSoftware,KiCad,Pcbnew,(6.0.8)*%
%TF.CreationDate,2022-11-10T08:12:55-08:00*%
%TF.ProjectId,half-swept,68616c66-2d73-4776-9570-742e6b696361,rev?*%
%TF.SameCoordinates,Original*%
%TF.FileFunction,Soldermask,Top*%
%TF.FilePolarity,Negative*%
%FSLAX46Y46*%
G04 Gerber Fmt 4.6, Leading zero omitted, Abs format (unit mm)*
G04 Created by KiCad (PCBNEW (6.0.8)) date 2022-11-10 08:12:55*
%MOMM*%
%LPD*%
G01*
G04 APERTURE LIST*
G04 Aperture macros list*
%AMRoundRect*
0 Rectangle with rounded corners*
0 $1 Rounding radius*
0 $2 $3 $4 $5 $6 $7 $8 $9 X,Y pos of 4 corners*
0 Add a 4 corners polygon primitive as box body*
4,1,4,$2,$3,$4,$5,$6,$7,$8,$9,$2,$3,0*
0 Add four circle primitives for the rounded corners*
1,1,$1+$1,$2,$3*
1,1,$1+$1,$4,$5*
1,1,$1+$1,$6,$7*
1,1,$1+$1,$8,$9*
0 Add four rect primitives between the rounded corners*
20,1,$1+$1,$2,$3,$4,$5,0*
20,1,$1+$1,$4,$5,$6,$7,0*
20,1,$1+$1,$6,$7,$8,$9,0*
20,1,$1+$1,$8,$9,$2,$3,0*%
%AMRotRect*
0 Rectangle, with rotation*
0 The origin of the aperture is its center*
0 $1 length*
0 $2 width*
0 $3 Rotation angle, in degrees counterclockwise*
0 Add horizontal line*
21,1,$1,$2,0,0,$3*%
%AMFreePoly0*
4,1,6,1.000000,0.000000,0.500000,-0.750000,-0.500000,-0.750000,-0.500000,0.750000,0.500000,0.750000,1.000000,0.000000,1.000000,0.000000,$1*%
%AMFreePoly1*
4,1,6,0.500000,-0.750000,-0.650000,-0.750000,-0.150000,0.000000,-0.650000,0.750000,0.500000,0.750000,0.500000,-0.750000,0.500000,-0.750000,$1*%
G04 Aperture macros list end*
%ADD10C,1.200000*%
%ADD11C,1.750000*%
%ADD12C,3.000000*%
%ADD13C,3.429000*%
%ADD14C,1.701800*%
%ADD15R,2.600000X2.600000*%
%ADD16C,2.232000*%
%ADD17RotRect,2.600000X2.600000X155.000000*%
%ADD18RotRect,2.600000X2.600000X165.000000*%
%ADD19C,4.400000*%
%ADD20C,1.752600*%
%ADD21RoundRect,0.200000X0.200000X-0.300000X0.200000X0.300000X-0.200000X0.300000X-0.200000X-0.300000X0*%
%ADD22C,0.900000*%
%ADD23RoundRect,0.175000X0.575000X-0.175000X0.575000X0.175000X-0.575000X0.175000X-0.575000X-0.175000X0*%
%ADD24FreePoly0,90.000000*%
%ADD25FreePoly1,90.000000*%
%ADD26RotRect,2.600000X2.600000X175.000000*%
%ADD27RoundRect,0.250000X-0.625000X0.350000X-0.625000X-0.350000X0.625000X-0.350000X0.625000X0.350000X0*%
%ADD28O,1.750000X1.200000*%
G04 APERTURE END LIST*
D10*
%TO.C,RSW1*%
X75451865Y-14657504D03*
D11*
X72951865Y-15867504D03*
X77951865Y-15867504D03*
%TD*%
D12*
%TO.C,SW2*%
X27626865Y-45055002D03*
D13*
X22626865Y-41305002D03*
D12*
X17626865Y-45055002D03*
D14*
X28126865Y-41305002D03*
X17126865Y-41305002D03*
D12*
X22626865Y-47255002D03*
D15*
X19351865Y-47255002D03*
D16*
X22626865Y-35405002D03*
X17626865Y-37505002D03*
X27626865Y-37505002D03*
D15*
X30901865Y-45055002D03*
%TD*%
D14*
%TO.C,SW3*%
X46126867Y-29305002D03*
D12*
X45626867Y-33055002D03*
D14*
X35126867Y-29305002D03*
D12*
X40626867Y-35255002D03*
D13*
X40626867Y-29305002D03*
D12*
X35626867Y-33055002D03*
D16*
X40626867Y-23405002D03*
D15*
X37351867Y-35255002D03*
D16*
X45626867Y-25505002D03*
X35626867Y-25505002D03*
D15*
X48901867Y-33055002D03*
%TD*%
D12*
%TO.C,SW4*%
X63626864Y-26055002D03*
D13*
X58626864Y-22305002D03*
D14*
X53126864Y-22305002D03*
X64126864Y-22305002D03*
D12*
X58626864Y-28255002D03*
X53626864Y-26055002D03*
D15*
X55351864Y-28255002D03*
D16*
X58626864Y-16405002D03*
X53626864Y-18505002D03*
X63626864Y-18505002D03*
D15*
X66901864Y-26055002D03*
%TD*%
D12*
%TO.C,SW5*%
X76626865Y-33755003D03*
D14*
X71126865Y-27805003D03*
D12*
X81626865Y-31555003D03*
X71626865Y-31555003D03*
D13*
X76626865Y-27805003D03*
D14*
X82126865Y-27805003D03*
D15*
X73351865Y-33755003D03*
D16*
X76626865Y-21905003D03*
X81626865Y-24005003D03*
D15*
X84901865Y-31555003D03*
D16*
X71626865Y-24005003D03*
%TD*%
D12*
%TO.C,SW6*%
X99626863Y-34055002D03*
D13*
X94626863Y-30305002D03*
D12*
X94626863Y-36255002D03*
D14*
X89126863Y-30305002D03*
D12*
X89626863Y-34055002D03*
D14*
X100126863Y-30305002D03*
D15*
X91351863Y-36255002D03*
D16*
X94626863Y-24405002D03*
D15*
X102901863Y-34055002D03*
D16*
X99626863Y-26505002D03*
X89626863Y-26505002D03*
%TD*%
D12*
%TO.C,SW8*%
X27626865Y-62055002D03*
D13*
X22626865Y-58305002D03*
D12*
X17626865Y-62055002D03*
D14*
X28126865Y-58305002D03*
D12*
X22626865Y-64255002D03*
D14*
X17126865Y-58305002D03*
D16*
X22626865Y-52405002D03*
D15*
X19351865Y-64255002D03*
D16*
X27626865Y-54505002D03*
D15*
X30901865Y-62055002D03*
D16*
X17626865Y-54505002D03*
%TD*%
D14*
%TO.C,SW9*%
X35126867Y-46279002D03*
D12*
X35626867Y-50029002D03*
D13*
X40626867Y-46279002D03*
D14*
X46126867Y-46279002D03*
D12*
X40626867Y-52229002D03*
X45626867Y-50029002D03*
D15*
X37351867Y-52229002D03*
D16*
X40626867Y-40379002D03*
X45626867Y-42479002D03*
X35626867Y-42479002D03*
D15*
X48901867Y-50029002D03*
%TD*%
D12*
%TO.C,SW10*%
X58626866Y-45371002D03*
D14*
X64126866Y-39421002D03*
D13*
X58626866Y-39421002D03*
D14*
X53126866Y-39421002D03*
D12*
X63626866Y-43171002D03*
X53626866Y-43171002D03*
D16*
X58626866Y-33521002D03*
D15*
X55351866Y-45371002D03*
D16*
X53626866Y-35621002D03*
D15*
X66901866Y-43171002D03*
D16*
X63626866Y-35621002D03*
%TD*%
D14*
%TO.C,SW11*%
X82126867Y-44755005D03*
D13*
X76626867Y-44755005D03*
D12*
X76626867Y-50705005D03*
X71626867Y-48505005D03*
X81626867Y-48505005D03*
D14*
X71126867Y-44755005D03*
D16*
X76626867Y-38855005D03*
D15*
X73351867Y-50705005D03*
X84901867Y-48505005D03*
D16*
X71626867Y-40955005D03*
X81626867Y-40955005D03*
%TD*%
D13*
%TO.C,SW12*%
X94606865Y-47295002D03*
D14*
X89106865Y-47295002D03*
D12*
X99606865Y-51045002D03*
X94606865Y-53245002D03*
X89606865Y-51045002D03*
D14*
X100106865Y-47295002D03*
D15*
X91331865Y-53245002D03*
D16*
X94606865Y-41395002D03*
D15*
X102881865Y-51045002D03*
D16*
X89606865Y-43495002D03*
X99606865Y-43495002D03*
%TD*%
D12*
%TO.C,SW14*%
X27626865Y-79054999D03*
D14*
X28126865Y-75304999D03*
D13*
X22626865Y-75304999D03*
D14*
X17126865Y-75304999D03*
D12*
X22626865Y-81254999D03*
X17626865Y-79054999D03*
D15*
X19351865Y-81254999D03*
D16*
X22626865Y-69404999D03*
D15*
X30901865Y-79054999D03*
D16*
X27626865Y-71504999D03*
X17626865Y-71504999D03*
%TD*%
D12*
%TO.C,SW15*%
X45626864Y-67047001D03*
D13*
X40626864Y-63297001D03*
D12*
X35626864Y-67047001D03*
D14*
X46126864Y-63297001D03*
X35126864Y-63297001D03*
D12*
X40626864Y-69247001D03*
D15*
X37351864Y-69247001D03*
D16*
X40626864Y-57397001D03*
X35626864Y-59497001D03*
X45626864Y-59497001D03*
D15*
X48901864Y-67047001D03*
%TD*%
D12*
%TO.C,SW16*%
X53626863Y-60189003D03*
X63626863Y-60189003D03*
D13*
X58626863Y-56439003D03*
D14*
X53126863Y-56439003D03*
D12*
X58626863Y-62389003D03*
D14*
X64126863Y-56439003D03*
D15*
X55351863Y-62389003D03*
D16*
X58626863Y-50539003D03*
X63626863Y-52639003D03*
D15*
X66901863Y-60189003D03*
D16*
X53626863Y-52639003D03*
%TD*%
D12*
%TO.C,SW17*%
X81626865Y-65523005D03*
D14*
X71126865Y-61773005D03*
D12*
X71626865Y-65523005D03*
D13*
X76626865Y-61773005D03*
D14*
X82126865Y-61773005D03*
D12*
X76626865Y-67723005D03*
D16*
X76626865Y-55873005D03*
D15*
X73351865Y-67723005D03*
D16*
X71626865Y-57973005D03*
X81626865Y-57973005D03*
D15*
X84901865Y-65523005D03*
%TD*%
D14*
%TO.C,SW18*%
X89100519Y-64313002D03*
D13*
X94600519Y-64313002D03*
D12*
X99600519Y-68063002D03*
X89600519Y-68063002D03*
D14*
X100100519Y-64313002D03*
D12*
X94600519Y-70263002D03*
D15*
X91325519Y-70263002D03*
D16*
X94600519Y-58413002D03*
X99600519Y-60513002D03*
X89600519Y-60513002D03*
D15*
X102875519Y-68063002D03*
%TD*%
D12*
%TO.C,SW20*%
X107210510Y-91990563D03*
D14*
X118311560Y-93029400D03*
D13*
X113326867Y-90705000D03*
D12*
X116273587Y-96216746D03*
D14*
X108342174Y-88380600D03*
D12*
X110812288Y-96097531D03*
D16*
X115820315Y-85357784D03*
D17*
X107844130Y-94713457D03*
D16*
X119464355Y-89374122D03*
X110401277Y-85147939D03*
D17*
X119241745Y-97600820D03*
%TD*%
D12*
%TO.C,SW21*%
X93386890Y-89752262D03*
D13*
X94926863Y-84005003D03*
D14*
X89614271Y-82581498D03*
D12*
X98785921Y-88921320D03*
D14*
X100239455Y-85428508D03*
D12*
X89126662Y-86333130D03*
D16*
X96453895Y-78306041D03*
D18*
X90223483Y-88904629D03*
D16*
X91080746Y-79040390D03*
D18*
X101949328Y-89768952D03*
D16*
X100740005Y-81628580D03*
%TD*%
D19*
%TO.C,REF\u002A\u002A*%
X49076866Y-38205003D03*
X68126866Y-57255003D03*
X68126866Y-19155003D03*
X87176866Y-38205003D03*
%TD*%
D20*
%TO.C,U1*%
X105756864Y-29971752D03*
X105756864Y-32511752D03*
X105756864Y-35051752D03*
X105756864Y-37591752D03*
X105756864Y-40131752D03*
X105756864Y-42671752D03*
X105756864Y-45211752D03*
X105756864Y-47751752D03*
X105756864Y-50291752D03*
X105756864Y-52831752D03*
X105756864Y-55371752D03*
X105756864Y-57911752D03*
X120996864Y-57911752D03*
X120996864Y-55371752D03*
X120996864Y-52831752D03*
X120996864Y-50291752D03*
X120996864Y-47751752D03*
X120996864Y-45211752D03*
X120996864Y-42671752D03*
X120996864Y-40131752D03*
X120996864Y-37591752D03*
X120996864Y-35051752D03*
X120996864Y-32511752D03*
X120996864Y-29971752D03*
X108296864Y-52831752D03*
X110836864Y-52831752D03*
X113376864Y-52831752D03*
%TD*%
D21*
%TO.C,SW7*%
X120113065Y-79332291D03*
D22*
X121223065Y-74182291D03*
D21*
X122323065Y-79332291D03*
X122323065Y-72032291D03*
D22*
X121223065Y-77182291D03*
D21*
X120113065Y-72032291D03*
D23*
X119463065Y-77932291D03*
X119463065Y-74932291D03*
X119463065Y-73432291D03*
%TD*%
D24*
%TO.C,JP7*%
X115710000Y-63510000D03*
D25*
X115710000Y-62060000D03*
%TD*%
D24*
%TO.C,JP6*%
X110620000Y-63515000D03*
D25*
X110620000Y-62065000D03*
%TD*%
D12*
%TO.C,SW1*%
X70369056Y-83904951D03*
X75158287Y-86532358D03*
D14*
X70197793Y-80125643D03*
X81155935Y-81084357D03*
D12*
X80331003Y-84776509D03*
D13*
X75676864Y-80605000D03*
D16*
X76191083Y-74727451D03*
D26*
X71895750Y-86246923D03*
D16*
X80989029Y-77255239D03*
X71027082Y-76383681D03*
D26*
X83593541Y-85061944D03*
%TD*%
D27*
%TO.C,J1*%
X114733066Y-73312291D03*
D28*
X114733066Y-75312291D03*
X114733066Y-77312291D03*
%TD*%
D24*
%TO.C,JP5*%
X108070000Y-63515000D03*
D25*
X108070000Y-62065000D03*
%TD*%
D24*
%TO.C,JP8*%
X118230000Y-63515000D03*
D25*
X118230000Y-62065000D03*
%TD*%
D20*
%TO.C,Display1*%
X108073066Y-65902292D03*
X110613066Y-65902292D03*
X113153066Y-65902292D03*
X115693066Y-65902292D03*
X118233066Y-65902292D03*
%TD*%
D22*
%TO.C,SW13*%
X121223066Y-74172292D03*
X121223066Y-77172292D03*
%TD*%
M02*
