M48
; DRILL file {KiCad (6.0.8)} date Thu Nov 10 08:12:56 2022
; FORMAT={-:-/ absolute / inch / decimal}
; #@! TF.CreationDate,2022-11-10T08:12:56-08:00
; #@! TF.GenerationSoftware,Kicad,Pcbnew,(6.0.8)
; #@! TF.FileFunction,NonPlated,1,2,NPTH
FMAT,2
INCH
; #@! TA.AperFunction,NonPlated,NPTH,ComponentDrill
T1C0.0354
; #@! TA.AperFunction,NonPlated,NPTH,ComponentDrill
T2C0.0472
; #@! TA.AperFunction,NonPlated,NPTH,ComponentDrill
T3C0.0670
; #@! TA.AperFunction,NonPlated,NPTH,ComponentDrill
T4C0.1181
; #@! TA.AperFunction,NonPlated,NPTH,ComponentDrill
T5C0.1350
%
G90
G05
T1
X4.7726Y-2.9206
X4.7726Y-3.0387
X4.7726Y-2.9202
X4.7726Y-3.0383
T2
X2.9705Y-0.5771
T3
X0.6743Y-1.6262
X0.6743Y-2.2955
X0.6743Y-2.9648
X1.1074Y-1.6262
X1.1074Y-2.2955
X1.1074Y-2.9648
X1.3829Y-2.492
X1.3829Y-1.1537
X1.3829Y-1.822
X1.816Y-2.492
X1.816Y-1.1537
X1.816Y-1.822
X2.0916Y-2.222
X2.0916Y-0.8781
X2.0916Y-1.552
X2.5247Y-2.222
X2.5247Y-0.8781
X2.5247Y-1.552
X2.7637Y-3.1546
X2.8003Y-1.0947
X2.8003Y-2.432
X2.8003Y-1.762
X3.1951Y-3.1923
X3.2333Y-1.0947
X3.2333Y-2.432
X3.2333Y-1.762
X3.5079Y-2.532
X3.5081Y-1.862
X3.5089Y-1.1931
X3.5281Y-3.2512
X3.941Y-2.532
X3.9412Y-1.862
X3.942Y-1.1931
X3.9464Y-3.3633
X4.2654Y-3.4796
X4.6579Y-3.6626
T4
X0.694Y-1.7738
X0.694Y-2.4431
X0.694Y-3.1124
X0.8908Y-1.8604
X0.8908Y-2.5297
X0.8908Y-3.199
X1.0877Y-1.7738
X1.0877Y-2.4431
X1.0877Y-3.1124
X1.4026Y-2.6396
X1.4026Y-1.3014
X1.4026Y-1.9696
X1.5995Y-2.7263
X1.5995Y-1.388
X1.5995Y-2.0563
X1.7963Y-2.6396
X1.7963Y-1.3014
X1.7963Y-1.9696
X2.1113Y-2.3696
X2.1113Y-1.0258
X2.1113Y-1.6996
X2.3081Y-2.4563
X2.3081Y-1.1124
X2.3081Y-1.7863
X2.505Y-2.3696
X2.505Y-1.0258
X2.505Y-1.6996
X2.7704Y-3.3033
X2.82Y-1.2423
X2.82Y-2.5796
X2.82Y-1.9096
X2.959Y-3.4068
X3.0168Y-1.3289
X3.0168Y-2.6663
X3.0168Y-1.9963
X3.1626Y-3.3377
X3.2137Y-1.2423
X3.2137Y-2.5796
X3.2137Y-1.9096
X3.5089Y-3.3989
X3.5276Y-2.6796
X3.5278Y-2.0096
X3.5286Y-1.3407
X3.6766Y-3.5336
X3.7244Y-2.7663
X3.7247Y-2.0963
X3.7255Y-1.4274
X3.8892Y-3.5008
X3.9213Y-2.6796
X3.9215Y-2.0096
X3.9223Y-1.3407
X4.2209Y-3.6217
X4.3627Y-3.7834
X4.5777Y-3.7881
T5
X0.8908Y-1.6262
X0.8908Y-2.2955
X0.8908Y-2.9648
X1.5995Y-2.492
X1.5995Y-1.1537
X1.5995Y-1.822
X2.3081Y-2.222
X2.3081Y-0.8781
X2.3081Y-1.552
X2.9794Y-3.1734
X3.0168Y-1.0947
X3.0168Y-2.432
X3.0168Y-1.762
X3.7244Y-2.532
X3.7247Y-1.862
X3.7255Y-1.1931
X3.7373Y-3.3073
X4.4617Y-3.5711
T0
M30
