M48
; DRILL file {KiCad (6.0.8)} date Thu Nov 10 08:12:56 2022
; FORMAT={-:-/ absolute / inch / decimal}
; #@! TF.CreationDate,2022-11-10T08:12:56-08:00
; #@! TF.GenerationSoftware,Kicad,Pcbnew,(6.0.8)
; #@! TF.FileFunction,Plated,1,2,PTH
FMAT,2
INCH
; #@! TA.AperFunction,Plated,PTH,ViaDrill
T1C0.0157
; #@! TA.AperFunction,Plated,PTH,ComponentDrill
T2C0.0295
; #@! TA.AperFunction,Plated,PTH,ComponentDrill
T3C0.0390
; #@! TA.AperFunction,Plated,PTH,ComponentDrill
T4C0.0430
; #@! TA.AperFunction,Plated,PTH,ComponentDrill
T5C0.0579
; #@! TA.AperFunction,Plated,PTH,ComponentDrill
T6C0.0866
%
G90
G05
T1
X0.7796Y-2.1351
X0.9889Y-1.7433
X0.9889Y-3.0819
X0.9889Y-2.4122
X1.6855Y-2.1434
X1.6976Y-1.9385
X1.6976Y-2.609
X1.6976Y-1.2705
X1.8812Y-2.0536
X1.9346Y-2.0535
X2.0501Y-1.8965
X2.3427Y-2.102
X2.4063Y-1.6689
X2.4063Y-2.3388
X2.4064Y-0.995
X3.0668Y-3.2978
X3.0769Y-2.3375
X3.1149Y-1.2113
X3.1149Y-1.7467
X3.1149Y-1.8787
X3.1149Y-2.5488
X3.3154Y-1.9949
X3.6399Y-1.6276
X3.8019Y-3.4446
X3.8224Y-2.6488
X3.8227Y-1.9787
X3.8236Y-1.3098
X4.021Y-2.2706
X4.0228Y-2.1016
X4.0781Y-2.3489
X4.0808Y-2.1469
X4.1241Y-2.3446
X4.2226Y-0.9245
X4.2547Y-2.3811
X4.2556Y-0.9591
X4.2733Y-2.1469
X4.2867Y-0.9922
X4.3143Y-2.128
X4.3186Y-1.0253
X4.3497Y-1.0583
X4.4008Y-2.2965
X4.4087Y-2.2374
X4.4587Y-2.2921
X4.4858Y-1.1799
X4.4917Y-2.3823
X4.5015Y-3.7175
X4.5224Y-1.5768
X4.5626Y-2.2921
X4.5673Y-1.6795
X4.5789Y-2.8206
X4.6036Y-1.48
X4.6202Y-2.8922
X4.6374Y-1.1799
X4.6501Y-1.0225
X4.6533Y-2.9796
X4.7277Y-2.702
X4.767Y-2.7367
X4.8001Y-2.7702
T2
X4.517Y-2.8863
X4.517Y-2.9651
X4.517Y-3.0438
T3
X2.8721Y-0.6247
X3.069Y-0.6247
T4
X4.1637Y-1.18
X4.1637Y-1.28
X4.1637Y-1.38
X4.1637Y-1.48
X4.1637Y-1.58
X4.1637Y-1.68
X4.1637Y-1.78
X4.1637Y-1.88
X4.1637Y-1.98
X4.1637Y-2.08
X4.1637Y-2.18
X4.1637Y-2.28
X4.2548Y-2.5946
X4.2637Y-2.08
X4.3548Y-2.5946
X4.3637Y-2.08
X4.4548Y-2.5946
X4.4637Y-2.08
X4.5548Y-2.5946
X4.6548Y-2.5946
X4.7637Y-1.18
X4.7637Y-1.28
X4.7637Y-1.38
X4.7637Y-1.48
X4.7637Y-1.58
X4.7637Y-1.68
X4.7637Y-1.78
X4.7637Y-1.88
X4.7637Y-1.98
X4.7637Y-2.08
X4.7637Y-2.18
X4.7637Y-2.28
T5
X0.694Y-1.4766
X0.694Y-2.1459
X0.694Y-2.8152
X0.8908Y-1.3939
X0.8908Y-2.0632
X0.8908Y-2.7325
X1.0877Y-1.4766
X1.0877Y-2.1459
X1.0877Y-2.8152
X1.4026Y-2.3424
X1.4026Y-1.0041
X1.4026Y-1.6724
X1.5995Y-2.2597
X1.5995Y-0.9215
X1.5995Y-1.5897
X1.7963Y-2.3424
X1.7963Y-1.0041
X1.7963Y-1.6724
X2.1113Y-2.0724
X2.1113Y-0.7285
X2.1113Y-1.4024
X2.3081Y-1.9897
X2.3081Y-0.6459
X2.3081Y-1.3197
X2.505Y-2.0724
X2.505Y-0.7285
X2.505Y-1.4024
X2.7963Y-3.0072
X2.82Y-0.9451
X2.82Y-2.2824
X2.82Y-1.6124
X2.9996Y-2.942
X3.0168Y-0.8624
X3.0168Y-2.1997
X3.0168Y-1.5297
X3.1885Y-3.0415
X3.2137Y-0.9451
X3.2137Y-2.2824
X3.2137Y-1.6124
X3.5276Y-2.3824
X3.5278Y-1.7124
X3.5286Y-1.0435
X3.5859Y-3.1118
X3.7244Y-2.2997
X3.7247Y-1.6297
X3.7255Y-0.9608
X3.7974Y-3.0829
X3.9213Y-2.3824
X3.9215Y-1.7124
X3.9223Y-1.0435
X3.9661Y-3.2137
X4.3465Y-3.3523
X4.5599Y-3.3605
X4.7033Y-3.5187
T6
X1.9322Y-1.5041
X2.6822Y-0.7541
X2.6822Y-2.2541
X3.4322Y-1.5041
T0
M30
