%TF.GenerationSoftware,KiCad,Pcbnew,(6.0.8)*%
%TF.CreationDate,2022-12-01T16:35:40-08:00*%
%TF.ProjectId,half-swept,68616c66-2d73-4776-9570-742e6b696361,rev?*%
%TF.SameCoordinates,Original*%
%TF.FileFunction,Drillmap*%
%TF.FilePolarity,Positive*%
%FSLAX45Y45*%
G04 Gerber Fmt 4.5, Leading zero omitted, Abs format (unit mm)*
G04 Created by KiCad (PCBNEW (6.0.8)) date 2022-12-01 16:35:40*
%MOMM*%
%LPD*%
G01*
G04 APERTURE LIST*
%ADD10C,0.050000*%
%ADD11C,0.200000*%
%ADD12C,0.040000*%
%ADD13C,0.075000*%
%ADD14C,0.090000*%
%ADD15C,0.099000*%
%ADD16C,0.109220*%
%ADD17C,0.147000*%
%ADD18C,0.150000*%
%ADD19C,0.220000*%
G04 APERTURE END LIST*
D10*
X1223692Y-3220171D02*
X1227712Y-8147003D01*
X12278886Y-2760878D02*
G75*
G03*
X12242686Y-2680500I-104476J1288D01*
G01*
X1366385Y-3018799D02*
G75*
G03*
X1223692Y-3220171I244505J-324501D01*
G01*
X12242686Y-2680500D02*
G75*
G03*
X6792687Y-1256251I-5286691J-9090387D01*
G01*
X11758266Y-10218445D02*
G75*
G03*
X1431486Y-8330612I-10180840J-26502435D01*
G01*
X1227709Y-8147003D02*
G75*
G03*
X1431486Y-8330612I197801J14643D01*
G01*
X12278887Y-2760878D02*
X12278886Y-8330500D01*
X6792687Y-1256251D02*
G75*
G03*
X1366386Y-3018800I-139342J-8805174D01*
G01*
X11758268Y-10218440D02*
G75*
G03*
X11878948Y-10185024I43992J75750D01*
G01*
X12547988Y-8757716D02*
X11878948Y-10185024D01*
X12278887Y-8330500D02*
G75*
G03*
X12432988Y-8522716I279953J66560D01*
G01*
X12547986Y-8757716D02*
G75*
G03*
X12432988Y-8522716I-199306J48106D01*
G01*
D11*
D12*
X1960293Y-5403206D02*
X2000293Y-5443206D01*
X2000293Y-5403206D02*
X1960293Y-5443206D01*
X2491927Y-4407958D02*
X2531927Y-4447958D01*
X2531927Y-4407958D02*
X2491927Y-4447958D01*
X2491927Y-7807958D02*
X2531927Y-7847958D01*
X2531927Y-7807958D02*
X2491927Y-7847958D01*
X2491927Y-6106958D02*
X2531927Y-6146958D01*
X2531927Y-6106958D02*
X2491927Y-6146958D01*
X4261293Y-5424206D02*
X4301293Y-5464206D01*
X4301293Y-5424206D02*
X4261293Y-5464206D01*
X4291885Y-4903857D02*
X4331885Y-4943857D01*
X4331885Y-4903857D02*
X4291885Y-4943857D01*
X4291908Y-6606940D02*
X4331908Y-6646940D01*
X4331908Y-6606940D02*
X4291908Y-6646940D01*
X4291927Y-3206958D02*
X4331927Y-3246958D01*
X4331927Y-3206958D02*
X4291927Y-3246958D01*
X4758293Y-5196206D02*
X4798293Y-5236206D01*
X4798293Y-5196206D02*
X4758293Y-5236206D01*
X4894000Y-5196000D02*
X4934000Y-5236000D01*
X4934000Y-5196000D02*
X4894000Y-5236000D01*
X5187293Y-4797206D02*
X5227293Y-4837206D01*
X5227293Y-4797206D02*
X5187293Y-4837206D01*
X5930480Y-5319019D02*
X5970480Y-5359019D01*
X5970480Y-5319019D02*
X5930480Y-5359019D01*
X6091927Y-4218958D02*
X6131927Y-4258958D01*
X6131927Y-4218958D02*
X6091927Y-4258958D01*
X6092057Y-5920597D02*
X6132057Y-5960597D01*
X6132057Y-5920597D02*
X6092057Y-5960597D01*
X6092307Y-2507229D02*
X6132307Y-2547229D01*
X6132307Y-2507229D02*
X6092307Y-2547229D01*
X7769693Y-8356340D02*
X7809693Y-8396340D01*
X7809693Y-8356340D02*
X7769693Y-8396340D01*
X7795234Y-5917265D02*
X7835234Y-5957265D01*
X7835234Y-5917265D02*
X7795234Y-5957265D01*
X7891828Y-3056806D02*
X7931828Y-3096806D01*
X7931828Y-3056806D02*
X7891828Y-3096806D01*
X7891925Y-4416573D02*
X7931925Y-4456573D01*
X7931925Y-4416573D02*
X7891925Y-4456573D01*
X7891925Y-4751957D02*
X7931925Y-4791957D01*
X7931925Y-4751957D02*
X7891925Y-4791957D01*
X7891927Y-6453958D02*
X7931927Y-6493958D01*
X7931927Y-6453958D02*
X7891927Y-6493958D01*
X8401000Y-5047000D02*
X8441000Y-5087000D01*
X8441000Y-5047000D02*
X8401000Y-5087000D01*
X9225293Y-4114206D02*
X9265293Y-4154206D01*
X9265293Y-4114206D02*
X9225293Y-4154206D01*
X9636919Y-8729350D02*
X9676919Y-8769350D01*
X9676919Y-8729350D02*
X9636919Y-8769350D01*
X9688844Y-6707934D02*
X9728844Y-6747934D01*
X9728844Y-6707934D02*
X9688844Y-6747934D01*
X9689753Y-5005804D02*
X9729753Y-5045804D01*
X9729753Y-5005804D02*
X9689753Y-5045804D01*
X9691842Y-3306871D02*
X9731842Y-3346871D01*
X9731842Y-3306871D02*
X9691842Y-3346871D01*
X10193293Y-5747206D02*
X10233293Y-5787206D01*
X10233293Y-5747206D02*
X10193293Y-5787206D01*
X10198000Y-5318000D02*
X10238000Y-5358000D01*
X10238000Y-5318000D02*
X10198000Y-5358000D01*
X10338293Y-5946206D02*
X10378293Y-5986206D01*
X10378293Y-5946206D02*
X10338293Y-5986206D01*
X10345293Y-5433206D02*
X10385293Y-5473206D01*
X10385293Y-5433206D02*
X10345293Y-5473206D01*
X10455293Y-5935206D02*
X10495293Y-5975206D01*
X10495293Y-5935206D02*
X10455293Y-5975206D01*
X10705293Y-2328206D02*
X10745293Y-2368206D01*
X10745293Y-2328206D02*
X10705293Y-2368206D01*
X10787000Y-6028000D02*
X10827000Y-6068000D01*
X10827000Y-6028000D02*
X10787000Y-6068000D01*
X10789293Y-2416206D02*
X10829293Y-2456206D01*
X10829293Y-2416206D02*
X10789293Y-2456206D01*
X10834293Y-5433206D02*
X10874293Y-5473206D01*
X10874293Y-5433206D02*
X10834293Y-5473206D01*
X10868293Y-2500206D02*
X10908293Y-2540206D01*
X10908293Y-2500206D02*
X10868293Y-2540206D01*
X10938293Y-5385206D02*
X10978293Y-5425206D01*
X10978293Y-5385206D02*
X10938293Y-5425206D01*
X10949293Y-2584206D02*
X10989293Y-2624206D01*
X10989293Y-2584206D02*
X10949293Y-2624206D01*
X11028293Y-2668206D02*
X11068293Y-2708206D01*
X11068293Y-2668206D02*
X11028293Y-2708206D01*
X11158000Y-5813000D02*
X11198000Y-5853000D01*
X11198000Y-5813000D02*
X11158000Y-5853000D01*
X11178000Y-5663000D02*
X11218000Y-5703000D01*
X11218000Y-5663000D02*
X11178000Y-5703000D01*
X11305000Y-5802000D02*
X11345000Y-5842000D01*
X11345000Y-5802000D02*
X11305000Y-5842000D01*
X11374000Y-2977000D02*
X11414000Y-3017000D01*
X11414000Y-2977000D02*
X11374000Y-3017000D01*
X11389000Y-6031000D02*
X11429000Y-6071000D01*
X11429000Y-6031000D02*
X11389000Y-6071000D01*
X11413791Y-9422373D02*
X11453791Y-9462373D01*
X11453791Y-9422373D02*
X11413791Y-9462373D01*
X11467000Y-3985000D02*
X11507000Y-4025000D01*
X11507000Y-3985000D02*
X11467000Y-4025000D01*
X11569000Y-5802000D02*
X11609000Y-5842000D01*
X11609000Y-5802000D02*
X11569000Y-5842000D01*
X11581000Y-4246000D02*
X11621000Y-4286000D01*
X11621000Y-4246000D02*
X11581000Y-4286000D01*
X11610293Y-7144206D02*
X11650293Y-7184206D01*
X11650293Y-7144206D02*
X11610293Y-7184206D01*
X11673175Y-3739175D02*
X11713175Y-3779175D01*
X11713175Y-3739175D02*
X11673175Y-3779175D01*
X11759000Y-2977000D02*
X11799000Y-3017000D01*
X11799000Y-2977000D02*
X11759000Y-3017000D01*
X11791307Y-2577229D02*
X11831307Y-2617229D01*
X11831307Y-2577229D02*
X11791307Y-2617229D01*
X11928000Y-6797000D02*
X11968000Y-6837000D01*
X11968000Y-6797000D02*
X11928000Y-6837000D01*
X12064000Y-6796000D02*
X12104000Y-6836000D01*
X12104000Y-6796000D02*
X12064000Y-6836000D01*
X12148000Y-6889000D02*
X12188000Y-6929000D01*
X12188000Y-6889000D02*
X12148000Y-6929000D01*
D13*
X11510807Y-7331229D02*
G75*
G03*
X11510807Y-7331229I-37500J0D01*
G01*
X11510807Y-7531229D02*
G75*
G03*
X11510807Y-7531229I-37500J0D01*
G01*
X11510807Y-7731229D02*
G75*
G03*
X11510807Y-7731229I-37500J0D01*
G01*
D14*
X12059000Y-7312000D02*
X12059000Y-7402000D01*
X12014000Y-7357000D02*
X12104000Y-7357000D01*
X12059000Y-7512000D02*
X12059000Y-7602000D01*
X12014000Y-7557000D02*
X12104000Y-7557000D01*
X12059000Y-7712000D02*
X12059000Y-7802000D01*
X12014000Y-7757000D02*
X12104000Y-7757000D01*
D15*
X7330189Y-1621752D02*
X7330189Y-1551748D01*
X7260184Y-1551748D01*
X7260184Y-1621752D01*
X7330189Y-1621752D01*
X7830189Y-1621752D02*
X7830189Y-1551748D01*
X7760184Y-1551748D01*
X7760184Y-1621752D01*
X7830189Y-1621752D01*
D16*
X10575686Y-3051785D02*
X10630296Y-2997175D01*
X10575686Y-2942565D01*
X10521076Y-2997175D01*
X10575686Y-3051785D01*
X10575686Y-3305785D02*
X10630296Y-3251175D01*
X10575686Y-3196565D01*
X10521076Y-3251175D01*
X10575686Y-3305785D01*
X10575686Y-3559785D02*
X10630296Y-3505175D01*
X10575686Y-3450565D01*
X10521076Y-3505175D01*
X10575686Y-3559785D01*
X10575686Y-3813785D02*
X10630296Y-3759175D01*
X10575686Y-3704565D01*
X10521076Y-3759175D01*
X10575686Y-3813785D01*
X10575686Y-4067785D02*
X10630296Y-4013175D01*
X10575686Y-3958565D01*
X10521076Y-4013175D01*
X10575686Y-4067785D01*
X10575686Y-4321785D02*
X10630296Y-4267175D01*
X10575686Y-4212565D01*
X10521076Y-4267175D01*
X10575686Y-4321785D01*
X10575686Y-4575785D02*
X10630296Y-4521175D01*
X10575686Y-4466565D01*
X10521076Y-4521175D01*
X10575686Y-4575785D01*
X10575686Y-4829785D02*
X10630296Y-4775175D01*
X10575686Y-4720565D01*
X10521076Y-4775175D01*
X10575686Y-4829785D01*
X10575686Y-5083785D02*
X10630296Y-5029175D01*
X10575686Y-4974565D01*
X10521076Y-5029175D01*
X10575686Y-5083785D01*
X10575686Y-5337785D02*
X10630296Y-5283175D01*
X10575686Y-5228565D01*
X10521076Y-5283175D01*
X10575686Y-5337785D01*
X10575686Y-5591785D02*
X10630296Y-5537175D01*
X10575686Y-5482565D01*
X10521076Y-5537175D01*
X10575686Y-5591785D01*
X10575686Y-5845785D02*
X10630296Y-5791175D01*
X10575686Y-5736565D01*
X10521076Y-5791175D01*
X10575686Y-5845785D01*
X10807307Y-6644839D02*
X10861917Y-6590229D01*
X10807307Y-6535619D01*
X10752697Y-6590229D01*
X10807307Y-6644839D01*
X10829686Y-5337785D02*
X10884296Y-5283175D01*
X10829686Y-5228565D01*
X10775076Y-5283175D01*
X10829686Y-5337785D01*
X11061307Y-6644839D02*
X11115917Y-6590229D01*
X11061307Y-6535619D01*
X11006697Y-6590229D01*
X11061307Y-6644839D01*
X11083686Y-5337785D02*
X11138296Y-5283175D01*
X11083686Y-5228565D01*
X11029076Y-5283175D01*
X11083686Y-5337785D01*
X11315307Y-6644839D02*
X11369917Y-6590229D01*
X11315307Y-6535619D01*
X11260697Y-6590229D01*
X11315307Y-6644839D01*
X11337686Y-5337785D02*
X11392296Y-5283175D01*
X11337686Y-5228565D01*
X11283076Y-5283175D01*
X11337686Y-5337785D01*
X11569307Y-6644839D02*
X11623917Y-6590229D01*
X11569307Y-6535619D01*
X11514697Y-6590229D01*
X11569307Y-6644839D01*
X11823307Y-6644839D02*
X11877917Y-6590229D01*
X11823307Y-6535619D01*
X11768697Y-6590229D01*
X11823307Y-6644839D01*
X12099686Y-3051785D02*
X12154296Y-2997175D01*
X12099686Y-2942565D01*
X12045076Y-2997175D01*
X12099686Y-3051785D01*
X12099686Y-3305785D02*
X12154296Y-3251175D01*
X12099686Y-3196565D01*
X12045076Y-3251175D01*
X12099686Y-3305785D01*
X12099686Y-3559785D02*
X12154296Y-3505175D01*
X12099686Y-3450565D01*
X12045076Y-3505175D01*
X12099686Y-3559785D01*
X12099686Y-3813785D02*
X12154296Y-3759175D01*
X12099686Y-3704565D01*
X12045076Y-3759175D01*
X12099686Y-3813785D01*
X12099686Y-4067785D02*
X12154296Y-4013175D01*
X12099686Y-3958565D01*
X12045076Y-4013175D01*
X12099686Y-4067785D01*
X12099686Y-4321785D02*
X12154296Y-4267175D01*
X12099686Y-4212565D01*
X12045076Y-4267175D01*
X12099686Y-4321785D01*
X12099686Y-4575785D02*
X12154296Y-4521175D01*
X12099686Y-4466565D01*
X12045076Y-4521175D01*
X12099686Y-4575785D01*
X12099686Y-4829785D02*
X12154296Y-4775175D01*
X12099686Y-4720565D01*
X12045076Y-4775175D01*
X12099686Y-4829785D01*
X12099686Y-5083785D02*
X12154296Y-5029175D01*
X12099686Y-4974565D01*
X12045076Y-5029175D01*
X12099686Y-5083785D01*
X12099686Y-5337785D02*
X12154296Y-5283175D01*
X12099686Y-5228565D01*
X12045076Y-5283175D01*
X12099686Y-5337785D01*
X12099686Y-5591785D02*
X12154296Y-5537175D01*
X12099686Y-5482565D01*
X12045076Y-5537175D01*
X12099686Y-5591785D01*
X12099686Y-5845785D02*
X12154296Y-5791175D01*
X12099686Y-5736565D01*
X12045076Y-5791175D01*
X12099686Y-5845785D01*
D17*
X1689186Y-3677000D02*
X1836186Y-3824000D01*
X1836186Y-3677000D02*
X1689186Y-3824000D01*
X1836186Y-3750500D02*
G75*
G03*
X1836186Y-3750500I-73500J0D01*
G01*
X1689186Y-5377000D02*
X1836186Y-5524000D01*
X1836186Y-5377000D02*
X1689186Y-5524000D01*
X1836186Y-5450500D02*
G75*
G03*
X1836186Y-5450500I-73500J0D01*
G01*
X1689186Y-7077000D02*
X1836186Y-7224000D01*
X1836186Y-7077000D02*
X1689186Y-7224000D01*
X1836186Y-7150500D02*
G75*
G03*
X1836186Y-7150500I-73500J0D01*
G01*
X2189187Y-3467000D02*
X2336187Y-3614000D01*
X2336187Y-3467000D02*
X2189187Y-3614000D01*
X2336187Y-3540500D02*
G75*
G03*
X2336187Y-3540500I-73500J0D01*
G01*
X2189187Y-5167000D02*
X2336187Y-5314000D01*
X2336187Y-5167000D02*
X2189187Y-5314000D01*
X2336187Y-5240500D02*
G75*
G03*
X2336187Y-5240500I-73500J0D01*
G01*
X2189187Y-6867000D02*
X2336187Y-7014000D01*
X2336187Y-6867000D02*
X2189187Y-7014000D01*
X2336187Y-6940500D02*
G75*
G03*
X2336187Y-6940500I-73500J0D01*
G01*
X2689187Y-3677000D02*
X2836186Y-3824000D01*
X2836186Y-3677000D02*
X2689187Y-3824000D01*
X2836186Y-3750500D02*
G75*
G03*
X2836186Y-3750500I-73500J0D01*
G01*
X2689187Y-5377000D02*
X2836186Y-5524000D01*
X2836186Y-5377000D02*
X2689187Y-5524000D01*
X2836186Y-5450500D02*
G75*
G03*
X2836186Y-5450500I-73500J0D01*
G01*
X2689187Y-7077000D02*
X2836186Y-7224000D01*
X2836186Y-7077000D02*
X2689187Y-7224000D01*
X2836186Y-7150500D02*
G75*
G03*
X2836186Y-7150500I-73500J0D01*
G01*
X3489186Y-5876200D02*
X3636186Y-6023200D01*
X3636186Y-5876200D02*
X3489186Y-6023200D01*
X3636186Y-5949700D02*
G75*
G03*
X3636186Y-5949700I-73500J0D01*
G01*
X3489187Y-2477000D02*
X3636187Y-2624000D01*
X3636187Y-2477000D02*
X3489187Y-2624000D01*
X3636187Y-2550500D02*
G75*
G03*
X3636187Y-2550500I-73500J0D01*
G01*
X3489187Y-4174400D02*
X3636187Y-4321400D01*
X3636187Y-4174400D02*
X3489187Y-4321400D01*
X3636187Y-4247900D02*
G75*
G03*
X3636187Y-4247900I-73500J0D01*
G01*
X3989186Y-5666200D02*
X4136186Y-5813200D01*
X4136186Y-5666200D02*
X3989186Y-5813200D01*
X4136186Y-5739700D02*
G75*
G03*
X4136186Y-5739700I-73500J0D01*
G01*
X3989187Y-2267000D02*
X4136187Y-2414000D01*
X4136187Y-2267000D02*
X3989187Y-2414000D01*
X4136187Y-2340500D02*
G75*
G03*
X4136187Y-2340500I-73500J0D01*
G01*
X3989187Y-3964400D02*
X4136187Y-4111400D01*
X4136187Y-3964400D02*
X3989187Y-4111400D01*
X4136187Y-4037900D02*
G75*
G03*
X4136187Y-4037900I-73500J0D01*
G01*
X4489186Y-5876200D02*
X4636186Y-6023200D01*
X4636186Y-5876200D02*
X4489186Y-6023200D01*
X4636186Y-5949700D02*
G75*
G03*
X4636186Y-5949700I-73500J0D01*
G01*
X4489187Y-2477000D02*
X4636187Y-2624000D01*
X4636187Y-2477000D02*
X4489187Y-2624000D01*
X4636187Y-2550500D02*
G75*
G03*
X4636187Y-2550500I-73500J0D01*
G01*
X4489187Y-4174400D02*
X4636187Y-4321400D01*
X4636187Y-4174400D02*
X4489187Y-4321400D01*
X4636187Y-4247900D02*
G75*
G03*
X4636187Y-4247900I-73500J0D01*
G01*
X5289186Y-5190400D02*
X5436186Y-5337400D01*
X5436186Y-5190400D02*
X5289186Y-5337400D01*
X5436186Y-5263900D02*
G75*
G03*
X5436186Y-5263900I-73500J0D01*
G01*
X5289186Y-1777000D02*
X5436186Y-1924000D01*
X5436186Y-1777000D02*
X5289186Y-1924000D01*
X5436186Y-1850500D02*
G75*
G03*
X5436186Y-1850500I-73500J0D01*
G01*
X5289187Y-3488600D02*
X5436187Y-3635600D01*
X5436187Y-3488600D02*
X5289187Y-3635600D01*
X5436187Y-3562100D02*
G75*
G03*
X5436187Y-3562100I-73500J0D01*
G01*
X5789186Y-4980400D02*
X5936186Y-5127400D01*
X5936186Y-4980400D02*
X5789186Y-5127400D01*
X5936186Y-5053900D02*
G75*
G03*
X5936186Y-5053900I-73500J0D01*
G01*
X5789186Y-1567000D02*
X5936186Y-1714000D01*
X5936186Y-1567000D02*
X5789186Y-1714000D01*
X5936186Y-1640500D02*
G75*
G03*
X5936186Y-1640500I-73500J0D01*
G01*
X5789187Y-3278600D02*
X5936187Y-3425600D01*
X5936187Y-3278600D02*
X5789187Y-3425600D01*
X5936187Y-3352100D02*
G75*
G03*
X5936187Y-3352100I-73500J0D01*
G01*
X6289186Y-5190400D02*
X6436186Y-5337400D01*
X6436186Y-5190400D02*
X6289186Y-5337400D01*
X6436186Y-5263900D02*
G75*
G03*
X6436186Y-5263900I-73500J0D01*
G01*
X6289186Y-1777000D02*
X6436186Y-1924000D01*
X6436186Y-1777000D02*
X6289186Y-1924000D01*
X6436186Y-1850500D02*
G75*
G03*
X6436186Y-1850500I-73500J0D01*
G01*
X6289187Y-3488600D02*
X6436187Y-3635600D01*
X6436187Y-3488600D02*
X6289187Y-3635600D01*
X6436187Y-3562100D02*
G75*
G03*
X6436187Y-3562100I-73500J0D01*
G01*
X7029208Y-7564868D02*
X7176208Y-7711868D01*
X7176208Y-7564868D02*
X7029208Y-7711868D01*
X7176208Y-7638368D02*
G75*
G03*
X7176208Y-7638368I-73500J0D01*
G01*
X7089186Y-2327000D02*
X7236186Y-2474000D01*
X7236186Y-2327000D02*
X7089186Y-2474000D01*
X7236186Y-2400500D02*
G75*
G03*
X7236186Y-2400500I-73500J0D01*
G01*
X7089186Y-5723800D02*
X7236186Y-5870800D01*
X7236186Y-5723800D02*
X7089186Y-5870800D01*
X7236186Y-5797300D02*
G75*
G03*
X7236186Y-5797300I-73500J0D01*
G01*
X7089187Y-4022000D02*
X7236187Y-4169000D01*
X7236187Y-4022000D02*
X7089187Y-4169000D01*
X7236187Y-4095500D02*
G75*
G03*
X7236187Y-4095500I-73500J0D01*
G01*
X7545608Y-7399245D02*
X7692608Y-7546245D01*
X7692608Y-7399245D02*
X7545608Y-7546245D01*
X7692608Y-7472745D02*
G75*
G03*
X7692608Y-7472745I-73500J0D01*
G01*
X7589186Y-2117000D02*
X7736186Y-2264000D01*
X7736186Y-2117000D02*
X7589186Y-2264000D01*
X7736186Y-2190500D02*
G75*
G03*
X7736186Y-2190500I-73500J0D01*
G01*
X7589186Y-5513801D02*
X7736186Y-5660800D01*
X7736186Y-5513801D02*
X7589186Y-5660800D01*
X7736186Y-5587301D02*
G75*
G03*
X7736186Y-5587301I-73500J0D01*
G01*
X7589187Y-3812000D02*
X7736187Y-3959000D01*
X7736187Y-3812000D02*
X7589187Y-3959000D01*
X7736187Y-3885500D02*
G75*
G03*
X7736187Y-3885500I-73500J0D01*
G01*
X8025403Y-7652024D02*
X8172403Y-7799024D01*
X8172403Y-7652024D02*
X8025403Y-7799024D01*
X8172403Y-7725524D02*
G75*
G03*
X8172403Y-7725524I-73500J0D01*
G01*
X8089186Y-2327000D02*
X8236186Y-2474000D01*
X8236186Y-2327000D02*
X8089186Y-2474000D01*
X8236186Y-2400500D02*
G75*
G03*
X8236186Y-2400500I-73500J0D01*
G01*
X8089186Y-5723800D02*
X8236186Y-5870800D01*
X8236186Y-5723800D02*
X8089186Y-5870800D01*
X8236186Y-5797300D02*
G75*
G03*
X8236186Y-5797300I-73500J0D01*
G01*
X8089187Y-4022000D02*
X8236187Y-4169000D01*
X8236187Y-4022000D02*
X8089187Y-4169000D01*
X8236187Y-4095500D02*
G75*
G03*
X8236187Y-4095500I-73500J0D01*
G01*
X8886552Y-5977800D02*
X9033552Y-6124800D01*
X9033552Y-5977800D02*
X8886552Y-6124800D01*
X9033552Y-6051300D02*
G75*
G03*
X9033552Y-6051300I-73500J0D01*
G01*
X8887187Y-4276000D02*
X9034187Y-4423000D01*
X9034187Y-4276000D02*
X8887187Y-4423000D01*
X9034187Y-4349500D02*
G75*
G03*
X9034187Y-4349500I-73500J0D01*
G01*
X8889186Y-2577000D02*
X9036186Y-2724000D01*
X9036186Y-2577000D02*
X8889186Y-2724000D01*
X9036186Y-2650500D02*
G75*
G03*
X9036186Y-2650500I-73500J0D01*
G01*
X9034575Y-7830539D02*
X9181575Y-7977539D01*
X9181575Y-7830539D02*
X9034575Y-7977539D01*
X9181575Y-7904039D02*
G75*
G03*
X9181575Y-7904039I-73500J0D01*
G01*
X9386552Y-5767800D02*
X9533552Y-5914800D01*
X9533552Y-5767800D02*
X9386552Y-5914800D01*
X9533552Y-5841300D02*
G75*
G03*
X9533552Y-5841300I-73500J0D01*
G01*
X9387187Y-4066000D02*
X9534187Y-4213000D01*
X9534187Y-4066000D02*
X9387187Y-4213000D01*
X9534187Y-4139500D02*
G75*
G03*
X9534187Y-4139500I-73500J0D01*
G01*
X9389186Y-2367000D02*
X9536186Y-2514000D01*
X9536186Y-2367000D02*
X9389186Y-2514000D01*
X9536186Y-2440500D02*
G75*
G03*
X9536186Y-2440500I-73500J0D01*
G01*
X9571890Y-7757104D02*
X9718890Y-7904104D01*
X9718890Y-7757104D02*
X9571890Y-7904104D01*
X9718890Y-7830604D02*
G75*
G03*
X9718890Y-7830604I-73500J0D01*
G01*
X9886552Y-5977800D02*
X10033552Y-6124800D01*
X10033552Y-5977800D02*
X9886552Y-6124800D01*
X10033552Y-6051300D02*
G75*
G03*
X10033552Y-6051300I-73500J0D01*
G01*
X9887187Y-4276000D02*
X10034187Y-4423000D01*
X10034187Y-4276000D02*
X9887187Y-4423000D01*
X10034187Y-4349500D02*
G75*
G03*
X10034187Y-4349500I-73500J0D01*
G01*
X9889186Y-2577000D02*
X10036186Y-2724000D01*
X10036186Y-2577000D02*
X9889186Y-2724000D01*
X10036186Y-2650500D02*
G75*
G03*
X10036186Y-2650500I-73500J0D01*
G01*
X10000501Y-8089358D02*
X10147501Y-8236358D01*
X10147501Y-8089358D02*
X10000501Y-8236358D01*
X10147501Y-8162858D02*
G75*
G03*
X10147501Y-8162858I-73500J0D01*
G01*
X10966628Y-8441294D02*
X11113628Y-8588294D01*
X11113628Y-8441294D02*
X10966628Y-8588294D01*
X11113628Y-8514794D02*
G75*
G03*
X11113628Y-8514794I-73500J0D01*
G01*
X11508531Y-8462278D02*
X11655531Y-8609278D01*
X11655531Y-8462278D02*
X11508531Y-8609278D01*
X11655531Y-8535778D02*
G75*
G03*
X11655531Y-8535778I-73500J0D01*
G01*
X11872935Y-8863912D02*
X12019935Y-9010912D01*
X12019935Y-8863912D02*
X11872935Y-9010912D01*
X12019935Y-8937412D02*
G75*
G03*
X12019935Y-8937412I-73500J0D01*
G01*
D18*
X11984000Y-7072000D02*
X12134000Y-7222000D01*
X12134000Y-7072000D02*
X11984000Y-7222000D01*
X12059000Y-7072000D02*
X12059000Y-7222000D01*
X11984000Y-7147000D02*
X12134000Y-7147000D01*
X11984000Y-7892000D02*
X12134000Y-8042000D01*
X12134000Y-7892000D02*
X11984000Y-8042000D01*
X12059000Y-7892000D02*
X12059000Y-8042000D01*
X11984000Y-7967000D02*
X12134000Y-7967000D01*
D19*
X4797687Y-3710500D02*
X5017687Y-3930500D01*
X5017687Y-3710500D02*
X4797687Y-3930500D01*
X4985469Y-3898283D02*
X4985469Y-3742718D01*
X4829904Y-3742718D01*
X4829904Y-3898283D01*
X4985469Y-3898283D01*
X6702687Y-1805500D02*
X6922687Y-2025500D01*
X6922687Y-1805500D02*
X6702687Y-2025500D01*
X6890469Y-1993283D02*
X6890469Y-1837718D01*
X6734904Y-1837718D01*
X6734904Y-1993283D01*
X6890469Y-1993283D01*
X6702687Y-5615500D02*
X6922687Y-5835500D01*
X6922687Y-5615500D02*
X6702687Y-5835500D01*
X6890469Y-5803283D02*
X6890469Y-5647718D01*
X6734904Y-5647718D01*
X6734904Y-5803283D01*
X6890469Y-5803283D01*
X8607687Y-3710500D02*
X8827687Y-3930500D01*
X8827687Y-3710500D02*
X8607687Y-3930500D01*
X8795469Y-3898283D02*
X8795469Y-3742718D01*
X8639904Y-3742718D01*
X8639904Y-3898283D01*
X8795469Y-3898283D01*
D11*
X1478811Y-10543263D02*
X1478811Y-10343263D01*
X1526430Y-10343263D01*
X1555001Y-10352787D01*
X1574049Y-10371835D01*
X1583573Y-10390882D01*
X1593096Y-10428978D01*
X1593096Y-10457549D01*
X1583573Y-10495644D01*
X1574049Y-10514692D01*
X1555001Y-10533739D01*
X1526430Y-10543263D01*
X1478811Y-10543263D01*
X1678811Y-10543263D02*
X1678811Y-10409930D01*
X1678811Y-10448025D02*
X1688335Y-10428978D01*
X1697858Y-10419454D01*
X1716906Y-10409930D01*
X1735954Y-10409930D01*
X1802620Y-10543263D02*
X1802620Y-10409930D01*
X1802620Y-10343263D02*
X1793096Y-10352787D01*
X1802620Y-10362311D01*
X1812144Y-10352787D01*
X1802620Y-10343263D01*
X1802620Y-10362311D01*
X1926430Y-10543263D02*
X1907382Y-10533739D01*
X1897858Y-10514692D01*
X1897858Y-10343263D01*
X2031192Y-10543263D02*
X2012144Y-10533739D01*
X2002620Y-10514692D01*
X2002620Y-10343263D01*
X2259763Y-10543263D02*
X2259763Y-10343263D01*
X2326430Y-10486120D01*
X2393097Y-10343263D01*
X2393097Y-10543263D01*
X2574049Y-10543263D02*
X2574049Y-10438501D01*
X2564525Y-10419454D01*
X2545478Y-10409930D01*
X2507382Y-10409930D01*
X2488335Y-10419454D01*
X2574049Y-10533739D02*
X2555001Y-10543263D01*
X2507382Y-10543263D01*
X2488335Y-10533739D01*
X2478811Y-10514692D01*
X2478811Y-10495644D01*
X2488335Y-10476597D01*
X2507382Y-10467073D01*
X2555001Y-10467073D01*
X2574049Y-10457549D01*
X2669287Y-10409930D02*
X2669287Y-10609930D01*
X2669287Y-10419454D02*
X2688335Y-10409930D01*
X2726430Y-10409930D01*
X2745478Y-10419454D01*
X2755001Y-10428978D01*
X2764525Y-10448025D01*
X2764525Y-10505168D01*
X2755001Y-10524216D01*
X2745478Y-10533739D01*
X2726430Y-10543263D01*
X2688335Y-10543263D01*
X2669287Y-10533739D01*
X2850239Y-10524216D02*
X2859763Y-10533739D01*
X2850239Y-10543263D01*
X2840716Y-10533739D01*
X2850239Y-10524216D01*
X2850239Y-10543263D01*
X2850239Y-10419454D02*
X2859763Y-10428978D01*
X2850239Y-10438501D01*
X2840716Y-10428978D01*
X2850239Y-10419454D01*
X2850239Y-10438501D01*
D12*
X1181192Y-10852787D02*
X1221192Y-10892787D01*
X1221192Y-10852787D02*
X1181192Y-10892787D01*
D11*
X1516906Y-10763263D02*
X1535954Y-10763263D01*
X1555001Y-10772787D01*
X1564525Y-10782311D01*
X1574049Y-10801359D01*
X1583573Y-10839454D01*
X1583573Y-10887073D01*
X1574049Y-10925168D01*
X1564525Y-10944216D01*
X1555001Y-10953739D01*
X1535954Y-10963263D01*
X1516906Y-10963263D01*
X1497858Y-10953739D01*
X1488335Y-10944216D01*
X1478811Y-10925168D01*
X1469287Y-10887073D01*
X1469287Y-10839454D01*
X1478811Y-10801359D01*
X1488335Y-10782311D01*
X1497858Y-10772787D01*
X1516906Y-10763263D01*
X1669287Y-10944216D02*
X1678811Y-10953739D01*
X1669287Y-10963263D01*
X1659763Y-10953739D01*
X1669287Y-10944216D01*
X1669287Y-10963263D01*
X1850239Y-10829930D02*
X1850239Y-10963263D01*
X1802620Y-10753739D02*
X1755001Y-10896597D01*
X1878811Y-10896597D01*
X1993096Y-10763263D02*
X2012144Y-10763263D01*
X2031192Y-10772787D01*
X2040716Y-10782311D01*
X2050239Y-10801359D01*
X2059763Y-10839454D01*
X2059763Y-10887073D01*
X2050239Y-10925168D01*
X2040716Y-10944216D01*
X2031192Y-10953739D01*
X2012144Y-10963263D01*
X1993096Y-10963263D01*
X1974049Y-10953739D01*
X1964525Y-10944216D01*
X1955001Y-10925168D01*
X1945477Y-10887073D01*
X1945477Y-10839454D01*
X1955001Y-10801359D01*
X1964525Y-10782311D01*
X1974049Y-10772787D01*
X1993096Y-10763263D01*
X2183573Y-10763263D02*
X2202620Y-10763263D01*
X2221668Y-10772787D01*
X2231192Y-10782311D01*
X2240716Y-10801359D01*
X2250239Y-10839454D01*
X2250239Y-10887073D01*
X2240716Y-10925168D01*
X2231192Y-10944216D01*
X2221668Y-10953739D01*
X2202620Y-10963263D01*
X2183573Y-10963263D01*
X2164525Y-10953739D01*
X2155001Y-10944216D01*
X2145478Y-10925168D01*
X2135954Y-10887073D01*
X2135954Y-10839454D01*
X2145478Y-10801359D01*
X2155001Y-10782311D01*
X2164525Y-10772787D01*
X2183573Y-10763263D01*
X2335954Y-10963263D02*
X2335954Y-10829930D01*
X2335954Y-10848978D02*
X2345478Y-10839454D01*
X2364525Y-10829930D01*
X2393097Y-10829930D01*
X2412144Y-10839454D01*
X2421668Y-10858501D01*
X2421668Y-10963263D01*
X2421668Y-10858501D02*
X2431192Y-10839454D01*
X2450239Y-10829930D01*
X2478811Y-10829930D01*
X2497858Y-10839454D01*
X2507382Y-10858501D01*
X2507382Y-10963263D01*
X2602620Y-10963263D02*
X2602620Y-10829930D01*
X2602620Y-10848978D02*
X2612144Y-10839454D01*
X2631192Y-10829930D01*
X2659763Y-10829930D01*
X2678811Y-10839454D01*
X2688335Y-10858501D01*
X2688335Y-10963263D01*
X2688335Y-10858501D02*
X2697858Y-10839454D01*
X2716906Y-10829930D01*
X2745478Y-10829930D01*
X2764525Y-10839454D01*
X2774049Y-10858501D01*
X2774049Y-10963263D01*
X3164525Y-10753739D02*
X2993096Y-11010882D01*
X3421668Y-10763263D02*
X3440716Y-10763263D01*
X3459763Y-10772787D01*
X3469287Y-10782311D01*
X3478811Y-10801359D01*
X3488335Y-10839454D01*
X3488335Y-10887073D01*
X3478811Y-10925168D01*
X3469287Y-10944216D01*
X3459763Y-10953739D01*
X3440716Y-10963263D01*
X3421668Y-10963263D01*
X3402620Y-10953739D01*
X3393096Y-10944216D01*
X3383573Y-10925168D01*
X3374049Y-10887073D01*
X3374049Y-10839454D01*
X3383573Y-10801359D01*
X3393096Y-10782311D01*
X3402620Y-10772787D01*
X3421668Y-10763263D01*
X3574049Y-10944216D02*
X3583573Y-10953739D01*
X3574049Y-10963263D01*
X3564525Y-10953739D01*
X3574049Y-10944216D01*
X3574049Y-10963263D01*
X3707382Y-10763263D02*
X3726430Y-10763263D01*
X3745477Y-10772787D01*
X3755001Y-10782311D01*
X3764525Y-10801359D01*
X3774049Y-10839454D01*
X3774049Y-10887073D01*
X3764525Y-10925168D01*
X3755001Y-10944216D01*
X3745477Y-10953739D01*
X3726430Y-10963263D01*
X3707382Y-10963263D01*
X3688335Y-10953739D01*
X3678811Y-10944216D01*
X3669287Y-10925168D01*
X3659763Y-10887073D01*
X3659763Y-10839454D01*
X3669287Y-10801359D01*
X3678811Y-10782311D01*
X3688335Y-10772787D01*
X3707382Y-10763263D01*
X3964525Y-10963263D02*
X3850239Y-10963263D01*
X3907382Y-10963263D02*
X3907382Y-10763263D01*
X3888335Y-10791835D01*
X3869287Y-10810882D01*
X3850239Y-10820406D01*
X4145477Y-10763263D02*
X4050239Y-10763263D01*
X4040716Y-10858501D01*
X4050239Y-10848978D01*
X4069287Y-10839454D01*
X4116906Y-10839454D01*
X4135954Y-10848978D01*
X4145477Y-10858501D01*
X4155001Y-10877549D01*
X4155001Y-10925168D01*
X4145477Y-10944216D01*
X4135954Y-10953739D01*
X4116906Y-10963263D01*
X4069287Y-10963263D01*
X4050239Y-10953739D01*
X4040716Y-10944216D01*
X4221668Y-10763263D02*
X4355001Y-10763263D01*
X4269287Y-10963263D01*
X4421668Y-10763263D02*
X4421668Y-10801359D01*
X4497858Y-10763263D02*
X4497858Y-10801359D01*
X4793097Y-11039454D02*
X4783573Y-11029930D01*
X4764525Y-11001359D01*
X4755001Y-10982311D01*
X4745478Y-10953739D01*
X4735954Y-10906120D01*
X4735954Y-10868025D01*
X4745478Y-10820406D01*
X4755001Y-10791835D01*
X4764525Y-10772787D01*
X4783573Y-10744216D01*
X4793097Y-10734692D01*
X4964525Y-10763263D02*
X4869287Y-10763263D01*
X4859763Y-10858501D01*
X4869287Y-10848978D01*
X4888335Y-10839454D01*
X4935954Y-10839454D01*
X4955001Y-10848978D01*
X4964525Y-10858501D01*
X4974049Y-10877549D01*
X4974049Y-10925168D01*
X4964525Y-10944216D01*
X4955001Y-10953739D01*
X4935954Y-10963263D01*
X4888335Y-10963263D01*
X4869287Y-10953739D01*
X4859763Y-10944216D01*
X5145478Y-10763263D02*
X5107382Y-10763263D01*
X5088335Y-10772787D01*
X5078811Y-10782311D01*
X5059763Y-10810882D01*
X5050239Y-10848978D01*
X5050239Y-10925168D01*
X5059763Y-10944216D01*
X5069287Y-10953739D01*
X5088335Y-10963263D01*
X5126430Y-10963263D01*
X5145478Y-10953739D01*
X5155001Y-10944216D01*
X5164525Y-10925168D01*
X5164525Y-10877549D01*
X5155001Y-10858501D01*
X5145478Y-10848978D01*
X5126430Y-10839454D01*
X5088335Y-10839454D01*
X5069287Y-10848978D01*
X5059763Y-10858501D01*
X5050239Y-10877549D01*
X5402620Y-10963263D02*
X5402620Y-10763263D01*
X5488335Y-10963263D02*
X5488335Y-10858501D01*
X5478811Y-10839454D01*
X5459763Y-10829930D01*
X5431192Y-10829930D01*
X5412144Y-10839454D01*
X5402620Y-10848978D01*
X5612144Y-10963263D02*
X5593096Y-10953739D01*
X5583573Y-10944216D01*
X5574049Y-10925168D01*
X5574049Y-10868025D01*
X5583573Y-10848978D01*
X5593096Y-10839454D01*
X5612144Y-10829930D01*
X5640716Y-10829930D01*
X5659763Y-10839454D01*
X5669287Y-10848978D01*
X5678811Y-10868025D01*
X5678811Y-10925168D01*
X5669287Y-10944216D01*
X5659763Y-10953739D01*
X5640716Y-10963263D01*
X5612144Y-10963263D01*
X5793096Y-10963263D02*
X5774049Y-10953739D01*
X5764525Y-10934692D01*
X5764525Y-10763263D01*
X5945477Y-10953739D02*
X5926430Y-10963263D01*
X5888335Y-10963263D01*
X5869287Y-10953739D01*
X5859763Y-10934692D01*
X5859763Y-10858501D01*
X5869287Y-10839454D01*
X5888335Y-10829930D01*
X5926430Y-10829930D01*
X5945477Y-10839454D01*
X5955001Y-10858501D01*
X5955001Y-10877549D01*
X5859763Y-10896597D01*
X6031192Y-10953739D02*
X6050239Y-10963263D01*
X6088335Y-10963263D01*
X6107382Y-10953739D01*
X6116906Y-10934692D01*
X6116906Y-10925168D01*
X6107382Y-10906120D01*
X6088335Y-10896597D01*
X6059763Y-10896597D01*
X6040716Y-10887073D01*
X6031192Y-10868025D01*
X6031192Y-10858501D01*
X6040716Y-10839454D01*
X6059763Y-10829930D01*
X6088335Y-10829930D01*
X6107382Y-10839454D01*
X6183573Y-11039454D02*
X6193096Y-11029930D01*
X6212144Y-11001359D01*
X6221668Y-10982311D01*
X6231192Y-10953739D01*
X6240716Y-10906120D01*
X6240716Y-10868025D01*
X6231192Y-10820406D01*
X6221668Y-10791835D01*
X6212144Y-10772787D01*
X6193096Y-10744216D01*
X6183573Y-10734692D01*
D13*
X1221192Y-11136787D02*
G75*
G03*
X1221192Y-11136787I-37500J0D01*
G01*
D11*
X1516906Y-11027263D02*
X1535954Y-11027263D01*
X1555001Y-11036787D01*
X1564525Y-11046311D01*
X1574049Y-11065359D01*
X1583573Y-11103454D01*
X1583573Y-11151073D01*
X1574049Y-11189168D01*
X1564525Y-11208216D01*
X1555001Y-11217739D01*
X1535954Y-11227263D01*
X1516906Y-11227263D01*
X1497858Y-11217739D01*
X1488335Y-11208216D01*
X1478811Y-11189168D01*
X1469287Y-11151073D01*
X1469287Y-11103454D01*
X1478811Y-11065359D01*
X1488335Y-11046311D01*
X1497858Y-11036787D01*
X1516906Y-11027263D01*
X1669287Y-11208216D02*
X1678811Y-11217739D01*
X1669287Y-11227263D01*
X1659763Y-11217739D01*
X1669287Y-11208216D01*
X1669287Y-11227263D01*
X1745477Y-11027263D02*
X1878811Y-11027263D01*
X1793096Y-11227263D01*
X2050239Y-11027263D02*
X1955001Y-11027263D01*
X1945477Y-11122501D01*
X1955001Y-11112978D01*
X1974049Y-11103454D01*
X2021668Y-11103454D01*
X2040716Y-11112978D01*
X2050239Y-11122501D01*
X2059763Y-11141549D01*
X2059763Y-11189168D01*
X2050239Y-11208216D01*
X2040716Y-11217739D01*
X2021668Y-11227263D01*
X1974049Y-11227263D01*
X1955001Y-11217739D01*
X1945477Y-11208216D01*
X2183573Y-11027263D02*
X2202620Y-11027263D01*
X2221668Y-11036787D01*
X2231192Y-11046311D01*
X2240716Y-11065359D01*
X2250239Y-11103454D01*
X2250239Y-11151073D01*
X2240716Y-11189168D01*
X2231192Y-11208216D01*
X2221668Y-11217739D01*
X2202620Y-11227263D01*
X2183573Y-11227263D01*
X2164525Y-11217739D01*
X2155001Y-11208216D01*
X2145478Y-11189168D01*
X2135954Y-11151073D01*
X2135954Y-11103454D01*
X2145478Y-11065359D01*
X2155001Y-11046311D01*
X2164525Y-11036787D01*
X2183573Y-11027263D01*
X2335954Y-11227263D02*
X2335954Y-11093930D01*
X2335954Y-11112978D02*
X2345478Y-11103454D01*
X2364525Y-11093930D01*
X2393097Y-11093930D01*
X2412144Y-11103454D01*
X2421668Y-11122501D01*
X2421668Y-11227263D01*
X2421668Y-11122501D02*
X2431192Y-11103454D01*
X2450239Y-11093930D01*
X2478811Y-11093930D01*
X2497858Y-11103454D01*
X2507382Y-11122501D01*
X2507382Y-11227263D01*
X2602620Y-11227263D02*
X2602620Y-11093930D01*
X2602620Y-11112978D02*
X2612144Y-11103454D01*
X2631192Y-11093930D01*
X2659763Y-11093930D01*
X2678811Y-11103454D01*
X2688335Y-11122501D01*
X2688335Y-11227263D01*
X2688335Y-11122501D02*
X2697858Y-11103454D01*
X2716906Y-11093930D01*
X2745478Y-11093930D01*
X2764525Y-11103454D01*
X2774049Y-11122501D01*
X2774049Y-11227263D01*
X3164525Y-11017739D02*
X2993096Y-11274882D01*
X3421668Y-11027263D02*
X3440716Y-11027263D01*
X3459763Y-11036787D01*
X3469287Y-11046311D01*
X3478811Y-11065359D01*
X3488335Y-11103454D01*
X3488335Y-11151073D01*
X3478811Y-11189168D01*
X3469287Y-11208216D01*
X3459763Y-11217739D01*
X3440716Y-11227263D01*
X3421668Y-11227263D01*
X3402620Y-11217739D01*
X3393096Y-11208216D01*
X3383573Y-11189168D01*
X3374049Y-11151073D01*
X3374049Y-11103454D01*
X3383573Y-11065359D01*
X3393096Y-11046311D01*
X3402620Y-11036787D01*
X3421668Y-11027263D01*
X3574049Y-11208216D02*
X3583573Y-11217739D01*
X3574049Y-11227263D01*
X3564525Y-11217739D01*
X3574049Y-11208216D01*
X3574049Y-11227263D01*
X3707382Y-11027263D02*
X3726430Y-11027263D01*
X3745477Y-11036787D01*
X3755001Y-11046311D01*
X3764525Y-11065359D01*
X3774049Y-11103454D01*
X3774049Y-11151073D01*
X3764525Y-11189168D01*
X3755001Y-11208216D01*
X3745477Y-11217739D01*
X3726430Y-11227263D01*
X3707382Y-11227263D01*
X3688335Y-11217739D01*
X3678811Y-11208216D01*
X3669287Y-11189168D01*
X3659763Y-11151073D01*
X3659763Y-11103454D01*
X3669287Y-11065359D01*
X3678811Y-11046311D01*
X3688335Y-11036787D01*
X3707382Y-11027263D01*
X3850239Y-11046311D02*
X3859763Y-11036787D01*
X3878811Y-11027263D01*
X3926430Y-11027263D01*
X3945477Y-11036787D01*
X3955001Y-11046311D01*
X3964525Y-11065359D01*
X3964525Y-11084406D01*
X3955001Y-11112978D01*
X3840716Y-11227263D01*
X3964525Y-11227263D01*
X4059763Y-11227263D02*
X4097858Y-11227263D01*
X4116906Y-11217739D01*
X4126430Y-11208216D01*
X4145477Y-11179644D01*
X4155001Y-11141549D01*
X4155001Y-11065359D01*
X4145477Y-11046311D01*
X4135954Y-11036787D01*
X4116906Y-11027263D01*
X4078811Y-11027263D01*
X4059763Y-11036787D01*
X4050239Y-11046311D01*
X4040716Y-11065359D01*
X4040716Y-11112978D01*
X4050239Y-11132025D01*
X4059763Y-11141549D01*
X4078811Y-11151073D01*
X4116906Y-11151073D01*
X4135954Y-11141549D01*
X4145477Y-11132025D01*
X4155001Y-11112978D01*
X4335954Y-11027263D02*
X4240716Y-11027263D01*
X4231192Y-11122501D01*
X4240716Y-11112978D01*
X4259763Y-11103454D01*
X4307382Y-11103454D01*
X4326430Y-11112978D01*
X4335954Y-11122501D01*
X4345478Y-11141549D01*
X4345478Y-11189168D01*
X4335954Y-11208216D01*
X4326430Y-11217739D01*
X4307382Y-11227263D01*
X4259763Y-11227263D01*
X4240716Y-11217739D01*
X4231192Y-11208216D01*
X4421668Y-11027263D02*
X4421668Y-11065359D01*
X4497858Y-11027263D02*
X4497858Y-11065359D01*
X4793097Y-11303454D02*
X4783573Y-11293930D01*
X4764525Y-11265358D01*
X4755001Y-11246311D01*
X4745478Y-11217739D01*
X4735954Y-11170120D01*
X4735954Y-11132025D01*
X4745478Y-11084406D01*
X4755001Y-11055835D01*
X4764525Y-11036787D01*
X4783573Y-11008216D01*
X4793097Y-10998692D01*
X4850239Y-11027263D02*
X4974049Y-11027263D01*
X4907382Y-11103454D01*
X4935954Y-11103454D01*
X4955001Y-11112978D01*
X4964525Y-11122501D01*
X4974049Y-11141549D01*
X4974049Y-11189168D01*
X4964525Y-11208216D01*
X4955001Y-11217739D01*
X4935954Y-11227263D01*
X4878811Y-11227263D01*
X4859763Y-11217739D01*
X4850239Y-11208216D01*
X5212144Y-11227263D02*
X5212144Y-11027263D01*
X5297858Y-11227263D02*
X5297858Y-11122501D01*
X5288335Y-11103454D01*
X5269287Y-11093930D01*
X5240716Y-11093930D01*
X5221668Y-11103454D01*
X5212144Y-11112978D01*
X5421668Y-11227263D02*
X5402620Y-11217739D01*
X5393097Y-11208216D01*
X5383573Y-11189168D01*
X5383573Y-11132025D01*
X5393097Y-11112978D01*
X5402620Y-11103454D01*
X5421668Y-11093930D01*
X5450239Y-11093930D01*
X5469287Y-11103454D01*
X5478811Y-11112978D01*
X5488335Y-11132025D01*
X5488335Y-11189168D01*
X5478811Y-11208216D01*
X5469287Y-11217739D01*
X5450239Y-11227263D01*
X5421668Y-11227263D01*
X5602620Y-11227263D02*
X5583573Y-11217739D01*
X5574049Y-11198692D01*
X5574049Y-11027263D01*
X5755001Y-11217739D02*
X5735954Y-11227263D01*
X5697858Y-11227263D01*
X5678811Y-11217739D01*
X5669287Y-11198692D01*
X5669287Y-11122501D01*
X5678811Y-11103454D01*
X5697858Y-11093930D01*
X5735954Y-11093930D01*
X5755001Y-11103454D01*
X5764525Y-11122501D01*
X5764525Y-11141549D01*
X5669287Y-11160597D01*
X5840716Y-11217739D02*
X5859763Y-11227263D01*
X5897858Y-11227263D01*
X5916906Y-11217739D01*
X5926430Y-11198692D01*
X5926430Y-11189168D01*
X5916906Y-11170120D01*
X5897858Y-11160597D01*
X5869287Y-11160597D01*
X5850239Y-11151073D01*
X5840716Y-11132025D01*
X5840716Y-11122501D01*
X5850239Y-11103454D01*
X5869287Y-11093930D01*
X5897858Y-11093930D01*
X5916906Y-11103454D01*
X5993096Y-11303454D02*
X6002620Y-11293930D01*
X6021668Y-11265358D01*
X6031192Y-11246311D01*
X6040716Y-11217739D01*
X6050239Y-11170120D01*
X6050239Y-11132025D01*
X6040716Y-11084406D01*
X6031192Y-11055835D01*
X6021668Y-11036787D01*
X6002620Y-11008216D01*
X5993096Y-10998692D01*
D14*
X1176192Y-11355787D02*
X1176192Y-11445787D01*
X1131192Y-11400787D02*
X1221192Y-11400787D01*
D11*
X1516906Y-11291263D02*
X1535954Y-11291263D01*
X1555001Y-11300787D01*
X1564525Y-11310311D01*
X1574049Y-11329358D01*
X1583573Y-11367454D01*
X1583573Y-11415073D01*
X1574049Y-11453168D01*
X1564525Y-11472216D01*
X1555001Y-11481739D01*
X1535954Y-11491263D01*
X1516906Y-11491263D01*
X1497858Y-11481739D01*
X1488335Y-11472216D01*
X1478811Y-11453168D01*
X1469287Y-11415073D01*
X1469287Y-11367454D01*
X1478811Y-11329358D01*
X1488335Y-11310311D01*
X1497858Y-11300787D01*
X1516906Y-11291263D01*
X1669287Y-11472216D02*
X1678811Y-11481739D01*
X1669287Y-11491263D01*
X1659763Y-11481739D01*
X1669287Y-11472216D01*
X1669287Y-11491263D01*
X1774049Y-11491263D02*
X1812144Y-11491263D01*
X1831192Y-11481739D01*
X1840716Y-11472216D01*
X1859763Y-11443644D01*
X1869287Y-11405549D01*
X1869287Y-11329358D01*
X1859763Y-11310311D01*
X1850239Y-11300787D01*
X1831192Y-11291263D01*
X1793096Y-11291263D01*
X1774049Y-11300787D01*
X1764525Y-11310311D01*
X1755001Y-11329358D01*
X1755001Y-11376977D01*
X1764525Y-11396025D01*
X1774049Y-11405549D01*
X1793096Y-11415073D01*
X1831192Y-11415073D01*
X1850239Y-11405549D01*
X1859763Y-11396025D01*
X1869287Y-11376977D01*
X1993096Y-11291263D02*
X2012144Y-11291263D01*
X2031192Y-11300787D01*
X2040716Y-11310311D01*
X2050239Y-11329358D01*
X2059763Y-11367454D01*
X2059763Y-11415073D01*
X2050239Y-11453168D01*
X2040716Y-11472216D01*
X2031192Y-11481739D01*
X2012144Y-11491263D01*
X1993096Y-11491263D01*
X1974049Y-11481739D01*
X1964525Y-11472216D01*
X1955001Y-11453168D01*
X1945477Y-11415073D01*
X1945477Y-11367454D01*
X1955001Y-11329358D01*
X1964525Y-11310311D01*
X1974049Y-11300787D01*
X1993096Y-11291263D01*
X2183573Y-11291263D02*
X2202620Y-11291263D01*
X2221668Y-11300787D01*
X2231192Y-11310311D01*
X2240716Y-11329358D01*
X2250239Y-11367454D01*
X2250239Y-11415073D01*
X2240716Y-11453168D01*
X2231192Y-11472216D01*
X2221668Y-11481739D01*
X2202620Y-11491263D01*
X2183573Y-11491263D01*
X2164525Y-11481739D01*
X2155001Y-11472216D01*
X2145478Y-11453168D01*
X2135954Y-11415073D01*
X2135954Y-11367454D01*
X2145478Y-11329358D01*
X2155001Y-11310311D01*
X2164525Y-11300787D01*
X2183573Y-11291263D01*
X2335954Y-11491263D02*
X2335954Y-11357930D01*
X2335954Y-11376977D02*
X2345478Y-11367454D01*
X2364525Y-11357930D01*
X2393097Y-11357930D01*
X2412144Y-11367454D01*
X2421668Y-11386501D01*
X2421668Y-11491263D01*
X2421668Y-11386501D02*
X2431192Y-11367454D01*
X2450239Y-11357930D01*
X2478811Y-11357930D01*
X2497858Y-11367454D01*
X2507382Y-11386501D01*
X2507382Y-11491263D01*
X2602620Y-11491263D02*
X2602620Y-11357930D01*
X2602620Y-11376977D02*
X2612144Y-11367454D01*
X2631192Y-11357930D01*
X2659763Y-11357930D01*
X2678811Y-11367454D01*
X2688335Y-11386501D01*
X2688335Y-11491263D01*
X2688335Y-11386501D02*
X2697858Y-11367454D01*
X2716906Y-11357930D01*
X2745478Y-11357930D01*
X2764525Y-11367454D01*
X2774049Y-11386501D01*
X2774049Y-11491263D01*
X3164525Y-11281739D02*
X2993096Y-11538882D01*
X3421668Y-11291263D02*
X3440716Y-11291263D01*
X3459763Y-11300787D01*
X3469287Y-11310311D01*
X3478811Y-11329358D01*
X3488335Y-11367454D01*
X3488335Y-11415073D01*
X3478811Y-11453168D01*
X3469287Y-11472216D01*
X3459763Y-11481739D01*
X3440716Y-11491263D01*
X3421668Y-11491263D01*
X3402620Y-11481739D01*
X3393096Y-11472216D01*
X3383573Y-11453168D01*
X3374049Y-11415073D01*
X3374049Y-11367454D01*
X3383573Y-11329358D01*
X3393096Y-11310311D01*
X3402620Y-11300787D01*
X3421668Y-11291263D01*
X3574049Y-11472216D02*
X3583573Y-11481739D01*
X3574049Y-11491263D01*
X3564525Y-11481739D01*
X3574049Y-11472216D01*
X3574049Y-11491263D01*
X3707382Y-11291263D02*
X3726430Y-11291263D01*
X3745477Y-11300787D01*
X3755001Y-11310311D01*
X3764525Y-11329358D01*
X3774049Y-11367454D01*
X3774049Y-11415073D01*
X3764525Y-11453168D01*
X3755001Y-11472216D01*
X3745477Y-11481739D01*
X3726430Y-11491263D01*
X3707382Y-11491263D01*
X3688335Y-11481739D01*
X3678811Y-11472216D01*
X3669287Y-11453168D01*
X3659763Y-11415073D01*
X3659763Y-11367454D01*
X3669287Y-11329358D01*
X3678811Y-11310311D01*
X3688335Y-11300787D01*
X3707382Y-11291263D01*
X3840716Y-11291263D02*
X3964525Y-11291263D01*
X3897858Y-11367454D01*
X3926430Y-11367454D01*
X3945477Y-11376977D01*
X3955001Y-11386501D01*
X3964525Y-11405549D01*
X3964525Y-11453168D01*
X3955001Y-11472216D01*
X3945477Y-11481739D01*
X3926430Y-11491263D01*
X3869287Y-11491263D01*
X3850239Y-11481739D01*
X3840716Y-11472216D01*
X4145477Y-11291263D02*
X4050239Y-11291263D01*
X4040716Y-11386501D01*
X4050239Y-11376977D01*
X4069287Y-11367454D01*
X4116906Y-11367454D01*
X4135954Y-11376977D01*
X4145477Y-11386501D01*
X4155001Y-11405549D01*
X4155001Y-11453168D01*
X4145477Y-11472216D01*
X4135954Y-11481739D01*
X4116906Y-11491263D01*
X4069287Y-11491263D01*
X4050239Y-11481739D01*
X4040716Y-11472216D01*
X4326430Y-11357930D02*
X4326430Y-11491263D01*
X4278811Y-11281739D02*
X4231192Y-11424597D01*
X4355001Y-11424597D01*
X4421668Y-11291263D02*
X4421668Y-11329358D01*
X4497858Y-11291263D02*
X4497858Y-11329358D01*
X4793097Y-11567454D02*
X4783573Y-11557930D01*
X4764525Y-11529358D01*
X4755001Y-11510311D01*
X4745478Y-11481739D01*
X4735954Y-11434120D01*
X4735954Y-11396025D01*
X4745478Y-11348406D01*
X4755001Y-11319835D01*
X4764525Y-11300787D01*
X4783573Y-11272216D01*
X4793097Y-11262692D01*
X4850239Y-11291263D02*
X4974049Y-11291263D01*
X4907382Y-11367454D01*
X4935954Y-11367454D01*
X4955001Y-11376977D01*
X4964525Y-11386501D01*
X4974049Y-11405549D01*
X4974049Y-11453168D01*
X4964525Y-11472216D01*
X4955001Y-11481739D01*
X4935954Y-11491263D01*
X4878811Y-11491263D01*
X4859763Y-11481739D01*
X4850239Y-11472216D01*
X5212144Y-11491263D02*
X5212144Y-11291263D01*
X5297858Y-11491263D02*
X5297858Y-11386501D01*
X5288335Y-11367454D01*
X5269287Y-11357930D01*
X5240716Y-11357930D01*
X5221668Y-11367454D01*
X5212144Y-11376977D01*
X5421668Y-11491263D02*
X5402620Y-11481739D01*
X5393097Y-11472216D01*
X5383573Y-11453168D01*
X5383573Y-11396025D01*
X5393097Y-11376977D01*
X5402620Y-11367454D01*
X5421668Y-11357930D01*
X5450239Y-11357930D01*
X5469287Y-11367454D01*
X5478811Y-11376977D01*
X5488335Y-11396025D01*
X5488335Y-11453168D01*
X5478811Y-11472216D01*
X5469287Y-11481739D01*
X5450239Y-11491263D01*
X5421668Y-11491263D01*
X5602620Y-11491263D02*
X5583573Y-11481739D01*
X5574049Y-11462692D01*
X5574049Y-11291263D01*
X5755001Y-11481739D02*
X5735954Y-11491263D01*
X5697858Y-11491263D01*
X5678811Y-11481739D01*
X5669287Y-11462692D01*
X5669287Y-11386501D01*
X5678811Y-11367454D01*
X5697858Y-11357930D01*
X5735954Y-11357930D01*
X5755001Y-11367454D01*
X5764525Y-11386501D01*
X5764525Y-11405549D01*
X5669287Y-11424597D01*
X5840716Y-11481739D02*
X5859763Y-11491263D01*
X5897858Y-11491263D01*
X5916906Y-11481739D01*
X5926430Y-11462692D01*
X5926430Y-11453168D01*
X5916906Y-11434120D01*
X5897858Y-11424597D01*
X5869287Y-11424597D01*
X5850239Y-11415073D01*
X5840716Y-11396025D01*
X5840716Y-11386501D01*
X5850239Y-11367454D01*
X5869287Y-11357930D01*
X5897858Y-11357930D01*
X5916906Y-11367454D01*
X5993096Y-11567454D02*
X6002620Y-11557930D01*
X6021668Y-11529358D01*
X6031192Y-11510311D01*
X6040716Y-11481739D01*
X6050239Y-11434120D01*
X6050239Y-11396025D01*
X6040716Y-11348406D01*
X6031192Y-11319835D01*
X6021668Y-11300787D01*
X6002620Y-11272216D01*
X5993096Y-11262692D01*
D15*
X1206694Y-11699789D02*
X1206694Y-11629785D01*
X1136690Y-11629785D01*
X1136690Y-11699789D01*
X1206694Y-11699789D01*
D11*
X1516906Y-11555263D02*
X1535954Y-11555263D01*
X1555001Y-11564787D01*
X1564525Y-11574311D01*
X1574049Y-11593358D01*
X1583573Y-11631454D01*
X1583573Y-11679073D01*
X1574049Y-11717168D01*
X1564525Y-11736216D01*
X1555001Y-11745739D01*
X1535954Y-11755263D01*
X1516906Y-11755263D01*
X1497858Y-11745739D01*
X1488335Y-11736216D01*
X1478811Y-11717168D01*
X1469287Y-11679073D01*
X1469287Y-11631454D01*
X1478811Y-11593358D01*
X1488335Y-11574311D01*
X1497858Y-11564787D01*
X1516906Y-11555263D01*
X1669287Y-11736216D02*
X1678811Y-11745739D01*
X1669287Y-11755263D01*
X1659763Y-11745739D01*
X1669287Y-11736216D01*
X1669287Y-11755263D01*
X1774049Y-11755263D02*
X1812144Y-11755263D01*
X1831192Y-11745739D01*
X1840716Y-11736216D01*
X1859763Y-11707644D01*
X1869287Y-11669549D01*
X1869287Y-11593358D01*
X1859763Y-11574311D01*
X1850239Y-11564787D01*
X1831192Y-11555263D01*
X1793096Y-11555263D01*
X1774049Y-11564787D01*
X1764525Y-11574311D01*
X1755001Y-11593358D01*
X1755001Y-11640977D01*
X1764525Y-11660025D01*
X1774049Y-11669549D01*
X1793096Y-11679073D01*
X1831192Y-11679073D01*
X1850239Y-11669549D01*
X1859763Y-11660025D01*
X1869287Y-11640977D01*
X1964525Y-11755263D02*
X2002620Y-11755263D01*
X2021668Y-11745739D01*
X2031192Y-11736216D01*
X2050239Y-11707644D01*
X2059763Y-11669549D01*
X2059763Y-11593358D01*
X2050239Y-11574311D01*
X2040716Y-11564787D01*
X2021668Y-11555263D01*
X1983573Y-11555263D01*
X1964525Y-11564787D01*
X1955001Y-11574311D01*
X1945477Y-11593358D01*
X1945477Y-11640977D01*
X1955001Y-11660025D01*
X1964525Y-11669549D01*
X1983573Y-11679073D01*
X2021668Y-11679073D01*
X2040716Y-11669549D01*
X2050239Y-11660025D01*
X2059763Y-11640977D01*
X2183573Y-11555263D02*
X2202620Y-11555263D01*
X2221668Y-11564787D01*
X2231192Y-11574311D01*
X2240716Y-11593358D01*
X2250239Y-11631454D01*
X2250239Y-11679073D01*
X2240716Y-11717168D01*
X2231192Y-11736216D01*
X2221668Y-11745739D01*
X2202620Y-11755263D01*
X2183573Y-11755263D01*
X2164525Y-11745739D01*
X2155001Y-11736216D01*
X2145478Y-11717168D01*
X2135954Y-11679073D01*
X2135954Y-11631454D01*
X2145478Y-11593358D01*
X2155001Y-11574311D01*
X2164525Y-11564787D01*
X2183573Y-11555263D01*
X2335954Y-11755263D02*
X2335954Y-11621930D01*
X2335954Y-11640977D02*
X2345478Y-11631454D01*
X2364525Y-11621930D01*
X2393097Y-11621930D01*
X2412144Y-11631454D01*
X2421668Y-11650501D01*
X2421668Y-11755263D01*
X2421668Y-11650501D02*
X2431192Y-11631454D01*
X2450239Y-11621930D01*
X2478811Y-11621930D01*
X2497858Y-11631454D01*
X2507382Y-11650501D01*
X2507382Y-11755263D01*
X2602620Y-11755263D02*
X2602620Y-11621930D01*
X2602620Y-11640977D02*
X2612144Y-11631454D01*
X2631192Y-11621930D01*
X2659763Y-11621930D01*
X2678811Y-11631454D01*
X2688335Y-11650501D01*
X2688335Y-11755263D01*
X2688335Y-11650501D02*
X2697858Y-11631454D01*
X2716906Y-11621930D01*
X2745478Y-11621930D01*
X2764525Y-11631454D01*
X2774049Y-11650501D01*
X2774049Y-11755263D01*
X3164525Y-11545739D02*
X2993096Y-11802882D01*
X3421668Y-11555263D02*
X3440716Y-11555263D01*
X3459763Y-11564787D01*
X3469287Y-11574311D01*
X3478811Y-11593358D01*
X3488335Y-11631454D01*
X3488335Y-11679073D01*
X3478811Y-11717168D01*
X3469287Y-11736216D01*
X3459763Y-11745739D01*
X3440716Y-11755263D01*
X3421668Y-11755263D01*
X3402620Y-11745739D01*
X3393096Y-11736216D01*
X3383573Y-11717168D01*
X3374049Y-11679073D01*
X3374049Y-11631454D01*
X3383573Y-11593358D01*
X3393096Y-11574311D01*
X3402620Y-11564787D01*
X3421668Y-11555263D01*
X3574049Y-11736216D02*
X3583573Y-11745739D01*
X3574049Y-11755263D01*
X3564525Y-11745739D01*
X3574049Y-11736216D01*
X3574049Y-11755263D01*
X3707382Y-11555263D02*
X3726430Y-11555263D01*
X3745477Y-11564787D01*
X3755001Y-11574311D01*
X3764525Y-11593358D01*
X3774049Y-11631454D01*
X3774049Y-11679073D01*
X3764525Y-11717168D01*
X3755001Y-11736216D01*
X3745477Y-11745739D01*
X3726430Y-11755263D01*
X3707382Y-11755263D01*
X3688335Y-11745739D01*
X3678811Y-11736216D01*
X3669287Y-11717168D01*
X3659763Y-11679073D01*
X3659763Y-11631454D01*
X3669287Y-11593358D01*
X3678811Y-11574311D01*
X3688335Y-11564787D01*
X3707382Y-11555263D01*
X3840716Y-11555263D02*
X3964525Y-11555263D01*
X3897858Y-11631454D01*
X3926430Y-11631454D01*
X3945477Y-11640977D01*
X3955001Y-11650501D01*
X3964525Y-11669549D01*
X3964525Y-11717168D01*
X3955001Y-11736216D01*
X3945477Y-11745739D01*
X3926430Y-11755263D01*
X3869287Y-11755263D01*
X3850239Y-11745739D01*
X3840716Y-11736216D01*
X4059763Y-11755263D02*
X4097858Y-11755263D01*
X4116906Y-11745739D01*
X4126430Y-11736216D01*
X4145477Y-11707644D01*
X4155001Y-11669549D01*
X4155001Y-11593358D01*
X4145477Y-11574311D01*
X4135954Y-11564787D01*
X4116906Y-11555263D01*
X4078811Y-11555263D01*
X4059763Y-11564787D01*
X4050239Y-11574311D01*
X4040716Y-11593358D01*
X4040716Y-11640977D01*
X4050239Y-11660025D01*
X4059763Y-11669549D01*
X4078811Y-11679073D01*
X4116906Y-11679073D01*
X4135954Y-11669549D01*
X4145477Y-11660025D01*
X4155001Y-11640977D01*
X4278811Y-11555263D02*
X4297858Y-11555263D01*
X4316906Y-11564787D01*
X4326430Y-11574311D01*
X4335954Y-11593358D01*
X4345478Y-11631454D01*
X4345478Y-11679073D01*
X4335954Y-11717168D01*
X4326430Y-11736216D01*
X4316906Y-11745739D01*
X4297858Y-11755263D01*
X4278811Y-11755263D01*
X4259763Y-11745739D01*
X4250239Y-11736216D01*
X4240716Y-11717168D01*
X4231192Y-11679073D01*
X4231192Y-11631454D01*
X4240716Y-11593358D01*
X4250239Y-11574311D01*
X4259763Y-11564787D01*
X4278811Y-11555263D01*
X4421668Y-11555263D02*
X4421668Y-11593358D01*
X4497858Y-11555263D02*
X4497858Y-11593358D01*
X4793097Y-11831454D02*
X4783573Y-11821930D01*
X4764525Y-11793358D01*
X4755001Y-11774311D01*
X4745478Y-11745739D01*
X4735954Y-11698120D01*
X4735954Y-11660025D01*
X4745478Y-11612406D01*
X4755001Y-11583835D01*
X4764525Y-11564787D01*
X4783573Y-11536216D01*
X4793097Y-11526692D01*
X4859763Y-11574311D02*
X4869287Y-11564787D01*
X4888335Y-11555263D01*
X4935954Y-11555263D01*
X4955001Y-11564787D01*
X4964525Y-11574311D01*
X4974049Y-11593358D01*
X4974049Y-11612406D01*
X4964525Y-11640977D01*
X4850239Y-11755263D01*
X4974049Y-11755263D01*
X5212144Y-11755263D02*
X5212144Y-11555263D01*
X5297858Y-11755263D02*
X5297858Y-11650501D01*
X5288335Y-11631454D01*
X5269287Y-11621930D01*
X5240716Y-11621930D01*
X5221668Y-11631454D01*
X5212144Y-11640977D01*
X5421668Y-11755263D02*
X5402620Y-11745739D01*
X5393097Y-11736216D01*
X5383573Y-11717168D01*
X5383573Y-11660025D01*
X5393097Y-11640977D01*
X5402620Y-11631454D01*
X5421668Y-11621930D01*
X5450239Y-11621930D01*
X5469287Y-11631454D01*
X5478811Y-11640977D01*
X5488335Y-11660025D01*
X5488335Y-11717168D01*
X5478811Y-11736216D01*
X5469287Y-11745739D01*
X5450239Y-11755263D01*
X5421668Y-11755263D01*
X5602620Y-11755263D02*
X5583573Y-11745739D01*
X5574049Y-11726692D01*
X5574049Y-11555263D01*
X5755001Y-11745739D02*
X5735954Y-11755263D01*
X5697858Y-11755263D01*
X5678811Y-11745739D01*
X5669287Y-11726692D01*
X5669287Y-11650501D01*
X5678811Y-11631454D01*
X5697858Y-11621930D01*
X5735954Y-11621930D01*
X5755001Y-11631454D01*
X5764525Y-11650501D01*
X5764525Y-11669549D01*
X5669287Y-11688597D01*
X5840716Y-11745739D02*
X5859763Y-11755263D01*
X5897858Y-11755263D01*
X5916906Y-11745739D01*
X5926430Y-11726692D01*
X5926430Y-11717168D01*
X5916906Y-11698120D01*
X5897858Y-11688597D01*
X5869287Y-11688597D01*
X5850239Y-11679073D01*
X5840716Y-11660025D01*
X5840716Y-11650501D01*
X5850239Y-11631454D01*
X5869287Y-11621930D01*
X5897858Y-11621930D01*
X5916906Y-11631454D01*
X5993096Y-11831454D02*
X6002620Y-11821930D01*
X6021668Y-11793358D01*
X6031192Y-11774311D01*
X6040716Y-11745739D01*
X6050239Y-11698120D01*
X6050239Y-11660025D01*
X6040716Y-11612406D01*
X6031192Y-11583835D01*
X6021668Y-11564787D01*
X6002620Y-11536216D01*
X5993096Y-11526692D01*
D16*
X1166582Y-11983397D02*
X1221192Y-11928787D01*
X1166582Y-11874177D01*
X1111972Y-11928787D01*
X1166582Y-11983397D01*
D11*
X1583573Y-12019263D02*
X1469287Y-12019263D01*
X1526430Y-12019263D02*
X1526430Y-11819263D01*
X1507382Y-11847835D01*
X1488335Y-11866882D01*
X1469287Y-11876406D01*
X1669287Y-12000216D02*
X1678811Y-12009739D01*
X1669287Y-12019263D01*
X1659763Y-12009739D01*
X1669287Y-12000216D01*
X1669287Y-12019263D01*
X1802620Y-11819263D02*
X1821668Y-11819263D01*
X1840716Y-11828787D01*
X1850239Y-11838311D01*
X1859763Y-11857358D01*
X1869287Y-11895454D01*
X1869287Y-11943073D01*
X1859763Y-11981168D01*
X1850239Y-12000216D01*
X1840716Y-12009739D01*
X1821668Y-12019263D01*
X1802620Y-12019263D01*
X1783573Y-12009739D01*
X1774049Y-12000216D01*
X1764525Y-11981168D01*
X1755001Y-11943073D01*
X1755001Y-11895454D01*
X1764525Y-11857358D01*
X1774049Y-11838311D01*
X1783573Y-11828787D01*
X1802620Y-11819263D01*
X1964525Y-12019263D02*
X2002620Y-12019263D01*
X2021668Y-12009739D01*
X2031192Y-12000216D01*
X2050239Y-11971644D01*
X2059763Y-11933549D01*
X2059763Y-11857358D01*
X2050239Y-11838311D01*
X2040716Y-11828787D01*
X2021668Y-11819263D01*
X1983573Y-11819263D01*
X1964525Y-11828787D01*
X1955001Y-11838311D01*
X1945477Y-11857358D01*
X1945477Y-11904977D01*
X1955001Y-11924025D01*
X1964525Y-11933549D01*
X1983573Y-11943073D01*
X2021668Y-11943073D01*
X2040716Y-11933549D01*
X2050239Y-11924025D01*
X2059763Y-11904977D01*
X2135954Y-11838311D02*
X2145478Y-11828787D01*
X2164525Y-11819263D01*
X2212144Y-11819263D01*
X2231192Y-11828787D01*
X2240716Y-11838311D01*
X2250239Y-11857358D01*
X2250239Y-11876406D01*
X2240716Y-11904977D01*
X2126430Y-12019263D01*
X2250239Y-12019263D01*
X2335954Y-12019263D02*
X2335954Y-11885930D01*
X2335954Y-11904977D02*
X2345478Y-11895454D01*
X2364525Y-11885930D01*
X2393097Y-11885930D01*
X2412144Y-11895454D01*
X2421668Y-11914501D01*
X2421668Y-12019263D01*
X2421668Y-11914501D02*
X2431192Y-11895454D01*
X2450239Y-11885930D01*
X2478811Y-11885930D01*
X2497858Y-11895454D01*
X2507382Y-11914501D01*
X2507382Y-12019263D01*
X2602620Y-12019263D02*
X2602620Y-11885930D01*
X2602620Y-11904977D02*
X2612144Y-11895454D01*
X2631192Y-11885930D01*
X2659763Y-11885930D01*
X2678811Y-11895454D01*
X2688335Y-11914501D01*
X2688335Y-12019263D01*
X2688335Y-11914501D02*
X2697858Y-11895454D01*
X2716906Y-11885930D01*
X2745478Y-11885930D01*
X2764525Y-11895454D01*
X2774049Y-11914501D01*
X2774049Y-12019263D01*
X3164525Y-11809739D02*
X2993096Y-12066882D01*
X3421668Y-11819263D02*
X3440716Y-11819263D01*
X3459763Y-11828787D01*
X3469287Y-11838311D01*
X3478811Y-11857358D01*
X3488335Y-11895454D01*
X3488335Y-11943073D01*
X3478811Y-11981168D01*
X3469287Y-12000216D01*
X3459763Y-12009739D01*
X3440716Y-12019263D01*
X3421668Y-12019263D01*
X3402620Y-12009739D01*
X3393096Y-12000216D01*
X3383573Y-11981168D01*
X3374049Y-11943073D01*
X3374049Y-11895454D01*
X3383573Y-11857358D01*
X3393096Y-11838311D01*
X3402620Y-11828787D01*
X3421668Y-11819263D01*
X3574049Y-12000216D02*
X3583573Y-12009739D01*
X3574049Y-12019263D01*
X3564525Y-12009739D01*
X3574049Y-12000216D01*
X3574049Y-12019263D01*
X3707382Y-11819263D02*
X3726430Y-11819263D01*
X3745477Y-11828787D01*
X3755001Y-11838311D01*
X3764525Y-11857358D01*
X3774049Y-11895454D01*
X3774049Y-11943073D01*
X3764525Y-11981168D01*
X3755001Y-12000216D01*
X3745477Y-12009739D01*
X3726430Y-12019263D01*
X3707382Y-12019263D01*
X3688335Y-12009739D01*
X3678811Y-12000216D01*
X3669287Y-11981168D01*
X3659763Y-11943073D01*
X3659763Y-11895454D01*
X3669287Y-11857358D01*
X3678811Y-11838311D01*
X3688335Y-11828787D01*
X3707382Y-11819263D01*
X3945477Y-11885930D02*
X3945477Y-12019263D01*
X3897858Y-11809739D02*
X3850239Y-11952597D01*
X3974049Y-11952597D01*
X4031192Y-11819263D02*
X4155001Y-11819263D01*
X4088335Y-11895454D01*
X4116906Y-11895454D01*
X4135954Y-11904977D01*
X4145477Y-11914501D01*
X4155001Y-11933549D01*
X4155001Y-11981168D01*
X4145477Y-12000216D01*
X4135954Y-12009739D01*
X4116906Y-12019263D01*
X4059763Y-12019263D01*
X4040716Y-12009739D01*
X4031192Y-12000216D01*
X4278811Y-11819263D02*
X4297858Y-11819263D01*
X4316906Y-11828787D01*
X4326430Y-11838311D01*
X4335954Y-11857358D01*
X4345478Y-11895454D01*
X4345478Y-11943073D01*
X4335954Y-11981168D01*
X4326430Y-12000216D01*
X4316906Y-12009739D01*
X4297858Y-12019263D01*
X4278811Y-12019263D01*
X4259763Y-12009739D01*
X4250239Y-12000216D01*
X4240716Y-11981168D01*
X4231192Y-11943073D01*
X4231192Y-11895454D01*
X4240716Y-11857358D01*
X4250239Y-11838311D01*
X4259763Y-11828787D01*
X4278811Y-11819263D01*
X4421668Y-11819263D02*
X4421668Y-11857358D01*
X4497858Y-11819263D02*
X4497858Y-11857358D01*
X4793097Y-12095454D02*
X4783573Y-12085930D01*
X4764525Y-12057358D01*
X4755001Y-12038311D01*
X4745478Y-12009739D01*
X4735954Y-11962120D01*
X4735954Y-11924025D01*
X4745478Y-11876406D01*
X4755001Y-11847835D01*
X4764525Y-11828787D01*
X4783573Y-11800216D01*
X4793097Y-11790692D01*
X4850239Y-11819263D02*
X4974049Y-11819263D01*
X4907382Y-11895454D01*
X4935954Y-11895454D01*
X4955001Y-11904977D01*
X4964525Y-11914501D01*
X4974049Y-11933549D01*
X4974049Y-11981168D01*
X4964525Y-12000216D01*
X4955001Y-12009739D01*
X4935954Y-12019263D01*
X4878811Y-12019263D01*
X4859763Y-12009739D01*
X4850239Y-12000216D01*
X5050239Y-11838311D02*
X5059763Y-11828787D01*
X5078811Y-11819263D01*
X5126430Y-11819263D01*
X5145478Y-11828787D01*
X5155001Y-11838311D01*
X5164525Y-11857358D01*
X5164525Y-11876406D01*
X5155001Y-11904977D01*
X5040716Y-12019263D01*
X5164525Y-12019263D01*
X5402620Y-12019263D02*
X5402620Y-11819263D01*
X5488335Y-12019263D02*
X5488335Y-11914501D01*
X5478811Y-11895454D01*
X5459763Y-11885930D01*
X5431192Y-11885930D01*
X5412144Y-11895454D01*
X5402620Y-11904977D01*
X5612144Y-12019263D02*
X5593096Y-12009739D01*
X5583573Y-12000216D01*
X5574049Y-11981168D01*
X5574049Y-11924025D01*
X5583573Y-11904977D01*
X5593096Y-11895454D01*
X5612144Y-11885930D01*
X5640716Y-11885930D01*
X5659763Y-11895454D01*
X5669287Y-11904977D01*
X5678811Y-11924025D01*
X5678811Y-11981168D01*
X5669287Y-12000216D01*
X5659763Y-12009739D01*
X5640716Y-12019263D01*
X5612144Y-12019263D01*
X5793096Y-12019263D02*
X5774049Y-12009739D01*
X5764525Y-11990692D01*
X5764525Y-11819263D01*
X5945477Y-12009739D02*
X5926430Y-12019263D01*
X5888335Y-12019263D01*
X5869287Y-12009739D01*
X5859763Y-11990692D01*
X5859763Y-11914501D01*
X5869287Y-11895454D01*
X5888335Y-11885930D01*
X5926430Y-11885930D01*
X5945477Y-11895454D01*
X5955001Y-11914501D01*
X5955001Y-11933549D01*
X5859763Y-11952597D01*
X6031192Y-12009739D02*
X6050239Y-12019263D01*
X6088335Y-12019263D01*
X6107382Y-12009739D01*
X6116906Y-11990692D01*
X6116906Y-11981168D01*
X6107382Y-11962120D01*
X6088335Y-11952597D01*
X6059763Y-11952597D01*
X6040716Y-11943073D01*
X6031192Y-11924025D01*
X6031192Y-11914501D01*
X6040716Y-11895454D01*
X6059763Y-11885930D01*
X6088335Y-11885930D01*
X6107382Y-11895454D01*
X6183573Y-12095454D02*
X6193096Y-12085930D01*
X6212144Y-12057358D01*
X6221668Y-12038311D01*
X6231192Y-12009739D01*
X6240716Y-11962120D01*
X6240716Y-11924025D01*
X6231192Y-11876406D01*
X6221668Y-11847835D01*
X6212144Y-11828787D01*
X6193096Y-11800216D01*
X6183573Y-11790692D01*
D17*
X1074192Y-12119287D02*
X1221192Y-12266287D01*
X1221192Y-12119287D02*
X1074192Y-12266287D01*
X1221192Y-12192787D02*
G75*
G03*
X1221192Y-12192787I-73500J0D01*
G01*
D11*
X1583573Y-12283263D02*
X1469287Y-12283263D01*
X1526430Y-12283263D02*
X1526430Y-12083263D01*
X1507382Y-12111835D01*
X1488335Y-12130882D01*
X1469287Y-12140406D01*
X1669287Y-12264216D02*
X1678811Y-12273739D01*
X1669287Y-12283263D01*
X1659763Y-12273739D01*
X1669287Y-12264216D01*
X1669287Y-12283263D01*
X1850239Y-12149930D02*
X1850239Y-12283263D01*
X1802620Y-12073739D02*
X1755001Y-12216597D01*
X1878811Y-12216597D01*
X1935954Y-12083263D02*
X2069287Y-12083263D01*
X1983573Y-12283263D01*
X2183573Y-12083263D02*
X2202620Y-12083263D01*
X2221668Y-12092787D01*
X2231192Y-12102311D01*
X2240716Y-12121358D01*
X2250239Y-12159454D01*
X2250239Y-12207073D01*
X2240716Y-12245168D01*
X2231192Y-12264216D01*
X2221668Y-12273739D01*
X2202620Y-12283263D01*
X2183573Y-12283263D01*
X2164525Y-12273739D01*
X2155001Y-12264216D01*
X2145478Y-12245168D01*
X2135954Y-12207073D01*
X2135954Y-12159454D01*
X2145478Y-12121358D01*
X2155001Y-12102311D01*
X2164525Y-12092787D01*
X2183573Y-12083263D01*
X2335954Y-12283263D02*
X2335954Y-12149930D01*
X2335954Y-12168977D02*
X2345478Y-12159454D01*
X2364525Y-12149930D01*
X2393097Y-12149930D01*
X2412144Y-12159454D01*
X2421668Y-12178501D01*
X2421668Y-12283263D01*
X2421668Y-12178501D02*
X2431192Y-12159454D01*
X2450239Y-12149930D01*
X2478811Y-12149930D01*
X2497858Y-12159454D01*
X2507382Y-12178501D01*
X2507382Y-12283263D01*
X2602620Y-12283263D02*
X2602620Y-12149930D01*
X2602620Y-12168977D02*
X2612144Y-12159454D01*
X2631192Y-12149930D01*
X2659763Y-12149930D01*
X2678811Y-12159454D01*
X2688335Y-12178501D01*
X2688335Y-12283263D01*
X2688335Y-12178501D02*
X2697858Y-12159454D01*
X2716906Y-12149930D01*
X2745478Y-12149930D01*
X2764525Y-12159454D01*
X2774049Y-12178501D01*
X2774049Y-12283263D01*
X3164525Y-12073739D02*
X2993096Y-12330882D01*
X3421668Y-12083263D02*
X3440716Y-12083263D01*
X3459763Y-12092787D01*
X3469287Y-12102311D01*
X3478811Y-12121358D01*
X3488335Y-12159454D01*
X3488335Y-12207073D01*
X3478811Y-12245168D01*
X3469287Y-12264216D01*
X3459763Y-12273739D01*
X3440716Y-12283263D01*
X3421668Y-12283263D01*
X3402620Y-12273739D01*
X3393096Y-12264216D01*
X3383573Y-12245168D01*
X3374049Y-12207073D01*
X3374049Y-12159454D01*
X3383573Y-12121358D01*
X3393096Y-12102311D01*
X3402620Y-12092787D01*
X3421668Y-12083263D01*
X3574049Y-12264216D02*
X3583573Y-12273739D01*
X3574049Y-12283263D01*
X3564525Y-12273739D01*
X3574049Y-12264216D01*
X3574049Y-12283263D01*
X3707382Y-12083263D02*
X3726430Y-12083263D01*
X3745477Y-12092787D01*
X3755001Y-12102311D01*
X3764525Y-12121358D01*
X3774049Y-12159454D01*
X3774049Y-12207073D01*
X3764525Y-12245168D01*
X3755001Y-12264216D01*
X3745477Y-12273739D01*
X3726430Y-12283263D01*
X3707382Y-12283263D01*
X3688335Y-12273739D01*
X3678811Y-12264216D01*
X3669287Y-12245168D01*
X3659763Y-12207073D01*
X3659763Y-12159454D01*
X3669287Y-12121358D01*
X3678811Y-12102311D01*
X3688335Y-12092787D01*
X3707382Y-12083263D01*
X3955001Y-12083263D02*
X3859763Y-12083263D01*
X3850239Y-12178501D01*
X3859763Y-12168977D01*
X3878811Y-12159454D01*
X3926430Y-12159454D01*
X3945477Y-12168977D01*
X3955001Y-12178501D01*
X3964525Y-12197549D01*
X3964525Y-12245168D01*
X3955001Y-12264216D01*
X3945477Y-12273739D01*
X3926430Y-12283263D01*
X3878811Y-12283263D01*
X3859763Y-12273739D01*
X3850239Y-12264216D01*
X4031192Y-12083263D02*
X4164525Y-12083263D01*
X4078811Y-12283263D01*
X4250239Y-12283263D02*
X4288335Y-12283263D01*
X4307382Y-12273739D01*
X4316906Y-12264216D01*
X4335954Y-12235644D01*
X4345478Y-12197549D01*
X4345478Y-12121358D01*
X4335954Y-12102311D01*
X4326430Y-12092787D01*
X4307382Y-12083263D01*
X4269287Y-12083263D01*
X4250239Y-12092787D01*
X4240716Y-12102311D01*
X4231192Y-12121358D01*
X4231192Y-12168977D01*
X4240716Y-12188025D01*
X4250239Y-12197549D01*
X4269287Y-12207073D01*
X4307382Y-12207073D01*
X4326430Y-12197549D01*
X4335954Y-12188025D01*
X4345478Y-12168977D01*
X4421668Y-12083263D02*
X4421668Y-12121358D01*
X4497858Y-12083263D02*
X4497858Y-12121358D01*
X4793097Y-12359454D02*
X4783573Y-12349930D01*
X4764525Y-12321358D01*
X4755001Y-12302311D01*
X4745478Y-12273739D01*
X4735954Y-12226120D01*
X4735954Y-12188025D01*
X4745478Y-12140406D01*
X4755001Y-12111835D01*
X4764525Y-12092787D01*
X4783573Y-12064216D01*
X4793097Y-12054692D01*
X4964525Y-12083263D02*
X4869287Y-12083263D01*
X4859763Y-12178501D01*
X4869287Y-12168977D01*
X4888335Y-12159454D01*
X4935954Y-12159454D01*
X4955001Y-12168977D01*
X4964525Y-12178501D01*
X4974049Y-12197549D01*
X4974049Y-12245168D01*
X4964525Y-12264216D01*
X4955001Y-12273739D01*
X4935954Y-12283263D01*
X4888335Y-12283263D01*
X4869287Y-12273739D01*
X4859763Y-12264216D01*
X5145478Y-12149930D02*
X5145478Y-12283263D01*
X5097858Y-12073739D02*
X5050239Y-12216597D01*
X5174049Y-12216597D01*
X5402620Y-12283263D02*
X5402620Y-12083263D01*
X5488335Y-12283263D02*
X5488335Y-12178501D01*
X5478811Y-12159454D01*
X5459763Y-12149930D01*
X5431192Y-12149930D01*
X5412144Y-12159454D01*
X5402620Y-12168977D01*
X5612144Y-12283263D02*
X5593096Y-12273739D01*
X5583573Y-12264216D01*
X5574049Y-12245168D01*
X5574049Y-12188025D01*
X5583573Y-12168977D01*
X5593096Y-12159454D01*
X5612144Y-12149930D01*
X5640716Y-12149930D01*
X5659763Y-12159454D01*
X5669287Y-12168977D01*
X5678811Y-12188025D01*
X5678811Y-12245168D01*
X5669287Y-12264216D01*
X5659763Y-12273739D01*
X5640716Y-12283263D01*
X5612144Y-12283263D01*
X5793096Y-12283263D02*
X5774049Y-12273739D01*
X5764525Y-12254692D01*
X5764525Y-12083263D01*
X5945477Y-12273739D02*
X5926430Y-12283263D01*
X5888335Y-12283263D01*
X5869287Y-12273739D01*
X5859763Y-12254692D01*
X5859763Y-12178501D01*
X5869287Y-12159454D01*
X5888335Y-12149930D01*
X5926430Y-12149930D01*
X5945477Y-12159454D01*
X5955001Y-12178501D01*
X5955001Y-12197549D01*
X5859763Y-12216597D01*
X6031192Y-12273739D02*
X6050239Y-12283263D01*
X6088335Y-12283263D01*
X6107382Y-12273739D01*
X6116906Y-12254692D01*
X6116906Y-12245168D01*
X6107382Y-12226120D01*
X6088335Y-12216597D01*
X6059763Y-12216597D01*
X6040716Y-12207073D01*
X6031192Y-12188025D01*
X6031192Y-12178501D01*
X6040716Y-12159454D01*
X6059763Y-12149930D01*
X6088335Y-12149930D01*
X6107382Y-12159454D01*
X6183573Y-12359454D02*
X6193096Y-12349930D01*
X6212144Y-12321358D01*
X6221668Y-12302311D01*
X6231192Y-12273739D01*
X6240716Y-12226120D01*
X6240716Y-12188025D01*
X6231192Y-12140406D01*
X6221668Y-12111835D01*
X6212144Y-12092787D01*
X6193096Y-12064216D01*
X6183573Y-12054692D01*
D18*
X1071192Y-12384787D02*
X1221192Y-12534787D01*
X1221192Y-12384787D02*
X1071192Y-12534787D01*
X1146192Y-12384787D02*
X1146192Y-12534787D01*
X1071192Y-12459787D02*
X1221192Y-12459787D01*
D11*
X1583573Y-12550263D02*
X1469287Y-12550263D01*
X1526430Y-12550263D02*
X1526430Y-12350263D01*
X1507382Y-12378835D01*
X1488335Y-12397882D01*
X1469287Y-12407406D01*
X1669287Y-12531216D02*
X1678811Y-12540739D01*
X1669287Y-12550263D01*
X1659763Y-12540739D01*
X1669287Y-12531216D01*
X1669287Y-12550263D01*
X1859763Y-12350263D02*
X1764525Y-12350263D01*
X1755001Y-12445501D01*
X1764525Y-12435977D01*
X1783573Y-12426454D01*
X1831192Y-12426454D01*
X1850239Y-12435977D01*
X1859763Y-12445501D01*
X1869287Y-12464549D01*
X1869287Y-12512168D01*
X1859763Y-12531216D01*
X1850239Y-12540739D01*
X1831192Y-12550263D01*
X1783573Y-12550263D01*
X1764525Y-12540739D01*
X1755001Y-12531216D01*
X1993096Y-12350263D02*
X2012144Y-12350263D01*
X2031192Y-12359787D01*
X2040716Y-12369311D01*
X2050239Y-12388358D01*
X2059763Y-12426454D01*
X2059763Y-12474073D01*
X2050239Y-12512168D01*
X2040716Y-12531216D01*
X2031192Y-12540739D01*
X2012144Y-12550263D01*
X1993096Y-12550263D01*
X1974049Y-12540739D01*
X1964525Y-12531216D01*
X1955001Y-12512168D01*
X1945477Y-12474073D01*
X1945477Y-12426454D01*
X1955001Y-12388358D01*
X1964525Y-12369311D01*
X1974049Y-12359787D01*
X1993096Y-12350263D01*
X2183573Y-12350263D02*
X2202620Y-12350263D01*
X2221668Y-12359787D01*
X2231192Y-12369311D01*
X2240716Y-12388358D01*
X2250239Y-12426454D01*
X2250239Y-12474073D01*
X2240716Y-12512168D01*
X2231192Y-12531216D01*
X2221668Y-12540739D01*
X2202620Y-12550263D01*
X2183573Y-12550263D01*
X2164525Y-12540739D01*
X2155001Y-12531216D01*
X2145478Y-12512168D01*
X2135954Y-12474073D01*
X2135954Y-12426454D01*
X2145478Y-12388358D01*
X2155001Y-12369311D01*
X2164525Y-12359787D01*
X2183573Y-12350263D01*
X2335954Y-12550263D02*
X2335954Y-12416930D01*
X2335954Y-12435977D02*
X2345478Y-12426454D01*
X2364525Y-12416930D01*
X2393097Y-12416930D01*
X2412144Y-12426454D01*
X2421668Y-12445501D01*
X2421668Y-12550263D01*
X2421668Y-12445501D02*
X2431192Y-12426454D01*
X2450239Y-12416930D01*
X2478811Y-12416930D01*
X2497858Y-12426454D01*
X2507382Y-12445501D01*
X2507382Y-12550263D01*
X2602620Y-12550263D02*
X2602620Y-12416930D01*
X2602620Y-12435977D02*
X2612144Y-12426454D01*
X2631192Y-12416930D01*
X2659763Y-12416930D01*
X2678811Y-12426454D01*
X2688335Y-12445501D01*
X2688335Y-12550263D01*
X2688335Y-12445501D02*
X2697858Y-12426454D01*
X2716906Y-12416930D01*
X2745478Y-12416930D01*
X2764525Y-12426454D01*
X2774049Y-12445501D01*
X2774049Y-12550263D01*
X3164525Y-12340739D02*
X2993096Y-12597882D01*
X3421668Y-12350263D02*
X3440716Y-12350263D01*
X3459763Y-12359787D01*
X3469287Y-12369311D01*
X3478811Y-12388358D01*
X3488335Y-12426454D01*
X3488335Y-12474073D01*
X3478811Y-12512168D01*
X3469287Y-12531216D01*
X3459763Y-12540739D01*
X3440716Y-12550263D01*
X3421668Y-12550263D01*
X3402620Y-12540739D01*
X3393096Y-12531216D01*
X3383573Y-12512168D01*
X3374049Y-12474073D01*
X3374049Y-12426454D01*
X3383573Y-12388358D01*
X3393096Y-12369311D01*
X3402620Y-12359787D01*
X3421668Y-12350263D01*
X3574049Y-12531216D02*
X3583573Y-12540739D01*
X3574049Y-12550263D01*
X3564525Y-12540739D01*
X3574049Y-12531216D01*
X3574049Y-12550263D01*
X3707382Y-12350263D02*
X3726430Y-12350263D01*
X3745477Y-12359787D01*
X3755001Y-12369311D01*
X3764525Y-12388358D01*
X3774049Y-12426454D01*
X3774049Y-12474073D01*
X3764525Y-12512168D01*
X3755001Y-12531216D01*
X3745477Y-12540739D01*
X3726430Y-12550263D01*
X3707382Y-12550263D01*
X3688335Y-12540739D01*
X3678811Y-12531216D01*
X3669287Y-12512168D01*
X3659763Y-12474073D01*
X3659763Y-12426454D01*
X3669287Y-12388358D01*
X3678811Y-12369311D01*
X3688335Y-12359787D01*
X3707382Y-12350263D01*
X3955001Y-12350263D02*
X3859763Y-12350263D01*
X3850239Y-12445501D01*
X3859763Y-12435977D01*
X3878811Y-12426454D01*
X3926430Y-12426454D01*
X3945477Y-12435977D01*
X3955001Y-12445501D01*
X3964525Y-12464549D01*
X3964525Y-12512168D01*
X3955001Y-12531216D01*
X3945477Y-12540739D01*
X3926430Y-12550263D01*
X3878811Y-12550263D01*
X3859763Y-12540739D01*
X3850239Y-12531216D01*
X4059763Y-12550263D02*
X4097858Y-12550263D01*
X4116906Y-12540739D01*
X4126430Y-12531216D01*
X4145477Y-12502644D01*
X4155001Y-12464549D01*
X4155001Y-12388358D01*
X4145477Y-12369311D01*
X4135954Y-12359787D01*
X4116906Y-12350263D01*
X4078811Y-12350263D01*
X4059763Y-12359787D01*
X4050239Y-12369311D01*
X4040716Y-12388358D01*
X4040716Y-12435977D01*
X4050239Y-12455025D01*
X4059763Y-12464549D01*
X4078811Y-12474073D01*
X4116906Y-12474073D01*
X4135954Y-12464549D01*
X4145477Y-12455025D01*
X4155001Y-12435977D01*
X4345478Y-12550263D02*
X4231192Y-12550263D01*
X4288335Y-12550263D02*
X4288335Y-12350263D01*
X4269287Y-12378835D01*
X4250239Y-12397882D01*
X4231192Y-12407406D01*
X4421668Y-12350263D02*
X4421668Y-12388358D01*
X4497858Y-12350263D02*
X4497858Y-12388358D01*
X4793097Y-12626454D02*
X4783573Y-12616930D01*
X4764525Y-12588358D01*
X4755001Y-12569311D01*
X4745478Y-12540739D01*
X4735954Y-12493120D01*
X4735954Y-12455025D01*
X4745478Y-12407406D01*
X4755001Y-12378835D01*
X4764525Y-12359787D01*
X4783573Y-12331216D01*
X4793097Y-12321692D01*
X4859763Y-12369311D02*
X4869287Y-12359787D01*
X4888335Y-12350263D01*
X4935954Y-12350263D01*
X4955001Y-12359787D01*
X4964525Y-12369311D01*
X4974049Y-12388358D01*
X4974049Y-12407406D01*
X4964525Y-12435977D01*
X4850239Y-12550263D01*
X4974049Y-12550263D01*
X5212144Y-12550263D02*
X5212144Y-12350263D01*
X5297858Y-12550263D02*
X5297858Y-12445501D01*
X5288335Y-12426454D01*
X5269287Y-12416930D01*
X5240716Y-12416930D01*
X5221668Y-12426454D01*
X5212144Y-12435977D01*
X5421668Y-12550263D02*
X5402620Y-12540739D01*
X5393097Y-12531216D01*
X5383573Y-12512168D01*
X5383573Y-12455025D01*
X5393097Y-12435977D01*
X5402620Y-12426454D01*
X5421668Y-12416930D01*
X5450239Y-12416930D01*
X5469287Y-12426454D01*
X5478811Y-12435977D01*
X5488335Y-12455025D01*
X5488335Y-12512168D01*
X5478811Y-12531216D01*
X5469287Y-12540739D01*
X5450239Y-12550263D01*
X5421668Y-12550263D01*
X5602620Y-12550263D02*
X5583573Y-12540739D01*
X5574049Y-12521692D01*
X5574049Y-12350263D01*
X5755001Y-12540739D02*
X5735954Y-12550263D01*
X5697858Y-12550263D01*
X5678811Y-12540739D01*
X5669287Y-12521692D01*
X5669287Y-12445501D01*
X5678811Y-12426454D01*
X5697858Y-12416930D01*
X5735954Y-12416930D01*
X5755001Y-12426454D01*
X5764525Y-12445501D01*
X5764525Y-12464549D01*
X5669287Y-12483597D01*
X5840716Y-12540739D02*
X5859763Y-12550263D01*
X5897858Y-12550263D01*
X5916906Y-12540739D01*
X5926430Y-12521692D01*
X5926430Y-12512168D01*
X5916906Y-12493120D01*
X5897858Y-12483597D01*
X5869287Y-12483597D01*
X5850239Y-12474073D01*
X5840716Y-12455025D01*
X5840716Y-12445501D01*
X5850239Y-12426454D01*
X5869287Y-12416930D01*
X5897858Y-12416930D01*
X5916906Y-12426454D01*
X5993096Y-12626454D02*
X6002620Y-12616930D01*
X6021668Y-12588358D01*
X6031192Y-12569311D01*
X6040716Y-12540739D01*
X6050239Y-12493120D01*
X6050239Y-12455025D01*
X6040716Y-12407406D01*
X6031192Y-12378835D01*
X6021668Y-12359787D01*
X6002620Y-12331216D01*
X5993096Y-12321692D01*
X1021192Y-12629787D02*
X1221192Y-12829787D01*
X1221192Y-12629787D02*
X1021192Y-12829787D01*
X1191903Y-12800498D02*
X1191903Y-12659076D01*
X1050480Y-12659076D01*
X1050480Y-12800498D01*
X1191903Y-12800498D01*
X1469287Y-12639311D02*
X1478811Y-12629787D01*
X1497858Y-12620263D01*
X1545477Y-12620263D01*
X1564525Y-12629787D01*
X1574049Y-12639311D01*
X1583573Y-12658358D01*
X1583573Y-12677406D01*
X1574049Y-12705977D01*
X1459763Y-12820263D01*
X1583573Y-12820263D01*
X1669287Y-12801216D02*
X1678811Y-12810739D01*
X1669287Y-12820263D01*
X1659763Y-12810739D01*
X1669287Y-12801216D01*
X1669287Y-12820263D01*
X1755001Y-12639311D02*
X1764525Y-12629787D01*
X1783573Y-12620263D01*
X1831192Y-12620263D01*
X1850239Y-12629787D01*
X1859763Y-12639311D01*
X1869287Y-12658358D01*
X1869287Y-12677406D01*
X1859763Y-12705977D01*
X1745477Y-12820263D01*
X1869287Y-12820263D01*
X1993096Y-12620263D02*
X2012144Y-12620263D01*
X2031192Y-12629787D01*
X2040716Y-12639311D01*
X2050239Y-12658358D01*
X2059763Y-12696454D01*
X2059763Y-12744073D01*
X2050239Y-12782168D01*
X2040716Y-12801216D01*
X2031192Y-12810739D01*
X2012144Y-12820263D01*
X1993096Y-12820263D01*
X1974049Y-12810739D01*
X1964525Y-12801216D01*
X1955001Y-12782168D01*
X1945477Y-12744073D01*
X1945477Y-12696454D01*
X1955001Y-12658358D01*
X1964525Y-12639311D01*
X1974049Y-12629787D01*
X1993096Y-12620263D01*
X2183573Y-12620263D02*
X2202620Y-12620263D01*
X2221668Y-12629787D01*
X2231192Y-12639311D01*
X2240716Y-12658358D01*
X2250239Y-12696454D01*
X2250239Y-12744073D01*
X2240716Y-12782168D01*
X2231192Y-12801216D01*
X2221668Y-12810739D01*
X2202620Y-12820263D01*
X2183573Y-12820263D01*
X2164525Y-12810739D01*
X2155001Y-12801216D01*
X2145478Y-12782168D01*
X2135954Y-12744073D01*
X2135954Y-12696454D01*
X2145478Y-12658358D01*
X2155001Y-12639311D01*
X2164525Y-12629787D01*
X2183573Y-12620263D01*
X2335954Y-12820263D02*
X2335954Y-12686930D01*
X2335954Y-12705977D02*
X2345478Y-12696454D01*
X2364525Y-12686930D01*
X2393097Y-12686930D01*
X2412144Y-12696454D01*
X2421668Y-12715501D01*
X2421668Y-12820263D01*
X2421668Y-12715501D02*
X2431192Y-12696454D01*
X2450239Y-12686930D01*
X2478811Y-12686930D01*
X2497858Y-12696454D01*
X2507382Y-12715501D01*
X2507382Y-12820263D01*
X2602620Y-12820263D02*
X2602620Y-12686930D01*
X2602620Y-12705977D02*
X2612144Y-12696454D01*
X2631192Y-12686930D01*
X2659763Y-12686930D01*
X2678811Y-12696454D01*
X2688335Y-12715501D01*
X2688335Y-12820263D01*
X2688335Y-12715501D02*
X2697858Y-12696454D01*
X2716906Y-12686930D01*
X2745478Y-12686930D01*
X2764525Y-12696454D01*
X2774049Y-12715501D01*
X2774049Y-12820263D01*
X3164525Y-12610739D02*
X2993096Y-12867882D01*
X3421668Y-12620263D02*
X3440716Y-12620263D01*
X3459763Y-12629787D01*
X3469287Y-12639311D01*
X3478811Y-12658358D01*
X3488335Y-12696454D01*
X3488335Y-12744073D01*
X3478811Y-12782168D01*
X3469287Y-12801216D01*
X3459763Y-12810739D01*
X3440716Y-12820263D01*
X3421668Y-12820263D01*
X3402620Y-12810739D01*
X3393096Y-12801216D01*
X3383573Y-12782168D01*
X3374049Y-12744073D01*
X3374049Y-12696454D01*
X3383573Y-12658358D01*
X3393096Y-12639311D01*
X3402620Y-12629787D01*
X3421668Y-12620263D01*
X3574049Y-12801216D02*
X3583573Y-12810739D01*
X3574049Y-12820263D01*
X3564525Y-12810739D01*
X3574049Y-12801216D01*
X3574049Y-12820263D01*
X3707382Y-12620263D02*
X3726430Y-12620263D01*
X3745477Y-12629787D01*
X3755001Y-12639311D01*
X3764525Y-12658358D01*
X3774049Y-12696454D01*
X3774049Y-12744073D01*
X3764525Y-12782168D01*
X3755001Y-12801216D01*
X3745477Y-12810739D01*
X3726430Y-12820263D01*
X3707382Y-12820263D01*
X3688335Y-12810739D01*
X3678811Y-12801216D01*
X3669287Y-12782168D01*
X3659763Y-12744073D01*
X3659763Y-12696454D01*
X3669287Y-12658358D01*
X3678811Y-12639311D01*
X3688335Y-12629787D01*
X3707382Y-12620263D01*
X3888335Y-12705977D02*
X3869287Y-12696454D01*
X3859763Y-12686930D01*
X3850239Y-12667882D01*
X3850239Y-12658358D01*
X3859763Y-12639311D01*
X3869287Y-12629787D01*
X3888335Y-12620263D01*
X3926430Y-12620263D01*
X3945477Y-12629787D01*
X3955001Y-12639311D01*
X3964525Y-12658358D01*
X3964525Y-12667882D01*
X3955001Y-12686930D01*
X3945477Y-12696454D01*
X3926430Y-12705977D01*
X3888335Y-12705977D01*
X3869287Y-12715501D01*
X3859763Y-12725025D01*
X3850239Y-12744073D01*
X3850239Y-12782168D01*
X3859763Y-12801216D01*
X3869287Y-12810739D01*
X3888335Y-12820263D01*
X3926430Y-12820263D01*
X3945477Y-12810739D01*
X3955001Y-12801216D01*
X3964525Y-12782168D01*
X3964525Y-12744073D01*
X3955001Y-12725025D01*
X3945477Y-12715501D01*
X3926430Y-12705977D01*
X4135954Y-12620263D02*
X4097858Y-12620263D01*
X4078811Y-12629787D01*
X4069287Y-12639311D01*
X4050239Y-12667882D01*
X4040716Y-12705977D01*
X4040716Y-12782168D01*
X4050239Y-12801216D01*
X4059763Y-12810739D01*
X4078811Y-12820263D01*
X4116906Y-12820263D01*
X4135954Y-12810739D01*
X4145477Y-12801216D01*
X4155001Y-12782168D01*
X4155001Y-12734549D01*
X4145477Y-12715501D01*
X4135954Y-12705977D01*
X4116906Y-12696454D01*
X4078811Y-12696454D01*
X4059763Y-12705977D01*
X4050239Y-12715501D01*
X4040716Y-12734549D01*
X4326430Y-12620263D02*
X4288335Y-12620263D01*
X4269287Y-12629787D01*
X4259763Y-12639311D01*
X4240716Y-12667882D01*
X4231192Y-12705977D01*
X4231192Y-12782168D01*
X4240716Y-12801216D01*
X4250239Y-12810739D01*
X4269287Y-12820263D01*
X4307382Y-12820263D01*
X4326430Y-12810739D01*
X4335954Y-12801216D01*
X4345478Y-12782168D01*
X4345478Y-12734549D01*
X4335954Y-12715501D01*
X4326430Y-12705977D01*
X4307382Y-12696454D01*
X4269287Y-12696454D01*
X4250239Y-12705977D01*
X4240716Y-12715501D01*
X4231192Y-12734549D01*
X4421668Y-12620263D02*
X4421668Y-12658358D01*
X4497858Y-12620263D02*
X4497858Y-12658358D01*
X4793097Y-12896454D02*
X4783573Y-12886930D01*
X4764525Y-12858358D01*
X4755001Y-12839311D01*
X4745478Y-12810739D01*
X4735954Y-12763120D01*
X4735954Y-12725025D01*
X4745478Y-12677406D01*
X4755001Y-12648835D01*
X4764525Y-12629787D01*
X4783573Y-12601216D01*
X4793097Y-12591692D01*
X4955001Y-12686930D02*
X4955001Y-12820263D01*
X4907382Y-12610739D02*
X4859763Y-12753597D01*
X4983573Y-12753597D01*
X5212144Y-12820263D02*
X5212144Y-12620263D01*
X5297858Y-12820263D02*
X5297858Y-12715501D01*
X5288335Y-12696454D01*
X5269287Y-12686930D01*
X5240716Y-12686930D01*
X5221668Y-12696454D01*
X5212144Y-12705977D01*
X5421668Y-12820263D02*
X5402620Y-12810739D01*
X5393097Y-12801216D01*
X5383573Y-12782168D01*
X5383573Y-12725025D01*
X5393097Y-12705977D01*
X5402620Y-12696454D01*
X5421668Y-12686930D01*
X5450239Y-12686930D01*
X5469287Y-12696454D01*
X5478811Y-12705977D01*
X5488335Y-12725025D01*
X5488335Y-12782168D01*
X5478811Y-12801216D01*
X5469287Y-12810739D01*
X5450239Y-12820263D01*
X5421668Y-12820263D01*
X5602620Y-12820263D02*
X5583573Y-12810739D01*
X5574049Y-12791692D01*
X5574049Y-12620263D01*
X5755001Y-12810739D02*
X5735954Y-12820263D01*
X5697858Y-12820263D01*
X5678811Y-12810739D01*
X5669287Y-12791692D01*
X5669287Y-12715501D01*
X5678811Y-12696454D01*
X5697858Y-12686930D01*
X5735954Y-12686930D01*
X5755001Y-12696454D01*
X5764525Y-12715501D01*
X5764525Y-12734549D01*
X5669287Y-12753597D01*
X5840716Y-12810739D02*
X5859763Y-12820263D01*
X5897858Y-12820263D01*
X5916906Y-12810739D01*
X5926430Y-12791692D01*
X5926430Y-12782168D01*
X5916906Y-12763120D01*
X5897858Y-12753597D01*
X5869287Y-12753597D01*
X5850239Y-12744073D01*
X5840716Y-12725025D01*
X5840716Y-12715501D01*
X5850239Y-12696454D01*
X5869287Y-12686930D01*
X5897858Y-12686930D01*
X5916906Y-12696454D01*
X5993096Y-12896454D02*
X6002620Y-12886930D01*
X6021668Y-12858358D01*
X6031192Y-12839311D01*
X6040716Y-12810739D01*
X6050239Y-12763120D01*
X6050239Y-12725025D01*
X6040716Y-12677406D01*
X6031192Y-12648835D01*
X6021668Y-12629787D01*
X6002620Y-12601216D01*
X5993096Y-12591692D01*
M02*
