%TF.GenerationSoftware,KiCad,Pcbnew,(6.0.8)*%
%TF.CreationDate,2022-11-10T08:12:57-08:00*%
%TF.ProjectId,half-swept,68616c66-2d73-4776-9570-742e6b696361,rev?*%
%TF.SameCoordinates,Original*%
%TF.FileFunction,Drillmap*%
%TF.FilePolarity,Positive*%
%FSLAX45Y45*%
G04 Gerber Fmt 4.5, Leading zero omitted, Abs format (unit mm)*
G04 Created by KiCad (PCBNEW (6.0.8)) date 2022-11-10 08:12:57*
%MOMM*%
%LPD*%
G01*
G04 APERTURE LIST*
%ADD10C,0.050000*%
%ADD11C,0.200000*%
%ADD12C,0.040000*%
%ADD13C,0.075000*%
%ADD14C,0.099000*%
%ADD15C,0.109220*%
%ADD16C,0.147000*%
%ADD17C,0.220000*%
G04 APERTURE END LIST*
D10*
X1223692Y-3220171D02*
X1227712Y-8147003D01*
X12278886Y-2760878D02*
G75*
G03*
X12242686Y-2680500I-104476J1288D01*
G01*
X1366385Y-3018799D02*
G75*
G03*
X1223692Y-3220171I244505J-324501D01*
G01*
X12242686Y-2680500D02*
G75*
G03*
X6792687Y-1256251I-5286691J-9090387D01*
G01*
X11758266Y-10218445D02*
G75*
G03*
X1431486Y-8330612I-10180840J-26502435D01*
G01*
X1227709Y-8147003D02*
G75*
G03*
X1431486Y-8330612I197801J14643D01*
G01*
X12278887Y-2760878D02*
X12278886Y-8330500D01*
X6792687Y-1256251D02*
G75*
G03*
X1366386Y-3018800I-139342J-8805174D01*
G01*
X11758268Y-10218440D02*
G75*
G03*
X11878948Y-10185024I43992J75750D01*
G01*
X12547988Y-8757716D02*
X11878948Y-10185024D01*
X12278887Y-8330500D02*
G75*
G03*
X12432988Y-8522716I279953J66560D01*
G01*
X12547986Y-8757716D02*
G75*
G03*
X12432988Y-8522716I-199306J48106D01*
G01*
D11*
D12*
X1960293Y-5403206D02*
X2000293Y-5443206D01*
X2000293Y-5403206D02*
X1960293Y-5443206D01*
X2491927Y-4407958D02*
X2531927Y-4447958D01*
X2531927Y-4407958D02*
X2491927Y-4447958D01*
X2491927Y-7807958D02*
X2531927Y-7847958D01*
X2531927Y-7807958D02*
X2491927Y-7847958D01*
X2491927Y-6106958D02*
X2531927Y-6146958D01*
X2531927Y-6106958D02*
X2491927Y-6146958D01*
X4261293Y-5424206D02*
X4301293Y-5464206D01*
X4301293Y-5424206D02*
X4261293Y-5464206D01*
X4291885Y-4903857D02*
X4331885Y-4943857D01*
X4331885Y-4903857D02*
X4291885Y-4943857D01*
X4291908Y-6606940D02*
X4331908Y-6646940D01*
X4331908Y-6606940D02*
X4291908Y-6646940D01*
X4291927Y-3206958D02*
X4331927Y-3246958D01*
X4331927Y-3206958D02*
X4291927Y-3246958D01*
X4758293Y-5196206D02*
X4798293Y-5236206D01*
X4798293Y-5196206D02*
X4758293Y-5236206D01*
X4894000Y-5196000D02*
X4934000Y-5236000D01*
X4934000Y-5196000D02*
X4894000Y-5236000D01*
X5187293Y-4797206D02*
X5227293Y-4837206D01*
X5227293Y-4797206D02*
X5187293Y-4837206D01*
X5930480Y-5319019D02*
X5970480Y-5359019D01*
X5970480Y-5319019D02*
X5930480Y-5359019D01*
X6091927Y-4218958D02*
X6131927Y-4258958D01*
X6131927Y-4218958D02*
X6091927Y-4258958D01*
X6092057Y-5920597D02*
X6132057Y-5960597D01*
X6132057Y-5920597D02*
X6092057Y-5960597D01*
X6092307Y-2507229D02*
X6132307Y-2547229D01*
X6132307Y-2507229D02*
X6092307Y-2547229D01*
X7769693Y-8356340D02*
X7809693Y-8396340D01*
X7809693Y-8356340D02*
X7769693Y-8396340D01*
X7795234Y-5917265D02*
X7835234Y-5957265D01*
X7835234Y-5917265D02*
X7795234Y-5957265D01*
X7891828Y-3056806D02*
X7931828Y-3096806D01*
X7931828Y-3056806D02*
X7891828Y-3096806D01*
X7891925Y-4416573D02*
X7931925Y-4456573D01*
X7931925Y-4416573D02*
X7891925Y-4456573D01*
X7891925Y-4751957D02*
X7931925Y-4791957D01*
X7931925Y-4751957D02*
X7891925Y-4791957D01*
X7891927Y-6453958D02*
X7931927Y-6493958D01*
X7931927Y-6453958D02*
X7891927Y-6493958D01*
X8401000Y-5047000D02*
X8441000Y-5087000D01*
X8441000Y-5047000D02*
X8401000Y-5087000D01*
X9225293Y-4114206D02*
X9265293Y-4154206D01*
X9265293Y-4114206D02*
X9225293Y-4154206D01*
X9636919Y-8729350D02*
X9676919Y-8769350D01*
X9676919Y-8729350D02*
X9636919Y-8769350D01*
X9688844Y-6707934D02*
X9728844Y-6747934D01*
X9728844Y-6707934D02*
X9688844Y-6747934D01*
X9689753Y-5005804D02*
X9729753Y-5045804D01*
X9729753Y-5005804D02*
X9689753Y-5045804D01*
X9691842Y-3306871D02*
X9731842Y-3346871D01*
X9731842Y-3306871D02*
X9691842Y-3346871D01*
X10193293Y-5747206D02*
X10233293Y-5787206D01*
X10233293Y-5747206D02*
X10193293Y-5787206D01*
X10198000Y-5318000D02*
X10238000Y-5358000D01*
X10238000Y-5318000D02*
X10198000Y-5358000D01*
X10338293Y-5946206D02*
X10378293Y-5986206D01*
X10378293Y-5946206D02*
X10338293Y-5986206D01*
X10345293Y-5433206D02*
X10385293Y-5473206D01*
X10385293Y-5433206D02*
X10345293Y-5473206D01*
X10455293Y-5935206D02*
X10495293Y-5975206D01*
X10495293Y-5935206D02*
X10455293Y-5975206D01*
X10705293Y-2328206D02*
X10745293Y-2368206D01*
X10745293Y-2328206D02*
X10705293Y-2368206D01*
X10787000Y-6028000D02*
X10827000Y-6068000D01*
X10827000Y-6028000D02*
X10787000Y-6068000D01*
X10789293Y-2416206D02*
X10829293Y-2456206D01*
X10829293Y-2416206D02*
X10789293Y-2456206D01*
X10834293Y-5433206D02*
X10874293Y-5473206D01*
X10874293Y-5433206D02*
X10834293Y-5473206D01*
X10868293Y-2500206D02*
X10908293Y-2540206D01*
X10908293Y-2500206D02*
X10868293Y-2540206D01*
X10938293Y-5385206D02*
X10978293Y-5425206D01*
X10978293Y-5385206D02*
X10938293Y-5425206D01*
X10949293Y-2584206D02*
X10989293Y-2624206D01*
X10989293Y-2584206D02*
X10949293Y-2624206D01*
X11028293Y-2668206D02*
X11068293Y-2708206D01*
X11068293Y-2668206D02*
X11028293Y-2708206D01*
X11158000Y-5813000D02*
X11198000Y-5853000D01*
X11198000Y-5813000D02*
X11158000Y-5853000D01*
X11178000Y-5663000D02*
X11218000Y-5703000D01*
X11218000Y-5663000D02*
X11178000Y-5703000D01*
X11305000Y-5802000D02*
X11345000Y-5842000D01*
X11345000Y-5802000D02*
X11305000Y-5842000D01*
X11374000Y-2977000D02*
X11414000Y-3017000D01*
X11414000Y-2977000D02*
X11374000Y-3017000D01*
X11389000Y-6031000D02*
X11429000Y-6071000D01*
X11429000Y-6031000D02*
X11389000Y-6071000D01*
X11413791Y-9422373D02*
X11453791Y-9462373D01*
X11453791Y-9422373D02*
X11413791Y-9462373D01*
X11467000Y-3985000D02*
X11507000Y-4025000D01*
X11507000Y-3985000D02*
X11467000Y-4025000D01*
X11569000Y-5802000D02*
X11609000Y-5842000D01*
X11609000Y-5802000D02*
X11569000Y-5842000D01*
X11581000Y-4246000D02*
X11621000Y-4286000D01*
X11621000Y-4246000D02*
X11581000Y-4286000D01*
X11610293Y-7144206D02*
X11650293Y-7184206D01*
X11650293Y-7144206D02*
X11610293Y-7184206D01*
X11673175Y-3739175D02*
X11713175Y-3779175D01*
X11713175Y-3739175D02*
X11673175Y-3779175D01*
X11715306Y-7326229D02*
X11755306Y-7366229D01*
X11755306Y-7326229D02*
X11715306Y-7366229D01*
X11759000Y-2977000D02*
X11799000Y-3017000D01*
X11799000Y-2977000D02*
X11759000Y-3017000D01*
X11791307Y-2577229D02*
X11831307Y-2617229D01*
X11831307Y-2577229D02*
X11791307Y-2617229D01*
X11799307Y-7548229D02*
X11839307Y-7588229D01*
X11839307Y-7548229D02*
X11799307Y-7588229D01*
X11988293Y-6843206D02*
X12028293Y-6883206D01*
X12028293Y-6843206D02*
X11988293Y-6883206D01*
X12088293Y-6931206D02*
X12128293Y-6971206D01*
X12128293Y-6931206D02*
X12088293Y-6971206D01*
X12172293Y-7016206D02*
X12212293Y-7056206D01*
X12212293Y-7016206D02*
X12172293Y-7056206D01*
D13*
X11510807Y-7331229D02*
G75*
G03*
X11510807Y-7331229I-37500J0D01*
G01*
X11510807Y-7531229D02*
G75*
G03*
X11510807Y-7531229I-37500J0D01*
G01*
X11510807Y-7731229D02*
G75*
G03*
X11510807Y-7731229I-37500J0D01*
G01*
D14*
X7295186Y-1537250D02*
X7295186Y-1636250D01*
X7245686Y-1586750D02*
X7344686Y-1586750D01*
X7795186Y-1537250D02*
X7795186Y-1636250D01*
X7745686Y-1586750D02*
X7844686Y-1586750D01*
D15*
X10614302Y-3035791D02*
X10614302Y-2958560D01*
X10537071Y-2958560D01*
X10537071Y-3035791D01*
X10614302Y-3035791D01*
X10614302Y-3289791D02*
X10614302Y-3212560D01*
X10537071Y-3212560D01*
X10537071Y-3289791D01*
X10614302Y-3289791D01*
X10614302Y-3543791D02*
X10614302Y-3466560D01*
X10537071Y-3466560D01*
X10537071Y-3543791D01*
X10614302Y-3543791D01*
X10614302Y-3797791D02*
X10614302Y-3720560D01*
X10537071Y-3720560D01*
X10537071Y-3797791D01*
X10614302Y-3797791D01*
X10614302Y-4051791D02*
X10614302Y-3974560D01*
X10537071Y-3974560D01*
X10537071Y-4051791D01*
X10614302Y-4051791D01*
X10614302Y-4305791D02*
X10614302Y-4228560D01*
X10537071Y-4228560D01*
X10537071Y-4305791D01*
X10614302Y-4305791D01*
X10614302Y-4559791D02*
X10614302Y-4482560D01*
X10537071Y-4482560D01*
X10537071Y-4559791D01*
X10614302Y-4559791D01*
X10614302Y-4813791D02*
X10614302Y-4736560D01*
X10537071Y-4736560D01*
X10537071Y-4813791D01*
X10614302Y-4813791D01*
X10614302Y-5067791D02*
X10614302Y-4990560D01*
X10537071Y-4990560D01*
X10537071Y-5067791D01*
X10614302Y-5067791D01*
X10614302Y-5321791D02*
X10614302Y-5244560D01*
X10537071Y-5244560D01*
X10537071Y-5321791D01*
X10614302Y-5321791D01*
X10614302Y-5575791D02*
X10614302Y-5498560D01*
X10537071Y-5498560D01*
X10537071Y-5575791D01*
X10614302Y-5575791D01*
X10614302Y-5829791D02*
X10614302Y-5752560D01*
X10537071Y-5752560D01*
X10537071Y-5829791D01*
X10614302Y-5829791D01*
X10845922Y-6628845D02*
X10845922Y-6551614D01*
X10768691Y-6551614D01*
X10768691Y-6628845D01*
X10845922Y-6628845D01*
X10868302Y-5321791D02*
X10868302Y-5244560D01*
X10791071Y-5244560D01*
X10791071Y-5321791D01*
X10868302Y-5321791D01*
X11099922Y-6628845D02*
X11099922Y-6551614D01*
X11022691Y-6551614D01*
X11022691Y-6628845D01*
X11099922Y-6628845D01*
X11122302Y-5321791D02*
X11122302Y-5244560D01*
X11045071Y-5244560D01*
X11045071Y-5321791D01*
X11122302Y-5321791D01*
X11353922Y-6628845D02*
X11353922Y-6551614D01*
X11276691Y-6551614D01*
X11276691Y-6628845D01*
X11353922Y-6628845D01*
X11376302Y-5321791D02*
X11376302Y-5244560D01*
X11299071Y-5244560D01*
X11299071Y-5321791D01*
X11376302Y-5321791D01*
X11607922Y-6628845D02*
X11607922Y-6551614D01*
X11530691Y-6551614D01*
X11530691Y-6628845D01*
X11607922Y-6628845D01*
X11861922Y-6628845D02*
X11861922Y-6551614D01*
X11784691Y-6551614D01*
X11784691Y-6628845D01*
X11861922Y-6628845D01*
X12138302Y-3035791D02*
X12138302Y-2958560D01*
X12061071Y-2958560D01*
X12061071Y-3035791D01*
X12138302Y-3035791D01*
X12138302Y-3289791D02*
X12138302Y-3212560D01*
X12061071Y-3212560D01*
X12061071Y-3289791D01*
X12138302Y-3289791D01*
X12138302Y-3543791D02*
X12138302Y-3466560D01*
X12061071Y-3466560D01*
X12061071Y-3543791D01*
X12138302Y-3543791D01*
X12138302Y-3797791D02*
X12138302Y-3720560D01*
X12061071Y-3720560D01*
X12061071Y-3797791D01*
X12138302Y-3797791D01*
X12138302Y-4051791D02*
X12138302Y-3974560D01*
X12061071Y-3974560D01*
X12061071Y-4051791D01*
X12138302Y-4051791D01*
X12138302Y-4305791D02*
X12138302Y-4228560D01*
X12061071Y-4228560D01*
X12061071Y-4305791D01*
X12138302Y-4305791D01*
X12138302Y-4559791D02*
X12138302Y-4482560D01*
X12061071Y-4482560D01*
X12061071Y-4559791D01*
X12138302Y-4559791D01*
X12138302Y-4813791D02*
X12138302Y-4736560D01*
X12061071Y-4736560D01*
X12061071Y-4813791D01*
X12138302Y-4813791D01*
X12138302Y-5067791D02*
X12138302Y-4990560D01*
X12061071Y-4990560D01*
X12061071Y-5067791D01*
X12138302Y-5067791D01*
X12138302Y-5321791D02*
X12138302Y-5244560D01*
X12061071Y-5244560D01*
X12061071Y-5321791D01*
X12138302Y-5321791D01*
X12138302Y-5575791D02*
X12138302Y-5498560D01*
X12061071Y-5498560D01*
X12061071Y-5575791D01*
X12138302Y-5575791D01*
X12138302Y-5829791D02*
X12138302Y-5752560D01*
X12061071Y-5752560D01*
X12061071Y-5829791D01*
X12138302Y-5829791D01*
D16*
X1762686Y-3824000D02*
X1836186Y-3750500D01*
X1762686Y-3677000D01*
X1689186Y-3750500D01*
X1762686Y-3824000D01*
X1762686Y-5524000D02*
X1836186Y-5450500D01*
X1762686Y-5377000D01*
X1689186Y-5450500D01*
X1762686Y-5524000D01*
X1762686Y-7224000D02*
X1836186Y-7150500D01*
X1762686Y-7077000D01*
X1689186Y-7150500D01*
X1762686Y-7224000D01*
X2262687Y-3614000D02*
X2336187Y-3540500D01*
X2262687Y-3467000D01*
X2189187Y-3540500D01*
X2262687Y-3614000D01*
X2262687Y-5314000D02*
X2336187Y-5240500D01*
X2262687Y-5167000D01*
X2189187Y-5240500D01*
X2262687Y-5314000D01*
X2262687Y-7014000D02*
X2336187Y-6940500D01*
X2262687Y-6867000D01*
X2189187Y-6940500D01*
X2262687Y-7014000D01*
X2762687Y-3824000D02*
X2836186Y-3750500D01*
X2762687Y-3677000D01*
X2689187Y-3750500D01*
X2762687Y-3824000D01*
X2762687Y-5524000D02*
X2836186Y-5450500D01*
X2762687Y-5377000D01*
X2689187Y-5450500D01*
X2762687Y-5524000D01*
X2762687Y-7224000D02*
X2836186Y-7150500D01*
X2762687Y-7077000D01*
X2689187Y-7150500D01*
X2762687Y-7224000D01*
X3562686Y-6023200D02*
X3636186Y-5949700D01*
X3562686Y-5876200D01*
X3489186Y-5949700D01*
X3562686Y-6023200D01*
X3562687Y-2624000D02*
X3636187Y-2550500D01*
X3562687Y-2477000D01*
X3489187Y-2550500D01*
X3562687Y-2624000D01*
X3562687Y-4321400D02*
X3636187Y-4247900D01*
X3562687Y-4174400D01*
X3489187Y-4247900D01*
X3562687Y-4321400D01*
X4062686Y-5813200D02*
X4136186Y-5739700D01*
X4062686Y-5666200D01*
X3989186Y-5739700D01*
X4062686Y-5813200D01*
X4062687Y-2414000D02*
X4136187Y-2340500D01*
X4062687Y-2267000D01*
X3989187Y-2340500D01*
X4062687Y-2414000D01*
X4062687Y-4111400D02*
X4136187Y-4037900D01*
X4062687Y-3964400D01*
X3989187Y-4037900D01*
X4062687Y-4111400D01*
X4562686Y-6023200D02*
X4636186Y-5949700D01*
X4562686Y-5876200D01*
X4489186Y-5949700D01*
X4562686Y-6023200D01*
X4562687Y-2624000D02*
X4636187Y-2550500D01*
X4562687Y-2477000D01*
X4489187Y-2550500D01*
X4562687Y-2624000D01*
X4562687Y-4321400D02*
X4636187Y-4247900D01*
X4562687Y-4174400D01*
X4489187Y-4247900D01*
X4562687Y-4321400D01*
X5362686Y-5337400D02*
X5436186Y-5263900D01*
X5362686Y-5190400D01*
X5289186Y-5263900D01*
X5362686Y-5337400D01*
X5362686Y-1924000D02*
X5436186Y-1850500D01*
X5362686Y-1777000D01*
X5289186Y-1850500D01*
X5362686Y-1924000D01*
X5362687Y-3635600D02*
X5436187Y-3562100D01*
X5362687Y-3488600D01*
X5289187Y-3562100D01*
X5362687Y-3635600D01*
X5862686Y-5127400D02*
X5936186Y-5053900D01*
X5862686Y-4980400D01*
X5789186Y-5053900D01*
X5862686Y-5127400D01*
X5862686Y-1714000D02*
X5936186Y-1640500D01*
X5862686Y-1567000D01*
X5789186Y-1640500D01*
X5862686Y-1714000D01*
X5862687Y-3425600D02*
X5936187Y-3352100D01*
X5862687Y-3278600D01*
X5789187Y-3352100D01*
X5862687Y-3425600D01*
X6362686Y-5337400D02*
X6436186Y-5263900D01*
X6362686Y-5190400D01*
X6289186Y-5263900D01*
X6362686Y-5337400D01*
X6362686Y-1924000D02*
X6436186Y-1850500D01*
X6362686Y-1777000D01*
X6289186Y-1850500D01*
X6362686Y-1924000D01*
X6362687Y-3635600D02*
X6436187Y-3562100D01*
X6362687Y-3488600D01*
X6289187Y-3562100D01*
X6362687Y-3635600D01*
X7102708Y-7711868D02*
X7176208Y-7638368D01*
X7102708Y-7564868D01*
X7029208Y-7638368D01*
X7102708Y-7711868D01*
X7162686Y-2474000D02*
X7236186Y-2400500D01*
X7162686Y-2327000D01*
X7089186Y-2400500D01*
X7162686Y-2474000D01*
X7162686Y-5870800D02*
X7236186Y-5797300D01*
X7162686Y-5723800D01*
X7089186Y-5797300D01*
X7162686Y-5870800D01*
X7162687Y-4169000D02*
X7236187Y-4095500D01*
X7162687Y-4022000D01*
X7089187Y-4095500D01*
X7162687Y-4169000D01*
X7619108Y-7546245D02*
X7692608Y-7472745D01*
X7619108Y-7399245D01*
X7545608Y-7472745D01*
X7619108Y-7546245D01*
X7662686Y-2264000D02*
X7736186Y-2190500D01*
X7662686Y-2117000D01*
X7589186Y-2190500D01*
X7662686Y-2264000D01*
X7662686Y-5660800D02*
X7736186Y-5587301D01*
X7662686Y-5513801D01*
X7589186Y-5587301D01*
X7662686Y-5660800D01*
X7662687Y-3959000D02*
X7736187Y-3885500D01*
X7662687Y-3812000D01*
X7589187Y-3885500D01*
X7662687Y-3959000D01*
X8098903Y-7799024D02*
X8172403Y-7725524D01*
X8098903Y-7652024D01*
X8025403Y-7725524D01*
X8098903Y-7799024D01*
X8162686Y-2474000D02*
X8236186Y-2400500D01*
X8162686Y-2327000D01*
X8089186Y-2400500D01*
X8162686Y-2474000D01*
X8162686Y-5870800D02*
X8236186Y-5797300D01*
X8162686Y-5723800D01*
X8089186Y-5797300D01*
X8162686Y-5870800D01*
X8162687Y-4169000D02*
X8236187Y-4095500D01*
X8162687Y-4022000D01*
X8089187Y-4095500D01*
X8162687Y-4169000D01*
X8960052Y-6124800D02*
X9033552Y-6051300D01*
X8960052Y-5977800D01*
X8886552Y-6051300D01*
X8960052Y-6124800D01*
X8960687Y-4423000D02*
X9034187Y-4349500D01*
X8960687Y-4276000D01*
X8887187Y-4349500D01*
X8960687Y-4423000D01*
X8962686Y-2724000D02*
X9036186Y-2650500D01*
X8962686Y-2577000D01*
X8889186Y-2650500D01*
X8962686Y-2724000D01*
X9108075Y-7977539D02*
X9181575Y-7904039D01*
X9108075Y-7830539D01*
X9034575Y-7904039D01*
X9108075Y-7977539D01*
X9460052Y-5914800D02*
X9533552Y-5841300D01*
X9460052Y-5767800D01*
X9386552Y-5841300D01*
X9460052Y-5914800D01*
X9460687Y-4213000D02*
X9534187Y-4139500D01*
X9460687Y-4066000D01*
X9387187Y-4139500D01*
X9460687Y-4213000D01*
X9462686Y-2514000D02*
X9536186Y-2440500D01*
X9462686Y-2367000D01*
X9389186Y-2440500D01*
X9462686Y-2514000D01*
X9645390Y-7904104D02*
X9718890Y-7830604D01*
X9645390Y-7757104D01*
X9571890Y-7830604D01*
X9645390Y-7904104D01*
X9960052Y-6124800D02*
X10033552Y-6051300D01*
X9960052Y-5977800D01*
X9886552Y-6051300D01*
X9960052Y-6124800D01*
X9960687Y-4423000D02*
X10034187Y-4349500D01*
X9960687Y-4276000D01*
X9887187Y-4349500D01*
X9960687Y-4423000D01*
X9962686Y-2724000D02*
X10036186Y-2650500D01*
X9962686Y-2577000D01*
X9889186Y-2650500D01*
X9962686Y-2724000D01*
X10074001Y-8236358D02*
X10147501Y-8162858D01*
X10074001Y-8089358D01*
X10000501Y-8162858D01*
X10074001Y-8236358D01*
X11040128Y-8588294D02*
X11113628Y-8514794D01*
X11040128Y-8441294D01*
X10966628Y-8514794D01*
X11040128Y-8588294D01*
X11582031Y-8609278D02*
X11655531Y-8535778D01*
X11582031Y-8462278D01*
X11508531Y-8535778D01*
X11582031Y-8609278D01*
X11946435Y-9010912D02*
X12019935Y-8937412D01*
X11946435Y-8863912D01*
X11872935Y-8937412D01*
X11946435Y-9010912D01*
D17*
X4797687Y-3710500D02*
X5017687Y-3930500D01*
X5017687Y-3710500D02*
X4797687Y-3930500D01*
X5017687Y-3820500D02*
G75*
G03*
X5017687Y-3820500I-110000J0D01*
G01*
X6702687Y-1805500D02*
X6922687Y-2025500D01*
X6922687Y-1805500D02*
X6702687Y-2025500D01*
X6922687Y-1915500D02*
G75*
G03*
X6922687Y-1915500I-110000J0D01*
G01*
X6702687Y-5615500D02*
X6922687Y-5835500D01*
X6922687Y-5615500D02*
X6702687Y-5835500D01*
X6922687Y-5725500D02*
G75*
G03*
X6922687Y-5725500I-110000J0D01*
G01*
X8607687Y-3710500D02*
X8827687Y-3930500D01*
X8827687Y-3710500D02*
X8607687Y-3930500D01*
X8827687Y-3820500D02*
G75*
G03*
X8827687Y-3820500I-110000J0D01*
G01*
D11*
X1478811Y-10543263D02*
X1478811Y-10343263D01*
X1526430Y-10343263D01*
X1555001Y-10352787D01*
X1574049Y-10371835D01*
X1583573Y-10390882D01*
X1593096Y-10428978D01*
X1593096Y-10457549D01*
X1583573Y-10495644D01*
X1574049Y-10514692D01*
X1555001Y-10533739D01*
X1526430Y-10543263D01*
X1478811Y-10543263D01*
X1678811Y-10543263D02*
X1678811Y-10409930D01*
X1678811Y-10448025D02*
X1688335Y-10428978D01*
X1697858Y-10419454D01*
X1716906Y-10409930D01*
X1735954Y-10409930D01*
X1802620Y-10543263D02*
X1802620Y-10409930D01*
X1802620Y-10343263D02*
X1793096Y-10352787D01*
X1802620Y-10362311D01*
X1812144Y-10352787D01*
X1802620Y-10343263D01*
X1802620Y-10362311D01*
X1926430Y-10543263D02*
X1907382Y-10533739D01*
X1897858Y-10514692D01*
X1897858Y-10343263D01*
X2031192Y-10543263D02*
X2012144Y-10533739D01*
X2002620Y-10514692D01*
X2002620Y-10343263D01*
X2259763Y-10543263D02*
X2259763Y-10343263D01*
X2326430Y-10486120D01*
X2393097Y-10343263D01*
X2393097Y-10543263D01*
X2574049Y-10543263D02*
X2574049Y-10438501D01*
X2564525Y-10419454D01*
X2545478Y-10409930D01*
X2507382Y-10409930D01*
X2488335Y-10419454D01*
X2574049Y-10533739D02*
X2555001Y-10543263D01*
X2507382Y-10543263D01*
X2488335Y-10533739D01*
X2478811Y-10514692D01*
X2478811Y-10495644D01*
X2488335Y-10476597D01*
X2507382Y-10467073D01*
X2555001Y-10467073D01*
X2574049Y-10457549D01*
X2669287Y-10409930D02*
X2669287Y-10609930D01*
X2669287Y-10419454D02*
X2688335Y-10409930D01*
X2726430Y-10409930D01*
X2745478Y-10419454D01*
X2755001Y-10428978D01*
X2764525Y-10448025D01*
X2764525Y-10505168D01*
X2755001Y-10524216D01*
X2745478Y-10533739D01*
X2726430Y-10543263D01*
X2688335Y-10543263D01*
X2669287Y-10533739D01*
X2850239Y-10524216D02*
X2859763Y-10533739D01*
X2850239Y-10543263D01*
X2840716Y-10533739D01*
X2850239Y-10524216D01*
X2850239Y-10543263D01*
X2850239Y-10419454D02*
X2859763Y-10428978D01*
X2850239Y-10438501D01*
X2840716Y-10428978D01*
X2850239Y-10419454D01*
X2850239Y-10438501D01*
D12*
X1181192Y-10852787D02*
X1221192Y-10892787D01*
X1221192Y-10852787D02*
X1181192Y-10892787D01*
D11*
X1516906Y-10763263D02*
X1535954Y-10763263D01*
X1555001Y-10772787D01*
X1564525Y-10782311D01*
X1574049Y-10801359D01*
X1583573Y-10839454D01*
X1583573Y-10887073D01*
X1574049Y-10925168D01*
X1564525Y-10944216D01*
X1555001Y-10953739D01*
X1535954Y-10963263D01*
X1516906Y-10963263D01*
X1497858Y-10953739D01*
X1488335Y-10944216D01*
X1478811Y-10925168D01*
X1469287Y-10887073D01*
X1469287Y-10839454D01*
X1478811Y-10801359D01*
X1488335Y-10782311D01*
X1497858Y-10772787D01*
X1516906Y-10763263D01*
X1669287Y-10944216D02*
X1678811Y-10953739D01*
X1669287Y-10963263D01*
X1659763Y-10953739D01*
X1669287Y-10944216D01*
X1669287Y-10963263D01*
X1850239Y-10829930D02*
X1850239Y-10963263D01*
X1802620Y-10753739D02*
X1755001Y-10896597D01*
X1878811Y-10896597D01*
X1993096Y-10763263D02*
X2012144Y-10763263D01*
X2031192Y-10772787D01*
X2040716Y-10782311D01*
X2050239Y-10801359D01*
X2059763Y-10839454D01*
X2059763Y-10887073D01*
X2050239Y-10925168D01*
X2040716Y-10944216D01*
X2031192Y-10953739D01*
X2012144Y-10963263D01*
X1993096Y-10963263D01*
X1974049Y-10953739D01*
X1964525Y-10944216D01*
X1955001Y-10925168D01*
X1945477Y-10887073D01*
X1945477Y-10839454D01*
X1955001Y-10801359D01*
X1964525Y-10782311D01*
X1974049Y-10772787D01*
X1993096Y-10763263D01*
X2183573Y-10763263D02*
X2202620Y-10763263D01*
X2221668Y-10772787D01*
X2231192Y-10782311D01*
X2240716Y-10801359D01*
X2250239Y-10839454D01*
X2250239Y-10887073D01*
X2240716Y-10925168D01*
X2231192Y-10944216D01*
X2221668Y-10953739D01*
X2202620Y-10963263D01*
X2183573Y-10963263D01*
X2164525Y-10953739D01*
X2155001Y-10944216D01*
X2145478Y-10925168D01*
X2135954Y-10887073D01*
X2135954Y-10839454D01*
X2145478Y-10801359D01*
X2155001Y-10782311D01*
X2164525Y-10772787D01*
X2183573Y-10763263D01*
X2335954Y-10963263D02*
X2335954Y-10829930D01*
X2335954Y-10848978D02*
X2345478Y-10839454D01*
X2364525Y-10829930D01*
X2393097Y-10829930D01*
X2412144Y-10839454D01*
X2421668Y-10858501D01*
X2421668Y-10963263D01*
X2421668Y-10858501D02*
X2431192Y-10839454D01*
X2450239Y-10829930D01*
X2478811Y-10829930D01*
X2497858Y-10839454D01*
X2507382Y-10858501D01*
X2507382Y-10963263D01*
X2602620Y-10963263D02*
X2602620Y-10829930D01*
X2602620Y-10848978D02*
X2612144Y-10839454D01*
X2631192Y-10829930D01*
X2659763Y-10829930D01*
X2678811Y-10839454D01*
X2688335Y-10858501D01*
X2688335Y-10963263D01*
X2688335Y-10858501D02*
X2697858Y-10839454D01*
X2716906Y-10829930D01*
X2745478Y-10829930D01*
X2764525Y-10839454D01*
X2774049Y-10858501D01*
X2774049Y-10963263D01*
X3164525Y-10753739D02*
X2993096Y-11010882D01*
X3421668Y-10763263D02*
X3440716Y-10763263D01*
X3459763Y-10772787D01*
X3469287Y-10782311D01*
X3478811Y-10801359D01*
X3488335Y-10839454D01*
X3488335Y-10887073D01*
X3478811Y-10925168D01*
X3469287Y-10944216D01*
X3459763Y-10953739D01*
X3440716Y-10963263D01*
X3421668Y-10963263D01*
X3402620Y-10953739D01*
X3393096Y-10944216D01*
X3383573Y-10925168D01*
X3374049Y-10887073D01*
X3374049Y-10839454D01*
X3383573Y-10801359D01*
X3393096Y-10782311D01*
X3402620Y-10772787D01*
X3421668Y-10763263D01*
X3574049Y-10944216D02*
X3583573Y-10953739D01*
X3574049Y-10963263D01*
X3564525Y-10953739D01*
X3574049Y-10944216D01*
X3574049Y-10963263D01*
X3707382Y-10763263D02*
X3726430Y-10763263D01*
X3745477Y-10772787D01*
X3755001Y-10782311D01*
X3764525Y-10801359D01*
X3774049Y-10839454D01*
X3774049Y-10887073D01*
X3764525Y-10925168D01*
X3755001Y-10944216D01*
X3745477Y-10953739D01*
X3726430Y-10963263D01*
X3707382Y-10963263D01*
X3688335Y-10953739D01*
X3678811Y-10944216D01*
X3669287Y-10925168D01*
X3659763Y-10887073D01*
X3659763Y-10839454D01*
X3669287Y-10801359D01*
X3678811Y-10782311D01*
X3688335Y-10772787D01*
X3707382Y-10763263D01*
X3964525Y-10963263D02*
X3850239Y-10963263D01*
X3907382Y-10963263D02*
X3907382Y-10763263D01*
X3888335Y-10791835D01*
X3869287Y-10810882D01*
X3850239Y-10820406D01*
X4145477Y-10763263D02*
X4050239Y-10763263D01*
X4040716Y-10858501D01*
X4050239Y-10848978D01*
X4069287Y-10839454D01*
X4116906Y-10839454D01*
X4135954Y-10848978D01*
X4145477Y-10858501D01*
X4155001Y-10877549D01*
X4155001Y-10925168D01*
X4145477Y-10944216D01*
X4135954Y-10953739D01*
X4116906Y-10963263D01*
X4069287Y-10963263D01*
X4050239Y-10953739D01*
X4040716Y-10944216D01*
X4221668Y-10763263D02*
X4355001Y-10763263D01*
X4269287Y-10963263D01*
X4421668Y-10763263D02*
X4421668Y-10801359D01*
X4497858Y-10763263D02*
X4497858Y-10801359D01*
X4793097Y-11039454D02*
X4783573Y-11029930D01*
X4764525Y-11001359D01*
X4755001Y-10982311D01*
X4745478Y-10953739D01*
X4735954Y-10906120D01*
X4735954Y-10868025D01*
X4745478Y-10820406D01*
X4755001Y-10791835D01*
X4764525Y-10772787D01*
X4783573Y-10744216D01*
X4793097Y-10734692D01*
X4964525Y-10763263D02*
X4869287Y-10763263D01*
X4859763Y-10858501D01*
X4869287Y-10848978D01*
X4888335Y-10839454D01*
X4935954Y-10839454D01*
X4955001Y-10848978D01*
X4964525Y-10858501D01*
X4974049Y-10877549D01*
X4974049Y-10925168D01*
X4964525Y-10944216D01*
X4955001Y-10953739D01*
X4935954Y-10963263D01*
X4888335Y-10963263D01*
X4869287Y-10953739D01*
X4859763Y-10944216D01*
X5088335Y-10848978D02*
X5069287Y-10839454D01*
X5059763Y-10829930D01*
X5050239Y-10810882D01*
X5050239Y-10801359D01*
X5059763Y-10782311D01*
X5069287Y-10772787D01*
X5088335Y-10763263D01*
X5126430Y-10763263D01*
X5145478Y-10772787D01*
X5155001Y-10782311D01*
X5164525Y-10801359D01*
X5164525Y-10810882D01*
X5155001Y-10829930D01*
X5145478Y-10839454D01*
X5126430Y-10848978D01*
X5088335Y-10848978D01*
X5069287Y-10858501D01*
X5059763Y-10868025D01*
X5050239Y-10887073D01*
X5050239Y-10925168D01*
X5059763Y-10944216D01*
X5069287Y-10953739D01*
X5088335Y-10963263D01*
X5126430Y-10963263D01*
X5145478Y-10953739D01*
X5155001Y-10944216D01*
X5164525Y-10925168D01*
X5164525Y-10887073D01*
X5155001Y-10868025D01*
X5145478Y-10858501D01*
X5126430Y-10848978D01*
X5402620Y-10963263D02*
X5402620Y-10763263D01*
X5488335Y-10963263D02*
X5488335Y-10858501D01*
X5478811Y-10839454D01*
X5459763Y-10829930D01*
X5431192Y-10829930D01*
X5412144Y-10839454D01*
X5402620Y-10848978D01*
X5612144Y-10963263D02*
X5593096Y-10953739D01*
X5583573Y-10944216D01*
X5574049Y-10925168D01*
X5574049Y-10868025D01*
X5583573Y-10848978D01*
X5593096Y-10839454D01*
X5612144Y-10829930D01*
X5640716Y-10829930D01*
X5659763Y-10839454D01*
X5669287Y-10848978D01*
X5678811Y-10868025D01*
X5678811Y-10925168D01*
X5669287Y-10944216D01*
X5659763Y-10953739D01*
X5640716Y-10963263D01*
X5612144Y-10963263D01*
X5793096Y-10963263D02*
X5774049Y-10953739D01*
X5764525Y-10934692D01*
X5764525Y-10763263D01*
X5945477Y-10953739D02*
X5926430Y-10963263D01*
X5888335Y-10963263D01*
X5869287Y-10953739D01*
X5859763Y-10934692D01*
X5859763Y-10858501D01*
X5869287Y-10839454D01*
X5888335Y-10829930D01*
X5926430Y-10829930D01*
X5945477Y-10839454D01*
X5955001Y-10858501D01*
X5955001Y-10877549D01*
X5859763Y-10896597D01*
X6031192Y-10953739D02*
X6050239Y-10963263D01*
X6088335Y-10963263D01*
X6107382Y-10953739D01*
X6116906Y-10934692D01*
X6116906Y-10925168D01*
X6107382Y-10906120D01*
X6088335Y-10896597D01*
X6059763Y-10896597D01*
X6040716Y-10887073D01*
X6031192Y-10868025D01*
X6031192Y-10858501D01*
X6040716Y-10839454D01*
X6059763Y-10829930D01*
X6088335Y-10829930D01*
X6107382Y-10839454D01*
X6183573Y-11039454D02*
X6193096Y-11029930D01*
X6212144Y-11001359D01*
X6221668Y-10982311D01*
X6231192Y-10953739D01*
X6240716Y-10906120D01*
X6240716Y-10868025D01*
X6231192Y-10820406D01*
X6221668Y-10791835D01*
X6212144Y-10772787D01*
X6193096Y-10744216D01*
X6183573Y-10734692D01*
D13*
X1221192Y-11136787D02*
G75*
G03*
X1221192Y-11136787I-37500J0D01*
G01*
D11*
X1516906Y-11027263D02*
X1535954Y-11027263D01*
X1555001Y-11036787D01*
X1564525Y-11046311D01*
X1574049Y-11065359D01*
X1583573Y-11103454D01*
X1583573Y-11151073D01*
X1574049Y-11189168D01*
X1564525Y-11208216D01*
X1555001Y-11217739D01*
X1535954Y-11227263D01*
X1516906Y-11227263D01*
X1497858Y-11217739D01*
X1488335Y-11208216D01*
X1478811Y-11189168D01*
X1469287Y-11151073D01*
X1469287Y-11103454D01*
X1478811Y-11065359D01*
X1488335Y-11046311D01*
X1497858Y-11036787D01*
X1516906Y-11027263D01*
X1669287Y-11208216D02*
X1678811Y-11217739D01*
X1669287Y-11227263D01*
X1659763Y-11217739D01*
X1669287Y-11208216D01*
X1669287Y-11227263D01*
X1745477Y-11027263D02*
X1878811Y-11027263D01*
X1793096Y-11227263D01*
X2050239Y-11027263D02*
X1955001Y-11027263D01*
X1945477Y-11122501D01*
X1955001Y-11112978D01*
X1974049Y-11103454D01*
X2021668Y-11103454D01*
X2040716Y-11112978D01*
X2050239Y-11122501D01*
X2059763Y-11141549D01*
X2059763Y-11189168D01*
X2050239Y-11208216D01*
X2040716Y-11217739D01*
X2021668Y-11227263D01*
X1974049Y-11227263D01*
X1955001Y-11217739D01*
X1945477Y-11208216D01*
X2183573Y-11027263D02*
X2202620Y-11027263D01*
X2221668Y-11036787D01*
X2231192Y-11046311D01*
X2240716Y-11065359D01*
X2250239Y-11103454D01*
X2250239Y-11151073D01*
X2240716Y-11189168D01*
X2231192Y-11208216D01*
X2221668Y-11217739D01*
X2202620Y-11227263D01*
X2183573Y-11227263D01*
X2164525Y-11217739D01*
X2155001Y-11208216D01*
X2145478Y-11189168D01*
X2135954Y-11151073D01*
X2135954Y-11103454D01*
X2145478Y-11065359D01*
X2155001Y-11046311D01*
X2164525Y-11036787D01*
X2183573Y-11027263D01*
X2335954Y-11227263D02*
X2335954Y-11093930D01*
X2335954Y-11112978D02*
X2345478Y-11103454D01*
X2364525Y-11093930D01*
X2393097Y-11093930D01*
X2412144Y-11103454D01*
X2421668Y-11122501D01*
X2421668Y-11227263D01*
X2421668Y-11122501D02*
X2431192Y-11103454D01*
X2450239Y-11093930D01*
X2478811Y-11093930D01*
X2497858Y-11103454D01*
X2507382Y-11122501D01*
X2507382Y-11227263D01*
X2602620Y-11227263D02*
X2602620Y-11093930D01*
X2602620Y-11112978D02*
X2612144Y-11103454D01*
X2631192Y-11093930D01*
X2659763Y-11093930D01*
X2678811Y-11103454D01*
X2688335Y-11122501D01*
X2688335Y-11227263D01*
X2688335Y-11122501D02*
X2697858Y-11103454D01*
X2716906Y-11093930D01*
X2745478Y-11093930D01*
X2764525Y-11103454D01*
X2774049Y-11122501D01*
X2774049Y-11227263D01*
X3164525Y-11017739D02*
X2993096Y-11274882D01*
X3421668Y-11027263D02*
X3440716Y-11027263D01*
X3459763Y-11036787D01*
X3469287Y-11046311D01*
X3478811Y-11065359D01*
X3488335Y-11103454D01*
X3488335Y-11151073D01*
X3478811Y-11189168D01*
X3469287Y-11208216D01*
X3459763Y-11217739D01*
X3440716Y-11227263D01*
X3421668Y-11227263D01*
X3402620Y-11217739D01*
X3393096Y-11208216D01*
X3383573Y-11189168D01*
X3374049Y-11151073D01*
X3374049Y-11103454D01*
X3383573Y-11065359D01*
X3393096Y-11046311D01*
X3402620Y-11036787D01*
X3421668Y-11027263D01*
X3574049Y-11208216D02*
X3583573Y-11217739D01*
X3574049Y-11227263D01*
X3564525Y-11217739D01*
X3574049Y-11208216D01*
X3574049Y-11227263D01*
X3707382Y-11027263D02*
X3726430Y-11027263D01*
X3745477Y-11036787D01*
X3755001Y-11046311D01*
X3764525Y-11065359D01*
X3774049Y-11103454D01*
X3774049Y-11151073D01*
X3764525Y-11189168D01*
X3755001Y-11208216D01*
X3745477Y-11217739D01*
X3726430Y-11227263D01*
X3707382Y-11227263D01*
X3688335Y-11217739D01*
X3678811Y-11208216D01*
X3669287Y-11189168D01*
X3659763Y-11151073D01*
X3659763Y-11103454D01*
X3669287Y-11065359D01*
X3678811Y-11046311D01*
X3688335Y-11036787D01*
X3707382Y-11027263D01*
X3850239Y-11046311D02*
X3859763Y-11036787D01*
X3878811Y-11027263D01*
X3926430Y-11027263D01*
X3945477Y-11036787D01*
X3955001Y-11046311D01*
X3964525Y-11065359D01*
X3964525Y-11084406D01*
X3955001Y-11112978D01*
X3840716Y-11227263D01*
X3964525Y-11227263D01*
X4059763Y-11227263D02*
X4097858Y-11227263D01*
X4116906Y-11217739D01*
X4126430Y-11208216D01*
X4145477Y-11179644D01*
X4155001Y-11141549D01*
X4155001Y-11065359D01*
X4145477Y-11046311D01*
X4135954Y-11036787D01*
X4116906Y-11027263D01*
X4078811Y-11027263D01*
X4059763Y-11036787D01*
X4050239Y-11046311D01*
X4040716Y-11065359D01*
X4040716Y-11112978D01*
X4050239Y-11132025D01*
X4059763Y-11141549D01*
X4078811Y-11151073D01*
X4116906Y-11151073D01*
X4135954Y-11141549D01*
X4145477Y-11132025D01*
X4155001Y-11112978D01*
X4335954Y-11027263D02*
X4240716Y-11027263D01*
X4231192Y-11122501D01*
X4240716Y-11112978D01*
X4259763Y-11103454D01*
X4307382Y-11103454D01*
X4326430Y-11112978D01*
X4335954Y-11122501D01*
X4345478Y-11141549D01*
X4345478Y-11189168D01*
X4335954Y-11208216D01*
X4326430Y-11217739D01*
X4307382Y-11227263D01*
X4259763Y-11227263D01*
X4240716Y-11217739D01*
X4231192Y-11208216D01*
X4421668Y-11027263D02*
X4421668Y-11065359D01*
X4497858Y-11027263D02*
X4497858Y-11065359D01*
X4793097Y-11303454D02*
X4783573Y-11293930D01*
X4764525Y-11265358D01*
X4755001Y-11246311D01*
X4745478Y-11217739D01*
X4735954Y-11170120D01*
X4735954Y-11132025D01*
X4745478Y-11084406D01*
X4755001Y-11055835D01*
X4764525Y-11036787D01*
X4783573Y-11008216D01*
X4793097Y-10998692D01*
X4850239Y-11027263D02*
X4974049Y-11027263D01*
X4907382Y-11103454D01*
X4935954Y-11103454D01*
X4955001Y-11112978D01*
X4964525Y-11122501D01*
X4974049Y-11141549D01*
X4974049Y-11189168D01*
X4964525Y-11208216D01*
X4955001Y-11217739D01*
X4935954Y-11227263D01*
X4878811Y-11227263D01*
X4859763Y-11217739D01*
X4850239Y-11208216D01*
X5212144Y-11227263D02*
X5212144Y-11027263D01*
X5297858Y-11227263D02*
X5297858Y-11122501D01*
X5288335Y-11103454D01*
X5269287Y-11093930D01*
X5240716Y-11093930D01*
X5221668Y-11103454D01*
X5212144Y-11112978D01*
X5421668Y-11227263D02*
X5402620Y-11217739D01*
X5393097Y-11208216D01*
X5383573Y-11189168D01*
X5383573Y-11132025D01*
X5393097Y-11112978D01*
X5402620Y-11103454D01*
X5421668Y-11093930D01*
X5450239Y-11093930D01*
X5469287Y-11103454D01*
X5478811Y-11112978D01*
X5488335Y-11132025D01*
X5488335Y-11189168D01*
X5478811Y-11208216D01*
X5469287Y-11217739D01*
X5450239Y-11227263D01*
X5421668Y-11227263D01*
X5602620Y-11227263D02*
X5583573Y-11217739D01*
X5574049Y-11198692D01*
X5574049Y-11027263D01*
X5755001Y-11217739D02*
X5735954Y-11227263D01*
X5697858Y-11227263D01*
X5678811Y-11217739D01*
X5669287Y-11198692D01*
X5669287Y-11122501D01*
X5678811Y-11103454D01*
X5697858Y-11093930D01*
X5735954Y-11093930D01*
X5755001Y-11103454D01*
X5764525Y-11122501D01*
X5764525Y-11141549D01*
X5669287Y-11160597D01*
X5840716Y-11217739D02*
X5859763Y-11227263D01*
X5897858Y-11227263D01*
X5916906Y-11217739D01*
X5926430Y-11198692D01*
X5926430Y-11189168D01*
X5916906Y-11170120D01*
X5897858Y-11160597D01*
X5869287Y-11160597D01*
X5850239Y-11151073D01*
X5840716Y-11132025D01*
X5840716Y-11122501D01*
X5850239Y-11103454D01*
X5869287Y-11093930D01*
X5897858Y-11093930D01*
X5916906Y-11103454D01*
X5993096Y-11303454D02*
X6002620Y-11293930D01*
X6021668Y-11265358D01*
X6031192Y-11246311D01*
X6040716Y-11217739D01*
X6050239Y-11170120D01*
X6050239Y-11132025D01*
X6040716Y-11084406D01*
X6031192Y-11055835D01*
X6021668Y-11036787D01*
X6002620Y-11008216D01*
X5993096Y-10998692D01*
D14*
X1171692Y-11351287D02*
X1171692Y-11450287D01*
X1122192Y-11400787D02*
X1221192Y-11400787D01*
D11*
X1516906Y-11291263D02*
X1535954Y-11291263D01*
X1555001Y-11300787D01*
X1564525Y-11310311D01*
X1574049Y-11329358D01*
X1583573Y-11367454D01*
X1583573Y-11415073D01*
X1574049Y-11453168D01*
X1564525Y-11472216D01*
X1555001Y-11481739D01*
X1535954Y-11491263D01*
X1516906Y-11491263D01*
X1497858Y-11481739D01*
X1488335Y-11472216D01*
X1478811Y-11453168D01*
X1469287Y-11415073D01*
X1469287Y-11367454D01*
X1478811Y-11329358D01*
X1488335Y-11310311D01*
X1497858Y-11300787D01*
X1516906Y-11291263D01*
X1669287Y-11472216D02*
X1678811Y-11481739D01*
X1669287Y-11491263D01*
X1659763Y-11481739D01*
X1669287Y-11472216D01*
X1669287Y-11491263D01*
X1774049Y-11491263D02*
X1812144Y-11491263D01*
X1831192Y-11481739D01*
X1840716Y-11472216D01*
X1859763Y-11443644D01*
X1869287Y-11405549D01*
X1869287Y-11329358D01*
X1859763Y-11310311D01*
X1850239Y-11300787D01*
X1831192Y-11291263D01*
X1793096Y-11291263D01*
X1774049Y-11300787D01*
X1764525Y-11310311D01*
X1755001Y-11329358D01*
X1755001Y-11376977D01*
X1764525Y-11396025D01*
X1774049Y-11405549D01*
X1793096Y-11415073D01*
X1831192Y-11415073D01*
X1850239Y-11405549D01*
X1859763Y-11396025D01*
X1869287Y-11376977D01*
X1964525Y-11491263D02*
X2002620Y-11491263D01*
X2021668Y-11481739D01*
X2031192Y-11472216D01*
X2050239Y-11443644D01*
X2059763Y-11405549D01*
X2059763Y-11329358D01*
X2050239Y-11310311D01*
X2040716Y-11300787D01*
X2021668Y-11291263D01*
X1983573Y-11291263D01*
X1964525Y-11300787D01*
X1955001Y-11310311D01*
X1945477Y-11329358D01*
X1945477Y-11376977D01*
X1955001Y-11396025D01*
X1964525Y-11405549D01*
X1983573Y-11415073D01*
X2021668Y-11415073D01*
X2040716Y-11405549D01*
X2050239Y-11396025D01*
X2059763Y-11376977D01*
X2183573Y-11291263D02*
X2202620Y-11291263D01*
X2221668Y-11300787D01*
X2231192Y-11310311D01*
X2240716Y-11329358D01*
X2250239Y-11367454D01*
X2250239Y-11415073D01*
X2240716Y-11453168D01*
X2231192Y-11472216D01*
X2221668Y-11481739D01*
X2202620Y-11491263D01*
X2183573Y-11491263D01*
X2164525Y-11481739D01*
X2155001Y-11472216D01*
X2145478Y-11453168D01*
X2135954Y-11415073D01*
X2135954Y-11367454D01*
X2145478Y-11329358D01*
X2155001Y-11310311D01*
X2164525Y-11300787D01*
X2183573Y-11291263D01*
X2335954Y-11491263D02*
X2335954Y-11357930D01*
X2335954Y-11376977D02*
X2345478Y-11367454D01*
X2364525Y-11357930D01*
X2393097Y-11357930D01*
X2412144Y-11367454D01*
X2421668Y-11386501D01*
X2421668Y-11491263D01*
X2421668Y-11386501D02*
X2431192Y-11367454D01*
X2450239Y-11357930D01*
X2478811Y-11357930D01*
X2497858Y-11367454D01*
X2507382Y-11386501D01*
X2507382Y-11491263D01*
X2602620Y-11491263D02*
X2602620Y-11357930D01*
X2602620Y-11376977D02*
X2612144Y-11367454D01*
X2631192Y-11357930D01*
X2659763Y-11357930D01*
X2678811Y-11367454D01*
X2688335Y-11386501D01*
X2688335Y-11491263D01*
X2688335Y-11386501D02*
X2697858Y-11367454D01*
X2716906Y-11357930D01*
X2745478Y-11357930D01*
X2764525Y-11367454D01*
X2774049Y-11386501D01*
X2774049Y-11491263D01*
X3164525Y-11281739D02*
X2993096Y-11538882D01*
X3421668Y-11291263D02*
X3440716Y-11291263D01*
X3459763Y-11300787D01*
X3469287Y-11310311D01*
X3478811Y-11329358D01*
X3488335Y-11367454D01*
X3488335Y-11415073D01*
X3478811Y-11453168D01*
X3469287Y-11472216D01*
X3459763Y-11481739D01*
X3440716Y-11491263D01*
X3421668Y-11491263D01*
X3402620Y-11481739D01*
X3393096Y-11472216D01*
X3383573Y-11453168D01*
X3374049Y-11415073D01*
X3374049Y-11367454D01*
X3383573Y-11329358D01*
X3393096Y-11310311D01*
X3402620Y-11300787D01*
X3421668Y-11291263D01*
X3574049Y-11472216D02*
X3583573Y-11481739D01*
X3574049Y-11491263D01*
X3564525Y-11481739D01*
X3574049Y-11472216D01*
X3574049Y-11491263D01*
X3707382Y-11291263D02*
X3726430Y-11291263D01*
X3745477Y-11300787D01*
X3755001Y-11310311D01*
X3764525Y-11329358D01*
X3774049Y-11367454D01*
X3774049Y-11415073D01*
X3764525Y-11453168D01*
X3755001Y-11472216D01*
X3745477Y-11481739D01*
X3726430Y-11491263D01*
X3707382Y-11491263D01*
X3688335Y-11481739D01*
X3678811Y-11472216D01*
X3669287Y-11453168D01*
X3659763Y-11415073D01*
X3659763Y-11367454D01*
X3669287Y-11329358D01*
X3678811Y-11310311D01*
X3688335Y-11300787D01*
X3707382Y-11291263D01*
X3840716Y-11291263D02*
X3964525Y-11291263D01*
X3897858Y-11367454D01*
X3926430Y-11367454D01*
X3945477Y-11376977D01*
X3955001Y-11386501D01*
X3964525Y-11405549D01*
X3964525Y-11453168D01*
X3955001Y-11472216D01*
X3945477Y-11481739D01*
X3926430Y-11491263D01*
X3869287Y-11491263D01*
X3850239Y-11481739D01*
X3840716Y-11472216D01*
X4059763Y-11491263D02*
X4097858Y-11491263D01*
X4116906Y-11481739D01*
X4126430Y-11472216D01*
X4145477Y-11443644D01*
X4155001Y-11405549D01*
X4155001Y-11329358D01*
X4145477Y-11310311D01*
X4135954Y-11300787D01*
X4116906Y-11291263D01*
X4078811Y-11291263D01*
X4059763Y-11300787D01*
X4050239Y-11310311D01*
X4040716Y-11329358D01*
X4040716Y-11376977D01*
X4050239Y-11396025D01*
X4059763Y-11405549D01*
X4078811Y-11415073D01*
X4116906Y-11415073D01*
X4135954Y-11405549D01*
X4145477Y-11396025D01*
X4155001Y-11376977D01*
X4278811Y-11291263D02*
X4297858Y-11291263D01*
X4316906Y-11300787D01*
X4326430Y-11310311D01*
X4335954Y-11329358D01*
X4345478Y-11367454D01*
X4345478Y-11415073D01*
X4335954Y-11453168D01*
X4326430Y-11472216D01*
X4316906Y-11481739D01*
X4297858Y-11491263D01*
X4278811Y-11491263D01*
X4259763Y-11481739D01*
X4250239Y-11472216D01*
X4240716Y-11453168D01*
X4231192Y-11415073D01*
X4231192Y-11367454D01*
X4240716Y-11329358D01*
X4250239Y-11310311D01*
X4259763Y-11300787D01*
X4278811Y-11291263D01*
X4421668Y-11291263D02*
X4421668Y-11329358D01*
X4497858Y-11291263D02*
X4497858Y-11329358D01*
X4793097Y-11567454D02*
X4783573Y-11557930D01*
X4764525Y-11529358D01*
X4755001Y-11510311D01*
X4745478Y-11481739D01*
X4735954Y-11434120D01*
X4735954Y-11396025D01*
X4745478Y-11348406D01*
X4755001Y-11319835D01*
X4764525Y-11300787D01*
X4783573Y-11272216D01*
X4793097Y-11262692D01*
X4859763Y-11310311D02*
X4869287Y-11300787D01*
X4888335Y-11291263D01*
X4935954Y-11291263D01*
X4955001Y-11300787D01*
X4964525Y-11310311D01*
X4974049Y-11329358D01*
X4974049Y-11348406D01*
X4964525Y-11376977D01*
X4850239Y-11491263D01*
X4974049Y-11491263D01*
X5212144Y-11491263D02*
X5212144Y-11291263D01*
X5297858Y-11491263D02*
X5297858Y-11386501D01*
X5288335Y-11367454D01*
X5269287Y-11357930D01*
X5240716Y-11357930D01*
X5221668Y-11367454D01*
X5212144Y-11376977D01*
X5421668Y-11491263D02*
X5402620Y-11481739D01*
X5393097Y-11472216D01*
X5383573Y-11453168D01*
X5383573Y-11396025D01*
X5393097Y-11376977D01*
X5402620Y-11367454D01*
X5421668Y-11357930D01*
X5450239Y-11357930D01*
X5469287Y-11367454D01*
X5478811Y-11376977D01*
X5488335Y-11396025D01*
X5488335Y-11453168D01*
X5478811Y-11472216D01*
X5469287Y-11481739D01*
X5450239Y-11491263D01*
X5421668Y-11491263D01*
X5602620Y-11491263D02*
X5583573Y-11481739D01*
X5574049Y-11462692D01*
X5574049Y-11291263D01*
X5755001Y-11481739D02*
X5735954Y-11491263D01*
X5697858Y-11491263D01*
X5678811Y-11481739D01*
X5669287Y-11462692D01*
X5669287Y-11386501D01*
X5678811Y-11367454D01*
X5697858Y-11357930D01*
X5735954Y-11357930D01*
X5755001Y-11367454D01*
X5764525Y-11386501D01*
X5764525Y-11405549D01*
X5669287Y-11424597D01*
X5840716Y-11481739D02*
X5859763Y-11491263D01*
X5897858Y-11491263D01*
X5916906Y-11481739D01*
X5926430Y-11462692D01*
X5926430Y-11453168D01*
X5916906Y-11434120D01*
X5897858Y-11424597D01*
X5869287Y-11424597D01*
X5850239Y-11415073D01*
X5840716Y-11396025D01*
X5840716Y-11386501D01*
X5850239Y-11367454D01*
X5869287Y-11357930D01*
X5897858Y-11357930D01*
X5916906Y-11367454D01*
X5993096Y-11567454D02*
X6002620Y-11557930D01*
X6021668Y-11529358D01*
X6031192Y-11510311D01*
X6040716Y-11481739D01*
X6050239Y-11434120D01*
X6050239Y-11396025D01*
X6040716Y-11348406D01*
X6031192Y-11319835D01*
X6021668Y-11300787D01*
X6002620Y-11272216D01*
X5993096Y-11262692D01*
D15*
X1205197Y-11703403D02*
X1205197Y-11626172D01*
X1127966Y-11626172D01*
X1127966Y-11703403D01*
X1205197Y-11703403D01*
D11*
X1583573Y-11755263D02*
X1469287Y-11755263D01*
X1526430Y-11755263D02*
X1526430Y-11555263D01*
X1507382Y-11583835D01*
X1488335Y-11602882D01*
X1469287Y-11612406D01*
X1669287Y-11736216D02*
X1678811Y-11745739D01*
X1669287Y-11755263D01*
X1659763Y-11745739D01*
X1669287Y-11736216D01*
X1669287Y-11755263D01*
X1802620Y-11555263D02*
X1821668Y-11555263D01*
X1840716Y-11564787D01*
X1850239Y-11574311D01*
X1859763Y-11593358D01*
X1869287Y-11631454D01*
X1869287Y-11679073D01*
X1859763Y-11717168D01*
X1850239Y-11736216D01*
X1840716Y-11745739D01*
X1821668Y-11755263D01*
X1802620Y-11755263D01*
X1783573Y-11745739D01*
X1774049Y-11736216D01*
X1764525Y-11717168D01*
X1755001Y-11679073D01*
X1755001Y-11631454D01*
X1764525Y-11593358D01*
X1774049Y-11574311D01*
X1783573Y-11564787D01*
X1802620Y-11555263D01*
X1964525Y-11755263D02*
X2002620Y-11755263D01*
X2021668Y-11745739D01*
X2031192Y-11736216D01*
X2050239Y-11707644D01*
X2059763Y-11669549D01*
X2059763Y-11593358D01*
X2050239Y-11574311D01*
X2040716Y-11564787D01*
X2021668Y-11555263D01*
X1983573Y-11555263D01*
X1964525Y-11564787D01*
X1955001Y-11574311D01*
X1945477Y-11593358D01*
X1945477Y-11640977D01*
X1955001Y-11660025D01*
X1964525Y-11669549D01*
X1983573Y-11679073D01*
X2021668Y-11679073D01*
X2040716Y-11669549D01*
X2050239Y-11660025D01*
X2059763Y-11640977D01*
X2135954Y-11574311D02*
X2145478Y-11564787D01*
X2164525Y-11555263D01*
X2212144Y-11555263D01*
X2231192Y-11564787D01*
X2240716Y-11574311D01*
X2250239Y-11593358D01*
X2250239Y-11612406D01*
X2240716Y-11640977D01*
X2126430Y-11755263D01*
X2250239Y-11755263D01*
X2335954Y-11755263D02*
X2335954Y-11621930D01*
X2335954Y-11640977D02*
X2345478Y-11631454D01*
X2364525Y-11621930D01*
X2393097Y-11621930D01*
X2412144Y-11631454D01*
X2421668Y-11650501D01*
X2421668Y-11755263D01*
X2421668Y-11650501D02*
X2431192Y-11631454D01*
X2450239Y-11621930D01*
X2478811Y-11621930D01*
X2497858Y-11631454D01*
X2507382Y-11650501D01*
X2507382Y-11755263D01*
X2602620Y-11755263D02*
X2602620Y-11621930D01*
X2602620Y-11640977D02*
X2612144Y-11631454D01*
X2631192Y-11621930D01*
X2659763Y-11621930D01*
X2678811Y-11631454D01*
X2688335Y-11650501D01*
X2688335Y-11755263D01*
X2688335Y-11650501D02*
X2697858Y-11631454D01*
X2716906Y-11621930D01*
X2745478Y-11621930D01*
X2764525Y-11631454D01*
X2774049Y-11650501D01*
X2774049Y-11755263D01*
X3164525Y-11545739D02*
X2993096Y-11802882D01*
X3421668Y-11555263D02*
X3440716Y-11555263D01*
X3459763Y-11564787D01*
X3469287Y-11574311D01*
X3478811Y-11593358D01*
X3488335Y-11631454D01*
X3488335Y-11679073D01*
X3478811Y-11717168D01*
X3469287Y-11736216D01*
X3459763Y-11745739D01*
X3440716Y-11755263D01*
X3421668Y-11755263D01*
X3402620Y-11745739D01*
X3393096Y-11736216D01*
X3383573Y-11717168D01*
X3374049Y-11679073D01*
X3374049Y-11631454D01*
X3383573Y-11593358D01*
X3393096Y-11574311D01*
X3402620Y-11564787D01*
X3421668Y-11555263D01*
X3574049Y-11736216D02*
X3583573Y-11745739D01*
X3574049Y-11755263D01*
X3564525Y-11745739D01*
X3574049Y-11736216D01*
X3574049Y-11755263D01*
X3707382Y-11555263D02*
X3726430Y-11555263D01*
X3745477Y-11564787D01*
X3755001Y-11574311D01*
X3764525Y-11593358D01*
X3774049Y-11631454D01*
X3774049Y-11679073D01*
X3764525Y-11717168D01*
X3755001Y-11736216D01*
X3745477Y-11745739D01*
X3726430Y-11755263D01*
X3707382Y-11755263D01*
X3688335Y-11745739D01*
X3678811Y-11736216D01*
X3669287Y-11717168D01*
X3659763Y-11679073D01*
X3659763Y-11631454D01*
X3669287Y-11593358D01*
X3678811Y-11574311D01*
X3688335Y-11564787D01*
X3707382Y-11555263D01*
X3945477Y-11621930D02*
X3945477Y-11755263D01*
X3897858Y-11545739D02*
X3850239Y-11688597D01*
X3974049Y-11688597D01*
X4031192Y-11555263D02*
X4155001Y-11555263D01*
X4088335Y-11631454D01*
X4116906Y-11631454D01*
X4135954Y-11640977D01*
X4145477Y-11650501D01*
X4155001Y-11669549D01*
X4155001Y-11717168D01*
X4145477Y-11736216D01*
X4135954Y-11745739D01*
X4116906Y-11755263D01*
X4059763Y-11755263D01*
X4040716Y-11745739D01*
X4031192Y-11736216D01*
X4278811Y-11555263D02*
X4297858Y-11555263D01*
X4316906Y-11564787D01*
X4326430Y-11574311D01*
X4335954Y-11593358D01*
X4345478Y-11631454D01*
X4345478Y-11679073D01*
X4335954Y-11717168D01*
X4326430Y-11736216D01*
X4316906Y-11745739D01*
X4297858Y-11755263D01*
X4278811Y-11755263D01*
X4259763Y-11745739D01*
X4250239Y-11736216D01*
X4240716Y-11717168D01*
X4231192Y-11679073D01*
X4231192Y-11631454D01*
X4240716Y-11593358D01*
X4250239Y-11574311D01*
X4259763Y-11564787D01*
X4278811Y-11555263D01*
X4421668Y-11555263D02*
X4421668Y-11593358D01*
X4497858Y-11555263D02*
X4497858Y-11593358D01*
X4793097Y-11831454D02*
X4783573Y-11821930D01*
X4764525Y-11793358D01*
X4755001Y-11774311D01*
X4745478Y-11745739D01*
X4735954Y-11698120D01*
X4735954Y-11660025D01*
X4745478Y-11612406D01*
X4755001Y-11583835D01*
X4764525Y-11564787D01*
X4783573Y-11536216D01*
X4793097Y-11526692D01*
X4850239Y-11555263D02*
X4974049Y-11555263D01*
X4907382Y-11631454D01*
X4935954Y-11631454D01*
X4955001Y-11640977D01*
X4964525Y-11650501D01*
X4974049Y-11669549D01*
X4974049Y-11717168D01*
X4964525Y-11736216D01*
X4955001Y-11745739D01*
X4935954Y-11755263D01*
X4878811Y-11755263D01*
X4859763Y-11745739D01*
X4850239Y-11736216D01*
X5050239Y-11574311D02*
X5059763Y-11564787D01*
X5078811Y-11555263D01*
X5126430Y-11555263D01*
X5145478Y-11564787D01*
X5155001Y-11574311D01*
X5164525Y-11593358D01*
X5164525Y-11612406D01*
X5155001Y-11640977D01*
X5040716Y-11755263D01*
X5164525Y-11755263D01*
X5402620Y-11755263D02*
X5402620Y-11555263D01*
X5488335Y-11755263D02*
X5488335Y-11650501D01*
X5478811Y-11631454D01*
X5459763Y-11621930D01*
X5431192Y-11621930D01*
X5412144Y-11631454D01*
X5402620Y-11640977D01*
X5612144Y-11755263D02*
X5593096Y-11745739D01*
X5583573Y-11736216D01*
X5574049Y-11717168D01*
X5574049Y-11660025D01*
X5583573Y-11640977D01*
X5593096Y-11631454D01*
X5612144Y-11621930D01*
X5640716Y-11621930D01*
X5659763Y-11631454D01*
X5669287Y-11640977D01*
X5678811Y-11660025D01*
X5678811Y-11717168D01*
X5669287Y-11736216D01*
X5659763Y-11745739D01*
X5640716Y-11755263D01*
X5612144Y-11755263D01*
X5793096Y-11755263D02*
X5774049Y-11745739D01*
X5764525Y-11726692D01*
X5764525Y-11555263D01*
X5945477Y-11745739D02*
X5926430Y-11755263D01*
X5888335Y-11755263D01*
X5869287Y-11745739D01*
X5859763Y-11726692D01*
X5859763Y-11650501D01*
X5869287Y-11631454D01*
X5888335Y-11621930D01*
X5926430Y-11621930D01*
X5945477Y-11631454D01*
X5955001Y-11650501D01*
X5955001Y-11669549D01*
X5859763Y-11688597D01*
X6031192Y-11745739D02*
X6050239Y-11755263D01*
X6088335Y-11755263D01*
X6107382Y-11745739D01*
X6116906Y-11726692D01*
X6116906Y-11717168D01*
X6107382Y-11698120D01*
X6088335Y-11688597D01*
X6059763Y-11688597D01*
X6040716Y-11679073D01*
X6031192Y-11660025D01*
X6031192Y-11650501D01*
X6040716Y-11631454D01*
X6059763Y-11621930D01*
X6088335Y-11621930D01*
X6107382Y-11631454D01*
X6183573Y-11831454D02*
X6193096Y-11821930D01*
X6212144Y-11793358D01*
X6221668Y-11774311D01*
X6231192Y-11745739D01*
X6240716Y-11698120D01*
X6240716Y-11660025D01*
X6231192Y-11612406D01*
X6221668Y-11583835D01*
X6212144Y-11564787D01*
X6193096Y-11536216D01*
X6183573Y-11526692D01*
D16*
X1147692Y-12002287D02*
X1221192Y-11928787D01*
X1147692Y-11855287D01*
X1074192Y-11928787D01*
X1147692Y-12002287D01*
D11*
X1583573Y-12019263D02*
X1469287Y-12019263D01*
X1526430Y-12019263D02*
X1526430Y-11819263D01*
X1507382Y-11847835D01*
X1488335Y-11866882D01*
X1469287Y-11876406D01*
X1669287Y-12000216D02*
X1678811Y-12009739D01*
X1669287Y-12019263D01*
X1659763Y-12009739D01*
X1669287Y-12000216D01*
X1669287Y-12019263D01*
X1850239Y-11885930D02*
X1850239Y-12019263D01*
X1802620Y-11809739D02*
X1755001Y-11952597D01*
X1878811Y-11952597D01*
X1935954Y-11819263D02*
X2069287Y-11819263D01*
X1983573Y-12019263D01*
X2183573Y-11819263D02*
X2202620Y-11819263D01*
X2221668Y-11828787D01*
X2231192Y-11838311D01*
X2240716Y-11857358D01*
X2250239Y-11895454D01*
X2250239Y-11943073D01*
X2240716Y-11981168D01*
X2231192Y-12000216D01*
X2221668Y-12009739D01*
X2202620Y-12019263D01*
X2183573Y-12019263D01*
X2164525Y-12009739D01*
X2155001Y-12000216D01*
X2145478Y-11981168D01*
X2135954Y-11943073D01*
X2135954Y-11895454D01*
X2145478Y-11857358D01*
X2155001Y-11838311D01*
X2164525Y-11828787D01*
X2183573Y-11819263D01*
X2335954Y-12019263D02*
X2335954Y-11885930D01*
X2335954Y-11904977D02*
X2345478Y-11895454D01*
X2364525Y-11885930D01*
X2393097Y-11885930D01*
X2412144Y-11895454D01*
X2421668Y-11914501D01*
X2421668Y-12019263D01*
X2421668Y-11914501D02*
X2431192Y-11895454D01*
X2450239Y-11885930D01*
X2478811Y-11885930D01*
X2497858Y-11895454D01*
X2507382Y-11914501D01*
X2507382Y-12019263D01*
X2602620Y-12019263D02*
X2602620Y-11885930D01*
X2602620Y-11904977D02*
X2612144Y-11895454D01*
X2631192Y-11885930D01*
X2659763Y-11885930D01*
X2678811Y-11895454D01*
X2688335Y-11914501D01*
X2688335Y-12019263D01*
X2688335Y-11914501D02*
X2697858Y-11895454D01*
X2716906Y-11885930D01*
X2745478Y-11885930D01*
X2764525Y-11895454D01*
X2774049Y-11914501D01*
X2774049Y-12019263D01*
X3164525Y-11809739D02*
X2993096Y-12066882D01*
X3421668Y-11819263D02*
X3440716Y-11819263D01*
X3459763Y-11828787D01*
X3469287Y-11838311D01*
X3478811Y-11857358D01*
X3488335Y-11895454D01*
X3488335Y-11943073D01*
X3478811Y-11981168D01*
X3469287Y-12000216D01*
X3459763Y-12009739D01*
X3440716Y-12019263D01*
X3421668Y-12019263D01*
X3402620Y-12009739D01*
X3393096Y-12000216D01*
X3383573Y-11981168D01*
X3374049Y-11943073D01*
X3374049Y-11895454D01*
X3383573Y-11857358D01*
X3393096Y-11838311D01*
X3402620Y-11828787D01*
X3421668Y-11819263D01*
X3574049Y-12000216D02*
X3583573Y-12009739D01*
X3574049Y-12019263D01*
X3564525Y-12009739D01*
X3574049Y-12000216D01*
X3574049Y-12019263D01*
X3707382Y-11819263D02*
X3726430Y-11819263D01*
X3745477Y-11828787D01*
X3755001Y-11838311D01*
X3764525Y-11857358D01*
X3774049Y-11895454D01*
X3774049Y-11943073D01*
X3764525Y-11981168D01*
X3755001Y-12000216D01*
X3745477Y-12009739D01*
X3726430Y-12019263D01*
X3707382Y-12019263D01*
X3688335Y-12009739D01*
X3678811Y-12000216D01*
X3669287Y-11981168D01*
X3659763Y-11943073D01*
X3659763Y-11895454D01*
X3669287Y-11857358D01*
X3678811Y-11838311D01*
X3688335Y-11828787D01*
X3707382Y-11819263D01*
X3955001Y-11819263D02*
X3859763Y-11819263D01*
X3850239Y-11914501D01*
X3859763Y-11904977D01*
X3878811Y-11895454D01*
X3926430Y-11895454D01*
X3945477Y-11904977D01*
X3955001Y-11914501D01*
X3964525Y-11933549D01*
X3964525Y-11981168D01*
X3955001Y-12000216D01*
X3945477Y-12009739D01*
X3926430Y-12019263D01*
X3878811Y-12019263D01*
X3859763Y-12009739D01*
X3850239Y-12000216D01*
X4031192Y-11819263D02*
X4164525Y-11819263D01*
X4078811Y-12019263D01*
X4250239Y-12019263D02*
X4288335Y-12019263D01*
X4307382Y-12009739D01*
X4316906Y-12000216D01*
X4335954Y-11971644D01*
X4345478Y-11933549D01*
X4345478Y-11857358D01*
X4335954Y-11838311D01*
X4326430Y-11828787D01*
X4307382Y-11819263D01*
X4269287Y-11819263D01*
X4250239Y-11828787D01*
X4240716Y-11838311D01*
X4231192Y-11857358D01*
X4231192Y-11904977D01*
X4240716Y-11924025D01*
X4250239Y-11933549D01*
X4269287Y-11943073D01*
X4307382Y-11943073D01*
X4326430Y-11933549D01*
X4335954Y-11924025D01*
X4345478Y-11904977D01*
X4421668Y-11819263D02*
X4421668Y-11857358D01*
X4497858Y-11819263D02*
X4497858Y-11857358D01*
X4793097Y-12095454D02*
X4783573Y-12085930D01*
X4764525Y-12057358D01*
X4755001Y-12038311D01*
X4745478Y-12009739D01*
X4735954Y-11962120D01*
X4735954Y-11924025D01*
X4745478Y-11876406D01*
X4755001Y-11847835D01*
X4764525Y-11828787D01*
X4783573Y-11800216D01*
X4793097Y-11790692D01*
X4964525Y-11819263D02*
X4869287Y-11819263D01*
X4859763Y-11914501D01*
X4869287Y-11904977D01*
X4888335Y-11895454D01*
X4935954Y-11895454D01*
X4955001Y-11904977D01*
X4964525Y-11914501D01*
X4974049Y-11933549D01*
X4974049Y-11981168D01*
X4964525Y-12000216D01*
X4955001Y-12009739D01*
X4935954Y-12019263D01*
X4888335Y-12019263D01*
X4869287Y-12009739D01*
X4859763Y-12000216D01*
X5145478Y-11885930D02*
X5145478Y-12019263D01*
X5097858Y-11809739D02*
X5050239Y-11952597D01*
X5174049Y-11952597D01*
X5402620Y-12019263D02*
X5402620Y-11819263D01*
X5488335Y-12019263D02*
X5488335Y-11914501D01*
X5478811Y-11895454D01*
X5459763Y-11885930D01*
X5431192Y-11885930D01*
X5412144Y-11895454D01*
X5402620Y-11904977D01*
X5612144Y-12019263D02*
X5593096Y-12009739D01*
X5583573Y-12000216D01*
X5574049Y-11981168D01*
X5574049Y-11924025D01*
X5583573Y-11904977D01*
X5593096Y-11895454D01*
X5612144Y-11885930D01*
X5640716Y-11885930D01*
X5659763Y-11895454D01*
X5669287Y-11904977D01*
X5678811Y-11924025D01*
X5678811Y-11981168D01*
X5669287Y-12000216D01*
X5659763Y-12009739D01*
X5640716Y-12019263D01*
X5612144Y-12019263D01*
X5793096Y-12019263D02*
X5774049Y-12009739D01*
X5764525Y-11990692D01*
X5764525Y-11819263D01*
X5945477Y-12009739D02*
X5926430Y-12019263D01*
X5888335Y-12019263D01*
X5869287Y-12009739D01*
X5859763Y-11990692D01*
X5859763Y-11914501D01*
X5869287Y-11895454D01*
X5888335Y-11885930D01*
X5926430Y-11885930D01*
X5945477Y-11895454D01*
X5955001Y-11914501D01*
X5955001Y-11933549D01*
X5859763Y-11952597D01*
X6031192Y-12009739D02*
X6050239Y-12019263D01*
X6088335Y-12019263D01*
X6107382Y-12009739D01*
X6116906Y-11990692D01*
X6116906Y-11981168D01*
X6107382Y-11962120D01*
X6088335Y-11952597D01*
X6059763Y-11952597D01*
X6040716Y-11943073D01*
X6031192Y-11924025D01*
X6031192Y-11914501D01*
X6040716Y-11895454D01*
X6059763Y-11885930D01*
X6088335Y-11885930D01*
X6107382Y-11895454D01*
X6183573Y-12095454D02*
X6193096Y-12085930D01*
X6212144Y-12057358D01*
X6221668Y-12038311D01*
X6231192Y-12009739D01*
X6240716Y-11962120D01*
X6240716Y-11924025D01*
X6231192Y-11876406D01*
X6221668Y-11847835D01*
X6212144Y-11828787D01*
X6193096Y-11800216D01*
X6183573Y-11790692D01*
X1021192Y-12095787D02*
X1221192Y-12295787D01*
X1221192Y-12095787D02*
X1021192Y-12295787D01*
X1221192Y-12195787D02*
G75*
G03*
X1221192Y-12195787I-100000J0D01*
G01*
X1469287Y-12105311D02*
X1478811Y-12095787D01*
X1497858Y-12086263D01*
X1545477Y-12086263D01*
X1564525Y-12095787D01*
X1574049Y-12105311D01*
X1583573Y-12124358D01*
X1583573Y-12143406D01*
X1574049Y-12171977D01*
X1459763Y-12286263D01*
X1583573Y-12286263D01*
X1669287Y-12267216D02*
X1678811Y-12276739D01*
X1669287Y-12286263D01*
X1659763Y-12276739D01*
X1669287Y-12267216D01*
X1669287Y-12286263D01*
X1755001Y-12105311D02*
X1764525Y-12095787D01*
X1783573Y-12086263D01*
X1831192Y-12086263D01*
X1850239Y-12095787D01*
X1859763Y-12105311D01*
X1869287Y-12124358D01*
X1869287Y-12143406D01*
X1859763Y-12171977D01*
X1745477Y-12286263D01*
X1869287Y-12286263D01*
X1993096Y-12086263D02*
X2012144Y-12086263D01*
X2031192Y-12095787D01*
X2040716Y-12105311D01*
X2050239Y-12124358D01*
X2059763Y-12162454D01*
X2059763Y-12210073D01*
X2050239Y-12248168D01*
X2040716Y-12267216D01*
X2031192Y-12276739D01*
X2012144Y-12286263D01*
X1993096Y-12286263D01*
X1974049Y-12276739D01*
X1964525Y-12267216D01*
X1955001Y-12248168D01*
X1945477Y-12210073D01*
X1945477Y-12162454D01*
X1955001Y-12124358D01*
X1964525Y-12105311D01*
X1974049Y-12095787D01*
X1993096Y-12086263D01*
X2183573Y-12086263D02*
X2202620Y-12086263D01*
X2221668Y-12095787D01*
X2231192Y-12105311D01*
X2240716Y-12124358D01*
X2250239Y-12162454D01*
X2250239Y-12210073D01*
X2240716Y-12248168D01*
X2231192Y-12267216D01*
X2221668Y-12276739D01*
X2202620Y-12286263D01*
X2183573Y-12286263D01*
X2164525Y-12276739D01*
X2155001Y-12267216D01*
X2145478Y-12248168D01*
X2135954Y-12210073D01*
X2135954Y-12162454D01*
X2145478Y-12124358D01*
X2155001Y-12105311D01*
X2164525Y-12095787D01*
X2183573Y-12086263D01*
X2335954Y-12286263D02*
X2335954Y-12152930D01*
X2335954Y-12171977D02*
X2345478Y-12162454D01*
X2364525Y-12152930D01*
X2393097Y-12152930D01*
X2412144Y-12162454D01*
X2421668Y-12181501D01*
X2421668Y-12286263D01*
X2421668Y-12181501D02*
X2431192Y-12162454D01*
X2450239Y-12152930D01*
X2478811Y-12152930D01*
X2497858Y-12162454D01*
X2507382Y-12181501D01*
X2507382Y-12286263D01*
X2602620Y-12286263D02*
X2602620Y-12152930D01*
X2602620Y-12171977D02*
X2612144Y-12162454D01*
X2631192Y-12152930D01*
X2659763Y-12152930D01*
X2678811Y-12162454D01*
X2688335Y-12181501D01*
X2688335Y-12286263D01*
X2688335Y-12181501D02*
X2697858Y-12162454D01*
X2716906Y-12152930D01*
X2745478Y-12152930D01*
X2764525Y-12162454D01*
X2774049Y-12181501D01*
X2774049Y-12286263D01*
X3164525Y-12076739D02*
X2993096Y-12333882D01*
X3421668Y-12086263D02*
X3440716Y-12086263D01*
X3459763Y-12095787D01*
X3469287Y-12105311D01*
X3478811Y-12124358D01*
X3488335Y-12162454D01*
X3488335Y-12210073D01*
X3478811Y-12248168D01*
X3469287Y-12267216D01*
X3459763Y-12276739D01*
X3440716Y-12286263D01*
X3421668Y-12286263D01*
X3402620Y-12276739D01*
X3393096Y-12267216D01*
X3383573Y-12248168D01*
X3374049Y-12210073D01*
X3374049Y-12162454D01*
X3383573Y-12124358D01*
X3393096Y-12105311D01*
X3402620Y-12095787D01*
X3421668Y-12086263D01*
X3574049Y-12267216D02*
X3583573Y-12276739D01*
X3574049Y-12286263D01*
X3564525Y-12276739D01*
X3574049Y-12267216D01*
X3574049Y-12286263D01*
X3707382Y-12086263D02*
X3726430Y-12086263D01*
X3745477Y-12095787D01*
X3755001Y-12105311D01*
X3764525Y-12124358D01*
X3774049Y-12162454D01*
X3774049Y-12210073D01*
X3764525Y-12248168D01*
X3755001Y-12267216D01*
X3745477Y-12276739D01*
X3726430Y-12286263D01*
X3707382Y-12286263D01*
X3688335Y-12276739D01*
X3678811Y-12267216D01*
X3669287Y-12248168D01*
X3659763Y-12210073D01*
X3659763Y-12162454D01*
X3669287Y-12124358D01*
X3678811Y-12105311D01*
X3688335Y-12095787D01*
X3707382Y-12086263D01*
X3888335Y-12171977D02*
X3869287Y-12162454D01*
X3859763Y-12152930D01*
X3850239Y-12133882D01*
X3850239Y-12124358D01*
X3859763Y-12105311D01*
X3869287Y-12095787D01*
X3888335Y-12086263D01*
X3926430Y-12086263D01*
X3945477Y-12095787D01*
X3955001Y-12105311D01*
X3964525Y-12124358D01*
X3964525Y-12133882D01*
X3955001Y-12152930D01*
X3945477Y-12162454D01*
X3926430Y-12171977D01*
X3888335Y-12171977D01*
X3869287Y-12181501D01*
X3859763Y-12191025D01*
X3850239Y-12210073D01*
X3850239Y-12248168D01*
X3859763Y-12267216D01*
X3869287Y-12276739D01*
X3888335Y-12286263D01*
X3926430Y-12286263D01*
X3945477Y-12276739D01*
X3955001Y-12267216D01*
X3964525Y-12248168D01*
X3964525Y-12210073D01*
X3955001Y-12191025D01*
X3945477Y-12181501D01*
X3926430Y-12171977D01*
X4135954Y-12086263D02*
X4097858Y-12086263D01*
X4078811Y-12095787D01*
X4069287Y-12105311D01*
X4050239Y-12133882D01*
X4040716Y-12171977D01*
X4040716Y-12248168D01*
X4050239Y-12267216D01*
X4059763Y-12276739D01*
X4078811Y-12286263D01*
X4116906Y-12286263D01*
X4135954Y-12276739D01*
X4145477Y-12267216D01*
X4155001Y-12248168D01*
X4155001Y-12200549D01*
X4145477Y-12181501D01*
X4135954Y-12171977D01*
X4116906Y-12162454D01*
X4078811Y-12162454D01*
X4059763Y-12171977D01*
X4050239Y-12181501D01*
X4040716Y-12200549D01*
X4326430Y-12086263D02*
X4288335Y-12086263D01*
X4269287Y-12095787D01*
X4259763Y-12105311D01*
X4240716Y-12133882D01*
X4231192Y-12171977D01*
X4231192Y-12248168D01*
X4240716Y-12267216D01*
X4250239Y-12276739D01*
X4269287Y-12286263D01*
X4307382Y-12286263D01*
X4326430Y-12276739D01*
X4335954Y-12267216D01*
X4345478Y-12248168D01*
X4345478Y-12200549D01*
X4335954Y-12181501D01*
X4326430Y-12171977D01*
X4307382Y-12162454D01*
X4269287Y-12162454D01*
X4250239Y-12171977D01*
X4240716Y-12181501D01*
X4231192Y-12200549D01*
X4421668Y-12086263D02*
X4421668Y-12124358D01*
X4497858Y-12086263D02*
X4497858Y-12124358D01*
X4793097Y-12362454D02*
X4783573Y-12352930D01*
X4764525Y-12324358D01*
X4755001Y-12305311D01*
X4745478Y-12276739D01*
X4735954Y-12229120D01*
X4735954Y-12191025D01*
X4745478Y-12143406D01*
X4755001Y-12114835D01*
X4764525Y-12095787D01*
X4783573Y-12067216D01*
X4793097Y-12057692D01*
X4955001Y-12152930D02*
X4955001Y-12286263D01*
X4907382Y-12076739D02*
X4859763Y-12219597D01*
X4983573Y-12219597D01*
X5212144Y-12286263D02*
X5212144Y-12086263D01*
X5297858Y-12286263D02*
X5297858Y-12181501D01*
X5288335Y-12162454D01*
X5269287Y-12152930D01*
X5240716Y-12152930D01*
X5221668Y-12162454D01*
X5212144Y-12171977D01*
X5421668Y-12286263D02*
X5402620Y-12276739D01*
X5393097Y-12267216D01*
X5383573Y-12248168D01*
X5383573Y-12191025D01*
X5393097Y-12171977D01*
X5402620Y-12162454D01*
X5421668Y-12152930D01*
X5450239Y-12152930D01*
X5469287Y-12162454D01*
X5478811Y-12171977D01*
X5488335Y-12191025D01*
X5488335Y-12248168D01*
X5478811Y-12267216D01*
X5469287Y-12276739D01*
X5450239Y-12286263D01*
X5421668Y-12286263D01*
X5602620Y-12286263D02*
X5583573Y-12276739D01*
X5574049Y-12257692D01*
X5574049Y-12086263D01*
X5755001Y-12276739D02*
X5735954Y-12286263D01*
X5697858Y-12286263D01*
X5678811Y-12276739D01*
X5669287Y-12257692D01*
X5669287Y-12181501D01*
X5678811Y-12162454D01*
X5697858Y-12152930D01*
X5735954Y-12152930D01*
X5755001Y-12162454D01*
X5764525Y-12181501D01*
X5764525Y-12200549D01*
X5669287Y-12219597D01*
X5840716Y-12276739D02*
X5859763Y-12286263D01*
X5897858Y-12286263D01*
X5916906Y-12276739D01*
X5926430Y-12257692D01*
X5926430Y-12248168D01*
X5916906Y-12229120D01*
X5897858Y-12219597D01*
X5869287Y-12219597D01*
X5850239Y-12210073D01*
X5840716Y-12191025D01*
X5840716Y-12181501D01*
X5850239Y-12162454D01*
X5869287Y-12152930D01*
X5897858Y-12152930D01*
X5916906Y-12162454D01*
X5993096Y-12362454D02*
X6002620Y-12352930D01*
X6021668Y-12324358D01*
X6031192Y-12305311D01*
X6040716Y-12276739D01*
X6050239Y-12229120D01*
X6050239Y-12191025D01*
X6040716Y-12143406D01*
X6031192Y-12114835D01*
X6021668Y-12095787D01*
X6002620Y-12067216D01*
X5993096Y-12057692D01*
M02*
