%TF.GenerationSoftware,KiCad,Pcbnew,(6.0.8)*%
%TF.CreationDate,2022-11-10T08:12:55-08:00*%
%TF.ProjectId,half-swept,68616c66-2d73-4776-9570-742e6b696361,rev?*%
%TF.SameCoordinates,Original*%
%TF.FileFunction,Legend,Top*%
%TF.FilePolarity,Positive*%
%FSLAX46Y46*%
G04 Gerber Fmt 4.6, Leading zero omitted, Abs format (unit mm)*
G04 Created by KiCad (PCBNEW (6.0.8)) date 2022-11-10 08:12:55*
%MOMM*%
%LPD*%
G01*
G04 APERTURE LIST*
%ADD10C,0.150000*%
%ADD11C,0.100000*%
%ADD12C,0.300000*%
%ADD13C,0.200000*%
%ADD14C,0.120000*%
%ADD15C,0.010000*%
%ADD16C,0.381000*%
%ADD17C,0.040000*%
%ADD18C,1.752600*%
G04 APERTURE END LIST*
D10*
%TO.C,RSW1*%
X74237579Y-17999884D02*
X73904245Y-17523694D01*
X73666150Y-17999884D02*
X73666150Y-16999884D01*
X74047103Y-16999884D01*
X74142341Y-17047504D01*
X74189960Y-17095123D01*
X74237579Y-17190361D01*
X74237579Y-17333218D01*
X74189960Y-17428456D01*
X74142341Y-17476075D01*
X74047103Y-17523694D01*
X73666150Y-17523694D01*
X74618531Y-17952265D02*
X74761388Y-17999884D01*
X74999484Y-17999884D01*
X75094722Y-17952265D01*
X75142341Y-17904646D01*
X75189960Y-17809408D01*
X75189960Y-17714170D01*
X75142341Y-17618932D01*
X75094722Y-17571313D01*
X74999484Y-17523694D01*
X74809007Y-17476075D01*
X74713769Y-17428456D01*
X74666150Y-17380837D01*
X74618531Y-17285599D01*
X74618531Y-17190361D01*
X74666150Y-17095123D01*
X74713769Y-17047504D01*
X74809007Y-16999884D01*
X75047103Y-16999884D01*
X75189960Y-17047504D01*
X75523293Y-16999884D02*
X75761388Y-17999884D01*
X75951865Y-17285599D01*
X76142341Y-17999884D01*
X76380436Y-16999884D01*
X77285198Y-17999884D02*
X76713769Y-17999884D01*
X76999484Y-17999884D02*
X76999484Y-16999884D01*
X76904245Y-17142742D01*
X76809007Y-17237980D01*
X76713769Y-17285599D01*
%TO.C,SW2*%
X21293531Y-50599763D02*
X21436388Y-50647382D01*
X21674484Y-50647382D01*
X21769722Y-50599763D01*
X21817341Y-50552144D01*
X21864960Y-50456906D01*
X21864960Y-50361668D01*
X21817341Y-50266430D01*
X21769722Y-50218811D01*
X21674484Y-50171192D01*
X21484007Y-50123573D01*
X21388769Y-50075954D01*
X21341150Y-50028335D01*
X21293531Y-49933097D01*
X21293531Y-49837859D01*
X21341150Y-49742621D01*
X21388769Y-49695002D01*
X21484007Y-49647382D01*
X21722103Y-49647382D01*
X21864960Y-49695002D01*
X22198293Y-49647382D02*
X22436388Y-50647382D01*
X22626865Y-49933097D01*
X22817341Y-50647382D01*
X23055436Y-49647382D01*
X23388769Y-49742621D02*
X23436388Y-49695002D01*
X23531626Y-49647382D01*
X23769722Y-49647382D01*
X23864960Y-49695002D01*
X23912579Y-49742621D01*
X23960198Y-49837859D01*
X23960198Y-49933097D01*
X23912579Y-50075954D01*
X23341150Y-50647382D01*
X23960198Y-50647382D01*
%TO.C,SW3*%
X39293533Y-38599763D02*
X39436390Y-38647382D01*
X39674486Y-38647382D01*
X39769724Y-38599763D01*
X39817343Y-38552144D01*
X39864962Y-38456906D01*
X39864962Y-38361668D01*
X39817343Y-38266430D01*
X39769724Y-38218811D01*
X39674486Y-38171192D01*
X39484009Y-38123573D01*
X39388771Y-38075954D01*
X39341152Y-38028335D01*
X39293533Y-37933097D01*
X39293533Y-37837859D01*
X39341152Y-37742621D01*
X39388771Y-37695002D01*
X39484009Y-37647382D01*
X39722105Y-37647382D01*
X39864962Y-37695002D01*
X40198295Y-37647382D02*
X40436390Y-38647382D01*
X40626867Y-37933097D01*
X40817343Y-38647382D01*
X41055438Y-37647382D01*
X41341152Y-37647382D02*
X41960200Y-37647382D01*
X41626867Y-38028335D01*
X41769724Y-38028335D01*
X41864962Y-38075954D01*
X41912581Y-38123573D01*
X41960200Y-38218811D01*
X41960200Y-38456906D01*
X41912581Y-38552144D01*
X41864962Y-38599763D01*
X41769724Y-38647382D01*
X41484009Y-38647382D01*
X41388771Y-38599763D01*
X41341152Y-38552144D01*
%TO.C,SW4*%
X57293530Y-31599763D02*
X57436387Y-31647382D01*
X57674483Y-31647382D01*
X57769721Y-31599763D01*
X57817340Y-31552144D01*
X57864959Y-31456906D01*
X57864959Y-31361668D01*
X57817340Y-31266430D01*
X57769721Y-31218811D01*
X57674483Y-31171192D01*
X57484006Y-31123573D01*
X57388768Y-31075954D01*
X57341149Y-31028335D01*
X57293530Y-30933097D01*
X57293530Y-30837859D01*
X57341149Y-30742621D01*
X57388768Y-30695002D01*
X57484006Y-30647382D01*
X57722102Y-30647382D01*
X57864959Y-30695002D01*
X58198292Y-30647382D02*
X58436387Y-31647382D01*
X58626864Y-30933097D01*
X58817340Y-31647382D01*
X59055435Y-30647382D01*
X59864959Y-30980716D02*
X59864959Y-31647382D01*
X59626864Y-30599763D02*
X59388768Y-31314049D01*
X60007816Y-31314049D01*
%TO.C,SW5*%
X75293531Y-37099764D02*
X75436388Y-37147383D01*
X75674484Y-37147383D01*
X75769722Y-37099764D01*
X75817341Y-37052145D01*
X75864960Y-36956907D01*
X75864960Y-36861669D01*
X75817341Y-36766431D01*
X75769722Y-36718812D01*
X75674484Y-36671193D01*
X75484007Y-36623574D01*
X75388769Y-36575955D01*
X75341150Y-36528336D01*
X75293531Y-36433098D01*
X75293531Y-36337860D01*
X75341150Y-36242622D01*
X75388769Y-36195003D01*
X75484007Y-36147383D01*
X75722103Y-36147383D01*
X75864960Y-36195003D01*
X76198293Y-36147383D02*
X76436388Y-37147383D01*
X76626865Y-36433098D01*
X76817341Y-37147383D01*
X77055436Y-36147383D01*
X77912579Y-36147383D02*
X77436388Y-36147383D01*
X77388769Y-36623574D01*
X77436388Y-36575955D01*
X77531626Y-36528336D01*
X77769722Y-36528336D01*
X77864960Y-36575955D01*
X77912579Y-36623574D01*
X77960198Y-36718812D01*
X77960198Y-36956907D01*
X77912579Y-37052145D01*
X77864960Y-37099764D01*
X77769722Y-37147383D01*
X77531626Y-37147383D01*
X77436388Y-37099764D01*
X77388769Y-37052145D01*
%TO.C,SW6*%
X93293529Y-39599763D02*
X93436386Y-39647382D01*
X93674482Y-39647382D01*
X93769720Y-39599763D01*
X93817339Y-39552144D01*
X93864958Y-39456906D01*
X93864958Y-39361668D01*
X93817339Y-39266430D01*
X93769720Y-39218811D01*
X93674482Y-39171192D01*
X93484005Y-39123573D01*
X93388767Y-39075954D01*
X93341148Y-39028335D01*
X93293529Y-38933097D01*
X93293529Y-38837859D01*
X93341148Y-38742621D01*
X93388767Y-38695002D01*
X93484005Y-38647382D01*
X93722101Y-38647382D01*
X93864958Y-38695002D01*
X94198291Y-38647382D02*
X94436386Y-39647382D01*
X94626863Y-38933097D01*
X94817339Y-39647382D01*
X95055434Y-38647382D01*
X95864958Y-38647382D02*
X95674482Y-38647382D01*
X95579243Y-38695002D01*
X95531624Y-38742621D01*
X95436386Y-38885478D01*
X95388767Y-39075954D01*
X95388767Y-39456906D01*
X95436386Y-39552144D01*
X95484005Y-39599763D01*
X95579243Y-39647382D01*
X95769720Y-39647382D01*
X95864958Y-39599763D01*
X95912577Y-39552144D01*
X95960196Y-39456906D01*
X95960196Y-39218811D01*
X95912577Y-39123573D01*
X95864958Y-39075954D01*
X95769720Y-39028335D01*
X95579243Y-39028335D01*
X95484005Y-39075954D01*
X95436386Y-39123573D01*
X95388767Y-39218811D01*
%TO.C,SW8*%
X21293531Y-67599763D02*
X21436388Y-67647382D01*
X21674484Y-67647382D01*
X21769722Y-67599763D01*
X21817341Y-67552144D01*
X21864960Y-67456906D01*
X21864960Y-67361668D01*
X21817341Y-67266430D01*
X21769722Y-67218811D01*
X21674484Y-67171192D01*
X21484007Y-67123573D01*
X21388769Y-67075954D01*
X21341150Y-67028335D01*
X21293531Y-66933097D01*
X21293531Y-66837859D01*
X21341150Y-66742621D01*
X21388769Y-66695002D01*
X21484007Y-66647382D01*
X21722103Y-66647382D01*
X21864960Y-66695002D01*
X22198293Y-66647382D02*
X22436388Y-67647382D01*
X22626865Y-66933097D01*
X22817341Y-67647382D01*
X23055436Y-66647382D01*
X23579245Y-67075954D02*
X23484007Y-67028335D01*
X23436388Y-66980716D01*
X23388769Y-66885478D01*
X23388769Y-66837859D01*
X23436388Y-66742621D01*
X23484007Y-66695002D01*
X23579245Y-66647382D01*
X23769722Y-66647382D01*
X23864960Y-66695002D01*
X23912579Y-66742621D01*
X23960198Y-66837859D01*
X23960198Y-66885478D01*
X23912579Y-66980716D01*
X23864960Y-67028335D01*
X23769722Y-67075954D01*
X23579245Y-67075954D01*
X23484007Y-67123573D01*
X23436388Y-67171192D01*
X23388769Y-67266430D01*
X23388769Y-67456906D01*
X23436388Y-67552144D01*
X23484007Y-67599763D01*
X23579245Y-67647382D01*
X23769722Y-67647382D01*
X23864960Y-67599763D01*
X23912579Y-67552144D01*
X23960198Y-67456906D01*
X23960198Y-67266430D01*
X23912579Y-67171192D01*
X23864960Y-67123573D01*
X23769722Y-67075954D01*
%TO.C,SW9*%
X39293533Y-55573763D02*
X39436390Y-55621382D01*
X39674486Y-55621382D01*
X39769724Y-55573763D01*
X39817343Y-55526144D01*
X39864962Y-55430906D01*
X39864962Y-55335668D01*
X39817343Y-55240430D01*
X39769724Y-55192811D01*
X39674486Y-55145192D01*
X39484009Y-55097573D01*
X39388771Y-55049954D01*
X39341152Y-55002335D01*
X39293533Y-54907097D01*
X39293533Y-54811859D01*
X39341152Y-54716621D01*
X39388771Y-54669002D01*
X39484009Y-54621382D01*
X39722105Y-54621382D01*
X39864962Y-54669002D01*
X40198295Y-54621382D02*
X40436390Y-55621382D01*
X40626867Y-54907097D01*
X40817343Y-55621382D01*
X41055438Y-54621382D01*
X41484009Y-55621382D02*
X41674486Y-55621382D01*
X41769724Y-55573763D01*
X41817343Y-55526144D01*
X41912581Y-55383287D01*
X41960200Y-55192811D01*
X41960200Y-54811859D01*
X41912581Y-54716621D01*
X41864962Y-54669002D01*
X41769724Y-54621382D01*
X41579247Y-54621382D01*
X41484009Y-54669002D01*
X41436390Y-54716621D01*
X41388771Y-54811859D01*
X41388771Y-55049954D01*
X41436390Y-55145192D01*
X41484009Y-55192811D01*
X41579247Y-55240430D01*
X41769724Y-55240430D01*
X41864962Y-55192811D01*
X41912581Y-55145192D01*
X41960200Y-55049954D01*
%TO.C,SW10*%
X56817342Y-48715763D02*
X56960199Y-48763382D01*
X57198294Y-48763382D01*
X57293532Y-48715763D01*
X57341151Y-48668144D01*
X57388770Y-48572906D01*
X57388770Y-48477668D01*
X57341151Y-48382430D01*
X57293532Y-48334811D01*
X57198294Y-48287192D01*
X57007818Y-48239573D01*
X56912580Y-48191954D01*
X56864961Y-48144335D01*
X56817342Y-48049097D01*
X56817342Y-47953859D01*
X56864961Y-47858621D01*
X56912580Y-47811002D01*
X57007818Y-47763382D01*
X57245913Y-47763382D01*
X57388770Y-47811002D01*
X57722104Y-47763382D02*
X57960199Y-48763382D01*
X58150675Y-48049097D01*
X58341151Y-48763382D01*
X58579246Y-47763382D01*
X59484008Y-48763382D02*
X58912580Y-48763382D01*
X59198294Y-48763382D02*
X59198294Y-47763382D01*
X59103056Y-47906240D01*
X59007818Y-48001478D01*
X58912580Y-48049097D01*
X60103056Y-47763382D02*
X60198294Y-47763382D01*
X60293532Y-47811002D01*
X60341151Y-47858621D01*
X60388770Y-47953859D01*
X60436389Y-48144335D01*
X60436389Y-48382430D01*
X60388770Y-48572906D01*
X60341151Y-48668144D01*
X60293532Y-48715763D01*
X60198294Y-48763382D01*
X60103056Y-48763382D01*
X60007818Y-48715763D01*
X59960199Y-48668144D01*
X59912580Y-48572906D01*
X59864961Y-48382430D01*
X59864961Y-48144335D01*
X59912580Y-47953859D01*
X59960199Y-47858621D01*
X60007818Y-47811002D01*
X60103056Y-47763382D01*
%TO.C,SW11*%
X74817343Y-54049766D02*
X74960200Y-54097385D01*
X75198295Y-54097385D01*
X75293533Y-54049766D01*
X75341152Y-54002147D01*
X75388771Y-53906909D01*
X75388771Y-53811671D01*
X75341152Y-53716433D01*
X75293533Y-53668814D01*
X75198295Y-53621195D01*
X75007819Y-53573576D01*
X74912581Y-53525957D01*
X74864962Y-53478338D01*
X74817343Y-53383100D01*
X74817343Y-53287862D01*
X74864962Y-53192624D01*
X74912581Y-53145005D01*
X75007819Y-53097385D01*
X75245914Y-53097385D01*
X75388771Y-53145005D01*
X75722105Y-53097385D02*
X75960200Y-54097385D01*
X76150676Y-53383100D01*
X76341152Y-54097385D01*
X76579247Y-53097385D01*
X77484009Y-54097385D02*
X76912581Y-54097385D01*
X77198295Y-54097385D02*
X77198295Y-53097385D01*
X77103057Y-53240243D01*
X77007819Y-53335481D01*
X76912581Y-53383100D01*
X78436390Y-54097385D02*
X77864962Y-54097385D01*
X78150676Y-54097385D02*
X78150676Y-53097385D01*
X78055438Y-53240243D01*
X77960200Y-53335481D01*
X77864962Y-53383100D01*
%TO.C,SW12*%
X92797341Y-56589763D02*
X92940198Y-56637382D01*
X93178293Y-56637382D01*
X93273531Y-56589763D01*
X93321150Y-56542144D01*
X93368769Y-56446906D01*
X93368769Y-56351668D01*
X93321150Y-56256430D01*
X93273531Y-56208811D01*
X93178293Y-56161192D01*
X92987817Y-56113573D01*
X92892579Y-56065954D01*
X92844960Y-56018335D01*
X92797341Y-55923097D01*
X92797341Y-55827859D01*
X92844960Y-55732621D01*
X92892579Y-55685002D01*
X92987817Y-55637382D01*
X93225912Y-55637382D01*
X93368769Y-55685002D01*
X93702103Y-55637382D02*
X93940198Y-56637382D01*
X94130674Y-55923097D01*
X94321150Y-56637382D01*
X94559245Y-55637382D01*
X95464007Y-56637382D02*
X94892579Y-56637382D01*
X95178293Y-56637382D02*
X95178293Y-55637382D01*
X95083055Y-55780240D01*
X94987817Y-55875478D01*
X94892579Y-55923097D01*
X95844960Y-55732621D02*
X95892579Y-55685002D01*
X95987817Y-55637382D01*
X96225912Y-55637382D01*
X96321150Y-55685002D01*
X96368769Y-55732621D01*
X96416388Y-55827859D01*
X96416388Y-55923097D01*
X96368769Y-56065954D01*
X95797341Y-56637382D01*
X96416388Y-56637382D01*
%TO.C,SW14*%
X20817341Y-84599760D02*
X20960198Y-84647379D01*
X21198293Y-84647379D01*
X21293531Y-84599760D01*
X21341150Y-84552141D01*
X21388769Y-84456903D01*
X21388769Y-84361665D01*
X21341150Y-84266427D01*
X21293531Y-84218808D01*
X21198293Y-84171189D01*
X21007817Y-84123570D01*
X20912579Y-84075951D01*
X20864960Y-84028332D01*
X20817341Y-83933094D01*
X20817341Y-83837856D01*
X20864960Y-83742618D01*
X20912579Y-83694999D01*
X21007817Y-83647379D01*
X21245912Y-83647379D01*
X21388769Y-83694999D01*
X21722103Y-83647379D02*
X21960198Y-84647379D01*
X22150674Y-83933094D01*
X22341150Y-84647379D01*
X22579245Y-83647379D01*
X23484007Y-84647379D02*
X22912579Y-84647379D01*
X23198293Y-84647379D02*
X23198293Y-83647379D01*
X23103055Y-83790237D01*
X23007817Y-83885475D01*
X22912579Y-83933094D01*
X24341150Y-83980713D02*
X24341150Y-84647379D01*
X24103055Y-83599760D02*
X23864960Y-84314046D01*
X24484007Y-84314046D01*
%TO.C,SW15*%
X38817340Y-72591762D02*
X38960197Y-72639381D01*
X39198292Y-72639381D01*
X39293530Y-72591762D01*
X39341149Y-72544143D01*
X39388768Y-72448905D01*
X39388768Y-72353667D01*
X39341149Y-72258429D01*
X39293530Y-72210810D01*
X39198292Y-72163191D01*
X39007816Y-72115572D01*
X38912578Y-72067953D01*
X38864959Y-72020334D01*
X38817340Y-71925096D01*
X38817340Y-71829858D01*
X38864959Y-71734620D01*
X38912578Y-71687001D01*
X39007816Y-71639381D01*
X39245911Y-71639381D01*
X39388768Y-71687001D01*
X39722102Y-71639381D02*
X39960197Y-72639381D01*
X40150673Y-71925096D01*
X40341149Y-72639381D01*
X40579244Y-71639381D01*
X41484006Y-72639381D02*
X40912578Y-72639381D01*
X41198292Y-72639381D02*
X41198292Y-71639381D01*
X41103054Y-71782239D01*
X41007816Y-71877477D01*
X40912578Y-71925096D01*
X42388768Y-71639381D02*
X41912578Y-71639381D01*
X41864959Y-72115572D01*
X41912578Y-72067953D01*
X42007816Y-72020334D01*
X42245911Y-72020334D01*
X42341149Y-72067953D01*
X42388768Y-72115572D01*
X42436387Y-72210810D01*
X42436387Y-72448905D01*
X42388768Y-72544143D01*
X42341149Y-72591762D01*
X42245911Y-72639381D01*
X42007816Y-72639381D01*
X41912578Y-72591762D01*
X41864959Y-72544143D01*
%TO.C,SW16*%
X56817339Y-65733764D02*
X56960196Y-65781383D01*
X57198291Y-65781383D01*
X57293529Y-65733764D01*
X57341148Y-65686145D01*
X57388767Y-65590907D01*
X57388767Y-65495669D01*
X57341148Y-65400431D01*
X57293529Y-65352812D01*
X57198291Y-65305193D01*
X57007815Y-65257574D01*
X56912577Y-65209955D01*
X56864958Y-65162336D01*
X56817339Y-65067098D01*
X56817339Y-64971860D01*
X56864958Y-64876622D01*
X56912577Y-64829003D01*
X57007815Y-64781383D01*
X57245910Y-64781383D01*
X57388767Y-64829003D01*
X57722101Y-64781383D02*
X57960196Y-65781383D01*
X58150672Y-65067098D01*
X58341148Y-65781383D01*
X58579243Y-64781383D01*
X59484005Y-65781383D02*
X58912577Y-65781383D01*
X59198291Y-65781383D02*
X59198291Y-64781383D01*
X59103053Y-64924241D01*
X59007815Y-65019479D01*
X58912577Y-65067098D01*
X60341148Y-64781383D02*
X60150672Y-64781383D01*
X60055434Y-64829003D01*
X60007815Y-64876622D01*
X59912577Y-65019479D01*
X59864958Y-65209955D01*
X59864958Y-65590907D01*
X59912577Y-65686145D01*
X59960196Y-65733764D01*
X60055434Y-65781383D01*
X60245910Y-65781383D01*
X60341148Y-65733764D01*
X60388767Y-65686145D01*
X60436386Y-65590907D01*
X60436386Y-65352812D01*
X60388767Y-65257574D01*
X60341148Y-65209955D01*
X60245910Y-65162336D01*
X60055434Y-65162336D01*
X59960196Y-65209955D01*
X59912577Y-65257574D01*
X59864958Y-65352812D01*
%TO.C,SW17*%
X74817341Y-71067766D02*
X74960198Y-71115385D01*
X75198293Y-71115385D01*
X75293531Y-71067766D01*
X75341150Y-71020147D01*
X75388769Y-70924909D01*
X75388769Y-70829671D01*
X75341150Y-70734433D01*
X75293531Y-70686814D01*
X75198293Y-70639195D01*
X75007817Y-70591576D01*
X74912579Y-70543957D01*
X74864960Y-70496338D01*
X74817341Y-70401100D01*
X74817341Y-70305862D01*
X74864960Y-70210624D01*
X74912579Y-70163005D01*
X75007817Y-70115385D01*
X75245912Y-70115385D01*
X75388769Y-70163005D01*
X75722103Y-70115385D02*
X75960198Y-71115385D01*
X76150674Y-70401100D01*
X76341150Y-71115385D01*
X76579245Y-70115385D01*
X77484007Y-71115385D02*
X76912579Y-71115385D01*
X77198293Y-71115385D02*
X77198293Y-70115385D01*
X77103055Y-70258243D01*
X77007817Y-70353481D01*
X76912579Y-70401100D01*
X77817341Y-70115385D02*
X78484007Y-70115385D01*
X78055436Y-71115385D01*
%TO.C,SW18*%
X92790995Y-73607763D02*
X92933852Y-73655382D01*
X93171947Y-73655382D01*
X93267185Y-73607763D01*
X93314804Y-73560144D01*
X93362423Y-73464906D01*
X93362423Y-73369668D01*
X93314804Y-73274430D01*
X93267185Y-73226811D01*
X93171947Y-73179192D01*
X92981471Y-73131573D01*
X92886233Y-73083954D01*
X92838614Y-73036335D01*
X92790995Y-72941097D01*
X92790995Y-72845859D01*
X92838614Y-72750621D01*
X92886233Y-72703002D01*
X92981471Y-72655382D01*
X93219566Y-72655382D01*
X93362423Y-72703002D01*
X93695757Y-72655382D02*
X93933852Y-73655382D01*
X94124328Y-72941097D01*
X94314804Y-73655382D01*
X94552899Y-72655382D01*
X95457661Y-73655382D02*
X94886233Y-73655382D01*
X95171947Y-73655382D02*
X95171947Y-72655382D01*
X95076709Y-72798240D01*
X94981471Y-72893478D01*
X94886233Y-72941097D01*
X96029090Y-73083954D02*
X95933852Y-73036335D01*
X95886233Y-72988716D01*
X95838614Y-72893478D01*
X95838614Y-72845859D01*
X95886233Y-72750621D01*
X95933852Y-72703002D01*
X96029090Y-72655382D01*
X96219566Y-72655382D01*
X96314804Y-72703002D01*
X96362423Y-72750621D01*
X96410042Y-72845859D01*
X96410042Y-72893478D01*
X96362423Y-72988716D01*
X96314804Y-73036335D01*
X96219566Y-73083954D01*
X96029090Y-73083954D01*
X95933852Y-73131573D01*
X95886233Y-73179192D01*
X95838614Y-73274430D01*
X95838614Y-73464906D01*
X95886233Y-73560144D01*
X95933852Y-73607763D01*
X96029090Y-73655382D01*
X96219566Y-73655382D01*
X96314804Y-73607763D01*
X96362423Y-73560144D01*
X96410042Y-73464906D01*
X96410042Y-73274430D01*
X96362423Y-73179192D01*
X96314804Y-73131573D01*
X96219566Y-73083954D01*
%TO.C,SW20*%
X111380836Y-99159974D02*
X111271488Y-99056443D01*
X111055700Y-98955819D01*
X110949261Y-98958728D01*
X110885978Y-98981760D01*
X110802572Y-99047951D01*
X110762322Y-99134266D01*
X110765230Y-99240706D01*
X110788263Y-99303988D01*
X110854454Y-99387395D01*
X111006959Y-99511051D01*
X111073149Y-99594458D01*
X111096182Y-99657740D01*
X111099090Y-99764180D01*
X111058841Y-99850495D01*
X110975434Y-99916685D01*
X110912152Y-99939718D01*
X110805712Y-99942626D01*
X110589925Y-99842003D01*
X110480577Y-99738471D01*
X110158349Y-99640756D02*
X110365180Y-98633825D01*
X109890680Y-99200689D01*
X110019920Y-98472827D01*
X109381514Y-99278512D01*
X109119661Y-99051324D02*
X109056379Y-99074357D01*
X108949939Y-99077265D01*
X108734151Y-98976641D01*
X108667961Y-98893235D01*
X108644928Y-98829952D01*
X108642020Y-98723513D01*
X108682270Y-98637198D01*
X108785801Y-98527850D01*
X109545187Y-98251456D01*
X108984140Y-97989835D01*
X108000474Y-98634522D02*
X107914159Y-98594272D01*
X107847968Y-98510866D01*
X107824936Y-98447583D01*
X107822027Y-98341144D01*
X107859369Y-98148389D01*
X107959992Y-97932601D01*
X108083648Y-97780096D01*
X108167055Y-97713906D01*
X108230337Y-97690873D01*
X108336777Y-97687965D01*
X108423092Y-97728214D01*
X108489282Y-97811621D01*
X108512315Y-97874903D01*
X108515223Y-97981343D01*
X108477882Y-98174098D01*
X108377259Y-98389885D01*
X108253603Y-98542391D01*
X108170196Y-98608581D01*
X108106913Y-98631614D01*
X108000474Y-98634522D01*
%TO.C,SW21*%
X94478587Y-92669453D02*
X94352923Y-92586482D01*
X94122940Y-92524859D01*
X94018623Y-92546206D01*
X93960302Y-92579877D01*
X93889656Y-92659546D01*
X93865006Y-92751538D01*
X93886353Y-92855856D01*
X93920025Y-92914177D01*
X93999693Y-92984823D01*
X94171354Y-93080119D01*
X94251023Y-93150764D01*
X94284694Y-93209086D01*
X94306041Y-93313403D01*
X94281392Y-93405396D01*
X94210746Y-93485064D01*
X94152425Y-93518736D01*
X94048107Y-93540083D01*
X93818125Y-93478460D01*
X93692460Y-93395489D01*
X93358160Y-93355212D02*
X93386997Y-92327663D01*
X93018140Y-92968311D01*
X93019025Y-92229065D01*
X92530224Y-93133368D01*
X92232898Y-92955102D02*
X92174577Y-92988773D01*
X92070259Y-93010120D01*
X91840277Y-92948497D01*
X91760608Y-92877851D01*
X91726937Y-92819530D01*
X91705590Y-92715212D01*
X91730239Y-92623219D01*
X91813210Y-92497554D01*
X92513064Y-92093493D01*
X91915110Y-91933272D01*
X90995181Y-91686778D02*
X91547138Y-91834674D01*
X91271159Y-91760726D02*
X91012340Y-92726652D01*
X91141307Y-92613312D01*
X91257950Y-92545968D01*
X91362267Y-92524621D01*
D11*
%TO.C,REF\u002A\u002A*%
X67722080Y-47563003D02*
X67722080Y-47182050D01*
X67388746Y-47420145D02*
X68245889Y-47420145D01*
X68341127Y-47372526D01*
X68388746Y-47277288D01*
X68388746Y-47182050D01*
X68341127Y-46467764D02*
X68388746Y-46563003D01*
X68388746Y-46753479D01*
X68341127Y-46848717D01*
X68245889Y-46896336D01*
X67864937Y-46896336D01*
X67769699Y-46848717D01*
X67722080Y-46753479D01*
X67722080Y-46563003D01*
X67769699Y-46467764D01*
X67864937Y-46420145D01*
X67960175Y-46420145D01*
X68055413Y-46896336D01*
X67722080Y-45991574D02*
X68388746Y-45991574D01*
X67817318Y-45991574D02*
X67769699Y-45943955D01*
X67722080Y-45848717D01*
X67722080Y-45705860D01*
X67769699Y-45610622D01*
X67864937Y-45563003D01*
X68388746Y-45563003D01*
X67722080Y-45229669D02*
X67722080Y-44848717D01*
X67388746Y-45086812D02*
X68245889Y-45086812D01*
X68341127Y-45039193D01*
X68388746Y-44943955D01*
X68388746Y-44848717D01*
X68388746Y-44515383D02*
X67722080Y-44515383D01*
X67388746Y-44515383D02*
X67436366Y-44563003D01*
X67483985Y-44515383D01*
X67436366Y-44467764D01*
X67388746Y-44515383D01*
X67483985Y-44515383D01*
X67722080Y-44039193D02*
X68388746Y-44039193D01*
X67817318Y-44039193D02*
X67769699Y-43991574D01*
X67722080Y-43896336D01*
X67722080Y-43753479D01*
X67769699Y-43658241D01*
X67864937Y-43610622D01*
X68388746Y-43610622D01*
X67722080Y-42705860D02*
X68531604Y-42705860D01*
X68626842Y-42753479D01*
X68674461Y-42801098D01*
X68722080Y-42896336D01*
X68722080Y-43039193D01*
X68674461Y-43134431D01*
X68341127Y-42705860D02*
X68388746Y-42801098D01*
X68388746Y-42991574D01*
X68341127Y-43086812D01*
X68293508Y-43134431D01*
X68198270Y-43182050D01*
X67912556Y-43182050D01*
X67817318Y-43134431D01*
X67769699Y-43086812D01*
X67722080Y-42991574D01*
X67722080Y-42801098D01*
X67769699Y-42705860D01*
X67658580Y-33672503D02*
X68658580Y-33672503D01*
X67706199Y-33672503D02*
X67658580Y-33577264D01*
X67658580Y-33386788D01*
X67706199Y-33291550D01*
X67753818Y-33243931D01*
X67849056Y-33196312D01*
X68134770Y-33196312D01*
X68230008Y-33243931D01*
X68277627Y-33291550D01*
X68325246Y-33386788D01*
X68325246Y-33577264D01*
X68277627Y-33672503D01*
X67658580Y-32339169D02*
X68325246Y-32339169D01*
X67658580Y-32767741D02*
X68182389Y-32767741D01*
X68277627Y-32720122D01*
X68325246Y-32624883D01*
X68325246Y-32482026D01*
X68277627Y-32386788D01*
X68230008Y-32339169D01*
X68277627Y-31434407D02*
X68325246Y-31529645D01*
X68325246Y-31720122D01*
X68277627Y-31815360D01*
X68230008Y-31862979D01*
X68134770Y-31910598D01*
X67849056Y-31910598D01*
X67753818Y-31862979D01*
X67706199Y-31815360D01*
X67658580Y-31720122D01*
X67658580Y-31529645D01*
X67706199Y-31434407D01*
X68325246Y-31005836D02*
X67325246Y-31005836D01*
X67944294Y-30910598D02*
X68325246Y-30624883D01*
X67658580Y-30624883D02*
X68039532Y-31005836D01*
D12*
%TO.C,U1*%
X108595149Y-57082323D02*
X108595149Y-58082323D01*
X108595149Y-57225180D02*
X108666578Y-57153752D01*
X108809435Y-57082323D01*
X109023721Y-57082323D01*
X109166578Y-57153752D01*
X109238006Y-57296609D01*
X109238006Y-58082323D01*
X109952292Y-58082323D02*
X109952292Y-57082323D01*
X109952292Y-56582323D02*
X109880864Y-56653752D01*
X109952292Y-56725180D01*
X110023721Y-56653752D01*
X109952292Y-56582323D01*
X109952292Y-56725180D01*
X111309435Y-58010894D02*
X111166578Y-58082323D01*
X110880864Y-58082323D01*
X110738006Y-58010894D01*
X110666578Y-57939466D01*
X110595149Y-57796609D01*
X110595149Y-57368037D01*
X110666578Y-57225180D01*
X110738006Y-57153752D01*
X110880864Y-57082323D01*
X111166578Y-57082323D01*
X111309435Y-57153752D01*
X112523721Y-58010894D02*
X112380864Y-58082323D01*
X112095149Y-58082323D01*
X111952292Y-58010894D01*
X111880864Y-57868037D01*
X111880864Y-57296609D01*
X111952292Y-57153752D01*
X112095149Y-57082323D01*
X112380864Y-57082323D01*
X112523721Y-57153752D01*
X112595149Y-57296609D01*
X112595149Y-57439466D01*
X111880864Y-57582323D01*
X113238006Y-57939466D02*
X113309435Y-58010894D01*
X113238006Y-58082323D01*
X113166578Y-58010894D01*
X113238006Y-57939466D01*
X113238006Y-58082323D01*
X113238006Y-57510894D02*
X113166578Y-56653752D01*
X113238006Y-56582323D01*
X113309435Y-56653752D01*
X113238006Y-57510894D01*
X113238006Y-56582323D01*
X113952292Y-57082323D02*
X113952292Y-58082323D01*
X113952292Y-57225180D02*
X114023721Y-57153752D01*
X114166578Y-57082323D01*
X114380864Y-57082323D01*
X114523721Y-57153752D01*
X114595149Y-57296609D01*
X114595149Y-58082323D01*
X115952292Y-58082323D02*
X115952292Y-57296609D01*
X115880864Y-57153752D01*
X115738006Y-57082323D01*
X115452292Y-57082323D01*
X115309435Y-57153752D01*
X115952292Y-58010894D02*
X115809435Y-58082323D01*
X115452292Y-58082323D01*
X115309435Y-58010894D01*
X115238006Y-57868037D01*
X115238006Y-57725180D01*
X115309435Y-57582323D01*
X115452292Y-57510894D01*
X115809435Y-57510894D01*
X115952292Y-57439466D01*
X116666578Y-57082323D02*
X116666578Y-58082323D01*
X116666578Y-57225180D02*
X116738006Y-57153752D01*
X116880864Y-57082323D01*
X117095149Y-57082323D01*
X117238006Y-57153752D01*
X117309435Y-57296609D01*
X117309435Y-58082323D01*
X118238006Y-58082323D02*
X118095149Y-58010894D01*
X118023721Y-57939466D01*
X117952292Y-57796609D01*
X117952292Y-57368037D01*
X118023721Y-57225180D01*
X118095149Y-57153752D01*
X118238006Y-57082323D01*
X118452292Y-57082323D01*
X118595149Y-57153752D01*
X118666578Y-57225180D01*
X118738006Y-57368037D01*
X118738006Y-57796609D01*
X118666578Y-57939466D01*
X118595149Y-58010894D01*
X118452292Y-58082323D01*
X118238006Y-58082323D01*
D10*
X107306340Y-55733656D02*
X106849197Y-55733656D01*
X107077769Y-55733656D02*
X107077769Y-54933656D01*
X107001578Y-55047942D01*
X106925388Y-55124132D01*
X106849197Y-55162228D01*
X107801578Y-54933656D02*
X107877769Y-54933656D01*
X107953959Y-54971752D01*
X107992054Y-55009847D01*
X108030150Y-55086037D01*
X108068245Y-55238418D01*
X108068245Y-55428894D01*
X108030150Y-55581275D01*
X107992054Y-55657466D01*
X107953959Y-55695561D01*
X107877769Y-55733656D01*
X107801578Y-55733656D01*
X107725388Y-55695561D01*
X107687293Y-55657466D01*
X107649197Y-55581275D01*
X107611102Y-55428894D01*
X107611102Y-55238418D01*
X107649197Y-55086037D01*
X107687293Y-55009847D01*
X107725388Y-54971752D01*
X107801578Y-54933656D01*
X108753959Y-55200323D02*
X108753959Y-55733656D01*
X108563483Y-54895561D02*
X108373007Y-55466990D01*
X108868245Y-55466990D01*
X118114055Y-42233656D02*
X118190245Y-42233656D01*
X118266435Y-42271752D01*
X118304531Y-42309847D01*
X118342626Y-42386037D01*
X118380721Y-42538418D01*
X118380721Y-42728894D01*
X118342626Y-42881275D01*
X118304531Y-42957466D01*
X118266435Y-42995561D01*
X118190245Y-43033656D01*
X118114055Y-43033656D01*
X118037864Y-42995561D01*
X117999769Y-42957466D01*
X117961674Y-42881275D01*
X117923578Y-42728894D01*
X117923578Y-42538418D01*
X117961674Y-42386037D01*
X117999769Y-42309847D01*
X118037864Y-42271752D01*
X118114055Y-42233656D01*
X118685483Y-42309847D02*
X118723578Y-42271752D01*
X118799769Y-42233656D01*
X118990245Y-42233656D01*
X119066435Y-42271752D01*
X119104531Y-42309847D01*
X119142626Y-42386037D01*
X119142626Y-42462228D01*
X119104531Y-42576513D01*
X118647388Y-43033656D01*
X119142626Y-43033656D01*
X119523578Y-43033656D02*
X119675959Y-43033656D01*
X119752150Y-42995561D01*
X119790245Y-42957466D01*
X119866435Y-42843180D01*
X119904531Y-42690799D01*
X119904531Y-42386037D01*
X119866435Y-42309847D01*
X119828340Y-42271752D01*
X119752150Y-42233656D01*
X119599769Y-42233656D01*
X119523578Y-42271752D01*
X119485483Y-42309847D01*
X119447388Y-42386037D01*
X119447388Y-42576513D01*
X119485483Y-42652704D01*
X119523578Y-42690799D01*
X119599769Y-42728894D01*
X119752150Y-42728894D01*
X119828340Y-42690799D01*
X119866435Y-42652704D01*
X119904531Y-42576513D01*
X107039674Y-44803656D02*
X107115864Y-44803656D01*
X107192054Y-44841752D01*
X107230150Y-44879847D01*
X107268245Y-44956037D01*
X107306340Y-45108418D01*
X107306340Y-45298894D01*
X107268245Y-45451275D01*
X107230150Y-45527466D01*
X107192054Y-45565561D01*
X107115864Y-45603656D01*
X107039674Y-45603656D01*
X106963483Y-45565561D01*
X106925388Y-45527466D01*
X106887293Y-45451275D01*
X106849197Y-45298894D01*
X106849197Y-45108418D01*
X106887293Y-44956037D01*
X106925388Y-44879847D01*
X106963483Y-44841752D01*
X107039674Y-44803656D01*
X107611102Y-44879847D02*
X107649197Y-44841752D01*
X107725388Y-44803656D01*
X107915864Y-44803656D01*
X107992054Y-44841752D01*
X108030150Y-44879847D01*
X108068245Y-44956037D01*
X108068245Y-45032228D01*
X108030150Y-45146513D01*
X107573007Y-45603656D01*
X108068245Y-45603656D01*
X108373007Y-44879847D02*
X108411102Y-44841752D01*
X108487293Y-44803656D01*
X108677769Y-44803656D01*
X108753959Y-44841752D01*
X108792054Y-44879847D01*
X108830150Y-44956037D01*
X108830150Y-45032228D01*
X108792054Y-45146513D01*
X108334912Y-45603656D01*
X108830150Y-45603656D01*
X118380721Y-53193656D02*
X117923578Y-53193656D01*
X118152150Y-53193656D02*
X118152150Y-52393656D01*
X118075959Y-52507942D01*
X117999769Y-52584132D01*
X117923578Y-52622228D01*
X119142626Y-53193656D02*
X118685483Y-53193656D01*
X118914055Y-53193656D02*
X118914055Y-52393656D01*
X118837864Y-52507942D01*
X118761674Y-52584132D01*
X118685483Y-52622228D01*
X119904531Y-53193656D02*
X119447388Y-53193656D01*
X119675959Y-53193656D02*
X119675959Y-52393656D01*
X119599769Y-52507942D01*
X119523578Y-52584132D01*
X119447388Y-52622228D01*
X107039674Y-29533656D02*
X107115864Y-29533656D01*
X107192054Y-29571752D01*
X107230150Y-29609847D01*
X107268245Y-29686037D01*
X107306340Y-29838418D01*
X107306340Y-30028894D01*
X107268245Y-30181275D01*
X107230150Y-30257466D01*
X107192054Y-30295561D01*
X107115864Y-30333656D01*
X107039674Y-30333656D01*
X106963483Y-30295561D01*
X106925388Y-30257466D01*
X106887293Y-30181275D01*
X106849197Y-30028894D01*
X106849197Y-29838418D01*
X106887293Y-29686037D01*
X106925388Y-29609847D01*
X106963483Y-29571752D01*
X107039674Y-29533656D01*
X107801578Y-29533656D02*
X107877769Y-29533656D01*
X107953959Y-29571752D01*
X107992054Y-29609847D01*
X108030150Y-29686037D01*
X108068245Y-29838418D01*
X108068245Y-30028894D01*
X108030150Y-30181275D01*
X107992054Y-30257466D01*
X107953959Y-30295561D01*
X107877769Y-30333656D01*
X107801578Y-30333656D01*
X107725388Y-30295561D01*
X107687293Y-30257466D01*
X107649197Y-30181275D01*
X107611102Y-30028894D01*
X107611102Y-29838418D01*
X107649197Y-29686037D01*
X107687293Y-29609847D01*
X107725388Y-29571752D01*
X107801578Y-29533656D01*
X108753959Y-29533656D02*
X108601578Y-29533656D01*
X108525388Y-29571752D01*
X108487293Y-29609847D01*
X108411102Y-29724132D01*
X108373007Y-29876513D01*
X108373007Y-30181275D01*
X108411102Y-30257466D01*
X108449197Y-30295561D01*
X108525388Y-30333656D01*
X108677769Y-30333656D01*
X108753959Y-30295561D01*
X108792054Y-30257466D01*
X108830150Y-30181275D01*
X108830150Y-29990799D01*
X108792054Y-29914609D01*
X108753959Y-29876513D01*
X108677769Y-29838418D01*
X108525388Y-29838418D01*
X108449197Y-29876513D01*
X108411102Y-29914609D01*
X108373007Y-29990799D01*
X107039674Y-42303656D02*
X107115864Y-42303656D01*
X107192054Y-42341752D01*
X107230150Y-42379847D01*
X107268245Y-42456037D01*
X107306340Y-42608418D01*
X107306340Y-42798894D01*
X107268245Y-42951275D01*
X107230150Y-43027466D01*
X107192054Y-43065561D01*
X107115864Y-43103656D01*
X107039674Y-43103656D01*
X106963483Y-43065561D01*
X106925388Y-43027466D01*
X106887293Y-42951275D01*
X106849197Y-42798894D01*
X106849197Y-42608418D01*
X106887293Y-42456037D01*
X106925388Y-42379847D01*
X106963483Y-42341752D01*
X107039674Y-42303656D01*
X107611102Y-42379847D02*
X107649197Y-42341752D01*
X107725388Y-42303656D01*
X107915864Y-42303656D01*
X107992054Y-42341752D01*
X108030150Y-42379847D01*
X108068245Y-42456037D01*
X108068245Y-42532228D01*
X108030150Y-42646513D01*
X107573007Y-43103656D01*
X108068245Y-43103656D01*
X108563483Y-42303656D02*
X108639674Y-42303656D01*
X108715864Y-42341752D01*
X108753959Y-42379847D01*
X108792054Y-42456037D01*
X108830150Y-42608418D01*
X108830150Y-42798894D01*
X108792054Y-42951275D01*
X108753959Y-43027466D01*
X108715864Y-43065561D01*
X108639674Y-43103656D01*
X108563483Y-43103656D01*
X108487293Y-43065561D01*
X108449197Y-43027466D01*
X108411102Y-42951275D01*
X108373007Y-42798894D01*
X108373007Y-42608418D01*
X108411102Y-42456037D01*
X108449197Y-42379847D01*
X108487293Y-42341752D01*
X108563483Y-42303656D01*
X107306340Y-37191752D02*
X107230149Y-37153656D01*
X107115864Y-37153656D01*
X107001578Y-37191752D01*
X106925387Y-37267942D01*
X106887292Y-37344132D01*
X106849197Y-37496513D01*
X106849197Y-37610799D01*
X106887292Y-37763180D01*
X106925387Y-37839371D01*
X107001578Y-37915561D01*
X107115864Y-37953656D01*
X107192054Y-37953656D01*
X107306340Y-37915561D01*
X107344435Y-37877466D01*
X107344435Y-37610799D01*
X107192054Y-37610799D01*
X107687292Y-37953656D02*
X107687292Y-37153656D01*
X108144435Y-37953656D01*
X108144435Y-37153656D01*
X108525387Y-37953656D02*
X108525387Y-37153656D01*
X108715864Y-37153656D01*
X108830149Y-37191752D01*
X108906340Y-37267942D01*
X108944435Y-37344132D01*
X108982530Y-37496513D01*
X108982530Y-37610799D01*
X108944435Y-37763180D01*
X108906340Y-37839371D01*
X108830149Y-37915561D01*
X108715864Y-37953656D01*
X108525387Y-37953656D01*
X107306340Y-34651752D02*
X107230149Y-34613656D01*
X107115864Y-34613656D01*
X107001578Y-34651752D01*
X106925387Y-34727942D01*
X106887292Y-34804132D01*
X106849197Y-34956513D01*
X106849197Y-35070799D01*
X106887292Y-35223180D01*
X106925387Y-35299371D01*
X107001578Y-35375561D01*
X107115864Y-35413656D01*
X107192054Y-35413656D01*
X107306340Y-35375561D01*
X107344435Y-35337466D01*
X107344435Y-35070799D01*
X107192054Y-35070799D01*
X107687292Y-35413656D02*
X107687292Y-34613656D01*
X108144435Y-35413656D01*
X108144435Y-34613656D01*
X108525387Y-35413656D02*
X108525387Y-34613656D01*
X108715864Y-34613656D01*
X108830149Y-34651752D01*
X108906340Y-34727942D01*
X108944435Y-34804132D01*
X108982530Y-34956513D01*
X108982530Y-35070799D01*
X108944435Y-35223180D01*
X108906340Y-35299371D01*
X108830149Y-35375561D01*
X108715864Y-35413656D01*
X108525387Y-35413656D01*
X118526768Y-35413656D02*
X118260102Y-35032704D01*
X118069625Y-35413656D02*
X118069625Y-34613656D01*
X118374387Y-34613656D01*
X118450578Y-34651752D01*
X118488673Y-34689847D01*
X118526768Y-34766037D01*
X118526768Y-34880323D01*
X118488673Y-34956513D01*
X118450578Y-34994609D01*
X118374387Y-35032704D01*
X118069625Y-35032704D01*
X118831530Y-35375561D02*
X118945816Y-35413656D01*
X119136292Y-35413656D01*
X119212483Y-35375561D01*
X119250578Y-35337466D01*
X119288673Y-35261275D01*
X119288673Y-35185085D01*
X119250578Y-35108894D01*
X119212483Y-35070799D01*
X119136292Y-35032704D01*
X118983911Y-34994609D01*
X118907721Y-34956513D01*
X118869625Y-34918418D01*
X118831530Y-34842228D01*
X118831530Y-34766037D01*
X118869625Y-34689847D01*
X118907721Y-34651752D01*
X118983911Y-34613656D01*
X119174387Y-34613656D01*
X119288673Y-34651752D01*
X119517244Y-34613656D02*
X119974387Y-34613656D01*
X119745816Y-35413656D02*
X119745816Y-34613656D01*
X118222007Y-32111752D02*
X118145816Y-32073656D01*
X118031531Y-32073656D01*
X117917245Y-32111752D01*
X117841054Y-32187942D01*
X117802959Y-32264132D01*
X117764864Y-32416513D01*
X117764864Y-32530799D01*
X117802959Y-32683180D01*
X117841054Y-32759371D01*
X117917245Y-32835561D01*
X118031531Y-32873656D01*
X118107721Y-32873656D01*
X118222007Y-32835561D01*
X118260102Y-32797466D01*
X118260102Y-32530799D01*
X118107721Y-32530799D01*
X118602959Y-32873656D02*
X118602959Y-32073656D01*
X119060102Y-32873656D01*
X119060102Y-32073656D01*
X119441054Y-32873656D02*
X119441054Y-32073656D01*
X119631531Y-32073656D01*
X119745816Y-32111752D01*
X119822007Y-32187942D01*
X119860102Y-32264132D01*
X119898197Y-32416513D01*
X119898197Y-32530799D01*
X119860102Y-32683180D01*
X119822007Y-32759371D01*
X119745816Y-32835561D01*
X119631531Y-32873656D01*
X119441054Y-32873656D01*
X107039674Y-32003656D02*
X107115864Y-32003656D01*
X107192054Y-32041752D01*
X107230150Y-32079847D01*
X107268245Y-32156037D01*
X107306340Y-32308418D01*
X107306340Y-32498894D01*
X107268245Y-32651275D01*
X107230150Y-32727466D01*
X107192054Y-32765561D01*
X107115864Y-32803656D01*
X107039674Y-32803656D01*
X106963483Y-32765561D01*
X106925388Y-32727466D01*
X106887293Y-32651275D01*
X106849197Y-32498894D01*
X106849197Y-32308418D01*
X106887293Y-32156037D01*
X106925388Y-32079847D01*
X106963483Y-32041752D01*
X107039674Y-32003656D01*
X107801578Y-32003656D02*
X107877769Y-32003656D01*
X107953959Y-32041752D01*
X107992054Y-32079847D01*
X108030150Y-32156037D01*
X108068245Y-32308418D01*
X108068245Y-32498894D01*
X108030150Y-32651275D01*
X107992054Y-32727466D01*
X107953959Y-32765561D01*
X107877769Y-32803656D01*
X107801578Y-32803656D01*
X107725388Y-32765561D01*
X107687293Y-32727466D01*
X107649197Y-32651275D01*
X107611102Y-32498894D01*
X107611102Y-32308418D01*
X107649197Y-32156037D01*
X107687293Y-32079847D01*
X107725388Y-32041752D01*
X107801578Y-32003656D01*
X108525388Y-32346513D02*
X108449197Y-32308418D01*
X108411102Y-32270323D01*
X108373007Y-32194132D01*
X108373007Y-32156037D01*
X108411102Y-32079847D01*
X108449197Y-32041752D01*
X108525388Y-32003656D01*
X108677769Y-32003656D01*
X108753959Y-32041752D01*
X108792054Y-32079847D01*
X108830150Y-32156037D01*
X108830150Y-32194132D01*
X108792054Y-32270323D01*
X108753959Y-32308418D01*
X108677769Y-32346513D01*
X108525388Y-32346513D01*
X108449197Y-32384609D01*
X108411102Y-32422704D01*
X108373007Y-32498894D01*
X108373007Y-32651275D01*
X108411102Y-32727466D01*
X108449197Y-32765561D01*
X108525388Y-32803656D01*
X108677769Y-32803656D01*
X108753959Y-32765561D01*
X108792054Y-32727466D01*
X108830150Y-32651275D01*
X108830150Y-32498894D01*
X108792054Y-32422704D01*
X108753959Y-32384609D01*
X108677769Y-32346513D01*
X118114055Y-39693656D02*
X118190245Y-39693656D01*
X118266435Y-39731752D01*
X118304531Y-39769847D01*
X118342626Y-39846037D01*
X118380721Y-39998418D01*
X118380721Y-40188894D01*
X118342626Y-40341275D01*
X118304531Y-40417466D01*
X118266435Y-40455561D01*
X118190245Y-40493656D01*
X118114055Y-40493656D01*
X118037864Y-40455561D01*
X117999769Y-40417466D01*
X117961674Y-40341275D01*
X117923578Y-40188894D01*
X117923578Y-39998418D01*
X117961674Y-39846037D01*
X117999769Y-39769847D01*
X118037864Y-39731752D01*
X118114055Y-39693656D01*
X118647388Y-39693656D02*
X119142626Y-39693656D01*
X118875959Y-39998418D01*
X118990245Y-39998418D01*
X119066435Y-40036513D01*
X119104531Y-40074609D01*
X119142626Y-40150799D01*
X119142626Y-40341275D01*
X119104531Y-40417466D01*
X119066435Y-40455561D01*
X118990245Y-40493656D01*
X118761674Y-40493656D01*
X118685483Y-40455561D01*
X118647388Y-40417466D01*
X119904531Y-40493656D02*
X119447388Y-40493656D01*
X119675959Y-40493656D02*
X119675959Y-39693656D01*
X119599769Y-39807942D01*
X119523578Y-39884132D01*
X119447388Y-39922228D01*
X107039674Y-47313656D02*
X107115864Y-47313656D01*
X107192054Y-47351752D01*
X107230150Y-47389847D01*
X107268245Y-47466037D01*
X107306340Y-47618418D01*
X107306340Y-47808894D01*
X107268245Y-47961275D01*
X107230150Y-48037466D01*
X107192054Y-48075561D01*
X107115864Y-48113656D01*
X107039674Y-48113656D01*
X106963483Y-48075561D01*
X106925388Y-48037466D01*
X106887293Y-47961275D01*
X106849197Y-47808894D01*
X106849197Y-47618418D01*
X106887293Y-47466037D01*
X106925388Y-47389847D01*
X106963483Y-47351752D01*
X107039674Y-47313656D01*
X107611102Y-47389847D02*
X107649197Y-47351752D01*
X107725388Y-47313656D01*
X107915864Y-47313656D01*
X107992054Y-47351752D01*
X108030150Y-47389847D01*
X108068245Y-47466037D01*
X108068245Y-47542228D01*
X108030150Y-47656513D01*
X107573007Y-48113656D01*
X108068245Y-48113656D01*
X108753959Y-47580323D02*
X108753959Y-48113656D01*
X108563483Y-47275561D02*
X108373007Y-47846990D01*
X108868245Y-47846990D01*
X118380721Y-48113656D02*
X117923578Y-48113656D01*
X118152150Y-48113656D02*
X118152150Y-47313656D01*
X118075959Y-47427942D01*
X117999769Y-47504132D01*
X117923578Y-47542228D01*
X119142626Y-48113656D02*
X118685483Y-48113656D01*
X118914055Y-48113656D02*
X118914055Y-47313656D01*
X118837864Y-47427942D01*
X118761674Y-47504132D01*
X118685483Y-47542228D01*
X119866435Y-47313656D02*
X119485483Y-47313656D01*
X119447388Y-47694609D01*
X119485483Y-47656513D01*
X119561674Y-47618418D01*
X119752150Y-47618418D01*
X119828340Y-47656513D01*
X119866435Y-47694609D01*
X119904531Y-47770799D01*
X119904531Y-47961275D01*
X119866435Y-48037466D01*
X119828340Y-48075561D01*
X119752150Y-48113656D01*
X119561674Y-48113656D01*
X119485483Y-48075561D01*
X119447388Y-48037466D01*
X117847388Y-37153656D02*
X118114055Y-37953656D01*
X118380721Y-37153656D01*
X119104531Y-37877466D02*
X119066435Y-37915561D01*
X118952150Y-37953656D01*
X118875959Y-37953656D01*
X118761674Y-37915561D01*
X118685483Y-37839371D01*
X118647388Y-37763180D01*
X118609293Y-37610799D01*
X118609293Y-37496513D01*
X118647388Y-37344132D01*
X118685483Y-37267942D01*
X118761674Y-37191752D01*
X118875959Y-37153656D01*
X118952150Y-37153656D01*
X119066435Y-37191752D01*
X119104531Y-37229847D01*
X119904531Y-37877466D02*
X119866435Y-37915561D01*
X119752150Y-37953656D01*
X119675959Y-37953656D01*
X119561674Y-37915561D01*
X119485483Y-37839371D01*
X119447388Y-37763180D01*
X119409293Y-37610799D01*
X119409293Y-37496513D01*
X119447388Y-37344132D01*
X119485483Y-37267942D01*
X119561674Y-37191752D01*
X119675959Y-37153656D01*
X119752150Y-37153656D01*
X119866435Y-37191752D01*
X119904531Y-37229847D01*
X118114055Y-44773656D02*
X118190245Y-44773656D01*
X118266435Y-44811752D01*
X118304531Y-44849847D01*
X118342626Y-44926037D01*
X118380721Y-45078418D01*
X118380721Y-45268894D01*
X118342626Y-45421275D01*
X118304531Y-45497466D01*
X118266435Y-45535561D01*
X118190245Y-45573656D01*
X118114055Y-45573656D01*
X118037864Y-45535561D01*
X117999769Y-45497466D01*
X117961674Y-45421275D01*
X117923578Y-45268894D01*
X117923578Y-45078418D01*
X117961674Y-44926037D01*
X117999769Y-44849847D01*
X118037864Y-44811752D01*
X118114055Y-44773656D01*
X118875959Y-44773656D02*
X118952150Y-44773656D01*
X119028340Y-44811752D01*
X119066435Y-44849847D01*
X119104531Y-44926037D01*
X119142626Y-45078418D01*
X119142626Y-45268894D01*
X119104531Y-45421275D01*
X119066435Y-45497466D01*
X119028340Y-45535561D01*
X118952150Y-45573656D01*
X118875959Y-45573656D01*
X118799769Y-45535561D01*
X118761674Y-45497466D01*
X118723578Y-45421275D01*
X118685483Y-45268894D01*
X118685483Y-45078418D01*
X118723578Y-44926037D01*
X118761674Y-44849847D01*
X118799769Y-44811752D01*
X118875959Y-44773656D01*
X119447388Y-44849847D02*
X119485483Y-44811752D01*
X119561674Y-44773656D01*
X119752150Y-44773656D01*
X119828340Y-44811752D01*
X119866435Y-44849847D01*
X119904531Y-44926037D01*
X119904531Y-45002228D01*
X119866435Y-45116513D01*
X119409293Y-45573656D01*
X119904531Y-45573656D01*
X118298198Y-30333656D02*
X118031531Y-29952704D01*
X117841055Y-30333656D02*
X117841055Y-29533656D01*
X118145817Y-29533656D01*
X118222007Y-29571752D01*
X118260102Y-29609847D01*
X118298198Y-29686037D01*
X118298198Y-29800323D01*
X118260102Y-29876513D01*
X118222007Y-29914609D01*
X118145817Y-29952704D01*
X117841055Y-29952704D01*
X118602959Y-30105085D02*
X118983912Y-30105085D01*
X118526769Y-30333656D02*
X118793436Y-29533656D01*
X119060102Y-30333656D01*
X119250579Y-29533656D02*
X119441055Y-30333656D01*
X119593436Y-29762228D01*
X119745817Y-30333656D01*
X119936293Y-29533656D01*
X107039674Y-39703656D02*
X107115864Y-39703656D01*
X107192054Y-39741752D01*
X107230150Y-39779847D01*
X107268245Y-39856037D01*
X107306340Y-40008418D01*
X107306340Y-40198894D01*
X107268245Y-40351275D01*
X107230150Y-40427466D01*
X107192054Y-40465561D01*
X107115864Y-40503656D01*
X107039674Y-40503656D01*
X106963483Y-40465561D01*
X106925388Y-40427466D01*
X106887293Y-40351275D01*
X106849197Y-40198894D01*
X106849197Y-40008418D01*
X106887293Y-39856037D01*
X106925388Y-39779847D01*
X106963483Y-39741752D01*
X107039674Y-39703656D01*
X108068245Y-40503656D02*
X107611102Y-40503656D01*
X107839674Y-40503656D02*
X107839674Y-39703656D01*
X107763483Y-39817942D01*
X107687293Y-39894132D01*
X107611102Y-39932228D01*
X108334912Y-39703656D02*
X108868245Y-39703656D01*
X108525388Y-40503656D01*
X118114055Y-54933656D02*
X118190245Y-54933656D01*
X118266435Y-54971752D01*
X118304531Y-55009847D01*
X118342626Y-55086037D01*
X118380721Y-55238418D01*
X118380721Y-55428894D01*
X118342626Y-55581275D01*
X118304531Y-55657466D01*
X118266435Y-55695561D01*
X118190245Y-55733656D01*
X118114055Y-55733656D01*
X118037864Y-55695561D01*
X117999769Y-55657466D01*
X117961674Y-55581275D01*
X117923578Y-55428894D01*
X117923578Y-55238418D01*
X117961674Y-55086037D01*
X117999769Y-55009847D01*
X118037864Y-54971752D01*
X118114055Y-54933656D01*
X119142626Y-55733656D02*
X118685483Y-55733656D01*
X118914055Y-55733656D02*
X118914055Y-54933656D01*
X118837864Y-55047942D01*
X118761674Y-55124132D01*
X118685483Y-55162228D01*
X119637864Y-54933656D02*
X119714055Y-54933656D01*
X119790245Y-54971752D01*
X119828340Y-55009847D01*
X119866435Y-55086037D01*
X119904531Y-55238418D01*
X119904531Y-55428894D01*
X119866435Y-55581275D01*
X119828340Y-55657466D01*
X119790245Y-55695561D01*
X119714055Y-55733656D01*
X119637864Y-55733656D01*
X119561674Y-55695561D01*
X119523578Y-55657466D01*
X119485483Y-55581275D01*
X119447388Y-55428894D01*
X119447388Y-55238418D01*
X119485483Y-55086037D01*
X119523578Y-55009847D01*
X119561674Y-54971752D01*
X119637864Y-54933656D01*
X118380721Y-50653656D02*
X117923578Y-50653656D01*
X118152150Y-50653656D02*
X118152150Y-49853656D01*
X118075959Y-49967942D01*
X117999769Y-50044132D01*
X117923578Y-50082228D01*
X119142626Y-50653656D02*
X118685483Y-50653656D01*
X118914055Y-50653656D02*
X118914055Y-49853656D01*
X118837864Y-49967942D01*
X118761674Y-50044132D01*
X118685483Y-50082228D01*
X119409293Y-49853656D02*
X119904531Y-49853656D01*
X119637864Y-50158418D01*
X119752150Y-50158418D01*
X119828340Y-50196513D01*
X119866435Y-50234609D01*
X119904531Y-50310799D01*
X119904531Y-50501275D01*
X119866435Y-50577466D01*
X119828340Y-50615561D01*
X119752150Y-50653656D01*
X119523578Y-50653656D01*
X119447388Y-50615561D01*
X119409293Y-50577466D01*
X107306340Y-50653656D02*
X106849197Y-50653656D01*
X107077769Y-50653656D02*
X107077769Y-49853656D01*
X107001578Y-49967942D01*
X106925388Y-50044132D01*
X106849197Y-50082228D01*
X107801578Y-49853656D02*
X107877769Y-49853656D01*
X107953959Y-49891752D01*
X107992054Y-49929847D01*
X108030150Y-50006037D01*
X108068245Y-50158418D01*
X108068245Y-50348894D01*
X108030150Y-50501275D01*
X107992054Y-50577466D01*
X107953959Y-50615561D01*
X107877769Y-50653656D01*
X107801578Y-50653656D01*
X107725388Y-50615561D01*
X107687293Y-50577466D01*
X107649197Y-50501275D01*
X107611102Y-50348894D01*
X107611102Y-50158418D01*
X107649197Y-50006037D01*
X107687293Y-49929847D01*
X107725388Y-49891752D01*
X107801578Y-49853656D01*
X108563483Y-49853656D02*
X108639674Y-49853656D01*
X108715864Y-49891752D01*
X108753959Y-49929847D01*
X108792054Y-50006037D01*
X108830150Y-50158418D01*
X108830150Y-50348894D01*
X108792054Y-50501275D01*
X108753959Y-50577466D01*
X108715864Y-50615561D01*
X108639674Y-50653656D01*
X108563483Y-50653656D01*
X108487293Y-50615561D01*
X108449197Y-50577466D01*
X108411102Y-50501275D01*
X108373007Y-50348894D01*
X108373007Y-50158418D01*
X108411102Y-50006037D01*
X108449197Y-49929847D01*
X108487293Y-49891752D01*
X108563483Y-49853656D01*
%TO.C,SW7*%
X125437826Y-77015624D02*
X125485445Y-76872767D01*
X125485445Y-76634671D01*
X125437826Y-76539433D01*
X125390207Y-76491814D01*
X125294969Y-76444195D01*
X125199731Y-76444195D01*
X125104493Y-76491814D01*
X125056874Y-76539433D01*
X125009255Y-76634671D01*
X124961636Y-76825148D01*
X124914017Y-76920386D01*
X124866398Y-76968005D01*
X124771160Y-77015624D01*
X124675922Y-77015624D01*
X124580684Y-76968005D01*
X124533065Y-76920386D01*
X124485445Y-76825148D01*
X124485445Y-76587052D01*
X124533065Y-76444195D01*
X124485445Y-76110862D02*
X125485445Y-75872767D01*
X124771160Y-75682291D01*
X125485445Y-75491814D01*
X124485445Y-75253719D01*
X124485445Y-74968005D02*
X124485445Y-74301338D01*
X125485445Y-74729910D01*
D13*
X118184969Y-72020386D02*
X118184969Y-72268005D01*
X118123065Y-72391814D01*
X117999255Y-72515624D01*
X117751636Y-72577529D01*
X117318303Y-72577529D01*
X117070684Y-72515624D01*
X116946874Y-72391814D01*
X116884969Y-72268005D01*
X116884969Y-72020386D01*
X116946874Y-71896576D01*
X117070684Y-71772767D01*
X117318303Y-71710862D01*
X117751636Y-71710862D01*
X117999255Y-71772767D01*
X118123065Y-71896576D01*
X118184969Y-72020386D01*
X117751636Y-73134671D02*
X116884969Y-73134671D01*
X117627826Y-73134671D02*
X117689731Y-73196576D01*
X117751636Y-73320386D01*
X117751636Y-73506100D01*
X117689731Y-73629910D01*
X117565922Y-73691814D01*
X116884969Y-73691814D01*
X118184969Y-77565624D02*
X118184969Y-77813243D01*
X118123065Y-77937052D01*
X117999255Y-78060862D01*
X117751636Y-78122767D01*
X117318303Y-78122767D01*
X117070684Y-78060862D01*
X116946874Y-77937052D01*
X116884969Y-77813243D01*
X116884969Y-77565624D01*
X116946874Y-77441814D01*
X117070684Y-77318005D01*
X117318303Y-77256100D01*
X117751636Y-77256100D01*
X117999255Y-77318005D01*
X118123065Y-77441814D01*
X118184969Y-77565624D01*
X117751636Y-78494195D02*
X117751636Y-78989433D01*
X116884969Y-78679910D02*
X117999255Y-78679910D01*
X118123065Y-78741814D01*
X118184969Y-78865624D01*
X118184969Y-78989433D01*
X117751636Y-79237052D02*
X117751636Y-79732291D01*
X116884969Y-79422767D02*
X117999255Y-79422767D01*
X118123065Y-79484671D01*
X118184969Y-79608481D01*
X118184969Y-79732291D01*
D10*
%TO.C,JP7*%
X113362380Y-63618333D02*
X114076666Y-63618333D01*
X114219523Y-63665952D01*
X114314761Y-63761190D01*
X114362380Y-63904047D01*
X114362380Y-63999285D01*
X114362380Y-63142142D02*
X113362380Y-63142142D01*
X113362380Y-62761190D01*
X113410000Y-62665952D01*
X113457619Y-62618333D01*
X113552857Y-62570714D01*
X113695714Y-62570714D01*
X113790952Y-62618333D01*
X113838571Y-62665952D01*
X113886190Y-62761190D01*
X113886190Y-63142142D01*
X113362380Y-62237380D02*
X113362380Y-61570714D01*
X114362380Y-61999285D01*
%TO.C,JP6*%
X108272380Y-63623333D02*
X108986666Y-63623333D01*
X109129523Y-63670952D01*
X109224761Y-63766190D01*
X109272380Y-63909047D01*
X109272380Y-64004285D01*
X109272380Y-63147142D02*
X108272380Y-63147142D01*
X108272380Y-62766190D01*
X108320000Y-62670952D01*
X108367619Y-62623333D01*
X108462857Y-62575714D01*
X108605714Y-62575714D01*
X108700952Y-62623333D01*
X108748571Y-62670952D01*
X108796190Y-62766190D01*
X108796190Y-63147142D01*
X108272380Y-61718571D02*
X108272380Y-61909047D01*
X108320000Y-62004285D01*
X108367619Y-62051904D01*
X108510476Y-62147142D01*
X108700952Y-62194761D01*
X109081904Y-62194761D01*
X109177142Y-62147142D01*
X109224761Y-62099523D01*
X109272380Y-62004285D01*
X109272380Y-61813809D01*
X109224761Y-61718571D01*
X109177142Y-61670952D01*
X109081904Y-61623333D01*
X108843809Y-61623333D01*
X108748571Y-61670952D01*
X108700952Y-61718571D01*
X108653333Y-61813809D01*
X108653333Y-62004285D01*
X108700952Y-62099523D01*
X108748571Y-62147142D01*
X108843809Y-62194761D01*
%TO.C,SW1*%
X76265585Y-89174156D02*
X76127422Y-89114268D01*
X75890233Y-89093516D01*
X75791207Y-89132654D01*
X75739619Y-89175941D01*
X75683880Y-89266667D01*
X75675580Y-89361542D01*
X75714717Y-89460568D01*
X75758005Y-89512157D01*
X75848730Y-89567895D01*
X76034331Y-89631934D01*
X76125057Y-89687672D01*
X76168344Y-89739260D01*
X76207482Y-89838286D01*
X76199181Y-89933162D01*
X76143443Y-90023887D01*
X76091855Y-90067175D01*
X75992829Y-90106312D01*
X75755639Y-90085561D01*
X75617476Y-90025672D01*
X75281261Y-90044058D02*
X75131227Y-89027112D01*
X74879222Y-89722079D01*
X74751725Y-88993910D01*
X74427380Y-89969353D01*
X73613217Y-88894303D02*
X74182471Y-88944107D01*
X73897844Y-88919205D02*
X73810688Y-89915400D01*
X73918014Y-89781387D01*
X74021191Y-89694812D01*
X74120217Y-89655674D01*
%TO.C,J1*%
X116735446Y-75645624D02*
X117449732Y-75645624D01*
X117592589Y-75693243D01*
X117687827Y-75788481D01*
X117735446Y-75931338D01*
X117735446Y-76026576D01*
X117735446Y-74645624D02*
X117735446Y-75217052D01*
X117735446Y-74931338D02*
X116735446Y-74931338D01*
X116878304Y-75026576D01*
X116973542Y-75121814D01*
X117021161Y-75217052D01*
X114761637Y-71531338D02*
X114761637Y-72293243D01*
X113061637Y-74931338D02*
X113061637Y-75693243D01*
X112680685Y-75312291D02*
X113442589Y-75312291D01*
X113061637Y-76931338D02*
X113061637Y-77693243D01*
X116161637Y-74931338D02*
X116161637Y-75693243D01*
X115780685Y-75312291D02*
X116542589Y-75312291D01*
X113061637Y-72931338D02*
X113061637Y-73693243D01*
X114761637Y-78331338D02*
X114761637Y-79093243D01*
%TO.C,JP5*%
X105722380Y-63623333D02*
X106436666Y-63623333D01*
X106579523Y-63670952D01*
X106674761Y-63766190D01*
X106722380Y-63909047D01*
X106722380Y-64004285D01*
X106722380Y-63147142D02*
X105722380Y-63147142D01*
X105722380Y-62766190D01*
X105770000Y-62670952D01*
X105817619Y-62623333D01*
X105912857Y-62575714D01*
X106055714Y-62575714D01*
X106150952Y-62623333D01*
X106198571Y-62670952D01*
X106246190Y-62766190D01*
X106246190Y-63147142D01*
X105722380Y-61670952D02*
X105722380Y-62147142D01*
X106198571Y-62194761D01*
X106150952Y-62147142D01*
X106103333Y-62051904D01*
X106103333Y-61813809D01*
X106150952Y-61718571D01*
X106198571Y-61670952D01*
X106293809Y-61623333D01*
X106531904Y-61623333D01*
X106627142Y-61670952D01*
X106674761Y-61718571D01*
X106722380Y-61813809D01*
X106722380Y-62051904D01*
X106674761Y-62147142D01*
X106627142Y-62194761D01*
%TO.C,JP8*%
X115882380Y-63623333D02*
X116596666Y-63623333D01*
X116739523Y-63670952D01*
X116834761Y-63766190D01*
X116882380Y-63909047D01*
X116882380Y-64004285D01*
X116882380Y-63147142D02*
X115882380Y-63147142D01*
X115882380Y-62766190D01*
X115930000Y-62670952D01*
X115977619Y-62623333D01*
X116072857Y-62575714D01*
X116215714Y-62575714D01*
X116310952Y-62623333D01*
X116358571Y-62670952D01*
X116406190Y-62766190D01*
X116406190Y-63147142D01*
X116310952Y-62004285D02*
X116263333Y-62099523D01*
X116215714Y-62147142D01*
X116120476Y-62194761D01*
X116072857Y-62194761D01*
X115977619Y-62147142D01*
X115930000Y-62099523D01*
X115882380Y-62004285D01*
X115882380Y-61813809D01*
X115930000Y-61718571D01*
X115977619Y-61670952D01*
X116072857Y-61623333D01*
X116120476Y-61623333D01*
X116215714Y-61670952D01*
X116263333Y-61718571D01*
X116310952Y-61813809D01*
X116310952Y-62004285D01*
X116358571Y-62099523D01*
X116406190Y-62147142D01*
X116501428Y-62194761D01*
X116691904Y-62194761D01*
X116787142Y-62147142D01*
X116834761Y-62099523D01*
X116882380Y-62004285D01*
X116882380Y-61813809D01*
X116834761Y-61718571D01*
X116787142Y-61670952D01*
X116691904Y-61623333D01*
X116501428Y-61623333D01*
X116406190Y-61670952D01*
X116358571Y-61718571D01*
X116310952Y-61813809D01*
%TO.C,Display1*%
X110034018Y-70798006D02*
X110034018Y-71464672D01*
X110034018Y-70893244D02*
X110081637Y-70845625D01*
X110176875Y-70798006D01*
X110319732Y-70798006D01*
X110414970Y-70845625D01*
X110462589Y-70940863D01*
X110462589Y-71464672D01*
X110938780Y-71464672D02*
X110938780Y-70798006D01*
X110938780Y-70464672D02*
X110891161Y-70512292D01*
X110938780Y-70559911D01*
X110986399Y-70512292D01*
X110938780Y-70464672D01*
X110938780Y-70559911D01*
X111843542Y-71417053D02*
X111748304Y-71464672D01*
X111557827Y-71464672D01*
X111462589Y-71417053D01*
X111414970Y-71369434D01*
X111367351Y-71274196D01*
X111367351Y-70988482D01*
X111414970Y-70893244D01*
X111462589Y-70845625D01*
X111557827Y-70798006D01*
X111748304Y-70798006D01*
X111843542Y-70845625D01*
X112653066Y-71417053D02*
X112557827Y-71464672D01*
X112367351Y-71464672D01*
X112272113Y-71417053D01*
X112224494Y-71321815D01*
X112224494Y-70940863D01*
X112272113Y-70845625D01*
X112367351Y-70798006D01*
X112557827Y-70798006D01*
X112653066Y-70845625D01*
X112700685Y-70940863D01*
X112700685Y-71036101D01*
X112224494Y-71131339D01*
X113129256Y-71369434D02*
X113176875Y-71417053D01*
X113129256Y-71464672D01*
X113081637Y-71417053D01*
X113129256Y-71369434D01*
X113129256Y-71464672D01*
X113129256Y-71083720D02*
X113081637Y-70512292D01*
X113129256Y-70464672D01*
X113176875Y-70512292D01*
X113129256Y-71083720D01*
X113129256Y-70464672D01*
X113510208Y-70798006D02*
X113748304Y-71464672D01*
X113986399Y-70798006D01*
X114367351Y-71464672D02*
X114367351Y-70798006D01*
X114367351Y-70464672D02*
X114319732Y-70512292D01*
X114367351Y-70559911D01*
X114414970Y-70512292D01*
X114367351Y-70464672D01*
X114367351Y-70559911D01*
X115224494Y-71417053D02*
X115129256Y-71464672D01*
X114938780Y-71464672D01*
X114843542Y-71417053D01*
X114795923Y-71321815D01*
X114795923Y-70940863D01*
X114843542Y-70845625D01*
X114938780Y-70798006D01*
X115129256Y-70798006D01*
X115224494Y-70845625D01*
X115272113Y-70940863D01*
X115272113Y-71036101D01*
X114795923Y-71131339D01*
X115605446Y-70798006D02*
X115795923Y-71464672D01*
X115986399Y-70988482D01*
X116176875Y-71464672D01*
X116367351Y-70798006D01*
X108525446Y-70680744D02*
X107525446Y-70680744D01*
X108239732Y-70347411D01*
X107525446Y-70014077D01*
X108525446Y-70014077D01*
X107525446Y-69347411D02*
X107525446Y-69156934D01*
X107573066Y-69061696D01*
X107668304Y-68966458D01*
X107858780Y-68918839D01*
X108192113Y-68918839D01*
X108382589Y-68966458D01*
X108477827Y-69061696D01*
X108525446Y-69156934D01*
X108525446Y-69347411D01*
X108477827Y-69442649D01*
X108382589Y-69537887D01*
X108192113Y-69585506D01*
X107858780Y-69585506D01*
X107668304Y-69537887D01*
X107573066Y-69442649D01*
X107525446Y-69347411D01*
X108477827Y-68537887D02*
X108525446Y-68395030D01*
X108525446Y-68156934D01*
X108477827Y-68061696D01*
X108430208Y-68014077D01*
X108334970Y-67966458D01*
X108239732Y-67966458D01*
X108144494Y-68014077D01*
X108096875Y-68061696D01*
X108049256Y-68156934D01*
X108001637Y-68347411D01*
X107954018Y-68442649D01*
X107906399Y-68490268D01*
X107811161Y-68537887D01*
X107715923Y-68537887D01*
X107620685Y-68490268D01*
X107573066Y-68442649D01*
X107525446Y-68347411D01*
X107525446Y-68109315D01*
X107573066Y-67966458D01*
X108525446Y-67537887D02*
X107525446Y-67537887D01*
X112605446Y-70061696D02*
X113605446Y-69728363D01*
X112605446Y-69395030D01*
X113510208Y-68490268D02*
X113557827Y-68537887D01*
X113605446Y-68680744D01*
X113605446Y-68775982D01*
X113557827Y-68918839D01*
X113462589Y-69014077D01*
X113367351Y-69061696D01*
X113176875Y-69109315D01*
X113034018Y-69109315D01*
X112843542Y-69061696D01*
X112748304Y-69014077D01*
X112653066Y-68918839D01*
X112605446Y-68775982D01*
X112605446Y-68680744D01*
X112653066Y-68537887D01*
X112700685Y-68490268D01*
X113510208Y-67490268D02*
X113557827Y-67537887D01*
X113605446Y-67680744D01*
X113605446Y-67775982D01*
X113557827Y-67918839D01*
X113462589Y-68014077D01*
X113367351Y-68061696D01*
X113176875Y-68109315D01*
X113034018Y-68109315D01*
X112843542Y-68061696D01*
X112748304Y-68014077D01*
X112653066Y-67918839D01*
X112605446Y-67775982D01*
X112605446Y-67680744D01*
X112653066Y-67537887D01*
X112700685Y-67490268D01*
X111017827Y-70061696D02*
X111065446Y-69918839D01*
X111065446Y-69680744D01*
X111017827Y-69585506D01*
X110970208Y-69537887D01*
X110874970Y-69490268D01*
X110779732Y-69490268D01*
X110684494Y-69537887D01*
X110636875Y-69585506D01*
X110589256Y-69680744D01*
X110541637Y-69871220D01*
X110494018Y-69966458D01*
X110446399Y-70014077D01*
X110351161Y-70061696D01*
X110255923Y-70061696D01*
X110160685Y-70014077D01*
X110113066Y-69966458D01*
X110065446Y-69871220D01*
X110065446Y-69633125D01*
X110113066Y-69490268D01*
X110970208Y-68490268D02*
X111017827Y-68537887D01*
X111065446Y-68680744D01*
X111065446Y-68775982D01*
X111017827Y-68918839D01*
X110922589Y-69014077D01*
X110827351Y-69061696D01*
X110636875Y-69109315D01*
X110494018Y-69109315D01*
X110303542Y-69061696D01*
X110208304Y-69014077D01*
X110113066Y-68918839D01*
X110065446Y-68775982D01*
X110065446Y-68680744D01*
X110113066Y-68537887D01*
X110160685Y-68490268D01*
X111065446Y-68061696D02*
X110065446Y-68061696D01*
X111065446Y-67490268D02*
X110494018Y-67918839D01*
X110065446Y-67490268D02*
X110636875Y-68061696D01*
X118590208Y-68442649D02*
X118637827Y-68490268D01*
X118685446Y-68633125D01*
X118685446Y-68728363D01*
X118637827Y-68871220D01*
X118542589Y-68966458D01*
X118447351Y-69014077D01*
X118256875Y-69061696D01*
X118114018Y-69061696D01*
X117923542Y-69014077D01*
X117828304Y-68966458D01*
X117733066Y-68871220D01*
X117685446Y-68728363D01*
X117685446Y-68633125D01*
X117733066Y-68490268D01*
X117780685Y-68442649D01*
X118637827Y-68061696D02*
X118685446Y-67918839D01*
X118685446Y-67680744D01*
X118637827Y-67585506D01*
X118590208Y-67537887D01*
X118494970Y-67490268D01*
X118399732Y-67490268D01*
X118304494Y-67537887D01*
X118256875Y-67585506D01*
X118209256Y-67680744D01*
X118161637Y-67871220D01*
X118114018Y-67966458D01*
X118066399Y-68014077D01*
X117971161Y-68061696D01*
X117875923Y-68061696D01*
X117780685Y-68014077D01*
X117733066Y-67966458D01*
X117685446Y-67871220D01*
X117685446Y-67633125D01*
X117733066Y-67490268D01*
X115193066Y-69585506D02*
X115145446Y-69680744D01*
X115145446Y-69823601D01*
X115193066Y-69966458D01*
X115288304Y-70061696D01*
X115383542Y-70109315D01*
X115574018Y-70156934D01*
X115716875Y-70156934D01*
X115907351Y-70109315D01*
X116002589Y-70061696D01*
X116097827Y-69966458D01*
X116145446Y-69823601D01*
X116145446Y-69728363D01*
X116097827Y-69585506D01*
X116050208Y-69537887D01*
X115716875Y-69537887D01*
X115716875Y-69728363D01*
X116145446Y-69109315D02*
X115145446Y-69109315D01*
X116145446Y-68537887D01*
X115145446Y-68537887D01*
X116145446Y-68061696D02*
X115145446Y-68061696D01*
X115145446Y-67823601D01*
X115193066Y-67680744D01*
X115288304Y-67585506D01*
X115383542Y-67537887D01*
X115574018Y-67490268D01*
X115716875Y-67490268D01*
X115907351Y-67537887D01*
X116002589Y-67585506D01*
X116097827Y-67680744D01*
X116145446Y-67823601D01*
X116145446Y-68061696D01*
D14*
%TO.C,RSW1*%
X79311865Y-13167504D02*
X79311865Y-17067504D01*
X71591865Y-13167504D02*
X71591865Y-17067504D01*
X72111865Y-16837504D02*
X72111865Y-17067504D01*
X78791865Y-16837504D02*
X78791865Y-17067504D01*
X71591865Y-13167504D02*
X79311865Y-13167504D01*
X72111865Y-16837504D02*
X72651865Y-16837504D01*
X73751865Y-16837504D02*
X77151865Y-16837504D01*
X78251865Y-16837504D02*
X78791865Y-16837504D01*
D10*
%TO.C,SW2*%
X29626865Y-48305002D02*
X28626865Y-48305002D01*
X24626865Y-48005002D02*
X24626865Y-49005002D01*
X16626865Y-48305002D02*
X15626865Y-48305002D01*
X24126865Y-49505002D02*
X24626865Y-49005002D01*
X15626865Y-35305002D02*
X15626865Y-34305002D01*
X29626865Y-47505002D02*
X25126865Y-47505002D01*
X20626865Y-45505002D02*
X21126865Y-45005002D01*
X20626865Y-49005002D02*
X21126865Y-49505002D01*
X21126865Y-49505002D02*
X24126865Y-49505002D01*
X29626865Y-34305002D02*
X29626865Y-35305002D01*
X25126865Y-42805002D02*
X29626865Y-42805002D01*
X29626865Y-46905002D02*
X29626865Y-47505002D01*
X28626865Y-34305002D02*
X29626865Y-34305002D01*
X25126865Y-43505002D02*
X25126865Y-42805002D01*
X21126865Y-45005002D02*
X23626865Y-45005002D01*
X29626865Y-42805002D02*
X29626865Y-43305002D01*
X29626865Y-47305002D02*
X29626865Y-48305002D01*
X15626865Y-48305002D02*
X15626865Y-47305002D01*
X15626865Y-34305002D02*
X16626865Y-34305002D01*
X25126865Y-47505002D02*
G75*
G03*
X24626865Y-48005002I1J-500001D01*
G01*
X23626865Y-45005002D02*
G75*
G03*
X25126865Y-43505002I-1J1500001D01*
G01*
%TO.C,SW3*%
X47626867Y-35305002D02*
X47626867Y-36305002D01*
X47626867Y-22305002D02*
X47626867Y-23305002D01*
X33626867Y-36305002D02*
X33626867Y-35305002D01*
X42626867Y-36005002D02*
X42626867Y-37005002D01*
X33626867Y-22305002D02*
X34626867Y-22305002D01*
X46626867Y-22305002D02*
X47626867Y-22305002D01*
X47626867Y-30805002D02*
X47626867Y-31305002D01*
X47626867Y-34905002D02*
X47626867Y-35505002D01*
X34626867Y-36305002D02*
X33626867Y-36305002D01*
X43126867Y-30805002D02*
X47626867Y-30805002D01*
X39126867Y-37505002D02*
X42126867Y-37505002D01*
X47626867Y-35505002D02*
X43126867Y-35505002D01*
X38626867Y-33505002D02*
X39126867Y-33005002D01*
X43126867Y-31505002D02*
X43126867Y-30805002D01*
X47626867Y-36305002D02*
X46626867Y-36305002D01*
X39126867Y-33005002D02*
X41626867Y-33005002D01*
X38626867Y-37005002D02*
X39126867Y-37505002D01*
X33626867Y-23305002D02*
X33626867Y-22305002D01*
X42126867Y-37505002D02*
X42626867Y-37005002D01*
X43126867Y-35505002D02*
G75*
G03*
X42626867Y-36005002I1J-500001D01*
G01*
X41626867Y-33005002D02*
G75*
G03*
X43126867Y-31505002I-1J1500001D01*
G01*
%TO.C,SW4*%
X65626864Y-15305002D02*
X65626864Y-16305002D01*
X52626864Y-29305002D02*
X51626864Y-29305002D01*
X56626864Y-26505002D02*
X57126864Y-26005002D01*
X61126864Y-24505002D02*
X61126864Y-23805002D01*
X61126864Y-23805002D02*
X65626864Y-23805002D01*
X65626864Y-29305002D02*
X64626864Y-29305002D01*
X51626864Y-15305002D02*
X52626864Y-15305002D01*
X65626864Y-23805002D02*
X65626864Y-24305002D01*
X65626864Y-28305002D02*
X65626864Y-29305002D01*
X65626864Y-27905002D02*
X65626864Y-28505002D01*
X60126864Y-30505002D02*
X60626864Y-30005002D01*
X64626864Y-15305002D02*
X65626864Y-15305002D01*
X57126864Y-30505002D02*
X60126864Y-30505002D01*
X51626864Y-29305002D02*
X51626864Y-28305002D01*
X51626864Y-16305002D02*
X51626864Y-15305002D01*
X60626864Y-29005002D02*
X60626864Y-30005002D01*
X56626864Y-30005002D02*
X57126864Y-30505002D01*
X65626864Y-28505002D02*
X61126864Y-28505002D01*
X57126864Y-26005002D02*
X59626864Y-26005002D01*
X59626864Y-26005002D02*
G75*
G03*
X61126864Y-24505002I-1J1500001D01*
G01*
X61126864Y-28505002D02*
G75*
G03*
X60626864Y-29005002I1J-500001D01*
G01*
%TO.C,SW5*%
X75126865Y-36005003D02*
X78126865Y-36005003D01*
X83626865Y-34005003D02*
X79126865Y-34005003D01*
X69626865Y-21805003D02*
X69626865Y-20805003D01*
X79126865Y-30005003D02*
X79126865Y-29305003D01*
X69626865Y-20805003D02*
X70626865Y-20805003D01*
X69626865Y-34805003D02*
X69626865Y-33805003D01*
X83626865Y-29305003D02*
X83626865Y-29805003D01*
X70626865Y-34805003D02*
X69626865Y-34805003D01*
X74626865Y-35505003D02*
X75126865Y-36005003D01*
X83626865Y-34805003D02*
X82626865Y-34805003D01*
X83626865Y-33405003D02*
X83626865Y-34005003D01*
X78126865Y-36005003D02*
X78626865Y-35505003D01*
X83626865Y-20805003D02*
X83626865Y-21805003D01*
X75126865Y-31505003D02*
X77626865Y-31505003D01*
X74626865Y-32005003D02*
X75126865Y-31505003D01*
X82626865Y-20805003D02*
X83626865Y-20805003D01*
X79126865Y-29305003D02*
X83626865Y-29305003D01*
X83626865Y-33805003D02*
X83626865Y-34805003D01*
X78626865Y-34505003D02*
X78626865Y-35505003D01*
X77626865Y-31505003D02*
G75*
G03*
X79126865Y-30005003I-1J1500001D01*
G01*
X79126865Y-34005003D02*
G75*
G03*
X78626865Y-34505003I1J-500001D01*
G01*
%TO.C,SW6*%
X97126863Y-31805002D02*
X101626863Y-31805002D01*
X92626863Y-34505002D02*
X93126863Y-34005002D01*
X87626863Y-24305002D02*
X87626863Y-23305002D01*
X92626863Y-38005002D02*
X93126863Y-38505002D01*
X100626863Y-23305002D02*
X101626863Y-23305002D01*
X101626863Y-36305002D02*
X101626863Y-37305002D01*
X101626863Y-37305002D02*
X100626863Y-37305002D01*
X93126863Y-34005002D02*
X95626863Y-34005002D01*
X96126863Y-38505002D02*
X96626863Y-38005002D01*
X87626863Y-23305002D02*
X88626863Y-23305002D01*
X87626863Y-37305002D02*
X87626863Y-36305002D01*
X101626863Y-36505002D02*
X97126863Y-36505002D01*
X97126863Y-32505002D02*
X97126863Y-31805002D01*
X88626863Y-37305002D02*
X87626863Y-37305002D01*
X93126863Y-38505002D02*
X96126863Y-38505002D01*
X101626863Y-35905002D02*
X101626863Y-36505002D01*
X101626863Y-23305002D02*
X101626863Y-24305002D01*
X96626863Y-37005002D02*
X96626863Y-38005002D01*
X101626863Y-31805002D02*
X101626863Y-32305002D01*
X95626863Y-34005002D02*
G75*
G03*
X97126863Y-32505002I-1J1500001D01*
G01*
X97126863Y-36505002D02*
G75*
G03*
X96626863Y-37005002I1J-500001D01*
G01*
%TO.C,SW8*%
X29626865Y-63905002D02*
X29626865Y-64505002D01*
X16626865Y-65305002D02*
X15626865Y-65305002D01*
X21126865Y-62005002D02*
X23626865Y-62005002D01*
X25126865Y-60505002D02*
X25126865Y-59805002D01*
X21126865Y-66505002D02*
X24126865Y-66505002D01*
X25126865Y-59805002D02*
X29626865Y-59805002D01*
X29626865Y-64505002D02*
X25126865Y-64505002D01*
X29626865Y-64305002D02*
X29626865Y-65305002D01*
X24626865Y-65005002D02*
X24626865Y-66005002D01*
X29626865Y-65305002D02*
X28626865Y-65305002D01*
X15626865Y-65305002D02*
X15626865Y-64305002D01*
X29626865Y-51305002D02*
X29626865Y-52305002D01*
X15626865Y-52305002D02*
X15626865Y-51305002D01*
X20626865Y-66005002D02*
X21126865Y-66505002D01*
X24126865Y-66505002D02*
X24626865Y-66005002D01*
X29626865Y-59805002D02*
X29626865Y-60305002D01*
X15626865Y-51305002D02*
X16626865Y-51305002D01*
X20626865Y-62505002D02*
X21126865Y-62005002D01*
X28626865Y-51305002D02*
X29626865Y-51305002D01*
X25126865Y-64505002D02*
G75*
G03*
X24626865Y-65005002I1J-500001D01*
G01*
X23626865Y-62005002D02*
G75*
G03*
X25126865Y-60505002I-1J1500001D01*
G01*
%TO.C,SW9*%
X39126867Y-49979002D02*
X41626867Y-49979002D01*
X38626867Y-50479002D02*
X39126867Y-49979002D01*
X47626867Y-51879002D02*
X47626867Y-52479002D01*
X33626867Y-39279002D02*
X34626867Y-39279002D01*
X47626867Y-53279002D02*
X46626867Y-53279002D01*
X39126867Y-54479002D02*
X42126867Y-54479002D01*
X43126867Y-48479002D02*
X43126867Y-47779002D01*
X47626867Y-47779002D02*
X47626867Y-48279002D01*
X46626867Y-39279002D02*
X47626867Y-39279002D01*
X42626867Y-52979002D02*
X42626867Y-53979002D01*
X34626867Y-53279002D02*
X33626867Y-53279002D01*
X43126867Y-47779002D02*
X47626867Y-47779002D01*
X38626867Y-53979002D02*
X39126867Y-54479002D01*
X33626867Y-40279002D02*
X33626867Y-39279002D01*
X47626867Y-39279002D02*
X47626867Y-40279002D01*
X47626867Y-52279002D02*
X47626867Y-53279002D01*
X47626867Y-52479002D02*
X43126867Y-52479002D01*
X42126867Y-54479002D02*
X42626867Y-53979002D01*
X33626867Y-53279002D02*
X33626867Y-52279002D01*
X43126867Y-52479002D02*
G75*
G03*
X42626867Y-52979002I1J-500001D01*
G01*
X41626867Y-49979002D02*
G75*
G03*
X43126867Y-48479002I-1J1500001D01*
G01*
%TO.C,SW10*%
X60626866Y-46121002D02*
X60626866Y-47121002D01*
X51626866Y-46421002D02*
X51626866Y-45421002D01*
X56626866Y-47121002D02*
X57126866Y-47621002D01*
X65626866Y-32421002D02*
X65626866Y-33421002D01*
X61126866Y-41621002D02*
X61126866Y-40921002D01*
X56626866Y-43621002D02*
X57126866Y-43121002D01*
X52626866Y-46421002D02*
X51626866Y-46421002D01*
X57126866Y-47621002D02*
X60126866Y-47621002D01*
X65626866Y-46421002D02*
X64626866Y-46421002D01*
X60126866Y-47621002D02*
X60626866Y-47121002D01*
X64626866Y-32421002D02*
X65626866Y-32421002D01*
X61126866Y-40921002D02*
X65626866Y-40921002D01*
X65626866Y-45021002D02*
X65626866Y-45621002D01*
X51626866Y-33421002D02*
X51626866Y-32421002D01*
X57126866Y-43121002D02*
X59626866Y-43121002D01*
X65626866Y-45421002D02*
X65626866Y-46421002D01*
X65626866Y-45621002D02*
X61126866Y-45621002D01*
X65626866Y-40921002D02*
X65626866Y-41421002D01*
X51626866Y-32421002D02*
X52626866Y-32421002D01*
X59626866Y-43121002D02*
G75*
G03*
X61126866Y-41621002I-1J1500001D01*
G01*
X61126866Y-45621002D02*
G75*
G03*
X60626866Y-46121002I1J-500001D01*
G01*
%TO.C,SW11*%
X79126867Y-46255005D02*
X83626867Y-46255005D01*
X74626867Y-48955005D02*
X75126867Y-48455005D01*
X83626867Y-37755005D02*
X83626867Y-38755005D01*
X70626867Y-51755005D02*
X69626867Y-51755005D01*
X82626867Y-37755005D02*
X83626867Y-37755005D01*
X69626867Y-37755005D02*
X70626867Y-37755005D01*
X74626867Y-52455005D02*
X75126867Y-52955005D01*
X75126867Y-52955005D02*
X78126867Y-52955005D01*
X69626867Y-51755005D02*
X69626867Y-50755005D01*
X83626867Y-50355005D02*
X83626867Y-50955005D01*
X79126867Y-46955005D02*
X79126867Y-46255005D01*
X83626867Y-50955005D02*
X79126867Y-50955005D01*
X75126867Y-48455005D02*
X77626867Y-48455005D01*
X69626867Y-38755005D02*
X69626867Y-37755005D01*
X83626867Y-46255005D02*
X83626867Y-46755005D01*
X83626867Y-50755005D02*
X83626867Y-51755005D01*
X83626867Y-51755005D02*
X82626867Y-51755005D01*
X78626867Y-51455005D02*
X78626867Y-52455005D01*
X78126867Y-52955005D02*
X78626867Y-52455005D01*
X79126867Y-50955005D02*
G75*
G03*
X78626867Y-51455005I1J-500001D01*
G01*
X77626867Y-48455005D02*
G75*
G03*
X79126867Y-46955005I-1J1500001D01*
G01*
%TO.C,SW12*%
X87606865Y-54295002D02*
X87606865Y-53295002D01*
X87606865Y-41295002D02*
X87606865Y-40295002D01*
X101606865Y-53295002D02*
X101606865Y-54295002D01*
X101606865Y-54295002D02*
X100606865Y-54295002D01*
X92606865Y-54995002D02*
X93106865Y-55495002D01*
X101606865Y-53495002D02*
X97106865Y-53495002D01*
X93106865Y-50995002D02*
X95606865Y-50995002D01*
X93106865Y-55495002D02*
X96106865Y-55495002D01*
X101606865Y-40295002D02*
X101606865Y-41295002D01*
X97106865Y-49495002D02*
X97106865Y-48795002D01*
X96606865Y-53995002D02*
X96606865Y-54995002D01*
X88606865Y-54295002D02*
X87606865Y-54295002D01*
X101606865Y-52895002D02*
X101606865Y-53495002D01*
X92606865Y-51495002D02*
X93106865Y-50995002D01*
X97106865Y-48795002D02*
X101606865Y-48795002D01*
X96106865Y-55495002D02*
X96606865Y-54995002D01*
X87606865Y-40295002D02*
X88606865Y-40295002D01*
X101606865Y-48795002D02*
X101606865Y-49295002D01*
X100606865Y-40295002D02*
X101606865Y-40295002D01*
X97106865Y-53495002D02*
G75*
G03*
X96606865Y-53995002I1J-500001D01*
G01*
X95606865Y-50995002D02*
G75*
G03*
X97106865Y-49495002I-1J1500001D01*
G01*
%TO.C,SW14*%
X21126865Y-79004999D02*
X23626865Y-79004999D01*
X15626865Y-68304999D02*
X16626865Y-68304999D01*
X24626865Y-82004999D02*
X24626865Y-83004999D01*
X21126865Y-83504999D02*
X24126865Y-83504999D01*
X15626865Y-82304999D02*
X15626865Y-81304999D01*
X29626865Y-68304999D02*
X29626865Y-69304999D01*
X15626865Y-69304999D02*
X15626865Y-68304999D01*
X28626865Y-68304999D02*
X29626865Y-68304999D01*
X29626865Y-81504999D02*
X25126865Y-81504999D01*
X25126865Y-76804999D02*
X29626865Y-76804999D01*
X29626865Y-76804999D02*
X29626865Y-77304999D01*
X29626865Y-80904999D02*
X29626865Y-81504999D01*
X24126865Y-83504999D02*
X24626865Y-83004999D01*
X20626865Y-79504999D02*
X21126865Y-79004999D01*
X25126865Y-77504999D02*
X25126865Y-76804999D01*
X29626865Y-81304999D02*
X29626865Y-82304999D01*
X20626865Y-83004999D02*
X21126865Y-83504999D01*
X29626865Y-82304999D02*
X28626865Y-82304999D01*
X16626865Y-82304999D02*
X15626865Y-82304999D01*
X23626865Y-79004999D02*
G75*
G03*
X25126865Y-77504999I-1J1500001D01*
G01*
X25126865Y-81504999D02*
G75*
G03*
X24626865Y-82004999I1J-500001D01*
G01*
%TO.C,SW15*%
X47626864Y-68897001D02*
X47626864Y-69497001D01*
X39126864Y-71497001D02*
X42126864Y-71497001D01*
X39126864Y-66997001D02*
X41626864Y-66997001D01*
X38626864Y-70997001D02*
X39126864Y-71497001D01*
X42626864Y-69997001D02*
X42626864Y-70997001D01*
X47626864Y-64797001D02*
X47626864Y-65297001D01*
X47626864Y-69497001D02*
X43126864Y-69497001D01*
X42126864Y-71497001D02*
X42626864Y-70997001D01*
X46626864Y-56297001D02*
X47626864Y-56297001D01*
X43126864Y-65497001D02*
X43126864Y-64797001D01*
X33626864Y-57297001D02*
X33626864Y-56297001D01*
X43126864Y-64797001D02*
X47626864Y-64797001D01*
X38626864Y-67497001D02*
X39126864Y-66997001D01*
X47626864Y-70297001D02*
X46626864Y-70297001D01*
X47626864Y-69297001D02*
X47626864Y-70297001D01*
X33626864Y-56297001D02*
X34626864Y-56297001D01*
X33626864Y-70297001D02*
X33626864Y-69297001D01*
X34626864Y-70297001D02*
X33626864Y-70297001D01*
X47626864Y-56297001D02*
X47626864Y-57297001D01*
X41626864Y-66997001D02*
G75*
G03*
X43126864Y-65497001I-1J1500001D01*
G01*
X43126864Y-69497001D02*
G75*
G03*
X42626864Y-69997001I1J-500001D01*
G01*
%TO.C,SW16*%
X65626863Y-63439003D02*
X64626863Y-63439003D01*
X65626863Y-62639003D02*
X61126863Y-62639003D01*
X60126863Y-64639003D02*
X60626863Y-64139003D01*
X56626863Y-60639003D02*
X57126863Y-60139003D01*
X57126863Y-64639003D02*
X60126863Y-64639003D01*
X65626863Y-62039003D02*
X65626863Y-62639003D01*
X64626863Y-49439003D02*
X65626863Y-49439003D01*
X60626863Y-63139003D02*
X60626863Y-64139003D01*
X65626863Y-57939003D02*
X65626863Y-58439003D01*
X65626863Y-49439003D02*
X65626863Y-50439003D01*
X51626863Y-49439003D02*
X52626863Y-49439003D01*
X56626863Y-64139003D02*
X57126863Y-64639003D01*
X61126863Y-58639003D02*
X61126863Y-57939003D01*
X51626863Y-63439003D02*
X51626863Y-62439003D01*
X52626863Y-63439003D02*
X51626863Y-63439003D01*
X61126863Y-57939003D02*
X65626863Y-57939003D01*
X65626863Y-62439003D02*
X65626863Y-63439003D01*
X51626863Y-50439003D02*
X51626863Y-49439003D01*
X57126863Y-60139003D02*
X59626863Y-60139003D01*
X61126863Y-62639003D02*
G75*
G03*
X60626863Y-63139003I1J-500001D01*
G01*
X59626863Y-60139003D02*
G75*
G03*
X61126863Y-58639003I-1J1500001D01*
G01*
%TO.C,SW17*%
X82626865Y-54773005D02*
X83626865Y-54773005D01*
X70626865Y-68773005D02*
X69626865Y-68773005D01*
X78126865Y-69973005D02*
X78626865Y-69473005D01*
X69626865Y-54773005D02*
X70626865Y-54773005D01*
X79126865Y-63973005D02*
X79126865Y-63273005D01*
X83626865Y-67973005D02*
X79126865Y-67973005D01*
X74626865Y-69473005D02*
X75126865Y-69973005D01*
X74626865Y-65973005D02*
X75126865Y-65473005D01*
X69626865Y-68773005D02*
X69626865Y-67773005D01*
X75126865Y-65473005D02*
X77626865Y-65473005D01*
X75126865Y-69973005D02*
X78126865Y-69973005D01*
X83626865Y-63273005D02*
X83626865Y-63773005D01*
X83626865Y-54773005D02*
X83626865Y-55773005D01*
X83626865Y-67373005D02*
X83626865Y-67973005D01*
X78626865Y-68473005D02*
X78626865Y-69473005D01*
X83626865Y-67773005D02*
X83626865Y-68773005D01*
X83626865Y-68773005D02*
X82626865Y-68773005D01*
X69626865Y-55773005D02*
X69626865Y-54773005D01*
X79126865Y-63273005D02*
X83626865Y-63273005D01*
X77626865Y-65473005D02*
G75*
G03*
X79126865Y-63973005I-1J1500001D01*
G01*
X79126865Y-67973005D02*
G75*
G03*
X78626865Y-68473005I1J-500001D01*
G01*
%TO.C,SW18*%
X101600519Y-57313002D02*
X101600519Y-58313002D01*
X93100519Y-72513002D02*
X96100519Y-72513002D01*
X101600519Y-70313002D02*
X101600519Y-71313002D01*
X101600519Y-65813002D02*
X101600519Y-66313002D01*
X92600519Y-72013002D02*
X93100519Y-72513002D01*
X87600519Y-58313002D02*
X87600519Y-57313002D01*
X97100519Y-65813002D02*
X101600519Y-65813002D01*
X87600519Y-71313002D02*
X87600519Y-70313002D01*
X87600519Y-57313002D02*
X88600519Y-57313002D01*
X92600519Y-68513002D02*
X93100519Y-68013002D01*
X93100519Y-68013002D02*
X95600519Y-68013002D01*
X101600519Y-71313002D02*
X100600519Y-71313002D01*
X96100519Y-72513002D02*
X96600519Y-72013002D01*
X100600519Y-57313002D02*
X101600519Y-57313002D01*
X97100519Y-66513002D02*
X97100519Y-65813002D01*
X88600519Y-71313002D02*
X87600519Y-71313002D01*
X96600519Y-71013002D02*
X96600519Y-72013002D01*
X101600519Y-70513002D02*
X97100519Y-70513002D01*
X101600519Y-69913002D02*
X101600519Y-70513002D01*
X95600519Y-68013002D02*
G75*
G03*
X97100519Y-66513002I-1J1500001D01*
G01*
X97100519Y-70513002D02*
G75*
G03*
X96600519Y-71013002I1J-500001D01*
G01*
%TO.C,SW20*%
X117135312Y-99101175D02*
X116712694Y-100007482D01*
X117304359Y-98738651D02*
X117050788Y-99282436D01*
X111220859Y-98770651D02*
X111885322Y-98528806D01*
X104930692Y-94513445D02*
X104024385Y-94090827D01*
X109941040Y-81402518D02*
X110847348Y-81825136D01*
X117050788Y-99282436D02*
X112972403Y-97380654D01*
X109518422Y-82308825D02*
X109941040Y-81402518D01*
X121723042Y-86896555D02*
X122629349Y-87319173D01*
X109739255Y-93666256D02*
X110403718Y-93424411D01*
X122629349Y-87319173D02*
X122206731Y-88225481D01*
X116712694Y-100007482D02*
X115806386Y-99584864D01*
X104024385Y-94090827D02*
X104447003Y-93184519D01*
X112307940Y-97622499D02*
X111885322Y-98528806D01*
X119037094Y-95022790D02*
X118825785Y-95475943D01*
X114958709Y-93121007D02*
X119037094Y-95022790D01*
X108260091Y-96838333D02*
X108501936Y-97502796D01*
X110403718Y-93424411D02*
X112669487Y-94480957D01*
X114662876Y-93755423D02*
X114958709Y-93121007D01*
X108501936Y-97502796D02*
X111220859Y-98770651D01*
X112972403Y-97380654D02*
G75*
G03*
X112307940Y-97622499I-211308J-453155D01*
G01*
X112669487Y-94480957D02*
G75*
G03*
X114662876Y-93755423I633927J1359463D01*
G01*
%TO.C,SW21*%
X100238957Y-91225921D02*
X100083666Y-91805476D01*
X99876610Y-92578217D02*
X98910685Y-92319398D01*
X94253436Y-92313823D02*
X94865808Y-91960270D01*
X92520344Y-87190700D02*
X94935158Y-87837748D01*
X87319575Y-89213570D02*
X86353649Y-88954750D01*
X100135430Y-91612291D02*
X99876610Y-92578217D01*
X86353649Y-88954750D02*
X86612468Y-87988825D01*
X91002105Y-90924994D02*
X91355658Y-91537366D01*
X103500077Y-79055256D02*
X103241258Y-80021181D01*
X89718296Y-76397715D02*
X89977116Y-75431789D01*
X95124627Y-90994344D02*
X94865808Y-91960270D01*
X96772276Y-86777087D02*
X96953449Y-86100939D01*
X96953449Y-86100939D02*
X101300115Y-87265625D01*
X101300115Y-87265625D02*
X101170706Y-87748588D01*
X89977116Y-75431789D02*
X90943041Y-75690608D01*
X91355658Y-91537366D02*
X94253436Y-92313823D01*
X100083666Y-91805476D02*
X95736999Y-90640791D01*
X102534151Y-78796436D02*
X103500077Y-79055256D01*
X91907971Y-87544253D02*
X92520344Y-87190700D01*
X94935158Y-87837748D02*
G75*
G03*
X96772276Y-86777087I388228J1448890D01*
G01*
X95736999Y-90640791D02*
G75*
G03*
X95124627Y-90994344I-129408J-482964D01*
G01*
D13*
%TO.C,REF\u002A\u002A*%
X48840732Y-31196955D02*
G75*
G03*
X47806866Y-35347503I19286117J-7008044D01*
G01*
X47806866Y-41062503D02*
G75*
G03*
X48840732Y-45213050I20319953J2857490D01*
G01*
X87413001Y-45213049D02*
G75*
G03*
X88446866Y-41062503I-19286185J7008058D01*
G01*
X70984366Y-58525003D02*
G75*
G03*
X75134913Y-57491137I-2857500J20320000D01*
G01*
X68126866Y-49000004D02*
G75*
G03*
X69255251Y-48940867I0J10794901D01*
G01*
X65269366Y-17885003D02*
G75*
G03*
X61118818Y-18918869I2857496J-20319983D01*
G01*
X75134913Y-18918869D02*
G75*
G03*
X70984366Y-17885003I-7008047J-19286134D01*
G01*
X88446866Y-35347503D02*
G75*
G03*
X87413001Y-31196958I-20320019J-2857506D01*
G01*
X61118820Y-57491138D02*
G75*
G03*
X65269366Y-58525003I7008046J19286135D01*
G01*
X68126866Y-27410003D02*
G75*
G03*
X66998481Y-27469139I-6J-10794921D01*
G01*
X69255251Y-27469140D02*
G75*
G03*
X68126866Y-27410003I-1128385J-10735763D01*
G01*
X66998481Y-48940867D02*
G75*
G03*
X68126866Y-49000003I1128379J10735785D01*
G01*
G36*
X67306891Y-52693401D02*
G01*
X67329594Y-52716264D01*
X67364073Y-52751795D01*
X67408342Y-52797887D01*
X67460409Y-52852433D01*
X67518288Y-52913327D01*
X67579987Y-52978462D01*
X67643520Y-53045732D01*
X67706895Y-53113030D01*
X67768125Y-53178249D01*
X67825221Y-53239284D01*
X67876193Y-53294027D01*
X67919053Y-53340372D01*
X67951811Y-53376212D01*
X67972479Y-53399441D01*
X67974772Y-53402132D01*
X68003073Y-53435767D01*
X67383059Y-53435767D01*
X67209709Y-53259698D01*
X67155967Y-53204955D01*
X67105684Y-53153442D01*
X67061868Y-53108262D01*
X67027522Y-53072516D01*
X67005654Y-53049307D01*
X67002477Y-53045815D01*
X66968595Y-53008000D01*
X67129630Y-52846656D01*
X67179343Y-52797201D01*
X67223567Y-52753876D01*
X67259714Y-52719163D01*
X67285196Y-52695543D01*
X67297425Y-52685495D01*
X67297956Y-52685312D01*
X67306891Y-52693401D01*
G37*
D15*
X67306891Y-52693401D02*
X67329594Y-52716264D01*
X67364073Y-52751795D01*
X67408342Y-52797887D01*
X67460409Y-52852433D01*
X67518288Y-52913327D01*
X67579987Y-52978462D01*
X67643520Y-53045732D01*
X67706895Y-53113030D01*
X67768125Y-53178249D01*
X67825221Y-53239284D01*
X67876193Y-53294027D01*
X67919053Y-53340372D01*
X67951811Y-53376212D01*
X67972479Y-53399441D01*
X67974772Y-53402132D01*
X68003073Y-53435767D01*
X67383059Y-53435767D01*
X67209709Y-53259698D01*
X67155967Y-53204955D01*
X67105684Y-53153442D01*
X67061868Y-53108262D01*
X67027522Y-53072516D01*
X67005654Y-53049307D01*
X67002477Y-53045815D01*
X66968595Y-53008000D01*
X67129630Y-52846656D01*
X67179343Y-52797201D01*
X67223567Y-52753876D01*
X67259714Y-52719163D01*
X67285196Y-52695543D01*
X67297425Y-52685495D01*
X67297956Y-52685312D01*
X67306891Y-52693401D01*
G36*
X66500111Y-52286870D02*
G01*
X67303057Y-51484170D01*
X67591425Y-51487264D01*
X67879793Y-51490357D01*
X67032569Y-52350494D01*
X66914644Y-52470217D01*
X66799845Y-52586766D01*
X66689391Y-52698906D01*
X66584499Y-52805399D01*
X66486387Y-52905010D01*
X66396272Y-52996503D01*
X66315373Y-53078640D01*
X66244906Y-53150185D01*
X66186090Y-53209903D01*
X66140143Y-53256557D01*
X66108282Y-53288910D01*
X66094501Y-53302906D01*
X66003657Y-53395182D01*
X66003657Y-50653312D01*
X66500111Y-50653312D01*
X66500111Y-52286870D01*
G37*
X66500111Y-52286870D02*
X67303057Y-51484170D01*
X67591425Y-51487264D01*
X67879793Y-51490357D01*
X67032569Y-52350494D01*
X66914644Y-52470217D01*
X66799845Y-52586766D01*
X66689391Y-52698906D01*
X66584499Y-52805399D01*
X66486387Y-52905010D01*
X66396272Y-52996503D01*
X66315373Y-53078640D01*
X66244906Y-53150185D01*
X66186090Y-53209903D01*
X66140143Y-53256557D01*
X66108282Y-53288910D01*
X66094501Y-53302906D01*
X66003657Y-53395182D01*
X66003657Y-50653312D01*
X66500111Y-50653312D01*
X66500111Y-52286870D01*
G36*
X68200755Y-52389592D02*
G01*
X68199352Y-52282963D01*
X68198308Y-52160307D01*
X68197644Y-52023035D01*
X68197383Y-51872561D01*
X68197380Y-51860825D01*
X68197293Y-51169111D01*
X68704997Y-50659085D01*
X68705145Y-51152653D01*
X68705337Y-51256893D01*
X68705826Y-51353638D01*
X68706576Y-51440524D01*
X68707552Y-51515186D01*
X68708721Y-51575261D01*
X68710048Y-51618384D01*
X68711497Y-51642191D01*
X68712405Y-51646221D01*
X68724836Y-51639907D01*
X68749682Y-51623564D01*
X68773816Y-51606362D01*
X68888513Y-51535640D01*
X69010729Y-51486536D01*
X69141112Y-51458860D01*
X69280313Y-51452422D01*
X69298125Y-51453090D01*
X69387760Y-51459642D01*
X69464243Y-51471579D01*
X69535895Y-51491071D01*
X69611033Y-51520288D01*
X69680884Y-51552927D01*
X69808817Y-51628220D01*
X69921737Y-51720200D01*
X70018631Y-51827189D01*
X70098489Y-51947514D01*
X70160299Y-52079499D01*
X70203051Y-52221468D01*
X70225732Y-52371747D01*
X70229293Y-52461417D01*
X70219002Y-52613895D01*
X70187646Y-52758459D01*
X70134501Y-52897695D01*
X70077246Y-53004614D01*
X69991534Y-53124907D01*
X69889921Y-53229756D01*
X69774588Y-53318078D01*
X69647713Y-53388792D01*
X69511477Y-53440815D01*
X69368058Y-53473068D01*
X69219637Y-53484467D01*
X69119391Y-53479984D01*
X68974783Y-53455103D01*
X68834215Y-53408828D01*
X68701042Y-53342849D01*
X68578622Y-53258852D01*
X68470310Y-53158526D01*
X68461916Y-53149360D01*
X68380785Y-53045240D01*
X68311093Y-52927058D01*
X68255927Y-52801195D01*
X68218374Y-52674035D01*
X68209505Y-52627585D01*
X68206892Y-52599190D01*
X68204547Y-52549118D01*
X68203078Y-52498784D01*
X68699416Y-52498784D01*
X68709988Y-52596333D01*
X68740420Y-52690352D01*
X68769074Y-52744497D01*
X68836008Y-52832780D01*
X68915489Y-52903657D01*
X69004921Y-52956150D01*
X69101707Y-52989282D01*
X69203248Y-53002076D01*
X69306949Y-52993555D01*
X69379776Y-52974267D01*
X69422773Y-52958181D01*
X69463678Y-52940821D01*
X69479845Y-52933045D01*
X69525131Y-52902041D01*
X69574454Y-52855847D01*
X69622511Y-52800391D01*
X69663996Y-52741597D01*
X69685484Y-52703270D01*
X69705665Y-52659024D01*
X69718310Y-52620416D01*
X69725667Y-52578124D01*
X69729985Y-52522821D01*
X69730267Y-52517531D01*
X69726899Y-52410286D01*
X69704043Y-52312394D01*
X69660391Y-52218971D01*
X69642621Y-52190442D01*
X69578079Y-52112538D01*
X69499262Y-52050368D01*
X69409626Y-52004872D01*
X69312627Y-51976994D01*
X69211723Y-51967674D01*
X69110371Y-51977856D01*
X69012025Y-52008481D01*
X68998022Y-52014767D01*
X68910070Y-52067716D01*
X68836080Y-52135930D01*
X68777037Y-52216276D01*
X68733924Y-52305623D01*
X68707722Y-52400836D01*
X68699416Y-52498784D01*
X68203078Y-52498784D01*
X68202494Y-52478781D01*
X68200755Y-52389592D01*
G37*
X68200755Y-52389592D02*
X68199352Y-52282963D01*
X68198308Y-52160307D01*
X68197644Y-52023035D01*
X68197383Y-51872561D01*
X68197380Y-51860825D01*
X68197293Y-51169111D01*
X68704997Y-50659085D01*
X68705145Y-51152653D01*
X68705337Y-51256893D01*
X68705826Y-51353638D01*
X68706576Y-51440524D01*
X68707552Y-51515186D01*
X68708721Y-51575261D01*
X68710048Y-51618384D01*
X68711497Y-51642191D01*
X68712405Y-51646221D01*
X68724836Y-51639907D01*
X68749682Y-51623564D01*
X68773816Y-51606362D01*
X68888513Y-51535640D01*
X69010729Y-51486536D01*
X69141112Y-51458860D01*
X69280313Y-51452422D01*
X69298125Y-51453090D01*
X69387760Y-51459642D01*
X69464243Y-51471579D01*
X69535895Y-51491071D01*
X69611033Y-51520288D01*
X69680884Y-51552927D01*
X69808817Y-51628220D01*
X69921737Y-51720200D01*
X70018631Y-51827189D01*
X70098489Y-51947514D01*
X70160299Y-52079499D01*
X70203051Y-52221468D01*
X70225732Y-52371747D01*
X70229293Y-52461417D01*
X70219002Y-52613895D01*
X70187646Y-52758459D01*
X70134501Y-52897695D01*
X70077246Y-53004614D01*
X69991534Y-53124907D01*
X69889921Y-53229756D01*
X69774588Y-53318078D01*
X69647713Y-53388792D01*
X69511477Y-53440815D01*
X69368058Y-53473068D01*
X69219637Y-53484467D01*
X69119391Y-53479984D01*
X68974783Y-53455103D01*
X68834215Y-53408828D01*
X68701042Y-53342849D01*
X68578622Y-53258852D01*
X68470310Y-53158526D01*
X68461916Y-53149360D01*
X68380785Y-53045240D01*
X68311093Y-52927058D01*
X68255927Y-52801195D01*
X68218374Y-52674035D01*
X68209505Y-52627585D01*
X68206892Y-52599190D01*
X68204547Y-52549118D01*
X68203078Y-52498784D01*
X68699416Y-52498784D01*
X68709988Y-52596333D01*
X68740420Y-52690352D01*
X68769074Y-52744497D01*
X68836008Y-52832780D01*
X68915489Y-52903657D01*
X69004921Y-52956150D01*
X69101707Y-52989282D01*
X69203248Y-53002076D01*
X69306949Y-52993555D01*
X69379776Y-52974267D01*
X69422773Y-52958181D01*
X69463678Y-52940821D01*
X69479845Y-52933045D01*
X69525131Y-52902041D01*
X69574454Y-52855847D01*
X69622511Y-52800391D01*
X69663996Y-52741597D01*
X69685484Y-52703270D01*
X69705665Y-52659024D01*
X69718310Y-52620416D01*
X69725667Y-52578124D01*
X69729985Y-52522821D01*
X69730267Y-52517531D01*
X69726899Y-52410286D01*
X69704043Y-52312394D01*
X69660391Y-52218971D01*
X69642621Y-52190442D01*
X69578079Y-52112538D01*
X69499262Y-52050368D01*
X69409626Y-52004872D01*
X69312627Y-51976994D01*
X69211723Y-51967674D01*
X69110371Y-51977856D01*
X69012025Y-52008481D01*
X68998022Y-52014767D01*
X68910070Y-52067716D01*
X68836080Y-52135930D01*
X68777037Y-52216276D01*
X68733924Y-52305623D01*
X68707722Y-52400836D01*
X68699416Y-52498784D01*
X68203078Y-52498784D01*
X68202494Y-52478781D01*
X68200755Y-52389592D01*
D16*
%TO.C,U1*%
X122266864Y-26161752D02*
X104486864Y-26161752D01*
X104486864Y-59181752D02*
X122266864Y-59181752D01*
X104486864Y-26161752D02*
X104486864Y-59181752D01*
X122266864Y-59181752D02*
X122266864Y-26161752D01*
D17*
%TO.C,REF\u002A\u002A*%
X25254568Y-26146627D02*
X25047444Y-26126307D01*
X25043006Y-26677475D02*
X25247052Y-26717339D01*
X22752202Y-26129824D02*
X22544328Y-26149694D01*
X25951605Y-26611852D02*
X25812901Y-26443807D01*
X22550361Y-26720302D02*
X22752203Y-26681144D01*
X24087953Y-30465461D02*
X24001046Y-30521976D01*
X24541215Y-27031947D02*
X24630962Y-26875595D01*
X24657627Y-30584866D02*
X24702395Y-30433394D01*
X24001046Y-30521976D02*
X23900275Y-30540814D01*
X24087953Y-30465461D02*
X24087953Y-30465461D01*
X24274791Y-27981918D02*
X24657485Y-28364612D01*
X23083818Y-30277226D02*
X23098741Y-30433394D01*
X22216264Y-27216519D02*
X22256833Y-27011273D01*
X25812901Y-26443807D02*
X25643520Y-26305377D01*
X24279871Y-26438727D02*
X24203107Y-26523394D01*
X24583015Y-30726945D02*
X24657627Y-30584866D01*
X23322578Y-30854934D02*
X23450592Y-30959392D01*
X23592735Y-31034004D02*
X23744296Y-31078772D01*
X23654495Y-30177806D02*
X23712597Y-30090105D01*
X23712597Y-30090105D02*
X23899992Y-29902710D01*
X24087388Y-30090105D02*
X24145821Y-30177726D01*
X25427392Y-26837213D02*
X25543738Y-27010921D01*
X23654535Y-27495293D02*
X23626242Y-27207497D01*
X23635127Y-30277783D02*
X23654495Y-30177806D01*
X26135199Y-27216531D02*
X26114288Y-27002766D01*
X21746928Y-27632867D02*
X21846728Y-27819530D01*
X24478558Y-29699518D02*
X24290033Y-29512123D01*
X22751921Y-27974003D02*
X22373179Y-27595261D01*
X24657485Y-28364612D02*
X23899993Y-29122083D01*
X23654495Y-30377761D02*
X23635127Y-30277783D01*
X24668215Y-26831004D02*
X24669344Y-26829875D01*
X23143508Y-29969587D02*
X23098741Y-30121059D01*
X22373179Y-27595261D02*
X22256833Y-27421553D01*
X22544328Y-26149694D02*
X22342698Y-26209304D01*
X22256833Y-27011273D02*
X22373179Y-26837777D01*
X25455334Y-26206317D02*
X25254568Y-26146627D01*
X21685650Y-27430223D02*
X21746928Y-27632867D01*
X24509042Y-27210311D02*
X24541215Y-27031947D01*
X26114350Y-27430155D02*
X26135199Y-27216531D01*
X24350306Y-30959392D02*
X24478558Y-30854934D01*
X24056760Y-31078772D02*
X24208190Y-31034004D01*
X24840189Y-26145357D02*
X24639025Y-26203777D01*
X23098741Y-30433394D02*
X23143508Y-30584866D01*
X23626242Y-27207497D02*
X23631887Y-27094044D01*
X24669344Y-26829875D02*
X24844110Y-26715787D01*
X23218120Y-30726945D02*
X23322578Y-30854934D01*
X25953272Y-27819303D02*
X26053073Y-27632667D01*
X25816853Y-27985303D02*
X25953272Y-27819303D01*
X25543733Y-27421060D02*
X25427393Y-27595263D01*
X23899992Y-29902710D02*
X24087388Y-30090105D01*
X24583015Y-29827508D02*
X24478558Y-29699518D01*
X24630962Y-26875595D02*
X24668215Y-26831004D01*
X23900275Y-30540814D02*
X23799504Y-30521976D01*
X24165357Y-30277571D02*
X24146050Y-30377522D01*
X23739131Y-27767425D02*
X23654535Y-27495293D01*
X26114288Y-27002766D02*
X26052578Y-26799689D01*
X26053073Y-27632667D02*
X26114350Y-27430155D01*
X24639025Y-26203777D02*
X24450178Y-26301567D01*
X25584307Y-27215955D02*
X25543733Y-27421060D01*
X25048081Y-28754075D02*
X25426823Y-29132817D01*
X23744296Y-31078772D02*
X23900568Y-31093694D01*
X23098741Y-30121059D02*
X23083818Y-30277226D01*
X25426823Y-29132817D02*
X25816853Y-28742787D01*
X24203107Y-26523394D02*
X24097732Y-26676349D01*
X25543738Y-27010921D02*
X25584307Y-27215955D01*
X22752203Y-26681144D02*
X22954045Y-26720302D01*
X23322578Y-29699518D02*
X23218120Y-29827508D01*
X25048651Y-27974005D02*
X24665957Y-27591311D01*
X24290033Y-29512123D02*
X25048081Y-28754075D01*
X22153556Y-26308655D02*
X21983147Y-26447747D01*
X21983147Y-27985291D02*
X23509973Y-29512123D01*
X21685650Y-27002895D02*
X21664801Y-27216519D01*
X26052578Y-26799689D02*
X25951605Y-26611852D01*
X25047444Y-26126307D02*
X24840189Y-26145357D01*
X23450592Y-30959392D02*
X23592735Y-31034004D01*
X24097732Y-26676349D02*
X24020509Y-26843645D01*
X23899993Y-29122083D02*
X23899993Y-29122083D01*
X24145821Y-30177726D02*
X24165357Y-30277571D01*
X25427393Y-27595263D02*
X25048651Y-27974005D01*
X25427393Y-27595263D02*
X25427393Y-27595263D01*
X24450178Y-26301567D02*
X24279871Y-26438727D01*
X23521257Y-26447747D02*
X23350848Y-26308655D01*
X23712597Y-30465461D02*
X23654495Y-30377761D01*
X23218120Y-29827508D02*
X23143508Y-29969587D01*
X23350848Y-26308655D02*
X23161706Y-26209304D01*
X24020509Y-26843645D02*
X23972919Y-27022265D01*
X22960076Y-26149694D02*
X22752202Y-26129824D01*
X23142513Y-28364043D02*
X23739131Y-27767425D01*
X23631887Y-27094044D02*
X22751921Y-27974003D01*
X24146050Y-30377522D02*
X24087953Y-30465461D01*
X24717317Y-30277226D02*
X24702395Y-30121059D01*
X24665957Y-27591311D02*
X24549188Y-27416686D01*
X24702395Y-30433394D02*
X24717317Y-30277226D01*
X25643520Y-26305377D02*
X25455334Y-26206317D01*
X23143508Y-30584866D02*
X23218120Y-30726945D01*
X21983147Y-26447747D02*
X21846728Y-26613747D01*
X23997649Y-27508914D02*
X24104682Y-27761714D01*
X24702395Y-30121059D02*
X24657627Y-29969587D01*
X23899993Y-29122083D02*
X23142513Y-28364043D01*
X24549188Y-27416686D02*
X24509042Y-27210311D01*
X23972919Y-27022265D02*
X23956445Y-27209194D01*
X25247052Y-26717339D02*
X25427392Y-26837213D01*
X23131227Y-26837777D02*
X23521257Y-26447747D01*
X21846728Y-27819530D02*
X21983147Y-27985291D01*
X24478558Y-30854934D02*
X24583015Y-30726945D01*
X22342698Y-26209304D02*
X22153556Y-26308655D01*
X23900568Y-31093694D02*
X24056760Y-31078772D01*
X24657627Y-29969587D02*
X24583015Y-29827508D01*
X21846728Y-26613747D02*
X21746927Y-26800383D01*
X23161706Y-26209304D02*
X22960076Y-26149694D01*
X24208190Y-31034004D02*
X24350306Y-30959392D01*
X21664801Y-27216519D02*
X21685650Y-27430223D01*
X21746927Y-26800383D02*
X21685650Y-27002895D01*
X22954045Y-26720302D02*
X23131227Y-26837777D01*
X24104682Y-27761714D02*
X24274791Y-27981918D01*
X25438111Y-28364045D02*
X25816853Y-27985303D01*
X22256833Y-27421553D02*
X22216264Y-27216519D01*
X25816853Y-28742787D02*
X25438111Y-28364045D01*
X23509973Y-29512123D02*
X23322578Y-29699518D01*
X23956445Y-27209194D02*
X23997649Y-27508914D01*
X23799504Y-30521976D02*
X23712597Y-30465461D01*
X22373179Y-26837777D02*
X22550361Y-26720302D01*
X24844110Y-26715787D02*
X25043006Y-26677475D01*
D14*
%TO.C,JP7*%
X116710000Y-61385000D02*
X116710000Y-64185000D01*
X114710000Y-64185000D02*
X114710000Y-61385000D01*
X114710000Y-61385000D02*
X116710000Y-61385000D01*
X116710000Y-64185000D02*
X114710000Y-64185000D01*
%TO.C,JP6*%
X109620000Y-61390000D02*
X111620000Y-61390000D01*
X111620000Y-61390000D02*
X111620000Y-64190000D01*
X109620000Y-64190000D02*
X109620000Y-61390000D01*
X111620000Y-64190000D02*
X109620000Y-64190000D01*
D10*
%TO.C,SW1*%
X77975608Y-83014518D02*
X78036617Y-82317181D01*
X82127292Y-87192258D02*
X82040137Y-88188453D01*
X77085310Y-87453816D02*
X76998154Y-88450011D01*
X82519493Y-82709382D02*
X82475915Y-83207480D01*
X69313591Y-73021547D02*
X70309786Y-73108703D01*
X73318420Y-84614706D02*
X73860096Y-84160187D01*
X73860096Y-84160187D02*
X76350582Y-84378076D01*
X82264122Y-74154572D02*
X83260317Y-74241727D01*
X69226436Y-74017742D02*
X69313591Y-73021547D01*
X83260317Y-74241727D02*
X83173161Y-75237922D01*
X73467895Y-88643063D02*
X76456479Y-88904530D01*
X73013375Y-88101388D02*
X73467895Y-88643063D01*
X82109861Y-87391497D02*
X77626985Y-86999296D01*
X68093411Y-86968273D02*
X68180567Y-85972078D01*
X76456479Y-88904530D02*
X76998154Y-88450011D01*
X82040137Y-88188453D02*
X81043942Y-88101297D01*
X82162155Y-86793781D02*
X82109861Y-87391497D01*
X78036617Y-82317181D02*
X82519493Y-82709382D01*
X69089606Y-87055428D02*
X68093411Y-86968273D01*
X77626985Y-86999297D02*
G75*
G03*
X77085310Y-87453816I-43577J-498098D01*
G01*
X76350582Y-84378076D02*
G75*
G03*
X77975608Y-83014518I130733J1494293D01*
G01*
D14*
%TO.C,JP5*%
X107070000Y-61390000D02*
X109070000Y-61390000D01*
X109070000Y-64190000D02*
X107070000Y-64190000D01*
X109070000Y-61390000D02*
X109070000Y-64190000D01*
X107070000Y-64190000D02*
X107070000Y-61390000D01*
%TO.C,JP8*%
X119230000Y-64190000D02*
X117230000Y-64190000D01*
X117230000Y-64190000D02*
X117230000Y-61390000D01*
X117230000Y-61390000D02*
X119230000Y-61390000D01*
X119230000Y-61390000D02*
X119230000Y-64190000D01*
%TO.C,Display1*%
X106803066Y-64602292D02*
X119503066Y-64602292D01*
X119503066Y-64602292D02*
X119503066Y-67202292D01*
X119503066Y-67202292D02*
X106803066Y-67202292D01*
X106803066Y-67202292D02*
X106803066Y-64602292D01*
%TD*%
D18*
%TO.C,U1*%
X105756864Y-29971752D03*
X105756864Y-32511752D03*
X105756864Y-35051752D03*
X105756864Y-37591752D03*
X105756864Y-40131752D03*
X105756864Y-42671752D03*
X105756864Y-45211752D03*
X105756864Y-47751752D03*
X105756864Y-50291752D03*
X105756864Y-52831752D03*
X105756864Y-55371752D03*
X105756864Y-57911752D03*
X120996864Y-57911752D03*
X120996864Y-55371752D03*
X120996864Y-52831752D03*
X120996864Y-50291752D03*
X120996864Y-47751752D03*
X120996864Y-45211752D03*
X120996864Y-42671752D03*
X120996864Y-40131752D03*
X120996864Y-37591752D03*
X120996864Y-35051752D03*
X120996864Y-32511752D03*
X120996864Y-29971752D03*
X108296864Y-52831752D03*
X110836864Y-52831752D03*
X113376864Y-52831752D03*
%TD*%
M02*
