%TF.GenerationSoftware,KiCad,Pcbnew,(6.0.8)*%
%TF.CreationDate,2022-11-10T08:12:57-08:00*%
%TF.ProjectId,half-swept,68616c66-2d73-4776-9570-742e6b696361,rev?*%
%TF.SameCoordinates,Original*%
%TF.FileFunction,Drillmap*%
%TF.FilePolarity,Positive*%
%FSLAX45Y45*%
G04 Gerber Fmt 4.5, Leading zero omitted, Abs format (unit mm)*
G04 Created by KiCad (PCBNEW (6.0.8)) date 2022-11-10 08:12:57*
%MOMM*%
%LPD*%
G01*
G04 APERTURE LIST*
%ADD10C,0.050000*%
%ADD11C,0.200000*%
%ADD12C,0.090000*%
%ADD13C,0.120000*%
%ADD14C,0.170180*%
%ADD15C,0.300000*%
%ADD16C,0.342900*%
G04 APERTURE END LIST*
D10*
X1223692Y-3220171D02*
X1227712Y-8147003D01*
X12278886Y-2760878D02*
G75*
G03*
X12242686Y-2680500I-104476J1288D01*
G01*
X1366385Y-3018799D02*
G75*
G03*
X1223692Y-3220171I244505J-324501D01*
G01*
X12242686Y-2680500D02*
G75*
G03*
X6792687Y-1256251I-5286691J-9090387D01*
G01*
X11758266Y-10218445D02*
G75*
G03*
X1431486Y-8330612I-10180840J-26502435D01*
G01*
X1227709Y-8147003D02*
G75*
G03*
X1431486Y-8330612I197801J14643D01*
G01*
X12278887Y-2760878D02*
X12278886Y-8330500D01*
X6792687Y-1256251D02*
G75*
G03*
X1366386Y-3018800I-139342J-8805174D01*
G01*
X11758268Y-10218440D02*
G75*
G03*
X11878948Y-10185024I43992J75750D01*
G01*
X12547988Y-8757716D02*
X11878948Y-10185024D01*
X12278887Y-8330500D02*
G75*
G03*
X12432988Y-8522716I279953J66560D01*
G01*
X12547986Y-8757716D02*
G75*
G03*
X12432988Y-8522716I-199306J48106D01*
G01*
D11*
D12*
X12077306Y-7373229D02*
X12167306Y-7463229D01*
X12167306Y-7373229D02*
X12077306Y-7463229D01*
X12077306Y-7673229D02*
X12167306Y-7763229D01*
X12167306Y-7673229D02*
X12077306Y-7763229D01*
X12077307Y-7372229D02*
X12167307Y-7462229D01*
X12167307Y-7372229D02*
X12077307Y-7462229D01*
X12077307Y-7672229D02*
X12167307Y-7762229D01*
X12167307Y-7672229D02*
X12077307Y-7762229D01*
D13*
X7605186Y-1465750D02*
G75*
G03*
X7605186Y-1465750I-60000J0D01*
G01*
D14*
X1712686Y-4045410D02*
X1712686Y-4215590D01*
X1627596Y-4130500D02*
X1797776Y-4130500D01*
X1712686Y-5745410D02*
X1712686Y-5915590D01*
X1627596Y-5830500D02*
X1797776Y-5830500D01*
X1712686Y-7445410D02*
X1712686Y-7615590D01*
X1627596Y-7530500D02*
X1797776Y-7530500D01*
X2812686Y-4045410D02*
X2812686Y-4215590D01*
X2727597Y-4130500D02*
X2897776Y-4130500D01*
X2812686Y-5745410D02*
X2812686Y-5915590D01*
X2727597Y-5830500D02*
X2897776Y-5830500D01*
X2812686Y-7445410D02*
X2812686Y-7615590D01*
X2727597Y-7530500D02*
X2897776Y-7530500D01*
X3512686Y-6244610D02*
X3512686Y-6414790D01*
X3427596Y-6329700D02*
X3597776Y-6329700D01*
X3512687Y-2845410D02*
X3512687Y-3015590D01*
X3427597Y-2930500D02*
X3597777Y-2930500D01*
X3512687Y-4542810D02*
X3512687Y-4712990D01*
X3427597Y-4627900D02*
X3597777Y-4627900D01*
X4612686Y-6244610D02*
X4612686Y-6414790D01*
X4527596Y-6329700D02*
X4697776Y-6329700D01*
X4612687Y-2845410D02*
X4612687Y-3015590D01*
X4527597Y-2930500D02*
X4697777Y-2930500D01*
X4612687Y-4542810D02*
X4612687Y-4712990D01*
X4527597Y-4627900D02*
X4697777Y-4627900D01*
X5312686Y-5558810D02*
X5312686Y-5728990D01*
X5227596Y-5643900D02*
X5397776Y-5643900D01*
X5312686Y-2145410D02*
X5312686Y-2315590D01*
X5227596Y-2230500D02*
X5397776Y-2230500D01*
X5312687Y-3857010D02*
X5312687Y-4027190D01*
X5227597Y-3942100D02*
X5397777Y-3942100D01*
X6412686Y-5558810D02*
X6412686Y-5728990D01*
X6327596Y-5643900D02*
X6497776Y-5643900D01*
X6412686Y-2145410D02*
X6412686Y-2315590D01*
X6327596Y-2230500D02*
X6497776Y-2230500D01*
X6412687Y-3857010D02*
X6412687Y-4027190D01*
X6327597Y-3942100D02*
X6497777Y-3942100D01*
X7019779Y-7927474D02*
X7019779Y-8097654D01*
X6934689Y-8012564D02*
X7104869Y-8012564D01*
X7112686Y-2695410D02*
X7112686Y-2865590D01*
X7027596Y-2780500D02*
X7197776Y-2780500D01*
X7112686Y-6092210D02*
X7112686Y-6262390D01*
X7027596Y-6177300D02*
X7197776Y-6177300D01*
X7112687Y-4390411D02*
X7112687Y-4560591D01*
X7027597Y-4475501D02*
X7197777Y-4475501D01*
X8115593Y-8023346D02*
X8115593Y-8193526D01*
X8030503Y-8108436D02*
X8200683Y-8108436D01*
X8212686Y-2695410D02*
X8212686Y-2865590D01*
X8127596Y-2780500D02*
X8297776Y-2780500D01*
X8212686Y-6092210D02*
X8212686Y-6262390D01*
X8127596Y-6177300D02*
X8297776Y-6177300D01*
X8212687Y-4390411D02*
X8212687Y-4560591D01*
X8127597Y-4475501D02*
X8297777Y-4475501D01*
X8910052Y-6346210D02*
X8910052Y-6516390D01*
X8824962Y-6431300D02*
X8995142Y-6431300D01*
X8910687Y-4644410D02*
X8910687Y-4814590D01*
X8825597Y-4729500D02*
X8995777Y-4729500D01*
X8912686Y-2945410D02*
X8912686Y-3115590D01*
X8827596Y-3030500D02*
X8997776Y-3030500D01*
X8961427Y-8173060D02*
X8961427Y-8343240D01*
X8876337Y-8258150D02*
X9046517Y-8258150D01*
X10010052Y-6346210D02*
X10010052Y-6516390D01*
X9924962Y-6431300D02*
X10095142Y-6431300D01*
X10010687Y-4644410D02*
X10010687Y-4814590D01*
X9925597Y-4729500D02*
X10095777Y-4729500D01*
X10012686Y-2945410D02*
X10012686Y-3115590D01*
X9927596Y-3030500D02*
X10097776Y-3030500D01*
X10023946Y-8457761D02*
X10023946Y-8627941D01*
X9938856Y-8542851D02*
X10109036Y-8542851D01*
X10834217Y-8752970D02*
X10834217Y-8923150D01*
X10749127Y-8838060D02*
X10919307Y-8838060D01*
X11831156Y-9217850D02*
X11831156Y-9388030D01*
X11746066Y-9302940D02*
X11916246Y-9302940D01*
D15*
X1868753Y-4611567D02*
X1868753Y-4399433D01*
X1656619Y-4399433D01*
X1656619Y-4611567D01*
X1868753Y-4611567D01*
X1868753Y-6311567D02*
X1868753Y-6099433D01*
X1656619Y-6099433D01*
X1656619Y-6311567D01*
X1868753Y-6311567D01*
X1868753Y-8011567D02*
X1868753Y-7799433D01*
X1656619Y-7799433D01*
X1656619Y-8011567D01*
X1868753Y-8011567D01*
X2368754Y-4831567D02*
X2368754Y-4619433D01*
X2156620Y-4619433D01*
X2156620Y-4831567D01*
X2368754Y-4831567D01*
X2368754Y-6531567D02*
X2368754Y-6319433D01*
X2156620Y-6319433D01*
X2156620Y-6531567D01*
X2368754Y-6531567D01*
X2368754Y-8231567D02*
X2368754Y-8019433D01*
X2156620Y-8019433D01*
X2156620Y-8231567D01*
X2368754Y-8231567D01*
X2868753Y-4611567D02*
X2868753Y-4399433D01*
X2656620Y-4399433D01*
X2656620Y-4611567D01*
X2868753Y-4611567D01*
X2868753Y-6311567D02*
X2868753Y-6099433D01*
X2656620Y-6099433D01*
X2656620Y-6311567D01*
X2868753Y-6311567D01*
X2868753Y-8011567D02*
X2868753Y-7799433D01*
X2656620Y-7799433D01*
X2656620Y-8011567D01*
X2868753Y-8011567D01*
X3668753Y-6810767D02*
X3668753Y-6598633D01*
X3456619Y-6598633D01*
X3456619Y-6810767D01*
X3668753Y-6810767D01*
X3668754Y-3411567D02*
X3668754Y-3199433D01*
X3456620Y-3199433D01*
X3456620Y-3411567D01*
X3668754Y-3411567D01*
X3668754Y-5108967D02*
X3668754Y-4896833D01*
X3456620Y-4896833D01*
X3456620Y-5108967D01*
X3668754Y-5108967D01*
X4168753Y-7030767D02*
X4168753Y-6818633D01*
X3956619Y-6818633D01*
X3956619Y-7030767D01*
X4168753Y-7030767D01*
X4168754Y-3631567D02*
X4168754Y-3419433D01*
X3956620Y-3419433D01*
X3956620Y-3631567D01*
X4168754Y-3631567D01*
X4168754Y-5328967D02*
X4168754Y-5116833D01*
X3956620Y-5116833D01*
X3956620Y-5328967D01*
X4168754Y-5328967D01*
X4668753Y-6810767D02*
X4668753Y-6598633D01*
X4456619Y-6598633D01*
X4456619Y-6810767D01*
X4668753Y-6810767D01*
X4668754Y-3411567D02*
X4668754Y-3199433D01*
X4456620Y-3199433D01*
X4456620Y-3411567D01*
X4668754Y-3411567D01*
X4668754Y-5108967D02*
X4668754Y-4896833D01*
X4456620Y-4896833D01*
X4456620Y-5108967D01*
X4668754Y-5108967D01*
X5468753Y-6124967D02*
X5468753Y-5912833D01*
X5256619Y-5912833D01*
X5256619Y-6124967D01*
X5468753Y-6124967D01*
X5468753Y-2711567D02*
X5468753Y-2499433D01*
X5256619Y-2499433D01*
X5256619Y-2711567D01*
X5468753Y-2711567D01*
X5468754Y-4423167D02*
X5468754Y-4211033D01*
X5256620Y-4211033D01*
X5256620Y-4423167D01*
X5468754Y-4423167D01*
X5968753Y-6344967D02*
X5968753Y-6132833D01*
X5756619Y-6132833D01*
X5756619Y-6344967D01*
X5968753Y-6344967D01*
X5968753Y-2931567D02*
X5968753Y-2719433D01*
X5756619Y-2719433D01*
X5756619Y-2931567D01*
X5968753Y-2931567D01*
X5968754Y-4643167D02*
X5968754Y-4431033D01*
X5756620Y-4431033D01*
X5756620Y-4643167D01*
X5968754Y-4643167D01*
X6468753Y-6124967D02*
X6468753Y-5912833D01*
X6256619Y-5912833D01*
X6256619Y-6124967D01*
X6468753Y-6124967D01*
X6468753Y-2711567D02*
X6468753Y-2499433D01*
X6256619Y-2499433D01*
X6256619Y-2711567D01*
X6468753Y-2711567D01*
X6468754Y-4423167D02*
X6468754Y-4211033D01*
X6256620Y-4211033D01*
X6256620Y-4423167D01*
X6468754Y-4423167D01*
X7142973Y-8496562D02*
X7142973Y-8284428D01*
X6930839Y-8284428D01*
X6930839Y-8496562D01*
X7142973Y-8496562D01*
X7268753Y-3261567D02*
X7268753Y-3049433D01*
X7056619Y-3049433D01*
X7056619Y-3261567D01*
X7268753Y-3261567D01*
X7268753Y-6658367D02*
X7268753Y-6446233D01*
X7056619Y-6446233D01*
X7056619Y-6658367D01*
X7268753Y-6658367D01*
X7268754Y-4956568D02*
X7268754Y-4744434D01*
X7056620Y-4744434D01*
X7056620Y-4956568D01*
X7268754Y-4956568D01*
X7621896Y-8759303D02*
X7621896Y-8547169D01*
X7409762Y-8547169D01*
X7409762Y-8759303D01*
X7621896Y-8759303D01*
X7768753Y-3481567D02*
X7768753Y-3269433D01*
X7556619Y-3269433D01*
X7556619Y-3481567D01*
X7768753Y-3481567D01*
X7768753Y-6878367D02*
X7768753Y-6666233D01*
X7556619Y-6666233D01*
X7556619Y-6878367D01*
X7768753Y-6878367D01*
X7768754Y-5176568D02*
X7768754Y-4964434D01*
X7556620Y-4964434D01*
X7556620Y-5176568D01*
X7768754Y-5176568D01*
X8139167Y-8583718D02*
X8139167Y-8371584D01*
X7927033Y-8371584D01*
X7927033Y-8583718D01*
X8139167Y-8583718D01*
X8268753Y-3261567D02*
X8268753Y-3049433D01*
X8056619Y-3049433D01*
X8056619Y-3261567D01*
X8268753Y-3261567D01*
X8268753Y-6658367D02*
X8268753Y-6446233D01*
X8056619Y-6446233D01*
X8056619Y-6658367D01*
X8268753Y-6658367D01*
X8268754Y-4956568D02*
X8268754Y-4744434D01*
X8056620Y-4744434D01*
X8056620Y-4956568D01*
X8268754Y-4956568D01*
X9018733Y-8739380D02*
X9018733Y-8527246D01*
X8806599Y-8527246D01*
X8806599Y-8739380D01*
X9018733Y-8739380D01*
X9066119Y-6912367D02*
X9066119Y-6700233D01*
X8853985Y-6700233D01*
X8853985Y-6912367D01*
X9066119Y-6912367D01*
X9066754Y-5210567D02*
X9066754Y-4998433D01*
X8854620Y-4998433D01*
X8854620Y-5210567D01*
X9066754Y-5210567D01*
X9068753Y-3511567D02*
X9068753Y-3299433D01*
X8856619Y-3299433D01*
X8856619Y-3511567D01*
X9068753Y-3511567D01*
X9444756Y-9081293D02*
X9444756Y-8869159D01*
X9232622Y-8869159D01*
X9232622Y-9081293D01*
X9444756Y-9081293D01*
X9566119Y-7132367D02*
X9566119Y-6920233D01*
X9353985Y-6920233D01*
X9353985Y-7132367D01*
X9566119Y-7132367D01*
X9566754Y-5430567D02*
X9566754Y-5218433D01*
X9354620Y-5218433D01*
X9354620Y-5430567D01*
X9566754Y-5430567D01*
X9568753Y-3731567D02*
X9568753Y-3519433D01*
X9356619Y-3519433D01*
X9356619Y-3731567D01*
X9568753Y-3731567D01*
X9984659Y-8998199D02*
X9984659Y-8786065D01*
X9772525Y-8786065D01*
X9772525Y-8998199D01*
X9984659Y-8998199D01*
X10066119Y-6912367D02*
X10066119Y-6700233D01*
X9853985Y-6700233D01*
X9853985Y-6912367D01*
X10066119Y-6912367D01*
X10066754Y-5210567D02*
X10066754Y-4998433D01*
X9854620Y-4998433D01*
X9854620Y-5210567D01*
X10066754Y-5210567D01*
X10068753Y-3511567D02*
X10068753Y-3299433D01*
X9856619Y-3299433D01*
X9856619Y-3511567D01*
X10068753Y-3511567D01*
X10827118Y-9305123D02*
X10827118Y-9092989D01*
X10614984Y-9092989D01*
X10614984Y-9305123D01*
X10827118Y-9305123D01*
X11187296Y-9715820D02*
X11187296Y-9503686D01*
X10975162Y-9503686D01*
X10975162Y-9715820D01*
X11187296Y-9715820D01*
X11733426Y-9727742D02*
X11733426Y-9515608D01*
X11521292Y-9515608D01*
X11521292Y-9727742D01*
X11733426Y-9727742D01*
D16*
X2262687Y-4301950D02*
X2434137Y-4130500D01*
X2262687Y-3959050D01*
X2091236Y-4130500D01*
X2262687Y-4301950D01*
X2262687Y-6001950D02*
X2434137Y-5830500D01*
X2262687Y-5659050D01*
X2091236Y-5830500D01*
X2262687Y-6001950D01*
X2262687Y-7701950D02*
X2434137Y-7530500D01*
X2262687Y-7359050D01*
X2091236Y-7530500D01*
X2262687Y-7701950D01*
X4062686Y-6501150D02*
X4234136Y-6329700D01*
X4062686Y-6158250D01*
X3891236Y-6329700D01*
X4062686Y-6501150D01*
X4062687Y-3101950D02*
X4234137Y-2930500D01*
X4062687Y-2759050D01*
X3891237Y-2930500D01*
X4062687Y-3101950D01*
X4062687Y-4799350D02*
X4234137Y-4627900D01*
X4062687Y-4456450D01*
X3891237Y-4627900D01*
X4062687Y-4799350D01*
X5862686Y-5815350D02*
X6034136Y-5643900D01*
X5862686Y-5472450D01*
X5691236Y-5643900D01*
X5862686Y-5815350D01*
X5862686Y-2401950D02*
X6034136Y-2230500D01*
X5862686Y-2059050D01*
X5691236Y-2230500D01*
X5862686Y-2401950D01*
X5862687Y-4113550D02*
X6034137Y-3942100D01*
X5862687Y-3770650D01*
X5691237Y-3942100D01*
X5862687Y-4113550D01*
X7567686Y-8231950D02*
X7739136Y-8060500D01*
X7567686Y-7889050D01*
X7396236Y-8060500D01*
X7567686Y-8231950D01*
X7662686Y-2951950D02*
X7834136Y-2780500D01*
X7662686Y-2609050D01*
X7491236Y-2780500D01*
X7662686Y-2951950D01*
X7662686Y-6348750D02*
X7834136Y-6177300D01*
X7662686Y-6005850D01*
X7491236Y-6177300D01*
X7662686Y-6348750D01*
X7662687Y-4646951D02*
X7834137Y-4475501D01*
X7662687Y-4304051D01*
X7491237Y-4475501D01*
X7662687Y-4646951D01*
X9460052Y-6602750D02*
X9631502Y-6431300D01*
X9460052Y-6259850D01*
X9288602Y-6431300D01*
X9460052Y-6602750D01*
X9460687Y-4900950D02*
X9632137Y-4729500D01*
X9460687Y-4558050D01*
X9289237Y-4729500D01*
X9460687Y-4900950D01*
X9462686Y-3201950D02*
X9634136Y-3030500D01*
X9462686Y-2859050D01*
X9291236Y-3030500D01*
X9462686Y-3201950D01*
X9492686Y-8571950D02*
X9664136Y-8400500D01*
X9492686Y-8229050D01*
X9321236Y-8400500D01*
X9492686Y-8571950D01*
X11332687Y-9241950D02*
X11504137Y-9070500D01*
X11332687Y-8899050D01*
X11161237Y-9070500D01*
X11332687Y-9241950D01*
D11*
X1478811Y-10543263D02*
X1478811Y-10343263D01*
X1526430Y-10343263D01*
X1555001Y-10352787D01*
X1574049Y-10371835D01*
X1583573Y-10390882D01*
X1593096Y-10428978D01*
X1593096Y-10457549D01*
X1583573Y-10495644D01*
X1574049Y-10514692D01*
X1555001Y-10533739D01*
X1526430Y-10543263D01*
X1478811Y-10543263D01*
X1678811Y-10543263D02*
X1678811Y-10409930D01*
X1678811Y-10448025D02*
X1688335Y-10428978D01*
X1697858Y-10419454D01*
X1716906Y-10409930D01*
X1735954Y-10409930D01*
X1802620Y-10543263D02*
X1802620Y-10409930D01*
X1802620Y-10343263D02*
X1793096Y-10352787D01*
X1802620Y-10362311D01*
X1812144Y-10352787D01*
X1802620Y-10343263D01*
X1802620Y-10362311D01*
X1926430Y-10543263D02*
X1907382Y-10533739D01*
X1897858Y-10514692D01*
X1897858Y-10343263D01*
X2031192Y-10543263D02*
X2012144Y-10533739D01*
X2002620Y-10514692D01*
X2002620Y-10343263D01*
X2259763Y-10543263D02*
X2259763Y-10343263D01*
X2326430Y-10486120D01*
X2393097Y-10343263D01*
X2393097Y-10543263D01*
X2574049Y-10543263D02*
X2574049Y-10438501D01*
X2564525Y-10419454D01*
X2545478Y-10409930D01*
X2507382Y-10409930D01*
X2488335Y-10419454D01*
X2574049Y-10533739D02*
X2555001Y-10543263D01*
X2507382Y-10543263D01*
X2488335Y-10533739D01*
X2478811Y-10514692D01*
X2478811Y-10495644D01*
X2488335Y-10476597D01*
X2507382Y-10467073D01*
X2555001Y-10467073D01*
X2574049Y-10457549D01*
X2669287Y-10409930D02*
X2669287Y-10609930D01*
X2669287Y-10419454D02*
X2688335Y-10409930D01*
X2726430Y-10409930D01*
X2745478Y-10419454D01*
X2755001Y-10428978D01*
X2764525Y-10448025D01*
X2764525Y-10505168D01*
X2755001Y-10524216D01*
X2745478Y-10533739D01*
X2726430Y-10543263D01*
X2688335Y-10543263D01*
X2669287Y-10533739D01*
X2850239Y-10524216D02*
X2859763Y-10533739D01*
X2850239Y-10543263D01*
X2840716Y-10533739D01*
X2850239Y-10524216D01*
X2850239Y-10543263D01*
X2850239Y-10419454D02*
X2859763Y-10428978D01*
X2850239Y-10438501D01*
X2840716Y-10428978D01*
X2850239Y-10419454D01*
X2850239Y-10438501D01*
D12*
X1131192Y-10827787D02*
X1221192Y-10917787D01*
X1221192Y-10827787D02*
X1131192Y-10917787D01*
D11*
X1516906Y-10763263D02*
X1535954Y-10763263D01*
X1555001Y-10772787D01*
X1564525Y-10782311D01*
X1574049Y-10801359D01*
X1583573Y-10839454D01*
X1583573Y-10887073D01*
X1574049Y-10925168D01*
X1564525Y-10944216D01*
X1555001Y-10953739D01*
X1535954Y-10963263D01*
X1516906Y-10963263D01*
X1497858Y-10953739D01*
X1488335Y-10944216D01*
X1478811Y-10925168D01*
X1469287Y-10887073D01*
X1469287Y-10839454D01*
X1478811Y-10801359D01*
X1488335Y-10782311D01*
X1497858Y-10772787D01*
X1516906Y-10763263D01*
X1669287Y-10944216D02*
X1678811Y-10953739D01*
X1669287Y-10963263D01*
X1659763Y-10953739D01*
X1669287Y-10944216D01*
X1669287Y-10963263D01*
X1774049Y-10963263D02*
X1812144Y-10963263D01*
X1831192Y-10953739D01*
X1840716Y-10944216D01*
X1859763Y-10915644D01*
X1869287Y-10877549D01*
X1869287Y-10801359D01*
X1859763Y-10782311D01*
X1850239Y-10772787D01*
X1831192Y-10763263D01*
X1793096Y-10763263D01*
X1774049Y-10772787D01*
X1764525Y-10782311D01*
X1755001Y-10801359D01*
X1755001Y-10848978D01*
X1764525Y-10868025D01*
X1774049Y-10877549D01*
X1793096Y-10887073D01*
X1831192Y-10887073D01*
X1850239Y-10877549D01*
X1859763Y-10868025D01*
X1869287Y-10848978D01*
X1993096Y-10763263D02*
X2012144Y-10763263D01*
X2031192Y-10772787D01*
X2040716Y-10782311D01*
X2050239Y-10801359D01*
X2059763Y-10839454D01*
X2059763Y-10887073D01*
X2050239Y-10925168D01*
X2040716Y-10944216D01*
X2031192Y-10953739D01*
X2012144Y-10963263D01*
X1993096Y-10963263D01*
X1974049Y-10953739D01*
X1964525Y-10944216D01*
X1955001Y-10925168D01*
X1945477Y-10887073D01*
X1945477Y-10839454D01*
X1955001Y-10801359D01*
X1964525Y-10782311D01*
X1974049Y-10772787D01*
X1993096Y-10763263D01*
X2183573Y-10763263D02*
X2202620Y-10763263D01*
X2221668Y-10772787D01*
X2231192Y-10782311D01*
X2240716Y-10801359D01*
X2250239Y-10839454D01*
X2250239Y-10887073D01*
X2240716Y-10925168D01*
X2231192Y-10944216D01*
X2221668Y-10953739D01*
X2202620Y-10963263D01*
X2183573Y-10963263D01*
X2164525Y-10953739D01*
X2155001Y-10944216D01*
X2145478Y-10925168D01*
X2135954Y-10887073D01*
X2135954Y-10839454D01*
X2145478Y-10801359D01*
X2155001Y-10782311D01*
X2164525Y-10772787D01*
X2183573Y-10763263D01*
X2335954Y-10963263D02*
X2335954Y-10829930D01*
X2335954Y-10848978D02*
X2345478Y-10839454D01*
X2364525Y-10829930D01*
X2393097Y-10829930D01*
X2412144Y-10839454D01*
X2421668Y-10858501D01*
X2421668Y-10963263D01*
X2421668Y-10858501D02*
X2431192Y-10839454D01*
X2450239Y-10829930D01*
X2478811Y-10829930D01*
X2497858Y-10839454D01*
X2507382Y-10858501D01*
X2507382Y-10963263D01*
X2602620Y-10963263D02*
X2602620Y-10829930D01*
X2602620Y-10848978D02*
X2612144Y-10839454D01*
X2631192Y-10829930D01*
X2659763Y-10829930D01*
X2678811Y-10839454D01*
X2688335Y-10858501D01*
X2688335Y-10963263D01*
X2688335Y-10858501D02*
X2697858Y-10839454D01*
X2716906Y-10829930D01*
X2745478Y-10829930D01*
X2764525Y-10839454D01*
X2774049Y-10858501D01*
X2774049Y-10963263D01*
X3164525Y-10753739D02*
X2993096Y-11010882D01*
X3421668Y-10763263D02*
X3440716Y-10763263D01*
X3459763Y-10772787D01*
X3469287Y-10782311D01*
X3478811Y-10801359D01*
X3488335Y-10839454D01*
X3488335Y-10887073D01*
X3478811Y-10925168D01*
X3469287Y-10944216D01*
X3459763Y-10953739D01*
X3440716Y-10963263D01*
X3421668Y-10963263D01*
X3402620Y-10953739D01*
X3393096Y-10944216D01*
X3383573Y-10925168D01*
X3374049Y-10887073D01*
X3374049Y-10839454D01*
X3383573Y-10801359D01*
X3393096Y-10782311D01*
X3402620Y-10772787D01*
X3421668Y-10763263D01*
X3574049Y-10944216D02*
X3583573Y-10953739D01*
X3574049Y-10963263D01*
X3564525Y-10953739D01*
X3574049Y-10944216D01*
X3574049Y-10963263D01*
X3707382Y-10763263D02*
X3726430Y-10763263D01*
X3745477Y-10772787D01*
X3755001Y-10782311D01*
X3764525Y-10801359D01*
X3774049Y-10839454D01*
X3774049Y-10887073D01*
X3764525Y-10925168D01*
X3755001Y-10944216D01*
X3745477Y-10953739D01*
X3726430Y-10963263D01*
X3707382Y-10963263D01*
X3688335Y-10953739D01*
X3678811Y-10944216D01*
X3669287Y-10925168D01*
X3659763Y-10887073D01*
X3659763Y-10839454D01*
X3669287Y-10801359D01*
X3678811Y-10782311D01*
X3688335Y-10772787D01*
X3707382Y-10763263D01*
X3840716Y-10763263D02*
X3964525Y-10763263D01*
X3897858Y-10839454D01*
X3926430Y-10839454D01*
X3945477Y-10848978D01*
X3955001Y-10858501D01*
X3964525Y-10877549D01*
X3964525Y-10925168D01*
X3955001Y-10944216D01*
X3945477Y-10953739D01*
X3926430Y-10963263D01*
X3869287Y-10963263D01*
X3850239Y-10953739D01*
X3840716Y-10944216D01*
X4145477Y-10763263D02*
X4050239Y-10763263D01*
X4040716Y-10858501D01*
X4050239Y-10848978D01*
X4069287Y-10839454D01*
X4116906Y-10839454D01*
X4135954Y-10848978D01*
X4145477Y-10858501D01*
X4155001Y-10877549D01*
X4155001Y-10925168D01*
X4145477Y-10944216D01*
X4135954Y-10953739D01*
X4116906Y-10963263D01*
X4069287Y-10963263D01*
X4050239Y-10953739D01*
X4040716Y-10944216D01*
X4326430Y-10829930D02*
X4326430Y-10963263D01*
X4278811Y-10753739D02*
X4231192Y-10896597D01*
X4355001Y-10896597D01*
X4421668Y-10763263D02*
X4421668Y-10801359D01*
X4497858Y-10763263D02*
X4497858Y-10801359D01*
X4793097Y-11039454D02*
X4783573Y-11029930D01*
X4764525Y-11001359D01*
X4755001Y-10982311D01*
X4745478Y-10953739D01*
X4735954Y-10906120D01*
X4735954Y-10868025D01*
X4745478Y-10820406D01*
X4755001Y-10791835D01*
X4764525Y-10772787D01*
X4783573Y-10744216D01*
X4793097Y-10734692D01*
X4955001Y-10829930D02*
X4955001Y-10963263D01*
X4907382Y-10753739D02*
X4859763Y-10896597D01*
X4983573Y-10896597D01*
X5212144Y-10963263D02*
X5212144Y-10763263D01*
X5297858Y-10963263D02*
X5297858Y-10858501D01*
X5288335Y-10839454D01*
X5269287Y-10829930D01*
X5240716Y-10829930D01*
X5221668Y-10839454D01*
X5212144Y-10848978D01*
X5421668Y-10963263D02*
X5402620Y-10953739D01*
X5393097Y-10944216D01*
X5383573Y-10925168D01*
X5383573Y-10868025D01*
X5393097Y-10848978D01*
X5402620Y-10839454D01*
X5421668Y-10829930D01*
X5450239Y-10829930D01*
X5469287Y-10839454D01*
X5478811Y-10848978D01*
X5488335Y-10868025D01*
X5488335Y-10925168D01*
X5478811Y-10944216D01*
X5469287Y-10953739D01*
X5450239Y-10963263D01*
X5421668Y-10963263D01*
X5602620Y-10963263D02*
X5583573Y-10953739D01*
X5574049Y-10934692D01*
X5574049Y-10763263D01*
X5755001Y-10953739D02*
X5735954Y-10963263D01*
X5697858Y-10963263D01*
X5678811Y-10953739D01*
X5669287Y-10934692D01*
X5669287Y-10858501D01*
X5678811Y-10839454D01*
X5697858Y-10829930D01*
X5735954Y-10829930D01*
X5755001Y-10839454D01*
X5764525Y-10858501D01*
X5764525Y-10877549D01*
X5669287Y-10896597D01*
X5840716Y-10953739D02*
X5859763Y-10963263D01*
X5897858Y-10963263D01*
X5916906Y-10953739D01*
X5926430Y-10934692D01*
X5926430Y-10925168D01*
X5916906Y-10906120D01*
X5897858Y-10896597D01*
X5869287Y-10896597D01*
X5850239Y-10887073D01*
X5840716Y-10868025D01*
X5840716Y-10858501D01*
X5850239Y-10839454D01*
X5869287Y-10829930D01*
X5897858Y-10829930D01*
X5916906Y-10839454D01*
X5993096Y-11039454D02*
X6002620Y-11029930D01*
X6021668Y-11001359D01*
X6031192Y-10982311D01*
X6040716Y-10953739D01*
X6050239Y-10906120D01*
X6050239Y-10868025D01*
X6040716Y-10820406D01*
X6031192Y-10791835D01*
X6021668Y-10772787D01*
X6002620Y-10744216D01*
X5993096Y-10734692D01*
X6355001Y-11039454D02*
X6345477Y-11029930D01*
X6326430Y-11001359D01*
X6316906Y-10982311D01*
X6307382Y-10953739D01*
X6297858Y-10906120D01*
X6297858Y-10868025D01*
X6307382Y-10820406D01*
X6316906Y-10791835D01*
X6326430Y-10772787D01*
X6345477Y-10744216D01*
X6355001Y-10734692D01*
X6431192Y-10829930D02*
X6431192Y-10963263D01*
X6431192Y-10848978D02*
X6440716Y-10839454D01*
X6459763Y-10829930D01*
X6488335Y-10829930D01*
X6507382Y-10839454D01*
X6516906Y-10858501D01*
X6516906Y-10963263D01*
X6640716Y-10963263D02*
X6621668Y-10953739D01*
X6612144Y-10944216D01*
X6602620Y-10925168D01*
X6602620Y-10868025D01*
X6612144Y-10848978D01*
X6621668Y-10839454D01*
X6640716Y-10829930D01*
X6669287Y-10829930D01*
X6688335Y-10839454D01*
X6697858Y-10848978D01*
X6707382Y-10868025D01*
X6707382Y-10925168D01*
X6697858Y-10944216D01*
X6688335Y-10953739D01*
X6669287Y-10963263D01*
X6640716Y-10963263D01*
X6764525Y-10829930D02*
X6840716Y-10829930D01*
X6793096Y-10763263D02*
X6793096Y-10934692D01*
X6802620Y-10953739D01*
X6821668Y-10963263D01*
X6840716Y-10963263D01*
X7059763Y-10829930D02*
X7059763Y-11029930D01*
X7059763Y-10839454D02*
X7078811Y-10829930D01*
X7116906Y-10829930D01*
X7135954Y-10839454D01*
X7145477Y-10848978D01*
X7155001Y-10868025D01*
X7155001Y-10925168D01*
X7145477Y-10944216D01*
X7135954Y-10953739D01*
X7116906Y-10963263D01*
X7078811Y-10963263D01*
X7059763Y-10953739D01*
X7269287Y-10963263D02*
X7250239Y-10953739D01*
X7240716Y-10934692D01*
X7240716Y-10763263D01*
X7431192Y-10963263D02*
X7431192Y-10858501D01*
X7421668Y-10839454D01*
X7402620Y-10829930D01*
X7364525Y-10829930D01*
X7345477Y-10839454D01*
X7431192Y-10953739D02*
X7412144Y-10963263D01*
X7364525Y-10963263D01*
X7345477Y-10953739D01*
X7335954Y-10934692D01*
X7335954Y-10915644D01*
X7345477Y-10896597D01*
X7364525Y-10887073D01*
X7412144Y-10887073D01*
X7431192Y-10877549D01*
X7497858Y-10829930D02*
X7574049Y-10829930D01*
X7526430Y-10763263D02*
X7526430Y-10934692D01*
X7535954Y-10953739D01*
X7555001Y-10963263D01*
X7574049Y-10963263D01*
X7716906Y-10953739D02*
X7697858Y-10963263D01*
X7659763Y-10963263D01*
X7640716Y-10953739D01*
X7631192Y-10934692D01*
X7631192Y-10858501D01*
X7640716Y-10839454D01*
X7659763Y-10829930D01*
X7697858Y-10829930D01*
X7716906Y-10839454D01*
X7726430Y-10858501D01*
X7726430Y-10877549D01*
X7631192Y-10896597D01*
X7897858Y-10963263D02*
X7897858Y-10763263D01*
X7897858Y-10953739D02*
X7878811Y-10963263D01*
X7840716Y-10963263D01*
X7821668Y-10953739D01*
X7812144Y-10944216D01*
X7802620Y-10925168D01*
X7802620Y-10868025D01*
X7812144Y-10848978D01*
X7821668Y-10839454D01*
X7840716Y-10829930D01*
X7878811Y-10829930D01*
X7897858Y-10839454D01*
X7974049Y-11039454D02*
X7983573Y-11029930D01*
X8002620Y-11001359D01*
X8012144Y-10982311D01*
X8021668Y-10953739D01*
X8031192Y-10906120D01*
X8031192Y-10868025D01*
X8021668Y-10820406D01*
X8012144Y-10791835D01*
X8002620Y-10772787D01*
X7983573Y-10744216D01*
X7974049Y-10734692D01*
D13*
X1221192Y-11136787D02*
G75*
G03*
X1221192Y-11136787I-60000J0D01*
G01*
D11*
X1583573Y-11227263D02*
X1469287Y-11227263D01*
X1526430Y-11227263D02*
X1526430Y-11027263D01*
X1507382Y-11055835D01*
X1488335Y-11074882D01*
X1469287Y-11084406D01*
X1669287Y-11208216D02*
X1678811Y-11217739D01*
X1669287Y-11227263D01*
X1659763Y-11217739D01*
X1669287Y-11208216D01*
X1669287Y-11227263D01*
X1755001Y-11046311D02*
X1764525Y-11036787D01*
X1783573Y-11027263D01*
X1831192Y-11027263D01*
X1850239Y-11036787D01*
X1859763Y-11046311D01*
X1869287Y-11065359D01*
X1869287Y-11084406D01*
X1859763Y-11112978D01*
X1745477Y-11227263D01*
X1869287Y-11227263D01*
X1993096Y-11027263D02*
X2012144Y-11027263D01*
X2031192Y-11036787D01*
X2040716Y-11046311D01*
X2050239Y-11065359D01*
X2059763Y-11103454D01*
X2059763Y-11151073D01*
X2050239Y-11189168D01*
X2040716Y-11208216D01*
X2031192Y-11217739D01*
X2012144Y-11227263D01*
X1993096Y-11227263D01*
X1974049Y-11217739D01*
X1964525Y-11208216D01*
X1955001Y-11189168D01*
X1945477Y-11151073D01*
X1945477Y-11103454D01*
X1955001Y-11065359D01*
X1964525Y-11046311D01*
X1974049Y-11036787D01*
X1993096Y-11027263D01*
X2183573Y-11027263D02*
X2202620Y-11027263D01*
X2221668Y-11036787D01*
X2231192Y-11046311D01*
X2240716Y-11065359D01*
X2250239Y-11103454D01*
X2250239Y-11151073D01*
X2240716Y-11189168D01*
X2231192Y-11208216D01*
X2221668Y-11217739D01*
X2202620Y-11227263D01*
X2183573Y-11227263D01*
X2164525Y-11217739D01*
X2155001Y-11208216D01*
X2145478Y-11189168D01*
X2135954Y-11151073D01*
X2135954Y-11103454D01*
X2145478Y-11065359D01*
X2155001Y-11046311D01*
X2164525Y-11036787D01*
X2183573Y-11027263D01*
X2335954Y-11227263D02*
X2335954Y-11093930D01*
X2335954Y-11112978D02*
X2345478Y-11103454D01*
X2364525Y-11093930D01*
X2393097Y-11093930D01*
X2412144Y-11103454D01*
X2421668Y-11122501D01*
X2421668Y-11227263D01*
X2421668Y-11122501D02*
X2431192Y-11103454D01*
X2450239Y-11093930D01*
X2478811Y-11093930D01*
X2497858Y-11103454D01*
X2507382Y-11122501D01*
X2507382Y-11227263D01*
X2602620Y-11227263D02*
X2602620Y-11093930D01*
X2602620Y-11112978D02*
X2612144Y-11103454D01*
X2631192Y-11093930D01*
X2659763Y-11093930D01*
X2678811Y-11103454D01*
X2688335Y-11122501D01*
X2688335Y-11227263D01*
X2688335Y-11122501D02*
X2697858Y-11103454D01*
X2716906Y-11093930D01*
X2745478Y-11093930D01*
X2764525Y-11103454D01*
X2774049Y-11122501D01*
X2774049Y-11227263D01*
X3164525Y-11017739D02*
X2993096Y-11274882D01*
X3421668Y-11027263D02*
X3440716Y-11027263D01*
X3459763Y-11036787D01*
X3469287Y-11046311D01*
X3478811Y-11065359D01*
X3488335Y-11103454D01*
X3488335Y-11151073D01*
X3478811Y-11189168D01*
X3469287Y-11208216D01*
X3459763Y-11217739D01*
X3440716Y-11227263D01*
X3421668Y-11227263D01*
X3402620Y-11217739D01*
X3393096Y-11208216D01*
X3383573Y-11189168D01*
X3374049Y-11151073D01*
X3374049Y-11103454D01*
X3383573Y-11065359D01*
X3393096Y-11046311D01*
X3402620Y-11036787D01*
X3421668Y-11027263D01*
X3574049Y-11208216D02*
X3583573Y-11217739D01*
X3574049Y-11227263D01*
X3564525Y-11217739D01*
X3574049Y-11208216D01*
X3574049Y-11227263D01*
X3707382Y-11027263D02*
X3726430Y-11027263D01*
X3745477Y-11036787D01*
X3755001Y-11046311D01*
X3764525Y-11065359D01*
X3774049Y-11103454D01*
X3774049Y-11151073D01*
X3764525Y-11189168D01*
X3755001Y-11208216D01*
X3745477Y-11217739D01*
X3726430Y-11227263D01*
X3707382Y-11227263D01*
X3688335Y-11217739D01*
X3678811Y-11208216D01*
X3669287Y-11189168D01*
X3659763Y-11151073D01*
X3659763Y-11103454D01*
X3669287Y-11065359D01*
X3678811Y-11046311D01*
X3688335Y-11036787D01*
X3707382Y-11027263D01*
X3945477Y-11093930D02*
X3945477Y-11227263D01*
X3897858Y-11017739D02*
X3850239Y-11160597D01*
X3974049Y-11160597D01*
X4031192Y-11027263D02*
X4164525Y-11027263D01*
X4078811Y-11227263D01*
X4231192Y-11046311D02*
X4240716Y-11036787D01*
X4259763Y-11027263D01*
X4307382Y-11027263D01*
X4326430Y-11036787D01*
X4335954Y-11046311D01*
X4345478Y-11065359D01*
X4345478Y-11084406D01*
X4335954Y-11112978D01*
X4221668Y-11227263D01*
X4345478Y-11227263D01*
X4421668Y-11027263D02*
X4421668Y-11065359D01*
X4497858Y-11027263D02*
X4497858Y-11065359D01*
X4793097Y-11303454D02*
X4783573Y-11293930D01*
X4764525Y-11265358D01*
X4755001Y-11246311D01*
X4745478Y-11217739D01*
X4735954Y-11170120D01*
X4735954Y-11132025D01*
X4745478Y-11084406D01*
X4755001Y-11055835D01*
X4764525Y-11036787D01*
X4783573Y-11008216D01*
X4793097Y-10998692D01*
X4974049Y-11227263D02*
X4859763Y-11227263D01*
X4916906Y-11227263D02*
X4916906Y-11027263D01*
X4897858Y-11055835D01*
X4878811Y-11074882D01*
X4859763Y-11084406D01*
X5212144Y-11227263D02*
X5212144Y-11027263D01*
X5297858Y-11227263D02*
X5297858Y-11122501D01*
X5288335Y-11103454D01*
X5269287Y-11093930D01*
X5240716Y-11093930D01*
X5221668Y-11103454D01*
X5212144Y-11112978D01*
X5421668Y-11227263D02*
X5402620Y-11217739D01*
X5393097Y-11208216D01*
X5383573Y-11189168D01*
X5383573Y-11132025D01*
X5393097Y-11112978D01*
X5402620Y-11103454D01*
X5421668Y-11093930D01*
X5450239Y-11093930D01*
X5469287Y-11103454D01*
X5478811Y-11112978D01*
X5488335Y-11132025D01*
X5488335Y-11189168D01*
X5478811Y-11208216D01*
X5469287Y-11217739D01*
X5450239Y-11227263D01*
X5421668Y-11227263D01*
X5602620Y-11227263D02*
X5583573Y-11217739D01*
X5574049Y-11198692D01*
X5574049Y-11027263D01*
X5755001Y-11217739D02*
X5735954Y-11227263D01*
X5697858Y-11227263D01*
X5678811Y-11217739D01*
X5669287Y-11198692D01*
X5669287Y-11122501D01*
X5678811Y-11103454D01*
X5697858Y-11093930D01*
X5735954Y-11093930D01*
X5755001Y-11103454D01*
X5764525Y-11122501D01*
X5764525Y-11141549D01*
X5669287Y-11160597D01*
X5831192Y-11303454D02*
X5840716Y-11293930D01*
X5859763Y-11265358D01*
X5869287Y-11246311D01*
X5878811Y-11217739D01*
X5888335Y-11170120D01*
X5888335Y-11132025D01*
X5878811Y-11084406D01*
X5869287Y-11055835D01*
X5859763Y-11036787D01*
X5840716Y-11008216D01*
X5831192Y-10998692D01*
X6193096Y-11303454D02*
X6183573Y-11293930D01*
X6164525Y-11265358D01*
X6155001Y-11246311D01*
X6145477Y-11217739D01*
X6135954Y-11170120D01*
X6135954Y-11132025D01*
X6145477Y-11084406D01*
X6155001Y-11055835D01*
X6164525Y-11036787D01*
X6183573Y-11008216D01*
X6193096Y-10998692D01*
X6269287Y-11093930D02*
X6269287Y-11227263D01*
X6269287Y-11112978D02*
X6278811Y-11103454D01*
X6297858Y-11093930D01*
X6326430Y-11093930D01*
X6345477Y-11103454D01*
X6355001Y-11122501D01*
X6355001Y-11227263D01*
X6478811Y-11227263D02*
X6459763Y-11217739D01*
X6450239Y-11208216D01*
X6440716Y-11189168D01*
X6440716Y-11132025D01*
X6450239Y-11112978D01*
X6459763Y-11103454D01*
X6478811Y-11093930D01*
X6507382Y-11093930D01*
X6526430Y-11103454D01*
X6535954Y-11112978D01*
X6545477Y-11132025D01*
X6545477Y-11189168D01*
X6535954Y-11208216D01*
X6526430Y-11217739D01*
X6507382Y-11227263D01*
X6478811Y-11227263D01*
X6602620Y-11093930D02*
X6678811Y-11093930D01*
X6631192Y-11027263D02*
X6631192Y-11198692D01*
X6640716Y-11217739D01*
X6659763Y-11227263D01*
X6678811Y-11227263D01*
X6897858Y-11093930D02*
X6897858Y-11293930D01*
X6897858Y-11103454D02*
X6916906Y-11093930D01*
X6955001Y-11093930D01*
X6974049Y-11103454D01*
X6983573Y-11112978D01*
X6993096Y-11132025D01*
X6993096Y-11189168D01*
X6983573Y-11208216D01*
X6974049Y-11217739D01*
X6955001Y-11227263D01*
X6916906Y-11227263D01*
X6897858Y-11217739D01*
X7107382Y-11227263D02*
X7088335Y-11217739D01*
X7078811Y-11198692D01*
X7078811Y-11027263D01*
X7269287Y-11227263D02*
X7269287Y-11122501D01*
X7259763Y-11103454D01*
X7240716Y-11093930D01*
X7202620Y-11093930D01*
X7183573Y-11103454D01*
X7269287Y-11217739D02*
X7250239Y-11227263D01*
X7202620Y-11227263D01*
X7183573Y-11217739D01*
X7174049Y-11198692D01*
X7174049Y-11179644D01*
X7183573Y-11160597D01*
X7202620Y-11151073D01*
X7250239Y-11151073D01*
X7269287Y-11141549D01*
X7335954Y-11093930D02*
X7412144Y-11093930D01*
X7364525Y-11027263D02*
X7364525Y-11198692D01*
X7374049Y-11217739D01*
X7393096Y-11227263D01*
X7412144Y-11227263D01*
X7555001Y-11217739D02*
X7535954Y-11227263D01*
X7497858Y-11227263D01*
X7478811Y-11217739D01*
X7469287Y-11198692D01*
X7469287Y-11122501D01*
X7478811Y-11103454D01*
X7497858Y-11093930D01*
X7535954Y-11093930D01*
X7555001Y-11103454D01*
X7564525Y-11122501D01*
X7564525Y-11141549D01*
X7469287Y-11160597D01*
X7735954Y-11227263D02*
X7735954Y-11027263D01*
X7735954Y-11217739D02*
X7716906Y-11227263D01*
X7678811Y-11227263D01*
X7659763Y-11217739D01*
X7650239Y-11208216D01*
X7640716Y-11189168D01*
X7640716Y-11132025D01*
X7650239Y-11112978D01*
X7659763Y-11103454D01*
X7678811Y-11093930D01*
X7716906Y-11093930D01*
X7735954Y-11103454D01*
X7812144Y-11303454D02*
X7821668Y-11293930D01*
X7840716Y-11265358D01*
X7850239Y-11246311D01*
X7859763Y-11217739D01*
X7869287Y-11170120D01*
X7869287Y-11132025D01*
X7859763Y-11084406D01*
X7850239Y-11055835D01*
X7840716Y-11036787D01*
X7821668Y-11008216D01*
X7812144Y-10998692D01*
D14*
X1136102Y-11315697D02*
X1136102Y-11485877D01*
X1051012Y-11400787D02*
X1221192Y-11400787D01*
D11*
X1583573Y-11491263D02*
X1469287Y-11491263D01*
X1526430Y-11491263D02*
X1526430Y-11291263D01*
X1507382Y-11319835D01*
X1488335Y-11338882D01*
X1469287Y-11348406D01*
X1669287Y-11472216D02*
X1678811Y-11481739D01*
X1669287Y-11491263D01*
X1659763Y-11481739D01*
X1669287Y-11472216D01*
X1669287Y-11491263D01*
X1745477Y-11291263D02*
X1878811Y-11291263D01*
X1793096Y-11491263D01*
X1993096Y-11291263D02*
X2012144Y-11291263D01*
X2031192Y-11300787D01*
X2040716Y-11310311D01*
X2050239Y-11329358D01*
X2059763Y-11367454D01*
X2059763Y-11415073D01*
X2050239Y-11453168D01*
X2040716Y-11472216D01*
X2031192Y-11481739D01*
X2012144Y-11491263D01*
X1993096Y-11491263D01*
X1974049Y-11481739D01*
X1964525Y-11472216D01*
X1955001Y-11453168D01*
X1945477Y-11415073D01*
X1945477Y-11367454D01*
X1955001Y-11329358D01*
X1964525Y-11310311D01*
X1974049Y-11300787D01*
X1993096Y-11291263D01*
X2135954Y-11310311D02*
X2145478Y-11300787D01*
X2164525Y-11291263D01*
X2212144Y-11291263D01*
X2231192Y-11300787D01*
X2240716Y-11310311D01*
X2250239Y-11329358D01*
X2250239Y-11348406D01*
X2240716Y-11376977D01*
X2126430Y-11491263D01*
X2250239Y-11491263D01*
X2335954Y-11491263D02*
X2335954Y-11357930D01*
X2335954Y-11376977D02*
X2345478Y-11367454D01*
X2364525Y-11357930D01*
X2393097Y-11357930D01*
X2412144Y-11367454D01*
X2421668Y-11386501D01*
X2421668Y-11491263D01*
X2421668Y-11386501D02*
X2431192Y-11367454D01*
X2450239Y-11357930D01*
X2478811Y-11357930D01*
X2497858Y-11367454D01*
X2507382Y-11386501D01*
X2507382Y-11491263D01*
X2602620Y-11491263D02*
X2602620Y-11357930D01*
X2602620Y-11376977D02*
X2612144Y-11367454D01*
X2631192Y-11357930D01*
X2659763Y-11357930D01*
X2678811Y-11367454D01*
X2688335Y-11386501D01*
X2688335Y-11491263D01*
X2688335Y-11386501D02*
X2697858Y-11367454D01*
X2716906Y-11357930D01*
X2745478Y-11357930D01*
X2764525Y-11367454D01*
X2774049Y-11386501D01*
X2774049Y-11491263D01*
X3164525Y-11281739D02*
X2993096Y-11538882D01*
X3421668Y-11291263D02*
X3440716Y-11291263D01*
X3459763Y-11300787D01*
X3469287Y-11310311D01*
X3478811Y-11329358D01*
X3488335Y-11367454D01*
X3488335Y-11415073D01*
X3478811Y-11453168D01*
X3469287Y-11472216D01*
X3459763Y-11481739D01*
X3440716Y-11491263D01*
X3421668Y-11491263D01*
X3402620Y-11481739D01*
X3393096Y-11472216D01*
X3383573Y-11453168D01*
X3374049Y-11415073D01*
X3374049Y-11367454D01*
X3383573Y-11329358D01*
X3393096Y-11310311D01*
X3402620Y-11300787D01*
X3421668Y-11291263D01*
X3574049Y-11472216D02*
X3583573Y-11481739D01*
X3574049Y-11491263D01*
X3564525Y-11481739D01*
X3574049Y-11472216D01*
X3574049Y-11491263D01*
X3707382Y-11291263D02*
X3726430Y-11291263D01*
X3745477Y-11300787D01*
X3755001Y-11310311D01*
X3764525Y-11329358D01*
X3774049Y-11367454D01*
X3774049Y-11415073D01*
X3764525Y-11453168D01*
X3755001Y-11472216D01*
X3745477Y-11481739D01*
X3726430Y-11491263D01*
X3707382Y-11491263D01*
X3688335Y-11481739D01*
X3678811Y-11472216D01*
X3669287Y-11453168D01*
X3659763Y-11415073D01*
X3659763Y-11367454D01*
X3669287Y-11329358D01*
X3678811Y-11310311D01*
X3688335Y-11300787D01*
X3707382Y-11291263D01*
X3945477Y-11291263D02*
X3907382Y-11291263D01*
X3888335Y-11300787D01*
X3878811Y-11310311D01*
X3859763Y-11338882D01*
X3850239Y-11376977D01*
X3850239Y-11453168D01*
X3859763Y-11472216D01*
X3869287Y-11481739D01*
X3888335Y-11491263D01*
X3926430Y-11491263D01*
X3945477Y-11481739D01*
X3955001Y-11472216D01*
X3964525Y-11453168D01*
X3964525Y-11405549D01*
X3955001Y-11386501D01*
X3945477Y-11376977D01*
X3926430Y-11367454D01*
X3888335Y-11367454D01*
X3869287Y-11376977D01*
X3859763Y-11386501D01*
X3850239Y-11405549D01*
X4031192Y-11291263D02*
X4164525Y-11291263D01*
X4078811Y-11491263D01*
X4278811Y-11291263D02*
X4297858Y-11291263D01*
X4316906Y-11300787D01*
X4326430Y-11310311D01*
X4335954Y-11329358D01*
X4345478Y-11367454D01*
X4345478Y-11415073D01*
X4335954Y-11453168D01*
X4326430Y-11472216D01*
X4316906Y-11481739D01*
X4297858Y-11491263D01*
X4278811Y-11491263D01*
X4259763Y-11481739D01*
X4250239Y-11472216D01*
X4240716Y-11453168D01*
X4231192Y-11415073D01*
X4231192Y-11367454D01*
X4240716Y-11329358D01*
X4250239Y-11310311D01*
X4259763Y-11300787D01*
X4278811Y-11291263D01*
X4421668Y-11291263D02*
X4421668Y-11329358D01*
X4497858Y-11291263D02*
X4497858Y-11329358D01*
X4793097Y-11567454D02*
X4783573Y-11557930D01*
X4764525Y-11529358D01*
X4755001Y-11510311D01*
X4745478Y-11481739D01*
X4735954Y-11434120D01*
X4735954Y-11396025D01*
X4745478Y-11348406D01*
X4755001Y-11319835D01*
X4764525Y-11300787D01*
X4783573Y-11272216D01*
X4793097Y-11262692D01*
X4850239Y-11291263D02*
X4974049Y-11291263D01*
X4907382Y-11367454D01*
X4935954Y-11367454D01*
X4955001Y-11376977D01*
X4964525Y-11386501D01*
X4974049Y-11405549D01*
X4974049Y-11453168D01*
X4964525Y-11472216D01*
X4955001Y-11481739D01*
X4935954Y-11491263D01*
X4878811Y-11491263D01*
X4859763Y-11481739D01*
X4850239Y-11472216D01*
X5145478Y-11291263D02*
X5107382Y-11291263D01*
X5088335Y-11300787D01*
X5078811Y-11310311D01*
X5059763Y-11338882D01*
X5050239Y-11376977D01*
X5050239Y-11453168D01*
X5059763Y-11472216D01*
X5069287Y-11481739D01*
X5088335Y-11491263D01*
X5126430Y-11491263D01*
X5145478Y-11481739D01*
X5155001Y-11472216D01*
X5164525Y-11453168D01*
X5164525Y-11405549D01*
X5155001Y-11386501D01*
X5145478Y-11376977D01*
X5126430Y-11367454D01*
X5088335Y-11367454D01*
X5069287Y-11376977D01*
X5059763Y-11386501D01*
X5050239Y-11405549D01*
X5402620Y-11491263D02*
X5402620Y-11291263D01*
X5488335Y-11491263D02*
X5488335Y-11386501D01*
X5478811Y-11367454D01*
X5459763Y-11357930D01*
X5431192Y-11357930D01*
X5412144Y-11367454D01*
X5402620Y-11376977D01*
X5612144Y-11491263D02*
X5593096Y-11481739D01*
X5583573Y-11472216D01*
X5574049Y-11453168D01*
X5574049Y-11396025D01*
X5583573Y-11376977D01*
X5593096Y-11367454D01*
X5612144Y-11357930D01*
X5640716Y-11357930D01*
X5659763Y-11367454D01*
X5669287Y-11376977D01*
X5678811Y-11396025D01*
X5678811Y-11453168D01*
X5669287Y-11472216D01*
X5659763Y-11481739D01*
X5640716Y-11491263D01*
X5612144Y-11491263D01*
X5793096Y-11491263D02*
X5774049Y-11481739D01*
X5764525Y-11462692D01*
X5764525Y-11291263D01*
X5945477Y-11481739D02*
X5926430Y-11491263D01*
X5888335Y-11491263D01*
X5869287Y-11481739D01*
X5859763Y-11462692D01*
X5859763Y-11386501D01*
X5869287Y-11367454D01*
X5888335Y-11357930D01*
X5926430Y-11357930D01*
X5945477Y-11367454D01*
X5955001Y-11386501D01*
X5955001Y-11405549D01*
X5859763Y-11424597D01*
X6031192Y-11481739D02*
X6050239Y-11491263D01*
X6088335Y-11491263D01*
X6107382Y-11481739D01*
X6116906Y-11462692D01*
X6116906Y-11453168D01*
X6107382Y-11434120D01*
X6088335Y-11424597D01*
X6059763Y-11424597D01*
X6040716Y-11415073D01*
X6031192Y-11396025D01*
X6031192Y-11386501D01*
X6040716Y-11367454D01*
X6059763Y-11357930D01*
X6088335Y-11357930D01*
X6107382Y-11367454D01*
X6183573Y-11567454D02*
X6193096Y-11557930D01*
X6212144Y-11529358D01*
X6221668Y-11510311D01*
X6231192Y-11481739D01*
X6240716Y-11434120D01*
X6240716Y-11396025D01*
X6231192Y-11348406D01*
X6221668Y-11319835D01*
X6212144Y-11300787D01*
X6193096Y-11272216D01*
X6183573Y-11262692D01*
X6545477Y-11567454D02*
X6535954Y-11557930D01*
X6516906Y-11529358D01*
X6507382Y-11510311D01*
X6497858Y-11481739D01*
X6488335Y-11434120D01*
X6488335Y-11396025D01*
X6497858Y-11348406D01*
X6507382Y-11319835D01*
X6516906Y-11300787D01*
X6535954Y-11272216D01*
X6545477Y-11262692D01*
X6621668Y-11357930D02*
X6621668Y-11491263D01*
X6621668Y-11376977D02*
X6631192Y-11367454D01*
X6650239Y-11357930D01*
X6678811Y-11357930D01*
X6697858Y-11367454D01*
X6707382Y-11386501D01*
X6707382Y-11491263D01*
X6831192Y-11491263D02*
X6812144Y-11481739D01*
X6802620Y-11472216D01*
X6793096Y-11453168D01*
X6793096Y-11396025D01*
X6802620Y-11376977D01*
X6812144Y-11367454D01*
X6831192Y-11357930D01*
X6859763Y-11357930D01*
X6878811Y-11367454D01*
X6888335Y-11376977D01*
X6897858Y-11396025D01*
X6897858Y-11453168D01*
X6888335Y-11472216D01*
X6878811Y-11481739D01*
X6859763Y-11491263D01*
X6831192Y-11491263D01*
X6955001Y-11357930D02*
X7031192Y-11357930D01*
X6983573Y-11291263D02*
X6983573Y-11462692D01*
X6993096Y-11481739D01*
X7012144Y-11491263D01*
X7031192Y-11491263D01*
X7250239Y-11357930D02*
X7250239Y-11557930D01*
X7250239Y-11367454D02*
X7269287Y-11357930D01*
X7307382Y-11357930D01*
X7326430Y-11367454D01*
X7335954Y-11376977D01*
X7345477Y-11396025D01*
X7345477Y-11453168D01*
X7335954Y-11472216D01*
X7326430Y-11481739D01*
X7307382Y-11491263D01*
X7269287Y-11491263D01*
X7250239Y-11481739D01*
X7459763Y-11491263D02*
X7440716Y-11481739D01*
X7431192Y-11462692D01*
X7431192Y-11291263D01*
X7621668Y-11491263D02*
X7621668Y-11386501D01*
X7612144Y-11367454D01*
X7593096Y-11357930D01*
X7555001Y-11357930D01*
X7535954Y-11367454D01*
X7621668Y-11481739D02*
X7602620Y-11491263D01*
X7555001Y-11491263D01*
X7535954Y-11481739D01*
X7526430Y-11462692D01*
X7526430Y-11443644D01*
X7535954Y-11424597D01*
X7555001Y-11415073D01*
X7602620Y-11415073D01*
X7621668Y-11405549D01*
X7688335Y-11357930D02*
X7764525Y-11357930D01*
X7716906Y-11291263D02*
X7716906Y-11462692D01*
X7726430Y-11481739D01*
X7745477Y-11491263D01*
X7764525Y-11491263D01*
X7907382Y-11481739D02*
X7888335Y-11491263D01*
X7850239Y-11491263D01*
X7831192Y-11481739D01*
X7821668Y-11462692D01*
X7821668Y-11386501D01*
X7831192Y-11367454D01*
X7850239Y-11357930D01*
X7888335Y-11357930D01*
X7907382Y-11367454D01*
X7916906Y-11386501D01*
X7916906Y-11405549D01*
X7821668Y-11424597D01*
X8088335Y-11491263D02*
X8088335Y-11291263D01*
X8088335Y-11481739D02*
X8069287Y-11491263D01*
X8031192Y-11491263D01*
X8012144Y-11481739D01*
X8002620Y-11472216D01*
X7993096Y-11453168D01*
X7993096Y-11396025D01*
X8002620Y-11376977D01*
X8012144Y-11367454D01*
X8031192Y-11357930D01*
X8069287Y-11357930D01*
X8088335Y-11367454D01*
X8164525Y-11567454D02*
X8174049Y-11557930D01*
X8193096Y-11529358D01*
X8202620Y-11510311D01*
X8212144Y-11481739D01*
X8221668Y-11434120D01*
X8221668Y-11396025D01*
X8212144Y-11348406D01*
X8202620Y-11319835D01*
X8193096Y-11300787D01*
X8174049Y-11272216D01*
X8164525Y-11262692D01*
X1191903Y-11761678D02*
X1191903Y-11620256D01*
X1050480Y-11620256D01*
X1050480Y-11761678D01*
X1191903Y-11761678D01*
X1459763Y-11581443D02*
X1583573Y-11581443D01*
X1516906Y-11657634D01*
X1545477Y-11657634D01*
X1564525Y-11667157D01*
X1574049Y-11676681D01*
X1583573Y-11695729D01*
X1583573Y-11743348D01*
X1574049Y-11762396D01*
X1564525Y-11771919D01*
X1545477Y-11781443D01*
X1488335Y-11781443D01*
X1469287Y-11771919D01*
X1459763Y-11762396D01*
X1669287Y-11762396D02*
X1678811Y-11771919D01*
X1669287Y-11781443D01*
X1659763Y-11771919D01*
X1669287Y-11762396D01*
X1669287Y-11781443D01*
X1802620Y-11581443D02*
X1821668Y-11581443D01*
X1840716Y-11590967D01*
X1850239Y-11600491D01*
X1859763Y-11619538D01*
X1869287Y-11657634D01*
X1869287Y-11705253D01*
X1859763Y-11743348D01*
X1850239Y-11762396D01*
X1840716Y-11771919D01*
X1821668Y-11781443D01*
X1802620Y-11781443D01*
X1783573Y-11771919D01*
X1774049Y-11762396D01*
X1764525Y-11743348D01*
X1755001Y-11705253D01*
X1755001Y-11657634D01*
X1764525Y-11619538D01*
X1774049Y-11600491D01*
X1783573Y-11590967D01*
X1802620Y-11581443D01*
X1993096Y-11581443D02*
X2012144Y-11581443D01*
X2031192Y-11590967D01*
X2040716Y-11600491D01*
X2050239Y-11619538D01*
X2059763Y-11657634D01*
X2059763Y-11705253D01*
X2050239Y-11743348D01*
X2040716Y-11762396D01*
X2031192Y-11771919D01*
X2012144Y-11781443D01*
X1993096Y-11781443D01*
X1974049Y-11771919D01*
X1964525Y-11762396D01*
X1955001Y-11743348D01*
X1945477Y-11705253D01*
X1945477Y-11657634D01*
X1955001Y-11619538D01*
X1964525Y-11600491D01*
X1974049Y-11590967D01*
X1993096Y-11581443D01*
X2183573Y-11581443D02*
X2202620Y-11581443D01*
X2221668Y-11590967D01*
X2231192Y-11600491D01*
X2240716Y-11619538D01*
X2250239Y-11657634D01*
X2250239Y-11705253D01*
X2240716Y-11743348D01*
X2231192Y-11762396D01*
X2221668Y-11771919D01*
X2202620Y-11781443D01*
X2183573Y-11781443D01*
X2164525Y-11771919D01*
X2155001Y-11762396D01*
X2145478Y-11743348D01*
X2135954Y-11705253D01*
X2135954Y-11657634D01*
X2145478Y-11619538D01*
X2155001Y-11600491D01*
X2164525Y-11590967D01*
X2183573Y-11581443D01*
X2335954Y-11781443D02*
X2335954Y-11648110D01*
X2335954Y-11667157D02*
X2345478Y-11657634D01*
X2364525Y-11648110D01*
X2393097Y-11648110D01*
X2412144Y-11657634D01*
X2421668Y-11676681D01*
X2421668Y-11781443D01*
X2421668Y-11676681D02*
X2431192Y-11657634D01*
X2450239Y-11648110D01*
X2478811Y-11648110D01*
X2497858Y-11657634D01*
X2507382Y-11676681D01*
X2507382Y-11781443D01*
X2602620Y-11781443D02*
X2602620Y-11648110D01*
X2602620Y-11667157D02*
X2612144Y-11657634D01*
X2631192Y-11648110D01*
X2659763Y-11648110D01*
X2678811Y-11657634D01*
X2688335Y-11676681D01*
X2688335Y-11781443D01*
X2688335Y-11676681D02*
X2697858Y-11657634D01*
X2716906Y-11648110D01*
X2745478Y-11648110D01*
X2764525Y-11657634D01*
X2774049Y-11676681D01*
X2774049Y-11781443D01*
X3164525Y-11571919D02*
X2993096Y-11829062D01*
X3421668Y-11581443D02*
X3440716Y-11581443D01*
X3459763Y-11590967D01*
X3469287Y-11600491D01*
X3478811Y-11619538D01*
X3488335Y-11657634D01*
X3488335Y-11705253D01*
X3478811Y-11743348D01*
X3469287Y-11762396D01*
X3459763Y-11771919D01*
X3440716Y-11781443D01*
X3421668Y-11781443D01*
X3402620Y-11771919D01*
X3393096Y-11762396D01*
X3383573Y-11743348D01*
X3374049Y-11705253D01*
X3374049Y-11657634D01*
X3383573Y-11619538D01*
X3393096Y-11600491D01*
X3402620Y-11590967D01*
X3421668Y-11581443D01*
X3574049Y-11762396D02*
X3583573Y-11771919D01*
X3574049Y-11781443D01*
X3564525Y-11771919D01*
X3574049Y-11762396D01*
X3574049Y-11781443D01*
X3774049Y-11781443D02*
X3659763Y-11781443D01*
X3716906Y-11781443D02*
X3716906Y-11581443D01*
X3697858Y-11610015D01*
X3678811Y-11629062D01*
X3659763Y-11638586D01*
X3964525Y-11781443D02*
X3850239Y-11781443D01*
X3907382Y-11781443D02*
X3907382Y-11581443D01*
X3888335Y-11610015D01*
X3869287Y-11629062D01*
X3850239Y-11638586D01*
X4078811Y-11667157D02*
X4059763Y-11657634D01*
X4050239Y-11648110D01*
X4040716Y-11629062D01*
X4040716Y-11619538D01*
X4050239Y-11600491D01*
X4059763Y-11590967D01*
X4078811Y-11581443D01*
X4116906Y-11581443D01*
X4135954Y-11590967D01*
X4145477Y-11600491D01*
X4155001Y-11619538D01*
X4155001Y-11629062D01*
X4145477Y-11648110D01*
X4135954Y-11657634D01*
X4116906Y-11667157D01*
X4078811Y-11667157D01*
X4059763Y-11676681D01*
X4050239Y-11686205D01*
X4040716Y-11705253D01*
X4040716Y-11743348D01*
X4050239Y-11762396D01*
X4059763Y-11771919D01*
X4078811Y-11781443D01*
X4116906Y-11781443D01*
X4135954Y-11771919D01*
X4145477Y-11762396D01*
X4155001Y-11743348D01*
X4155001Y-11705253D01*
X4145477Y-11686205D01*
X4135954Y-11676681D01*
X4116906Y-11667157D01*
X4345478Y-11781443D02*
X4231192Y-11781443D01*
X4288335Y-11781443D02*
X4288335Y-11581443D01*
X4269287Y-11610015D01*
X4250239Y-11629062D01*
X4231192Y-11638586D01*
X4421668Y-11581443D02*
X4421668Y-11619538D01*
X4497858Y-11581443D02*
X4497858Y-11619538D01*
X4793097Y-11857634D02*
X4783573Y-11848110D01*
X4764525Y-11819538D01*
X4755001Y-11800491D01*
X4745478Y-11771919D01*
X4735954Y-11724300D01*
X4735954Y-11686205D01*
X4745478Y-11638586D01*
X4755001Y-11610015D01*
X4764525Y-11590967D01*
X4783573Y-11562396D01*
X4793097Y-11552872D01*
X4964525Y-11581443D02*
X4869287Y-11581443D01*
X4859763Y-11676681D01*
X4869287Y-11667157D01*
X4888335Y-11657634D01*
X4935954Y-11657634D01*
X4955001Y-11667157D01*
X4964525Y-11676681D01*
X4974049Y-11695729D01*
X4974049Y-11743348D01*
X4964525Y-11762396D01*
X4955001Y-11771919D01*
X4935954Y-11781443D01*
X4888335Y-11781443D01*
X4869287Y-11771919D01*
X4859763Y-11762396D01*
X5145478Y-11648110D02*
X5145478Y-11781443D01*
X5097858Y-11571919D02*
X5050239Y-11714777D01*
X5174049Y-11714777D01*
X5402620Y-11781443D02*
X5402620Y-11581443D01*
X5488335Y-11781443D02*
X5488335Y-11676681D01*
X5478811Y-11657634D01*
X5459763Y-11648110D01*
X5431192Y-11648110D01*
X5412144Y-11657634D01*
X5402620Y-11667157D01*
X5612144Y-11781443D02*
X5593096Y-11771919D01*
X5583573Y-11762396D01*
X5574049Y-11743348D01*
X5574049Y-11686205D01*
X5583573Y-11667157D01*
X5593096Y-11657634D01*
X5612144Y-11648110D01*
X5640716Y-11648110D01*
X5659763Y-11657634D01*
X5669287Y-11667157D01*
X5678811Y-11686205D01*
X5678811Y-11743348D01*
X5669287Y-11762396D01*
X5659763Y-11771919D01*
X5640716Y-11781443D01*
X5612144Y-11781443D01*
X5793096Y-11781443D02*
X5774049Y-11771919D01*
X5764525Y-11752872D01*
X5764525Y-11581443D01*
X5945477Y-11771919D02*
X5926430Y-11781443D01*
X5888335Y-11781443D01*
X5869287Y-11771919D01*
X5859763Y-11752872D01*
X5859763Y-11676681D01*
X5869287Y-11657634D01*
X5888335Y-11648110D01*
X5926430Y-11648110D01*
X5945477Y-11657634D01*
X5955001Y-11676681D01*
X5955001Y-11695729D01*
X5859763Y-11714777D01*
X6031192Y-11771919D02*
X6050239Y-11781443D01*
X6088335Y-11781443D01*
X6107382Y-11771919D01*
X6116906Y-11752872D01*
X6116906Y-11743348D01*
X6107382Y-11724300D01*
X6088335Y-11714777D01*
X6059763Y-11714777D01*
X6040716Y-11705253D01*
X6031192Y-11686205D01*
X6031192Y-11676681D01*
X6040716Y-11657634D01*
X6059763Y-11648110D01*
X6088335Y-11648110D01*
X6107382Y-11657634D01*
X6183573Y-11857634D02*
X6193096Y-11848110D01*
X6212144Y-11819538D01*
X6221668Y-11800491D01*
X6231192Y-11771919D01*
X6240716Y-11724300D01*
X6240716Y-11686205D01*
X6231192Y-11638586D01*
X6221668Y-11610015D01*
X6212144Y-11590967D01*
X6193096Y-11562396D01*
X6183573Y-11552872D01*
X6545477Y-11857634D02*
X6535954Y-11848110D01*
X6516906Y-11819538D01*
X6507382Y-11800491D01*
X6497858Y-11771919D01*
X6488335Y-11724300D01*
X6488335Y-11686205D01*
X6497858Y-11638586D01*
X6507382Y-11610015D01*
X6516906Y-11590967D01*
X6535954Y-11562396D01*
X6545477Y-11552872D01*
X6621668Y-11648110D02*
X6621668Y-11781443D01*
X6621668Y-11667157D02*
X6631192Y-11657634D01*
X6650239Y-11648110D01*
X6678811Y-11648110D01*
X6697858Y-11657634D01*
X6707382Y-11676681D01*
X6707382Y-11781443D01*
X6831192Y-11781443D02*
X6812144Y-11771919D01*
X6802620Y-11762396D01*
X6793096Y-11743348D01*
X6793096Y-11686205D01*
X6802620Y-11667157D01*
X6812144Y-11657634D01*
X6831192Y-11648110D01*
X6859763Y-11648110D01*
X6878811Y-11657634D01*
X6888335Y-11667157D01*
X6897858Y-11686205D01*
X6897858Y-11743348D01*
X6888335Y-11762396D01*
X6878811Y-11771919D01*
X6859763Y-11781443D01*
X6831192Y-11781443D01*
X6955001Y-11648110D02*
X7031192Y-11648110D01*
X6983573Y-11581443D02*
X6983573Y-11752872D01*
X6993096Y-11771919D01*
X7012144Y-11781443D01*
X7031192Y-11781443D01*
X7250239Y-11648110D02*
X7250239Y-11848110D01*
X7250239Y-11657634D02*
X7269287Y-11648110D01*
X7307382Y-11648110D01*
X7326430Y-11657634D01*
X7335954Y-11667157D01*
X7345477Y-11686205D01*
X7345477Y-11743348D01*
X7335954Y-11762396D01*
X7326430Y-11771919D01*
X7307382Y-11781443D01*
X7269287Y-11781443D01*
X7250239Y-11771919D01*
X7459763Y-11781443D02*
X7440716Y-11771919D01*
X7431192Y-11752872D01*
X7431192Y-11581443D01*
X7621668Y-11781443D02*
X7621668Y-11676681D01*
X7612144Y-11657634D01*
X7593096Y-11648110D01*
X7555001Y-11648110D01*
X7535954Y-11657634D01*
X7621668Y-11771919D02*
X7602620Y-11781443D01*
X7555001Y-11781443D01*
X7535954Y-11771919D01*
X7526430Y-11752872D01*
X7526430Y-11733824D01*
X7535954Y-11714777D01*
X7555001Y-11705253D01*
X7602620Y-11705253D01*
X7621668Y-11695729D01*
X7688335Y-11648110D02*
X7764525Y-11648110D01*
X7716906Y-11581443D02*
X7716906Y-11752872D01*
X7726430Y-11771919D01*
X7745477Y-11781443D01*
X7764525Y-11781443D01*
X7907382Y-11771919D02*
X7888335Y-11781443D01*
X7850239Y-11781443D01*
X7831192Y-11771919D01*
X7821668Y-11752872D01*
X7821668Y-11676681D01*
X7831192Y-11657634D01*
X7850239Y-11648110D01*
X7888335Y-11648110D01*
X7907382Y-11657634D01*
X7916906Y-11676681D01*
X7916906Y-11695729D01*
X7821668Y-11714777D01*
X8088335Y-11781443D02*
X8088335Y-11581443D01*
X8088335Y-11771919D02*
X8069287Y-11781443D01*
X8031192Y-11781443D01*
X8012144Y-11771919D01*
X8002620Y-11762396D01*
X7993096Y-11743348D01*
X7993096Y-11686205D01*
X8002620Y-11667157D01*
X8012144Y-11657634D01*
X8031192Y-11648110D01*
X8069287Y-11648110D01*
X8088335Y-11657634D01*
X8164525Y-11857634D02*
X8174049Y-11848110D01*
X8193096Y-11819538D01*
X8202620Y-11800491D01*
X8212144Y-11771919D01*
X8221668Y-11724300D01*
X8221668Y-11686205D01*
X8212144Y-11638586D01*
X8202620Y-11610015D01*
X8193096Y-11590967D01*
X8174049Y-11562396D01*
X8164525Y-11552872D01*
X1121192Y-12110967D02*
X1221192Y-12010967D01*
X1121192Y-11910967D01*
X1021192Y-12010967D01*
X1121192Y-12110967D01*
X1459763Y-11901443D02*
X1583573Y-11901443D01*
X1516906Y-11977634D01*
X1545477Y-11977634D01*
X1564525Y-11987157D01*
X1574049Y-11996681D01*
X1583573Y-12015729D01*
X1583573Y-12063348D01*
X1574049Y-12082396D01*
X1564525Y-12091919D01*
X1545477Y-12101443D01*
X1488335Y-12101443D01*
X1469287Y-12091919D01*
X1459763Y-12082396D01*
X1669287Y-12082396D02*
X1678811Y-12091919D01*
X1669287Y-12101443D01*
X1659763Y-12091919D01*
X1669287Y-12082396D01*
X1669287Y-12101443D01*
X1850239Y-11968110D02*
X1850239Y-12101443D01*
X1802620Y-11891919D02*
X1755001Y-12034777D01*
X1878811Y-12034777D01*
X1945477Y-11920491D02*
X1955001Y-11910967D01*
X1974049Y-11901443D01*
X2021668Y-11901443D01*
X2040716Y-11910967D01*
X2050239Y-11920491D01*
X2059763Y-11939538D01*
X2059763Y-11958586D01*
X2050239Y-11987157D01*
X1935954Y-12101443D01*
X2059763Y-12101443D01*
X2155001Y-12101443D02*
X2193097Y-12101443D01*
X2212144Y-12091919D01*
X2221668Y-12082396D01*
X2240716Y-12053824D01*
X2250239Y-12015729D01*
X2250239Y-11939538D01*
X2240716Y-11920491D01*
X2231192Y-11910967D01*
X2212144Y-11901443D01*
X2174049Y-11901443D01*
X2155001Y-11910967D01*
X2145478Y-11920491D01*
X2135954Y-11939538D01*
X2135954Y-11987157D01*
X2145478Y-12006205D01*
X2155001Y-12015729D01*
X2174049Y-12025253D01*
X2212144Y-12025253D01*
X2231192Y-12015729D01*
X2240716Y-12006205D01*
X2250239Y-11987157D01*
X2335954Y-12101443D02*
X2335954Y-11968110D01*
X2335954Y-11987157D02*
X2345478Y-11977634D01*
X2364525Y-11968110D01*
X2393097Y-11968110D01*
X2412144Y-11977634D01*
X2421668Y-11996681D01*
X2421668Y-12101443D01*
X2421668Y-11996681D02*
X2431192Y-11977634D01*
X2450239Y-11968110D01*
X2478811Y-11968110D01*
X2497858Y-11977634D01*
X2507382Y-11996681D01*
X2507382Y-12101443D01*
X2602620Y-12101443D02*
X2602620Y-11968110D01*
X2602620Y-11987157D02*
X2612144Y-11977634D01*
X2631192Y-11968110D01*
X2659763Y-11968110D01*
X2678811Y-11977634D01*
X2688335Y-11996681D01*
X2688335Y-12101443D01*
X2688335Y-11996681D02*
X2697858Y-11977634D01*
X2716906Y-11968110D01*
X2745478Y-11968110D01*
X2764525Y-11977634D01*
X2774049Y-11996681D01*
X2774049Y-12101443D01*
X3164525Y-11891919D02*
X2993096Y-12149062D01*
X3421668Y-11901443D02*
X3440716Y-11901443D01*
X3459763Y-11910967D01*
X3469287Y-11920491D01*
X3478811Y-11939538D01*
X3488335Y-11977634D01*
X3488335Y-12025253D01*
X3478811Y-12063348D01*
X3469287Y-12082396D01*
X3459763Y-12091919D01*
X3440716Y-12101443D01*
X3421668Y-12101443D01*
X3402620Y-12091919D01*
X3393096Y-12082396D01*
X3383573Y-12063348D01*
X3374049Y-12025253D01*
X3374049Y-11977634D01*
X3383573Y-11939538D01*
X3393096Y-11920491D01*
X3402620Y-11910967D01*
X3421668Y-11901443D01*
X3574049Y-12082396D02*
X3583573Y-12091919D01*
X3574049Y-12101443D01*
X3564525Y-12091919D01*
X3574049Y-12082396D01*
X3574049Y-12101443D01*
X3774049Y-12101443D02*
X3659763Y-12101443D01*
X3716906Y-12101443D02*
X3716906Y-11901443D01*
X3697858Y-11930015D01*
X3678811Y-11949062D01*
X3659763Y-11958586D01*
X3840716Y-11901443D02*
X3964525Y-11901443D01*
X3897858Y-11977634D01*
X3926430Y-11977634D01*
X3945477Y-11987157D01*
X3955001Y-11996681D01*
X3964525Y-12015729D01*
X3964525Y-12063348D01*
X3955001Y-12082396D01*
X3945477Y-12091919D01*
X3926430Y-12101443D01*
X3869287Y-12101443D01*
X3850239Y-12091919D01*
X3840716Y-12082396D01*
X4145477Y-11901443D02*
X4050239Y-11901443D01*
X4040716Y-11996681D01*
X4050239Y-11987157D01*
X4069287Y-11977634D01*
X4116906Y-11977634D01*
X4135954Y-11987157D01*
X4145477Y-11996681D01*
X4155001Y-12015729D01*
X4155001Y-12063348D01*
X4145477Y-12082396D01*
X4135954Y-12091919D01*
X4116906Y-12101443D01*
X4069287Y-12101443D01*
X4050239Y-12091919D01*
X4040716Y-12082396D01*
X4278811Y-11901443D02*
X4297858Y-11901443D01*
X4316906Y-11910967D01*
X4326430Y-11920491D01*
X4335954Y-11939538D01*
X4345478Y-11977634D01*
X4345478Y-12025253D01*
X4335954Y-12063348D01*
X4326430Y-12082396D01*
X4316906Y-12091919D01*
X4297858Y-12101443D01*
X4278811Y-12101443D01*
X4259763Y-12091919D01*
X4250239Y-12082396D01*
X4240716Y-12063348D01*
X4231192Y-12025253D01*
X4231192Y-11977634D01*
X4240716Y-11939538D01*
X4250239Y-11920491D01*
X4259763Y-11910967D01*
X4278811Y-11901443D01*
X4421668Y-11901443D02*
X4421668Y-11939538D01*
X4497858Y-11901443D02*
X4497858Y-11939538D01*
X4793097Y-12177634D02*
X4783573Y-12168110D01*
X4764525Y-12139538D01*
X4755001Y-12120491D01*
X4745478Y-12091919D01*
X4735954Y-12044300D01*
X4735954Y-12006205D01*
X4745478Y-11958586D01*
X4755001Y-11930015D01*
X4764525Y-11910967D01*
X4783573Y-11882396D01*
X4793097Y-11872872D01*
X4974049Y-12101443D02*
X4859763Y-12101443D01*
X4916906Y-12101443D02*
X4916906Y-11901443D01*
X4897858Y-11930015D01*
X4878811Y-11949062D01*
X4859763Y-11958586D01*
X5088335Y-11987157D02*
X5069287Y-11977634D01*
X5059763Y-11968110D01*
X5050239Y-11949062D01*
X5050239Y-11939538D01*
X5059763Y-11920491D01*
X5069287Y-11910967D01*
X5088335Y-11901443D01*
X5126430Y-11901443D01*
X5145478Y-11910967D01*
X5155001Y-11920491D01*
X5164525Y-11939538D01*
X5164525Y-11949062D01*
X5155001Y-11968110D01*
X5145478Y-11977634D01*
X5126430Y-11987157D01*
X5088335Y-11987157D01*
X5069287Y-11996681D01*
X5059763Y-12006205D01*
X5050239Y-12025253D01*
X5050239Y-12063348D01*
X5059763Y-12082396D01*
X5069287Y-12091919D01*
X5088335Y-12101443D01*
X5126430Y-12101443D01*
X5145478Y-12091919D01*
X5155001Y-12082396D01*
X5164525Y-12063348D01*
X5164525Y-12025253D01*
X5155001Y-12006205D01*
X5145478Y-11996681D01*
X5126430Y-11987157D01*
X5402620Y-12101443D02*
X5402620Y-11901443D01*
X5488335Y-12101443D02*
X5488335Y-11996681D01*
X5478811Y-11977634D01*
X5459763Y-11968110D01*
X5431192Y-11968110D01*
X5412144Y-11977634D01*
X5402620Y-11987157D01*
X5612144Y-12101443D02*
X5593096Y-12091919D01*
X5583573Y-12082396D01*
X5574049Y-12063348D01*
X5574049Y-12006205D01*
X5583573Y-11987157D01*
X5593096Y-11977634D01*
X5612144Y-11968110D01*
X5640716Y-11968110D01*
X5659763Y-11977634D01*
X5669287Y-11987157D01*
X5678811Y-12006205D01*
X5678811Y-12063348D01*
X5669287Y-12082396D01*
X5659763Y-12091919D01*
X5640716Y-12101443D01*
X5612144Y-12101443D01*
X5793096Y-12101443D02*
X5774049Y-12091919D01*
X5764525Y-12072872D01*
X5764525Y-11901443D01*
X5945477Y-12091919D02*
X5926430Y-12101443D01*
X5888335Y-12101443D01*
X5869287Y-12091919D01*
X5859763Y-12072872D01*
X5859763Y-11996681D01*
X5869287Y-11977634D01*
X5888335Y-11968110D01*
X5926430Y-11968110D01*
X5945477Y-11977634D01*
X5955001Y-11996681D01*
X5955001Y-12015729D01*
X5859763Y-12034777D01*
X6031192Y-12091919D02*
X6050239Y-12101443D01*
X6088335Y-12101443D01*
X6107382Y-12091919D01*
X6116906Y-12072872D01*
X6116906Y-12063348D01*
X6107382Y-12044300D01*
X6088335Y-12034777D01*
X6059763Y-12034777D01*
X6040716Y-12025253D01*
X6031192Y-12006205D01*
X6031192Y-11996681D01*
X6040716Y-11977634D01*
X6059763Y-11968110D01*
X6088335Y-11968110D01*
X6107382Y-11977634D01*
X6183573Y-12177634D02*
X6193096Y-12168110D01*
X6212144Y-12139538D01*
X6221668Y-12120491D01*
X6231192Y-12091919D01*
X6240716Y-12044300D01*
X6240716Y-12006205D01*
X6231192Y-11958586D01*
X6221668Y-11930015D01*
X6212144Y-11910967D01*
X6193096Y-11882396D01*
X6183573Y-11872872D01*
X6545477Y-12177634D02*
X6535954Y-12168110D01*
X6516906Y-12139538D01*
X6507382Y-12120491D01*
X6497858Y-12091919D01*
X6488335Y-12044300D01*
X6488335Y-12006205D01*
X6497858Y-11958586D01*
X6507382Y-11930015D01*
X6516906Y-11910967D01*
X6535954Y-11882396D01*
X6545477Y-11872872D01*
X6621668Y-11968110D02*
X6621668Y-12101443D01*
X6621668Y-11987157D02*
X6631192Y-11977634D01*
X6650239Y-11968110D01*
X6678811Y-11968110D01*
X6697858Y-11977634D01*
X6707382Y-11996681D01*
X6707382Y-12101443D01*
X6831192Y-12101443D02*
X6812144Y-12091919D01*
X6802620Y-12082396D01*
X6793096Y-12063348D01*
X6793096Y-12006205D01*
X6802620Y-11987157D01*
X6812144Y-11977634D01*
X6831192Y-11968110D01*
X6859763Y-11968110D01*
X6878811Y-11977634D01*
X6888335Y-11987157D01*
X6897858Y-12006205D01*
X6897858Y-12063348D01*
X6888335Y-12082396D01*
X6878811Y-12091919D01*
X6859763Y-12101443D01*
X6831192Y-12101443D01*
X6955001Y-11968110D02*
X7031192Y-11968110D01*
X6983573Y-11901443D02*
X6983573Y-12072872D01*
X6993096Y-12091919D01*
X7012144Y-12101443D01*
X7031192Y-12101443D01*
X7250239Y-11968110D02*
X7250239Y-12168110D01*
X7250239Y-11977634D02*
X7269287Y-11968110D01*
X7307382Y-11968110D01*
X7326430Y-11977634D01*
X7335954Y-11987157D01*
X7345477Y-12006205D01*
X7345477Y-12063348D01*
X7335954Y-12082396D01*
X7326430Y-12091919D01*
X7307382Y-12101443D01*
X7269287Y-12101443D01*
X7250239Y-12091919D01*
X7459763Y-12101443D02*
X7440716Y-12091919D01*
X7431192Y-12072872D01*
X7431192Y-11901443D01*
X7621668Y-12101443D02*
X7621668Y-11996681D01*
X7612144Y-11977634D01*
X7593096Y-11968110D01*
X7555001Y-11968110D01*
X7535954Y-11977634D01*
X7621668Y-12091919D02*
X7602620Y-12101443D01*
X7555001Y-12101443D01*
X7535954Y-12091919D01*
X7526430Y-12072872D01*
X7526430Y-12053824D01*
X7535954Y-12034777D01*
X7555001Y-12025253D01*
X7602620Y-12025253D01*
X7621668Y-12015729D01*
X7688335Y-11968110D02*
X7764525Y-11968110D01*
X7716906Y-11901443D02*
X7716906Y-12072872D01*
X7726430Y-12091919D01*
X7745477Y-12101443D01*
X7764525Y-12101443D01*
X7907382Y-12091919D02*
X7888335Y-12101443D01*
X7850239Y-12101443D01*
X7831192Y-12091919D01*
X7821668Y-12072872D01*
X7821668Y-11996681D01*
X7831192Y-11977634D01*
X7850239Y-11968110D01*
X7888335Y-11968110D01*
X7907382Y-11977634D01*
X7916906Y-11996681D01*
X7916906Y-12015729D01*
X7821668Y-12034777D01*
X8088335Y-12101443D02*
X8088335Y-11901443D01*
X8088335Y-12091919D02*
X8069287Y-12101443D01*
X8031192Y-12101443D01*
X8012144Y-12091919D01*
X8002620Y-12082396D01*
X7993096Y-12063348D01*
X7993096Y-12006205D01*
X8002620Y-11987157D01*
X8012144Y-11977634D01*
X8031192Y-11968110D01*
X8069287Y-11968110D01*
X8088335Y-11977634D01*
X8164525Y-12177634D02*
X8174049Y-12168110D01*
X8193096Y-12139538D01*
X8202620Y-12120491D01*
X8212144Y-12091919D01*
X8221668Y-12044300D01*
X8221668Y-12006205D01*
X8212144Y-11958586D01*
X8202620Y-11930015D01*
X8193096Y-11910967D01*
X8174049Y-11882396D01*
X8164525Y-11872872D01*
M02*
