M48
; DRILL file {KiCad (6.0.0)} date Tue Apr 19 03:34:01 2022
; FORMAT={-:-/ absolute / inch / decimal}
; #@! TF.CreationDate,2022-04-19T03:34:01-07:00
; #@! TF.GenerationSoftware,Kicad,Pcbnew,(6.0.0)
; #@! TF.FileFunction,NonPlated,1,2,NPTH
FMAT,2
INCH
; #@! TA.AperFunction,NonPlated,NPTH,ComponentDrill
T1C0.0315
; #@! TA.AperFunction,NonPlated,NPTH,ComponentDrill
T2C0.0390
; #@! TA.AperFunction,NonPlated,NPTH,ComponentDrill
T3C0.0472
; #@! TA.AperFunction,NonPlated,NPTH,ComponentDrill
T4C0.0670
; #@! TA.AperFunction,NonPlated,NPTH,ComponentDrill
T5C0.1181
; #@! TA.AperFunction,NonPlated,NPTH,ComponentDrill
T6C0.1350
%
G90
G05
T1
X4.4068Y-2.8761
X4.4076Y-2.8769
X4.6824Y-2.8761
X4.6831Y-2.8769
T2
X0.6797Y-1.4568
X0.6797Y-2.1261
X0.6797Y-2.7954
X1.0907Y-1.4568
X1.0907Y-2.1261
X1.0907Y-2.7954
X1.3883Y-2.3226
X1.3883Y-1.6526
X1.3883Y-0.9844
X1.7994Y-2.3226
X1.7994Y-1.6526
X1.7994Y-0.9844
X2.097Y-2.0526
X2.097Y-0.7088
X2.097Y-1.3826
X2.508Y-2.0526
X2.508Y-0.7088
X2.508Y-1.3826
X2.7835Y-2.9868
X2.8057Y-0.9253
X2.8057Y-2.2626
X2.8057Y-1.5926
X3.1929Y-3.0226
X3.2167Y-0.9253
X3.2167Y-2.2626
X3.2167Y-1.5926
X3.5133Y-2.3626
X3.5135Y-1.6926
X3.5143Y-1.0237
X3.5759Y-3.0903
X3.9243Y-2.3626
X3.9246Y-1.6926
X3.9253Y-1.0237
X3.973Y-3.1967
X4.3397Y-3.3303
X4.7122Y-3.504
T3
X2.9649Y-0.573
T4
X0.6687Y-1.6222
X0.6687Y-2.2914
X0.6687Y-2.9607
X1.1017Y-1.6222
X1.1017Y-2.2914
X1.1017Y-2.9607
X1.3773Y-2.488
X1.3773Y-1.818
X1.3773Y-1.1497
X1.8104Y-2.488
X1.8104Y-1.818
X1.8104Y-1.1497
X2.086Y-2.218
X2.086Y-0.8741
X2.086Y-1.548
X2.519Y-2.218
X2.519Y-0.8741
X2.519Y-1.548
X2.7581Y-3.1505
X2.7946Y-1.0907
X2.7946Y-2.428
X2.7946Y-1.758
X3.1895Y-3.1883
X3.2277Y-1.0907
X3.2277Y-2.428
X3.2277Y-1.758
X3.5023Y-2.528
X3.5025Y-1.858
X3.5033Y-1.1891
X3.5225Y-3.2472
X3.9353Y-2.528
X3.9356Y-1.858
X3.9364Y-1.1891
X3.9408Y-3.3593
X4.2598Y-3.4755
X4.6523Y-3.6585
T5
X0.6883Y-1.7698
X0.6883Y-2.4391
X0.6883Y-3.1084
X0.8852Y-1.8564
X0.8852Y-2.5257
X0.8852Y-3.195
X1.082Y-1.7698
X1.082Y-2.4391
X1.082Y-3.1084
X1.397Y-2.6356
X1.397Y-1.9656
X1.397Y-1.2974
X1.5939Y-2.7222
X1.5939Y-2.0522
X1.5939Y-1.384
X1.7907Y-2.6356
X1.7907Y-1.9656
X1.7907Y-1.2974
X2.1057Y-2.3656
X2.1057Y-1.0218
X2.1057Y-1.6956
X2.3025Y-2.4522
X2.3025Y-1.1084
X2.3025Y-1.7822
X2.4994Y-2.3656
X2.4994Y-1.0218
X2.4994Y-1.6956
X2.7648Y-3.2993
X2.8143Y-1.2383
X2.8143Y-2.5756
X2.8143Y-1.9056
X2.9534Y-3.4028
X3.0112Y-1.3249
X3.0112Y-2.6622
X3.0112Y-1.9922
X3.157Y-3.3336
X3.208Y-1.2383
X3.208Y-2.5756
X3.208Y-1.9056
X3.5033Y-3.3949
X3.5219Y-2.6756
X3.5222Y-2.0056
X3.523Y-1.3367
X3.671Y-3.5295
X3.7188Y-2.7622
X3.719Y-2.0922
X3.7198Y-1.4233
X3.8836Y-3.4968
X3.9156Y-2.6756
X3.9159Y-2.0056
X3.9167Y-1.3367
X4.2153Y-3.6176
X4.3571Y-3.7793
X4.5721Y-3.784
T6
X0.8852Y-1.6222
X0.8852Y-2.2914
X0.8852Y-2.9607
X1.5939Y-2.488
X1.5939Y-1.818
X1.5939Y-1.1497
X2.3025Y-2.218
X2.3025Y-0.8741
X2.3025Y-1.548
X2.9738Y-3.1694
X3.0112Y-1.0907
X3.0112Y-2.428
X3.0112Y-1.758
X3.7188Y-2.528
X3.719Y-1.858
X3.7198Y-1.1891
X3.7316Y-3.3033
X4.4561Y-3.567
T0
M30
