%TF.GenerationSoftware,KiCad,Pcbnew,(6.0.0)*%
%TF.CreationDate,2022-03-12T15:50:12-08:00*%
%TF.ProjectId,half-swept,68616c66-2d73-4776-9570-742e6b696361,rev?*%
%TF.SameCoordinates,Original*%
%TF.FileFunction,Legend,Top*%
%TF.FilePolarity,Positive*%
%FSLAX46Y46*%
G04 Gerber Fmt 4.6, Leading zero omitted, Abs format (unit mm)*
G04 Created by KiCad (PCBNEW (6.0.0)) date 2022-03-12 15:50:12*
%MOMM*%
%LPD*%
G01*
G04 APERTURE LIST*
%ADD10C,0.150000*%
%ADD11C,0.100000*%
%ADD12C,0.120000*%
%ADD13C,0.200000*%
%ADD14C,0.010000*%
%ADD15C,0.381000*%
%ADD16R,1.752600X1.752600*%
%ADD17C,1.752600*%
G04 APERTURE END LIST*
D10*
%TO.C,RSW1*%
X72110714Y-19194880D02*
X71777380Y-18718690D01*
X71539285Y-19194880D02*
X71539285Y-18194880D01*
X71920238Y-18194880D01*
X72015476Y-18242500D01*
X72063095Y-18290119D01*
X72110714Y-18385357D01*
X72110714Y-18528214D01*
X72063095Y-18623452D01*
X72015476Y-18671071D01*
X71920238Y-18718690D01*
X71539285Y-18718690D01*
X72491666Y-19147261D02*
X72634523Y-19194880D01*
X72872619Y-19194880D01*
X72967857Y-19147261D01*
X73015476Y-19099642D01*
X73063095Y-19004404D01*
X73063095Y-18909166D01*
X73015476Y-18813928D01*
X72967857Y-18766309D01*
X72872619Y-18718690D01*
X72682142Y-18671071D01*
X72586904Y-18623452D01*
X72539285Y-18575833D01*
X72491666Y-18480595D01*
X72491666Y-18385357D01*
X72539285Y-18290119D01*
X72586904Y-18242500D01*
X72682142Y-18194880D01*
X72920238Y-18194880D01*
X73063095Y-18242500D01*
X73396428Y-18194880D02*
X73634523Y-19194880D01*
X73825000Y-18480595D01*
X74015476Y-19194880D01*
X74253571Y-18194880D01*
X75158333Y-19194880D02*
X74586904Y-19194880D01*
X74872619Y-19194880D02*
X74872619Y-18194880D01*
X74777380Y-18337738D01*
X74682142Y-18432976D01*
X74586904Y-18480595D01*
D11*
%TO.C,REF\u002A\u002A*%
X67095214Y-47258000D02*
X67095214Y-46877047D01*
X66761880Y-47115142D02*
X67619023Y-47115142D01*
X67714261Y-47067523D01*
X67761880Y-46972285D01*
X67761880Y-46877047D01*
X67714261Y-46162761D02*
X67761880Y-46258000D01*
X67761880Y-46448476D01*
X67714261Y-46543714D01*
X67619023Y-46591333D01*
X67238071Y-46591333D01*
X67142833Y-46543714D01*
X67095214Y-46448476D01*
X67095214Y-46258000D01*
X67142833Y-46162761D01*
X67238071Y-46115142D01*
X67333309Y-46115142D01*
X67428547Y-46591333D01*
X67095214Y-45686571D02*
X67761880Y-45686571D01*
X67190452Y-45686571D02*
X67142833Y-45638952D01*
X67095214Y-45543714D01*
X67095214Y-45400857D01*
X67142833Y-45305619D01*
X67238071Y-45258000D01*
X67761880Y-45258000D01*
X67095214Y-44924666D02*
X67095214Y-44543714D01*
X66761880Y-44781809D02*
X67619023Y-44781809D01*
X67714261Y-44734190D01*
X67761880Y-44638952D01*
X67761880Y-44543714D01*
X67761880Y-44210380D02*
X67095214Y-44210380D01*
X66761880Y-44210380D02*
X66809500Y-44258000D01*
X66857119Y-44210380D01*
X66809500Y-44162761D01*
X66761880Y-44210380D01*
X66857119Y-44210380D01*
X67095214Y-43734190D02*
X67761880Y-43734190D01*
X67190452Y-43734190D02*
X67142833Y-43686571D01*
X67095214Y-43591333D01*
X67095214Y-43448476D01*
X67142833Y-43353238D01*
X67238071Y-43305619D01*
X67761880Y-43305619D01*
X67095214Y-42400857D02*
X67904738Y-42400857D01*
X67999976Y-42448476D01*
X68047595Y-42496095D01*
X68095214Y-42591333D01*
X68095214Y-42734190D01*
X68047595Y-42829428D01*
X67714261Y-42400857D02*
X67761880Y-42496095D01*
X67761880Y-42686571D01*
X67714261Y-42781809D01*
X67666642Y-42829428D01*
X67571404Y-42877047D01*
X67285690Y-42877047D01*
X67190452Y-42829428D01*
X67142833Y-42781809D01*
X67095214Y-42686571D01*
X67095214Y-42496095D01*
X67142833Y-42400857D01*
X67031714Y-33367500D02*
X68031714Y-33367500D01*
X67079333Y-33367500D02*
X67031714Y-33272261D01*
X67031714Y-33081785D01*
X67079333Y-32986547D01*
X67126952Y-32938928D01*
X67222190Y-32891309D01*
X67507904Y-32891309D01*
X67603142Y-32938928D01*
X67650761Y-32986547D01*
X67698380Y-33081785D01*
X67698380Y-33272261D01*
X67650761Y-33367500D01*
X67031714Y-32034166D02*
X67698380Y-32034166D01*
X67031714Y-32462738D02*
X67555523Y-32462738D01*
X67650761Y-32415119D01*
X67698380Y-32319880D01*
X67698380Y-32177023D01*
X67650761Y-32081785D01*
X67603142Y-32034166D01*
X67650761Y-31129404D02*
X67698380Y-31224642D01*
X67698380Y-31415119D01*
X67650761Y-31510357D01*
X67603142Y-31557976D01*
X67507904Y-31605595D01*
X67222190Y-31605595D01*
X67126952Y-31557976D01*
X67079333Y-31510357D01*
X67031714Y-31415119D01*
X67031714Y-31224642D01*
X67079333Y-31129404D01*
X67698380Y-30700833D02*
X66698380Y-30700833D01*
X67317428Y-30605595D02*
X67698380Y-30319880D01*
X67031714Y-30319880D02*
X67412666Y-30700833D01*
D10*
%TO.C,U2*%
X107236619Y-64619607D02*
X107503285Y-64619607D01*
X107617571Y-65038654D02*
X107236619Y-65038654D01*
X107236619Y-64238654D01*
X107617571Y-64238654D01*
X108303285Y-64238654D02*
X108150904Y-64238654D01*
X108074714Y-64276750D01*
X108036619Y-64314845D01*
X107960428Y-64429130D01*
X107922333Y-64581511D01*
X107922333Y-64886273D01*
X107960428Y-64962464D01*
X107998523Y-65000559D01*
X108074714Y-65038654D01*
X108227095Y-65038654D01*
X108303285Y-65000559D01*
X108341380Y-64962464D01*
X108379476Y-64886273D01*
X108379476Y-64695797D01*
X108341380Y-64619607D01*
X108303285Y-64581511D01*
X108227095Y-64543416D01*
X108074714Y-64543416D01*
X107998523Y-64581511D01*
X107960428Y-64619607D01*
X107922333Y-64695797D01*
X117516666Y-68336750D02*
X117283333Y-68336750D01*
X117283333Y-68703416D02*
X117283333Y-68003416D01*
X117616666Y-68003416D01*
X118016666Y-68003416D02*
X118083333Y-68003416D01*
X118150000Y-68036750D01*
X118183333Y-68070083D01*
X118216666Y-68136750D01*
X118250000Y-68270083D01*
X118250000Y-68436750D01*
X118216666Y-68570083D01*
X118183333Y-68636750D01*
X118150000Y-68670083D01*
X118083333Y-68703416D01*
X118016666Y-68703416D01*
X117950000Y-68670083D01*
X117916666Y-68636750D01*
X117883333Y-68570083D01*
X117850000Y-68436750D01*
X117850000Y-68270083D01*
X117883333Y-68136750D01*
X117916666Y-68070083D01*
X117950000Y-68036750D01*
X118016666Y-68003416D01*
X107198523Y-57418654D02*
X107198523Y-56618654D01*
X107389000Y-56618654D01*
X107503285Y-56656750D01*
X107579476Y-56732940D01*
X107617571Y-56809130D01*
X107655666Y-56961511D01*
X107655666Y-57075797D01*
X107617571Y-57228178D01*
X107579476Y-57304369D01*
X107503285Y-57380559D01*
X107389000Y-57418654D01*
X107198523Y-57418654D01*
X108341380Y-56885321D02*
X108341380Y-57418654D01*
X108150904Y-56580559D02*
X107960428Y-57151988D01*
X108455666Y-57151988D01*
X107198523Y-62498654D02*
X107198523Y-61698654D01*
X107389000Y-61698654D01*
X107503285Y-61736750D01*
X107579476Y-61812940D01*
X107617571Y-61889130D01*
X107655666Y-62041511D01*
X107655666Y-62155797D01*
X107617571Y-62308178D01*
X107579476Y-62384369D01*
X107503285Y-62460559D01*
X107389000Y-62498654D01*
X107198523Y-62498654D01*
X107922333Y-61698654D02*
X108455666Y-61698654D01*
X108112809Y-62498654D01*
X107655666Y-59882464D02*
X107617571Y-59920559D01*
X107503285Y-59958654D01*
X107427095Y-59958654D01*
X107312809Y-59920559D01*
X107236619Y-59844369D01*
X107198523Y-59768178D01*
X107160428Y-59615797D01*
X107160428Y-59501511D01*
X107198523Y-59349130D01*
X107236619Y-59272940D01*
X107312809Y-59196750D01*
X107427095Y-59158654D01*
X107503285Y-59158654D01*
X107617571Y-59196750D01*
X107655666Y-59234845D01*
X108341380Y-59158654D02*
X108189000Y-59158654D01*
X108112809Y-59196750D01*
X108074714Y-59234845D01*
X107998523Y-59349130D01*
X107960428Y-59501511D01*
X107960428Y-59806273D01*
X107998523Y-59882464D01*
X108036619Y-59920559D01*
X108112809Y-59958654D01*
X108265190Y-59958654D01*
X108341380Y-59920559D01*
X108379476Y-59882464D01*
X108417571Y-59806273D01*
X108417571Y-59615797D01*
X108379476Y-59539607D01*
X108341380Y-59501511D01*
X108265190Y-59463416D01*
X108112809Y-59463416D01*
X108036619Y-59501511D01*
X107998523Y-59539607D01*
X107960428Y-59615797D01*
X118444333Y-51919607D02*
X118177666Y-51919607D01*
X118177666Y-52338654D02*
X118177666Y-51538654D01*
X118558619Y-51538654D01*
X119206238Y-51805321D02*
X119206238Y-52338654D01*
X119015761Y-51500559D02*
X118825285Y-52071988D01*
X119320523Y-52071988D01*
X107179476Y-46496750D02*
X107103285Y-46458654D01*
X106989000Y-46458654D01*
X106874714Y-46496750D01*
X106798523Y-46572940D01*
X106760428Y-46649130D01*
X106722333Y-46801511D01*
X106722333Y-46915797D01*
X106760428Y-47068178D01*
X106798523Y-47144369D01*
X106874714Y-47220559D01*
X106989000Y-47258654D01*
X107065190Y-47258654D01*
X107179476Y-47220559D01*
X107217571Y-47182464D01*
X107217571Y-46915797D01*
X107065190Y-46915797D01*
X107560428Y-47258654D02*
X107560428Y-46458654D01*
X108017571Y-47258654D01*
X108017571Y-46458654D01*
X108398523Y-47258654D02*
X108398523Y-46458654D01*
X108589000Y-46458654D01*
X108703285Y-46496750D01*
X108779476Y-46572940D01*
X108817571Y-46649130D01*
X108855666Y-46801511D01*
X108855666Y-46915797D01*
X108817571Y-47068178D01*
X108779476Y-47144369D01*
X108703285Y-47220559D01*
X108589000Y-47258654D01*
X108398523Y-47258654D01*
X108466666Y-68336750D02*
X108566666Y-68370083D01*
X108600000Y-68403416D01*
X108633333Y-68470083D01*
X108633333Y-68570083D01*
X108600000Y-68636750D01*
X108566666Y-68670083D01*
X108500000Y-68703416D01*
X108233333Y-68703416D01*
X108233333Y-68003416D01*
X108466666Y-68003416D01*
X108533333Y-68036750D01*
X108566666Y-68070083D01*
X108600000Y-68136750D01*
X108600000Y-68203416D01*
X108566666Y-68270083D01*
X108533333Y-68303416D01*
X108466666Y-68336750D01*
X108233333Y-68336750D01*
X108866666Y-68003416D02*
X109333333Y-68003416D01*
X109033333Y-68703416D01*
X118387190Y-67159607D02*
X118501476Y-67197702D01*
X118539571Y-67235797D01*
X118577666Y-67311988D01*
X118577666Y-67426273D01*
X118539571Y-67502464D01*
X118501476Y-67540559D01*
X118425285Y-67578654D01*
X118120523Y-67578654D01*
X118120523Y-66778654D01*
X118387190Y-66778654D01*
X118463380Y-66816750D01*
X118501476Y-66854845D01*
X118539571Y-66931035D01*
X118539571Y-67007226D01*
X118501476Y-67083416D01*
X118463380Y-67121511D01*
X118387190Y-67159607D01*
X118120523Y-67159607D01*
X118882428Y-66854845D02*
X118920523Y-66816750D01*
X118996714Y-66778654D01*
X119187190Y-66778654D01*
X119263380Y-66816750D01*
X119301476Y-66854845D01*
X119339571Y-66931035D01*
X119339571Y-67007226D01*
X119301476Y-67121511D01*
X118844333Y-67578654D01*
X119339571Y-67578654D01*
X115523333Y-68129607D02*
X115256666Y-68129607D01*
X115256666Y-68548654D02*
X115256666Y-67748654D01*
X115637619Y-67748654D01*
X116361428Y-68548654D02*
X115904285Y-68548654D01*
X116132857Y-68548654D02*
X116132857Y-67748654D01*
X116056666Y-67862940D01*
X115980476Y-67939130D01*
X115904285Y-67977226D01*
X118387190Y-64619607D02*
X118501476Y-64657702D01*
X118539571Y-64695797D01*
X118577666Y-64771988D01*
X118577666Y-64886273D01*
X118539571Y-64962464D01*
X118501476Y-65000559D01*
X118425285Y-65038654D01*
X118120523Y-65038654D01*
X118120523Y-64238654D01*
X118387190Y-64238654D01*
X118463380Y-64276750D01*
X118501476Y-64314845D01*
X118539571Y-64391035D01*
X118539571Y-64467226D01*
X118501476Y-64543416D01*
X118463380Y-64581511D01*
X118387190Y-64619607D01*
X118120523Y-64619607D01*
X118844333Y-64238654D02*
X119339571Y-64238654D01*
X119072904Y-64543416D01*
X119187190Y-64543416D01*
X119263380Y-64581511D01*
X119301476Y-64619607D01*
X119339571Y-64695797D01*
X119339571Y-64886273D01*
X119301476Y-64962464D01*
X119263380Y-65000559D01*
X119187190Y-65038654D01*
X118958619Y-65038654D01*
X118882428Y-65000559D01*
X118844333Y-64962464D01*
X107198523Y-54878654D02*
X107198523Y-54078654D01*
X107389000Y-54078654D01*
X107503285Y-54116750D01*
X107579476Y-54192940D01*
X107617571Y-54269130D01*
X107655666Y-54421511D01*
X107655666Y-54535797D01*
X107617571Y-54688178D01*
X107579476Y-54764369D01*
X107503285Y-54840559D01*
X107389000Y-54878654D01*
X107198523Y-54878654D01*
X108150904Y-54078654D02*
X108227095Y-54078654D01*
X108303285Y-54116750D01*
X108341380Y-54154845D01*
X108379476Y-54231035D01*
X108417571Y-54383416D01*
X108417571Y-54573892D01*
X108379476Y-54726273D01*
X108341380Y-54802464D01*
X108303285Y-54840559D01*
X108227095Y-54878654D01*
X108150904Y-54878654D01*
X108074714Y-54840559D01*
X108036619Y-54802464D01*
X107998523Y-54726273D01*
X107960428Y-54573892D01*
X107960428Y-54383416D01*
X107998523Y-54231035D01*
X108036619Y-54154845D01*
X108074714Y-54116750D01*
X108150904Y-54078654D01*
X110119523Y-68548654D02*
X110119523Y-67748654D01*
X110310000Y-67748654D01*
X110424285Y-67786750D01*
X110500476Y-67862940D01*
X110538571Y-67939130D01*
X110576666Y-68091511D01*
X110576666Y-68205797D01*
X110538571Y-68358178D01*
X110500476Y-68434369D01*
X110424285Y-68510559D01*
X110310000Y-68548654D01*
X110119523Y-68548654D01*
X111300476Y-67748654D02*
X110919523Y-67748654D01*
X110881428Y-68129607D01*
X110919523Y-68091511D01*
X110995714Y-68053416D01*
X111186190Y-68053416D01*
X111262380Y-68091511D01*
X111300476Y-68129607D01*
X111338571Y-68205797D01*
X111338571Y-68396273D01*
X111300476Y-68472464D01*
X111262380Y-68510559D01*
X111186190Y-68548654D01*
X110995714Y-68548654D01*
X110919523Y-68510559D01*
X110881428Y-68472464D01*
X107014991Y-68722452D02*
X106967851Y-68628171D01*
X106967851Y-68581030D01*
X106991421Y-68510320D01*
X107062132Y-68439609D01*
X107132842Y-68416039D01*
X107179983Y-68416039D01*
X107250693Y-68439609D01*
X107439255Y-68628171D01*
X106944280Y-69123146D01*
X106779289Y-68958154D01*
X106755719Y-68887443D01*
X106755719Y-68840303D01*
X106779289Y-68769592D01*
X106826429Y-68722452D01*
X106897140Y-68698882D01*
X106944280Y-68698882D01*
X107014991Y-68722452D01*
X107179983Y-68887443D01*
X106213603Y-68392469D02*
X106449306Y-68628171D01*
X106708578Y-68416039D01*
X106661438Y-68416039D01*
X106590727Y-68392469D01*
X106472876Y-68274617D01*
X106449306Y-68203907D01*
X106449306Y-68156766D01*
X106472876Y-68086056D01*
X106590727Y-67968205D01*
X106661438Y-67944634D01*
X106708578Y-67944634D01*
X106779289Y-67968205D01*
X106897140Y-68086056D01*
X106920710Y-68156766D01*
X106920710Y-68203907D01*
X107179476Y-49036750D02*
X107103285Y-48998654D01*
X106989000Y-48998654D01*
X106874714Y-49036750D01*
X106798523Y-49112940D01*
X106760428Y-49189130D01*
X106722333Y-49341511D01*
X106722333Y-49455797D01*
X106760428Y-49608178D01*
X106798523Y-49684369D01*
X106874714Y-49760559D01*
X106989000Y-49798654D01*
X107065190Y-49798654D01*
X107179476Y-49760559D01*
X107217571Y-49722464D01*
X107217571Y-49455797D01*
X107065190Y-49455797D01*
X107560428Y-49798654D02*
X107560428Y-48998654D01*
X108017571Y-49798654D01*
X108017571Y-48998654D01*
X108398523Y-49798654D02*
X108398523Y-48998654D01*
X108589000Y-48998654D01*
X108703285Y-49036750D01*
X108779476Y-49112940D01*
X108817571Y-49189130D01*
X108855666Y-49341511D01*
X108855666Y-49455797D01*
X108817571Y-49608178D01*
X108779476Y-49684369D01*
X108703285Y-49760559D01*
X108589000Y-49798654D01*
X108398523Y-49798654D01*
X118449786Y-47190559D02*
X118564072Y-47228654D01*
X118754548Y-47228654D01*
X118830739Y-47190559D01*
X118868834Y-47152464D01*
X118906929Y-47076273D01*
X118906929Y-47000083D01*
X118868834Y-46923892D01*
X118830739Y-46885797D01*
X118754548Y-46847702D01*
X118602167Y-46809607D01*
X118525977Y-46771511D01*
X118487881Y-46733416D01*
X118449786Y-46657226D01*
X118449786Y-46581035D01*
X118487881Y-46504845D01*
X118525977Y-46466750D01*
X118602167Y-46428654D01*
X118792643Y-46428654D01*
X118906929Y-46466750D01*
X119135500Y-46428654D02*
X119592643Y-46428654D01*
X119364072Y-47228654D02*
X119364072Y-46428654D01*
X113116666Y-68472464D02*
X113078571Y-68510559D01*
X112964285Y-68548654D01*
X112888095Y-68548654D01*
X112773809Y-68510559D01*
X112697619Y-68434369D01*
X112659523Y-68358178D01*
X112621428Y-68205797D01*
X112621428Y-68091511D01*
X112659523Y-67939130D01*
X112697619Y-67862940D01*
X112773809Y-67786750D01*
X112888095Y-67748654D01*
X112964285Y-67748654D01*
X113078571Y-67786750D01*
X113116666Y-67824845D01*
X113383333Y-67748654D02*
X113916666Y-67748654D01*
X113573809Y-68548654D01*
X119414297Y-68651741D02*
X119508578Y-68604601D01*
X119555719Y-68604601D01*
X119626429Y-68628171D01*
X119697140Y-68698882D01*
X119720710Y-68769592D01*
X119720710Y-68816733D01*
X119697140Y-68887443D01*
X119508578Y-69076005D01*
X119013603Y-68581030D01*
X119178595Y-68416039D01*
X119249306Y-68392469D01*
X119296446Y-68392469D01*
X119367157Y-68416039D01*
X119414297Y-68463179D01*
X119437867Y-68533890D01*
X119437867Y-68581030D01*
X119414297Y-68651741D01*
X119249306Y-68816733D01*
X119720710Y-67873924D02*
X119626429Y-67968205D01*
X119602859Y-68038915D01*
X119602859Y-68086056D01*
X119626429Y-68203907D01*
X119697140Y-68321758D01*
X119885702Y-68510320D01*
X119956412Y-68533890D01*
X120003553Y-68533890D01*
X120074264Y-68510320D01*
X120168544Y-68416039D01*
X120192115Y-68345328D01*
X120192115Y-68298188D01*
X120168544Y-68227477D01*
X120050693Y-68109626D01*
X119979983Y-68086056D01*
X119932842Y-68086056D01*
X119862132Y-68109626D01*
X119767851Y-68203907D01*
X119744280Y-68274617D01*
X119744280Y-68321758D01*
X119767851Y-68392469D01*
X118444333Y-54459607D02*
X118177666Y-54459607D01*
X118177666Y-54878654D02*
X118177666Y-54078654D01*
X118558619Y-54078654D01*
X119244333Y-54078654D02*
X118863380Y-54078654D01*
X118825285Y-54459607D01*
X118863380Y-54421511D01*
X118939571Y-54383416D01*
X119130047Y-54383416D01*
X119206238Y-54421511D01*
X119244333Y-54459607D01*
X119282428Y-54535797D01*
X119282428Y-54726273D01*
X119244333Y-54802464D01*
X119206238Y-54840559D01*
X119130047Y-54878654D01*
X118939571Y-54878654D01*
X118863380Y-54840559D01*
X118825285Y-54802464D01*
X107487651Y-41378654D02*
X107944794Y-41378654D01*
X107716223Y-42178654D02*
X107716223Y-41378654D01*
X108135270Y-41378654D02*
X108668604Y-42178654D01*
X108668604Y-41378654D02*
X108135270Y-42178654D01*
X109125747Y-41378654D02*
X109201937Y-41378654D01*
X109278128Y-41416750D01*
X109316223Y-41454845D01*
X109354318Y-41531035D01*
X109392413Y-41683416D01*
X109392413Y-41873892D01*
X109354318Y-42026273D01*
X109316223Y-42102464D01*
X109278128Y-42140559D01*
X109201937Y-42178654D01*
X109125747Y-42178654D01*
X109049556Y-42140559D01*
X109011461Y-42102464D01*
X108973366Y-42026273D01*
X108935270Y-41873892D01*
X108935270Y-41683416D01*
X108973366Y-41531035D01*
X109011461Y-41454845D01*
X109049556Y-41416750D01*
X109125747Y-41378654D01*
X110306699Y-41340559D02*
X109620985Y-42369130D01*
X110573366Y-42178654D02*
X110573366Y-41378654D01*
X110763842Y-41378654D01*
X110878128Y-41416750D01*
X110954318Y-41492940D01*
X110992413Y-41569130D01*
X111030508Y-41721511D01*
X111030508Y-41835797D01*
X110992413Y-41988178D01*
X110954318Y-42064369D01*
X110878128Y-42140559D01*
X110763842Y-42178654D01*
X110573366Y-42178654D01*
X111297175Y-41378654D02*
X111792413Y-41378654D01*
X111525747Y-41683416D01*
X111640032Y-41683416D01*
X111716223Y-41721511D01*
X111754318Y-41759607D01*
X111792413Y-41835797D01*
X111792413Y-42026273D01*
X111754318Y-42102464D01*
X111716223Y-42140559D01*
X111640032Y-42178654D01*
X111411461Y-42178654D01*
X111335270Y-42140559D01*
X111297175Y-42102464D01*
X107198523Y-52338654D02*
X107198523Y-51538654D01*
X107389000Y-51538654D01*
X107503285Y-51576750D01*
X107579476Y-51652940D01*
X107617571Y-51729130D01*
X107655666Y-51881511D01*
X107655666Y-51995797D01*
X107617571Y-52148178D01*
X107579476Y-52224369D01*
X107503285Y-52300559D01*
X107389000Y-52338654D01*
X107198523Y-52338654D01*
X108417571Y-52338654D02*
X107960428Y-52338654D01*
X108189000Y-52338654D02*
X108189000Y-51538654D01*
X108112809Y-51652940D01*
X108036619Y-51729130D01*
X107960428Y-51767226D01*
X107198523Y-44718654D02*
X107198523Y-43918654D01*
X107389000Y-43918654D01*
X107503285Y-43956750D01*
X107579476Y-44032940D01*
X107617571Y-44109130D01*
X107655666Y-44261511D01*
X107655666Y-44375797D01*
X107617571Y-44528178D01*
X107579476Y-44604369D01*
X107503285Y-44680559D01*
X107389000Y-44718654D01*
X107198523Y-44718654D01*
X107960428Y-43994845D02*
X107998523Y-43956750D01*
X108074714Y-43918654D01*
X108265190Y-43918654D01*
X108341380Y-43956750D01*
X108379476Y-43994845D01*
X108417571Y-44071035D01*
X108417571Y-44147226D01*
X108379476Y-44261511D01*
X107922333Y-44718654D01*
X108417571Y-44718654D01*
X118387190Y-41759607D02*
X118501476Y-41797702D01*
X118539571Y-41835797D01*
X118577666Y-41911988D01*
X118577666Y-42026273D01*
X118539571Y-42102464D01*
X118501476Y-42140559D01*
X118425285Y-42178654D01*
X118120523Y-42178654D01*
X118120523Y-41378654D01*
X118387190Y-41378654D01*
X118463380Y-41416750D01*
X118501476Y-41454845D01*
X118539571Y-41531035D01*
X118539571Y-41607226D01*
X118501476Y-41683416D01*
X118463380Y-41721511D01*
X118387190Y-41759607D01*
X118120523Y-41759607D01*
X119072904Y-41378654D02*
X119149095Y-41378654D01*
X119225285Y-41416750D01*
X119263380Y-41454845D01*
X119301476Y-41531035D01*
X119339571Y-41683416D01*
X119339571Y-41873892D01*
X119301476Y-42026273D01*
X119263380Y-42102464D01*
X119225285Y-42140559D01*
X119149095Y-42178654D01*
X119072904Y-42178654D01*
X118996714Y-42140559D01*
X118958619Y-42102464D01*
X118920523Y-42026273D01*
X118882428Y-41873892D01*
X118882428Y-41683416D01*
X118920523Y-41531035D01*
X118958619Y-41454845D01*
X118996714Y-41416750D01*
X119072904Y-41378654D01*
X118444333Y-59539607D02*
X118177666Y-59539607D01*
X118177666Y-59958654D02*
X118177666Y-59158654D01*
X118558619Y-59158654D01*
X118787190Y-59158654D02*
X119320523Y-59158654D01*
X118977666Y-59958654D01*
X107465190Y-67159607D02*
X107579476Y-67197702D01*
X107617571Y-67235797D01*
X107655666Y-67311988D01*
X107655666Y-67426273D01*
X107617571Y-67502464D01*
X107579476Y-67540559D01*
X107503285Y-67578654D01*
X107198523Y-67578654D01*
X107198523Y-66778654D01*
X107465190Y-66778654D01*
X107541380Y-66816750D01*
X107579476Y-66854845D01*
X107617571Y-66931035D01*
X107617571Y-67007226D01*
X107579476Y-67083416D01*
X107541380Y-67121511D01*
X107465190Y-67159607D01*
X107198523Y-67159607D01*
X108341380Y-67045321D02*
X108341380Y-67578654D01*
X108150904Y-66740559D02*
X107960428Y-67311988D01*
X108455666Y-67311988D01*
X117644333Y-48998654D02*
X117911000Y-49798654D01*
X118177666Y-48998654D01*
X118901476Y-49722464D02*
X118863380Y-49760559D01*
X118749095Y-49798654D01*
X118672904Y-49798654D01*
X118558619Y-49760559D01*
X118482428Y-49684369D01*
X118444333Y-49608178D01*
X118406238Y-49455797D01*
X118406238Y-49341511D01*
X118444333Y-49189130D01*
X118482428Y-49112940D01*
X118558619Y-49036750D01*
X118672904Y-48998654D01*
X118749095Y-48998654D01*
X118863380Y-49036750D01*
X118901476Y-49074845D01*
X119701476Y-49722464D02*
X119663380Y-49760559D01*
X119549095Y-49798654D01*
X119472904Y-49798654D01*
X119358619Y-49760559D01*
X119282428Y-49684369D01*
X119244333Y-49608178D01*
X119206238Y-49455797D01*
X119206238Y-49341511D01*
X119244333Y-49189130D01*
X119282428Y-49112940D01*
X119358619Y-49036750D01*
X119472904Y-48998654D01*
X119549095Y-48998654D01*
X119663380Y-49036750D01*
X119701476Y-49074845D01*
X118387190Y-62079607D02*
X118501476Y-62117702D01*
X118539571Y-62155797D01*
X118577666Y-62231988D01*
X118577666Y-62346273D01*
X118539571Y-62422464D01*
X118501476Y-62460559D01*
X118425285Y-62498654D01*
X118120523Y-62498654D01*
X118120523Y-61698654D01*
X118387190Y-61698654D01*
X118463380Y-61736750D01*
X118501476Y-61774845D01*
X118539571Y-61851035D01*
X118539571Y-61927226D01*
X118501476Y-62003416D01*
X118463380Y-62041511D01*
X118387190Y-62079607D01*
X118120523Y-62079607D01*
X119339571Y-62498654D02*
X118882428Y-62498654D01*
X119111000Y-62498654D02*
X119111000Y-61698654D01*
X119034809Y-61812940D01*
X118958619Y-61889130D01*
X118882428Y-61927226D01*
X118444333Y-56999607D02*
X118177666Y-56999607D01*
X118177666Y-57418654D02*
X118177666Y-56618654D01*
X118558619Y-56618654D01*
X119206238Y-56618654D02*
X119053857Y-56618654D01*
X118977666Y-56656750D01*
X118939571Y-56694845D01*
X118863380Y-56809130D01*
X118825285Y-56961511D01*
X118825285Y-57266273D01*
X118863380Y-57342464D01*
X118901476Y-57380559D01*
X118977666Y-57418654D01*
X119130047Y-57418654D01*
X119206238Y-57380559D01*
X119244333Y-57342464D01*
X119282428Y-57266273D01*
X119282428Y-57075797D01*
X119244333Y-56999607D01*
X119206238Y-56961511D01*
X119130047Y-56923416D01*
X118977666Y-56923416D01*
X118901476Y-56961511D01*
X118863380Y-56999607D01*
X118825285Y-57075797D01*
X118101476Y-43956750D02*
X118025285Y-43918654D01*
X117911000Y-43918654D01*
X117796714Y-43956750D01*
X117720523Y-44032940D01*
X117682428Y-44109130D01*
X117644333Y-44261511D01*
X117644333Y-44375797D01*
X117682428Y-44528178D01*
X117720523Y-44604369D01*
X117796714Y-44680559D01*
X117911000Y-44718654D01*
X117987190Y-44718654D01*
X118101476Y-44680559D01*
X118139571Y-44642464D01*
X118139571Y-44375797D01*
X117987190Y-44375797D01*
X118482428Y-44718654D02*
X118482428Y-43918654D01*
X118939571Y-44718654D01*
X118939571Y-43918654D01*
X119320523Y-44718654D02*
X119320523Y-43918654D01*
X119511000Y-43918654D01*
X119625285Y-43956750D01*
X119701476Y-44032940D01*
X119739571Y-44109130D01*
X119777666Y-44261511D01*
X119777666Y-44375797D01*
X119739571Y-44528178D01*
X119701476Y-44604369D01*
X119625285Y-44680559D01*
X119511000Y-44718654D01*
X119320523Y-44718654D01*
%TO.C,J2*%
X118618000Y-80720000D02*
X106518000Y-80720000D01*
X118618000Y-80470000D02*
X120618000Y-80470000D01*
X118618000Y-80720000D02*
X118618000Y-74620000D01*
X106518000Y-80720000D02*
X106518000Y-74620000D01*
X118618000Y-74870000D02*
X120618000Y-74870000D01*
X120618000Y-80470000D02*
X120618000Y-74870000D01*
X118618000Y-74620000D02*
X106518000Y-74620000D01*
D12*
%TO.C,RSW1*%
X77185000Y-14362500D02*
X77185000Y-18262500D01*
X69465000Y-14362500D02*
X77185000Y-14362500D01*
X69465000Y-14362500D02*
X69465000Y-18262500D01*
X76125000Y-18032500D02*
X76665000Y-18032500D01*
X71625000Y-18032500D02*
X75025000Y-18032500D01*
X76665000Y-18032500D02*
X76665000Y-18262500D01*
X69985000Y-18032500D02*
X69985000Y-18262500D01*
X69985000Y-18032500D02*
X70525000Y-18032500D01*
D13*
%TO.C,REF\u002A\u002A*%
X48213866Y-30891952D02*
G75*
G03*
X47180000Y-35042500I19286117J-7008044D01*
G01*
X70357500Y-58220000D02*
G75*
G03*
X74508047Y-57186134I-2857490J20319953D01*
G01*
X47180000Y-40757500D02*
G75*
G03*
X48213866Y-44908047I20319953J2857490D01*
G01*
X67500000Y-48695000D02*
G75*
G03*
X68628385Y-48635864I6J10794921D01*
G01*
X64642500Y-17580000D02*
G75*
G03*
X60491952Y-18613866I2857496J-20319983D01*
G01*
X60491954Y-57186135D02*
G75*
G03*
X64642500Y-58220000I7008058J19286185D01*
G01*
X67500000Y-27105000D02*
G75*
G03*
X66371615Y-27164136I-6J-10794921D01*
G01*
X87820000Y-35042500D02*
G75*
G03*
X86786135Y-30891955I-20320019J-2857506D01*
G01*
X68628385Y-27164136D02*
G75*
G03*
X67500000Y-27105000I-1128379J-10735785D01*
G01*
X66371615Y-48635864D02*
G75*
G03*
X67500000Y-48695000I1128379J10735785D01*
G01*
X86786135Y-44908046D02*
G75*
G03*
X87820000Y-40757500I-19286185J7008058D01*
G01*
X74508047Y-18613866D02*
G75*
G03*
X70357500Y-17580000I-7008037J-19286087D01*
G01*
D14*
X66680025Y-52388398D02*
X66702728Y-52411261D01*
X66702728Y-52411261D02*
X66737207Y-52446792D01*
X66737207Y-52446792D02*
X66781476Y-52492884D01*
X66781476Y-52492884D02*
X66833543Y-52547430D01*
X66833543Y-52547430D02*
X66891422Y-52608324D01*
X66891422Y-52608324D02*
X66953121Y-52673459D01*
X66953121Y-52673459D02*
X67016654Y-52740729D01*
X67016654Y-52740729D02*
X67080029Y-52808027D01*
X67080029Y-52808027D02*
X67141259Y-52873246D01*
X67141259Y-52873246D02*
X67198355Y-52934281D01*
X67198355Y-52934281D02*
X67249327Y-52989024D01*
X67249327Y-52989024D02*
X67292187Y-53035369D01*
X67292187Y-53035369D02*
X67324945Y-53071209D01*
X67324945Y-53071209D02*
X67345613Y-53094438D01*
X67345613Y-53094438D02*
X67347906Y-53097129D01*
X67347906Y-53097129D02*
X67376207Y-53130764D01*
X67376207Y-53130764D02*
X66756193Y-53130764D01*
X66756193Y-53130764D02*
X66582843Y-52954695D01*
X66582843Y-52954695D02*
X66529101Y-52899952D01*
X66529101Y-52899952D02*
X66478818Y-52848439D01*
X66478818Y-52848439D02*
X66435002Y-52803259D01*
X66435002Y-52803259D02*
X66400656Y-52767513D01*
X66400656Y-52767513D02*
X66378788Y-52744304D01*
X66378788Y-52744304D02*
X66375611Y-52740812D01*
X66375611Y-52740812D02*
X66341729Y-52702997D01*
X66341729Y-52702997D02*
X66502764Y-52541653D01*
X66502764Y-52541653D02*
X66552477Y-52492198D01*
X66552477Y-52492198D02*
X66596701Y-52448873D01*
X66596701Y-52448873D02*
X66632848Y-52414160D01*
X66632848Y-52414160D02*
X66658330Y-52390540D01*
X66658330Y-52390540D02*
X66670559Y-52380492D01*
X66670559Y-52380492D02*
X66671090Y-52380309D01*
X66671090Y-52380309D02*
X66680025Y-52388398D01*
X66680025Y-52388398D02*
X66680025Y-52388398D01*
G36*
X66680025Y-52388398D02*
G01*
X66702728Y-52411261D01*
X66737207Y-52446792D01*
X66781476Y-52492884D01*
X66833543Y-52547430D01*
X66891422Y-52608324D01*
X66953121Y-52673459D01*
X67016654Y-52740729D01*
X67080029Y-52808027D01*
X67141259Y-52873246D01*
X67198355Y-52934281D01*
X67249327Y-52989024D01*
X67292187Y-53035369D01*
X67324945Y-53071209D01*
X67345613Y-53094438D01*
X67347906Y-53097129D01*
X67376207Y-53130764D01*
X66756193Y-53130764D01*
X66582843Y-52954695D01*
X66529101Y-52899952D01*
X66478818Y-52848439D01*
X66435002Y-52803259D01*
X66400656Y-52767513D01*
X66378788Y-52744304D01*
X66375611Y-52740812D01*
X66341729Y-52702997D01*
X66502764Y-52541653D01*
X66552477Y-52492198D01*
X66596701Y-52448873D01*
X66632848Y-52414160D01*
X66658330Y-52390540D01*
X66670559Y-52380492D01*
X66671090Y-52380309D01*
X66680025Y-52388398D01*
G37*
X66680025Y-52388398D02*
X66702728Y-52411261D01*
X66737207Y-52446792D01*
X66781476Y-52492884D01*
X66833543Y-52547430D01*
X66891422Y-52608324D01*
X66953121Y-52673459D01*
X67016654Y-52740729D01*
X67080029Y-52808027D01*
X67141259Y-52873246D01*
X67198355Y-52934281D01*
X67249327Y-52989024D01*
X67292187Y-53035369D01*
X67324945Y-53071209D01*
X67345613Y-53094438D01*
X67347906Y-53097129D01*
X67376207Y-53130764D01*
X66756193Y-53130764D01*
X66582843Y-52954695D01*
X66529101Y-52899952D01*
X66478818Y-52848439D01*
X66435002Y-52803259D01*
X66400656Y-52767513D01*
X66378788Y-52744304D01*
X66375611Y-52740812D01*
X66341729Y-52702997D01*
X66502764Y-52541653D01*
X66552477Y-52492198D01*
X66596701Y-52448873D01*
X66632848Y-52414160D01*
X66658330Y-52390540D01*
X66670559Y-52380492D01*
X66671090Y-52380309D01*
X66680025Y-52388398D01*
X68078279Y-50847650D02*
X68078471Y-50951890D01*
X68078471Y-50951890D02*
X68078960Y-51048635D01*
X68078960Y-51048635D02*
X68079710Y-51135521D01*
X68079710Y-51135521D02*
X68080686Y-51210183D01*
X68080686Y-51210183D02*
X68081855Y-51270258D01*
X68081855Y-51270258D02*
X68083182Y-51313381D01*
X68083182Y-51313381D02*
X68084631Y-51337188D01*
X68084631Y-51337188D02*
X68085539Y-51341218D01*
X68085539Y-51341218D02*
X68097970Y-51334904D01*
X68097970Y-51334904D02*
X68122816Y-51318561D01*
X68122816Y-51318561D02*
X68146950Y-51301359D01*
X68146950Y-51301359D02*
X68261647Y-51230637D01*
X68261647Y-51230637D02*
X68383863Y-51181533D01*
X68383863Y-51181533D02*
X68514246Y-51153857D01*
X68514246Y-51153857D02*
X68653447Y-51147419D01*
X68653447Y-51147419D02*
X68671259Y-51148087D01*
X68671259Y-51148087D02*
X68760894Y-51154639D01*
X68760894Y-51154639D02*
X68837377Y-51166576D01*
X68837377Y-51166576D02*
X68909029Y-51186068D01*
X68909029Y-51186068D02*
X68984167Y-51215285D01*
X68984167Y-51215285D02*
X69054018Y-51247924D01*
X69054018Y-51247924D02*
X69181951Y-51323217D01*
X69181951Y-51323217D02*
X69294871Y-51415197D01*
X69294871Y-51415197D02*
X69391765Y-51522186D01*
X69391765Y-51522186D02*
X69471623Y-51642511D01*
X69471623Y-51642511D02*
X69533433Y-51774496D01*
X69533433Y-51774496D02*
X69576185Y-51916465D01*
X69576185Y-51916465D02*
X69598866Y-52066744D01*
X69598866Y-52066744D02*
X69602427Y-52156414D01*
X69602427Y-52156414D02*
X69592136Y-52308892D01*
X69592136Y-52308892D02*
X69560780Y-52453456D01*
X69560780Y-52453456D02*
X69507635Y-52592692D01*
X69507635Y-52592692D02*
X69450380Y-52699611D01*
X69450380Y-52699611D02*
X69364668Y-52819904D01*
X69364668Y-52819904D02*
X69263055Y-52924753D01*
X69263055Y-52924753D02*
X69147722Y-53013075D01*
X69147722Y-53013075D02*
X69020847Y-53083789D01*
X69020847Y-53083789D02*
X68884611Y-53135812D01*
X68884611Y-53135812D02*
X68741192Y-53168065D01*
X68741192Y-53168065D02*
X68592771Y-53179464D01*
X68592771Y-53179464D02*
X68492525Y-53174981D01*
X68492525Y-53174981D02*
X68347917Y-53150100D01*
X68347917Y-53150100D02*
X68207349Y-53103825D01*
X68207349Y-53103825D02*
X68074176Y-53037846D01*
X68074176Y-53037846D02*
X67951756Y-52953849D01*
X67951756Y-52953849D02*
X67843444Y-52853523D01*
X67843444Y-52853523D02*
X67835050Y-52844357D01*
X67835050Y-52844357D02*
X67753919Y-52740237D01*
X67753919Y-52740237D02*
X67684227Y-52622055D01*
X67684227Y-52622055D02*
X67629061Y-52496192D01*
X67629061Y-52496192D02*
X67591508Y-52369032D01*
X67591508Y-52369032D02*
X67582639Y-52322582D01*
X67582639Y-52322582D02*
X67580026Y-52294187D01*
X67580026Y-52294187D02*
X67577681Y-52244115D01*
X67577681Y-52244115D02*
X67576212Y-52193781D01*
X67576212Y-52193781D02*
X68072550Y-52193781D01*
X68072550Y-52193781D02*
X68083122Y-52291330D01*
X68083122Y-52291330D02*
X68113554Y-52385349D01*
X68113554Y-52385349D02*
X68142208Y-52439494D01*
X68142208Y-52439494D02*
X68209142Y-52527777D01*
X68209142Y-52527777D02*
X68288623Y-52598654D01*
X68288623Y-52598654D02*
X68378055Y-52651147D01*
X68378055Y-52651147D02*
X68474841Y-52684279D01*
X68474841Y-52684279D02*
X68576382Y-52697073D01*
X68576382Y-52697073D02*
X68680083Y-52688552D01*
X68680083Y-52688552D02*
X68752910Y-52669264D01*
X68752910Y-52669264D02*
X68795907Y-52653178D01*
X68795907Y-52653178D02*
X68836812Y-52635818D01*
X68836812Y-52635818D02*
X68852979Y-52628042D01*
X68852979Y-52628042D02*
X68898265Y-52597038D01*
X68898265Y-52597038D02*
X68947588Y-52550844D01*
X68947588Y-52550844D02*
X68995645Y-52495388D01*
X68995645Y-52495388D02*
X69037130Y-52436594D01*
X69037130Y-52436594D02*
X69058618Y-52398267D01*
X69058618Y-52398267D02*
X69078799Y-52354021D01*
X69078799Y-52354021D02*
X69091444Y-52315413D01*
X69091444Y-52315413D02*
X69098801Y-52273121D01*
X69098801Y-52273121D02*
X69103119Y-52217818D01*
X69103119Y-52217818D02*
X69103401Y-52212528D01*
X69103401Y-52212528D02*
X69100033Y-52105283D01*
X69100033Y-52105283D02*
X69077177Y-52007391D01*
X69077177Y-52007391D02*
X69033525Y-51913968D01*
X69033525Y-51913968D02*
X69015755Y-51885439D01*
X69015755Y-51885439D02*
X68951213Y-51807535D01*
X68951213Y-51807535D02*
X68872396Y-51745365D01*
X68872396Y-51745365D02*
X68782760Y-51699869D01*
X68782760Y-51699869D02*
X68685761Y-51671991D01*
X68685761Y-51671991D02*
X68584857Y-51662671D01*
X68584857Y-51662671D02*
X68483505Y-51672853D01*
X68483505Y-51672853D02*
X68385159Y-51703478D01*
X68385159Y-51703478D02*
X68371156Y-51709764D01*
X68371156Y-51709764D02*
X68283204Y-51762713D01*
X68283204Y-51762713D02*
X68209214Y-51830927D01*
X68209214Y-51830927D02*
X68150171Y-51911273D01*
X68150171Y-51911273D02*
X68107058Y-52000620D01*
X68107058Y-52000620D02*
X68080856Y-52095833D01*
X68080856Y-52095833D02*
X68072550Y-52193781D01*
X68072550Y-52193781D02*
X67576212Y-52193781D01*
X67576212Y-52193781D02*
X67575628Y-52173778D01*
X67575628Y-52173778D02*
X67573889Y-52084589D01*
X67573889Y-52084589D02*
X67572486Y-51977960D01*
X67572486Y-51977960D02*
X67571442Y-51855304D01*
X67571442Y-51855304D02*
X67570778Y-51718032D01*
X67570778Y-51718032D02*
X67570517Y-51567558D01*
X67570517Y-51567558D02*
X67570514Y-51555822D01*
X67570514Y-51555822D02*
X67570427Y-50864108D01*
X67570427Y-50864108D02*
X68078131Y-50354082D01*
X68078131Y-50354082D02*
X68078279Y-50847650D01*
X68078279Y-50847650D02*
X68078279Y-50847650D01*
G36*
X67573889Y-52084589D02*
G01*
X67572486Y-51977960D01*
X67571442Y-51855304D01*
X67570778Y-51718032D01*
X67570517Y-51567558D01*
X67570514Y-51555822D01*
X67570427Y-50864108D01*
X68078131Y-50354082D01*
X68078279Y-50847650D01*
X68078471Y-50951890D01*
X68078960Y-51048635D01*
X68079710Y-51135521D01*
X68080686Y-51210183D01*
X68081855Y-51270258D01*
X68083182Y-51313381D01*
X68084631Y-51337188D01*
X68085539Y-51341218D01*
X68097970Y-51334904D01*
X68122816Y-51318561D01*
X68146950Y-51301359D01*
X68261647Y-51230637D01*
X68383863Y-51181533D01*
X68514246Y-51153857D01*
X68653447Y-51147419D01*
X68671259Y-51148087D01*
X68760894Y-51154639D01*
X68837377Y-51166576D01*
X68909029Y-51186068D01*
X68984167Y-51215285D01*
X69054018Y-51247924D01*
X69181951Y-51323217D01*
X69294871Y-51415197D01*
X69391765Y-51522186D01*
X69471623Y-51642511D01*
X69533433Y-51774496D01*
X69576185Y-51916465D01*
X69598866Y-52066744D01*
X69602427Y-52156414D01*
X69592136Y-52308892D01*
X69560780Y-52453456D01*
X69507635Y-52592692D01*
X69450380Y-52699611D01*
X69364668Y-52819904D01*
X69263055Y-52924753D01*
X69147722Y-53013075D01*
X69020847Y-53083789D01*
X68884611Y-53135812D01*
X68741192Y-53168065D01*
X68592771Y-53179464D01*
X68492525Y-53174981D01*
X68347917Y-53150100D01*
X68207349Y-53103825D01*
X68074176Y-53037846D01*
X67951756Y-52953849D01*
X67843444Y-52853523D01*
X67835050Y-52844357D01*
X67753919Y-52740237D01*
X67684227Y-52622055D01*
X67629061Y-52496192D01*
X67591508Y-52369032D01*
X67582639Y-52322582D01*
X67580026Y-52294187D01*
X67577681Y-52244115D01*
X67576212Y-52193781D01*
X68072550Y-52193781D01*
X68083122Y-52291330D01*
X68113554Y-52385349D01*
X68142208Y-52439494D01*
X68209142Y-52527777D01*
X68288623Y-52598654D01*
X68378055Y-52651147D01*
X68474841Y-52684279D01*
X68576382Y-52697073D01*
X68680083Y-52688552D01*
X68752910Y-52669264D01*
X68795907Y-52653178D01*
X68836812Y-52635818D01*
X68852979Y-52628042D01*
X68898265Y-52597038D01*
X68947588Y-52550844D01*
X68995645Y-52495388D01*
X69037130Y-52436594D01*
X69058618Y-52398267D01*
X69078799Y-52354021D01*
X69091444Y-52315413D01*
X69098801Y-52273121D01*
X69103119Y-52217818D01*
X69103401Y-52212528D01*
X69100033Y-52105283D01*
X69077177Y-52007391D01*
X69033525Y-51913968D01*
X69015755Y-51885439D01*
X68951213Y-51807535D01*
X68872396Y-51745365D01*
X68782760Y-51699869D01*
X68685761Y-51671991D01*
X68584857Y-51662671D01*
X68483505Y-51672853D01*
X68385159Y-51703478D01*
X68371156Y-51709764D01*
X68283204Y-51762713D01*
X68209214Y-51830927D01*
X68150171Y-51911273D01*
X68107058Y-52000620D01*
X68080856Y-52095833D01*
X68072550Y-52193781D01*
X67576212Y-52193781D01*
X67575628Y-52173778D01*
X67573889Y-52084589D01*
G37*
X67573889Y-52084589D02*
X67572486Y-51977960D01*
X67571442Y-51855304D01*
X67570778Y-51718032D01*
X67570517Y-51567558D01*
X67570514Y-51555822D01*
X67570427Y-50864108D01*
X68078131Y-50354082D01*
X68078279Y-50847650D01*
X68078471Y-50951890D01*
X68078960Y-51048635D01*
X68079710Y-51135521D01*
X68080686Y-51210183D01*
X68081855Y-51270258D01*
X68083182Y-51313381D01*
X68084631Y-51337188D01*
X68085539Y-51341218D01*
X68097970Y-51334904D01*
X68122816Y-51318561D01*
X68146950Y-51301359D01*
X68261647Y-51230637D01*
X68383863Y-51181533D01*
X68514246Y-51153857D01*
X68653447Y-51147419D01*
X68671259Y-51148087D01*
X68760894Y-51154639D01*
X68837377Y-51166576D01*
X68909029Y-51186068D01*
X68984167Y-51215285D01*
X69054018Y-51247924D01*
X69181951Y-51323217D01*
X69294871Y-51415197D01*
X69391765Y-51522186D01*
X69471623Y-51642511D01*
X69533433Y-51774496D01*
X69576185Y-51916465D01*
X69598866Y-52066744D01*
X69602427Y-52156414D01*
X69592136Y-52308892D01*
X69560780Y-52453456D01*
X69507635Y-52592692D01*
X69450380Y-52699611D01*
X69364668Y-52819904D01*
X69263055Y-52924753D01*
X69147722Y-53013075D01*
X69020847Y-53083789D01*
X68884611Y-53135812D01*
X68741192Y-53168065D01*
X68592771Y-53179464D01*
X68492525Y-53174981D01*
X68347917Y-53150100D01*
X68207349Y-53103825D01*
X68074176Y-53037846D01*
X67951756Y-52953849D01*
X67843444Y-52853523D01*
X67835050Y-52844357D01*
X67753919Y-52740237D01*
X67684227Y-52622055D01*
X67629061Y-52496192D01*
X67591508Y-52369032D01*
X67582639Y-52322582D01*
X67580026Y-52294187D01*
X67577681Y-52244115D01*
X67576212Y-52193781D01*
X68072550Y-52193781D01*
X68083122Y-52291330D01*
X68113554Y-52385349D01*
X68142208Y-52439494D01*
X68209142Y-52527777D01*
X68288623Y-52598654D01*
X68378055Y-52651147D01*
X68474841Y-52684279D01*
X68576382Y-52697073D01*
X68680083Y-52688552D01*
X68752910Y-52669264D01*
X68795907Y-52653178D01*
X68836812Y-52635818D01*
X68852979Y-52628042D01*
X68898265Y-52597038D01*
X68947588Y-52550844D01*
X68995645Y-52495388D01*
X69037130Y-52436594D01*
X69058618Y-52398267D01*
X69078799Y-52354021D01*
X69091444Y-52315413D01*
X69098801Y-52273121D01*
X69103119Y-52217818D01*
X69103401Y-52212528D01*
X69100033Y-52105283D01*
X69077177Y-52007391D01*
X69033525Y-51913968D01*
X69015755Y-51885439D01*
X68951213Y-51807535D01*
X68872396Y-51745365D01*
X68782760Y-51699869D01*
X68685761Y-51671991D01*
X68584857Y-51662671D01*
X68483505Y-51672853D01*
X68385159Y-51703478D01*
X68371156Y-51709764D01*
X68283204Y-51762713D01*
X68209214Y-51830927D01*
X68150171Y-51911273D01*
X68107058Y-52000620D01*
X68080856Y-52095833D01*
X68072550Y-52193781D01*
X67576212Y-52193781D01*
X67575628Y-52173778D01*
X67573889Y-52084589D01*
X65873245Y-51981867D02*
X66676191Y-51179167D01*
X66676191Y-51179167D02*
X66964559Y-51182261D01*
X66964559Y-51182261D02*
X67252927Y-51185354D01*
X67252927Y-51185354D02*
X66405703Y-52045491D01*
X66405703Y-52045491D02*
X66287778Y-52165214D01*
X66287778Y-52165214D02*
X66172979Y-52281763D01*
X66172979Y-52281763D02*
X66062525Y-52393903D01*
X66062525Y-52393903D02*
X65957633Y-52500396D01*
X65957633Y-52500396D02*
X65859521Y-52600007D01*
X65859521Y-52600007D02*
X65769406Y-52691500D01*
X65769406Y-52691500D02*
X65688507Y-52773637D01*
X65688507Y-52773637D02*
X65618040Y-52845182D01*
X65618040Y-52845182D02*
X65559224Y-52904900D01*
X65559224Y-52904900D02*
X65513277Y-52951554D01*
X65513277Y-52951554D02*
X65481416Y-52983907D01*
X65481416Y-52983907D02*
X65467635Y-52997903D01*
X65467635Y-52997903D02*
X65376791Y-53090179D01*
X65376791Y-53090179D02*
X65376791Y-50348309D01*
X65376791Y-50348309D02*
X65873245Y-50348309D01*
X65873245Y-50348309D02*
X65873245Y-51981867D01*
X65873245Y-51981867D02*
X65873245Y-51981867D01*
G36*
X65873245Y-51981867D02*
G01*
X66676191Y-51179167D01*
X66964559Y-51182261D01*
X67252927Y-51185354D01*
X66405703Y-52045491D01*
X66287778Y-52165214D01*
X66172979Y-52281763D01*
X66062525Y-52393903D01*
X65957633Y-52500396D01*
X65859521Y-52600007D01*
X65769406Y-52691500D01*
X65688507Y-52773637D01*
X65618040Y-52845182D01*
X65559224Y-52904900D01*
X65513277Y-52951554D01*
X65481416Y-52983907D01*
X65467635Y-52997903D01*
X65376791Y-53090179D01*
X65376791Y-50348309D01*
X65873245Y-50348309D01*
X65873245Y-51981867D01*
G37*
X65873245Y-51981867D02*
X66676191Y-51179167D01*
X66964559Y-51182261D01*
X67252927Y-51185354D01*
X66405703Y-52045491D01*
X66287778Y-52165214D01*
X66172979Y-52281763D01*
X66062525Y-52393903D01*
X65957633Y-52500396D01*
X65859521Y-52600007D01*
X65769406Y-52691500D01*
X65688507Y-52773637D01*
X65618040Y-52845182D01*
X65559224Y-52904900D01*
X65513277Y-52951554D01*
X65481416Y-52983907D01*
X65467635Y-52997903D01*
X65376791Y-53090179D01*
X65376791Y-50348309D01*
X65873245Y-50348309D01*
X65873245Y-51981867D01*
D15*
%TO.C,U2*%
X106900000Y-40546750D02*
X106900000Y-43086750D01*
X122140000Y-38006750D02*
X104360000Y-38006750D01*
X106900000Y-43086750D02*
X104360000Y-43086750D01*
X122140000Y-71026750D02*
X122140000Y-40546750D01*
X104360000Y-71026750D02*
X122140000Y-71026750D01*
X104360000Y-40546750D02*
X104360000Y-71026750D01*
X104360000Y-38006750D02*
X104360000Y-40546750D01*
X122140000Y-40546750D02*
X122140000Y-38006750D01*
X106900000Y-40546750D02*
X104360000Y-40546750D01*
D10*
X117781568Y-46426110D02*
X117781568Y-47226110D01*
X117781568Y-47226110D02*
X117681568Y-47226110D01*
X117681568Y-47226110D02*
X117681568Y-46426110D01*
X117681568Y-46426110D02*
X117781568Y-46426110D01*
G36*
X117781568Y-47226110D02*
G01*
X117681568Y-47226110D01*
X117681568Y-46426110D01*
X117781568Y-46426110D01*
X117781568Y-47226110D01*
G37*
X117781568Y-47226110D02*
X117681568Y-47226110D01*
X117681568Y-46426110D01*
X117781568Y-46426110D01*
X117781568Y-47226110D01*
X118181568Y-47026110D02*
X118181568Y-47226110D01*
X118181568Y-47226110D02*
X118081568Y-47226110D01*
X118081568Y-47226110D02*
X118081568Y-47026110D01*
X118081568Y-47026110D02*
X118181568Y-47026110D01*
G36*
X118181568Y-47226110D02*
G01*
X118081568Y-47226110D01*
X118081568Y-47026110D01*
X118181568Y-47026110D01*
X118181568Y-47226110D01*
G37*
X118181568Y-47226110D02*
X118081568Y-47226110D01*
X118081568Y-47026110D01*
X118181568Y-47026110D01*
X118181568Y-47226110D01*
X118181568Y-46426110D02*
X118181568Y-46726110D01*
X118181568Y-46726110D02*
X118081568Y-46726110D01*
X118081568Y-46726110D02*
X118081568Y-46426110D01*
X118081568Y-46426110D02*
X118181568Y-46426110D01*
G36*
X118181568Y-46726110D02*
G01*
X118081568Y-46726110D01*
X118081568Y-46426110D01*
X118181568Y-46426110D01*
X118181568Y-46726110D01*
G37*
X118181568Y-46726110D02*
X118081568Y-46726110D01*
X118081568Y-46426110D01*
X118181568Y-46426110D01*
X118181568Y-46726110D01*
X118181568Y-46426110D02*
X118181568Y-46526110D01*
X118181568Y-46526110D02*
X117681568Y-46526110D01*
X117681568Y-46526110D02*
X117681568Y-46426110D01*
X117681568Y-46426110D02*
X118181568Y-46426110D01*
G36*
X118181568Y-46526110D02*
G01*
X117681568Y-46526110D01*
X117681568Y-46426110D01*
X118181568Y-46426110D01*
X118181568Y-46526110D01*
G37*
X118181568Y-46526110D02*
X117681568Y-46526110D01*
X117681568Y-46426110D01*
X118181568Y-46426110D01*
X118181568Y-46526110D01*
X117981568Y-46826110D02*
X117981568Y-46926110D01*
X117981568Y-46926110D02*
X117881568Y-46926110D01*
X117881568Y-46926110D02*
X117881568Y-46826110D01*
X117881568Y-46826110D02*
X117981568Y-46826110D01*
G36*
X117981568Y-46926110D02*
G01*
X117881568Y-46926110D01*
X117881568Y-46826110D01*
X117981568Y-46826110D01*
X117981568Y-46926110D01*
G37*
X117981568Y-46926110D02*
X117881568Y-46926110D01*
X117881568Y-46826110D01*
X117981568Y-46826110D01*
X117981568Y-46926110D01*
%TD*%
D16*
%TO.C,U2*%
X105630000Y-41816750D03*
D17*
X105630000Y-44356750D03*
X105630000Y-46896750D03*
X105630000Y-49436750D03*
X105630000Y-51976750D03*
X105630000Y-54516750D03*
X105630000Y-57056750D03*
X105630000Y-59596750D03*
X105630000Y-62136750D03*
X105630000Y-64676750D03*
X105630000Y-67216750D03*
X105858600Y-69756750D03*
X120870000Y-69756750D03*
X120870000Y-67216750D03*
X120870000Y-64676750D03*
X120870000Y-62136750D03*
X120870000Y-59596750D03*
X120870000Y-57056750D03*
X120870000Y-54516750D03*
X120870000Y-51976750D03*
X120870000Y-49436750D03*
X120870000Y-46896750D03*
X120870000Y-44356750D03*
X120870000Y-41816750D03*
X108170000Y-69756750D03*
X110710000Y-69756750D03*
X113250000Y-69756750D03*
X115790000Y-69756750D03*
X118330000Y-69756750D03*
%TD*%
M02*
