M48
; DRILL file {KiCad (6.0.0)} date Mon Apr 18 13:44:51 2022
; FORMAT={-:-/ absolute / inch / decimal}
; #@! TF.CreationDate,2022-04-18T13:44:51-07:00
; #@! TF.GenerationSoftware,Kicad,Pcbnew,(6.0.0)
; #@! TF.FileFunction,NonPlated,1,2,NPTH
FMAT,2
INCH
; #@! TA.AperFunction,NonPlated,NPTH,ComponentDrill
T1C0.0315
; #@! TA.AperFunction,NonPlated,NPTH,ComponentDrill
T2C0.0472
; #@! TA.AperFunction,NonPlated,NPTH,ComponentDrill
T3C0.0670
; #@! TA.AperFunction,NonPlated,NPTH,ComponentDrill
T4C0.1969
%
G90
G05
T1
X4.4047Y-2.8765
X4.4055Y-2.8773
X4.6803Y-2.8765
X4.681Y-2.8773
T2
X2.9628Y-0.5734
T3
X0.6666Y-1.6225
X0.6666Y-2.2918
X0.6666Y-2.9611
X1.0996Y-1.6225
X1.0996Y-2.2918
X1.0996Y-2.9611
X1.3752Y-1.1501
X1.3752Y-1.8184
X1.3752Y-2.4884
X1.8083Y-1.1501
X1.8083Y-1.8184
X1.8083Y-2.4884
X2.0839Y-2.2184
X2.0839Y-0.8745
X2.0839Y-1.5484
X2.517Y-2.2184
X2.517Y-0.8745
X2.517Y-1.5484
X2.756Y-3.1509
X2.7925Y-2.4284
X2.7925Y-1.091
X2.7925Y-1.7584
X3.1874Y-3.1887
X3.2256Y-2.4284
X3.2256Y-1.091
X3.2256Y-1.7584
X3.5004Y-1.8584
X3.5004Y-2.5284
X3.5012Y-1.1895
X3.5204Y-3.2476
X3.9335Y-1.8584
X3.9335Y-2.5284
X3.9343Y-1.1895
X3.9387Y-3.3597
X4.2577Y-3.4759
X4.6502Y-3.6589
T4
X0.8831Y-1.6225
X0.8831Y-2.2918
X0.8831Y-2.9611
X1.5918Y-1.1501
X1.5918Y-1.8184
X1.5918Y-2.4884
X2.3004Y-2.2184
X2.3004Y-0.8745
X2.3004Y-1.5484
X2.9717Y-3.1698
X3.0091Y-2.4284
X3.0091Y-1.091
X3.0091Y-1.7584
X3.717Y-1.8584
X3.717Y-2.5284
X3.7177Y-1.1895
X3.7296Y-3.3036
X4.454Y-3.5674
T0
M30
