%TF.GenerationSoftware,KiCad,Pcbnew,(6.0.0)*%
%TF.CreationDate,2022-04-19T03:34:00-07:00*%
%TF.ProjectId,half-swept,68616c66-2d73-4776-9570-742e6b696361,rev?*%
%TF.SameCoordinates,Original*%
%TF.FileFunction,Soldermask,Top*%
%TF.FilePolarity,Negative*%
%FSLAX46Y46*%
G04 Gerber Fmt 4.6, Leading zero omitted, Abs format (unit mm)*
G04 Created by KiCad (PCBNEW (6.0.0)) date 2022-04-19 03:34:00*
%MOMM*%
%LPD*%
G01*
G04 APERTURE LIST*
G04 Aperture macros list*
%AMRoundRect*
0 Rectangle with rounded corners*
0 $1 Rounding radius*
0 $2 $3 $4 $5 $6 $7 $8 $9 X,Y pos of 4 corners*
0 Add a 4 corners polygon primitive as box body*
4,1,4,$2,$3,$4,$5,$6,$7,$8,$9,$2,$3,0*
0 Add four circle primitives for the rounded corners*
1,1,$1+$1,$2,$3*
1,1,$1+$1,$4,$5*
1,1,$1+$1,$6,$7*
1,1,$1+$1,$8,$9*
0 Add four rect primitives between the rounded corners*
20,1,$1+$1,$2,$3,$4,$5,0*
20,1,$1+$1,$4,$5,$6,$7,0*
20,1,$1+$1,$6,$7,$8,$9,0*
20,1,$1+$1,$8,$9,$2,$3,0*%
%AMRotRect*
0 Rectangle, with rotation*
0 The origin of the aperture is its center*
0 $1 length*
0 $2 width*
0 $3 Rotation angle, in degrees counterclockwise*
0 Add horizontal line*
21,1,$1,$2,0,0,$3*%
G04 Aperture macros list end*
%ADD10C,0.990600*%
%ADD11C,3.000000*%
%ADD12RotRect,2.600000X2.600000X345.000000*%
%ADD13C,3.429000*%
%ADD14C,1.701800*%
%ADD15RotRect,2.600000X2.600000X335.000000*%
%ADD16R,2.600000X2.600000*%
%ADD17RotRect,2.600000X2.600000X355.000000*%
%ADD18C,0.800000*%
%ADD19O,2.000000X1.600000*%
%ADD20C,1.200000*%
%ADD21C,1.750000*%
%ADD22C,4.400000*%
%ADD23R,1.752600X1.752600*%
%ADD24C,1.752600*%
%ADD25RoundRect,0.082000X-0.718000X0.328000X-0.718000X-0.328000X0.718000X-0.328000X0.718000X0.328000X0*%
%ADD26RoundRect,0.082000X-0.686681X0.389330X-0.743855X-0.264174X0.686681X-0.389330X0.743855X0.264174X0*%
%ADD27C,1.397000*%
%ADD28RoundRect,0.082000X-0.608642X0.502656X-0.778427X-0.130992X0.608642X-0.502656X0.778427X0.130992X0*%
%ADD29RoundRect,0.082000X-0.512110X0.600709X-0.789348X0.006171X0.512110X-0.600709X0.789348X-0.006171X0*%
G04 APERTURE END LIST*
D10*
%TO.C,SW21*%
X100912971Y-81196858D03*
X90828705Y-78494787D03*
D11*
X88983597Y-86230838D03*
D12*
X101806263Y-89666660D03*
D11*
X93243825Y-89649970D03*
D13*
X94783798Y-83902711D03*
D11*
X98642856Y-88819028D03*
D12*
X90080418Y-88802337D03*
D14*
X100096390Y-85326216D03*
X89471206Y-82479206D03*
%TD*%
D10*
%TO.C,SW20*%
X119689724Y-89002284D03*
X110227871Y-84590149D03*
D11*
X107067444Y-91888272D03*
D15*
X119098679Y-97498529D03*
D11*
X110669222Y-95995240D03*
D13*
X113183801Y-90602709D03*
D11*
X116130521Y-96114455D03*
D15*
X107701064Y-94611166D03*
D14*
X118168494Y-92927109D03*
X108199108Y-88278309D03*
%TD*%
D10*
%TO.C,SW18*%
X99677454Y-60010711D03*
X89237454Y-60010711D03*
D11*
X89457454Y-67960711D03*
D16*
X102732454Y-67960711D03*
D11*
X94457454Y-70160711D03*
D13*
X94457454Y-64210711D03*
D11*
X99457454Y-67960711D03*
D16*
X91182454Y-70160711D03*
D14*
X99957454Y-64210711D03*
X88957454Y-64210711D03*
%TD*%
D10*
%TO.C,SW17*%
X81703799Y-57470713D03*
X71263799Y-57470713D03*
D11*
X71483799Y-65420713D03*
D16*
X84758799Y-65420713D03*
D11*
X76483799Y-67620713D03*
D13*
X76483799Y-61670713D03*
D11*
X81483799Y-65420713D03*
D16*
X73208799Y-67620713D03*
D14*
X81983799Y-61670713D03*
X70983799Y-61670713D03*
%TD*%
D10*
%TO.C,SW16*%
X63703797Y-52136711D03*
X53263797Y-52136711D03*
D11*
X53483797Y-60086711D03*
D16*
X66758797Y-60086711D03*
D11*
X58483797Y-62286711D03*
D13*
X58483797Y-56336711D03*
D11*
X63483797Y-60086711D03*
D16*
X55208797Y-62286711D03*
D14*
X63983797Y-56336711D03*
X52983797Y-56336711D03*
%TD*%
D10*
%TO.C,SW15*%
X45703799Y-58994710D03*
X35263799Y-58994710D03*
D11*
X35483799Y-66944710D03*
D16*
X48758799Y-66944710D03*
D11*
X40483799Y-69144710D03*
D13*
X40483799Y-63194710D03*
D11*
X45483799Y-66944710D03*
D16*
X37208799Y-69144710D03*
D14*
X45983799Y-63194710D03*
X34983799Y-63194710D03*
%TD*%
D10*
%TO.C,SW14*%
X27703799Y-71002709D03*
X17263799Y-71002709D03*
D11*
X17483799Y-78952709D03*
D16*
X30758799Y-78952709D03*
D11*
X22483799Y-81152709D03*
D13*
X22483799Y-75202709D03*
D11*
X27483799Y-78952709D03*
D16*
X19208799Y-81152709D03*
D14*
X27983799Y-75202709D03*
X16983799Y-75202709D03*
%TD*%
D10*
%TO.C,SW12*%
X99683799Y-42992711D03*
X89243799Y-42992711D03*
D11*
X89463799Y-50942711D03*
D16*
X102738799Y-50942711D03*
D11*
X94463799Y-53142711D03*
D13*
X94463799Y-47192711D03*
D11*
X99463799Y-50942711D03*
D16*
X91188799Y-53142711D03*
D14*
X99963799Y-47192711D03*
X88963799Y-47192711D03*
%TD*%
D10*
%TO.C,SW11*%
X81703800Y-40452714D03*
X71263800Y-40452714D03*
D11*
X71483800Y-48402714D03*
D16*
X84758800Y-48402714D03*
D11*
X76483800Y-50602714D03*
D13*
X76483800Y-44652714D03*
D11*
X81483800Y-48402714D03*
D16*
X73208800Y-50602714D03*
D14*
X81983800Y-44652714D03*
X70983800Y-44652714D03*
%TD*%
D10*
%TO.C,SW10*%
X63703800Y-35118711D03*
X53263800Y-35118711D03*
D11*
X53483800Y-43068711D03*
D16*
X66758800Y-43068711D03*
D11*
X58483800Y-45268711D03*
D13*
X58483800Y-39318711D03*
D11*
X63483800Y-43068711D03*
D16*
X55208800Y-45268711D03*
D14*
X63983800Y-39318711D03*
X52983800Y-39318711D03*
%TD*%
D10*
%TO.C,SW9*%
X45703800Y-41976711D03*
X35263800Y-41976711D03*
D11*
X35483800Y-49926711D03*
D16*
X48758800Y-49926711D03*
D11*
X40483800Y-52126711D03*
D13*
X40483800Y-46176711D03*
D11*
X45483800Y-49926711D03*
D16*
X37208800Y-52126711D03*
D14*
X45983800Y-46176711D03*
X34983800Y-46176711D03*
%TD*%
D10*
%TO.C,SW8*%
X27703799Y-54002711D03*
X17263799Y-54002711D03*
D11*
X17483799Y-61952711D03*
D16*
X30758799Y-61952711D03*
D11*
X22483799Y-64152711D03*
D13*
X22483799Y-58202711D03*
D11*
X27483799Y-61952711D03*
D16*
X19208799Y-64152711D03*
D14*
X27983799Y-58202711D03*
X16983799Y-58202711D03*
%TD*%
D10*
%TO.C,SW6*%
X99703798Y-26002711D03*
X89263798Y-26002711D03*
D11*
X89483798Y-33952711D03*
D16*
X102758798Y-33952711D03*
D11*
X94483798Y-36152711D03*
D13*
X94483798Y-30202711D03*
D11*
X99483798Y-33952711D03*
D16*
X91208798Y-36152711D03*
D14*
X99983798Y-30202711D03*
X88983798Y-30202711D03*
%TD*%
D10*
%TO.C,SW5*%
X81703798Y-23502712D03*
X71263798Y-23502712D03*
D11*
X71483798Y-31452712D03*
D16*
X84758798Y-31452712D03*
D11*
X76483798Y-33652712D03*
D13*
X76483798Y-27702712D03*
D11*
X81483798Y-31452712D03*
D16*
X73208798Y-33652712D03*
D14*
X81983798Y-27702712D03*
X70983798Y-27702712D03*
%TD*%
D10*
%TO.C,SW4*%
X63703798Y-18002711D03*
X53263798Y-18002711D03*
D11*
X53483798Y-25952711D03*
D16*
X66758798Y-25952711D03*
D11*
X58483798Y-28152711D03*
D13*
X58483798Y-22202711D03*
D11*
X63483798Y-25952711D03*
D16*
X55208798Y-28152711D03*
D14*
X63983798Y-22202711D03*
X52983798Y-22202711D03*
%TD*%
D10*
%TO.C,SW3*%
X45703801Y-25002711D03*
X35263801Y-25002711D03*
D11*
X35483801Y-32952711D03*
D16*
X48758801Y-32952711D03*
D11*
X40483801Y-35152711D03*
D13*
X40483801Y-29202711D03*
D11*
X45483801Y-32952711D03*
D16*
X37208801Y-35152711D03*
D14*
X45983801Y-29202711D03*
X34983801Y-29202711D03*
%TD*%
D10*
%TO.C,SW2*%
X27703799Y-37002711D03*
X17263799Y-37002711D03*
D11*
X17483799Y-44952711D03*
D16*
X30758799Y-44952711D03*
D11*
X22483799Y-47152711D03*
D13*
X22483799Y-41202711D03*
D11*
X27483799Y-44952711D03*
D16*
X19208799Y-47152711D03*
D14*
X27983799Y-41202711D03*
X16983799Y-41202711D03*
%TD*%
D10*
%TO.C,SW1*%
X81099989Y-76773644D03*
X70699717Y-75863738D03*
D11*
X70225991Y-83802660D03*
D17*
X83450476Y-84959653D03*
D11*
X75015222Y-86430067D03*
D13*
X75533799Y-80502709D03*
D11*
X80187938Y-84674218D03*
D17*
X71752685Y-86144632D03*
D14*
X81012870Y-80982066D03*
X70054728Y-80023352D03*
%TD*%
D18*
%TO.C,J2*%
X111951800Y-73072711D03*
X118951800Y-73072711D03*
D19*
X109251800Y-70772711D03*
X110351800Y-75372711D03*
X114351800Y-75372711D03*
X117351800Y-75372711D03*
%TD*%
D20*
%TO.C,RSW1*%
X75308798Y-14555212D03*
D21*
X72808798Y-15765212D03*
X77808798Y-15765212D03*
%TD*%
D22*
%TO.C,REF\u002A\u002A*%
X67983800Y-57152712D03*
X48933800Y-38102712D03*
X87033800Y-38102712D03*
X67983800Y-19052712D03*
%TD*%
D23*
%TO.C,U2*%
X105613798Y-29869461D03*
D24*
X105613798Y-32409461D03*
X105613798Y-34949461D03*
X105613798Y-37489461D03*
X105613798Y-40029461D03*
X105613798Y-42569461D03*
X105613798Y-45109461D03*
X105613798Y-47649461D03*
X105613798Y-50189461D03*
X105613798Y-52729461D03*
X105613798Y-55269461D03*
X105842398Y-57809461D03*
X120853798Y-57809461D03*
X120853798Y-55269461D03*
X120853798Y-52729461D03*
X120853798Y-50189461D03*
X120853798Y-47649461D03*
X120853798Y-45109461D03*
X120853798Y-42569461D03*
X120853798Y-40029461D03*
X120853798Y-37489461D03*
X120853798Y-34949461D03*
X120853798Y-32409461D03*
X120853798Y-29869461D03*
X108153798Y-57809461D03*
X110693798Y-57809461D03*
X113233798Y-57809461D03*
X115773798Y-57809461D03*
X118313798Y-57809461D03*
%TD*%
D25*
%TO.C,D34*%
X43083801Y-23372711D03*
X43083801Y-24872711D03*
X37883801Y-24872711D03*
X37883801Y-23372711D03*
%TD*%
%TO.C,D26*%
X61083797Y-50506711D03*
X61083797Y-52006711D03*
X55883797Y-52006711D03*
X55883797Y-50506711D03*
%TD*%
%TO.C,D31*%
X43083800Y-40346711D03*
X43083800Y-41846711D03*
X37883800Y-41846711D03*
X37883800Y-40346711D03*
%TD*%
%TO.C,D28*%
X43083799Y-57364710D03*
X43083799Y-58864710D03*
X37883799Y-58864710D03*
X37883799Y-57364710D03*
%TD*%
%TO.C,D32*%
X79083800Y-38822714D03*
X79083800Y-40322714D03*
X73883800Y-40322714D03*
X73883800Y-38822714D03*
%TD*%
%TO.C,D21*%
X97083798Y-24372711D03*
X97083798Y-25872711D03*
X91883798Y-25872711D03*
X91883798Y-24372711D03*
%TD*%
%TO.C,D19*%
X25083799Y-35372711D03*
X25083799Y-36872711D03*
X19883799Y-36872711D03*
X19883799Y-35372711D03*
%TD*%
%TO.C,D23*%
X61083800Y-33488711D03*
X61083800Y-34988711D03*
X55883800Y-34988711D03*
X55883800Y-33488711D03*
%TD*%
%TO.C,D22*%
X25083797Y-52422712D03*
X25083797Y-53922712D03*
X19883797Y-53922712D03*
X19883797Y-52422712D03*
%TD*%
%TO.C,D35*%
X79083798Y-21872712D03*
X79083798Y-23372712D03*
X73883798Y-23372712D03*
X73883798Y-21872712D03*
%TD*%
%TO.C,D25*%
X25083799Y-69372709D03*
X25083799Y-70872709D03*
X19883799Y-70872709D03*
X19883799Y-69372709D03*
%TD*%
%TO.C,D24*%
X97063799Y-41362711D03*
X97063799Y-42862711D03*
X91863799Y-42862711D03*
X91863799Y-41362711D03*
%TD*%
D26*
%TO.C,D30*%
X78632023Y-74921499D03*
X78501290Y-76415791D03*
X73321077Y-75962581D03*
X73451811Y-74468289D03*
%TD*%
D25*
%TO.C,D29*%
X79083799Y-55840713D03*
X79083799Y-57340713D03*
X73883799Y-57340713D03*
X73883799Y-55840713D03*
%TD*%
D18*
%TO.C,J1*%
X118933800Y-73052713D03*
X111933800Y-73052713D03*
D19*
X109233800Y-75352713D03*
X110333800Y-70752713D03*
X114333800Y-70752713D03*
X117333800Y-70752713D03*
%TD*%
D27*
%TO.C,OL2*%
X116843799Y-64602710D03*
X114303799Y-64602710D03*
X111763799Y-64602710D03*
X109223799Y-64602710D03*
%TD*%
D28*
%TO.C,D33*%
X98804120Y-78944293D03*
X98415892Y-80393182D03*
X93393077Y-79047323D03*
X93781306Y-77598434D03*
%TD*%
D25*
%TO.C,D20*%
X61083798Y-16372711D03*
X61083798Y-17872711D03*
X55883798Y-17872711D03*
X55883798Y-16372711D03*
%TD*%
D29*
%TO.C,D36*%
X118004066Y-86417742D03*
X117370138Y-87777204D03*
X112657338Y-85579589D03*
X113291265Y-84220127D03*
%TD*%
D25*
%TO.C,D27*%
X97063800Y-58380712D03*
X97063800Y-59880712D03*
X91863800Y-59880712D03*
X91863800Y-58380712D03*
%TD*%
M02*
