%TF.GenerationSoftware,KiCad,Pcbnew,(6.0.0)*%
%TF.CreationDate,2022-04-19T03:34:00-07:00*%
%TF.ProjectId,half-swept,68616c66-2d73-4776-9570-742e6b696361,rev?*%
%TF.SameCoordinates,Original*%
%TF.FileFunction,Paste,Bot*%
%TF.FilePolarity,Positive*%
%FSLAX46Y46*%
G04 Gerber Fmt 4.6, Leading zero omitted, Abs format (unit mm)*
G04 Created by KiCad (PCBNEW (6.0.0)) date 2022-04-19 03:34:00*
%MOMM*%
%LPD*%
G01*
G04 APERTURE LIST*
G04 Aperture macros list*
%AMRoundRect*
0 Rectangle with rounded corners*
0 $1 Rounding radius*
0 $2 $3 $4 $5 $6 $7 $8 $9 X,Y pos of 4 corners*
0 Add a 4 corners polygon primitive as box body*
4,1,4,$2,$3,$4,$5,$6,$7,$8,$9,$2,$3,0*
0 Add four circle primitives for the rounded corners*
1,1,$1+$1,$2,$3*
1,1,$1+$1,$4,$5*
1,1,$1+$1,$6,$7*
1,1,$1+$1,$8,$9*
0 Add four rect primitives between the rounded corners*
20,1,$1+$1,$2,$3,$4,$5,0*
20,1,$1+$1,$4,$5,$6,$7,0*
20,1,$1+$1,$6,$7,$8,$9,0*
20,1,$1+$1,$8,$9,$2,$3,0*%
%AMRotRect*
0 Rectangle, with rotation*
0 The origin of the aperture is its center*
0 $1 length*
0 $2 width*
0 $3 Rotation angle, in degrees counterclockwise*
0 Add horizontal line*
21,1,$1,$2,0,0,$3*%
G04 Aperture macros list end*
%ADD10RotRect,2.600000X2.600000X345.000000*%
%ADD11RotRect,2.600000X2.600000X335.000000*%
%ADD12R,2.600000X2.600000*%
%ADD13RotRect,2.600000X2.600000X355.000000*%
%ADD14RoundRect,0.082000X-0.686681X0.389330X-0.743855X-0.264174X0.686681X-0.389330X0.743855X0.264174X0*%
%ADD15RoundRect,0.082000X-0.718000X0.328000X-0.718000X-0.328000X0.718000X-0.328000X0.718000X0.328000X0*%
%ADD16RoundRect,0.082000X-0.608642X0.502656X-0.778427X-0.130992X0.608642X-0.502656X0.778427X0.130992X0*%
%ADD17RoundRect,0.082000X-0.512110X0.600709X-0.789348X0.006171X0.512110X-0.600709X0.789348X-0.006171X0*%
G04 APERTURE END LIST*
D10*
%TO.C,SW21*%
X85820190Y-85383205D03*
X96407232Y-90497602D03*
%TD*%
D11*
%TO.C,SW20*%
X104099286Y-90504197D03*
X113637380Y-97379315D03*
%TD*%
D12*
%TO.C,SW18*%
X86182454Y-67960711D03*
X97732454Y-70160711D03*
%TD*%
%TO.C,SW17*%
X68208799Y-65420713D03*
X79758799Y-67620713D03*
%TD*%
%TO.C,SW16*%
X50208797Y-60086711D03*
X61758797Y-62286711D03*
%TD*%
%TO.C,SW15*%
X32208799Y-66944710D03*
X43758799Y-69144710D03*
%TD*%
%TO.C,SW14*%
X14208799Y-78952709D03*
X25758799Y-81152709D03*
%TD*%
%TO.C,SW12*%
X86188799Y-50942711D03*
X97738799Y-53142711D03*
%TD*%
%TO.C,SW11*%
X68208800Y-48402714D03*
X79758800Y-50602714D03*
%TD*%
%TO.C,SW10*%
X50208800Y-43068711D03*
X61758800Y-45268711D03*
%TD*%
%TO.C,SW9*%
X32208800Y-49926711D03*
X43758800Y-52126711D03*
%TD*%
%TO.C,SW8*%
X14208799Y-61952711D03*
X25758799Y-64152711D03*
%TD*%
%TO.C,SW6*%
X86208798Y-33952711D03*
X97758798Y-36152711D03*
%TD*%
%TO.C,SW5*%
X68208798Y-31452712D03*
X79758798Y-33652712D03*
%TD*%
%TO.C,SW4*%
X50208798Y-25952711D03*
X61758798Y-28152711D03*
%TD*%
%TO.C,SW3*%
X32208801Y-32952711D03*
X43758801Y-35152711D03*
%TD*%
%TO.C,SW2*%
X14208799Y-44952711D03*
X25758799Y-47152711D03*
%TD*%
D13*
%TO.C,SW1*%
X66963454Y-83517225D03*
X78277760Y-86715503D03*
%TD*%
D14*
%TO.C,D12*%
X73451811Y-74468289D03*
X73321077Y-75962581D03*
X78501290Y-76415791D03*
X78632023Y-74921499D03*
%TD*%
D15*
%TO.C,D16*%
X37883801Y-23372711D03*
X37883801Y-24872711D03*
X43083801Y-24872711D03*
X43083801Y-23372711D03*
%TD*%
%TO.C,D8*%
X55883797Y-50506711D03*
X55883797Y-52006711D03*
X61083797Y-52006711D03*
X61083797Y-50506711D03*
%TD*%
%TO.C,D2*%
X55883798Y-16372711D03*
X55883798Y-17872711D03*
X61083798Y-17872711D03*
X61083798Y-16372711D03*
%TD*%
D16*
%TO.C,D15*%
X93781306Y-77598434D03*
X93393077Y-79047323D03*
X98415892Y-80393182D03*
X98804120Y-78944293D03*
%TD*%
D15*
%TO.C,D11*%
X73883799Y-55840713D03*
X73883799Y-57340713D03*
X79083799Y-57340713D03*
X79083799Y-55840713D03*
%TD*%
%TO.C,D14*%
X73883800Y-38822714D03*
X73883800Y-40322714D03*
X79083800Y-40322714D03*
X79083800Y-38822714D03*
%TD*%
%TO.C,D10*%
X37883799Y-57364710D03*
X37883799Y-58864710D03*
X43083799Y-58864710D03*
X43083799Y-57364710D03*
%TD*%
%TO.C,D1*%
X19883799Y-35372711D03*
X19883799Y-36872711D03*
X25083799Y-36872711D03*
X25083799Y-35372711D03*
%TD*%
%TO.C,D9*%
X91863800Y-58380712D03*
X91863800Y-59880712D03*
X97063800Y-59880712D03*
X97063800Y-58380712D03*
%TD*%
%TO.C,D17*%
X73883798Y-21872712D03*
X73883798Y-23372712D03*
X79083798Y-23372712D03*
X79083798Y-21872712D03*
%TD*%
D17*
%TO.C,D18*%
X113291265Y-84220127D03*
X112657338Y-85579589D03*
X117370138Y-87777204D03*
X118004066Y-86417742D03*
%TD*%
D15*
%TO.C,D4*%
X19883797Y-52422712D03*
X19883797Y-53922712D03*
X25083797Y-53922712D03*
X25083797Y-52422712D03*
%TD*%
%TO.C,D3*%
X91883798Y-24372711D03*
X91883798Y-25872711D03*
X97083798Y-25872711D03*
X97083798Y-24372711D03*
%TD*%
%TO.C,D7*%
X19883799Y-69372709D03*
X19883799Y-70872709D03*
X25083799Y-70872709D03*
X25083799Y-69372709D03*
%TD*%
%TO.C,D5*%
X55883800Y-33488711D03*
X55883800Y-34988711D03*
X61083800Y-34988711D03*
X61083800Y-33488711D03*
%TD*%
%TO.C,D6*%
X91863799Y-41362711D03*
X91863799Y-42862711D03*
X97063799Y-42862711D03*
X97063799Y-41362711D03*
%TD*%
%TO.C,D13*%
X37883800Y-40346711D03*
X37883800Y-41846711D03*
X43083800Y-41846711D03*
X43083800Y-40346711D03*
%TD*%
M02*
