%TF.GenerationSoftware,KiCad,Pcbnew,(6.0.0)*%
%TF.CreationDate,2022-03-14T02:06:46-07:00*%
%TF.ProjectId,half-swept,68616c66-2d73-4776-9570-742e6b696361,rev?*%
%TF.SameCoordinates,Original*%
%TF.FileFunction,Paste,Top*%
%TF.FilePolarity,Positive*%
%FSLAX46Y46*%
G04 Gerber Fmt 4.6, Leading zero omitted, Abs format (unit mm)*
G04 Created by KiCad (PCBNEW (6.0.0)) date 2022-03-14 02:06:46*
%MOMM*%
%LPD*%
G01*
G04 APERTURE LIST*
G04 Aperture macros list*
%AMRoundRect*
0 Rectangle with rounded corners*
0 $1 Rounding radius*
0 $2 $3 $4 $5 $6 $7 $8 $9 X,Y pos of 4 corners*
0 Add a 4 corners polygon primitive as box body*
4,1,4,$2,$3,$4,$5,$6,$7,$8,$9,$2,$3,0*
0 Add four circle primitives for the rounded corners*
1,1,$1+$1,$2,$3*
1,1,$1+$1,$4,$5*
1,1,$1+$1,$6,$7*
1,1,$1+$1,$8,$9*
0 Add four rect primitives between the rounded corners*
20,1,$1+$1,$2,$3,$4,$5,0*
20,1,$1+$1,$4,$5,$6,$7,0*
20,1,$1+$1,$6,$7,$8,$9,0*
20,1,$1+$1,$8,$9,$2,$3,0*%
G04 Aperture macros list end*
%ADD10RoundRect,0.082000X-0.718000X0.328000X-0.718000X-0.328000X0.718000X-0.328000X0.718000X0.328000X0*%
%ADD11RoundRect,0.082000X-0.686681X0.389330X-0.743855X-0.264174X0.686681X-0.389330X0.743855X0.264174X0*%
%ADD12RoundRect,0.082000X-0.608642X0.502656X-0.778427X-0.130992X0.608642X-0.502656X0.778427X0.130992X0*%
%ADD13RoundRect,0.082000X-0.512110X0.600709X-0.789348X0.006171X0.512110X-0.600709X0.789348X-0.006171X0*%
G04 APERTURE END LIST*
D10*
%TO.C,D34*%
X42630236Y-23012495D03*
X42630236Y-24512495D03*
X37430236Y-24512495D03*
X37430236Y-23012495D03*
%TD*%
%TO.C,D26*%
X60630235Y-50146495D03*
X60630235Y-51646495D03*
X55430235Y-51646495D03*
X55430235Y-50146495D03*
%TD*%
%TO.C,D31*%
X42630237Y-39986495D03*
X42630237Y-41486495D03*
X37430237Y-41486495D03*
X37430237Y-39986495D03*
%TD*%
%TO.C,D28*%
X42630236Y-57004495D03*
X42630236Y-58504495D03*
X37430236Y-58504495D03*
X37430236Y-57004495D03*
%TD*%
%TO.C,D32*%
X78630236Y-38462496D03*
X78630236Y-39962496D03*
X73430236Y-39962496D03*
X73430236Y-38462496D03*
%TD*%
%TO.C,D21*%
X96630235Y-24012495D03*
X96630235Y-25512495D03*
X91430235Y-25512495D03*
X91430235Y-24012495D03*
%TD*%
%TO.C,D19*%
X24630236Y-35012495D03*
X24630236Y-36512495D03*
X19430236Y-36512495D03*
X19430236Y-35012495D03*
%TD*%
%TO.C,D23*%
X60630236Y-33128495D03*
X60630236Y-34628495D03*
X55430236Y-34628495D03*
X55430236Y-33128495D03*
%TD*%
%TO.C,D22*%
X24630236Y-52062495D03*
X24630236Y-53562495D03*
X19430236Y-53562495D03*
X19430236Y-52062495D03*
%TD*%
%TO.C,D35*%
X78630237Y-21512495D03*
X78630237Y-23012495D03*
X73430237Y-23012495D03*
X73430237Y-21512495D03*
%TD*%
%TO.C,D25*%
X24630237Y-69012495D03*
X24630237Y-70512495D03*
X19430237Y-70512495D03*
X19430237Y-69012495D03*
%TD*%
%TO.C,D24*%
X96610236Y-41002496D03*
X96610236Y-42502496D03*
X91410236Y-42502496D03*
X91410236Y-41002496D03*
%TD*%
D11*
%TO.C,D30*%
X78178461Y-74561284D03*
X78047728Y-76055576D03*
X72867515Y-75602366D03*
X72998249Y-74108074D03*
%TD*%
D10*
%TO.C,D29*%
X78630236Y-55480496D03*
X78630236Y-56980496D03*
X73430236Y-56980496D03*
X73430236Y-55480496D03*
%TD*%
D12*
%TO.C,D33*%
X98350558Y-78584076D03*
X97962330Y-80032965D03*
X92939515Y-78687106D03*
X93327744Y-77238217D03*
%TD*%
D10*
%TO.C,D20*%
X60630236Y-16012495D03*
X60630236Y-17512495D03*
X55430236Y-17512495D03*
X55430236Y-16012495D03*
%TD*%
D13*
%TO.C,D36*%
X117550502Y-86057527D03*
X116916574Y-87416989D03*
X112203774Y-85219374D03*
X112837701Y-83859912D03*
%TD*%
D10*
%TO.C,D27*%
X96610236Y-58020495D03*
X96610236Y-59520495D03*
X91410236Y-59520495D03*
X91410236Y-58020495D03*
%TD*%
M02*
