%TF.GenerationSoftware,KiCad,Pcbnew,(6.0.0)*%
%TF.CreationDate,2022-03-14T02:06:46-07:00*%
%TF.ProjectId,half-swept,68616c66-2d73-4776-9570-742e6b696361,rev?*%
%TF.SameCoordinates,Original*%
%TF.FileFunction,Legend,Top*%
%TF.FilePolarity,Positive*%
%FSLAX46Y46*%
G04 Gerber Fmt 4.6, Leading zero omitted, Abs format (unit mm)*
G04 Created by KiCad (PCBNEW (6.0.0)) date 2022-03-14 02:06:46*
%MOMM*%
%LPD*%
G01*
G04 APERTURE LIST*
%ADD10C,0.150000*%
%ADD11C,0.100000*%
%ADD12C,0.120000*%
%ADD13C,0.200000*%
%ADD14C,0.010000*%
%ADD15C,0.381000*%
%ADD16R,1.752600X1.752600*%
%ADD17C,1.752600*%
%ADD18C,1.397000*%
G04 APERTURE END LIST*
D10*
%TO.C,RSW1*%
X73640950Y-17537375D02*
X73307616Y-17061185D01*
X73069521Y-17537375D02*
X73069521Y-16537375D01*
X73450474Y-16537375D01*
X73545712Y-16584995D01*
X73593331Y-16632614D01*
X73640950Y-16727852D01*
X73640950Y-16870709D01*
X73593331Y-16965947D01*
X73545712Y-17013566D01*
X73450474Y-17061185D01*
X73069521Y-17061185D01*
X74021902Y-17489756D02*
X74164759Y-17537375D01*
X74402855Y-17537375D01*
X74498093Y-17489756D01*
X74545712Y-17442137D01*
X74593331Y-17346899D01*
X74593331Y-17251661D01*
X74545712Y-17156423D01*
X74498093Y-17108804D01*
X74402855Y-17061185D01*
X74212378Y-17013566D01*
X74117140Y-16965947D01*
X74069521Y-16918328D01*
X74021902Y-16823090D01*
X74021902Y-16727852D01*
X74069521Y-16632614D01*
X74117140Y-16584995D01*
X74212378Y-16537375D01*
X74450474Y-16537375D01*
X74593331Y-16584995D01*
X74926664Y-16537375D02*
X75164759Y-17537375D01*
X75355236Y-16823090D01*
X75545712Y-17537375D01*
X75783807Y-16537375D01*
X76688569Y-17537375D02*
X76117140Y-17537375D01*
X76402855Y-17537375D02*
X76402855Y-16537375D01*
X76307616Y-16680233D01*
X76212378Y-16775471D01*
X76117140Y-16823090D01*
D11*
%TO.C,REF\u002A\u002A*%
X67125450Y-47100495D02*
X67125450Y-46719542D01*
X66792116Y-46957637D02*
X67649259Y-46957637D01*
X67744497Y-46910018D01*
X67792116Y-46814780D01*
X67792116Y-46719542D01*
X67744497Y-46005256D02*
X67792116Y-46100495D01*
X67792116Y-46290971D01*
X67744497Y-46386209D01*
X67649259Y-46433828D01*
X67268307Y-46433828D01*
X67173069Y-46386209D01*
X67125450Y-46290971D01*
X67125450Y-46100495D01*
X67173069Y-46005256D01*
X67268307Y-45957637D01*
X67363545Y-45957637D01*
X67458783Y-46433828D01*
X67125450Y-45529066D02*
X67792116Y-45529066D01*
X67220688Y-45529066D02*
X67173069Y-45481447D01*
X67125450Y-45386209D01*
X67125450Y-45243352D01*
X67173069Y-45148114D01*
X67268307Y-45100495D01*
X67792116Y-45100495D01*
X67125450Y-44767161D02*
X67125450Y-44386209D01*
X66792116Y-44624304D02*
X67649259Y-44624304D01*
X67744497Y-44576685D01*
X67792116Y-44481447D01*
X67792116Y-44386209D01*
X67792116Y-44052875D02*
X67125450Y-44052875D01*
X66792116Y-44052875D02*
X66839736Y-44100495D01*
X66887355Y-44052875D01*
X66839736Y-44005256D01*
X66792116Y-44052875D01*
X66887355Y-44052875D01*
X67125450Y-43576685D02*
X67792116Y-43576685D01*
X67220688Y-43576685D02*
X67173069Y-43529066D01*
X67125450Y-43433828D01*
X67125450Y-43290971D01*
X67173069Y-43195733D01*
X67268307Y-43148114D01*
X67792116Y-43148114D01*
X67125450Y-42243352D02*
X67934974Y-42243352D01*
X68030212Y-42290971D01*
X68077831Y-42338590D01*
X68125450Y-42433828D01*
X68125450Y-42576685D01*
X68077831Y-42671923D01*
X67744497Y-42243352D02*
X67792116Y-42338590D01*
X67792116Y-42529066D01*
X67744497Y-42624304D01*
X67696878Y-42671923D01*
X67601640Y-42719542D01*
X67315926Y-42719542D01*
X67220688Y-42671923D01*
X67173069Y-42624304D01*
X67125450Y-42529066D01*
X67125450Y-42338590D01*
X67173069Y-42243352D01*
X67061950Y-33209995D02*
X68061950Y-33209995D01*
X67109569Y-33209995D02*
X67061950Y-33114756D01*
X67061950Y-32924280D01*
X67109569Y-32829042D01*
X67157188Y-32781423D01*
X67252426Y-32733804D01*
X67538140Y-32733804D01*
X67633378Y-32781423D01*
X67680997Y-32829042D01*
X67728616Y-32924280D01*
X67728616Y-33114756D01*
X67680997Y-33209995D01*
X67061950Y-31876661D02*
X67728616Y-31876661D01*
X67061950Y-32305233D02*
X67585759Y-32305233D01*
X67680997Y-32257614D01*
X67728616Y-32162375D01*
X67728616Y-32019518D01*
X67680997Y-31924280D01*
X67633378Y-31876661D01*
X67680997Y-30971899D02*
X67728616Y-31067137D01*
X67728616Y-31257614D01*
X67680997Y-31352852D01*
X67633378Y-31400471D01*
X67538140Y-31448090D01*
X67252426Y-31448090D01*
X67157188Y-31400471D01*
X67109569Y-31352852D01*
X67061950Y-31257614D01*
X67061950Y-31067137D01*
X67109569Y-30971899D01*
X67728616Y-30543328D02*
X66728616Y-30543328D01*
X67347664Y-30448090D02*
X67728616Y-30162375D01*
X67061950Y-30162375D02*
X67442902Y-30543328D01*
D10*
%TO.C,U2*%
X106766854Y-52312103D02*
X107033520Y-52312103D01*
X107147806Y-52731150D02*
X106766854Y-52731150D01*
X106766854Y-51931150D01*
X107147806Y-51931150D01*
X107833520Y-51931150D02*
X107681139Y-51931150D01*
X107604949Y-51969246D01*
X107566854Y-52007341D01*
X107490663Y-52121626D01*
X107452568Y-52274007D01*
X107452568Y-52578769D01*
X107490663Y-52654960D01*
X107528758Y-52693055D01*
X107604949Y-52731150D01*
X107757330Y-52731150D01*
X107833520Y-52693055D01*
X107871615Y-52654960D01*
X107909711Y-52578769D01*
X107909711Y-52388293D01*
X107871615Y-52312103D01*
X107833520Y-52274007D01*
X107757330Y-52235912D01*
X107604949Y-52235912D01*
X107528758Y-52274007D01*
X107490663Y-52312103D01*
X107452568Y-52388293D01*
X117046901Y-56029246D02*
X116813568Y-56029246D01*
X116813568Y-56395912D02*
X116813568Y-55695912D01*
X117146901Y-55695912D01*
X117546901Y-55695912D02*
X117613568Y-55695912D01*
X117680235Y-55729246D01*
X117713568Y-55762579D01*
X117746901Y-55829246D01*
X117780235Y-55962579D01*
X117780235Y-56129246D01*
X117746901Y-56262579D01*
X117713568Y-56329246D01*
X117680235Y-56362579D01*
X117613568Y-56395912D01*
X117546901Y-56395912D01*
X117480235Y-56362579D01*
X117446901Y-56329246D01*
X117413568Y-56262579D01*
X117380235Y-56129246D01*
X117380235Y-55962579D01*
X117413568Y-55829246D01*
X117446901Y-55762579D01*
X117480235Y-55729246D01*
X117546901Y-55695912D01*
X106728758Y-45111150D02*
X106728758Y-44311150D01*
X106919235Y-44311150D01*
X107033520Y-44349246D01*
X107109711Y-44425436D01*
X107147806Y-44501626D01*
X107185901Y-44654007D01*
X107185901Y-44768293D01*
X107147806Y-44920674D01*
X107109711Y-44996865D01*
X107033520Y-45073055D01*
X106919235Y-45111150D01*
X106728758Y-45111150D01*
X107871615Y-44577817D02*
X107871615Y-45111150D01*
X107681139Y-44273055D02*
X107490663Y-44844484D01*
X107985901Y-44844484D01*
X106728758Y-50191150D02*
X106728758Y-49391150D01*
X106919235Y-49391150D01*
X107033520Y-49429246D01*
X107109711Y-49505436D01*
X107147806Y-49581626D01*
X107185901Y-49734007D01*
X107185901Y-49848293D01*
X107147806Y-50000674D01*
X107109711Y-50076865D01*
X107033520Y-50153055D01*
X106919235Y-50191150D01*
X106728758Y-50191150D01*
X107452568Y-49391150D02*
X107985901Y-49391150D01*
X107643044Y-50191150D01*
X107185901Y-47574960D02*
X107147806Y-47613055D01*
X107033520Y-47651150D01*
X106957330Y-47651150D01*
X106843044Y-47613055D01*
X106766854Y-47536865D01*
X106728758Y-47460674D01*
X106690663Y-47308293D01*
X106690663Y-47194007D01*
X106728758Y-47041626D01*
X106766854Y-46965436D01*
X106843044Y-46889246D01*
X106957330Y-46851150D01*
X107033520Y-46851150D01*
X107147806Y-46889246D01*
X107185901Y-46927341D01*
X107871615Y-46851150D02*
X107719235Y-46851150D01*
X107643044Y-46889246D01*
X107604949Y-46927341D01*
X107528758Y-47041626D01*
X107490663Y-47194007D01*
X107490663Y-47498769D01*
X107528758Y-47574960D01*
X107566854Y-47613055D01*
X107643044Y-47651150D01*
X107795425Y-47651150D01*
X107871615Y-47613055D01*
X107909711Y-47574960D01*
X107947806Y-47498769D01*
X107947806Y-47308293D01*
X107909711Y-47232103D01*
X107871615Y-47194007D01*
X107795425Y-47155912D01*
X107643044Y-47155912D01*
X107566854Y-47194007D01*
X107528758Y-47232103D01*
X107490663Y-47308293D01*
X117974568Y-39612103D02*
X117707901Y-39612103D01*
X117707901Y-40031150D02*
X117707901Y-39231150D01*
X118088854Y-39231150D01*
X118736473Y-39497817D02*
X118736473Y-40031150D01*
X118545996Y-39193055D02*
X118355520Y-39764484D01*
X118850758Y-39764484D01*
X106709711Y-34189246D02*
X106633520Y-34151150D01*
X106519235Y-34151150D01*
X106404949Y-34189246D01*
X106328758Y-34265436D01*
X106290663Y-34341626D01*
X106252568Y-34494007D01*
X106252568Y-34608293D01*
X106290663Y-34760674D01*
X106328758Y-34836865D01*
X106404949Y-34913055D01*
X106519235Y-34951150D01*
X106595425Y-34951150D01*
X106709711Y-34913055D01*
X106747806Y-34874960D01*
X106747806Y-34608293D01*
X106595425Y-34608293D01*
X107090663Y-34951150D02*
X107090663Y-34151150D01*
X107547806Y-34951150D01*
X107547806Y-34151150D01*
X107928758Y-34951150D02*
X107928758Y-34151150D01*
X108119235Y-34151150D01*
X108233520Y-34189246D01*
X108309711Y-34265436D01*
X108347806Y-34341626D01*
X108385901Y-34494007D01*
X108385901Y-34608293D01*
X108347806Y-34760674D01*
X108309711Y-34836865D01*
X108233520Y-34913055D01*
X108119235Y-34951150D01*
X107928758Y-34951150D01*
X107996901Y-56029246D02*
X108096901Y-56062579D01*
X108130235Y-56095912D01*
X108163568Y-56162579D01*
X108163568Y-56262579D01*
X108130235Y-56329246D01*
X108096901Y-56362579D01*
X108030235Y-56395912D01*
X107763568Y-56395912D01*
X107763568Y-55695912D01*
X107996901Y-55695912D01*
X108063568Y-55729246D01*
X108096901Y-55762579D01*
X108130235Y-55829246D01*
X108130235Y-55895912D01*
X108096901Y-55962579D01*
X108063568Y-55995912D01*
X107996901Y-56029246D01*
X107763568Y-56029246D01*
X108396901Y-55695912D02*
X108863568Y-55695912D01*
X108563568Y-56395912D01*
X117917425Y-54852103D02*
X118031711Y-54890198D01*
X118069806Y-54928293D01*
X118107901Y-55004484D01*
X118107901Y-55118769D01*
X118069806Y-55194960D01*
X118031711Y-55233055D01*
X117955520Y-55271150D01*
X117650758Y-55271150D01*
X117650758Y-54471150D01*
X117917425Y-54471150D01*
X117993615Y-54509246D01*
X118031711Y-54547341D01*
X118069806Y-54623531D01*
X118069806Y-54699722D01*
X118031711Y-54775912D01*
X117993615Y-54814007D01*
X117917425Y-54852103D01*
X117650758Y-54852103D01*
X118412663Y-54547341D02*
X118450758Y-54509246D01*
X118526949Y-54471150D01*
X118717425Y-54471150D01*
X118793615Y-54509246D01*
X118831711Y-54547341D01*
X118869806Y-54623531D01*
X118869806Y-54699722D01*
X118831711Y-54814007D01*
X118374568Y-55271150D01*
X118869806Y-55271150D01*
X115053568Y-55822103D02*
X114786901Y-55822103D01*
X114786901Y-56241150D02*
X114786901Y-55441150D01*
X115167854Y-55441150D01*
X115891663Y-56241150D02*
X115434520Y-56241150D01*
X115663092Y-56241150D02*
X115663092Y-55441150D01*
X115586901Y-55555436D01*
X115510711Y-55631626D01*
X115434520Y-55669722D01*
X117917425Y-52312103D02*
X118031711Y-52350198D01*
X118069806Y-52388293D01*
X118107901Y-52464484D01*
X118107901Y-52578769D01*
X118069806Y-52654960D01*
X118031711Y-52693055D01*
X117955520Y-52731150D01*
X117650758Y-52731150D01*
X117650758Y-51931150D01*
X117917425Y-51931150D01*
X117993615Y-51969246D01*
X118031711Y-52007341D01*
X118069806Y-52083531D01*
X118069806Y-52159722D01*
X118031711Y-52235912D01*
X117993615Y-52274007D01*
X117917425Y-52312103D01*
X117650758Y-52312103D01*
X118374568Y-51931150D02*
X118869806Y-51931150D01*
X118603139Y-52235912D01*
X118717425Y-52235912D01*
X118793615Y-52274007D01*
X118831711Y-52312103D01*
X118869806Y-52388293D01*
X118869806Y-52578769D01*
X118831711Y-52654960D01*
X118793615Y-52693055D01*
X118717425Y-52731150D01*
X118488854Y-52731150D01*
X118412663Y-52693055D01*
X118374568Y-52654960D01*
X106728758Y-42571150D02*
X106728758Y-41771150D01*
X106919235Y-41771150D01*
X107033520Y-41809246D01*
X107109711Y-41885436D01*
X107147806Y-41961626D01*
X107185901Y-42114007D01*
X107185901Y-42228293D01*
X107147806Y-42380674D01*
X107109711Y-42456865D01*
X107033520Y-42533055D01*
X106919235Y-42571150D01*
X106728758Y-42571150D01*
X107681139Y-41771150D02*
X107757330Y-41771150D01*
X107833520Y-41809246D01*
X107871615Y-41847341D01*
X107909711Y-41923531D01*
X107947806Y-42075912D01*
X107947806Y-42266388D01*
X107909711Y-42418769D01*
X107871615Y-42494960D01*
X107833520Y-42533055D01*
X107757330Y-42571150D01*
X107681139Y-42571150D01*
X107604949Y-42533055D01*
X107566854Y-42494960D01*
X107528758Y-42418769D01*
X107490663Y-42266388D01*
X107490663Y-42075912D01*
X107528758Y-41923531D01*
X107566854Y-41847341D01*
X107604949Y-41809246D01*
X107681139Y-41771150D01*
X109649758Y-56241150D02*
X109649758Y-55441150D01*
X109840235Y-55441150D01*
X109954520Y-55479246D01*
X110030711Y-55555436D01*
X110068806Y-55631626D01*
X110106901Y-55784007D01*
X110106901Y-55898293D01*
X110068806Y-56050674D01*
X110030711Y-56126865D01*
X109954520Y-56203055D01*
X109840235Y-56241150D01*
X109649758Y-56241150D01*
X110830711Y-55441150D02*
X110449758Y-55441150D01*
X110411663Y-55822103D01*
X110449758Y-55784007D01*
X110525949Y-55745912D01*
X110716425Y-55745912D01*
X110792615Y-55784007D01*
X110830711Y-55822103D01*
X110868806Y-55898293D01*
X110868806Y-56088769D01*
X110830711Y-56164960D01*
X110792615Y-56203055D01*
X110716425Y-56241150D01*
X110525949Y-56241150D01*
X110449758Y-56203055D01*
X110411663Y-56164960D01*
X106545226Y-56414948D02*
X106498086Y-56320667D01*
X106498086Y-56273526D01*
X106521656Y-56202816D01*
X106592367Y-56132105D01*
X106663077Y-56108535D01*
X106710218Y-56108535D01*
X106780928Y-56132105D01*
X106969490Y-56320667D01*
X106474515Y-56815642D01*
X106309524Y-56650650D01*
X106285954Y-56579939D01*
X106285954Y-56532799D01*
X106309524Y-56462088D01*
X106356664Y-56414948D01*
X106427375Y-56391378D01*
X106474515Y-56391378D01*
X106545226Y-56414948D01*
X106710218Y-56579939D01*
X105743838Y-56084965D02*
X105979541Y-56320667D01*
X106238813Y-56108535D01*
X106191673Y-56108535D01*
X106120962Y-56084965D01*
X106003111Y-55967113D01*
X105979541Y-55896403D01*
X105979541Y-55849262D01*
X106003111Y-55778552D01*
X106120962Y-55660701D01*
X106191673Y-55637130D01*
X106238813Y-55637130D01*
X106309524Y-55660701D01*
X106427375Y-55778552D01*
X106450945Y-55849262D01*
X106450945Y-55896403D01*
X106709711Y-36729246D02*
X106633520Y-36691150D01*
X106519235Y-36691150D01*
X106404949Y-36729246D01*
X106328758Y-36805436D01*
X106290663Y-36881626D01*
X106252568Y-37034007D01*
X106252568Y-37148293D01*
X106290663Y-37300674D01*
X106328758Y-37376865D01*
X106404949Y-37453055D01*
X106519235Y-37491150D01*
X106595425Y-37491150D01*
X106709711Y-37453055D01*
X106747806Y-37414960D01*
X106747806Y-37148293D01*
X106595425Y-37148293D01*
X107090663Y-37491150D02*
X107090663Y-36691150D01*
X107547806Y-37491150D01*
X107547806Y-36691150D01*
X107928758Y-37491150D02*
X107928758Y-36691150D01*
X108119235Y-36691150D01*
X108233520Y-36729246D01*
X108309711Y-36805436D01*
X108347806Y-36881626D01*
X108385901Y-37034007D01*
X108385901Y-37148293D01*
X108347806Y-37300674D01*
X108309711Y-37376865D01*
X108233520Y-37453055D01*
X108119235Y-37491150D01*
X107928758Y-37491150D01*
X117980021Y-34883055D02*
X118094307Y-34921150D01*
X118284783Y-34921150D01*
X118360974Y-34883055D01*
X118399069Y-34844960D01*
X118437164Y-34768769D01*
X118437164Y-34692579D01*
X118399069Y-34616388D01*
X118360974Y-34578293D01*
X118284783Y-34540198D01*
X118132402Y-34502103D01*
X118056212Y-34464007D01*
X118018116Y-34425912D01*
X117980021Y-34349722D01*
X117980021Y-34273531D01*
X118018116Y-34197341D01*
X118056212Y-34159246D01*
X118132402Y-34121150D01*
X118322878Y-34121150D01*
X118437164Y-34159246D01*
X118665735Y-34121150D02*
X119122878Y-34121150D01*
X118894307Y-34921150D02*
X118894307Y-34121150D01*
X112646901Y-56164960D02*
X112608806Y-56203055D01*
X112494520Y-56241150D01*
X112418330Y-56241150D01*
X112304044Y-56203055D01*
X112227854Y-56126865D01*
X112189758Y-56050674D01*
X112151663Y-55898293D01*
X112151663Y-55784007D01*
X112189758Y-55631626D01*
X112227854Y-55555436D01*
X112304044Y-55479246D01*
X112418330Y-55441150D01*
X112494520Y-55441150D01*
X112608806Y-55479246D01*
X112646901Y-55517341D01*
X112913568Y-55441150D02*
X113446901Y-55441150D01*
X113104044Y-56241150D01*
X118944532Y-56344237D02*
X119038813Y-56297097D01*
X119085954Y-56297097D01*
X119156664Y-56320667D01*
X119227375Y-56391378D01*
X119250945Y-56462088D01*
X119250945Y-56509229D01*
X119227375Y-56579939D01*
X119038813Y-56768501D01*
X118543838Y-56273526D01*
X118708830Y-56108535D01*
X118779541Y-56084965D01*
X118826681Y-56084965D01*
X118897392Y-56108535D01*
X118944532Y-56155675D01*
X118968102Y-56226386D01*
X118968102Y-56273526D01*
X118944532Y-56344237D01*
X118779541Y-56509229D01*
X119250945Y-55566420D02*
X119156664Y-55660701D01*
X119133094Y-55731411D01*
X119133094Y-55778552D01*
X119156664Y-55896403D01*
X119227375Y-56014254D01*
X119415937Y-56202816D01*
X119486647Y-56226386D01*
X119533788Y-56226386D01*
X119604499Y-56202816D01*
X119698779Y-56108535D01*
X119722350Y-56037824D01*
X119722350Y-55990684D01*
X119698779Y-55919973D01*
X119580928Y-55802122D01*
X119510218Y-55778552D01*
X119463077Y-55778552D01*
X119392367Y-55802122D01*
X119298086Y-55896403D01*
X119274515Y-55967113D01*
X119274515Y-56014254D01*
X119298086Y-56084965D01*
X117974568Y-42152103D02*
X117707901Y-42152103D01*
X117707901Y-42571150D02*
X117707901Y-41771150D01*
X118088854Y-41771150D01*
X118774568Y-41771150D02*
X118393615Y-41771150D01*
X118355520Y-42152103D01*
X118393615Y-42114007D01*
X118469806Y-42075912D01*
X118660282Y-42075912D01*
X118736473Y-42114007D01*
X118774568Y-42152103D01*
X118812663Y-42228293D01*
X118812663Y-42418769D01*
X118774568Y-42494960D01*
X118736473Y-42533055D01*
X118660282Y-42571150D01*
X118469806Y-42571150D01*
X118393615Y-42533055D01*
X118355520Y-42494960D01*
X107017886Y-29071150D02*
X107475029Y-29071150D01*
X107246458Y-29871150D02*
X107246458Y-29071150D01*
X107665505Y-29071150D02*
X108198839Y-29871150D01*
X108198839Y-29071150D02*
X107665505Y-29871150D01*
X108655982Y-29071150D02*
X108732172Y-29071150D01*
X108808363Y-29109246D01*
X108846458Y-29147341D01*
X108884553Y-29223531D01*
X108922648Y-29375912D01*
X108922648Y-29566388D01*
X108884553Y-29718769D01*
X108846458Y-29794960D01*
X108808363Y-29833055D01*
X108732172Y-29871150D01*
X108655982Y-29871150D01*
X108579791Y-29833055D01*
X108541696Y-29794960D01*
X108503601Y-29718769D01*
X108465505Y-29566388D01*
X108465505Y-29375912D01*
X108503601Y-29223531D01*
X108541696Y-29147341D01*
X108579791Y-29109246D01*
X108655982Y-29071150D01*
X109836934Y-29033055D02*
X109151220Y-30061626D01*
X110103601Y-29871150D02*
X110103601Y-29071150D01*
X110294077Y-29071150D01*
X110408363Y-29109246D01*
X110484553Y-29185436D01*
X110522648Y-29261626D01*
X110560743Y-29414007D01*
X110560743Y-29528293D01*
X110522648Y-29680674D01*
X110484553Y-29756865D01*
X110408363Y-29833055D01*
X110294077Y-29871150D01*
X110103601Y-29871150D01*
X110827410Y-29071150D02*
X111322648Y-29071150D01*
X111055982Y-29375912D01*
X111170267Y-29375912D01*
X111246458Y-29414007D01*
X111284553Y-29452103D01*
X111322648Y-29528293D01*
X111322648Y-29718769D01*
X111284553Y-29794960D01*
X111246458Y-29833055D01*
X111170267Y-29871150D01*
X110941696Y-29871150D01*
X110865505Y-29833055D01*
X110827410Y-29794960D01*
X106728758Y-40031150D02*
X106728758Y-39231150D01*
X106919235Y-39231150D01*
X107033520Y-39269246D01*
X107109711Y-39345436D01*
X107147806Y-39421626D01*
X107185901Y-39574007D01*
X107185901Y-39688293D01*
X107147806Y-39840674D01*
X107109711Y-39916865D01*
X107033520Y-39993055D01*
X106919235Y-40031150D01*
X106728758Y-40031150D01*
X107947806Y-40031150D02*
X107490663Y-40031150D01*
X107719235Y-40031150D02*
X107719235Y-39231150D01*
X107643044Y-39345436D01*
X107566854Y-39421626D01*
X107490663Y-39459722D01*
X106728758Y-32411150D02*
X106728758Y-31611150D01*
X106919235Y-31611150D01*
X107033520Y-31649246D01*
X107109711Y-31725436D01*
X107147806Y-31801626D01*
X107185901Y-31954007D01*
X107185901Y-32068293D01*
X107147806Y-32220674D01*
X107109711Y-32296865D01*
X107033520Y-32373055D01*
X106919235Y-32411150D01*
X106728758Y-32411150D01*
X107490663Y-31687341D02*
X107528758Y-31649246D01*
X107604949Y-31611150D01*
X107795425Y-31611150D01*
X107871615Y-31649246D01*
X107909711Y-31687341D01*
X107947806Y-31763531D01*
X107947806Y-31839722D01*
X107909711Y-31954007D01*
X107452568Y-32411150D01*
X107947806Y-32411150D01*
X117917425Y-29452103D02*
X118031711Y-29490198D01*
X118069806Y-29528293D01*
X118107901Y-29604484D01*
X118107901Y-29718769D01*
X118069806Y-29794960D01*
X118031711Y-29833055D01*
X117955520Y-29871150D01*
X117650758Y-29871150D01*
X117650758Y-29071150D01*
X117917425Y-29071150D01*
X117993615Y-29109246D01*
X118031711Y-29147341D01*
X118069806Y-29223531D01*
X118069806Y-29299722D01*
X118031711Y-29375912D01*
X117993615Y-29414007D01*
X117917425Y-29452103D01*
X117650758Y-29452103D01*
X118603139Y-29071150D02*
X118679330Y-29071150D01*
X118755520Y-29109246D01*
X118793615Y-29147341D01*
X118831711Y-29223531D01*
X118869806Y-29375912D01*
X118869806Y-29566388D01*
X118831711Y-29718769D01*
X118793615Y-29794960D01*
X118755520Y-29833055D01*
X118679330Y-29871150D01*
X118603139Y-29871150D01*
X118526949Y-29833055D01*
X118488854Y-29794960D01*
X118450758Y-29718769D01*
X118412663Y-29566388D01*
X118412663Y-29375912D01*
X118450758Y-29223531D01*
X118488854Y-29147341D01*
X118526949Y-29109246D01*
X118603139Y-29071150D01*
X117974568Y-47232103D02*
X117707901Y-47232103D01*
X117707901Y-47651150D02*
X117707901Y-46851150D01*
X118088854Y-46851150D01*
X118317425Y-46851150D02*
X118850758Y-46851150D01*
X118507901Y-47651150D01*
X106995425Y-54852103D02*
X107109711Y-54890198D01*
X107147806Y-54928293D01*
X107185901Y-55004484D01*
X107185901Y-55118769D01*
X107147806Y-55194960D01*
X107109711Y-55233055D01*
X107033520Y-55271150D01*
X106728758Y-55271150D01*
X106728758Y-54471150D01*
X106995425Y-54471150D01*
X107071615Y-54509246D01*
X107109711Y-54547341D01*
X107147806Y-54623531D01*
X107147806Y-54699722D01*
X107109711Y-54775912D01*
X107071615Y-54814007D01*
X106995425Y-54852103D01*
X106728758Y-54852103D01*
X107871615Y-54737817D02*
X107871615Y-55271150D01*
X107681139Y-54433055D02*
X107490663Y-55004484D01*
X107985901Y-55004484D01*
X117174568Y-36691150D02*
X117441235Y-37491150D01*
X117707901Y-36691150D01*
X118431711Y-37414960D02*
X118393615Y-37453055D01*
X118279330Y-37491150D01*
X118203139Y-37491150D01*
X118088854Y-37453055D01*
X118012663Y-37376865D01*
X117974568Y-37300674D01*
X117936473Y-37148293D01*
X117936473Y-37034007D01*
X117974568Y-36881626D01*
X118012663Y-36805436D01*
X118088854Y-36729246D01*
X118203139Y-36691150D01*
X118279330Y-36691150D01*
X118393615Y-36729246D01*
X118431711Y-36767341D01*
X119231711Y-37414960D02*
X119193615Y-37453055D01*
X119079330Y-37491150D01*
X119003139Y-37491150D01*
X118888854Y-37453055D01*
X118812663Y-37376865D01*
X118774568Y-37300674D01*
X118736473Y-37148293D01*
X118736473Y-37034007D01*
X118774568Y-36881626D01*
X118812663Y-36805436D01*
X118888854Y-36729246D01*
X119003139Y-36691150D01*
X119079330Y-36691150D01*
X119193615Y-36729246D01*
X119231711Y-36767341D01*
X117917425Y-49772103D02*
X118031711Y-49810198D01*
X118069806Y-49848293D01*
X118107901Y-49924484D01*
X118107901Y-50038769D01*
X118069806Y-50114960D01*
X118031711Y-50153055D01*
X117955520Y-50191150D01*
X117650758Y-50191150D01*
X117650758Y-49391150D01*
X117917425Y-49391150D01*
X117993615Y-49429246D01*
X118031711Y-49467341D01*
X118069806Y-49543531D01*
X118069806Y-49619722D01*
X118031711Y-49695912D01*
X117993615Y-49734007D01*
X117917425Y-49772103D01*
X117650758Y-49772103D01*
X118869806Y-50191150D02*
X118412663Y-50191150D01*
X118641235Y-50191150D02*
X118641235Y-49391150D01*
X118565044Y-49505436D01*
X118488854Y-49581626D01*
X118412663Y-49619722D01*
X117974568Y-44692103D02*
X117707901Y-44692103D01*
X117707901Y-45111150D02*
X117707901Y-44311150D01*
X118088854Y-44311150D01*
X118736473Y-44311150D02*
X118584092Y-44311150D01*
X118507901Y-44349246D01*
X118469806Y-44387341D01*
X118393615Y-44501626D01*
X118355520Y-44654007D01*
X118355520Y-44958769D01*
X118393615Y-45034960D01*
X118431711Y-45073055D01*
X118507901Y-45111150D01*
X118660282Y-45111150D01*
X118736473Y-45073055D01*
X118774568Y-45034960D01*
X118812663Y-44958769D01*
X118812663Y-44768293D01*
X118774568Y-44692103D01*
X118736473Y-44654007D01*
X118660282Y-44615912D01*
X118507901Y-44615912D01*
X118431711Y-44654007D01*
X118393615Y-44692103D01*
X118355520Y-44768293D01*
X117631711Y-31649246D02*
X117555520Y-31611150D01*
X117441235Y-31611150D01*
X117326949Y-31649246D01*
X117250758Y-31725436D01*
X117212663Y-31801626D01*
X117174568Y-31954007D01*
X117174568Y-32068293D01*
X117212663Y-32220674D01*
X117250758Y-32296865D01*
X117326949Y-32373055D01*
X117441235Y-32411150D01*
X117517425Y-32411150D01*
X117631711Y-32373055D01*
X117669806Y-32334960D01*
X117669806Y-32068293D01*
X117517425Y-32068293D01*
X118012663Y-32411150D02*
X118012663Y-31611150D01*
X118469806Y-32411150D01*
X118469806Y-31611150D01*
X118850758Y-32411150D02*
X118850758Y-31611150D01*
X119041235Y-31611150D01*
X119155520Y-31649246D01*
X119231711Y-31725436D01*
X119269806Y-31801626D01*
X119307901Y-31954007D01*
X119307901Y-32068293D01*
X119269806Y-32220674D01*
X119231711Y-32296865D01*
X119155520Y-32373055D01*
X119041235Y-32411150D01*
X118850758Y-32411150D01*
%TO.C,OL1*%
X109723093Y-61324875D02*
X109627855Y-61277256D01*
X109580236Y-61182018D01*
X109580236Y-60324875D01*
X110484997Y-61277256D02*
X110389759Y-61324875D01*
X110199283Y-61324875D01*
X110104045Y-61277256D01*
X110056426Y-61182018D01*
X110056426Y-60801066D01*
X110104045Y-60705828D01*
X110199283Y-60658209D01*
X110389759Y-60658209D01*
X110484997Y-60705828D01*
X110532616Y-60801066D01*
X110532616Y-60896304D01*
X110056426Y-60991542D01*
X110818331Y-60658209D02*
X111199283Y-60658209D01*
X110961188Y-61324875D02*
X110961188Y-60467733D01*
X111008807Y-60372495D01*
X111104045Y-60324875D01*
X111199283Y-60324875D01*
X111389759Y-60658209D02*
X111770712Y-60658209D01*
X111532616Y-60324875D02*
X111532616Y-61182018D01*
X111580236Y-61277256D01*
X111675474Y-61324875D01*
X111770712Y-61324875D01*
X113008807Y-61324875D02*
X112913569Y-61277256D01*
X112865950Y-61229637D01*
X112818331Y-61134399D01*
X112818331Y-60848685D01*
X112865950Y-60753447D01*
X112913569Y-60705828D01*
X113008807Y-60658209D01*
X113151664Y-60658209D01*
X113246902Y-60705828D01*
X113294521Y-60753447D01*
X113342140Y-60848685D01*
X113342140Y-61134399D01*
X113294521Y-61229637D01*
X113246902Y-61277256D01*
X113151664Y-61324875D01*
X113008807Y-61324875D01*
X113913569Y-61324875D02*
X113818331Y-61277256D01*
X113770712Y-61182018D01*
X113770712Y-60324875D01*
X114675474Y-61277256D02*
X114580236Y-61324875D01*
X114389759Y-61324875D01*
X114294521Y-61277256D01*
X114246902Y-61182018D01*
X114246902Y-60801066D01*
X114294521Y-60705828D01*
X114389759Y-60658209D01*
X114580236Y-60658209D01*
X114675474Y-60705828D01*
X114723093Y-60801066D01*
X114723093Y-60896304D01*
X114246902Y-60991542D01*
X115580236Y-61324875D02*
X115580236Y-60324875D01*
X115580236Y-61277256D02*
X115484997Y-61324875D01*
X115294521Y-61324875D01*
X115199283Y-61277256D01*
X115151664Y-61229637D01*
X115104045Y-61134399D01*
X115104045Y-60848685D01*
X115151664Y-60753447D01*
X115199283Y-60705828D01*
X115294521Y-60658209D01*
X115484997Y-60658209D01*
X115580236Y-60705828D01*
%TO.C,J2*%
X120098237Y-75762494D02*
X107998237Y-75762494D01*
X120098237Y-75512494D02*
X122098237Y-75512494D01*
X120098237Y-75762494D02*
X120098237Y-69662494D01*
X107998237Y-75762494D02*
X107998237Y-69662494D01*
X120098237Y-69912494D02*
X122098237Y-69912494D01*
X122098237Y-75512494D02*
X122098237Y-69912494D01*
X120098237Y-69662494D02*
X107998237Y-69662494D01*
D12*
%TO.C,RSW1*%
X78715236Y-12704995D02*
X78715236Y-16604995D01*
X70995236Y-12704995D02*
X78715236Y-12704995D01*
X70995236Y-12704995D02*
X70995236Y-16604995D01*
X77655236Y-16374995D02*
X78195236Y-16374995D01*
X73155236Y-16374995D02*
X76555236Y-16374995D01*
X78195236Y-16374995D02*
X78195236Y-16604995D01*
X71515236Y-16374995D02*
X71515236Y-16604995D01*
X71515236Y-16374995D02*
X72055236Y-16374995D01*
D13*
%TO.C,REF\u002A\u002A*%
X48244102Y-30734447D02*
G75*
G03*
X47210236Y-34884995I19286117J-7008044D01*
G01*
X70387736Y-58062495D02*
G75*
G03*
X74538283Y-57028629I-2857490J20319953D01*
G01*
X47210236Y-40599995D02*
G75*
G03*
X48244102Y-44750542I20319953J2857490D01*
G01*
X67530236Y-48537495D02*
G75*
G03*
X68658621Y-48478359I6J10794921D01*
G01*
X64672736Y-17422495D02*
G75*
G03*
X60522188Y-18456361I2857496J-20319983D01*
G01*
X60522190Y-57028630D02*
G75*
G03*
X64672736Y-58062495I7008058J19286185D01*
G01*
X67530236Y-26947495D02*
G75*
G03*
X66401851Y-27006631I-6J-10794921D01*
G01*
X87850236Y-34884995D02*
G75*
G03*
X86816371Y-30734450I-20320019J-2857506D01*
G01*
X68658621Y-27006631D02*
G75*
G03*
X67530236Y-26947495I-1128379J-10735785D01*
G01*
X66401851Y-48478359D02*
G75*
G03*
X67530236Y-48537495I1128379J10735785D01*
G01*
X86816371Y-44750541D02*
G75*
G03*
X87850236Y-40599995I-19286185J7008058D01*
G01*
X74538283Y-18456361D02*
G75*
G03*
X70387736Y-17422495I-7008037J-19286087D01*
G01*
D14*
X66710261Y-52230893D02*
X66732964Y-52253756D01*
X66732964Y-52253756D02*
X66767443Y-52289287D01*
X66767443Y-52289287D02*
X66811712Y-52335379D01*
X66811712Y-52335379D02*
X66863779Y-52389925D01*
X66863779Y-52389925D02*
X66921658Y-52450819D01*
X66921658Y-52450819D02*
X66983357Y-52515954D01*
X66983357Y-52515954D02*
X67046890Y-52583224D01*
X67046890Y-52583224D02*
X67110265Y-52650522D01*
X67110265Y-52650522D02*
X67171495Y-52715741D01*
X67171495Y-52715741D02*
X67228591Y-52776776D01*
X67228591Y-52776776D02*
X67279563Y-52831519D01*
X67279563Y-52831519D02*
X67322423Y-52877864D01*
X67322423Y-52877864D02*
X67355181Y-52913704D01*
X67355181Y-52913704D02*
X67375849Y-52936933D01*
X67375849Y-52936933D02*
X67378142Y-52939624D01*
X67378142Y-52939624D02*
X67406443Y-52973259D01*
X67406443Y-52973259D02*
X66786429Y-52973259D01*
X66786429Y-52973259D02*
X66613079Y-52797190D01*
X66613079Y-52797190D02*
X66559337Y-52742447D01*
X66559337Y-52742447D02*
X66509054Y-52690934D01*
X66509054Y-52690934D02*
X66465238Y-52645754D01*
X66465238Y-52645754D02*
X66430892Y-52610008D01*
X66430892Y-52610008D02*
X66409024Y-52586799D01*
X66409024Y-52586799D02*
X66405847Y-52583307D01*
X66405847Y-52583307D02*
X66371965Y-52545492D01*
X66371965Y-52545492D02*
X66533000Y-52384148D01*
X66533000Y-52384148D02*
X66582713Y-52334693D01*
X66582713Y-52334693D02*
X66626937Y-52291368D01*
X66626937Y-52291368D02*
X66663084Y-52256655D01*
X66663084Y-52256655D02*
X66688566Y-52233035D01*
X66688566Y-52233035D02*
X66700795Y-52222987D01*
X66700795Y-52222987D02*
X66701326Y-52222804D01*
X66701326Y-52222804D02*
X66710261Y-52230893D01*
X66710261Y-52230893D02*
X66710261Y-52230893D01*
G36*
X66710261Y-52230893D02*
G01*
X66732964Y-52253756D01*
X66767443Y-52289287D01*
X66811712Y-52335379D01*
X66863779Y-52389925D01*
X66921658Y-52450819D01*
X66983357Y-52515954D01*
X67046890Y-52583224D01*
X67110265Y-52650522D01*
X67171495Y-52715741D01*
X67228591Y-52776776D01*
X67279563Y-52831519D01*
X67322423Y-52877864D01*
X67355181Y-52913704D01*
X67375849Y-52936933D01*
X67378142Y-52939624D01*
X67406443Y-52973259D01*
X66786429Y-52973259D01*
X66613079Y-52797190D01*
X66559337Y-52742447D01*
X66509054Y-52690934D01*
X66465238Y-52645754D01*
X66430892Y-52610008D01*
X66409024Y-52586799D01*
X66405847Y-52583307D01*
X66371965Y-52545492D01*
X66533000Y-52384148D01*
X66582713Y-52334693D01*
X66626937Y-52291368D01*
X66663084Y-52256655D01*
X66688566Y-52233035D01*
X66700795Y-52222987D01*
X66701326Y-52222804D01*
X66710261Y-52230893D01*
G37*
X66710261Y-52230893D02*
X66732964Y-52253756D01*
X66767443Y-52289287D01*
X66811712Y-52335379D01*
X66863779Y-52389925D01*
X66921658Y-52450819D01*
X66983357Y-52515954D01*
X67046890Y-52583224D01*
X67110265Y-52650522D01*
X67171495Y-52715741D01*
X67228591Y-52776776D01*
X67279563Y-52831519D01*
X67322423Y-52877864D01*
X67355181Y-52913704D01*
X67375849Y-52936933D01*
X67378142Y-52939624D01*
X67406443Y-52973259D01*
X66786429Y-52973259D01*
X66613079Y-52797190D01*
X66559337Y-52742447D01*
X66509054Y-52690934D01*
X66465238Y-52645754D01*
X66430892Y-52610008D01*
X66409024Y-52586799D01*
X66405847Y-52583307D01*
X66371965Y-52545492D01*
X66533000Y-52384148D01*
X66582713Y-52334693D01*
X66626937Y-52291368D01*
X66663084Y-52256655D01*
X66688566Y-52233035D01*
X66700795Y-52222987D01*
X66701326Y-52222804D01*
X66710261Y-52230893D01*
X68108515Y-50690145D02*
X68108707Y-50794385D01*
X68108707Y-50794385D02*
X68109196Y-50891130D01*
X68109196Y-50891130D02*
X68109946Y-50978016D01*
X68109946Y-50978016D02*
X68110922Y-51052678D01*
X68110922Y-51052678D02*
X68112091Y-51112753D01*
X68112091Y-51112753D02*
X68113418Y-51155876D01*
X68113418Y-51155876D02*
X68114867Y-51179683D01*
X68114867Y-51179683D02*
X68115775Y-51183713D01*
X68115775Y-51183713D02*
X68128206Y-51177399D01*
X68128206Y-51177399D02*
X68153052Y-51161056D01*
X68153052Y-51161056D02*
X68177186Y-51143854D01*
X68177186Y-51143854D02*
X68291883Y-51073132D01*
X68291883Y-51073132D02*
X68414099Y-51024028D01*
X68414099Y-51024028D02*
X68544482Y-50996352D01*
X68544482Y-50996352D02*
X68683683Y-50989914D01*
X68683683Y-50989914D02*
X68701495Y-50990582D01*
X68701495Y-50990582D02*
X68791130Y-50997134D01*
X68791130Y-50997134D02*
X68867613Y-51009071D01*
X68867613Y-51009071D02*
X68939265Y-51028563D01*
X68939265Y-51028563D02*
X69014403Y-51057780D01*
X69014403Y-51057780D02*
X69084254Y-51090419D01*
X69084254Y-51090419D02*
X69212187Y-51165712D01*
X69212187Y-51165712D02*
X69325107Y-51257692D01*
X69325107Y-51257692D02*
X69422001Y-51364681D01*
X69422001Y-51364681D02*
X69501859Y-51485006D01*
X69501859Y-51485006D02*
X69563669Y-51616991D01*
X69563669Y-51616991D02*
X69606421Y-51758960D01*
X69606421Y-51758960D02*
X69629102Y-51909239D01*
X69629102Y-51909239D02*
X69632663Y-51998909D01*
X69632663Y-51998909D02*
X69622372Y-52151387D01*
X69622372Y-52151387D02*
X69591016Y-52295951D01*
X69591016Y-52295951D02*
X69537871Y-52435187D01*
X69537871Y-52435187D02*
X69480616Y-52542106D01*
X69480616Y-52542106D02*
X69394904Y-52662399D01*
X69394904Y-52662399D02*
X69293291Y-52767248D01*
X69293291Y-52767248D02*
X69177958Y-52855570D01*
X69177958Y-52855570D02*
X69051083Y-52926284D01*
X69051083Y-52926284D02*
X68914847Y-52978307D01*
X68914847Y-52978307D02*
X68771428Y-53010560D01*
X68771428Y-53010560D02*
X68623007Y-53021959D01*
X68623007Y-53021959D02*
X68522761Y-53017476D01*
X68522761Y-53017476D02*
X68378153Y-52992595D01*
X68378153Y-52992595D02*
X68237585Y-52946320D01*
X68237585Y-52946320D02*
X68104412Y-52880341D01*
X68104412Y-52880341D02*
X67981992Y-52796344D01*
X67981992Y-52796344D02*
X67873680Y-52696018D01*
X67873680Y-52696018D02*
X67865286Y-52686852D01*
X67865286Y-52686852D02*
X67784155Y-52582732D01*
X67784155Y-52582732D02*
X67714463Y-52464550D01*
X67714463Y-52464550D02*
X67659297Y-52338687D01*
X67659297Y-52338687D02*
X67621744Y-52211527D01*
X67621744Y-52211527D02*
X67612875Y-52165077D01*
X67612875Y-52165077D02*
X67610262Y-52136682D01*
X67610262Y-52136682D02*
X67607917Y-52086610D01*
X67607917Y-52086610D02*
X67606448Y-52036276D01*
X67606448Y-52036276D02*
X68102786Y-52036276D01*
X68102786Y-52036276D02*
X68113358Y-52133825D01*
X68113358Y-52133825D02*
X68143790Y-52227844D01*
X68143790Y-52227844D02*
X68172444Y-52281989D01*
X68172444Y-52281989D02*
X68239378Y-52370272D01*
X68239378Y-52370272D02*
X68318859Y-52441149D01*
X68318859Y-52441149D02*
X68408291Y-52493642D01*
X68408291Y-52493642D02*
X68505077Y-52526774D01*
X68505077Y-52526774D02*
X68606618Y-52539568D01*
X68606618Y-52539568D02*
X68710319Y-52531047D01*
X68710319Y-52531047D02*
X68783146Y-52511759D01*
X68783146Y-52511759D02*
X68826143Y-52495673D01*
X68826143Y-52495673D02*
X68867048Y-52478313D01*
X68867048Y-52478313D02*
X68883215Y-52470537D01*
X68883215Y-52470537D02*
X68928501Y-52439533D01*
X68928501Y-52439533D02*
X68977824Y-52393339D01*
X68977824Y-52393339D02*
X69025881Y-52337883D01*
X69025881Y-52337883D02*
X69067366Y-52279089D01*
X69067366Y-52279089D02*
X69088854Y-52240762D01*
X69088854Y-52240762D02*
X69109035Y-52196516D01*
X69109035Y-52196516D02*
X69121680Y-52157908D01*
X69121680Y-52157908D02*
X69129037Y-52115616D01*
X69129037Y-52115616D02*
X69133355Y-52060313D01*
X69133355Y-52060313D02*
X69133637Y-52055023D01*
X69133637Y-52055023D02*
X69130269Y-51947778D01*
X69130269Y-51947778D02*
X69107413Y-51849886D01*
X69107413Y-51849886D02*
X69063761Y-51756463D01*
X69063761Y-51756463D02*
X69045991Y-51727934D01*
X69045991Y-51727934D02*
X68981449Y-51650030D01*
X68981449Y-51650030D02*
X68902632Y-51587860D01*
X68902632Y-51587860D02*
X68812996Y-51542364D01*
X68812996Y-51542364D02*
X68715997Y-51514486D01*
X68715997Y-51514486D02*
X68615093Y-51505166D01*
X68615093Y-51505166D02*
X68513741Y-51515348D01*
X68513741Y-51515348D02*
X68415395Y-51545973D01*
X68415395Y-51545973D02*
X68401392Y-51552259D01*
X68401392Y-51552259D02*
X68313440Y-51605208D01*
X68313440Y-51605208D02*
X68239450Y-51673422D01*
X68239450Y-51673422D02*
X68180407Y-51753768D01*
X68180407Y-51753768D02*
X68137294Y-51843115D01*
X68137294Y-51843115D02*
X68111092Y-51938328D01*
X68111092Y-51938328D02*
X68102786Y-52036276D01*
X68102786Y-52036276D02*
X67606448Y-52036276D01*
X67606448Y-52036276D02*
X67605864Y-52016273D01*
X67605864Y-52016273D02*
X67604125Y-51927084D01*
X67604125Y-51927084D02*
X67602722Y-51820455D01*
X67602722Y-51820455D02*
X67601678Y-51697799D01*
X67601678Y-51697799D02*
X67601014Y-51560527D01*
X67601014Y-51560527D02*
X67600753Y-51410053D01*
X67600753Y-51410053D02*
X67600750Y-51398317D01*
X67600750Y-51398317D02*
X67600663Y-50706603D01*
X67600663Y-50706603D02*
X68108367Y-50196577D01*
X68108367Y-50196577D02*
X68108515Y-50690145D01*
X68108515Y-50690145D02*
X68108515Y-50690145D01*
G36*
X67604125Y-51927084D02*
G01*
X67602722Y-51820455D01*
X67601678Y-51697799D01*
X67601014Y-51560527D01*
X67600753Y-51410053D01*
X67600750Y-51398317D01*
X67600663Y-50706603D01*
X68108367Y-50196577D01*
X68108515Y-50690145D01*
X68108707Y-50794385D01*
X68109196Y-50891130D01*
X68109946Y-50978016D01*
X68110922Y-51052678D01*
X68112091Y-51112753D01*
X68113418Y-51155876D01*
X68114867Y-51179683D01*
X68115775Y-51183713D01*
X68128206Y-51177399D01*
X68153052Y-51161056D01*
X68177186Y-51143854D01*
X68291883Y-51073132D01*
X68414099Y-51024028D01*
X68544482Y-50996352D01*
X68683683Y-50989914D01*
X68701495Y-50990582D01*
X68791130Y-50997134D01*
X68867613Y-51009071D01*
X68939265Y-51028563D01*
X69014403Y-51057780D01*
X69084254Y-51090419D01*
X69212187Y-51165712D01*
X69325107Y-51257692D01*
X69422001Y-51364681D01*
X69501859Y-51485006D01*
X69563669Y-51616991D01*
X69606421Y-51758960D01*
X69629102Y-51909239D01*
X69632663Y-51998909D01*
X69622372Y-52151387D01*
X69591016Y-52295951D01*
X69537871Y-52435187D01*
X69480616Y-52542106D01*
X69394904Y-52662399D01*
X69293291Y-52767248D01*
X69177958Y-52855570D01*
X69051083Y-52926284D01*
X68914847Y-52978307D01*
X68771428Y-53010560D01*
X68623007Y-53021959D01*
X68522761Y-53017476D01*
X68378153Y-52992595D01*
X68237585Y-52946320D01*
X68104412Y-52880341D01*
X67981992Y-52796344D01*
X67873680Y-52696018D01*
X67865286Y-52686852D01*
X67784155Y-52582732D01*
X67714463Y-52464550D01*
X67659297Y-52338687D01*
X67621744Y-52211527D01*
X67612875Y-52165077D01*
X67610262Y-52136682D01*
X67607917Y-52086610D01*
X67606448Y-52036276D01*
X68102786Y-52036276D01*
X68113358Y-52133825D01*
X68143790Y-52227844D01*
X68172444Y-52281989D01*
X68239378Y-52370272D01*
X68318859Y-52441149D01*
X68408291Y-52493642D01*
X68505077Y-52526774D01*
X68606618Y-52539568D01*
X68710319Y-52531047D01*
X68783146Y-52511759D01*
X68826143Y-52495673D01*
X68867048Y-52478313D01*
X68883215Y-52470537D01*
X68928501Y-52439533D01*
X68977824Y-52393339D01*
X69025881Y-52337883D01*
X69067366Y-52279089D01*
X69088854Y-52240762D01*
X69109035Y-52196516D01*
X69121680Y-52157908D01*
X69129037Y-52115616D01*
X69133355Y-52060313D01*
X69133637Y-52055023D01*
X69130269Y-51947778D01*
X69107413Y-51849886D01*
X69063761Y-51756463D01*
X69045991Y-51727934D01*
X68981449Y-51650030D01*
X68902632Y-51587860D01*
X68812996Y-51542364D01*
X68715997Y-51514486D01*
X68615093Y-51505166D01*
X68513741Y-51515348D01*
X68415395Y-51545973D01*
X68401392Y-51552259D01*
X68313440Y-51605208D01*
X68239450Y-51673422D01*
X68180407Y-51753768D01*
X68137294Y-51843115D01*
X68111092Y-51938328D01*
X68102786Y-52036276D01*
X67606448Y-52036276D01*
X67605864Y-52016273D01*
X67604125Y-51927084D01*
G37*
X67604125Y-51927084D02*
X67602722Y-51820455D01*
X67601678Y-51697799D01*
X67601014Y-51560527D01*
X67600753Y-51410053D01*
X67600750Y-51398317D01*
X67600663Y-50706603D01*
X68108367Y-50196577D01*
X68108515Y-50690145D01*
X68108707Y-50794385D01*
X68109196Y-50891130D01*
X68109946Y-50978016D01*
X68110922Y-51052678D01*
X68112091Y-51112753D01*
X68113418Y-51155876D01*
X68114867Y-51179683D01*
X68115775Y-51183713D01*
X68128206Y-51177399D01*
X68153052Y-51161056D01*
X68177186Y-51143854D01*
X68291883Y-51073132D01*
X68414099Y-51024028D01*
X68544482Y-50996352D01*
X68683683Y-50989914D01*
X68701495Y-50990582D01*
X68791130Y-50997134D01*
X68867613Y-51009071D01*
X68939265Y-51028563D01*
X69014403Y-51057780D01*
X69084254Y-51090419D01*
X69212187Y-51165712D01*
X69325107Y-51257692D01*
X69422001Y-51364681D01*
X69501859Y-51485006D01*
X69563669Y-51616991D01*
X69606421Y-51758960D01*
X69629102Y-51909239D01*
X69632663Y-51998909D01*
X69622372Y-52151387D01*
X69591016Y-52295951D01*
X69537871Y-52435187D01*
X69480616Y-52542106D01*
X69394904Y-52662399D01*
X69293291Y-52767248D01*
X69177958Y-52855570D01*
X69051083Y-52926284D01*
X68914847Y-52978307D01*
X68771428Y-53010560D01*
X68623007Y-53021959D01*
X68522761Y-53017476D01*
X68378153Y-52992595D01*
X68237585Y-52946320D01*
X68104412Y-52880341D01*
X67981992Y-52796344D01*
X67873680Y-52696018D01*
X67865286Y-52686852D01*
X67784155Y-52582732D01*
X67714463Y-52464550D01*
X67659297Y-52338687D01*
X67621744Y-52211527D01*
X67612875Y-52165077D01*
X67610262Y-52136682D01*
X67607917Y-52086610D01*
X67606448Y-52036276D01*
X68102786Y-52036276D01*
X68113358Y-52133825D01*
X68143790Y-52227844D01*
X68172444Y-52281989D01*
X68239378Y-52370272D01*
X68318859Y-52441149D01*
X68408291Y-52493642D01*
X68505077Y-52526774D01*
X68606618Y-52539568D01*
X68710319Y-52531047D01*
X68783146Y-52511759D01*
X68826143Y-52495673D01*
X68867048Y-52478313D01*
X68883215Y-52470537D01*
X68928501Y-52439533D01*
X68977824Y-52393339D01*
X69025881Y-52337883D01*
X69067366Y-52279089D01*
X69088854Y-52240762D01*
X69109035Y-52196516D01*
X69121680Y-52157908D01*
X69129037Y-52115616D01*
X69133355Y-52060313D01*
X69133637Y-52055023D01*
X69130269Y-51947778D01*
X69107413Y-51849886D01*
X69063761Y-51756463D01*
X69045991Y-51727934D01*
X68981449Y-51650030D01*
X68902632Y-51587860D01*
X68812996Y-51542364D01*
X68715997Y-51514486D01*
X68615093Y-51505166D01*
X68513741Y-51515348D01*
X68415395Y-51545973D01*
X68401392Y-51552259D01*
X68313440Y-51605208D01*
X68239450Y-51673422D01*
X68180407Y-51753768D01*
X68137294Y-51843115D01*
X68111092Y-51938328D01*
X68102786Y-52036276D01*
X67606448Y-52036276D01*
X67605864Y-52016273D01*
X67604125Y-51927084D01*
X65903481Y-51824362D02*
X66706427Y-51021662D01*
X66706427Y-51021662D02*
X66994795Y-51024756D01*
X66994795Y-51024756D02*
X67283163Y-51027849D01*
X67283163Y-51027849D02*
X66435939Y-51887986D01*
X66435939Y-51887986D02*
X66318014Y-52007709D01*
X66318014Y-52007709D02*
X66203215Y-52124258D01*
X66203215Y-52124258D02*
X66092761Y-52236398D01*
X66092761Y-52236398D02*
X65987869Y-52342891D01*
X65987869Y-52342891D02*
X65889757Y-52442502D01*
X65889757Y-52442502D02*
X65799642Y-52533995D01*
X65799642Y-52533995D02*
X65718743Y-52616132D01*
X65718743Y-52616132D02*
X65648276Y-52687677D01*
X65648276Y-52687677D02*
X65589460Y-52747395D01*
X65589460Y-52747395D02*
X65543513Y-52794049D01*
X65543513Y-52794049D02*
X65511652Y-52826402D01*
X65511652Y-52826402D02*
X65497871Y-52840398D01*
X65497871Y-52840398D02*
X65407027Y-52932674D01*
X65407027Y-52932674D02*
X65407027Y-50190804D01*
X65407027Y-50190804D02*
X65903481Y-50190804D01*
X65903481Y-50190804D02*
X65903481Y-51824362D01*
X65903481Y-51824362D02*
X65903481Y-51824362D01*
G36*
X65903481Y-51824362D02*
G01*
X66706427Y-51021662D01*
X66994795Y-51024756D01*
X67283163Y-51027849D01*
X66435939Y-51887986D01*
X66318014Y-52007709D01*
X66203215Y-52124258D01*
X66092761Y-52236398D01*
X65987869Y-52342891D01*
X65889757Y-52442502D01*
X65799642Y-52533995D01*
X65718743Y-52616132D01*
X65648276Y-52687677D01*
X65589460Y-52747395D01*
X65543513Y-52794049D01*
X65511652Y-52826402D01*
X65497871Y-52840398D01*
X65407027Y-52932674D01*
X65407027Y-50190804D01*
X65903481Y-50190804D01*
X65903481Y-51824362D01*
G37*
X65903481Y-51824362D02*
X66706427Y-51021662D01*
X66994795Y-51024756D01*
X67283163Y-51027849D01*
X66435939Y-51887986D01*
X66318014Y-52007709D01*
X66203215Y-52124258D01*
X66092761Y-52236398D01*
X65987869Y-52342891D01*
X65889757Y-52442502D01*
X65799642Y-52533995D01*
X65718743Y-52616132D01*
X65648276Y-52687677D01*
X65589460Y-52747395D01*
X65543513Y-52794049D01*
X65511652Y-52826402D01*
X65497871Y-52840398D01*
X65407027Y-52932674D01*
X65407027Y-50190804D01*
X65903481Y-50190804D01*
X65903481Y-51824362D01*
D15*
%TO.C,U2*%
X106430235Y-28239246D02*
X106430235Y-30779246D01*
X121670235Y-25699246D02*
X103890235Y-25699246D01*
X106430235Y-30779246D02*
X103890235Y-30779246D01*
X121670235Y-58719246D02*
X121670235Y-28239246D01*
X103890235Y-58719246D02*
X121670235Y-58719246D01*
X103890235Y-28239246D02*
X103890235Y-58719246D01*
X103890235Y-25699246D02*
X103890235Y-28239246D01*
X121670235Y-28239246D02*
X121670235Y-25699246D01*
X106430235Y-28239246D02*
X103890235Y-28239246D01*
D10*
X117311803Y-34118606D02*
X117311803Y-34918606D01*
X117311803Y-34918606D02*
X117211803Y-34918606D01*
X117211803Y-34918606D02*
X117211803Y-34118606D01*
X117211803Y-34118606D02*
X117311803Y-34118606D01*
G36*
X117311803Y-34918606D02*
G01*
X117211803Y-34918606D01*
X117211803Y-34118606D01*
X117311803Y-34118606D01*
X117311803Y-34918606D01*
G37*
X117311803Y-34918606D02*
X117211803Y-34918606D01*
X117211803Y-34118606D01*
X117311803Y-34118606D01*
X117311803Y-34918606D01*
X117711803Y-34718606D02*
X117711803Y-34918606D01*
X117711803Y-34918606D02*
X117611803Y-34918606D01*
X117611803Y-34918606D02*
X117611803Y-34718606D01*
X117611803Y-34718606D02*
X117711803Y-34718606D01*
G36*
X117711803Y-34918606D02*
G01*
X117611803Y-34918606D01*
X117611803Y-34718606D01*
X117711803Y-34718606D01*
X117711803Y-34918606D01*
G37*
X117711803Y-34918606D02*
X117611803Y-34918606D01*
X117611803Y-34718606D01*
X117711803Y-34718606D01*
X117711803Y-34918606D01*
X117711803Y-34118606D02*
X117711803Y-34418606D01*
X117711803Y-34418606D02*
X117611803Y-34418606D01*
X117611803Y-34418606D02*
X117611803Y-34118606D01*
X117611803Y-34118606D02*
X117711803Y-34118606D01*
G36*
X117711803Y-34418606D02*
G01*
X117611803Y-34418606D01*
X117611803Y-34118606D01*
X117711803Y-34118606D01*
X117711803Y-34418606D01*
G37*
X117711803Y-34418606D02*
X117611803Y-34418606D01*
X117611803Y-34118606D01*
X117711803Y-34118606D01*
X117711803Y-34418606D01*
X117711803Y-34118606D02*
X117711803Y-34218606D01*
X117711803Y-34218606D02*
X117211803Y-34218606D01*
X117211803Y-34218606D02*
X117211803Y-34118606D01*
X117211803Y-34118606D02*
X117711803Y-34118606D01*
G36*
X117711803Y-34218606D02*
G01*
X117211803Y-34218606D01*
X117211803Y-34118606D01*
X117711803Y-34118606D01*
X117711803Y-34218606D01*
G37*
X117711803Y-34218606D02*
X117211803Y-34218606D01*
X117211803Y-34118606D01*
X117711803Y-34118606D01*
X117711803Y-34218606D01*
X117511803Y-34518606D02*
X117511803Y-34618606D01*
X117511803Y-34618606D02*
X117411803Y-34618606D01*
X117411803Y-34618606D02*
X117411803Y-34518606D01*
X117411803Y-34518606D02*
X117511803Y-34518606D01*
G36*
X117511803Y-34618606D02*
G01*
X117411803Y-34618606D01*
X117411803Y-34518606D01*
X117511803Y-34518606D01*
X117511803Y-34618606D01*
G37*
X117511803Y-34618606D02*
X117411803Y-34618606D01*
X117411803Y-34518606D01*
X117511803Y-34518606D01*
X117511803Y-34618606D01*
D11*
%TO.C,D34*%
X35830236Y-24762495D02*
X36730236Y-25662495D01*
X36730236Y-25662495D02*
X35830236Y-25662495D01*
X35830236Y-25662495D02*
X35830236Y-24762495D01*
G36*
X36730236Y-25662495D02*
G01*
X35830236Y-25662495D01*
X35830236Y-24762495D01*
X36730236Y-25662495D01*
G37*
X36730236Y-25662495D02*
X35830236Y-25662495D01*
X35830236Y-24762495D01*
X36730236Y-25662495D01*
%TO.C,D26*%
X53830235Y-51896495D02*
X54730235Y-52796495D01*
X54730235Y-52796495D02*
X53830235Y-52796495D01*
X53830235Y-52796495D02*
X53830235Y-51896495D01*
G36*
X54730235Y-52796495D02*
G01*
X53830235Y-52796495D01*
X53830235Y-51896495D01*
X54730235Y-52796495D01*
G37*
X54730235Y-52796495D02*
X53830235Y-52796495D01*
X53830235Y-51896495D01*
X54730235Y-52796495D01*
%TO.C,D31*%
X35830237Y-41736495D02*
X36730237Y-42636495D01*
X36730237Y-42636495D02*
X35830237Y-42636495D01*
X35830237Y-42636495D02*
X35830237Y-41736495D01*
G36*
X36730237Y-42636495D02*
G01*
X35830237Y-42636495D01*
X35830237Y-41736495D01*
X36730237Y-42636495D01*
G37*
X36730237Y-42636495D02*
X35830237Y-42636495D01*
X35830237Y-41736495D01*
X36730237Y-42636495D01*
%TO.C,D28*%
X35830236Y-58754495D02*
X36730236Y-59654495D01*
X36730236Y-59654495D02*
X35830236Y-59654495D01*
X35830236Y-59654495D02*
X35830236Y-58754495D01*
G36*
X36730236Y-59654495D02*
G01*
X35830236Y-59654495D01*
X35830236Y-58754495D01*
X36730236Y-59654495D01*
G37*
X36730236Y-59654495D02*
X35830236Y-59654495D01*
X35830236Y-58754495D01*
X36730236Y-59654495D01*
%TO.C,D32*%
X71830236Y-40212496D02*
X72730236Y-41112496D01*
X72730236Y-41112496D02*
X71830236Y-41112496D01*
X71830236Y-41112496D02*
X71830236Y-40212496D01*
G36*
X72730236Y-41112496D02*
G01*
X71830236Y-41112496D01*
X71830236Y-40212496D01*
X72730236Y-41112496D01*
G37*
X72730236Y-41112496D02*
X71830236Y-41112496D01*
X71830236Y-40212496D01*
X72730236Y-41112496D01*
%TO.C,D21*%
X89830235Y-25762495D02*
X90730235Y-26662495D01*
X90730235Y-26662495D02*
X89830235Y-26662495D01*
X89830235Y-26662495D02*
X89830235Y-25762495D01*
G36*
X90730235Y-26662495D02*
G01*
X89830235Y-26662495D01*
X89830235Y-25762495D01*
X90730235Y-26662495D01*
G37*
X90730235Y-26662495D02*
X89830235Y-26662495D01*
X89830235Y-25762495D01*
X90730235Y-26662495D01*
%TO.C,D19*%
X17830236Y-36762495D02*
X18730236Y-37662495D01*
X18730236Y-37662495D02*
X17830236Y-37662495D01*
X17830236Y-37662495D02*
X17830236Y-36762495D01*
G36*
X18730236Y-37662495D02*
G01*
X17830236Y-37662495D01*
X17830236Y-36762495D01*
X18730236Y-37662495D01*
G37*
X18730236Y-37662495D02*
X17830236Y-37662495D01*
X17830236Y-36762495D01*
X18730236Y-37662495D01*
%TO.C,D23*%
X53830236Y-34878495D02*
X54730236Y-35778495D01*
X54730236Y-35778495D02*
X53830236Y-35778495D01*
X53830236Y-35778495D02*
X53830236Y-34878495D01*
G36*
X54730236Y-35778495D02*
G01*
X53830236Y-35778495D01*
X53830236Y-34878495D01*
X54730236Y-35778495D01*
G37*
X54730236Y-35778495D02*
X53830236Y-35778495D01*
X53830236Y-34878495D01*
X54730236Y-35778495D01*
%TO.C,D22*%
X17830236Y-53812495D02*
X18730236Y-54712495D01*
X18730236Y-54712495D02*
X17830236Y-54712495D01*
X17830236Y-54712495D02*
X17830236Y-53812495D01*
G36*
X18730236Y-54712495D02*
G01*
X17830236Y-54712495D01*
X17830236Y-53812495D01*
X18730236Y-54712495D01*
G37*
X18730236Y-54712495D02*
X17830236Y-54712495D01*
X17830236Y-53812495D01*
X18730236Y-54712495D01*
%TO.C,D35*%
X71830237Y-23262495D02*
X72730237Y-24162495D01*
X72730237Y-24162495D02*
X71830237Y-24162495D01*
X71830237Y-24162495D02*
X71830237Y-23262495D01*
G36*
X72730237Y-24162495D02*
G01*
X71830237Y-24162495D01*
X71830237Y-23262495D01*
X72730237Y-24162495D01*
G37*
X72730237Y-24162495D02*
X71830237Y-24162495D01*
X71830237Y-23262495D01*
X72730237Y-24162495D01*
%TO.C,D25*%
X17830237Y-70762495D02*
X18730237Y-71662495D01*
X18730237Y-71662495D02*
X17830237Y-71662495D01*
X17830237Y-71662495D02*
X17830237Y-70762495D01*
G36*
X18730237Y-71662495D02*
G01*
X17830237Y-71662495D01*
X17830237Y-70762495D01*
X18730237Y-71662495D01*
G37*
X18730237Y-71662495D02*
X17830237Y-71662495D01*
X17830237Y-70762495D01*
X18730237Y-71662495D01*
%TO.C,D24*%
X89810236Y-42752496D02*
X90710236Y-43652496D01*
X90710236Y-43652496D02*
X89810236Y-43652496D01*
X89810236Y-43652496D02*
X89810236Y-42752496D01*
G36*
X90710236Y-43652496D02*
G01*
X89810236Y-43652496D01*
X89810236Y-42752496D01*
X90710236Y-43652496D01*
G37*
X90710236Y-43652496D02*
X89810236Y-43652496D01*
X89810236Y-42752496D01*
X90710236Y-43652496D01*
%TO.C,D30*%
X71251815Y-75711966D02*
X72069950Y-76686981D01*
X72069950Y-76686981D02*
X71173375Y-76608541D01*
X71173375Y-76608541D02*
X71251815Y-75711966D01*
G36*
X72069950Y-76686981D02*
G01*
X71173375Y-76608541D01*
X71251815Y-75711966D01*
X72069950Y-76686981D01*
G37*
X72069950Y-76686981D02*
X71173375Y-76608541D01*
X71251815Y-75711966D01*
X72069950Y-76686981D01*
%TO.C,D29*%
X71830236Y-57230496D02*
X72730236Y-58130496D01*
X72730236Y-58130496D02*
X71830236Y-58130496D01*
X71830236Y-58130496D02*
X71830236Y-57230496D01*
G36*
X72730236Y-58130496D02*
G01*
X71830236Y-58130496D01*
X71830236Y-57230496D01*
X72730236Y-58130496D01*
G37*
X72730236Y-58130496D02*
X71830236Y-58130496D01*
X71830236Y-57230496D01*
X72730236Y-58130496D01*
%TO.C,D33*%
X91329329Y-78514477D02*
X91965725Y-79616747D01*
X91965725Y-79616747D02*
X91096392Y-79383810D01*
X91096392Y-79383810D02*
X91329329Y-78514477D01*
G36*
X91965725Y-79616747D02*
G01*
X91096392Y-79383810D01*
X91329329Y-78514477D01*
X91965725Y-79616747D01*
G37*
X91965725Y-79616747D02*
X91096392Y-79383810D01*
X91329329Y-78514477D01*
X91965725Y-79616747D01*
%TO.C,D20*%
X53830236Y-17762495D02*
X54730236Y-18662495D01*
X54730236Y-18662495D02*
X53830236Y-18662495D01*
X53830236Y-18662495D02*
X53830236Y-17762495D01*
G36*
X54730236Y-18662495D02*
G01*
X53830236Y-18662495D01*
X53830236Y-17762495D01*
X54730236Y-18662495D01*
G37*
X54730236Y-18662495D02*
X53830236Y-18662495D01*
X53830236Y-17762495D01*
X54730236Y-18662495D01*
%TO.C,D36*%
X110648027Y-84769762D02*
X111083347Y-85965795D01*
X111083347Y-85965795D02*
X110267670Y-85585439D01*
X110267670Y-85585439D02*
X110648027Y-84769762D01*
G36*
X111083347Y-85965795D02*
G01*
X110267670Y-85585439D01*
X110648027Y-84769762D01*
X111083347Y-85965795D01*
G37*
X111083347Y-85965795D02*
X110267670Y-85585439D01*
X110648027Y-84769762D01*
X111083347Y-85965795D01*
%TO.C,D27*%
X89810236Y-59770495D02*
X90710236Y-60670495D01*
X90710236Y-60670495D02*
X89810236Y-60670495D01*
X89810236Y-60670495D02*
X89810236Y-59770495D01*
G36*
X90710236Y-60670495D02*
G01*
X89810236Y-60670495D01*
X89810236Y-59770495D01*
X90710236Y-60670495D01*
G37*
X90710236Y-60670495D02*
X89810236Y-60670495D01*
X89810236Y-59770495D01*
X90710236Y-60670495D01*
%TD*%
D16*
%TO.C,U2*%
X105160235Y-29509246D03*
D17*
X105160235Y-32049246D03*
X105160235Y-34589246D03*
X105160235Y-37129246D03*
X105160235Y-39669246D03*
X105160235Y-42209246D03*
X105160235Y-44749246D03*
X105160235Y-47289246D03*
X105160235Y-49829246D03*
X105160235Y-52369246D03*
X105160235Y-54909246D03*
X105388835Y-57449246D03*
X120400235Y-57449246D03*
X120400235Y-54909246D03*
X120400235Y-52369246D03*
X120400235Y-49829246D03*
X120400235Y-47289246D03*
X120400235Y-44749246D03*
X120400235Y-42209246D03*
X120400235Y-39669246D03*
X120400235Y-37129246D03*
X120400235Y-34589246D03*
X120400235Y-32049246D03*
X120400235Y-29509246D03*
X107700235Y-57449246D03*
X110240235Y-57449246D03*
X112780235Y-57449246D03*
X115320235Y-57449246D03*
X117860235Y-57449246D03*
%TD*%
D18*
%TO.C,OL1*%
X108770236Y-62422495D03*
X111310236Y-62422495D03*
X113850236Y-62422495D03*
X116390236Y-62422495D03*
%TD*%
M02*
