%TF.GenerationSoftware,KiCad,Pcbnew,(6.0.0)*%
%TF.CreationDate,2022-03-12T15:50:12-08:00*%
%TF.ProjectId,half-swept,68616c66-2d73-4776-9570-742e6b696361,rev?*%
%TF.SameCoordinates,Original*%
%TF.FileFunction,Soldermask,Top*%
%TF.FilePolarity,Negative*%
%FSLAX46Y46*%
G04 Gerber Fmt 4.6, Leading zero omitted, Abs format (unit mm)*
G04 Created by KiCad (PCBNEW (6.0.0)) date 2022-03-12 15:50:12*
%MOMM*%
%LPD*%
G01*
G04 APERTURE LIST*
%ADD10C,0.800000*%
%ADD11O,2.000000X1.600000*%
%ADD12C,1.200000*%
%ADD13C,1.750000*%
%ADD14C,3.400000*%
%ADD15C,1.700000*%
%ADD16C,2.000000*%
%ADD17C,4.400000*%
%ADD18R,1.752600X1.752600*%
%ADD19C,1.752600*%
G04 APERTURE END LIST*
D10*
%TO.C,J2*%
X110018000Y-77670000D03*
X117018000Y-77670000D03*
D11*
X107318000Y-75370000D03*
X108418000Y-79970000D03*
X112418000Y-79970000D03*
X115418000Y-79970000D03*
%TD*%
D12*
%TO.C,RSW1*%
X73325000Y-15852500D03*
D13*
X70825000Y-17062500D03*
X75825000Y-17062500D03*
%TD*%
D14*
%TO.C,SW2*%
X22000000Y-41000000D03*
D15*
X16500000Y-41000000D03*
X27500000Y-41000000D03*
D16*
X22000000Y-46900000D03*
X27000000Y-44800000D03*
%TD*%
D14*
%TO.C,SW3*%
X40000000Y-29000000D03*
D15*
X45500000Y-29000000D03*
X34500000Y-29000000D03*
D16*
X40000000Y-34900000D03*
X45000000Y-32800000D03*
%TD*%
D14*
%TO.C,SW4*%
X58000000Y-22000000D03*
D15*
X63500000Y-22000000D03*
X52500000Y-22000000D03*
D16*
X58000000Y-27900000D03*
X63000000Y-25800000D03*
%TD*%
D14*
%TO.C,SW5*%
X76000000Y-27500000D03*
D15*
X70500000Y-27500000D03*
X81500000Y-27500000D03*
D16*
X76000000Y-33400000D03*
X81000000Y-31300000D03*
%TD*%
D15*
%TO.C,SW6*%
X88500000Y-30000000D03*
X99500000Y-30000000D03*
D14*
X94000000Y-30000000D03*
D16*
X94000000Y-35900000D03*
X99000000Y-33800000D03*
%TD*%
D15*
%TO.C,SW8*%
X27500000Y-58000000D03*
D14*
X22000000Y-58000000D03*
D15*
X16500000Y-58000000D03*
D16*
X22000000Y-63900000D03*
X27000000Y-61800000D03*
%TD*%
D15*
%TO.C,SW9*%
X34500000Y-45974000D03*
X45500000Y-45974000D03*
D14*
X40000000Y-45974000D03*
D16*
X40000000Y-51874000D03*
X45000000Y-49774000D03*
%TD*%
D15*
%TO.C,SW10*%
X52500000Y-39116000D03*
D14*
X58000000Y-39116000D03*
D15*
X63500000Y-39116000D03*
D16*
X58000000Y-45016000D03*
X63000000Y-42916000D03*
%TD*%
D15*
%TO.C,SW11*%
X81500000Y-44450000D03*
D14*
X76000000Y-44450000D03*
D15*
X70500000Y-44450000D03*
D16*
X76000000Y-50350000D03*
X81000000Y-48250000D03*
%TD*%
D15*
%TO.C,SW12*%
X88480000Y-46990000D03*
X99480000Y-46990000D03*
D14*
X93980000Y-46990000D03*
D16*
X93980000Y-52890000D03*
X98980000Y-50790000D03*
%TD*%
D15*
%TO.C,SW14*%
X16500000Y-75000000D03*
D14*
X22000000Y-75000000D03*
D15*
X27500000Y-75000000D03*
D16*
X22000000Y-80900000D03*
X27000000Y-78800000D03*
%TD*%
D15*
%TO.C,SW15*%
X34500000Y-62992000D03*
X45500000Y-62992000D03*
D14*
X40000000Y-62992000D03*
D16*
X40000000Y-68892000D03*
X45000000Y-66792000D03*
%TD*%
D14*
%TO.C,SW16*%
X58000000Y-56134000D03*
D15*
X52500000Y-56134000D03*
X63500000Y-56134000D03*
D16*
X58000000Y-62034000D03*
X63000000Y-59934000D03*
%TD*%
D15*
%TO.C,SW17*%
X70500000Y-61468000D03*
D14*
X76000000Y-61468000D03*
D15*
X81500000Y-61468000D03*
D16*
X76000000Y-67368000D03*
X81000000Y-65268000D03*
%TD*%
D15*
%TO.C,SW18*%
X88480000Y-64008000D03*
D14*
X93980000Y-64008000D03*
D15*
X99480000Y-64008000D03*
D16*
X93980000Y-69908000D03*
X98980000Y-67808000D03*
%TD*%
D15*
%TO.C,SW20*%
X99512860Y-86950000D03*
X109039140Y-92450000D03*
D14*
X104276000Y-89700000D03*
D16*
X107226000Y-84590450D03*
X101845873Y-83909103D03*
%TD*%
D15*
%TO.C,SW21*%
X80403408Y-80526495D03*
X91028592Y-83373505D03*
D14*
X85716000Y-81950000D03*
D16*
X87243032Y-76251038D03*
X81869883Y-76985387D03*
%TD*%
D17*
%TO.C,REF\u002A\u002A*%
X67500000Y-56950000D03*
X48450000Y-37900000D03*
X86550000Y-37900000D03*
X67500000Y-18850000D03*
%TD*%
D18*
%TO.C,U2*%
X105630000Y-41816750D03*
D19*
X105630000Y-44356750D03*
X105630000Y-46896750D03*
X105630000Y-49436750D03*
X105630000Y-51976750D03*
X105630000Y-54516750D03*
X105630000Y-57056750D03*
X105630000Y-59596750D03*
X105630000Y-62136750D03*
X105630000Y-64676750D03*
X105630000Y-67216750D03*
X105858600Y-69756750D03*
X120870000Y-69756750D03*
X120870000Y-67216750D03*
X120870000Y-64676750D03*
X120870000Y-62136750D03*
X120870000Y-59596750D03*
X120870000Y-57056750D03*
X120870000Y-54516750D03*
X120870000Y-51976750D03*
X120870000Y-49436750D03*
X120870000Y-46896750D03*
X120870000Y-44356750D03*
X120870000Y-41816750D03*
X108170000Y-69756750D03*
X110710000Y-69756750D03*
X113250000Y-69756750D03*
X115790000Y-69756750D03*
X118330000Y-69756750D03*
%TD*%
D15*
%TO.C,SW1*%
X72079071Y-79029357D03*
D14*
X66600000Y-78550000D03*
D15*
X61120929Y-78070643D03*
D16*
X67114219Y-72672451D03*
X61950218Y-74328681D03*
%TD*%
D10*
%TO.C,J1*%
X117000000Y-77650000D03*
X110000000Y-77650000D03*
D11*
X107300000Y-79950000D03*
X108400000Y-75350000D03*
X112400000Y-75350000D03*
X115400000Y-75350000D03*
%TD*%
M02*
