%TF.GenerationSoftware,KiCad,Pcbnew,(6.0.0)*%
%TF.CreationDate,2022-04-19T22:23:16-07:00*%
%TF.ProjectId,half-swept,68616c66-2d73-4776-9570-742e6b696361,rev?*%
%TF.SameCoordinates,Original*%
%TF.FileFunction,Soldermask,Bot*%
%TF.FilePolarity,Negative*%
%FSLAX46Y46*%
G04 Gerber Fmt 4.6, Leading zero omitted, Abs format (unit mm)*
G04 Created by KiCad (PCBNEW (6.0.0)) date 2022-04-19 22:23:16*
%MOMM*%
%LPD*%
G01*
G04 APERTURE LIST*
G04 Aperture macros list*
%AMRoundRect*
0 Rectangle with rounded corners*
0 $1 Rounding radius*
0 $2 $3 $4 $5 $6 $7 $8 $9 X,Y pos of 4 corners*
0 Add a 4 corners polygon primitive as box body*
4,1,4,$2,$3,$4,$5,$6,$7,$8,$9,$2,$3,0*
0 Add four circle primitives for the rounded corners*
1,1,$1+$1,$2,$3*
1,1,$1+$1,$4,$5*
1,1,$1+$1,$6,$7*
1,1,$1+$1,$8,$9*
0 Add four rect primitives between the rounded corners*
20,1,$1+$1,$2,$3,$4,$5,0*
20,1,$1+$1,$4,$5,$6,$7,0*
20,1,$1+$1,$6,$7,$8,$9,0*
20,1,$1+$1,$8,$9,$2,$3,0*%
G04 Aperture macros list end*
%ADD10C,1.700000*%
%ADD11C,3.400000*%
%ADD12C,2.500000*%
%ADD13C,0.800000*%
%ADD14O,2.000000X1.600000*%
%ADD15C,1.200000*%
%ADD16C,1.750000*%
%ADD17C,4.400000*%
%ADD18RoundRect,0.082000X-0.686681X0.389330X-0.743855X-0.264174X0.686681X-0.389330X0.743855X0.264174X0*%
%ADD19RoundRect,0.082000X-0.718000X0.328000X-0.718000X-0.328000X0.718000X-0.328000X0.718000X0.328000X0*%
%ADD20RoundRect,0.082000X-0.608642X0.502656X-0.778427X-0.130992X0.608642X-0.502656X0.778427X0.130992X0*%
%ADD21R,1.752600X1.752600*%
%ADD22C,1.752600*%
%ADD23RoundRect,0.082000X-0.512110X0.600709X-0.789348X0.006171X0.512110X-0.600709X0.789348X-0.006171X0*%
%ADD24C,1.397000*%
G04 APERTURE END LIST*
D10*
%TO.C,SW2*%
X27530236Y-40842495D03*
X16530236Y-40842495D03*
D11*
X22030236Y-40842495D03*
D12*
X22030236Y-46742495D03*
X17030236Y-44642495D03*
%TD*%
D10*
%TO.C,SW3*%
X45530236Y-28842495D03*
X34530236Y-28842495D03*
D11*
X40030236Y-28842495D03*
D12*
X40030236Y-34742495D03*
X35030236Y-32642495D03*
%TD*%
D10*
%TO.C,SW4*%
X63530236Y-21842495D03*
X52530236Y-21842495D03*
D11*
X58030236Y-21842495D03*
D12*
X58030236Y-27742495D03*
X53030236Y-25642495D03*
%TD*%
D10*
%TO.C,SW5*%
X81530237Y-27342495D03*
X70530237Y-27342495D03*
D11*
X76030237Y-27342495D03*
D12*
X76030237Y-33242495D03*
X71030237Y-31142495D03*
%TD*%
D10*
%TO.C,SW6*%
X99530235Y-29842495D03*
X88530235Y-29842495D03*
D11*
X94030235Y-29842495D03*
D12*
X94030235Y-35742495D03*
X89030235Y-33642495D03*
%TD*%
D10*
%TO.C,SW8*%
X27530236Y-57842495D03*
X16530236Y-57842495D03*
D11*
X22030236Y-57842495D03*
D12*
X22030236Y-63742495D03*
X17030236Y-61642495D03*
%TD*%
D10*
%TO.C,SW9*%
X45530237Y-45816495D03*
X34530237Y-45816495D03*
D11*
X40030237Y-45816495D03*
D12*
X40030237Y-51716495D03*
X35030237Y-49616495D03*
%TD*%
D10*
%TO.C,SW10*%
X63530236Y-38958495D03*
X52530236Y-38958495D03*
D11*
X58030236Y-38958495D03*
D12*
X58030236Y-44858495D03*
X53030236Y-42758495D03*
%TD*%
D10*
%TO.C,SW11*%
X81530236Y-44292496D03*
X70530236Y-44292496D03*
D11*
X76030236Y-44292496D03*
D12*
X76030236Y-50192496D03*
X71030236Y-48092496D03*
%TD*%
D10*
%TO.C,SW12*%
X99510236Y-46832496D03*
X88510236Y-46832496D03*
D11*
X94010236Y-46832496D03*
D12*
X94010236Y-52732496D03*
X89010236Y-50632496D03*
%TD*%
D10*
%TO.C,SW14*%
X27530237Y-74842495D03*
X16530237Y-74842495D03*
D11*
X22030237Y-74842495D03*
D12*
X22030237Y-80742495D03*
X17030237Y-78642495D03*
%TD*%
D10*
%TO.C,SW15*%
X45530236Y-62834495D03*
X34530236Y-62834495D03*
D11*
X40030236Y-62834495D03*
D12*
X40030236Y-68734495D03*
X35030236Y-66634495D03*
%TD*%
D10*
%TO.C,SW16*%
X63530235Y-55976495D03*
X52530235Y-55976495D03*
D11*
X58030235Y-55976495D03*
D12*
X58030235Y-61876495D03*
X53030235Y-59776495D03*
%TD*%
D10*
%TO.C,SW17*%
X81530236Y-61310496D03*
X70530236Y-61310496D03*
D11*
X76030236Y-61310496D03*
D12*
X76030236Y-67210496D03*
X71030236Y-65110496D03*
%TD*%
D10*
%TO.C,SW18*%
X99510236Y-63850495D03*
X88510236Y-63850495D03*
D11*
X94010236Y-63850495D03*
D12*
X94010236Y-69750495D03*
X89010236Y-67650495D03*
%TD*%
D10*
%TO.C,SW20*%
X117714930Y-92566894D03*
X107745544Y-87918094D03*
D11*
X112730237Y-90242494D03*
D12*
X110236789Y-95589710D03*
X106592749Y-91573372D03*
%TD*%
D10*
%TO.C,SW21*%
X99642828Y-84965999D03*
X89017644Y-82118989D03*
D11*
X94330236Y-83542494D03*
D12*
X92803204Y-89241456D03*
X88517094Y-85918917D03*
%TD*%
D10*
%TO.C,SW1*%
X80559308Y-80621851D03*
X69601166Y-79663137D03*
D11*
X75080237Y-80142494D03*
D12*
X74566018Y-86020043D03*
X69768072Y-83492255D03*
%TD*%
D13*
%TO.C,J2*%
X111498237Y-72712494D03*
X118498237Y-72712494D03*
D14*
X108798237Y-70412494D03*
X109898237Y-75012494D03*
X113898237Y-75012494D03*
X116898237Y-75012494D03*
%TD*%
D15*
%TO.C,RSW1*%
X74855236Y-14194995D03*
D16*
X72355236Y-15404995D03*
X77355236Y-15404995D03*
%TD*%
D17*
%TO.C,REF\u002A\u002A*%
X67530236Y-56792495D03*
X48480236Y-37742495D03*
X86580236Y-37742495D03*
X67530236Y-18692495D03*
%TD*%
D18*
%TO.C,D12*%
X72998249Y-74108074D03*
X72867515Y-75602366D03*
X78047728Y-76055576D03*
X78178461Y-74561284D03*
%TD*%
D19*
%TO.C,D16*%
X37430236Y-23012495D03*
X37430236Y-24512495D03*
X42630236Y-24512495D03*
X42630236Y-23012495D03*
%TD*%
%TO.C,D8*%
X55430235Y-50146495D03*
X55430235Y-51646495D03*
X60630235Y-51646495D03*
X60630235Y-50146495D03*
%TD*%
%TO.C,D2*%
X55430236Y-16012495D03*
X55430236Y-17512495D03*
X60630236Y-17512495D03*
X60630236Y-16012495D03*
%TD*%
D20*
%TO.C,D15*%
X93327744Y-77238217D03*
X92939515Y-78687106D03*
X97962330Y-80032965D03*
X98350558Y-78584076D03*
%TD*%
D19*
%TO.C,D11*%
X73430236Y-55480496D03*
X73430236Y-56980496D03*
X78630236Y-56980496D03*
X78630236Y-55480496D03*
%TD*%
D21*
%TO.C,U2*%
X105160235Y-29509246D03*
D22*
X105160235Y-32049246D03*
X105160235Y-34589246D03*
X105160235Y-37129246D03*
X105160235Y-39669246D03*
X105160235Y-42209246D03*
X105160235Y-44749246D03*
X105160235Y-47289246D03*
X105160235Y-49829246D03*
X105160235Y-52369246D03*
X105160235Y-54909246D03*
X105388835Y-57449246D03*
X120400235Y-57449246D03*
X120400235Y-54909246D03*
X120400235Y-52369246D03*
X120400235Y-49829246D03*
X120400235Y-47289246D03*
X120400235Y-44749246D03*
X120400235Y-42209246D03*
X120400235Y-39669246D03*
X120400235Y-37129246D03*
X120400235Y-34589246D03*
X120400235Y-32049246D03*
X120400235Y-29509246D03*
X107700235Y-57449246D03*
X110240235Y-57449246D03*
X112780235Y-57449246D03*
X115320235Y-57449246D03*
X117860235Y-57449246D03*
%TD*%
D19*
%TO.C,D14*%
X73430236Y-38462496D03*
X73430236Y-39962496D03*
X78630236Y-39962496D03*
X78630236Y-38462496D03*
%TD*%
%TO.C,D10*%
X37430236Y-57004495D03*
X37430236Y-58504495D03*
X42630236Y-58504495D03*
X42630236Y-57004495D03*
%TD*%
%TO.C,D1*%
X19430236Y-35012495D03*
X19430236Y-36512495D03*
X24630236Y-36512495D03*
X24630236Y-35012495D03*
%TD*%
%TO.C,D9*%
X91410236Y-58020495D03*
X91410236Y-59520495D03*
X96610236Y-59520495D03*
X96610236Y-58020495D03*
%TD*%
%TO.C,D17*%
X73430237Y-21512495D03*
X73430237Y-23012495D03*
X78630237Y-23012495D03*
X78630237Y-21512495D03*
%TD*%
D23*
%TO.C,D18*%
X112837701Y-83859912D03*
X112203774Y-85219374D03*
X116916574Y-87416989D03*
X117550502Y-86057527D03*
%TD*%
D19*
%TO.C,D4*%
X19430236Y-52062495D03*
X19430236Y-53562495D03*
X24630236Y-53562495D03*
X24630236Y-52062495D03*
%TD*%
%TO.C,D3*%
X91430235Y-24012495D03*
X91430235Y-25512495D03*
X96630235Y-25512495D03*
X96630235Y-24012495D03*
%TD*%
%TO.C,D7*%
X19430237Y-69012495D03*
X19430237Y-70512495D03*
X24630237Y-70512495D03*
X24630237Y-69012495D03*
%TD*%
D24*
%TO.C,OL1*%
X108770236Y-62422495D03*
X111310236Y-62422495D03*
X113850236Y-62422495D03*
X116390236Y-62422495D03*
%TD*%
D19*
%TO.C,D5*%
X55430236Y-33128495D03*
X55430236Y-34628495D03*
X60630236Y-34628495D03*
X60630236Y-33128495D03*
%TD*%
%TO.C,D6*%
X91410236Y-41002496D03*
X91410236Y-42502496D03*
X96610236Y-42502496D03*
X96610236Y-41002496D03*
%TD*%
%TO.C,D13*%
X37430237Y-39986495D03*
X37430237Y-41486495D03*
X42630237Y-41486495D03*
X42630237Y-39986495D03*
%TD*%
D13*
%TO.C,J1*%
X118480236Y-72692496D03*
X111480236Y-72692496D03*
D14*
X108780236Y-74992496D03*
X109880236Y-70392496D03*
X113880236Y-70392496D03*
X116880236Y-70392496D03*
%TD*%
M02*
