%TF.GenerationSoftware,KiCad,Pcbnew,(6.0.0)*%
%TF.CreationDate,2022-03-12T15:50:12-08:00*%
%TF.ProjectId,half-swept,68616c66-2d73-4776-9570-742e6b696361,rev?*%
%TF.SameCoordinates,Original*%
%TF.FileFunction,Legend,Bot*%
%TF.FilePolarity,Positive*%
%FSLAX46Y46*%
G04 Gerber Fmt 4.6, Leading zero omitted, Abs format (unit mm)*
G04 Created by KiCad (PCBNEW (6.0.0)) date 2022-03-12 15:50:12*
%MOMM*%
%LPD*%
G01*
G04 APERTURE LIST*
%ADD10C,0.100000*%
%ADD11C,0.150000*%
%ADD12C,0.200000*%
%ADD13C,0.010000*%
%ADD14C,0.381000*%
%ADD15R,1.752600X1.752600*%
%ADD16C,1.752600*%
G04 APERTURE END LIST*
D10*
%TO.C,REF\u002A\u002A*%
X67095214Y-42432500D02*
X68095214Y-42432500D01*
X67142833Y-42432500D02*
X67095214Y-42527738D01*
X67095214Y-42718214D01*
X67142833Y-42813452D01*
X67190452Y-42861071D01*
X67285690Y-42908690D01*
X67571404Y-42908690D01*
X67666642Y-42861071D01*
X67714261Y-42813452D01*
X67761880Y-42718214D01*
X67761880Y-42527738D01*
X67714261Y-42432500D01*
X67095214Y-43765833D02*
X67761880Y-43765833D01*
X67095214Y-43337261D02*
X67619023Y-43337261D01*
X67714261Y-43384880D01*
X67761880Y-43480119D01*
X67761880Y-43622976D01*
X67714261Y-43718214D01*
X67666642Y-43765833D01*
X67714261Y-44670595D02*
X67761880Y-44575357D01*
X67761880Y-44384880D01*
X67714261Y-44289642D01*
X67666642Y-44242023D01*
X67571404Y-44194404D01*
X67285690Y-44194404D01*
X67190452Y-44242023D01*
X67142833Y-44289642D01*
X67095214Y-44384880D01*
X67095214Y-44575357D01*
X67142833Y-44670595D01*
X67761880Y-45099166D02*
X66761880Y-45099166D01*
X67380928Y-45194404D02*
X67761880Y-45480119D01*
X67095214Y-45480119D02*
X67476166Y-45099166D01*
X67031714Y-28478500D02*
X67031714Y-28859452D01*
X66698380Y-28621357D02*
X67555523Y-28621357D01*
X67650761Y-28668976D01*
X67698380Y-28764214D01*
X67698380Y-28859452D01*
X67650761Y-29573738D02*
X67698380Y-29478500D01*
X67698380Y-29288023D01*
X67650761Y-29192785D01*
X67555523Y-29145166D01*
X67174571Y-29145166D01*
X67079333Y-29192785D01*
X67031714Y-29288023D01*
X67031714Y-29478500D01*
X67079333Y-29573738D01*
X67174571Y-29621357D01*
X67269809Y-29621357D01*
X67365047Y-29145166D01*
X67031714Y-30049928D02*
X67698380Y-30049928D01*
X67126952Y-30049928D02*
X67079333Y-30097547D01*
X67031714Y-30192785D01*
X67031714Y-30335642D01*
X67079333Y-30430880D01*
X67174571Y-30478500D01*
X67698380Y-30478500D01*
X67031714Y-30811833D02*
X67031714Y-31192785D01*
X66698380Y-30954690D02*
X67555523Y-30954690D01*
X67650761Y-31002309D01*
X67698380Y-31097547D01*
X67698380Y-31192785D01*
X67698380Y-31526119D02*
X67031714Y-31526119D01*
X66698380Y-31526119D02*
X66746000Y-31478500D01*
X66793619Y-31526119D01*
X66746000Y-31573738D01*
X66698380Y-31526119D01*
X66793619Y-31526119D01*
X67031714Y-32002309D02*
X67698380Y-32002309D01*
X67126952Y-32002309D02*
X67079333Y-32049928D01*
X67031714Y-32145166D01*
X67031714Y-32288023D01*
X67079333Y-32383261D01*
X67174571Y-32430880D01*
X67698380Y-32430880D01*
X67031714Y-33335642D02*
X67841238Y-33335642D01*
X67936476Y-33288023D01*
X67984095Y-33240404D01*
X68031714Y-33145166D01*
X68031714Y-33002309D01*
X67984095Y-32907071D01*
X67650761Y-33335642D02*
X67698380Y-33240404D01*
X67698380Y-33049928D01*
X67650761Y-32954690D01*
X67603142Y-32907071D01*
X67507904Y-32859452D01*
X67222190Y-32859452D01*
X67126952Y-32907071D01*
X67079333Y-32954690D01*
X67031714Y-33049928D01*
X67031714Y-33240404D01*
X67079333Y-33335642D01*
D11*
%TO.C,U2*%
X108379476Y-57418654D02*
X108379476Y-56618654D01*
X108189000Y-56618654D01*
X108074714Y-56656750D01*
X107998523Y-56732940D01*
X107960428Y-56809130D01*
X107922333Y-56961511D01*
X107922333Y-57075797D01*
X107960428Y-57228178D01*
X107998523Y-57304369D01*
X108074714Y-57380559D01*
X108189000Y-57418654D01*
X108379476Y-57418654D01*
X107236619Y-56885321D02*
X107236619Y-57418654D01*
X107427095Y-56580559D02*
X107617571Y-57151988D01*
X107122333Y-57151988D01*
X108398523Y-49036750D02*
X108474714Y-48998654D01*
X108589000Y-48998654D01*
X108703285Y-49036750D01*
X108779476Y-49112940D01*
X108817571Y-49189130D01*
X108855666Y-49341511D01*
X108855666Y-49455797D01*
X108817571Y-49608178D01*
X108779476Y-49684369D01*
X108703285Y-49760559D01*
X108589000Y-49798654D01*
X108512809Y-49798654D01*
X108398523Y-49760559D01*
X108360428Y-49722464D01*
X108360428Y-49455797D01*
X108512809Y-49455797D01*
X108017571Y-49798654D02*
X108017571Y-48998654D01*
X107560428Y-49798654D01*
X107560428Y-48998654D01*
X107179476Y-49798654D02*
X107179476Y-48998654D01*
X106989000Y-48998654D01*
X106874714Y-49036750D01*
X106798523Y-49112940D01*
X106760428Y-49189130D01*
X106722333Y-49341511D01*
X106722333Y-49455797D01*
X106760428Y-49608178D01*
X106798523Y-49684369D01*
X106874714Y-49760559D01*
X106989000Y-49798654D01*
X107179476Y-49798654D01*
X108112809Y-67159607D02*
X107998523Y-67197702D01*
X107960428Y-67235797D01*
X107922333Y-67311988D01*
X107922333Y-67426273D01*
X107960428Y-67502464D01*
X107998523Y-67540559D01*
X108074714Y-67578654D01*
X108379476Y-67578654D01*
X108379476Y-66778654D01*
X108112809Y-66778654D01*
X108036619Y-66816750D01*
X107998523Y-66854845D01*
X107960428Y-66931035D01*
X107960428Y-67007226D01*
X107998523Y-67083416D01*
X108036619Y-67121511D01*
X108112809Y-67159607D01*
X108379476Y-67159607D01*
X107236619Y-67045321D02*
X107236619Y-67578654D01*
X107427095Y-66740559D02*
X107617571Y-67311988D01*
X107122333Y-67311988D01*
X116056666Y-68129607D02*
X116323333Y-68129607D01*
X116323333Y-68548654D02*
X116323333Y-67748654D01*
X115942380Y-67748654D01*
X115218571Y-68548654D02*
X115675714Y-68548654D01*
X115447142Y-68548654D02*
X115447142Y-67748654D01*
X115523333Y-67862940D01*
X115599523Y-67939130D01*
X115675714Y-67977226D01*
X119034809Y-62079607D02*
X118920523Y-62117702D01*
X118882428Y-62155797D01*
X118844333Y-62231988D01*
X118844333Y-62346273D01*
X118882428Y-62422464D01*
X118920523Y-62460559D01*
X118996714Y-62498654D01*
X119301476Y-62498654D01*
X119301476Y-61698654D01*
X119034809Y-61698654D01*
X118958619Y-61736750D01*
X118920523Y-61774845D01*
X118882428Y-61851035D01*
X118882428Y-61927226D01*
X118920523Y-62003416D01*
X118958619Y-62041511D01*
X119034809Y-62079607D01*
X119301476Y-62079607D01*
X118082428Y-62498654D02*
X118539571Y-62498654D01*
X118311000Y-62498654D02*
X118311000Y-61698654D01*
X118387190Y-61812940D01*
X118463380Y-61889130D01*
X118539571Y-61927226D01*
X119320523Y-43956750D02*
X119396714Y-43918654D01*
X119511000Y-43918654D01*
X119625285Y-43956750D01*
X119701476Y-44032940D01*
X119739571Y-44109130D01*
X119777666Y-44261511D01*
X119777666Y-44375797D01*
X119739571Y-44528178D01*
X119701476Y-44604369D01*
X119625285Y-44680559D01*
X119511000Y-44718654D01*
X119434809Y-44718654D01*
X119320523Y-44680559D01*
X119282428Y-44642464D01*
X119282428Y-44375797D01*
X119434809Y-44375797D01*
X118939571Y-44718654D02*
X118939571Y-43918654D01*
X118482428Y-44718654D01*
X118482428Y-43918654D01*
X118101476Y-44718654D02*
X118101476Y-43918654D01*
X117911000Y-43918654D01*
X117796714Y-43956750D01*
X117720523Y-44032940D01*
X117682428Y-44109130D01*
X117644333Y-44261511D01*
X117644333Y-44375797D01*
X117682428Y-44528178D01*
X117720523Y-44604369D01*
X117796714Y-44680559D01*
X117911000Y-44718654D01*
X118101476Y-44718654D01*
X119034809Y-41759607D02*
X118920523Y-41797702D01*
X118882428Y-41835797D01*
X118844333Y-41911988D01*
X118844333Y-42026273D01*
X118882428Y-42102464D01*
X118920523Y-42140559D01*
X118996714Y-42178654D01*
X119301476Y-42178654D01*
X119301476Y-41378654D01*
X119034809Y-41378654D01*
X118958619Y-41416750D01*
X118920523Y-41454845D01*
X118882428Y-41531035D01*
X118882428Y-41607226D01*
X118920523Y-41683416D01*
X118958619Y-41721511D01*
X119034809Y-41759607D01*
X119301476Y-41759607D01*
X118349095Y-41378654D02*
X118272904Y-41378654D01*
X118196714Y-41416750D01*
X118158619Y-41454845D01*
X118120523Y-41531035D01*
X118082428Y-41683416D01*
X118082428Y-41873892D01*
X118120523Y-42026273D01*
X118158619Y-42102464D01*
X118196714Y-42140559D01*
X118272904Y-42178654D01*
X118349095Y-42178654D01*
X118425285Y-42140559D01*
X118463380Y-42102464D01*
X118501476Y-42026273D01*
X118539571Y-41873892D01*
X118539571Y-41683416D01*
X118501476Y-41531035D01*
X118463380Y-41454845D01*
X118425285Y-41416750D01*
X118349095Y-41378654D01*
X108341380Y-64619607D02*
X108074714Y-64619607D01*
X107960428Y-65038654D02*
X108341380Y-65038654D01*
X108341380Y-64238654D01*
X107960428Y-64238654D01*
X107274714Y-64238654D02*
X107427095Y-64238654D01*
X107503285Y-64276750D01*
X107541380Y-64314845D01*
X107617571Y-64429130D01*
X107655666Y-64581511D01*
X107655666Y-64886273D01*
X107617571Y-64962464D01*
X107579476Y-65000559D01*
X107503285Y-65038654D01*
X107350904Y-65038654D01*
X107274714Y-65000559D01*
X107236619Y-64962464D01*
X107198523Y-64886273D01*
X107198523Y-64695797D01*
X107236619Y-64619607D01*
X107274714Y-64581511D01*
X107350904Y-64543416D01*
X107503285Y-64543416D01*
X107579476Y-64581511D01*
X107617571Y-64619607D01*
X107655666Y-64695797D01*
X111868604Y-41378654D02*
X111411461Y-41378654D01*
X111640032Y-42178654D02*
X111640032Y-41378654D01*
X111220985Y-41378654D02*
X110687651Y-42178654D01*
X110687651Y-41378654D02*
X111220985Y-42178654D01*
X110230508Y-41378654D02*
X110154318Y-41378654D01*
X110078128Y-41416750D01*
X110040032Y-41454845D01*
X110001937Y-41531035D01*
X109963842Y-41683416D01*
X109963842Y-41873892D01*
X110001937Y-42026273D01*
X110040032Y-42102464D01*
X110078128Y-42140559D01*
X110154318Y-42178654D01*
X110230508Y-42178654D01*
X110306699Y-42140559D01*
X110344794Y-42102464D01*
X110382889Y-42026273D01*
X110420985Y-41873892D01*
X110420985Y-41683416D01*
X110382889Y-41531035D01*
X110344794Y-41454845D01*
X110306699Y-41416750D01*
X110230508Y-41378654D01*
X109049556Y-41340559D02*
X109735270Y-42369130D01*
X108782889Y-42178654D02*
X108782889Y-41378654D01*
X108592413Y-41378654D01*
X108478128Y-41416750D01*
X108401937Y-41492940D01*
X108363842Y-41569130D01*
X108325747Y-41721511D01*
X108325747Y-41835797D01*
X108363842Y-41988178D01*
X108401937Y-42064369D01*
X108478128Y-42140559D01*
X108592413Y-42178654D01*
X108782889Y-42178654D01*
X108059080Y-41378654D02*
X107563842Y-41378654D01*
X107830508Y-41683416D01*
X107716223Y-41683416D01*
X107640032Y-41721511D01*
X107601937Y-41759607D01*
X107563842Y-41835797D01*
X107563842Y-42026273D01*
X107601937Y-42102464D01*
X107640032Y-42140559D01*
X107716223Y-42178654D01*
X107944794Y-42178654D01*
X108020985Y-42140559D01*
X108059080Y-42102464D01*
X119034809Y-64619607D02*
X118920523Y-64657702D01*
X118882428Y-64695797D01*
X118844333Y-64771988D01*
X118844333Y-64886273D01*
X118882428Y-64962464D01*
X118920523Y-65000559D01*
X118996714Y-65038654D01*
X119301476Y-65038654D01*
X119301476Y-64238654D01*
X119034809Y-64238654D01*
X118958619Y-64276750D01*
X118920523Y-64314845D01*
X118882428Y-64391035D01*
X118882428Y-64467226D01*
X118920523Y-64543416D01*
X118958619Y-64581511D01*
X119034809Y-64619607D01*
X119301476Y-64619607D01*
X118577666Y-64238654D02*
X118082428Y-64238654D01*
X118349095Y-64543416D01*
X118234809Y-64543416D01*
X118158619Y-64581511D01*
X118120523Y-64619607D01*
X118082428Y-64695797D01*
X118082428Y-64886273D01*
X118120523Y-64962464D01*
X118158619Y-65000559D01*
X118234809Y-65038654D01*
X118463380Y-65038654D01*
X118539571Y-65000559D01*
X118577666Y-64962464D01*
X107922333Y-59882464D02*
X107960428Y-59920559D01*
X108074714Y-59958654D01*
X108150904Y-59958654D01*
X108265190Y-59920559D01*
X108341380Y-59844369D01*
X108379476Y-59768178D01*
X108417571Y-59615797D01*
X108417571Y-59501511D01*
X108379476Y-59349130D01*
X108341380Y-59272940D01*
X108265190Y-59196750D01*
X108150904Y-59158654D01*
X108074714Y-59158654D01*
X107960428Y-59196750D01*
X107922333Y-59234845D01*
X107236619Y-59158654D02*
X107389000Y-59158654D01*
X107465190Y-59196750D01*
X107503285Y-59234845D01*
X107579476Y-59349130D01*
X107617571Y-59501511D01*
X107617571Y-59806273D01*
X107579476Y-59882464D01*
X107541380Y-59920559D01*
X107465190Y-59958654D01*
X107312809Y-59958654D01*
X107236619Y-59920559D01*
X107198523Y-59882464D01*
X107160428Y-59806273D01*
X107160428Y-59615797D01*
X107198523Y-59539607D01*
X107236619Y-59501511D01*
X107312809Y-59463416D01*
X107465190Y-59463416D01*
X107541380Y-59501511D01*
X107579476Y-59539607D01*
X107617571Y-59615797D01*
X108379476Y-44718654D02*
X108379476Y-43918654D01*
X108189000Y-43918654D01*
X108074714Y-43956750D01*
X107998523Y-44032940D01*
X107960428Y-44109130D01*
X107922333Y-44261511D01*
X107922333Y-44375797D01*
X107960428Y-44528178D01*
X107998523Y-44604369D01*
X108074714Y-44680559D01*
X108189000Y-44718654D01*
X108379476Y-44718654D01*
X107617571Y-43994845D02*
X107579476Y-43956750D01*
X107503285Y-43918654D01*
X107312809Y-43918654D01*
X107236619Y-43956750D01*
X107198523Y-43994845D01*
X107160428Y-44071035D01*
X107160428Y-44147226D01*
X107198523Y-44261511D01*
X107655666Y-44718654D01*
X107160428Y-44718654D01*
X108379476Y-54878654D02*
X108379476Y-54078654D01*
X108189000Y-54078654D01*
X108074714Y-54116750D01*
X107998523Y-54192940D01*
X107960428Y-54269130D01*
X107922333Y-54421511D01*
X107922333Y-54535797D01*
X107960428Y-54688178D01*
X107998523Y-54764369D01*
X108074714Y-54840559D01*
X108189000Y-54878654D01*
X108379476Y-54878654D01*
X107427095Y-54078654D02*
X107350904Y-54078654D01*
X107274714Y-54116750D01*
X107236619Y-54154845D01*
X107198523Y-54231035D01*
X107160428Y-54383416D01*
X107160428Y-54573892D01*
X107198523Y-54726273D01*
X107236619Y-54802464D01*
X107274714Y-54840559D01*
X107350904Y-54878654D01*
X107427095Y-54878654D01*
X107503285Y-54840559D01*
X107541380Y-54802464D01*
X107579476Y-54726273D01*
X107617571Y-54573892D01*
X107617571Y-54383416D01*
X107579476Y-54231035D01*
X107541380Y-54154845D01*
X107503285Y-54116750D01*
X107427095Y-54078654D01*
X119034809Y-67159607D02*
X118920523Y-67197702D01*
X118882428Y-67235797D01*
X118844333Y-67311988D01*
X118844333Y-67426273D01*
X118882428Y-67502464D01*
X118920523Y-67540559D01*
X118996714Y-67578654D01*
X119301476Y-67578654D01*
X119301476Y-66778654D01*
X119034809Y-66778654D01*
X118958619Y-66816750D01*
X118920523Y-66854845D01*
X118882428Y-66931035D01*
X118882428Y-67007226D01*
X118920523Y-67083416D01*
X118958619Y-67121511D01*
X119034809Y-67159607D01*
X119301476Y-67159607D01*
X118539571Y-66854845D02*
X118501476Y-66816750D01*
X118425285Y-66778654D01*
X118234809Y-66778654D01*
X118158619Y-66816750D01*
X118120523Y-66854845D01*
X118082428Y-66931035D01*
X118082428Y-67007226D01*
X118120523Y-67121511D01*
X118577666Y-67578654D01*
X118082428Y-67578654D01*
X106614297Y-68321758D02*
X106708578Y-68368898D01*
X106755719Y-68368898D01*
X106826429Y-68345328D01*
X106897140Y-68274617D01*
X106920710Y-68203907D01*
X106920710Y-68156766D01*
X106897140Y-68086056D01*
X106708578Y-67897494D01*
X106213603Y-68392469D01*
X106378595Y-68557460D01*
X106449306Y-68581030D01*
X106496446Y-68581030D01*
X106567157Y-68557460D01*
X106614297Y-68510320D01*
X106637867Y-68439609D01*
X106637867Y-68392469D01*
X106614297Y-68321758D01*
X106449306Y-68156766D01*
X106944280Y-69123146D02*
X106708578Y-68887443D01*
X106920710Y-68628171D01*
X106920710Y-68675311D01*
X106944280Y-68746022D01*
X107062132Y-68863873D01*
X107132842Y-68887443D01*
X107179983Y-68887443D01*
X107250693Y-68863873D01*
X107368544Y-68746022D01*
X107392115Y-68675311D01*
X107392115Y-68628171D01*
X107368544Y-68557460D01*
X107250693Y-68439609D01*
X107179983Y-68416039D01*
X107132842Y-68416039D01*
X119814991Y-68251047D02*
X119767851Y-68345328D01*
X119767851Y-68392469D01*
X119791421Y-68463179D01*
X119862132Y-68533890D01*
X119932842Y-68557460D01*
X119979983Y-68557460D01*
X120050693Y-68533890D01*
X120239255Y-68345328D01*
X119744280Y-67850353D01*
X119579289Y-68015345D01*
X119555719Y-68086056D01*
X119555719Y-68133196D01*
X119579289Y-68203907D01*
X119626429Y-68251047D01*
X119697140Y-68274617D01*
X119744280Y-68274617D01*
X119814991Y-68251047D01*
X119979983Y-68086056D01*
X119037174Y-68557460D02*
X119131455Y-68463179D01*
X119202165Y-68439609D01*
X119249306Y-68439609D01*
X119367157Y-68463179D01*
X119485008Y-68533890D01*
X119673570Y-68722452D01*
X119697140Y-68793162D01*
X119697140Y-68840303D01*
X119673570Y-68911014D01*
X119579289Y-69005294D01*
X119508578Y-69028865D01*
X119461438Y-69028865D01*
X119390727Y-69005294D01*
X119272876Y-68887443D01*
X119249306Y-68816733D01*
X119249306Y-68769592D01*
X119272876Y-68698882D01*
X119367157Y-68604601D01*
X119437867Y-68581030D01*
X119485008Y-68581030D01*
X119555719Y-68604601D01*
X113383333Y-68472464D02*
X113421428Y-68510559D01*
X113535714Y-68548654D01*
X113611904Y-68548654D01*
X113726190Y-68510559D01*
X113802380Y-68434369D01*
X113840476Y-68358178D01*
X113878571Y-68205797D01*
X113878571Y-68091511D01*
X113840476Y-67939130D01*
X113802380Y-67862940D01*
X113726190Y-67786750D01*
X113611904Y-67748654D01*
X113535714Y-67748654D01*
X113421428Y-67786750D01*
X113383333Y-67824845D01*
X113116666Y-67748654D02*
X112583333Y-67748654D01*
X112926190Y-68548654D01*
X108379476Y-62498654D02*
X108379476Y-61698654D01*
X108189000Y-61698654D01*
X108074714Y-61736750D01*
X107998523Y-61812940D01*
X107960428Y-61889130D01*
X107922333Y-62041511D01*
X107922333Y-62155797D01*
X107960428Y-62308178D01*
X107998523Y-62384369D01*
X108074714Y-62460559D01*
X108189000Y-62498654D01*
X108379476Y-62498654D01*
X107655666Y-61698654D02*
X107122333Y-61698654D01*
X107465190Y-62498654D01*
X118977666Y-51919607D02*
X119244333Y-51919607D01*
X119244333Y-52338654D02*
X119244333Y-51538654D01*
X118863380Y-51538654D01*
X118215761Y-51805321D02*
X118215761Y-52338654D01*
X118406238Y-51500559D02*
X118596714Y-52071988D01*
X118101476Y-52071988D01*
X108379476Y-52338654D02*
X108379476Y-51538654D01*
X108189000Y-51538654D01*
X108074714Y-51576750D01*
X107998523Y-51652940D01*
X107960428Y-51729130D01*
X107922333Y-51881511D01*
X107922333Y-51995797D01*
X107960428Y-52148178D01*
X107998523Y-52224369D01*
X108074714Y-52300559D01*
X108189000Y-52338654D01*
X108379476Y-52338654D01*
X107160428Y-52338654D02*
X107617571Y-52338654D01*
X107389000Y-52338654D02*
X107389000Y-51538654D01*
X107465190Y-51652940D01*
X107541380Y-51729130D01*
X107617571Y-51767226D01*
X108398523Y-46496750D02*
X108474714Y-46458654D01*
X108589000Y-46458654D01*
X108703285Y-46496750D01*
X108779476Y-46572940D01*
X108817571Y-46649130D01*
X108855666Y-46801511D01*
X108855666Y-46915797D01*
X108817571Y-47068178D01*
X108779476Y-47144369D01*
X108703285Y-47220559D01*
X108589000Y-47258654D01*
X108512809Y-47258654D01*
X108398523Y-47220559D01*
X108360428Y-47182464D01*
X108360428Y-46915797D01*
X108512809Y-46915797D01*
X108017571Y-47258654D02*
X108017571Y-46458654D01*
X107560428Y-47258654D01*
X107560428Y-46458654D01*
X107179476Y-47258654D02*
X107179476Y-46458654D01*
X106989000Y-46458654D01*
X106874714Y-46496750D01*
X106798523Y-46572940D01*
X106760428Y-46649130D01*
X106722333Y-46801511D01*
X106722333Y-46915797D01*
X106760428Y-47068178D01*
X106798523Y-47144369D01*
X106874714Y-47220559D01*
X106989000Y-47258654D01*
X107179476Y-47258654D01*
X111300476Y-68548654D02*
X111300476Y-67748654D01*
X111110000Y-67748654D01*
X110995714Y-67786750D01*
X110919523Y-67862940D01*
X110881428Y-67939130D01*
X110843333Y-68091511D01*
X110843333Y-68205797D01*
X110881428Y-68358178D01*
X110919523Y-68434369D01*
X110995714Y-68510559D01*
X111110000Y-68548654D01*
X111300476Y-68548654D01*
X110119523Y-67748654D02*
X110500476Y-67748654D01*
X110538571Y-68129607D01*
X110500476Y-68091511D01*
X110424285Y-68053416D01*
X110233809Y-68053416D01*
X110157619Y-68091511D01*
X110119523Y-68129607D01*
X110081428Y-68205797D01*
X110081428Y-68396273D01*
X110119523Y-68472464D01*
X110157619Y-68510559D01*
X110233809Y-68548654D01*
X110424285Y-68548654D01*
X110500476Y-68510559D01*
X110538571Y-68472464D01*
X118977666Y-56999607D02*
X119244333Y-56999607D01*
X119244333Y-57418654D02*
X119244333Y-56618654D01*
X118863380Y-56618654D01*
X118215761Y-56618654D02*
X118368142Y-56618654D01*
X118444333Y-56656750D01*
X118482428Y-56694845D01*
X118558619Y-56809130D01*
X118596714Y-56961511D01*
X118596714Y-57266273D01*
X118558619Y-57342464D01*
X118520523Y-57380559D01*
X118444333Y-57418654D01*
X118291952Y-57418654D01*
X118215761Y-57380559D01*
X118177666Y-57342464D01*
X118139571Y-57266273D01*
X118139571Y-57075797D01*
X118177666Y-56999607D01*
X118215761Y-56961511D01*
X118291952Y-56923416D01*
X118444333Y-56923416D01*
X118520523Y-56961511D01*
X118558619Y-56999607D01*
X118596714Y-57075797D01*
X119777666Y-48998654D02*
X119511000Y-49798654D01*
X119244333Y-48998654D01*
X118520523Y-49722464D02*
X118558619Y-49760559D01*
X118672904Y-49798654D01*
X118749095Y-49798654D01*
X118863380Y-49760559D01*
X118939571Y-49684369D01*
X118977666Y-49608178D01*
X119015761Y-49455797D01*
X119015761Y-49341511D01*
X118977666Y-49189130D01*
X118939571Y-49112940D01*
X118863380Y-49036750D01*
X118749095Y-48998654D01*
X118672904Y-48998654D01*
X118558619Y-49036750D01*
X118520523Y-49074845D01*
X117720523Y-49722464D02*
X117758619Y-49760559D01*
X117872904Y-49798654D01*
X117949095Y-49798654D01*
X118063380Y-49760559D01*
X118139571Y-49684369D01*
X118177666Y-49608178D01*
X118215761Y-49455797D01*
X118215761Y-49341511D01*
X118177666Y-49189130D01*
X118139571Y-49112940D01*
X118063380Y-49036750D01*
X117949095Y-48998654D01*
X117872904Y-48998654D01*
X117758619Y-49036750D01*
X117720523Y-49074845D01*
X109033333Y-68336750D02*
X108933333Y-68370083D01*
X108900000Y-68403416D01*
X108866666Y-68470083D01*
X108866666Y-68570083D01*
X108900000Y-68636750D01*
X108933333Y-68670083D01*
X109000000Y-68703416D01*
X109266666Y-68703416D01*
X109266666Y-68003416D01*
X109033333Y-68003416D01*
X108966666Y-68036750D01*
X108933333Y-68070083D01*
X108900000Y-68136750D01*
X108900000Y-68203416D01*
X108933333Y-68270083D01*
X108966666Y-68303416D01*
X109033333Y-68336750D01*
X109266666Y-68336750D01*
X108633333Y-68003416D02*
X108166666Y-68003416D01*
X108466666Y-68703416D01*
X118977666Y-59539607D02*
X119244333Y-59539607D01*
X119244333Y-59958654D02*
X119244333Y-59158654D01*
X118863380Y-59158654D01*
X118634809Y-59158654D02*
X118101476Y-59158654D01*
X118444333Y-59958654D01*
X117983333Y-68336750D02*
X118216666Y-68336750D01*
X118216666Y-68703416D02*
X118216666Y-68003416D01*
X117883333Y-68003416D01*
X117483333Y-68003416D02*
X117416666Y-68003416D01*
X117350000Y-68036750D01*
X117316666Y-68070083D01*
X117283333Y-68136750D01*
X117250000Y-68270083D01*
X117250000Y-68436750D01*
X117283333Y-68570083D01*
X117316666Y-68636750D01*
X117350000Y-68670083D01*
X117416666Y-68703416D01*
X117483333Y-68703416D01*
X117550000Y-68670083D01*
X117583333Y-68636750D01*
X117616666Y-68570083D01*
X117650000Y-68436750D01*
X117650000Y-68270083D01*
X117616666Y-68136750D01*
X117583333Y-68070083D01*
X117550000Y-68036750D01*
X117483333Y-68003416D01*
X118823333Y-47200559D02*
X118709047Y-47238654D01*
X118518571Y-47238654D01*
X118442380Y-47200559D01*
X118404285Y-47162464D01*
X118366190Y-47086273D01*
X118366190Y-47010083D01*
X118404285Y-46933892D01*
X118442380Y-46895797D01*
X118518571Y-46857702D01*
X118670952Y-46819607D01*
X118747142Y-46781511D01*
X118785238Y-46743416D01*
X118823333Y-46667226D01*
X118823333Y-46591035D01*
X118785238Y-46514845D01*
X118747142Y-46476750D01*
X118670952Y-46438654D01*
X118480476Y-46438654D01*
X118366190Y-46476750D01*
X118137619Y-46438654D02*
X117680476Y-46438654D01*
X117909047Y-47238654D02*
X117909047Y-46438654D01*
X118977666Y-54459607D02*
X119244333Y-54459607D01*
X119244333Y-54878654D02*
X119244333Y-54078654D01*
X118863380Y-54078654D01*
X118177666Y-54078654D02*
X118558619Y-54078654D01*
X118596714Y-54459607D01*
X118558619Y-54421511D01*
X118482428Y-54383416D01*
X118291952Y-54383416D01*
X118215761Y-54421511D01*
X118177666Y-54459607D01*
X118139571Y-54535797D01*
X118139571Y-54726273D01*
X118177666Y-54802464D01*
X118215761Y-54840559D01*
X118291952Y-54878654D01*
X118482428Y-54878654D01*
X118558619Y-54840559D01*
X118596714Y-54802464D01*
D12*
%TO.C,REF\u002A\u002A*%
X67500000Y-27105000D02*
G75*
G03*
X66371615Y-27164136I-6J-10794921D01*
G01*
X86786134Y-44908048D02*
G75*
G03*
X87820000Y-40757500I-19286117J7008044D01*
G01*
X47180000Y-40757500D02*
G75*
G03*
X48213865Y-44908046I20320050J2857512D01*
G01*
X48213864Y-30891956D02*
G75*
G03*
X47180000Y-35042500I19286252J-7008071D01*
G01*
X60491955Y-57186135D02*
G75*
G03*
X64642500Y-58220000I7008051J19286154D01*
G01*
X70357500Y-58220000D02*
G75*
G03*
X74508045Y-57186135I-2857506J20320019D01*
G01*
X68628385Y-27164136D02*
G75*
G03*
X67500000Y-27105000I-1128379J-10735785D01*
G01*
X87820000Y-35042500D02*
G75*
G03*
X86786134Y-30891952I-20319983J-2857496D01*
G01*
X67500000Y-48695000D02*
G75*
G03*
X68628385Y-48635864I6J10794921D01*
G01*
X74508049Y-18613866D02*
G75*
G03*
X70357500Y-17580000I-7008041J-19286105D01*
G01*
X66371615Y-48635864D02*
G75*
G03*
X67500000Y-48695000I1128379J10735785D01*
G01*
X64642500Y-17580000D02*
G75*
G03*
X60491954Y-18613865I2857512J-20320050D01*
G01*
D13*
X68277718Y-52424575D02*
X68255015Y-52447438D01*
X68255015Y-52447438D02*
X68220536Y-52482969D01*
X68220536Y-52482969D02*
X68176267Y-52529061D01*
X68176267Y-52529061D02*
X68124200Y-52583607D01*
X68124200Y-52583607D02*
X68066321Y-52644501D01*
X68066321Y-52644501D02*
X68004622Y-52709636D01*
X68004622Y-52709636D02*
X67941089Y-52776906D01*
X67941089Y-52776906D02*
X67877714Y-52844204D01*
X67877714Y-52844204D02*
X67816484Y-52909423D01*
X67816484Y-52909423D02*
X67759388Y-52970458D01*
X67759388Y-52970458D02*
X67708416Y-53025201D01*
X67708416Y-53025201D02*
X67665556Y-53071546D01*
X67665556Y-53071546D02*
X67632798Y-53107386D01*
X67632798Y-53107386D02*
X67612130Y-53130615D01*
X67612130Y-53130615D02*
X67609837Y-53133306D01*
X67609837Y-53133306D02*
X67581536Y-53166941D01*
X67581536Y-53166941D02*
X68201550Y-53166941D01*
X68201550Y-53166941D02*
X68374900Y-52990872D01*
X68374900Y-52990872D02*
X68428642Y-52936129D01*
X68428642Y-52936129D02*
X68478925Y-52884616D01*
X68478925Y-52884616D02*
X68522741Y-52839436D01*
X68522741Y-52839436D02*
X68557087Y-52803690D01*
X68557087Y-52803690D02*
X68578955Y-52780481D01*
X68578955Y-52780481D02*
X68582132Y-52776989D01*
X68582132Y-52776989D02*
X68616014Y-52739174D01*
X68616014Y-52739174D02*
X68454979Y-52577830D01*
X68454979Y-52577830D02*
X68405266Y-52528375D01*
X68405266Y-52528375D02*
X68361042Y-52485050D01*
X68361042Y-52485050D02*
X68324895Y-52450337D01*
X68324895Y-52450337D02*
X68299413Y-52426717D01*
X68299413Y-52426717D02*
X68287184Y-52416669D01*
X68287184Y-52416669D02*
X68286653Y-52416486D01*
X68286653Y-52416486D02*
X68277718Y-52424575D01*
X68277718Y-52424575D02*
X68277718Y-52424575D01*
G36*
X68287184Y-52416669D02*
G01*
X68299413Y-52426717D01*
X68324895Y-52450337D01*
X68361042Y-52485050D01*
X68405266Y-52528375D01*
X68454979Y-52577830D01*
X68616014Y-52739174D01*
X68582132Y-52776989D01*
X68578955Y-52780481D01*
X68557087Y-52803690D01*
X68522741Y-52839436D01*
X68478925Y-52884616D01*
X68428642Y-52936129D01*
X68374900Y-52990872D01*
X68201550Y-53166941D01*
X67581536Y-53166941D01*
X67609837Y-53133306D01*
X67612130Y-53130615D01*
X67632798Y-53107386D01*
X67665556Y-53071546D01*
X67708416Y-53025201D01*
X67759388Y-52970458D01*
X67816484Y-52909423D01*
X67877714Y-52844204D01*
X67941089Y-52776906D01*
X68004622Y-52709636D01*
X68066321Y-52644501D01*
X68124200Y-52583607D01*
X68176267Y-52529061D01*
X68220536Y-52482969D01*
X68255015Y-52447438D01*
X68277718Y-52424575D01*
X68286653Y-52416486D01*
X68287184Y-52416669D01*
G37*
X68287184Y-52416669D02*
X68299413Y-52426717D01*
X68324895Y-52450337D01*
X68361042Y-52485050D01*
X68405266Y-52528375D01*
X68454979Y-52577830D01*
X68616014Y-52739174D01*
X68582132Y-52776989D01*
X68578955Y-52780481D01*
X68557087Y-52803690D01*
X68522741Y-52839436D01*
X68478925Y-52884616D01*
X68428642Y-52936129D01*
X68374900Y-52990872D01*
X68201550Y-53166941D01*
X67581536Y-53166941D01*
X67609837Y-53133306D01*
X67612130Y-53130615D01*
X67632798Y-53107386D01*
X67665556Y-53071546D01*
X67708416Y-53025201D01*
X67759388Y-52970458D01*
X67816484Y-52909423D01*
X67877714Y-52844204D01*
X67941089Y-52776906D01*
X68004622Y-52709636D01*
X68066321Y-52644501D01*
X68124200Y-52583607D01*
X68176267Y-52529061D01*
X68220536Y-52482969D01*
X68255015Y-52447438D01*
X68277718Y-52424575D01*
X68286653Y-52416486D01*
X68287184Y-52416669D01*
X66879464Y-50883827D02*
X66879272Y-50988067D01*
X66879272Y-50988067D02*
X66878783Y-51084812D01*
X66878783Y-51084812D02*
X66878033Y-51171698D01*
X66878033Y-51171698D02*
X66877057Y-51246360D01*
X66877057Y-51246360D02*
X66875888Y-51306435D01*
X66875888Y-51306435D02*
X66874561Y-51349558D01*
X66874561Y-51349558D02*
X66873112Y-51373365D01*
X66873112Y-51373365D02*
X66872204Y-51377395D01*
X66872204Y-51377395D02*
X66859773Y-51371081D01*
X66859773Y-51371081D02*
X66834927Y-51354738D01*
X66834927Y-51354738D02*
X66810793Y-51337536D01*
X66810793Y-51337536D02*
X66696096Y-51266814D01*
X66696096Y-51266814D02*
X66573880Y-51217710D01*
X66573880Y-51217710D02*
X66443497Y-51190034D01*
X66443497Y-51190034D02*
X66304296Y-51183596D01*
X66304296Y-51183596D02*
X66286484Y-51184264D01*
X66286484Y-51184264D02*
X66196849Y-51190816D01*
X66196849Y-51190816D02*
X66120366Y-51202753D01*
X66120366Y-51202753D02*
X66048714Y-51222245D01*
X66048714Y-51222245D02*
X65973576Y-51251462D01*
X65973576Y-51251462D02*
X65903725Y-51284101D01*
X65903725Y-51284101D02*
X65775792Y-51359394D01*
X65775792Y-51359394D02*
X65662872Y-51451374D01*
X65662872Y-51451374D02*
X65565978Y-51558363D01*
X65565978Y-51558363D02*
X65486120Y-51678688D01*
X65486120Y-51678688D02*
X65424310Y-51810673D01*
X65424310Y-51810673D02*
X65381558Y-51952642D01*
X65381558Y-51952642D02*
X65358877Y-52102921D01*
X65358877Y-52102921D02*
X65355316Y-52192591D01*
X65355316Y-52192591D02*
X65365607Y-52345069D01*
X65365607Y-52345069D02*
X65396963Y-52489633D01*
X65396963Y-52489633D02*
X65450108Y-52628869D01*
X65450108Y-52628869D02*
X65507363Y-52735788D01*
X65507363Y-52735788D02*
X65593075Y-52856081D01*
X65593075Y-52856081D02*
X65694688Y-52960930D01*
X65694688Y-52960930D02*
X65810021Y-53049252D01*
X65810021Y-53049252D02*
X65936896Y-53119966D01*
X65936896Y-53119966D02*
X66073132Y-53171989D01*
X66073132Y-53171989D02*
X66216551Y-53204242D01*
X66216551Y-53204242D02*
X66364972Y-53215641D01*
X66364972Y-53215641D02*
X66465218Y-53211158D01*
X66465218Y-53211158D02*
X66609826Y-53186277D01*
X66609826Y-53186277D02*
X66750394Y-53140002D01*
X66750394Y-53140002D02*
X66883567Y-53074023D01*
X66883567Y-53074023D02*
X67005987Y-52990026D01*
X67005987Y-52990026D02*
X67114299Y-52889700D01*
X67114299Y-52889700D02*
X67122693Y-52880534D01*
X67122693Y-52880534D02*
X67203824Y-52776414D01*
X67203824Y-52776414D02*
X67273516Y-52658232D01*
X67273516Y-52658232D02*
X67328682Y-52532369D01*
X67328682Y-52532369D02*
X67366235Y-52405209D01*
X67366235Y-52405209D02*
X67375104Y-52358759D01*
X67375104Y-52358759D02*
X67377717Y-52330364D01*
X67377717Y-52330364D02*
X67380062Y-52280292D01*
X67380062Y-52280292D02*
X67381531Y-52229958D01*
X67381531Y-52229958D02*
X66885193Y-52229958D01*
X66885193Y-52229958D02*
X66874621Y-52327507D01*
X66874621Y-52327507D02*
X66844189Y-52421526D01*
X66844189Y-52421526D02*
X66815535Y-52475671D01*
X66815535Y-52475671D02*
X66748601Y-52563954D01*
X66748601Y-52563954D02*
X66669120Y-52634831D01*
X66669120Y-52634831D02*
X66579688Y-52687324D01*
X66579688Y-52687324D02*
X66482902Y-52720456D01*
X66482902Y-52720456D02*
X66381361Y-52733250D01*
X66381361Y-52733250D02*
X66277660Y-52724729D01*
X66277660Y-52724729D02*
X66204833Y-52705441D01*
X66204833Y-52705441D02*
X66161836Y-52689355D01*
X66161836Y-52689355D02*
X66120931Y-52671995D01*
X66120931Y-52671995D02*
X66104764Y-52664219D01*
X66104764Y-52664219D02*
X66059478Y-52633215D01*
X66059478Y-52633215D02*
X66010155Y-52587021D01*
X66010155Y-52587021D02*
X65962098Y-52531565D01*
X65962098Y-52531565D02*
X65920613Y-52472771D01*
X65920613Y-52472771D02*
X65899125Y-52434444D01*
X65899125Y-52434444D02*
X65878944Y-52390198D01*
X65878944Y-52390198D02*
X65866299Y-52351590D01*
X65866299Y-52351590D02*
X65858942Y-52309298D01*
X65858942Y-52309298D02*
X65854624Y-52253995D01*
X65854624Y-52253995D02*
X65854342Y-52248705D01*
X65854342Y-52248705D02*
X65857710Y-52141460D01*
X65857710Y-52141460D02*
X65880566Y-52043568D01*
X65880566Y-52043568D02*
X65924218Y-51950145D01*
X65924218Y-51950145D02*
X65941988Y-51921616D01*
X65941988Y-51921616D02*
X66006530Y-51843712D01*
X66006530Y-51843712D02*
X66085347Y-51781542D01*
X66085347Y-51781542D02*
X66174983Y-51736046D01*
X66174983Y-51736046D02*
X66271982Y-51708168D01*
X66271982Y-51708168D02*
X66372886Y-51698848D01*
X66372886Y-51698848D02*
X66474238Y-51709030D01*
X66474238Y-51709030D02*
X66572584Y-51739655D01*
X66572584Y-51739655D02*
X66586587Y-51745941D01*
X66586587Y-51745941D02*
X66674539Y-51798890D01*
X66674539Y-51798890D02*
X66748529Y-51867104D01*
X66748529Y-51867104D02*
X66807572Y-51947450D01*
X66807572Y-51947450D02*
X66850685Y-52036797D01*
X66850685Y-52036797D02*
X66876887Y-52132010D01*
X66876887Y-52132010D02*
X66885193Y-52229958D01*
X66885193Y-52229958D02*
X67381531Y-52229958D01*
X67381531Y-52229958D02*
X67382115Y-52209955D01*
X67382115Y-52209955D02*
X67383854Y-52120766D01*
X67383854Y-52120766D02*
X67385257Y-52014137D01*
X67385257Y-52014137D02*
X67386301Y-51891481D01*
X67386301Y-51891481D02*
X67386965Y-51754209D01*
X67386965Y-51754209D02*
X67387226Y-51603735D01*
X67387226Y-51603735D02*
X67387229Y-51591999D01*
X67387229Y-51591999D02*
X67387316Y-50900285D01*
X67387316Y-50900285D02*
X66879612Y-50390259D01*
X66879612Y-50390259D02*
X66879464Y-50883827D01*
X66879464Y-50883827D02*
X66879464Y-50883827D01*
G36*
X67377717Y-52330364D02*
G01*
X67375104Y-52358759D01*
X67366235Y-52405209D01*
X67328682Y-52532369D01*
X67273516Y-52658232D01*
X67203824Y-52776414D01*
X67122693Y-52880534D01*
X67114299Y-52889700D01*
X67005987Y-52990026D01*
X66883567Y-53074023D01*
X66750394Y-53140002D01*
X66609826Y-53186277D01*
X66465218Y-53211158D01*
X66364972Y-53215641D01*
X66216551Y-53204242D01*
X66073132Y-53171989D01*
X65936896Y-53119966D01*
X65810021Y-53049252D01*
X65694688Y-52960930D01*
X65593075Y-52856081D01*
X65507363Y-52735788D01*
X65450108Y-52628869D01*
X65396963Y-52489633D01*
X65365607Y-52345069D01*
X65359103Y-52248705D01*
X65854342Y-52248705D01*
X65854624Y-52253995D01*
X65858942Y-52309298D01*
X65866299Y-52351590D01*
X65878944Y-52390198D01*
X65899125Y-52434444D01*
X65920613Y-52472771D01*
X65962098Y-52531565D01*
X66010155Y-52587021D01*
X66059478Y-52633215D01*
X66104764Y-52664219D01*
X66120931Y-52671995D01*
X66161836Y-52689355D01*
X66204833Y-52705441D01*
X66277660Y-52724729D01*
X66381361Y-52733250D01*
X66482902Y-52720456D01*
X66579688Y-52687324D01*
X66669120Y-52634831D01*
X66748601Y-52563954D01*
X66815535Y-52475671D01*
X66844189Y-52421526D01*
X66874621Y-52327507D01*
X66885193Y-52229958D01*
X66876887Y-52132010D01*
X66850685Y-52036797D01*
X66807572Y-51947450D01*
X66748529Y-51867104D01*
X66674539Y-51798890D01*
X66586587Y-51745941D01*
X66572584Y-51739655D01*
X66474238Y-51709030D01*
X66372886Y-51698848D01*
X66271982Y-51708168D01*
X66174983Y-51736046D01*
X66085347Y-51781542D01*
X66006530Y-51843712D01*
X65941988Y-51921616D01*
X65924218Y-51950145D01*
X65880566Y-52043568D01*
X65857710Y-52141460D01*
X65854342Y-52248705D01*
X65359103Y-52248705D01*
X65355316Y-52192591D01*
X65358877Y-52102921D01*
X65381558Y-51952642D01*
X65424310Y-51810673D01*
X65486120Y-51678688D01*
X65565978Y-51558363D01*
X65662872Y-51451374D01*
X65775792Y-51359394D01*
X65903725Y-51284101D01*
X65973576Y-51251462D01*
X66048714Y-51222245D01*
X66120366Y-51202753D01*
X66196849Y-51190816D01*
X66286484Y-51184264D01*
X66304296Y-51183596D01*
X66443497Y-51190034D01*
X66573880Y-51217710D01*
X66696096Y-51266814D01*
X66810793Y-51337536D01*
X66834927Y-51354738D01*
X66859773Y-51371081D01*
X66872204Y-51377395D01*
X66873112Y-51373365D01*
X66874561Y-51349558D01*
X66875888Y-51306435D01*
X66877057Y-51246360D01*
X66878033Y-51171698D01*
X66878783Y-51084812D01*
X66879272Y-50988067D01*
X66879464Y-50883827D01*
X66879612Y-50390259D01*
X67387316Y-50900285D01*
X67387229Y-51591999D01*
X67387226Y-51603735D01*
X67386965Y-51754209D01*
X67386301Y-51891481D01*
X67385257Y-52014137D01*
X67383854Y-52120766D01*
X67382115Y-52209955D01*
X67381531Y-52229958D01*
X67380062Y-52280292D01*
X67377717Y-52330364D01*
G37*
X67377717Y-52330364D02*
X67375104Y-52358759D01*
X67366235Y-52405209D01*
X67328682Y-52532369D01*
X67273516Y-52658232D01*
X67203824Y-52776414D01*
X67122693Y-52880534D01*
X67114299Y-52889700D01*
X67005987Y-52990026D01*
X66883567Y-53074023D01*
X66750394Y-53140002D01*
X66609826Y-53186277D01*
X66465218Y-53211158D01*
X66364972Y-53215641D01*
X66216551Y-53204242D01*
X66073132Y-53171989D01*
X65936896Y-53119966D01*
X65810021Y-53049252D01*
X65694688Y-52960930D01*
X65593075Y-52856081D01*
X65507363Y-52735788D01*
X65450108Y-52628869D01*
X65396963Y-52489633D01*
X65365607Y-52345069D01*
X65359103Y-52248705D01*
X65854342Y-52248705D01*
X65854624Y-52253995D01*
X65858942Y-52309298D01*
X65866299Y-52351590D01*
X65878944Y-52390198D01*
X65899125Y-52434444D01*
X65920613Y-52472771D01*
X65962098Y-52531565D01*
X66010155Y-52587021D01*
X66059478Y-52633215D01*
X66104764Y-52664219D01*
X66120931Y-52671995D01*
X66161836Y-52689355D01*
X66204833Y-52705441D01*
X66277660Y-52724729D01*
X66381361Y-52733250D01*
X66482902Y-52720456D01*
X66579688Y-52687324D01*
X66669120Y-52634831D01*
X66748601Y-52563954D01*
X66815535Y-52475671D01*
X66844189Y-52421526D01*
X66874621Y-52327507D01*
X66885193Y-52229958D01*
X66876887Y-52132010D01*
X66850685Y-52036797D01*
X66807572Y-51947450D01*
X66748529Y-51867104D01*
X66674539Y-51798890D01*
X66586587Y-51745941D01*
X66572584Y-51739655D01*
X66474238Y-51709030D01*
X66372886Y-51698848D01*
X66271982Y-51708168D01*
X66174983Y-51736046D01*
X66085347Y-51781542D01*
X66006530Y-51843712D01*
X65941988Y-51921616D01*
X65924218Y-51950145D01*
X65880566Y-52043568D01*
X65857710Y-52141460D01*
X65854342Y-52248705D01*
X65359103Y-52248705D01*
X65355316Y-52192591D01*
X65358877Y-52102921D01*
X65381558Y-51952642D01*
X65424310Y-51810673D01*
X65486120Y-51678688D01*
X65565978Y-51558363D01*
X65662872Y-51451374D01*
X65775792Y-51359394D01*
X65903725Y-51284101D01*
X65973576Y-51251462D01*
X66048714Y-51222245D01*
X66120366Y-51202753D01*
X66196849Y-51190816D01*
X66286484Y-51184264D01*
X66304296Y-51183596D01*
X66443497Y-51190034D01*
X66573880Y-51217710D01*
X66696096Y-51266814D01*
X66810793Y-51337536D01*
X66834927Y-51354738D01*
X66859773Y-51371081D01*
X66872204Y-51377395D01*
X66873112Y-51373365D01*
X66874561Y-51349558D01*
X66875888Y-51306435D01*
X66877057Y-51246360D01*
X66878033Y-51171698D01*
X66878783Y-51084812D01*
X66879272Y-50988067D01*
X66879464Y-50883827D01*
X66879612Y-50390259D01*
X67387316Y-50900285D01*
X67387229Y-51591999D01*
X67387226Y-51603735D01*
X67386965Y-51754209D01*
X67386301Y-51891481D01*
X67385257Y-52014137D01*
X67383854Y-52120766D01*
X67382115Y-52209955D01*
X67381531Y-52229958D01*
X67380062Y-52280292D01*
X67377717Y-52330364D01*
X69084498Y-52018044D02*
X68281552Y-51215344D01*
X68281552Y-51215344D02*
X67993184Y-51218438D01*
X67993184Y-51218438D02*
X67704816Y-51221531D01*
X67704816Y-51221531D02*
X68552040Y-52081668D01*
X68552040Y-52081668D02*
X68669965Y-52201391D01*
X68669965Y-52201391D02*
X68784764Y-52317940D01*
X68784764Y-52317940D02*
X68895218Y-52430080D01*
X68895218Y-52430080D02*
X69000110Y-52536573D01*
X69000110Y-52536573D02*
X69098222Y-52636184D01*
X69098222Y-52636184D02*
X69188337Y-52727677D01*
X69188337Y-52727677D02*
X69269236Y-52809814D01*
X69269236Y-52809814D02*
X69339703Y-52881359D01*
X69339703Y-52881359D02*
X69398519Y-52941077D01*
X69398519Y-52941077D02*
X69444466Y-52987731D01*
X69444466Y-52987731D02*
X69476327Y-53020084D01*
X69476327Y-53020084D02*
X69490108Y-53034080D01*
X69490108Y-53034080D02*
X69580952Y-53126356D01*
X69580952Y-53126356D02*
X69580952Y-50384486D01*
X69580952Y-50384486D02*
X69084498Y-50384486D01*
X69084498Y-50384486D02*
X69084498Y-52018044D01*
X69084498Y-52018044D02*
X69084498Y-52018044D01*
G36*
X69580952Y-53126356D02*
G01*
X69490108Y-53034080D01*
X69476327Y-53020084D01*
X69444466Y-52987731D01*
X69398519Y-52941077D01*
X69339703Y-52881359D01*
X69269236Y-52809814D01*
X69188337Y-52727677D01*
X69098222Y-52636184D01*
X69000110Y-52536573D01*
X68895218Y-52430080D01*
X68784764Y-52317940D01*
X68669965Y-52201391D01*
X68552040Y-52081668D01*
X67704816Y-51221531D01*
X67993184Y-51218438D01*
X68281552Y-51215344D01*
X69084498Y-52018044D01*
X69084498Y-50384486D01*
X69580952Y-50384486D01*
X69580952Y-53126356D01*
G37*
X69580952Y-53126356D02*
X69490108Y-53034080D01*
X69476327Y-53020084D01*
X69444466Y-52987731D01*
X69398519Y-52941077D01*
X69339703Y-52881359D01*
X69269236Y-52809814D01*
X69188337Y-52727677D01*
X69098222Y-52636184D01*
X69000110Y-52536573D01*
X68895218Y-52430080D01*
X68784764Y-52317940D01*
X68669965Y-52201391D01*
X68552040Y-52081668D01*
X67704816Y-51221531D01*
X67993184Y-51218438D01*
X68281552Y-51215344D01*
X69084498Y-52018044D01*
X69084498Y-50384486D01*
X69580952Y-50384486D01*
X69580952Y-53126356D01*
D14*
%TO.C,U2*%
X104360000Y-38006750D02*
X104360000Y-71026750D01*
X104360000Y-71026750D02*
X122140000Y-71026750D01*
X106900000Y-43086750D02*
X104360000Y-43086750D01*
X106900000Y-40546750D02*
X104360000Y-40546750D01*
X122140000Y-38006750D02*
X104360000Y-38006750D01*
X122140000Y-71026750D02*
X122140000Y-38006750D01*
X106900000Y-40546750D02*
X106900000Y-43086750D01*
D11*
X119094635Y-46435780D02*
X119094635Y-46535780D01*
X119094635Y-46535780D02*
X119594635Y-46535780D01*
X119594635Y-46535780D02*
X119594635Y-46435780D01*
X119594635Y-46435780D02*
X119094635Y-46435780D01*
G36*
X119594635Y-46535780D02*
G01*
X119094635Y-46535780D01*
X119094635Y-46435780D01*
X119594635Y-46435780D01*
X119594635Y-46535780D01*
G37*
X119594635Y-46535780D02*
X119094635Y-46535780D01*
X119094635Y-46435780D01*
X119594635Y-46435780D01*
X119594635Y-46535780D01*
X119094635Y-46435780D02*
X119094635Y-46735780D01*
X119094635Y-46735780D02*
X119194635Y-46735780D01*
X119194635Y-46735780D02*
X119194635Y-46435780D01*
X119194635Y-46435780D02*
X119094635Y-46435780D01*
G36*
X119194635Y-46735780D02*
G01*
X119094635Y-46735780D01*
X119094635Y-46435780D01*
X119194635Y-46435780D01*
X119194635Y-46735780D01*
G37*
X119194635Y-46735780D02*
X119094635Y-46735780D01*
X119094635Y-46435780D01*
X119194635Y-46435780D01*
X119194635Y-46735780D01*
X119294635Y-46835780D02*
X119294635Y-46935780D01*
X119294635Y-46935780D02*
X119394635Y-46935780D01*
X119394635Y-46935780D02*
X119394635Y-46835780D01*
X119394635Y-46835780D02*
X119294635Y-46835780D01*
G36*
X119394635Y-46935780D02*
G01*
X119294635Y-46935780D01*
X119294635Y-46835780D01*
X119394635Y-46835780D01*
X119394635Y-46935780D01*
G37*
X119394635Y-46935780D02*
X119294635Y-46935780D01*
X119294635Y-46835780D01*
X119394635Y-46835780D01*
X119394635Y-46935780D01*
X119094635Y-47035780D02*
X119094635Y-47235780D01*
X119094635Y-47235780D02*
X119194635Y-47235780D01*
X119194635Y-47235780D02*
X119194635Y-47035780D01*
X119194635Y-47035780D02*
X119094635Y-47035780D01*
G36*
X119194635Y-47235780D02*
G01*
X119094635Y-47235780D01*
X119094635Y-47035780D01*
X119194635Y-47035780D01*
X119194635Y-47235780D01*
G37*
X119194635Y-47235780D02*
X119094635Y-47235780D01*
X119094635Y-47035780D01*
X119194635Y-47035780D01*
X119194635Y-47235780D01*
X119494635Y-46435780D02*
X119494635Y-47235780D01*
X119494635Y-47235780D02*
X119594635Y-47235780D01*
X119594635Y-47235780D02*
X119594635Y-46435780D01*
X119594635Y-46435780D02*
X119494635Y-46435780D01*
G36*
X119594635Y-47235780D02*
G01*
X119494635Y-47235780D01*
X119494635Y-46435780D01*
X119594635Y-46435780D01*
X119594635Y-47235780D01*
G37*
X119594635Y-47235780D02*
X119494635Y-47235780D01*
X119494635Y-46435780D01*
X119594635Y-46435780D01*
X119594635Y-47235780D01*
%TO.C,J1*%
X106500000Y-74600000D02*
X106500000Y-80700000D01*
X118600000Y-74850000D02*
X120600000Y-74850000D01*
X118600000Y-74600000D02*
X106500000Y-74600000D01*
X118600000Y-74600000D02*
X118600000Y-80700000D01*
X120600000Y-74850000D02*
X120600000Y-80450000D01*
X118600000Y-80450000D02*
X120600000Y-80450000D01*
X118600000Y-80700000D02*
X106500000Y-80700000D01*
%TD*%
D15*
%TO.C,U2*%
X105630000Y-41816750D03*
D16*
X105630000Y-44356750D03*
X105630000Y-46896750D03*
X105630000Y-49436750D03*
X105630000Y-51976750D03*
X105630000Y-54516750D03*
X105630000Y-57056750D03*
X105630000Y-59596750D03*
X105630000Y-62136750D03*
X105630000Y-64676750D03*
X105630000Y-67216750D03*
X105858600Y-69756750D03*
X120870000Y-69756750D03*
X120870000Y-67216750D03*
X120870000Y-64676750D03*
X120870000Y-62136750D03*
X120870000Y-59596750D03*
X120870000Y-57056750D03*
X120870000Y-54516750D03*
X120870000Y-51976750D03*
X120870000Y-49436750D03*
X120870000Y-46896750D03*
X120870000Y-44356750D03*
X120870000Y-41816750D03*
X108170000Y-69756750D03*
X110710000Y-69756750D03*
X113250000Y-69756750D03*
X115790000Y-69756750D03*
X118330000Y-69756750D03*
%TD*%
M02*
