M48
; DRILL file {KiCad (6.0.0)} date Sat Mar 12 15:50:14 2022
; FORMAT={-:-/ absolute / inch / decimal}
; #@! TF.CreationDate,2022-03-12T15:50:14-08:00
; #@! TF.GenerationSoftware,Kicad,Pcbnew,(6.0.0)
; #@! TF.FileFunction,Plated,1,2,PTH
FMAT,2
INCH
; #@! TA.AperFunction,Plated,PTH,ViaDrill
T1C0.0157
; #@! TA.AperFunction,Plated,PTH,ComponentDrill
T2C0.0354
; #@! TA.AperFunction,Plated,PTH,ComponentDrill
T3C0.0390
; #@! TA.AperFunction,Plated,PTH,ComponentDrill
T4C0.0430
; #@! TA.AperFunction,Plated,PTH,ComponentDrill
T5C0.0472
; #@! TA.AperFunction,Plated,PTH,ComponentDrill
T6C0.0866
%
G90
G05
T1
X3.75Y-2.8524
X3.8228Y-1.687
X3.9032Y-1.5023
X3.93Y-1.73
X3.9311Y-2.813
X3.9547Y-2.3681
X3.9764Y-1.5256
X4.0Y-2.8996
X4.0039Y-3.1594
X4.0571Y-3.0138
X4.06Y-1.93
X4.07Y-1.72
X4.1122Y-3.1299
X4.1496Y-2.958
X4.2067Y-3.0295
X4.3071Y-2.0453
X4.3071Y-2.872
X4.3484Y-2.8484
X4.4094Y-2.1457
X4.4921Y-1.6555
X4.5079Y-2.5472
X4.5079Y-2.8701
X4.5432Y-3.0532
X4.5591Y-2.6772
X4.563Y-2.5492
X4.6083Y-2.3465
X4.6083Y-2.872
X4.6614Y-2.2008
X4.6654Y-1.8406
X4.6969Y-2.5
X4.7067Y-2.8681
T3
X2.7884Y-0.6718
X2.9852Y-0.6718
T4
X4.1587Y-1.6463
X4.1587Y-1.7463
X4.1587Y-1.8463
X4.1587Y-1.9463
X4.1587Y-2.0463
X4.1587Y-2.1463
X4.1587Y-2.2463
X4.1587Y-2.3463
X4.1587Y-2.4463
X4.1587Y-2.5463
X4.1587Y-2.6463
X4.1677Y-2.7463
X4.2587Y-2.7463
X4.3587Y-2.7463
X4.4587Y-2.7463
X4.5587Y-2.7463
X4.6587Y-2.7463
X4.7587Y-1.6463
X4.7587Y-1.7463
X4.7587Y-1.8463
X4.7587Y-1.9463
X4.7587Y-2.0463
X4.7587Y-2.1463
X4.7587Y-2.2463
X4.7587Y-2.3463
X4.7587Y-2.4463
X4.7587Y-2.5463
X4.7587Y-2.6463
X4.7587Y-2.7463
T5
X0.6693Y-1.7638
X0.6693Y-2.4331
X0.6693Y-3.1024
X0.8661Y-1.8465
X0.8661Y-2.5157
X0.8661Y-3.185
X1.063Y-1.7638
X1.063Y-2.4331
X1.063Y-3.1024
X1.378Y-1.2913
X1.378Y-1.9596
X1.378Y-2.6296
X1.5748Y-1.374
X1.5748Y-2.0423
X1.5748Y-2.7123
X1.7717Y-1.2913
X1.7717Y-1.9596
X1.7717Y-2.6296
X2.0866Y-1.0157
X2.0866Y-1.6896
X2.0866Y-2.3596
X2.2835Y-1.0984
X2.2835Y-1.7723
X2.2835Y-2.4423
X2.439Y-2.9263
X2.4803Y-1.0157
X2.4803Y-1.6896
X2.4803Y-2.3596
X2.6423Y-2.8611
X2.7953Y-1.2323
X2.7953Y-1.8996
X2.7953Y-2.5696
X2.8312Y-2.9606
X2.9921Y-1.315
X2.9921Y-1.9823
X2.9921Y-2.6523
X3.189Y-1.2323
X3.189Y-1.8996
X3.189Y-2.5696
X3.2232Y-3.0309
X3.4348Y-3.002
X3.5031Y-1.9996
X3.5031Y-2.6696
X3.5039Y-1.3307
X3.6035Y-3.1328
X3.7Y-2.0823
X3.7Y-2.7523
X3.7008Y-1.4134
X3.8969Y-1.9996
X3.8969Y-2.6696
X3.8976Y-1.3307
X4.0097Y-3.3035
X4.2215Y-3.3303
X4.3506Y-3.5004
T6
X1.9075Y-1.4921
X2.6575Y-0.7421
X2.6575Y-2.2421
X3.4075Y-1.4921
T2
G00X4.2165Y-3.1476
M15
G01X4.2323Y-3.1476
M16
G05
G00X4.233Y-2.9673
M15
G01X4.2172Y-2.9673
M16
G05
G00X4.2598Y-2.9665
M15
G01X4.2756Y-2.9665
M16
G05
G00X4.2763Y-3.1484
M15
G01X4.2606Y-3.1484
M16
G05
G00X4.4173Y-2.9665
M15
G01X4.4331Y-2.9665
M16
G05
G00X4.4338Y-3.1484
M15
G01X4.418Y-3.1484
M16
G05
G00X4.5354Y-2.9665
M15
G01X4.5512Y-2.9665
M16
G05
G00X4.5519Y-3.1484
M15
G01X4.5361Y-3.1484
M16
G05
T0
M30
