%TF.GenerationSoftware,KiCad,Pcbnew,(6.0.0)*%
%TF.CreationDate,2022-04-18T13:44:49-07:00*%
%TF.ProjectId,half-swept,68616c66-2d73-4776-9570-742e6b696361,rev?*%
%TF.SameCoordinates,Original*%
%TF.FileFunction,Paste,Top*%
%TF.FilePolarity,Positive*%
%FSLAX46Y46*%
G04 Gerber Fmt 4.6, Leading zero omitted, Abs format (unit mm)*
G04 Created by KiCad (PCBNEW (6.0.0)) date 2022-04-18 13:44:49*
%MOMM*%
%LPD*%
G01*
G04 APERTURE LIST*
G04 Aperture macros list*
%AMRoundRect*
0 Rectangle with rounded corners*
0 $1 Rounding radius*
0 $2 $3 $4 $5 $6 $7 $8 $9 X,Y pos of 4 corners*
0 Add a 4 corners polygon primitive as box body*
4,1,4,$2,$3,$4,$5,$6,$7,$8,$9,$2,$3,0*
0 Add four circle primitives for the rounded corners*
1,1,$1+$1,$2,$3*
1,1,$1+$1,$4,$5*
1,1,$1+$1,$6,$7*
1,1,$1+$1,$8,$9*
0 Add four rect primitives between the rounded corners*
20,1,$1+$1,$2,$3,$4,$5,0*
20,1,$1+$1,$4,$5,$6,$7,0*
20,1,$1+$1,$6,$7,$8,$9,0*
20,1,$1+$1,$8,$9,$2,$3,0*%
G04 Aperture macros list end*
%ADD10RoundRect,0.082000X-0.718000X0.328000X-0.718000X-0.328000X0.718000X-0.328000X0.718000X0.328000X0*%
%ADD11RoundRect,0.082000X-0.686681X0.389330X-0.743855X-0.264174X0.686681X-0.389330X0.743855X0.264174X0*%
%ADD12RoundRect,0.082000X-0.608642X0.502656X-0.778427X-0.130992X0.608642X-0.502656X0.778427X0.130992X0*%
%ADD13RoundRect,0.082000X-0.512110X0.600709X-0.789348X0.006171X0.512110X-0.600709X0.789348X-0.006171X0*%
G04 APERTURE END LIST*
D10*
%TO.C,D34*%
X43030583Y-23382374D03*
X43030583Y-24882374D03*
X37830583Y-24882374D03*
X37830583Y-23382374D03*
%TD*%
%TO.C,D26*%
X55830581Y-50516374D03*
X55830581Y-52016374D03*
X61030581Y-52016374D03*
X61030581Y-50516374D03*
%TD*%
%TO.C,D31*%
X43030584Y-40356374D03*
X43030584Y-41856374D03*
X37830584Y-41856374D03*
X37830584Y-40356374D03*
%TD*%
%TO.C,D28*%
X43030584Y-57374374D03*
X43030584Y-58874374D03*
X37830584Y-58874374D03*
X37830584Y-57374374D03*
%TD*%
%TO.C,D32*%
X79030583Y-38832376D03*
X79030583Y-40332376D03*
X73830583Y-40332376D03*
X73830583Y-38832376D03*
%TD*%
%TO.C,D21*%
X97030581Y-24382375D03*
X97030581Y-25882375D03*
X91830581Y-25882375D03*
X91830581Y-24382375D03*
%TD*%
%TO.C,D19*%
X25030582Y-35382374D03*
X25030582Y-36882374D03*
X19830582Y-36882374D03*
X19830582Y-35382374D03*
%TD*%
%TO.C,D23*%
X61030583Y-33498373D03*
X61030583Y-34998373D03*
X55830583Y-34998373D03*
X55830583Y-33498373D03*
%TD*%
%TO.C,D22*%
X25030582Y-52432374D03*
X25030582Y-53932374D03*
X19830582Y-53932374D03*
X19830582Y-52432374D03*
%TD*%
%TO.C,D35*%
X79030583Y-21882373D03*
X79030583Y-23382373D03*
X73830583Y-23382373D03*
X73830583Y-21882373D03*
%TD*%
%TO.C,D25*%
X25030583Y-69382374D03*
X25030583Y-70882374D03*
X19830583Y-70882374D03*
X19830583Y-69382374D03*
%TD*%
%TO.C,D24*%
X97010582Y-41372375D03*
X97010582Y-42872375D03*
X91810582Y-42872375D03*
X91810582Y-41372375D03*
%TD*%
D11*
%TO.C,D30*%
X78578807Y-74931161D03*
X78448074Y-76425453D03*
X73267861Y-75972243D03*
X73398595Y-74477951D03*
%TD*%
D10*
%TO.C,D29*%
X79030582Y-55850375D03*
X79030582Y-57350375D03*
X73830582Y-57350375D03*
X73830582Y-55850375D03*
%TD*%
D12*
%TO.C,D33*%
X98750904Y-78953954D03*
X98362676Y-80402843D03*
X93339861Y-79056984D03*
X93728090Y-77608095D03*
%TD*%
D10*
%TO.C,D20*%
X61030583Y-16382374D03*
X61030583Y-17882374D03*
X55830583Y-17882374D03*
X55830583Y-16382374D03*
%TD*%
D13*
%TO.C,D36*%
X117950850Y-86427406D03*
X117316922Y-87786868D03*
X112604122Y-85589253D03*
X113238049Y-84229791D03*
%TD*%
D10*
%TO.C,D27*%
X97010583Y-58390374D03*
X97010583Y-59890374D03*
X91810583Y-59890374D03*
X91810583Y-58390374D03*
%TD*%
M02*
