%TF.GenerationSoftware,KiCad,Pcbnew,(6.0.0)*%
%TF.CreationDate,2022-03-12T15:50:12-08:00*%
%TF.ProjectId,half-swept,68616c66-2d73-4776-9570-742e6b696361,rev?*%
%TF.SameCoordinates,Original*%
%TF.FileFunction,Copper,L2,Bot*%
%TF.FilePolarity,Positive*%
%FSLAX46Y46*%
G04 Gerber Fmt 4.6, Leading zero omitted, Abs format (unit mm)*
G04 Created by KiCad (PCBNEW (6.0.0)) date 2022-03-12 15:50:12*
%MOMM*%
%LPD*%
G01*
G04 APERTURE LIST*
%TA.AperFunction,ComponentPad*%
%ADD10O,2.000000X1.600000*%
%TD*%
%TA.AperFunction,ComponentPad*%
%ADD11C,1.750000*%
%TD*%
%TA.AperFunction,ComponentPad*%
%ADD12C,2.000000*%
%TD*%
%TA.AperFunction,ComponentPad*%
%ADD13C,4.400000*%
%TD*%
%TA.AperFunction,ComponentPad*%
%ADD14R,1.752600X1.752600*%
%TD*%
%TA.AperFunction,ComponentPad*%
%ADD15C,1.752600*%
%TD*%
%TA.AperFunction,ViaPad*%
%ADD16C,0.800000*%
%TD*%
%TA.AperFunction,Conductor*%
%ADD17C,0.250000*%
%TD*%
G04 APERTURE END LIST*
D10*
%TO.P,J2,1,SLEEVE*%
%TO.N,gnd*%
X107318000Y-75370000D03*
%TO.P,J2,2,TIP*%
X108418000Y-79970000D03*
%TO.P,J2,3,RING1*%
%TO.N,data*%
X112418000Y-79970000D03*
%TO.P,J2,4,RING2*%
%TO.N,vcc*%
X115418000Y-79970000D03*
%TD*%
D11*
%TO.P,RSW1,1,1*%
%TO.N,gnd*%
X70825000Y-17062500D03*
%TO.P,RSW1,2,2*%
%TO.N,reset*%
X75825000Y-17062500D03*
%TD*%
D12*
%TO.P,SW2,1,1*%
%TO.N,Switch1*%
X22000000Y-46900000D03*
%TO.P,SW2,2,2*%
%TO.N,gnd*%
X17000000Y-44800000D03*
X27000000Y-44800000D03*
%TD*%
%TO.P,SW3,1,1*%
%TO.N,Switch2*%
X40000000Y-34900000D03*
%TO.P,SW3,2,2*%
%TO.N,gnd*%
X35000000Y-32800000D03*
X45000000Y-32800000D03*
%TD*%
%TO.P,SW4,1,1*%
%TO.N,Switch3*%
X58000000Y-27900000D03*
%TO.P,SW4,2,2*%
%TO.N,gnd*%
X63000000Y-25800000D03*
X53000000Y-25800000D03*
%TD*%
%TO.P,SW5,1,1*%
%TO.N,Switch4*%
X76000000Y-33400000D03*
%TO.P,SW5,2,2*%
%TO.N,gnd*%
X81000000Y-31300000D03*
X71000000Y-31300000D03*
%TD*%
%TO.P,SW6,1,1*%
%TO.N,Switch5*%
X94000000Y-35900000D03*
%TO.P,SW6,2,2*%
%TO.N,gnd*%
X99000000Y-33800000D03*
X89000000Y-33800000D03*
%TD*%
%TO.P,SW8,1,1*%
%TO.N,Switch6*%
X22000000Y-63900000D03*
%TO.P,SW8,2,2*%
%TO.N,gnd*%
X27000000Y-61800000D03*
X17000000Y-61800000D03*
%TD*%
%TO.P,SW9,1,1*%
%TO.N,Switch7*%
X40000000Y-51874000D03*
%TO.P,SW9,2,2*%
%TO.N,gnd*%
X45000000Y-49774000D03*
X35000000Y-49774000D03*
%TD*%
%TO.P,SW10,1,1*%
%TO.N,Switch8*%
X58000000Y-45016000D03*
%TO.P,SW10,2,2*%
%TO.N,gnd*%
X63000000Y-42916000D03*
X53000000Y-42916000D03*
%TD*%
%TO.P,SW11,1,1*%
%TO.N,Switch9*%
X76000000Y-50350000D03*
%TO.P,SW11,2,2*%
%TO.N,gnd*%
X71000000Y-48250000D03*
X81000000Y-48250000D03*
%TD*%
%TO.P,SW12,1,1*%
%TO.N,Switch10*%
X93980000Y-52890000D03*
%TO.P,SW12,2,2*%
%TO.N,gnd*%
X98980000Y-50790000D03*
X88980000Y-50790000D03*
%TD*%
%TO.P,SW14,1,1*%
%TO.N,Switch11*%
X22000000Y-80900000D03*
%TO.P,SW14,2,2*%
%TO.N,gnd*%
X17000000Y-78800000D03*
X27000000Y-78800000D03*
%TD*%
%TO.P,SW15,1,1*%
%TO.N,Switch12*%
X40000000Y-68892000D03*
%TO.P,SW15,2,2*%
%TO.N,gnd*%
X45000000Y-66792000D03*
X35000000Y-66792000D03*
%TD*%
%TO.P,SW16,1,1*%
%TO.N,Switch13*%
X58000000Y-62034000D03*
%TO.P,SW16,2,2*%
%TO.N,gnd*%
X63000000Y-59934000D03*
X53000000Y-59934000D03*
%TD*%
%TO.P,SW17,1,1*%
%TO.N,Switch14*%
X76000000Y-67368000D03*
%TO.P,SW17,2,2*%
%TO.N,gnd*%
X81000000Y-65268000D03*
X71000000Y-65268000D03*
%TD*%
%TO.P,SW18,1,1*%
%TO.N,Switch15*%
X93980000Y-69908000D03*
%TO.P,SW18,2,2*%
%TO.N,gnd*%
X88980000Y-67808000D03*
X98980000Y-67808000D03*
%TD*%
%TO.P,SW20,1,1*%
%TO.N,Switch16*%
X107226000Y-84590450D03*
%TO.P,SW20,2,2*%
%TO.N,gnd*%
X110506127Y-88909103D03*
X101845873Y-83909103D03*
%TD*%
%TO.P,SW21,1,1*%
%TO.N,Switch17*%
X87243032Y-76251038D03*
%TO.P,SW21,2,2*%
%TO.N,gnd*%
X91529142Y-79573577D03*
X81869883Y-76985387D03*
%TD*%
D13*
%TO.P,REF\u002A\u002A,1*%
%TO.N,N/C*%
X67500000Y-56950000D03*
X48450000Y-37900000D03*
X86550000Y-37900000D03*
X67500000Y-18850000D03*
%TD*%
D14*
%TO.P,U2,1,TX0/PD3*%
%TO.N,Switch10*%
X105630000Y-41816750D03*
D15*
%TO.P,U2,2,RX1/PD2*%
%TO.N,data*%
X105630000Y-44356750D03*
%TO.P,U2,3,GND*%
%TO.N,gnd*%
X105630000Y-46896750D03*
%TO.P,U2,4,GND*%
X105630000Y-49436750D03*
%TO.P,U2,5,2/PD1*%
%TO.N,Switch11*%
X105630000Y-51976750D03*
%TO.P,U2,6,3/PD0*%
%TO.N,Switch12*%
X105630000Y-54516750D03*
%TO.P,U2,7,4/PD4*%
%TO.N,Switch13*%
X105630000Y-57056750D03*
%TO.P,U2,8,5/PC6*%
%TO.N,Switch14*%
X105630000Y-59596750D03*
%TO.P,U2,9,6/PD7*%
%TO.N,Switch1*%
X105630000Y-62136750D03*
%TO.P,U2,10,7/PE6*%
%TO.N,Switch15*%
X105630000Y-64676750D03*
%TO.P,U2,11,8/PB4*%
%TO.N,Switch16*%
X105630000Y-67216750D03*
%TO.P,U2,12,9/PB5*%
%TO.N,Switch17*%
X105858600Y-69756750D03*
%TO.P,U2,13,10/PB6*%
%TO.N,Switch9*%
X120870000Y-69756750D03*
%TO.P,U2,14,16/PB2*%
%TO.N,Switch8*%
X120870000Y-67216750D03*
%TO.P,U2,15,14/PB3*%
%TO.N,Switch7*%
X120870000Y-64676750D03*
%TO.P,U2,16,15/PB1*%
%TO.N,Switch6*%
X120870000Y-62136750D03*
%TO.P,U2,17,A0/PF7*%
%TO.N,Switch2*%
X120870000Y-59596750D03*
%TO.P,U2,18,A1/PF6*%
%TO.N,Switch3*%
X120870000Y-57056750D03*
%TO.P,U2,19,A2/PF5*%
%TO.N,Switch4*%
X120870000Y-54516750D03*
%TO.P,U2,20,A3/PF4*%
%TO.N,Switch5*%
X120870000Y-51976750D03*
%TO.P,U2,21,VCC*%
%TO.N,vcc*%
X120870000Y-49436750D03*
%TO.P,U2,22,RST*%
%TO.N,reset*%
X120870000Y-46896750D03*
%TO.P,U2,23,GND*%
%TO.N,gnd*%
X120870000Y-44356750D03*
%TO.P,U2,24,B0*%
%TO.N,raw*%
X120870000Y-41816750D03*
%TO.P,U2,25,B7*%
%TO.N,Switch18*%
X108170000Y-69756750D03*
%TO.P,U2,26,D5*%
%TO.N,unconnected-(U2-Pad26)*%
X110710000Y-69756750D03*
%TO.P,U2,27,C7*%
%TO.N,unconnected-(U2-Pad27)*%
X113250000Y-69756750D03*
%TO.P,U2,28,F1*%
%TO.N,unconnected-(U2-Pad28)*%
X115790000Y-69756750D03*
%TO.P,U2,29,F0*%
%TO.N,unconnected-(U2-Pad29)*%
X118330000Y-69756750D03*
%TD*%
D12*
%TO.P,SW1,1,1*%
%TO.N,Switch18*%
X67114219Y-72672451D03*
%TO.P,SW1,2,2*%
%TO.N,gnd*%
X61950218Y-74328681D03*
X71912165Y-75200239D03*
%TD*%
D10*
%TO.P,J1,1,SLEEVE*%
%TO.N,gnd*%
X107300000Y-79950000D03*
%TO.P,J1,2,TIP*%
X108400000Y-75350000D03*
%TO.P,J1,3,RING1*%
%TO.N,data*%
X112400000Y-75350000D03*
%TO.P,J1,4,RING2*%
%TO.N,vcc*%
X115400000Y-75350000D03*
%TD*%
D16*
%TO.N,gnd*%
X114100000Y-42050000D03*
X99140769Y-38159231D03*
X97100000Y-42850000D03*
%TO.N,vcc*%
X106850000Y-76950000D03*
X115398000Y-77552000D03*
X103050000Y-76550000D03*
%TO.N,Switch18*%
X95250000Y-72450000D03*
X99850000Y-71450000D03*
%TO.N,reset*%
X101000000Y-38750000D03*
X118500000Y-46750000D03*
%TO.N,Switch1*%
X99822000Y-43942000D03*
X103378000Y-43688000D03*
X103124000Y-49022000D03*
%TO.N,Switch8*%
X115800000Y-68000000D03*
X119300000Y-63500000D03*
X115900000Y-64750000D03*
%TO.N,Switch9*%
X100450000Y-60150000D03*
X101700000Y-80250000D03*
%TO.N,Switch11*%
X109400000Y-51950000D03*
X109400000Y-72950000D03*
%TO.N,Switch12*%
X110450000Y-72350000D03*
X112000000Y-54500000D03*
%TO.N,Switch13*%
X118400000Y-55900000D03*
X119550000Y-72850000D03*
%TO.N,Switch14*%
X117050000Y-72950000D03*
X117050000Y-59600000D03*
%TO.N,Switch15*%
X114500000Y-72900000D03*
X114500000Y-64700000D03*
%TO.N,Switch17*%
X104450000Y-79500000D03*
%TO.N,data*%
X105400000Y-75133793D03*
X101600000Y-73650000D03*
%TD*%
D17*
%TO.N,gnd*%
X35000000Y-70800000D02*
X35000000Y-66792000D01*
X30008000Y-61800000D02*
X35000000Y-66792000D01*
X63000000Y-59934000D02*
X65084000Y-59934000D01*
X97100000Y-42850000D02*
X97100000Y-40200000D01*
X107300000Y-79950000D02*
X105804976Y-79950000D01*
X63000000Y-25800000D02*
X64700000Y-25800000D01*
X69650000Y-46900000D02*
X71000000Y-48250000D01*
X94100000Y-73800000D02*
X92600000Y-73800000D01*
X68550000Y-63400000D02*
X69132000Y-63400000D01*
X71000000Y-65268000D02*
X81000000Y-65268000D01*
X71000000Y-48250000D02*
X81000000Y-48250000D01*
X45000000Y-32800000D02*
X52000000Y-25800000D01*
X91750000Y-51700000D02*
X90840000Y-50790000D01*
X94970000Y-54800000D02*
X92650000Y-54800000D01*
X90840000Y-50790000D02*
X88980000Y-50790000D01*
X27000000Y-44800000D02*
X29100000Y-44800000D01*
X29100000Y-44800000D02*
X33050000Y-48750000D01*
X71912165Y-66180165D02*
X71000000Y-65268000D01*
X17000000Y-44800000D02*
X27000000Y-44800000D01*
X35000000Y-66792000D02*
X45000000Y-66792000D01*
X110506127Y-88909103D02*
X110506127Y-82058127D01*
X110476750Y-42050000D02*
X114100000Y-42050000D01*
X101845873Y-83909103D02*
X97450000Y-79513230D01*
X71040607Y-74328681D02*
X71912165Y-75200239D01*
X81000000Y-31300000D02*
X86500000Y-31300000D01*
X110506127Y-82058127D02*
X108418000Y-79970000D01*
X86440000Y-48250000D02*
X88980000Y-50790000D01*
X97450000Y-77150000D02*
X94100000Y-73800000D01*
X98980000Y-50790000D02*
X94970000Y-54800000D01*
X71000000Y-31300000D02*
X81000000Y-31300000D01*
X105630000Y-46896750D02*
X110476750Y-42050000D01*
X17000000Y-78800000D02*
X27000000Y-78800000D01*
X81000000Y-48250000D02*
X86440000Y-48250000D01*
X64700000Y-25800000D02*
X70200000Y-31300000D01*
X33976000Y-48750000D02*
X35000000Y-49774000D01*
X105804976Y-79950000D02*
X101845873Y-83909103D01*
X52000000Y-25800000D02*
X53000000Y-25800000D01*
X97450000Y-79513230D02*
X97450000Y-77150000D01*
X107300000Y-79950000D02*
X105800000Y-78450000D01*
X70200000Y-31300000D02*
X71000000Y-31300000D01*
X88980000Y-70180000D02*
X88980000Y-67808000D01*
X45000000Y-49774000D02*
X51858000Y-42916000D01*
X80084735Y-75200239D02*
X81869883Y-76985387D01*
X68700000Y-46900000D02*
X69650000Y-46900000D01*
X84458073Y-79573577D02*
X91529142Y-79573577D01*
X45000000Y-49774000D02*
X48800000Y-53574000D01*
X53000000Y-59934000D02*
X63000000Y-59934000D01*
X64716000Y-42916000D02*
X68700000Y-46900000D01*
X61950218Y-74328681D02*
X71040607Y-74328681D01*
X105800000Y-76888000D02*
X107318000Y-75370000D01*
X53000000Y-25800000D02*
X63000000Y-25800000D01*
X69132000Y-63400000D02*
X71000000Y-65268000D01*
X81000000Y-65268000D02*
X86440000Y-65268000D01*
X88980000Y-67808000D02*
X98980000Y-67808000D01*
X17000000Y-61800000D02*
X27000000Y-61800000D01*
X92600000Y-73800000D02*
X88980000Y-70180000D01*
X81869883Y-76985387D02*
X84458073Y-79573577D01*
X65084000Y-59934000D02*
X68550000Y-63400000D01*
X105800000Y-78450000D02*
X105800000Y-76888000D01*
X99000000Y-33800000D02*
X99000000Y-38018462D01*
X105630000Y-46896750D02*
X105630000Y-49436750D01*
X97100000Y-40200000D02*
X99140769Y-38159231D01*
X99000000Y-38018462D02*
X99140769Y-38159231D01*
X53000000Y-42916000D02*
X63000000Y-42916000D01*
X86500000Y-31300000D02*
X89000000Y-33800000D01*
X91750000Y-53900000D02*
X91750000Y-51700000D01*
X33050000Y-48750000D02*
X33976000Y-48750000D01*
X51858000Y-42916000D02*
X53000000Y-42916000D01*
X51858000Y-59934000D02*
X53000000Y-59934000D01*
X48800000Y-53574000D02*
X48800000Y-55734000D01*
X92650000Y-54800000D02*
X91750000Y-53900000D01*
X35000000Y-32800000D02*
X45000000Y-32800000D01*
X63000000Y-42916000D02*
X64716000Y-42916000D01*
X45000000Y-66792000D02*
X51858000Y-59934000D01*
X86440000Y-65268000D02*
X88980000Y-67808000D01*
X48800000Y-55734000D02*
X53000000Y-59934000D01*
X71912165Y-75200239D02*
X71912165Y-66180165D01*
X27000000Y-61800000D02*
X30008000Y-61800000D01*
X71912165Y-75200239D02*
X80084735Y-75200239D01*
X89000000Y-33800000D02*
X99000000Y-33800000D01*
X27000000Y-78800000D02*
X35000000Y-70800000D01*
X35000000Y-49774000D02*
X45000000Y-49774000D01*
%TO.N,vcc*%
X107800000Y-56100000D02*
X107800000Y-67550000D01*
X109250000Y-76800000D02*
X110550000Y-76800000D01*
X120870000Y-49436750D02*
X108863250Y-49436750D01*
X111302000Y-77552000D02*
X115398000Y-77552000D01*
X110550000Y-76800000D02*
X111302000Y-77552000D01*
X108200000Y-50100000D02*
X107800000Y-50500000D01*
X109174521Y-76875479D02*
X109250000Y-76800000D01*
X107800000Y-67550000D02*
X107100000Y-68250000D01*
X104950000Y-68450000D02*
X103700000Y-69700000D01*
X108863250Y-49436750D02*
X108200000Y-50100000D01*
X105750000Y-68450000D02*
X104950000Y-68450000D01*
X107100000Y-68250000D02*
X106900000Y-68450000D01*
X103050000Y-70350000D02*
X103050000Y-76550000D01*
X103700000Y-69700000D02*
X103050000Y-70350000D01*
X115398000Y-79950000D02*
X115418000Y-79970000D01*
X107800000Y-50500000D02*
X107800000Y-56100000D01*
X106900000Y-68450000D02*
X105750000Y-68450000D01*
X106850000Y-76950000D02*
X106924521Y-76875479D01*
X106924521Y-76875479D02*
X109174521Y-76875479D01*
%TO.N,Switch18*%
X95250000Y-72450000D02*
X98850000Y-72450000D01*
X98850000Y-72450000D02*
X99850000Y-71450000D01*
%TO.N,reset*%
X102200000Y-39950000D02*
X104700000Y-39950000D01*
X104700000Y-39950000D02*
X113700000Y-39950000D01*
X113700000Y-39950000D02*
X116200000Y-42450000D01*
X118500000Y-44750000D02*
X118500000Y-46750000D01*
X101000000Y-38750000D02*
X102200000Y-39950000D01*
X116200000Y-42450000D02*
X118500000Y-44750000D01*
%TO.N,Switch1*%
X104636750Y-62136750D02*
X105630000Y-62136750D01*
X103124000Y-43942000D02*
X103378000Y-43688000D01*
X103124000Y-49022000D02*
X103124000Y-60624000D01*
X99822000Y-43942000D02*
X103124000Y-43942000D01*
X103124000Y-60624000D02*
X104636750Y-62136750D01*
%TO.N,Switch8*%
X115800000Y-64850000D02*
X115900000Y-64750000D01*
X115800000Y-68000000D02*
X115800000Y-64850000D01*
X119300000Y-65646750D02*
X120870000Y-67216750D01*
X119300000Y-63500000D02*
X119300000Y-65646750D01*
%TO.N,Switch9*%
X101700000Y-80250000D02*
X101700000Y-75600000D01*
X100850000Y-62950000D02*
X100650000Y-62750000D01*
X100650000Y-74550000D02*
X100650000Y-73000000D01*
X101550000Y-75450000D02*
X100650000Y-74550000D01*
X100850000Y-64800000D02*
X100850000Y-62950000D01*
X100650000Y-73000000D02*
X100650000Y-65000000D01*
X100450000Y-62550000D02*
X100450000Y-60150000D01*
X100650000Y-62750000D02*
X100450000Y-62550000D01*
X101700000Y-75600000D02*
X101550000Y-75450000D01*
X100650000Y-65000000D02*
X100850000Y-64800000D01*
%TO.N,Switch10*%
X104150000Y-44600000D02*
X104150000Y-43296750D01*
X99728000Y-49022000D02*
X104150000Y-44600000D01*
X97848000Y-49022000D02*
X99728000Y-49022000D01*
X93980000Y-52890000D02*
X95279000Y-51591000D01*
X95279000Y-51591000D02*
X95633001Y-51236999D01*
X104150000Y-43296750D02*
X105630000Y-41816750D01*
X95279000Y-51591000D02*
X97848000Y-49022000D01*
%TO.N,Switch11*%
X109400000Y-72950000D02*
X109400000Y-51950000D01*
%TO.N,Switch12*%
X112000000Y-70800000D02*
X112000000Y-70150000D01*
X110450000Y-72350000D02*
X112000000Y-70800000D01*
X112000000Y-70150000D02*
X112000000Y-54500000D01*
%TO.N,Switch13*%
X118400000Y-67100000D02*
X118400000Y-55900000D01*
X119550000Y-71950000D02*
X119550000Y-68250000D01*
X119550000Y-71950000D02*
X119550000Y-72850000D01*
X119550000Y-68250000D02*
X118850000Y-67550000D01*
X118850000Y-67550000D02*
X118400000Y-67100000D01*
%TO.N,Switch14*%
X117050000Y-72950000D02*
X117050000Y-59600000D01*
%TO.N,Switch15*%
X114500000Y-72900000D02*
X114500000Y-64700000D01*
%TO.N,Switch17*%
X105858600Y-72891400D02*
X105000000Y-73750000D01*
X104450000Y-74300000D02*
X104450000Y-75350000D01*
X105000000Y-73750000D02*
X104450000Y-74300000D01*
X105858600Y-69756750D02*
X105858600Y-72891400D01*
X104450000Y-75350000D02*
X104450000Y-79500000D01*
%TO.N,data*%
X101600000Y-68072000D02*
X101600000Y-67818000D01*
X101600000Y-68072000D02*
X101600000Y-48386750D01*
X101600000Y-48386750D02*
X105630000Y-44356750D01*
X105400000Y-75133793D02*
X105400000Y-75062022D01*
X101600000Y-70950762D02*
X101600000Y-73650000D01*
X101600000Y-70950762D02*
X101600000Y-68072000D01*
X105400000Y-75062022D02*
X106281011Y-74181011D01*
X111239011Y-74181011D02*
X106281011Y-74181011D01*
X112398000Y-75340000D02*
X111239011Y-74181011D01*
%TD*%
M02*
