M48
; DRILL file {KiCad (6.0.0)} date Sat Mar 12 15:50:14 2022
; FORMAT={-:-/ absolute / inch / decimal}
; #@! TF.CreationDate,2022-03-12T15:50:14-08:00
; #@! TF.GenerationSoftware,Kicad,Pcbnew,(6.0.0)
; #@! TF.FileFunction,NonPlated,1,2,NPTH
FMAT,2
INCH
; #@! TA.AperFunction,NonPlated,NPTH,ComponentDrill
T1C0.0315
; #@! TA.AperFunction,NonPlated,NPTH,ComponentDrill
T2C0.0472
; #@! TA.AperFunction,NonPlated,NPTH,ComponentDrill
T3C0.0669
; #@! TA.AperFunction,NonPlated,NPTH,ComponentDrill
T4C0.1339
%
G90
G05
T1
X4.3307Y-3.0571
X4.3314Y-3.0579
X4.6063Y-3.0571
X4.607Y-3.0579
T2
X2.8868Y-0.6241
T3
X0.6496Y-1.6142
X0.6496Y-2.2835
X0.6496Y-2.9528
X1.0827Y-1.6142
X1.0827Y-2.2835
X1.0827Y-2.9528
X1.3583Y-1.1417
X1.3583Y-1.81
X1.3583Y-2.48
X1.7913Y-1.1417
X1.7913Y-1.81
X1.7913Y-2.48
X2.0669Y-0.8661
X2.0669Y-1.54
X2.0669Y-2.21
X2.4063Y-3.0736
X2.5Y-0.8661
X2.5Y-1.54
X2.5Y-2.21
X2.7756Y-1.0827
X2.7756Y-1.75
X2.7756Y-2.42
X2.8378Y-3.1114
X3.1655Y-3.1703
X3.2087Y-1.0827
X3.2087Y-1.75
X3.2087Y-2.42
X3.4835Y-1.85
X3.4835Y-2.52
X3.4843Y-1.1811
X3.5838Y-3.2824
X3.9165Y-1.85
X3.9165Y-2.52
X3.9173Y-1.1811
X3.9178Y-3.4232
X4.2929Y-3.6398
T4
X0.8661Y-1.6142
X0.8661Y-2.2835
X0.8661Y-2.9528
X1.5748Y-1.1417
X1.5748Y-1.81
X1.5748Y-2.48
X2.2835Y-0.8661
X2.2835Y-1.54
X2.2835Y-2.21
X2.622Y-3.0925
X2.9921Y-1.0827
X2.9921Y-1.75
X2.9921Y-2.42
X3.3746Y-3.2264
X3.7Y-1.85
X3.7Y-2.52
X3.7008Y-1.1811
X4.1054Y-3.5315
T0
M30
