M48
; DRILL file {KiCad (6.0.0)} date Mon Mar 14 02:06:47 2022
; FORMAT={-:-/ absolute / inch / decimal}
; #@! TF.CreationDate,2022-03-14T02:06:47-07:00
; #@! TF.GenerationSoftware,Kicad,Pcbnew,(6.0.0)
; #@! TF.FileFunction,NonPlated,1,2,NPTH
FMAT,2
INCH
; #@! TA.AperFunction,NonPlated,NPTH,ComponentDrill
T1C0.0315
; #@! TA.AperFunction,NonPlated,NPTH,ComponentDrill
T2C0.0472
; #@! TA.AperFunction,NonPlated,NPTH,ComponentDrill
T3C0.0669
; #@! TA.AperFunction,NonPlated,NPTH,ComponentDrill
T4C0.1339
%
G90
G05
T1
X4.389Y-2.8619
X4.3897Y-2.8627
X4.6646Y-2.8619
X4.6653Y-2.8627
T2
X2.9471Y-0.5589
T3
X0.6508Y-1.608
X0.6508Y-2.2773
X0.6508Y-2.9466
X1.0839Y-1.608
X1.0839Y-2.2773
X1.0839Y-2.9466
X1.3595Y-1.1355
X1.3595Y-2.4738
X1.3595Y-1.8038
X1.7925Y-1.1355
X1.7925Y-2.4738
X1.7925Y-1.8038
X2.0681Y-2.2038
X2.0681Y-0.8599
X2.0681Y-1.5338
X2.5012Y-2.2038
X2.5012Y-0.8599
X2.5012Y-1.5338
X2.7402Y-3.1363
X2.7768Y-1.7438
X2.7768Y-2.4138
X2.7768Y-1.0765
X3.1716Y-3.1741
X3.2099Y-1.7438
X3.2099Y-2.4138
X3.2099Y-1.0765
X3.4847Y-1.8438
X3.4847Y-2.5138
X3.4854Y-1.1749
X3.5046Y-3.233
X3.9177Y-1.8438
X3.9177Y-2.5138
X3.9185Y-1.1749
X3.9229Y-3.3451
X4.242Y-3.4613
X4.6344Y-3.6444
T4
X0.8673Y-1.608
X0.8673Y-2.2773
X0.8673Y-2.9466
X1.576Y-1.1355
X1.576Y-2.4738
X1.576Y-1.8038
X2.2847Y-2.2038
X2.2847Y-0.8599
X2.2847Y-1.5338
X2.9559Y-3.1552
X2.9933Y-1.7438
X2.9933Y-2.4138
X2.9933Y-1.0765
X3.7012Y-1.8438
X3.7012Y-2.5138
X3.702Y-1.1749
X3.7138Y-3.2891
X4.4382Y-3.5529
T0
M30
