M48
; DRILL file {KiCad (6.0.0)} date Thu Jun 16 08:24:21 2022
; FORMAT={-:-/ absolute / inch / decimal}
; #@! TF.CreationDate,2022-06-16T08:24:21-07:00
; #@! TF.GenerationSoftware,Kicad,Pcbnew,(6.0.0)
; #@! TF.FileFunction,NonPlated,1,2,NPTH
FMAT,2
INCH
; #@! TA.AperFunction,NonPlated,NPTH,ComponentDrill
T1C0.0315
; #@! TA.AperFunction,NonPlated,NPTH,ComponentDrill
T2C0.0472
; #@! TA.AperFunction,NonPlated,NPTH,ComponentDrill
T3C0.0669
; #@! TA.AperFunction,NonPlated,NPTH,ComponentDrill
T4C0.1339
%
G90
G05
T1
X4.4021Y-2.8726
X4.4028Y-2.8734
X4.6777Y-2.8726
X4.6784Y-2.8734
T2
X2.9602Y-0.5695
T3
X0.6639Y-1.6186
X0.6639Y-2.2879
X0.6639Y-2.9572
X1.097Y-1.6186
X1.097Y-2.2879
X1.097Y-2.9572
X1.3726Y-1.1462
X1.3726Y-1.8145
X1.3726Y-2.4845
X1.8057Y-1.1462
X1.8057Y-1.8145
X1.8057Y-2.4845
X2.0812Y-2.2145
X2.0812Y-0.8706
X2.0812Y-1.5445
X2.5143Y-2.2145
X2.5143Y-0.8706
X2.5143Y-1.5445
X2.7533Y-3.147
X2.7899Y-1.0871
X2.7899Y-1.7545
X2.7899Y-2.4245
X3.1848Y-3.1847
X3.223Y-1.0871
X3.223Y-1.7545
X3.223Y-2.4245
X3.4978Y-1.8545
X3.4978Y-2.5245
X3.4986Y-1.1856
X3.5178Y-3.2437
X3.9309Y-1.8545
X3.9309Y-2.5245
X3.9316Y-1.1856
X3.9361Y-3.3558
X4.3598Y-3.7598
X4.5428Y-3.3673
T4
X0.8805Y-1.6186
X0.8805Y-2.2879
X0.8805Y-2.9572
X1.5891Y-1.1462
X1.5891Y-1.8145
X1.5891Y-2.4845
X2.2978Y-2.2145
X2.2978Y-0.8706
X2.2978Y-1.5445
X2.969Y-3.1659
X3.0064Y-1.0871
X3.0064Y-1.7545
X3.0064Y-2.4245
X3.7143Y-1.8545
X3.7143Y-2.5245
X3.7151Y-1.1856
X3.7269Y-3.2997
X4.4513Y-3.5635
T0
M30
