%TF.GenerationSoftware,KiCad,Pcbnew,(6.0.0)*%
%TF.CreationDate,2022-04-18T13:44:49-07:00*%
%TF.ProjectId,half-swept,68616c66-2d73-4776-9570-742e6b696361,rev?*%
%TF.SameCoordinates,Original*%
%TF.FileFunction,Soldermask,Top*%
%TF.FilePolarity,Negative*%
%FSLAX46Y46*%
G04 Gerber Fmt 4.6, Leading zero omitted, Abs format (unit mm)*
G04 Created by KiCad (PCBNEW (6.0.0)) date 2022-04-18 13:44:49*
%MOMM*%
%LPD*%
G01*
G04 APERTURE LIST*
G04 Aperture macros list*
%AMRoundRect*
0 Rectangle with rounded corners*
0 $1 Rounding radius*
0 $2 $3 $4 $5 $6 $7 $8 $9 X,Y pos of 4 corners*
0 Add a 4 corners polygon primitive as box body*
4,1,4,$2,$3,$4,$5,$6,$7,$8,$9,$2,$3,0*
0 Add four circle primitives for the rounded corners*
1,1,$1+$1,$2,$3*
1,1,$1+$1,$4,$5*
1,1,$1+$1,$6,$7*
1,1,$1+$1,$8,$9*
0 Add four rect primitives between the rounded corners*
20,1,$1+$1,$2,$3,$4,$5,0*
20,1,$1+$1,$4,$5,$6,$7,0*
20,1,$1+$1,$6,$7,$8,$9,0*
20,1,$1+$1,$8,$9,$2,$3,0*%
G04 Aperture macros list end*
%ADD10C,5.000000*%
%ADD11C,1.701800*%
%ADD12C,1.750000*%
%ADD13C,0.800000*%
%ADD14O,2.000000X1.600000*%
%ADD15C,1.200000*%
%ADD16C,4.400000*%
%ADD17R,1.752600X1.752600*%
%ADD18C,1.752600*%
%ADD19RoundRect,0.082000X-0.718000X0.328000X-0.718000X-0.328000X0.718000X-0.328000X0.718000X0.328000X0*%
%ADD20RoundRect,0.082000X-0.686681X0.389330X-0.743855X-0.264174X0.686681X-0.389330X0.743855X0.264174X0*%
%ADD21C,1.397000*%
%ADD22RoundRect,0.082000X-0.608642X0.502656X-0.778427X-0.130992X0.608642X-0.502656X0.778427X0.130992X0*%
%ADD23RoundRect,0.082000X-0.512110X0.600709X-0.789348X0.006171X0.512110X-0.600709X0.789348X-0.006171X0*%
G04 APERTURE END LIST*
D10*
%TO.C,SW21*%
X94730582Y-83912372D03*
D11*
X100043174Y-85335877D03*
X89417990Y-82488867D03*
D12*
X90730965Y-88793516D03*
X95753780Y-90139375D03*
X93203550Y-89611334D03*
X88917440Y-86288795D03*
X89264059Y-87313420D03*
X98576699Y-88876985D03*
X97764206Y-89591027D03*
%TD*%
D10*
%TO.C,SW20*%
X113130585Y-90612373D03*
D11*
X118115278Y-92936773D03*
X108145892Y-88287973D03*
D12*
X108344130Y-94724835D03*
X113056930Y-96922450D03*
X110637137Y-95959589D03*
X106993097Y-91943251D03*
X107156525Y-93012499D03*
X116056175Y-96169434D03*
X115132033Y-96731540D03*
%TD*%
D10*
%TO.C,SW18*%
X94410583Y-64220374D03*
D11*
X99910583Y-64220374D03*
X88910583Y-64220374D03*
D12*
X91810583Y-69970374D03*
X97010583Y-69970374D03*
X94410583Y-70120374D03*
X89410583Y-68020374D03*
X90010583Y-68920374D03*
X99410583Y-68020374D03*
X98810583Y-68920374D03*
%TD*%
D10*
%TO.C,SW17*%
X76430582Y-61680375D03*
D11*
X81930582Y-61680375D03*
X70930582Y-61680375D03*
D12*
X73830582Y-67430375D03*
X79030582Y-67430375D03*
X76430582Y-67580375D03*
X71430582Y-65480375D03*
X72030582Y-66380375D03*
X81430582Y-65480375D03*
X80830582Y-66380375D03*
%TD*%
D10*
%TO.C,SW16*%
X58430581Y-56346374D03*
D11*
X63930581Y-56346374D03*
X52930581Y-56346374D03*
D12*
X55830581Y-62096374D03*
X61030581Y-62096374D03*
X58430581Y-62246374D03*
X53430581Y-60146374D03*
X54030581Y-61046374D03*
X63430581Y-60146374D03*
X62830581Y-61046374D03*
%TD*%
D10*
%TO.C,SW15*%
X40430584Y-63204374D03*
D11*
X45930584Y-63204374D03*
X34930584Y-63204374D03*
D12*
X37830584Y-68954374D03*
X43030584Y-68954374D03*
X40430584Y-69104374D03*
X35430584Y-67004374D03*
X36030584Y-67904374D03*
X45430584Y-67004374D03*
X44830584Y-67904374D03*
%TD*%
D10*
%TO.C,SW14*%
X22430583Y-75212374D03*
D11*
X27930583Y-75212374D03*
X16930583Y-75212374D03*
D12*
X19830583Y-80962374D03*
X25030583Y-80962374D03*
X22430583Y-81112374D03*
X17430583Y-79012374D03*
X18030583Y-79912374D03*
X27430583Y-79012374D03*
X26830583Y-79912374D03*
%TD*%
D10*
%TO.C,SW12*%
X94410582Y-47202375D03*
D11*
X99910582Y-47202375D03*
X88910582Y-47202375D03*
D12*
X91810582Y-52952375D03*
X97010582Y-52952375D03*
X94410582Y-53102375D03*
X89410582Y-51002375D03*
X90010582Y-51902375D03*
X99410582Y-51002375D03*
X98810582Y-51902375D03*
%TD*%
D10*
%TO.C,SW11*%
X76430583Y-44662376D03*
D11*
X81930583Y-44662376D03*
X70930583Y-44662376D03*
D12*
X73830583Y-50412376D03*
X79030583Y-50412376D03*
X76430583Y-50562376D03*
X71430583Y-48462376D03*
X72030583Y-49362376D03*
X81430583Y-48462376D03*
X80830583Y-49362376D03*
%TD*%
D10*
%TO.C,SW10*%
X58430583Y-39328373D03*
D11*
X63930583Y-39328373D03*
X52930583Y-39328373D03*
D12*
X55830583Y-45078373D03*
X61030583Y-45078373D03*
X58430583Y-45228373D03*
X53430583Y-43128373D03*
X54030583Y-44028373D03*
X63430583Y-43128373D03*
X62830583Y-44028373D03*
%TD*%
D10*
%TO.C,SW9*%
X40430584Y-46186374D03*
D11*
X45930584Y-46186374D03*
X34930584Y-46186374D03*
D12*
X37830584Y-51936374D03*
X43030584Y-51936374D03*
X40430584Y-52086374D03*
X35430584Y-49986374D03*
X36030584Y-50886374D03*
X45430584Y-49986374D03*
X44830584Y-50886374D03*
%TD*%
D10*
%TO.C,SW8*%
X22430582Y-58212374D03*
D11*
X27930582Y-58212374D03*
X16930582Y-58212374D03*
D12*
X19830582Y-63962374D03*
X25030582Y-63962374D03*
X22430582Y-64112374D03*
X17430582Y-62012374D03*
X18030582Y-62912374D03*
X27430582Y-62012374D03*
X26830582Y-62912374D03*
%TD*%
D10*
%TO.C,SW6*%
X94430581Y-30212375D03*
D11*
X99930581Y-30212375D03*
X88930581Y-30212375D03*
D12*
X91830581Y-35962375D03*
X97030581Y-35962375D03*
X94430581Y-36112375D03*
X89430581Y-34012375D03*
X90030581Y-34912375D03*
X99430581Y-34012375D03*
X98830581Y-34912375D03*
%TD*%
D10*
%TO.C,SW5*%
X76430583Y-27712373D03*
D11*
X81930583Y-27712373D03*
X70930583Y-27712373D03*
D12*
X73830583Y-33462373D03*
X79030583Y-33462373D03*
X76430583Y-33612373D03*
X71430583Y-31512373D03*
X72030583Y-32412373D03*
X81430583Y-31512373D03*
X80830583Y-32412373D03*
%TD*%
D10*
%TO.C,SW4*%
X58430583Y-22212374D03*
D11*
X63930583Y-22212374D03*
X52930583Y-22212374D03*
D12*
X55830583Y-27962374D03*
X61030583Y-27962374D03*
X58430583Y-28112374D03*
X53430583Y-26012374D03*
X54030583Y-26912374D03*
X63430583Y-26012374D03*
X62830583Y-26912374D03*
%TD*%
D10*
%TO.C,SW3*%
X40430583Y-29212374D03*
D11*
X45930583Y-29212374D03*
X34930583Y-29212374D03*
D12*
X37830583Y-34962374D03*
X43030583Y-34962374D03*
X40430583Y-35112374D03*
X35430583Y-33012374D03*
X36030583Y-33912374D03*
X45430583Y-33012374D03*
X44830583Y-33912374D03*
%TD*%
D10*
%TO.C,SW2*%
X22430582Y-41212374D03*
D11*
X27930582Y-41212374D03*
X16930582Y-41212374D03*
D12*
X19830582Y-46962374D03*
X25030582Y-46962374D03*
X22430582Y-47112374D03*
X17430582Y-45012374D03*
X18030582Y-45912374D03*
X27430582Y-45012374D03*
X26830582Y-45912374D03*
%TD*%
D10*
%TO.C,SW1*%
X75480583Y-80512371D03*
D11*
X80959654Y-80991728D03*
X70001512Y-80033014D03*
D12*
X72389331Y-86013886D03*
X77569544Y-86467095D03*
X74966364Y-86389920D03*
X70168418Y-83862132D03*
X70687694Y-84811001D03*
X80130365Y-84733690D03*
X79454208Y-85577971D03*
%TD*%
D13*
%TO.C,J2*%
X111898584Y-73082373D03*
X118898584Y-73082373D03*
D14*
X109198584Y-70782373D03*
X110298584Y-75382373D03*
X114298584Y-75382373D03*
X117298584Y-75382373D03*
%TD*%
D15*
%TO.C,RSW1*%
X75255583Y-14564874D03*
D12*
X72755583Y-15774874D03*
X77755583Y-15774874D03*
%TD*%
D16*
%TO.C,REF\u002A\u002A*%
X67930583Y-57162374D03*
X48880583Y-38112374D03*
X86980583Y-38112374D03*
X67930583Y-19062374D03*
%TD*%
D17*
%TO.C,U2*%
X105560581Y-29879125D03*
D18*
X105560581Y-32419125D03*
X105560581Y-34959125D03*
X105560581Y-37499125D03*
X105560581Y-40039125D03*
X105560581Y-42579125D03*
X105560581Y-45119125D03*
X105560581Y-47659125D03*
X105560581Y-50199125D03*
X105560581Y-52739125D03*
X105560581Y-55279125D03*
X105789181Y-57819125D03*
X120800581Y-57819125D03*
X120800581Y-55279125D03*
X120800581Y-52739125D03*
X120800581Y-50199125D03*
X120800581Y-47659125D03*
X120800581Y-45119125D03*
X120800581Y-42579125D03*
X120800581Y-40039125D03*
X120800581Y-37499125D03*
X120800581Y-34959125D03*
X120800581Y-32419125D03*
X120800581Y-29879125D03*
X108100581Y-57819125D03*
X110640581Y-57819125D03*
X113180581Y-57819125D03*
X115720581Y-57819125D03*
X118260581Y-57819125D03*
%TD*%
D19*
%TO.C,D34*%
X43030583Y-23382374D03*
X43030583Y-24882374D03*
X37830583Y-24882374D03*
X37830583Y-23382374D03*
%TD*%
%TO.C,D26*%
X55830581Y-50516374D03*
X55830581Y-52016374D03*
X61030581Y-52016374D03*
X61030581Y-50516374D03*
%TD*%
%TO.C,D31*%
X43030584Y-40356374D03*
X43030584Y-41856374D03*
X37830584Y-41856374D03*
X37830584Y-40356374D03*
%TD*%
%TO.C,D28*%
X43030584Y-57374374D03*
X43030584Y-58874374D03*
X37830584Y-58874374D03*
X37830584Y-57374374D03*
%TD*%
%TO.C,D32*%
X79030583Y-38832376D03*
X79030583Y-40332376D03*
X73830583Y-40332376D03*
X73830583Y-38832376D03*
%TD*%
%TO.C,D21*%
X97030581Y-24382375D03*
X97030581Y-25882375D03*
X91830581Y-25882375D03*
X91830581Y-24382375D03*
%TD*%
%TO.C,D19*%
X25030582Y-35382374D03*
X25030582Y-36882374D03*
X19830582Y-36882374D03*
X19830582Y-35382374D03*
%TD*%
%TO.C,D23*%
X61030583Y-33498373D03*
X61030583Y-34998373D03*
X55830583Y-34998373D03*
X55830583Y-33498373D03*
%TD*%
%TO.C,D22*%
X25030582Y-52432374D03*
X25030582Y-53932374D03*
X19830582Y-53932374D03*
X19830582Y-52432374D03*
%TD*%
%TO.C,D35*%
X79030583Y-21882373D03*
X79030583Y-23382373D03*
X73830583Y-23382373D03*
X73830583Y-21882373D03*
%TD*%
%TO.C,D25*%
X25030583Y-69382374D03*
X25030583Y-70882374D03*
X19830583Y-70882374D03*
X19830583Y-69382374D03*
%TD*%
%TO.C,D24*%
X97010582Y-41372375D03*
X97010582Y-42872375D03*
X91810582Y-42872375D03*
X91810582Y-41372375D03*
%TD*%
D20*
%TO.C,D30*%
X78578807Y-74931161D03*
X78448074Y-76425453D03*
X73267861Y-75972243D03*
X73398595Y-74477951D03*
%TD*%
D19*
%TO.C,D29*%
X79030582Y-55850375D03*
X79030582Y-57350375D03*
X73830582Y-57350375D03*
X73830582Y-55850375D03*
%TD*%
D13*
%TO.C,J1*%
X118880584Y-73062376D03*
X111880584Y-73062376D03*
D14*
X109180584Y-75362376D03*
X110280584Y-70762376D03*
X114280584Y-70762376D03*
X117280584Y-70762376D03*
%TD*%
D21*
%TO.C,OL2*%
X116790582Y-64612373D03*
X114250582Y-64612373D03*
X111710582Y-64612373D03*
X109170582Y-64612373D03*
%TD*%
D22*
%TO.C,D33*%
X98750904Y-78953954D03*
X98362676Y-80402843D03*
X93339861Y-79056984D03*
X93728090Y-77608095D03*
%TD*%
D19*
%TO.C,D20*%
X61030583Y-16382374D03*
X61030583Y-17882374D03*
X55830583Y-17882374D03*
X55830583Y-16382374D03*
%TD*%
D23*
%TO.C,D36*%
X117950850Y-86427406D03*
X117316922Y-87786868D03*
X112604122Y-85589253D03*
X113238049Y-84229791D03*
%TD*%
D19*
%TO.C,D27*%
X97010583Y-58390374D03*
X97010583Y-59890374D03*
X91810583Y-59890374D03*
X91810583Y-58390374D03*
%TD*%
M02*
