%TF.GenerationSoftware,KiCad,Pcbnew,(6.0.0)*%
%TF.CreationDate,2022-04-18T13:44:49-07:00*%
%TF.ProjectId,half-swept,68616c66-2d73-4776-9570-742e6b696361,rev?*%
%TF.SameCoordinates,Original*%
%TF.FileFunction,Profile,NP*%
%FSLAX46Y46*%
G04 Gerber Fmt 4.6, Leading zero omitted, Abs format (unit mm)*
G04 Created by KiCad (PCBNEW (6.0.0)) date 2022-04-18 13:44:49*
%MOMM*%
%LPD*%
G01*
G04 APERTURE LIST*
%TA.AperFunction,Profile*%
%ADD10C,0.050000*%
%TD*%
%TA.AperFunction,Profile*%
%ADD11C,0.100000*%
%TD*%
G04 APERTURE END LIST*
D10*
X14040637Y-32109077D02*
X14080836Y-81377398D01*
X122592581Y-27516150D02*
G75*
G03*
X122230584Y-26712376I-1044780J12865D01*
G01*
X15467582Y-30095374D02*
G75*
G03*
X14040637Y-32109077I2445014J-3245009D01*
G01*
X122230585Y-26712375D02*
G75*
G03*
X69730585Y-12562373I-52476918J-90233333D01*
G01*
X115573761Y-101246579D02*
G75*
G03*
X16118583Y-83213494I-99965886J-268055224D01*
G01*
X14080837Y-81377398D02*
G75*
G03*
X16118583Y-83213494I1977998J146413D01*
G01*
X122592583Y-27516150D02*
X122592583Y-88212374D01*
X69730585Y-12562374D02*
G75*
G03*
X15467582Y-30095374I-1656758J-87608458D01*
G01*
X122480582Y-88712373D02*
G75*
G03*
X122592583Y-88212374I-1060057J499999D01*
G01*
X115573760Y-101246580D02*
G75*
G03*
X116780584Y-100912374I439902J757542D01*
G01*
X122480581Y-88712373D02*
X116780584Y-100912374D01*
D11*
%TO.C,D12*%
X74168547Y-76003705D02*
X74291061Y-74603370D01*
X75262639Y-73888170D02*
X76845498Y-74026652D01*
X76584029Y-77015235D02*
X75001172Y-76876753D01*
X77678121Y-74899699D02*
X77555607Y-76300034D01*
X76845498Y-74026652D02*
G75*
G03*
X77102748Y-73980599I43577J498098D01*
G01*
X77746320Y-74687959D02*
G75*
G03*
X77678121Y-74899698I429880J-255312D01*
G01*
X76829376Y-77105260D02*
G75*
G03*
X77586002Y-76520399I288923J408073D01*
G01*
X74100349Y-76215445D02*
G75*
G03*
X74743920Y-76922804I429898J-255316D01*
G01*
X75017292Y-73798144D02*
G75*
G03*
X75262638Y-73888169I288928J408081D01*
G01*
X75017292Y-73798143D02*
G75*
G03*
X74260666Y-74383004I-288923J-408073D01*
G01*
X74100349Y-76215445D02*
G75*
G03*
X74168547Y-76003706I-429889J255315D01*
G01*
X77555608Y-76300034D02*
G75*
G03*
X77586002Y-76520400I498087J-43579D01*
G01*
X77746321Y-74687959D02*
G75*
G03*
X77102748Y-73980599I-429900J255316D01*
G01*
X74291060Y-74603370D02*
G75*
G03*
X74260666Y-74383004I-498086J43579D01*
G01*
X75001172Y-76876752D02*
G75*
G03*
X74743921Y-76922806I-43576J-498108D01*
G01*
X76829376Y-77105260D02*
G75*
G03*
X76584029Y-77015235I-288927J-408081D01*
G01*
%TO.C,D16*%
X38730584Y-24835216D02*
X38730584Y-23429532D01*
X42130582Y-23429532D02*
X42130582Y-24835216D01*
X39636131Y-22632375D02*
X41225036Y-22632375D01*
X41225035Y-25632374D02*
X39636131Y-25632374D01*
X39636131Y-25632374D02*
G75*
G03*
X39383873Y-25700673I3J-500009D01*
G01*
X42180067Y-23212654D02*
G75*
G03*
X42130582Y-23429531I450505J-216876D01*
G01*
X41477294Y-25700673D02*
G75*
G03*
X42180067Y-25052093I252259J431700D01*
G01*
X41225036Y-22632375D02*
G75*
G03*
X41477294Y-22564076I-3J500009D01*
G01*
X42130582Y-24835216D02*
G75*
G03*
X42180067Y-25052094I499990J-2D01*
G01*
X38681099Y-25052094D02*
G75*
G03*
X38730584Y-24835217I-450505J216876D01*
G01*
X38730584Y-23429532D02*
G75*
G03*
X38681099Y-23212654I-499990J2D01*
G01*
X39383872Y-22564075D02*
G75*
G03*
X38681099Y-23212654I-252258J-431701D01*
G01*
X42180068Y-23212654D02*
G75*
G03*
X41477294Y-22564076I-450516J216877D01*
G01*
X41477294Y-25700673D02*
G75*
G03*
X41225035Y-25632374I-252261J-431710D01*
G01*
X39383872Y-22564075D02*
G75*
G03*
X39636130Y-22632374I252261J431710D01*
G01*
X38681099Y-25052094D02*
G75*
G03*
X39383872Y-25700671I450515J-216877D01*
G01*
%TO.C,D8*%
X56730582Y-51969216D02*
X56730582Y-50563532D01*
X60130580Y-50563532D02*
X60130580Y-51969216D01*
X57636129Y-49766375D02*
X59225034Y-49766375D01*
X59225033Y-52766374D02*
X57636129Y-52766374D01*
X59477292Y-52834673D02*
G75*
G03*
X60180065Y-52186093I252259J431700D01*
G01*
X60180066Y-50346654D02*
G75*
G03*
X59477292Y-49698076I-450516J216877D01*
G01*
X57636129Y-52766374D02*
G75*
G03*
X57383871Y-52834673I3J-500009D01*
G01*
X56681097Y-52186094D02*
G75*
G03*
X57383870Y-52834671I450515J-216877D01*
G01*
X56681097Y-52186094D02*
G75*
G03*
X56730582Y-51969217I-450505J216876D01*
G01*
X57383870Y-49698075D02*
G75*
G03*
X56681097Y-50346654I-252258J-431701D01*
G01*
X60130580Y-51969216D02*
G75*
G03*
X60180065Y-52186094I499990J-2D01*
G01*
X57383870Y-49698075D02*
G75*
G03*
X57636128Y-49766374I252261J431710D01*
G01*
X59225034Y-49766375D02*
G75*
G03*
X59477292Y-49698076I-3J500009D01*
G01*
X60180065Y-50346654D02*
G75*
G03*
X60130580Y-50563531I450505J-216876D01*
G01*
X59477292Y-52834673D02*
G75*
G03*
X59225033Y-52766374I-252261J-431710D01*
G01*
X56730582Y-50563532D02*
G75*
G03*
X56681097Y-50346654I-499990J2D01*
G01*
%TO.C,D2*%
X56730584Y-17835216D02*
X56730584Y-16429532D01*
X60130582Y-16429532D02*
X60130582Y-17835216D01*
X59225035Y-18632374D02*
X57636131Y-18632374D01*
X57636131Y-15632375D02*
X59225036Y-15632375D01*
X56681099Y-18052094D02*
G75*
G03*
X57383872Y-18700671I450515J-216877D01*
G01*
X60180068Y-16212654D02*
G75*
G03*
X59477294Y-15564076I-450516J216877D01*
G01*
X59477294Y-18700673D02*
G75*
G03*
X60180067Y-18052093I252259J431700D01*
G01*
X57383872Y-15564075D02*
G75*
G03*
X57636130Y-15632374I252261J431710D01*
G01*
X59477294Y-18700673D02*
G75*
G03*
X59225035Y-18632374I-252261J-431710D01*
G01*
X59225036Y-15632375D02*
G75*
G03*
X59477294Y-15564076I-3J500009D01*
G01*
X57383872Y-15564075D02*
G75*
G03*
X56681099Y-16212654I-252258J-431701D01*
G01*
X60180067Y-16212654D02*
G75*
G03*
X60130582Y-16429531I450505J-216876D01*
G01*
X56681099Y-18052094D02*
G75*
G03*
X56730584Y-17835217I-450505J216876D01*
G01*
X57636131Y-18632374D02*
G75*
G03*
X57383873Y-18700673I3J-500009D01*
G01*
X60130582Y-17835216D02*
G75*
G03*
X60180067Y-18052094I499990J-2D01*
G01*
X56730584Y-16429532D02*
G75*
G03*
X56681099Y-16212654I-499990J2D01*
G01*
%TO.C,D15*%
X95666229Y-77350962D02*
X97200994Y-77762201D01*
X97869365Y-78766568D02*
X97505547Y-80124354D01*
X96424536Y-80659977D02*
X94889772Y-80248738D01*
X94221401Y-79244370D02*
X94585219Y-77886583D01*
X94889772Y-80248738D02*
G75*
G03*
X94628433Y-80249421I-129408J-482964D01*
G01*
X94117470Y-79441050D02*
G75*
G03*
X94221401Y-79244371I-379023J326085D01*
G01*
X94117469Y-79441050D02*
G75*
G03*
X94628432Y-80249419I379033J-326089D01*
G01*
X95440243Y-77219700D02*
G75*
G03*
X94593552Y-77664288I-355395J-351702D01*
G01*
X97973296Y-78569887D02*
G75*
G03*
X97869365Y-78766567I379014J-326081D01*
G01*
X96650522Y-80791238D02*
G75*
G03*
X96424536Y-80659977I-355404J-351716D01*
G01*
X95440244Y-77219699D02*
G75*
G03*
X95666229Y-77350960I355399J351709D01*
G01*
X97200994Y-77762200D02*
G75*
G03*
X97462333Y-77761518I129409J482964D01*
G01*
X97973296Y-78569887D02*
G75*
G03*
X97462333Y-77761518I-379033J326089D01*
G01*
X94585219Y-77886583D02*
G75*
G03*
X94593552Y-77664288I-482953J129408D01*
G01*
X96650522Y-80791238D02*
G75*
G03*
X97497214Y-80346649I355396J351701D01*
G01*
X97505546Y-80124354D02*
G75*
G03*
X97497213Y-80346650I482954J-129409D01*
G01*
%TO.C,D11*%
X74730583Y-57303217D02*
X74730583Y-55897533D01*
X75636130Y-55100376D02*
X77225035Y-55100376D01*
X78130581Y-55897533D02*
X78130581Y-57303217D01*
X77225034Y-58100375D02*
X75636130Y-58100375D01*
X75636130Y-58100375D02*
G75*
G03*
X75383872Y-58168674I3J-500009D01*
G01*
X74730583Y-55897533D02*
G75*
G03*
X74681098Y-55680655I-499990J2D01*
G01*
X77477293Y-58168674D02*
G75*
G03*
X77225034Y-58100375I-252261J-431710D01*
G01*
X78130581Y-57303217D02*
G75*
G03*
X78180066Y-57520095I499990J-2D01*
G01*
X78180066Y-55680655D02*
G75*
G03*
X78130581Y-55897532I450505J-216876D01*
G01*
X77477293Y-58168674D02*
G75*
G03*
X78180066Y-57520094I252259J431700D01*
G01*
X74681098Y-57520095D02*
G75*
G03*
X74730583Y-57303218I-450505J216876D01*
G01*
X74681098Y-57520095D02*
G75*
G03*
X75383871Y-58168672I450515J-216877D01*
G01*
X77225035Y-55100376D02*
G75*
G03*
X77477293Y-55032077I-3J500009D01*
G01*
X75383871Y-55032076D02*
G75*
G03*
X74681098Y-55680655I-252258J-431701D01*
G01*
X78180067Y-55680655D02*
G75*
G03*
X77477293Y-55032077I-450516J216877D01*
G01*
X75383871Y-55032076D02*
G75*
G03*
X75636129Y-55100375I252261J431710D01*
G01*
%TO.C,D14*%
X77225035Y-41082376D02*
X75636131Y-41082376D01*
X74730584Y-40285218D02*
X74730584Y-38879534D01*
X78130582Y-38879534D02*
X78130582Y-40285218D01*
X75636131Y-38082377D02*
X77225036Y-38082377D01*
X77225036Y-38082377D02*
G75*
G03*
X77477294Y-38014078I-3J500009D01*
G01*
X74681099Y-40502096D02*
G75*
G03*
X74730584Y-40285219I-450505J216876D01*
G01*
X74681099Y-40502096D02*
G75*
G03*
X75383872Y-41150673I450515J-216877D01*
G01*
X75383872Y-38014077D02*
G75*
G03*
X75636130Y-38082376I252261J431710D01*
G01*
X74730584Y-38879534D02*
G75*
G03*
X74681099Y-38662656I-499990J2D01*
G01*
X77477294Y-41150675D02*
G75*
G03*
X78180067Y-40502095I252259J431700D01*
G01*
X77477294Y-41150675D02*
G75*
G03*
X77225035Y-41082376I-252261J-431710D01*
G01*
X75383872Y-38014077D02*
G75*
G03*
X74681099Y-38662656I-252258J-431701D01*
G01*
X75636131Y-41082376D02*
G75*
G03*
X75383873Y-41150675I3J-500009D01*
G01*
X78180067Y-38662656D02*
G75*
G03*
X78130582Y-38879533I450505J-216876D01*
G01*
X78180068Y-38662656D02*
G75*
G03*
X77477294Y-38014078I-450516J216877D01*
G01*
X78130582Y-40285218D02*
G75*
G03*
X78180067Y-40502096I499990J-2D01*
G01*
%TO.C,D10*%
X39636132Y-56624375D02*
X41225037Y-56624375D01*
X41225036Y-59624374D02*
X39636132Y-59624374D01*
X38730585Y-58827216D02*
X38730585Y-57421532D01*
X42130583Y-57421532D02*
X42130583Y-58827216D01*
X42180068Y-57204654D02*
G75*
G03*
X42130583Y-57421531I450505J-216876D01*
G01*
X41477295Y-59692673D02*
G75*
G03*
X42180068Y-59044093I252259J431700D01*
G01*
X41477295Y-59692673D02*
G75*
G03*
X41225036Y-59624374I-252261J-431710D01*
G01*
X41225037Y-56624375D02*
G75*
G03*
X41477295Y-56556076I-3J500009D01*
G01*
X39636132Y-59624374D02*
G75*
G03*
X39383874Y-59692673I3J-500009D01*
G01*
X38681100Y-59044094D02*
G75*
G03*
X39383873Y-59692671I450515J-216877D01*
G01*
X42130583Y-58827216D02*
G75*
G03*
X42180068Y-59044094I499990J-2D01*
G01*
X39383873Y-56556075D02*
G75*
G03*
X38681100Y-57204654I-252258J-431701D01*
G01*
X38681100Y-59044094D02*
G75*
G03*
X38730585Y-58827217I-450505J216876D01*
G01*
X39383873Y-56556075D02*
G75*
G03*
X39636131Y-56624374I252261J431710D01*
G01*
X38730585Y-57421532D02*
G75*
G03*
X38681100Y-57204654I-499990J2D01*
G01*
X42180069Y-57204654D02*
G75*
G03*
X41477295Y-56556076I-450516J216877D01*
G01*
%TO.C,D1*%
X20730583Y-36835216D02*
X20730583Y-35429532D01*
X24130581Y-35429532D02*
X24130581Y-36835216D01*
X23225034Y-37632374D02*
X21636130Y-37632374D01*
X21636130Y-34632375D02*
X23225035Y-34632375D01*
X21383871Y-34564075D02*
G75*
G03*
X20681098Y-35212654I-252258J-431701D01*
G01*
X23225035Y-34632375D02*
G75*
G03*
X23477293Y-34564076I-3J500009D01*
G01*
X21636130Y-37632374D02*
G75*
G03*
X21383872Y-37700673I3J-500009D01*
G01*
X23477293Y-37700673D02*
G75*
G03*
X23225034Y-37632374I-252261J-431710D01*
G01*
X24130581Y-36835216D02*
G75*
G03*
X24180066Y-37052094I499990J-2D01*
G01*
X24180067Y-35212654D02*
G75*
G03*
X23477293Y-34564076I-450516J216877D01*
G01*
X20681098Y-37052094D02*
G75*
G03*
X21383871Y-37700671I450515J-216877D01*
G01*
X23477293Y-37700673D02*
G75*
G03*
X24180066Y-37052093I252259J431700D01*
G01*
X24180066Y-35212654D02*
G75*
G03*
X24130581Y-35429531I450505J-216876D01*
G01*
X21383871Y-34564075D02*
G75*
G03*
X21636129Y-34632374I252261J431710D01*
G01*
X20730583Y-35429532D02*
G75*
G03*
X20681098Y-35212654I-499990J2D01*
G01*
X20681098Y-37052094D02*
G75*
G03*
X20730583Y-36835217I-450505J216876D01*
G01*
%TO.C,D9*%
X93616131Y-57640375D02*
X95205036Y-57640375D01*
X92710584Y-59843216D02*
X92710584Y-58437532D01*
X95205035Y-60640374D02*
X93616131Y-60640374D01*
X96110582Y-58437532D02*
X96110582Y-59843216D01*
X93363872Y-57572075D02*
G75*
G03*
X92661099Y-58220654I-252258J-431701D01*
G01*
X96110582Y-59843216D02*
G75*
G03*
X96160067Y-60060094I499990J-2D01*
G01*
X92661099Y-60060094D02*
G75*
G03*
X92710584Y-59843217I-450505J216876D01*
G01*
X95457294Y-60708673D02*
G75*
G03*
X95205035Y-60640374I-252261J-431710D01*
G01*
X96160068Y-58220654D02*
G75*
G03*
X95457294Y-57572076I-450516J216877D01*
G01*
X92661099Y-60060094D02*
G75*
G03*
X93363872Y-60708671I450515J-216877D01*
G01*
X93616131Y-60640374D02*
G75*
G03*
X93363873Y-60708673I3J-500009D01*
G01*
X95205036Y-57640375D02*
G75*
G03*
X95457294Y-57572076I-3J500009D01*
G01*
X93363872Y-57572075D02*
G75*
G03*
X93616130Y-57640374I252261J431710D01*
G01*
X92710584Y-58437532D02*
G75*
G03*
X92661099Y-58220654I-499990J2D01*
G01*
X96160067Y-58220654D02*
G75*
G03*
X96110582Y-58437531I450505J-216876D01*
G01*
X95457294Y-60708673D02*
G75*
G03*
X96160067Y-60060093I252259J431700D01*
G01*
%TO.C,D17*%
X74730584Y-23335215D02*
X74730584Y-21929531D01*
X78130582Y-21929531D02*
X78130582Y-23335215D01*
X77225035Y-24132373D02*
X75636131Y-24132373D01*
X75636131Y-21132374D02*
X77225036Y-21132374D01*
X75383872Y-21064074D02*
G75*
G03*
X74681099Y-21712653I-252258J-431701D01*
G01*
X74730584Y-21929531D02*
G75*
G03*
X74681099Y-21712653I-499990J2D01*
G01*
X75383872Y-21064074D02*
G75*
G03*
X75636130Y-21132373I252261J431710D01*
G01*
X74681099Y-23552093D02*
G75*
G03*
X75383872Y-24200670I450515J-216877D01*
G01*
X78180067Y-21712653D02*
G75*
G03*
X78130582Y-21929530I450505J-216876D01*
G01*
X77477294Y-24200672D02*
G75*
G03*
X78180067Y-23552092I252259J431700D01*
G01*
X77477294Y-24200672D02*
G75*
G03*
X77225035Y-24132373I-252261J-431710D01*
G01*
X75636131Y-24132373D02*
G75*
G03*
X75383873Y-24200672I3J-500009D01*
G01*
X78130582Y-23335215D02*
G75*
G03*
X78180067Y-23552093I499990J-2D01*
G01*
X77225036Y-21132374D02*
G75*
G03*
X77477294Y-21064075I-3J500009D01*
G01*
X78180068Y-21712653D02*
G75*
G03*
X77477294Y-21064075I-450516J216877D01*
G01*
X74681099Y-23552093D02*
G75*
G03*
X74730584Y-23335216I-450505J216876D01*
G01*
%TO.C,D18*%
X117115242Y-86089789D02*
X116521174Y-87363771D01*
X113439730Y-85926870D02*
X114033797Y-84652888D01*
X115191395Y-84313119D02*
X116631432Y-84984619D01*
X115363576Y-87703541D02*
X113923540Y-87032041D01*
X113923540Y-87032041D02*
G75*
G03*
X113666053Y-86987332I-211308J-453155D01*
G01*
X113303224Y-86102515D02*
G75*
G03*
X113666052Y-86987330I316649J-386953D01*
G01*
X115563336Y-87872050D02*
G75*
G03*
X116474367Y-87581242I411069J284644D01*
G01*
X117251747Y-85914144D02*
G75*
G03*
X116888919Y-85029328I-316648J386954D01*
G01*
X115563336Y-87872050D02*
G75*
G03*
X115363576Y-87703541I-411074J-284652D01*
G01*
X114991636Y-84144608D02*
G75*
G03*
X115191394Y-84313117I411074J284651D01*
G01*
X114033797Y-84652888D02*
G75*
G03*
X114080605Y-84435416I-453144J211307D01*
G01*
X113303224Y-86102515D02*
G75*
G03*
X113439729Y-85926871I-316633J386942D01*
G01*
X114991635Y-84144609D02*
G75*
G03*
X114080605Y-84435416I-411068J-284645D01*
G01*
X117251747Y-85914143D02*
G75*
G03*
X117115242Y-86089788I316641J-386949D01*
G01*
X116521174Y-87363771D02*
G75*
G03*
X116474366Y-87581243I453144J-211307D01*
G01*
X116631432Y-84984619D02*
G75*
G03*
X116888919Y-85029328I211308J453155D01*
G01*
%TO.C,D4*%
X20730583Y-53885216D02*
X20730583Y-52479532D01*
X23225034Y-54682374D02*
X21636130Y-54682374D01*
X21636130Y-51682375D02*
X23225035Y-51682375D01*
X24130581Y-52479532D02*
X24130581Y-53885216D01*
X23477293Y-54750673D02*
G75*
G03*
X23225034Y-54682374I-252261J-431710D01*
G01*
X21383871Y-51614075D02*
G75*
G03*
X21636129Y-51682374I252261J431710D01*
G01*
X23477293Y-54750673D02*
G75*
G03*
X24180066Y-54102093I252259J431700D01*
G01*
X24180066Y-52262654D02*
G75*
G03*
X24130581Y-52479531I450505J-216876D01*
G01*
X21383871Y-51614075D02*
G75*
G03*
X20681098Y-52262654I-252258J-431701D01*
G01*
X24180067Y-52262654D02*
G75*
G03*
X23477293Y-51614076I-450516J216877D01*
G01*
X21636130Y-54682374D02*
G75*
G03*
X21383872Y-54750673I3J-500009D01*
G01*
X20681098Y-54102094D02*
G75*
G03*
X21383871Y-54750671I450515J-216877D01*
G01*
X23225035Y-51682375D02*
G75*
G03*
X23477293Y-51614076I-3J500009D01*
G01*
X20730583Y-52479532D02*
G75*
G03*
X20681098Y-52262654I-499990J2D01*
G01*
X20681098Y-54102094D02*
G75*
G03*
X20730583Y-53885217I-450505J216876D01*
G01*
X24130581Y-53885216D02*
G75*
G03*
X24180066Y-54102094I499990J-2D01*
G01*
%TO.C,D3*%
X93636129Y-23632376D02*
X95225034Y-23632376D01*
X96130580Y-24429533D02*
X96130580Y-25835217D01*
X95225033Y-26632375D02*
X93636129Y-26632375D01*
X92730582Y-25835217D02*
X92730582Y-24429533D01*
X92730582Y-24429533D02*
G75*
G03*
X92681097Y-24212655I-499990J2D01*
G01*
X92681097Y-26052095D02*
G75*
G03*
X93383870Y-26700672I450515J-216877D01*
G01*
X93383870Y-23564076D02*
G75*
G03*
X93636128Y-23632375I252261J431710D01*
G01*
X95477292Y-26700674D02*
G75*
G03*
X95225033Y-26632375I-252261J-431710D01*
G01*
X95225034Y-23632376D02*
G75*
G03*
X95477292Y-23564077I-3J500009D01*
G01*
X96130580Y-25835217D02*
G75*
G03*
X96180065Y-26052095I499990J-2D01*
G01*
X93383870Y-23564076D02*
G75*
G03*
X92681097Y-24212655I-252258J-431701D01*
G01*
X96180066Y-24212655D02*
G75*
G03*
X95477292Y-23564077I-450516J216877D01*
G01*
X95477292Y-26700674D02*
G75*
G03*
X96180065Y-26052094I252259J431700D01*
G01*
X96180065Y-24212655D02*
G75*
G03*
X96130580Y-24429532I450505J-216876D01*
G01*
X92681097Y-26052095D02*
G75*
G03*
X92730582Y-25835218I-450505J216876D01*
G01*
X93636129Y-26632375D02*
G75*
G03*
X93383871Y-26700674I3J-500009D01*
G01*
%TO.C,D7*%
X21636131Y-68632375D02*
X23225036Y-68632375D01*
X24130582Y-69429532D02*
X24130582Y-70835216D01*
X23225035Y-71632374D02*
X21636131Y-71632374D01*
X20730584Y-70835216D02*
X20730584Y-69429532D01*
X23477294Y-71700673D02*
G75*
G03*
X24180067Y-71052093I252259J431700D01*
G01*
X21636131Y-71632374D02*
G75*
G03*
X21383873Y-71700673I3J-500009D01*
G01*
X20730584Y-69429532D02*
G75*
G03*
X20681099Y-69212654I-499990J2D01*
G01*
X24180067Y-69212654D02*
G75*
G03*
X24130582Y-69429531I450505J-216876D01*
G01*
X20681099Y-71052094D02*
G75*
G03*
X21383872Y-71700671I450515J-216877D01*
G01*
X21383872Y-68564075D02*
G75*
G03*
X21636130Y-68632374I252261J431710D01*
G01*
X21383872Y-68564075D02*
G75*
G03*
X20681099Y-69212654I-252258J-431701D01*
G01*
X24180068Y-69212654D02*
G75*
G03*
X23477294Y-68564076I-450516J216877D01*
G01*
X20681099Y-71052094D02*
G75*
G03*
X20730584Y-70835217I-450505J216876D01*
G01*
X23477294Y-71700673D02*
G75*
G03*
X23225035Y-71632374I-252261J-431710D01*
G01*
X24130582Y-70835216D02*
G75*
G03*
X24180067Y-71052094I499990J-2D01*
G01*
X23225036Y-68632375D02*
G75*
G03*
X23477294Y-68564076I-3J500009D01*
G01*
%TO.C,D5*%
X56730584Y-34951215D02*
X56730584Y-33545531D01*
X60130582Y-33545531D02*
X60130582Y-34951215D01*
X59225035Y-35748373D02*
X57636131Y-35748373D01*
X57636131Y-32748374D02*
X59225036Y-32748374D01*
X56730584Y-33545531D02*
G75*
G03*
X56681099Y-33328653I-499990J2D01*
G01*
X59225036Y-32748374D02*
G75*
G03*
X59477294Y-32680075I-3J500009D01*
G01*
X57383872Y-32680074D02*
G75*
G03*
X57636130Y-32748373I252261J431710D01*
G01*
X59477294Y-35816672D02*
G75*
G03*
X60180067Y-35168092I252259J431700D01*
G01*
X56681099Y-35168093D02*
G75*
G03*
X56730584Y-34951216I-450505J216876D01*
G01*
X57636131Y-35748373D02*
G75*
G03*
X57383873Y-35816672I3J-500009D01*
G01*
X59477294Y-35816672D02*
G75*
G03*
X59225035Y-35748373I-252261J-431710D01*
G01*
X60180067Y-33328653D02*
G75*
G03*
X60130582Y-33545530I450505J-216876D01*
G01*
X60130582Y-34951215D02*
G75*
G03*
X60180067Y-35168093I499990J-2D01*
G01*
X56681099Y-35168093D02*
G75*
G03*
X57383872Y-35816670I450515J-216877D01*
G01*
X60180068Y-33328653D02*
G75*
G03*
X59477294Y-32680075I-450516J216877D01*
G01*
X57383872Y-32680074D02*
G75*
G03*
X56681099Y-33328653I-252258J-431701D01*
G01*
%TO.C,D6*%
X96110581Y-41419533D02*
X96110581Y-42825217D01*
X95205034Y-43622375D02*
X93616130Y-43622375D01*
X92710583Y-42825217D02*
X92710583Y-41419533D01*
X93616130Y-40622376D02*
X95205035Y-40622376D01*
X95457293Y-43690674D02*
G75*
G03*
X95205034Y-43622375I-252261J-431710D01*
G01*
X92661098Y-43042095D02*
G75*
G03*
X93363871Y-43690672I450515J-216877D01*
G01*
X96160066Y-41202655D02*
G75*
G03*
X96110581Y-41419532I450505J-216876D01*
G01*
X93616130Y-43622375D02*
G75*
G03*
X93363872Y-43690674I3J-500009D01*
G01*
X96160067Y-41202655D02*
G75*
G03*
X95457293Y-40554077I-450516J216877D01*
G01*
X96110581Y-42825217D02*
G75*
G03*
X96160066Y-43042095I499990J-2D01*
G01*
X92710583Y-41419533D02*
G75*
G03*
X92661098Y-41202655I-499990J2D01*
G01*
X93363871Y-40554076D02*
G75*
G03*
X93616129Y-40622375I252261J431710D01*
G01*
X92661098Y-43042095D02*
G75*
G03*
X92710583Y-42825218I-450505J216876D01*
G01*
X95205035Y-40622376D02*
G75*
G03*
X95457293Y-40554077I-3J500009D01*
G01*
X93363871Y-40554076D02*
G75*
G03*
X92661098Y-41202655I-252258J-431701D01*
G01*
X95457293Y-43690674D02*
G75*
G03*
X96160066Y-43042094I252259J431700D01*
G01*
%TO.C,D13*%
X42130583Y-40403532D02*
X42130583Y-41809216D01*
X41225036Y-42606374D02*
X39636132Y-42606374D01*
X38730585Y-41809216D02*
X38730585Y-40403532D01*
X39636132Y-39606375D02*
X41225037Y-39606375D01*
X42180069Y-40186654D02*
G75*
G03*
X41477295Y-39538076I-450516J216877D01*
G01*
X41477295Y-42674673D02*
G75*
G03*
X42180068Y-42026093I252259J431700D01*
G01*
X41225037Y-39606375D02*
G75*
G03*
X41477295Y-39538076I-3J500009D01*
G01*
X38681100Y-42026094D02*
G75*
G03*
X38730585Y-41809217I-450505J216876D01*
G01*
X39383873Y-39538075D02*
G75*
G03*
X38681100Y-40186654I-252258J-431701D01*
G01*
X42130583Y-41809216D02*
G75*
G03*
X42180068Y-42026094I499990J-2D01*
G01*
X41477295Y-42674673D02*
G75*
G03*
X41225036Y-42606374I-252261J-431710D01*
G01*
X38681100Y-42026094D02*
G75*
G03*
X39383873Y-42674671I450515J-216877D01*
G01*
X39383873Y-39538075D02*
G75*
G03*
X39636131Y-39606374I252261J431710D01*
G01*
X42180068Y-40186654D02*
G75*
G03*
X42130583Y-40403531I450505J-216876D01*
G01*
X38730585Y-40403532D02*
G75*
G03*
X38681100Y-40186654I-499990J2D01*
G01*
X39636132Y-42606374D02*
G75*
G03*
X39383874Y-42674673I3J-500009D01*
G01*
%TO.C,D34*%
X39636131Y-25632374D02*
X41225035Y-25632374D01*
X41225035Y-22632375D02*
X39636130Y-22632375D01*
X38730584Y-23429532D02*
X38730584Y-24835216D01*
X42130582Y-24835216D02*
X42130582Y-23429532D01*
X42180067Y-23212654D02*
G75*
G03*
X42130582Y-23429532I450505J-216876D01*
G01*
X42130582Y-24835217D02*
G75*
G03*
X42180067Y-25052094I499990J-1D01*
G01*
X41225036Y-22632374D02*
G75*
G03*
X41477294Y-22564075I5J499982D01*
G01*
X42180067Y-23212654D02*
G75*
G03*
X41477294Y-22564075I-450515J216878D01*
G01*
X38681099Y-25052094D02*
G75*
G03*
X38730584Y-24835216I-450505J216876D01*
G01*
X39383872Y-22564077D02*
G75*
G03*
X38681099Y-23212654I-252258J-431700D01*
G01*
X39383872Y-22564076D02*
G75*
G03*
X39636130Y-22632375I252261J431710D01*
G01*
X38730584Y-23429531D02*
G75*
G03*
X38681099Y-23212654I-499990J1D01*
G01*
X41477293Y-25700673D02*
G75*
G03*
X41225035Y-25632374I-252261J-431710D01*
G01*
X41477294Y-25700671D02*
G75*
G03*
X42180067Y-25052094I252258J431700D01*
G01*
X38681099Y-25052093D02*
G75*
G03*
X39383872Y-25700673I450515J-216879D01*
G01*
X39636131Y-25632374D02*
G75*
G03*
X39383872Y-25700673I-6J-499982D01*
G01*
%TO.C,D26*%
X60130580Y-51969217D02*
G75*
G03*
X60180065Y-52186094I499990J-1D01*
G01*
X57636129Y-52766374D02*
G75*
G03*
X57383870Y-52834673I-6J-499982D01*
G01*
X59225034Y-49766374D02*
G75*
G03*
X59477292Y-49698075I5J499982D01*
G01*
X56730582Y-50563531D02*
G75*
G03*
X56681097Y-50346654I-499990J1D01*
G01*
X59477291Y-52834673D02*
G75*
G03*
X59225033Y-52766374I-252261J-431710D01*
G01*
X57383870Y-49698077D02*
G75*
G03*
X56681097Y-50346654I-252258J-431700D01*
G01*
X60180065Y-50346654D02*
G75*
G03*
X60130580Y-50563532I450505J-216876D01*
G01*
X56681097Y-52186093D02*
G75*
G03*
X57383870Y-52834673I450515J-216879D01*
G01*
X57383870Y-49698076D02*
G75*
G03*
X57636128Y-49766375I252261J431710D01*
G01*
X56681097Y-52186094D02*
G75*
G03*
X56730582Y-51969216I-450505J216876D01*
G01*
X60180065Y-50346654D02*
G75*
G03*
X59477292Y-49698075I-450515J216878D01*
G01*
X59477292Y-52834671D02*
G75*
G03*
X60180065Y-52186094I252258J431700D01*
G01*
X59225033Y-49766375D02*
X57636128Y-49766375D01*
X57636129Y-52766374D02*
X59225033Y-52766374D01*
X56730582Y-50563532D02*
X56730582Y-51969216D01*
X60130580Y-51969216D02*
X60130580Y-50563532D01*
%TO.C,D31*%
X38730585Y-40403532D02*
X38730585Y-41809216D01*
X42130583Y-41809216D02*
X42130583Y-40403532D01*
X39636132Y-42606374D02*
X41225036Y-42606374D01*
X41225036Y-39606375D02*
X39636131Y-39606375D01*
X42180068Y-40186654D02*
G75*
G03*
X42130583Y-40403532I450505J-216876D01*
G01*
X41225037Y-39606374D02*
G75*
G03*
X41477295Y-39538075I5J499982D01*
G01*
X38681100Y-42026093D02*
G75*
G03*
X39383873Y-42674673I450515J-216879D01*
G01*
X39636132Y-42606374D02*
G75*
G03*
X39383873Y-42674673I-6J-499982D01*
G01*
X39383873Y-39538077D02*
G75*
G03*
X38681100Y-40186654I-252258J-431700D01*
G01*
X41477295Y-42674671D02*
G75*
G03*
X42180068Y-42026094I252258J431700D01*
G01*
X39383873Y-39538076D02*
G75*
G03*
X39636131Y-39606375I252261J431710D01*
G01*
X38730585Y-40403531D02*
G75*
G03*
X38681100Y-40186654I-499990J1D01*
G01*
X42130583Y-41809217D02*
G75*
G03*
X42180068Y-42026094I499990J-1D01*
G01*
X38681100Y-42026094D02*
G75*
G03*
X38730585Y-41809216I-450505J216876D01*
G01*
X42180068Y-40186654D02*
G75*
G03*
X41477295Y-39538075I-450515J216878D01*
G01*
X41477294Y-42674673D02*
G75*
G03*
X41225036Y-42606374I-252261J-431710D01*
G01*
%TO.C,D28*%
X42130583Y-58827216D02*
X42130583Y-57421532D01*
X41225036Y-56624375D02*
X39636131Y-56624375D01*
X39636132Y-59624374D02*
X41225036Y-59624374D01*
X38730585Y-57421532D02*
X38730585Y-58827216D01*
X42180068Y-57204654D02*
G75*
G03*
X41477295Y-56556075I-450515J216878D01*
G01*
X41477294Y-59692673D02*
G75*
G03*
X41225036Y-59624374I-252261J-431710D01*
G01*
X38681100Y-59044093D02*
G75*
G03*
X39383873Y-59692673I450515J-216879D01*
G01*
X41225037Y-56624374D02*
G75*
G03*
X41477295Y-56556075I5J499982D01*
G01*
X41477295Y-59692671D02*
G75*
G03*
X42180068Y-59044094I252258J431700D01*
G01*
X39383873Y-56556077D02*
G75*
G03*
X38681100Y-57204654I-252258J-431700D01*
G01*
X42130583Y-58827217D02*
G75*
G03*
X42180068Y-59044094I499990J-1D01*
G01*
X42180068Y-57204654D02*
G75*
G03*
X42130583Y-57421532I450505J-216876D01*
G01*
X39636132Y-59624374D02*
G75*
G03*
X39383873Y-59692673I-6J-499982D01*
G01*
X38681100Y-59044094D02*
G75*
G03*
X38730585Y-58827216I-450505J216876D01*
G01*
X38730585Y-57421531D02*
G75*
G03*
X38681100Y-57204654I-499990J1D01*
G01*
X39383873Y-56556076D02*
G75*
G03*
X39636131Y-56624375I252261J431710D01*
G01*
%TO.C,D32*%
X75636131Y-41082376D02*
X77225035Y-41082376D01*
X78130582Y-40285218D02*
X78130582Y-38879534D01*
X74730584Y-38879534D02*
X74730584Y-40285218D01*
X77225035Y-38082377D02*
X75636130Y-38082377D01*
X74681099Y-40502096D02*
G75*
G03*
X74730584Y-40285218I-450505J216876D01*
G01*
X78130582Y-40285219D02*
G75*
G03*
X78180067Y-40502096I499990J-1D01*
G01*
X75636131Y-41082376D02*
G75*
G03*
X75383872Y-41150675I-6J-499982D01*
G01*
X78180067Y-38662656D02*
G75*
G03*
X77477294Y-38014077I-450515J216878D01*
G01*
X77225036Y-38082376D02*
G75*
G03*
X77477294Y-38014077I5J499982D01*
G01*
X77477294Y-41150673D02*
G75*
G03*
X78180067Y-40502096I252258J431700D01*
G01*
X74681099Y-40502095D02*
G75*
G03*
X75383872Y-41150675I450515J-216879D01*
G01*
X74730584Y-38879533D02*
G75*
G03*
X74681099Y-38662656I-499990J1D01*
G01*
X75383872Y-38014078D02*
G75*
G03*
X75636130Y-38082377I252261J431710D01*
G01*
X77477293Y-41150675D02*
G75*
G03*
X77225035Y-41082376I-252261J-431710D01*
G01*
X78180067Y-38662656D02*
G75*
G03*
X78130582Y-38879534I450505J-216876D01*
G01*
X75383872Y-38014079D02*
G75*
G03*
X74681099Y-38662656I-252258J-431700D01*
G01*
%TO.C,D21*%
X96130580Y-25835217D02*
X96130580Y-24429533D01*
X92730582Y-24429533D02*
X92730582Y-25835217D01*
X93636129Y-26632375D02*
X95225033Y-26632375D01*
X95225033Y-23632376D02*
X93636128Y-23632376D01*
X92681097Y-26052094D02*
G75*
G03*
X93383870Y-26700674I450515J-216879D01*
G01*
X96130580Y-25835218D02*
G75*
G03*
X96180065Y-26052095I499990J-1D01*
G01*
X93383870Y-23564077D02*
G75*
G03*
X93636128Y-23632376I252261J431710D01*
G01*
X96180065Y-24212655D02*
G75*
G03*
X96130580Y-24429533I450505J-216876D01*
G01*
X95225034Y-23632375D02*
G75*
G03*
X95477292Y-23564076I5J499982D01*
G01*
X96180065Y-24212655D02*
G75*
G03*
X95477292Y-23564076I-450515J216878D01*
G01*
X92730582Y-24429532D02*
G75*
G03*
X92681097Y-24212655I-499990J1D01*
G01*
X92681097Y-26052095D02*
G75*
G03*
X92730582Y-25835217I-450505J216876D01*
G01*
X93636129Y-26632375D02*
G75*
G03*
X93383870Y-26700674I-6J-499982D01*
G01*
X95477292Y-26700672D02*
G75*
G03*
X96180065Y-26052095I252258J431700D01*
G01*
X93383870Y-23564078D02*
G75*
G03*
X92681097Y-24212655I-252258J-431700D01*
G01*
X95477291Y-26700674D02*
G75*
G03*
X95225033Y-26632375I-252261J-431710D01*
G01*
%TO.C,D19*%
X21636130Y-37632374D02*
X23225034Y-37632374D01*
X20730583Y-35429532D02*
X20730583Y-36835216D01*
X24130581Y-36835216D02*
X24130581Y-35429532D01*
X23225034Y-34632375D02*
X21636129Y-34632375D01*
X23477293Y-37700671D02*
G75*
G03*
X24180066Y-37052094I252258J431700D01*
G01*
X24180066Y-35212654D02*
G75*
G03*
X24130581Y-35429532I450505J-216876D01*
G01*
X24130581Y-36835217D02*
G75*
G03*
X24180066Y-37052094I499990J-1D01*
G01*
X21383871Y-34564076D02*
G75*
G03*
X21636129Y-34632375I252261J431710D01*
G01*
X23225035Y-34632374D02*
G75*
G03*
X23477293Y-34564075I5J499982D01*
G01*
X20681098Y-37052094D02*
G75*
G03*
X20730583Y-36835216I-450505J216876D01*
G01*
X21383871Y-34564077D02*
G75*
G03*
X20681098Y-35212654I-252258J-431700D01*
G01*
X20730583Y-35429531D02*
G75*
G03*
X20681098Y-35212654I-499990J1D01*
G01*
X20681098Y-37052093D02*
G75*
G03*
X21383871Y-37700673I450515J-216879D01*
G01*
X24180066Y-35212654D02*
G75*
G03*
X23477293Y-34564075I-450515J216878D01*
G01*
X23477292Y-37700673D02*
G75*
G03*
X23225034Y-37632374I-252261J-431710D01*
G01*
X21636130Y-37632374D02*
G75*
G03*
X21383871Y-37700673I-6J-499982D01*
G01*
%TO.C,D23*%
X57636131Y-35748373D02*
X59225035Y-35748373D01*
X56730584Y-33545531D02*
X56730584Y-34951215D01*
X59225035Y-32748374D02*
X57636130Y-32748374D01*
X60130582Y-34951215D02*
X60130582Y-33545531D01*
X60180067Y-33328653D02*
G75*
G03*
X60130582Y-33545531I450505J-216876D01*
G01*
X59477294Y-35816670D02*
G75*
G03*
X60180067Y-35168093I252258J431700D01*
G01*
X60130582Y-34951216D02*
G75*
G03*
X60180067Y-35168093I499990J-1D01*
G01*
X59225036Y-32748373D02*
G75*
G03*
X59477294Y-32680074I5J499982D01*
G01*
X59477293Y-35816672D02*
G75*
G03*
X59225035Y-35748373I-252261J-431710D01*
G01*
X60180067Y-33328653D02*
G75*
G03*
X59477294Y-32680074I-450515J216878D01*
G01*
X57383872Y-32680076D02*
G75*
G03*
X56681099Y-33328653I-252258J-431700D01*
G01*
X56730584Y-33545530D02*
G75*
G03*
X56681099Y-33328653I-499990J1D01*
G01*
X57383872Y-32680075D02*
G75*
G03*
X57636130Y-32748374I252261J431710D01*
G01*
X56681099Y-35168092D02*
G75*
G03*
X57383872Y-35816672I450515J-216879D01*
G01*
X57636131Y-35748373D02*
G75*
G03*
X57383872Y-35816672I-6J-499982D01*
G01*
X56681099Y-35168093D02*
G75*
G03*
X56730584Y-34951215I-450505J216876D01*
G01*
%TO.C,D22*%
X20730583Y-52479532D02*
X20730583Y-53885216D01*
X24130581Y-53885216D02*
X24130581Y-52479532D01*
X21636130Y-54682374D02*
X23225034Y-54682374D01*
X23225034Y-51682375D02*
X21636129Y-51682375D01*
X23225035Y-51682374D02*
G75*
G03*
X23477293Y-51614075I5J499982D01*
G01*
X23477292Y-54750673D02*
G75*
G03*
X23225034Y-54682374I-252261J-431710D01*
G01*
X21636130Y-54682374D02*
G75*
G03*
X21383871Y-54750673I-6J-499982D01*
G01*
X23477293Y-54750671D02*
G75*
G03*
X24180066Y-54102094I252258J431700D01*
G01*
X20681098Y-54102094D02*
G75*
G03*
X20730583Y-53885216I-450505J216876D01*
G01*
X20681098Y-54102093D02*
G75*
G03*
X21383871Y-54750673I450515J-216879D01*
G01*
X21383871Y-51614077D02*
G75*
G03*
X20681098Y-52262654I-252258J-431700D01*
G01*
X24180066Y-52262654D02*
G75*
G03*
X23477293Y-51614075I-450515J216878D01*
G01*
X24180066Y-52262654D02*
G75*
G03*
X24130581Y-52479532I450505J-216876D01*
G01*
X21383871Y-51614076D02*
G75*
G03*
X21636129Y-51682375I252261J431710D01*
G01*
X24130581Y-53885217D02*
G75*
G03*
X24180066Y-54102094I499990J-1D01*
G01*
X20730583Y-52479531D02*
G75*
G03*
X20681098Y-52262654I-499990J1D01*
G01*
%TO.C,D35*%
X74730584Y-21929531D02*
X74730584Y-23335215D01*
X75636131Y-24132373D02*
X77225035Y-24132373D01*
X77225035Y-21132374D02*
X75636130Y-21132374D01*
X78130582Y-23335215D02*
X78130582Y-21929531D01*
X78180067Y-21712653D02*
G75*
G03*
X78130582Y-21929531I450505J-216876D01*
G01*
X75383872Y-21064075D02*
G75*
G03*
X75636130Y-21132374I252261J431710D01*
G01*
X74681099Y-23552093D02*
G75*
G03*
X74730584Y-23335215I-450505J216876D01*
G01*
X77477293Y-24200672D02*
G75*
G03*
X77225035Y-24132373I-252261J-431710D01*
G01*
X78130582Y-23335216D02*
G75*
G03*
X78180067Y-23552093I499990J-1D01*
G01*
X77477294Y-24200670D02*
G75*
G03*
X78180067Y-23552093I252258J431700D01*
G01*
X74730584Y-21929530D02*
G75*
G03*
X74681099Y-21712653I-499990J1D01*
G01*
X78180067Y-21712653D02*
G75*
G03*
X77477294Y-21064074I-450515J216878D01*
G01*
X75636131Y-24132373D02*
G75*
G03*
X75383872Y-24200672I-6J-499982D01*
G01*
X77225036Y-21132373D02*
G75*
G03*
X77477294Y-21064074I5J499982D01*
G01*
X75383872Y-21064076D02*
G75*
G03*
X74681099Y-21712653I-252258J-431700D01*
G01*
X74681099Y-23552092D02*
G75*
G03*
X75383872Y-24200672I450515J-216879D01*
G01*
%TO.C,D25*%
X24130582Y-70835216D02*
X24130582Y-69429532D01*
X20730584Y-69429532D02*
X20730584Y-70835216D01*
X21636131Y-71632374D02*
X23225035Y-71632374D01*
X23225035Y-68632375D02*
X21636130Y-68632375D01*
X23477294Y-71700671D02*
G75*
G03*
X24180067Y-71052094I252258J431700D01*
G01*
X20730584Y-69429531D02*
G75*
G03*
X20681099Y-69212654I-499990J1D01*
G01*
X23477293Y-71700673D02*
G75*
G03*
X23225035Y-71632374I-252261J-431710D01*
G01*
X24180067Y-69212654D02*
G75*
G03*
X23477294Y-68564075I-450515J216878D01*
G01*
X24180067Y-69212654D02*
G75*
G03*
X24130582Y-69429532I450505J-216876D01*
G01*
X21383872Y-68564077D02*
G75*
G03*
X20681099Y-69212654I-252258J-431700D01*
G01*
X23225036Y-68632374D02*
G75*
G03*
X23477294Y-68564075I5J499982D01*
G01*
X21636131Y-71632374D02*
G75*
G03*
X21383872Y-71700673I-6J-499982D01*
G01*
X24130582Y-70835217D02*
G75*
G03*
X24180067Y-71052094I499990J-1D01*
G01*
X20681099Y-71052094D02*
G75*
G03*
X20730584Y-70835216I-450505J216876D01*
G01*
X20681099Y-71052093D02*
G75*
G03*
X21383872Y-71700673I450515J-216879D01*
G01*
X21383872Y-68564076D02*
G75*
G03*
X21636130Y-68632375I252261J431710D01*
G01*
%TO.C,D24*%
X96110581Y-42825217D02*
X96110581Y-41419533D01*
X93616130Y-43622375D02*
X95205034Y-43622375D01*
X95205034Y-40622376D02*
X93616129Y-40622376D01*
X92710583Y-41419533D02*
X92710583Y-42825217D01*
X96110581Y-42825218D02*
G75*
G03*
X96160066Y-43042095I499990J-1D01*
G01*
X92661098Y-43042095D02*
G75*
G03*
X92710583Y-42825217I-450505J216876D01*
G01*
X92710583Y-41419532D02*
G75*
G03*
X92661098Y-41202655I-499990J1D01*
G01*
X93363871Y-40554078D02*
G75*
G03*
X92661098Y-41202655I-252258J-431700D01*
G01*
X92661098Y-43042094D02*
G75*
G03*
X93363871Y-43690674I450515J-216879D01*
G01*
X93363871Y-40554077D02*
G75*
G03*
X93616129Y-40622376I252261J431710D01*
G01*
X96160066Y-41202655D02*
G75*
G03*
X95457293Y-40554076I-450515J216878D01*
G01*
X95457293Y-43690672D02*
G75*
G03*
X96160066Y-43042095I252258J431700D01*
G01*
X96160066Y-41202655D02*
G75*
G03*
X96110581Y-41419533I450505J-216876D01*
G01*
X95205035Y-40622375D02*
G75*
G03*
X95457293Y-40554076I5J499982D01*
G01*
X95457292Y-43690674D02*
G75*
G03*
X95205034Y-43622375I-252261J-431710D01*
G01*
X93616130Y-43622375D02*
G75*
G03*
X93363871Y-43690674I-6J-499982D01*
G01*
%TO.C,D30*%
X77555607Y-76300034D02*
X77678121Y-74899699D01*
X76845497Y-74026652D02*
X75262638Y-73888170D01*
X74291061Y-74603370D02*
X74168547Y-76003705D01*
X75001172Y-76876753D02*
X76584029Y-77015235D01*
X76829376Y-77105258D02*
G75*
G03*
X77586002Y-76520400I288923J408072D01*
G01*
X77746320Y-74687959D02*
G75*
G03*
X77678121Y-74899699I429888J-255315D01*
G01*
X74291060Y-74603369D02*
G75*
G03*
X74260666Y-74383004I-498086J43578D01*
G01*
X74100349Y-76215444D02*
G75*
G03*
X74743920Y-76922806I429898J-255318D01*
G01*
X74100348Y-76215444D02*
G75*
G03*
X74168547Y-76003705I-429888J255314D01*
G01*
X76829375Y-77105260D02*
G75*
G03*
X76584029Y-77015235I-288925J-408073D01*
G01*
X75001172Y-76876753D02*
G75*
G03*
X74743920Y-76922806I-43583J-498079D01*
G01*
X76845498Y-74026651D02*
G75*
G03*
X77102748Y-73980598I43577J498098D01*
G01*
X75017292Y-73798145D02*
G75*
G03*
X75262638Y-73888170I288927J408081D01*
G01*
X75017292Y-73798144D02*
G75*
G03*
X74260666Y-74383004I-288923J-408073D01*
G01*
X77746320Y-74687959D02*
G75*
G03*
X77102748Y-73980598I-429899J255317D01*
G01*
X77555608Y-76300035D02*
G75*
G03*
X77586002Y-76520400I498087J-43578D01*
G01*
%TO.C,D29*%
X78130581Y-57303217D02*
X78130581Y-55897533D01*
X74730583Y-55897533D02*
X74730583Y-57303217D01*
X77225034Y-55100376D02*
X75636129Y-55100376D01*
X75636130Y-58100375D02*
X77225034Y-58100375D01*
X77477293Y-58168672D02*
G75*
G03*
X78180066Y-57520095I252258J431700D01*
G01*
X74681098Y-57520094D02*
G75*
G03*
X75383871Y-58168674I450515J-216879D01*
G01*
X78180066Y-55680655D02*
G75*
G03*
X77477293Y-55032076I-450515J216878D01*
G01*
X78130581Y-57303218D02*
G75*
G03*
X78180066Y-57520095I499990J-1D01*
G01*
X75383871Y-55032078D02*
G75*
G03*
X74681098Y-55680655I-252258J-431700D01*
G01*
X78180066Y-55680655D02*
G75*
G03*
X78130581Y-55897533I450505J-216876D01*
G01*
X77477292Y-58168674D02*
G75*
G03*
X77225034Y-58100375I-252261J-431710D01*
G01*
X74681098Y-57520095D02*
G75*
G03*
X74730583Y-57303217I-450505J216876D01*
G01*
X74730583Y-55897532D02*
G75*
G03*
X74681098Y-55680655I-499990J1D01*
G01*
X77225035Y-55100375D02*
G75*
G03*
X77477293Y-55032076I5J499982D01*
G01*
X75636130Y-58100375D02*
G75*
G03*
X75383871Y-58168674I-6J-499982D01*
G01*
X75383871Y-55032077D02*
G75*
G03*
X75636129Y-55100376I252261J431710D01*
G01*
%TO.C,D33*%
X94585219Y-77886583D02*
X94221401Y-79244370D01*
X97200993Y-77762200D02*
X95666228Y-77350961D01*
X97505547Y-80124354D02*
X97869365Y-78766568D01*
X94889772Y-80248738D02*
X96424536Y-80659977D01*
X94117470Y-79441049D02*
G75*
G03*
X94628432Y-80249421I379032J-326091D01*
G01*
X95440244Y-77219700D02*
G75*
G03*
X94593552Y-77664288I-355396J-351702D01*
G01*
X96650524Y-80791235D02*
G75*
G03*
X97497213Y-80346650I355394J351700D01*
G01*
X96650521Y-80791238D02*
G75*
G03*
X96424536Y-80659977I-355400J-351710D01*
G01*
X97973296Y-78569887D02*
G75*
G03*
X97462334Y-77761517I-379032J326090D01*
G01*
X94585219Y-77886582D02*
G75*
G03*
X94593552Y-77664288I-482983J129408D01*
G01*
X97200994Y-77762199D02*
G75*
G03*
X97462334Y-77761517I129410J482944D01*
G01*
X97505546Y-80124355D02*
G75*
G03*
X97497213Y-80346650I482954J-129408D01*
G01*
X95440244Y-77219700D02*
G75*
G03*
X95666228Y-77350961I355399J351709D01*
G01*
X94889772Y-80248739D02*
G75*
G03*
X94628432Y-80249421I-129410J-482943D01*
G01*
X97973297Y-78569887D02*
G75*
G03*
X97869365Y-78766568I379021J-326086D01*
G01*
X94117470Y-79441050D02*
G75*
G03*
X94221401Y-79244370I-379023J326085D01*
G01*
%TO.C,D20*%
X56730584Y-16429532D02*
X56730584Y-17835216D01*
X59225035Y-15632375D02*
X57636130Y-15632375D01*
X60130582Y-17835216D02*
X60130582Y-16429532D01*
X57636131Y-18632374D02*
X59225035Y-18632374D01*
X59477294Y-18700671D02*
G75*
G03*
X60180067Y-18052094I252258J431700D01*
G01*
X60180067Y-16212654D02*
G75*
G03*
X60130582Y-16429532I450505J-216876D01*
G01*
X57636131Y-18632374D02*
G75*
G03*
X57383872Y-18700673I-6J-499982D01*
G01*
X60180067Y-16212654D02*
G75*
G03*
X59477294Y-15564075I-450515J216878D01*
G01*
X56681099Y-18052093D02*
G75*
G03*
X57383872Y-18700673I450515J-216879D01*
G01*
X60130582Y-17835217D02*
G75*
G03*
X60180067Y-18052094I499990J-1D01*
G01*
X57383872Y-15564077D02*
G75*
G03*
X56681099Y-16212654I-252258J-431700D01*
G01*
X59477293Y-18700673D02*
G75*
G03*
X59225035Y-18632374I-252261J-431710D01*
G01*
X56681099Y-18052094D02*
G75*
G03*
X56730584Y-17835216I-450505J216876D01*
G01*
X56730584Y-16429531D02*
G75*
G03*
X56681099Y-16212654I-499990J1D01*
G01*
X59225036Y-15632374D02*
G75*
G03*
X59477294Y-15564075I5J499982D01*
G01*
X57383872Y-15564076D02*
G75*
G03*
X57636130Y-15632375I252261J431710D01*
G01*
%TO.C,D36*%
X113923540Y-87032041D02*
X115363576Y-87703541D01*
X114033797Y-84652888D02*
X113439730Y-85926870D01*
X116521174Y-87363771D02*
X117115242Y-86089789D01*
X116631431Y-84984619D02*
X115191394Y-84313118D01*
X114991635Y-84144610D02*
G75*
G03*
X115191394Y-84313118I411074J284652D01*
G01*
X117251747Y-85914144D02*
G75*
G03*
X117115242Y-86089789I316641J-386948D01*
G01*
X114991635Y-84144610D02*
G75*
G03*
X114080605Y-84435416I-411068J-284645D01*
G01*
X114033797Y-84652887D02*
G75*
G03*
X114080605Y-84435416I-453144J211306D01*
G01*
X116521174Y-87363772D02*
G75*
G03*
X116474366Y-87581243I453144J-211306D01*
G01*
X113303225Y-86102514D02*
G75*
G03*
X113666052Y-86987332I316648J-386955D01*
G01*
X115563335Y-87872050D02*
G75*
G03*
X115363576Y-87703541I-411074J-284652D01*
G01*
X113923540Y-87032041D02*
G75*
G03*
X113666052Y-86987332I-211311J-453163D01*
G01*
X115563337Y-87872048D02*
G75*
G03*
X116474366Y-87581243I411068J284644D01*
G01*
X113303224Y-86102515D02*
G75*
G03*
X113439730Y-85926870I-316640J386948D01*
G01*
X117251747Y-85914144D02*
G75*
G03*
X116888920Y-85029327I-316648J386954D01*
G01*
X116631432Y-84984617D02*
G75*
G03*
X116888920Y-85029327I211306J453134D01*
G01*
%TO.C,D27*%
X93616131Y-60640374D02*
X95205035Y-60640374D01*
X92710584Y-58437532D02*
X92710584Y-59843216D01*
X96110582Y-59843216D02*
X96110582Y-58437532D01*
X95205035Y-57640375D02*
X93616130Y-57640375D01*
X96160067Y-58220654D02*
G75*
G03*
X96110582Y-58437532I450505J-216876D01*
G01*
X92661099Y-60060093D02*
G75*
G03*
X93363872Y-60708673I450515J-216879D01*
G01*
X96160067Y-58220654D02*
G75*
G03*
X95457294Y-57572075I-450515J216878D01*
G01*
X92661099Y-60060094D02*
G75*
G03*
X92710584Y-59843216I-450505J216876D01*
G01*
X95205036Y-57640374D02*
G75*
G03*
X95457294Y-57572075I5J499982D01*
G01*
X92710584Y-58437531D02*
G75*
G03*
X92661099Y-58220654I-499990J1D01*
G01*
X95457294Y-60708671D02*
G75*
G03*
X96160067Y-60060094I252258J431700D01*
G01*
X96110582Y-59843217D02*
G75*
G03*
X96160067Y-60060094I499990J-1D01*
G01*
X93616131Y-60640374D02*
G75*
G03*
X93363872Y-60708673I-6J-499982D01*
G01*
X93363872Y-57572077D02*
G75*
G03*
X92661099Y-58220654I-252258J-431700D01*
G01*
X95457293Y-60708673D02*
G75*
G03*
X95205035Y-60640374I-252261J-431710D01*
G01*
X93363872Y-57572076D02*
G75*
G03*
X93616130Y-57640375I252261J431710D01*
G01*
%TD*%
M02*
