%TF.GenerationSoftware,KiCad,Pcbnew,(6.0.0)*%
%TF.CreationDate,2022-10-21T23:09:15-07:00*%
%TF.ProjectId,half-swept,68616c66-2d73-4776-9570-742e6b696361,rev?*%
%TF.SameCoordinates,Original*%
%TF.FileFunction,Legend,Bot*%
%TF.FilePolarity,Positive*%
%FSLAX46Y46*%
G04 Gerber Fmt 4.6, Leading zero omitted, Abs format (unit mm)*
G04 Created by KiCad (PCBNEW (6.0.0)) date 2022-10-21 23:09:15*
%MOMM*%
%LPD*%
G01*
G04 APERTURE LIST*
%ADD10C,0.150000*%
%ADD11C,0.100000*%
%ADD12C,0.200000*%
%ADD13C,0.010000*%
%ADD14C,0.381000*%
%ADD15C,0.120000*%
%ADD16C,1.752600*%
G04 APERTURE END LIST*
D10*
%TO.C,SW2*%
X23960198Y-50599763D02*
X23817341Y-50647382D01*
X23579245Y-50647382D01*
X23484007Y-50599763D01*
X23436388Y-50552144D01*
X23388769Y-50456906D01*
X23388769Y-50361668D01*
X23436388Y-50266430D01*
X23484007Y-50218811D01*
X23579245Y-50171192D01*
X23769722Y-50123573D01*
X23864960Y-50075954D01*
X23912579Y-50028335D01*
X23960198Y-49933097D01*
X23960198Y-49837859D01*
X23912579Y-49742621D01*
X23864960Y-49695002D01*
X23769722Y-49647382D01*
X23531626Y-49647382D01*
X23388769Y-49695002D01*
X23055436Y-49647382D02*
X22817341Y-50647382D01*
X22626865Y-49933097D01*
X22436388Y-50647382D01*
X22198293Y-49647382D01*
X21864960Y-49742621D02*
X21817341Y-49695002D01*
X21722103Y-49647382D01*
X21484007Y-49647382D01*
X21388769Y-49695002D01*
X21341150Y-49742621D01*
X21293531Y-49837859D01*
X21293531Y-49933097D01*
X21341150Y-50075954D01*
X21912579Y-50647382D01*
X21293531Y-50647382D01*
%TO.C,SW3*%
X41960200Y-38599763D02*
X41817343Y-38647382D01*
X41579247Y-38647382D01*
X41484009Y-38599763D01*
X41436390Y-38552144D01*
X41388771Y-38456906D01*
X41388771Y-38361668D01*
X41436390Y-38266430D01*
X41484009Y-38218811D01*
X41579247Y-38171192D01*
X41769724Y-38123573D01*
X41864962Y-38075954D01*
X41912581Y-38028335D01*
X41960200Y-37933097D01*
X41960200Y-37837859D01*
X41912581Y-37742621D01*
X41864962Y-37695002D01*
X41769724Y-37647382D01*
X41531628Y-37647382D01*
X41388771Y-37695002D01*
X41055438Y-37647382D02*
X40817343Y-38647382D01*
X40626867Y-37933097D01*
X40436390Y-38647382D01*
X40198295Y-37647382D01*
X39912581Y-37647382D02*
X39293533Y-37647382D01*
X39626867Y-38028335D01*
X39484009Y-38028335D01*
X39388771Y-38075954D01*
X39341152Y-38123573D01*
X39293533Y-38218811D01*
X39293533Y-38456906D01*
X39341152Y-38552144D01*
X39388771Y-38599763D01*
X39484009Y-38647382D01*
X39769724Y-38647382D01*
X39864962Y-38599763D01*
X39912581Y-38552144D01*
%TO.C,SW4*%
X59960197Y-31599763D02*
X59817340Y-31647382D01*
X59579244Y-31647382D01*
X59484006Y-31599763D01*
X59436387Y-31552144D01*
X59388768Y-31456906D01*
X59388768Y-31361668D01*
X59436387Y-31266430D01*
X59484006Y-31218811D01*
X59579244Y-31171192D01*
X59769721Y-31123573D01*
X59864959Y-31075954D01*
X59912578Y-31028335D01*
X59960197Y-30933097D01*
X59960197Y-30837859D01*
X59912578Y-30742621D01*
X59864959Y-30695002D01*
X59769721Y-30647382D01*
X59531625Y-30647382D01*
X59388768Y-30695002D01*
X59055435Y-30647382D02*
X58817340Y-31647382D01*
X58626864Y-30933097D01*
X58436387Y-31647382D01*
X58198292Y-30647382D01*
X57388768Y-30980716D02*
X57388768Y-31647382D01*
X57626864Y-30599763D02*
X57864959Y-31314049D01*
X57245911Y-31314049D01*
%TO.C,SW5*%
X77960198Y-37099764D02*
X77817341Y-37147383D01*
X77579245Y-37147383D01*
X77484007Y-37099764D01*
X77436388Y-37052145D01*
X77388769Y-36956907D01*
X77388769Y-36861669D01*
X77436388Y-36766431D01*
X77484007Y-36718812D01*
X77579245Y-36671193D01*
X77769722Y-36623574D01*
X77864960Y-36575955D01*
X77912579Y-36528336D01*
X77960198Y-36433098D01*
X77960198Y-36337860D01*
X77912579Y-36242622D01*
X77864960Y-36195003D01*
X77769722Y-36147383D01*
X77531626Y-36147383D01*
X77388769Y-36195003D01*
X77055436Y-36147383D02*
X76817341Y-37147383D01*
X76626865Y-36433098D01*
X76436388Y-37147383D01*
X76198293Y-36147383D01*
X75341150Y-36147383D02*
X75817341Y-36147383D01*
X75864960Y-36623574D01*
X75817341Y-36575955D01*
X75722103Y-36528336D01*
X75484007Y-36528336D01*
X75388769Y-36575955D01*
X75341150Y-36623574D01*
X75293531Y-36718812D01*
X75293531Y-36956907D01*
X75341150Y-37052145D01*
X75388769Y-37099764D01*
X75484007Y-37147383D01*
X75722103Y-37147383D01*
X75817341Y-37099764D01*
X75864960Y-37052145D01*
%TO.C,SW6*%
X95960196Y-39599763D02*
X95817339Y-39647382D01*
X95579243Y-39647382D01*
X95484005Y-39599763D01*
X95436386Y-39552144D01*
X95388767Y-39456906D01*
X95388767Y-39361668D01*
X95436386Y-39266430D01*
X95484005Y-39218811D01*
X95579243Y-39171192D01*
X95769720Y-39123573D01*
X95864958Y-39075954D01*
X95912577Y-39028335D01*
X95960196Y-38933097D01*
X95960196Y-38837859D01*
X95912577Y-38742621D01*
X95864958Y-38695002D01*
X95769720Y-38647382D01*
X95531624Y-38647382D01*
X95388767Y-38695002D01*
X95055434Y-38647382D02*
X94817339Y-39647382D01*
X94626863Y-38933097D01*
X94436386Y-39647382D01*
X94198291Y-38647382D01*
X93388767Y-38647382D02*
X93579243Y-38647382D01*
X93674482Y-38695002D01*
X93722101Y-38742621D01*
X93817339Y-38885478D01*
X93864958Y-39075954D01*
X93864958Y-39456906D01*
X93817339Y-39552144D01*
X93769720Y-39599763D01*
X93674482Y-39647382D01*
X93484005Y-39647382D01*
X93388767Y-39599763D01*
X93341148Y-39552144D01*
X93293529Y-39456906D01*
X93293529Y-39218811D01*
X93341148Y-39123573D01*
X93388767Y-39075954D01*
X93484005Y-39028335D01*
X93674482Y-39028335D01*
X93769720Y-39075954D01*
X93817339Y-39123573D01*
X93864958Y-39218811D01*
%TO.C,SW8*%
X23960198Y-67599763D02*
X23817341Y-67647382D01*
X23579245Y-67647382D01*
X23484007Y-67599763D01*
X23436388Y-67552144D01*
X23388769Y-67456906D01*
X23388769Y-67361668D01*
X23436388Y-67266430D01*
X23484007Y-67218811D01*
X23579245Y-67171192D01*
X23769722Y-67123573D01*
X23864960Y-67075954D01*
X23912579Y-67028335D01*
X23960198Y-66933097D01*
X23960198Y-66837859D01*
X23912579Y-66742621D01*
X23864960Y-66695002D01*
X23769722Y-66647382D01*
X23531626Y-66647382D01*
X23388769Y-66695002D01*
X23055436Y-66647382D02*
X22817341Y-67647382D01*
X22626865Y-66933097D01*
X22436388Y-67647382D01*
X22198293Y-66647382D01*
X21674484Y-67075954D02*
X21769722Y-67028335D01*
X21817341Y-66980716D01*
X21864960Y-66885478D01*
X21864960Y-66837859D01*
X21817341Y-66742621D01*
X21769722Y-66695002D01*
X21674484Y-66647382D01*
X21484007Y-66647382D01*
X21388769Y-66695002D01*
X21341150Y-66742621D01*
X21293531Y-66837859D01*
X21293531Y-66885478D01*
X21341150Y-66980716D01*
X21388769Y-67028335D01*
X21484007Y-67075954D01*
X21674484Y-67075954D01*
X21769722Y-67123573D01*
X21817341Y-67171192D01*
X21864960Y-67266430D01*
X21864960Y-67456906D01*
X21817341Y-67552144D01*
X21769722Y-67599763D01*
X21674484Y-67647382D01*
X21484007Y-67647382D01*
X21388769Y-67599763D01*
X21341150Y-67552144D01*
X21293531Y-67456906D01*
X21293531Y-67266430D01*
X21341150Y-67171192D01*
X21388769Y-67123573D01*
X21484007Y-67075954D01*
%TO.C,SW9*%
X41960200Y-55573763D02*
X41817343Y-55621382D01*
X41579247Y-55621382D01*
X41484009Y-55573763D01*
X41436390Y-55526144D01*
X41388771Y-55430906D01*
X41388771Y-55335668D01*
X41436390Y-55240430D01*
X41484009Y-55192811D01*
X41579247Y-55145192D01*
X41769724Y-55097573D01*
X41864962Y-55049954D01*
X41912581Y-55002335D01*
X41960200Y-54907097D01*
X41960200Y-54811859D01*
X41912581Y-54716621D01*
X41864962Y-54669002D01*
X41769724Y-54621382D01*
X41531628Y-54621382D01*
X41388771Y-54669002D01*
X41055438Y-54621382D02*
X40817343Y-55621382D01*
X40626867Y-54907097D01*
X40436390Y-55621382D01*
X40198295Y-54621382D01*
X39769724Y-55621382D02*
X39579247Y-55621382D01*
X39484009Y-55573763D01*
X39436390Y-55526144D01*
X39341152Y-55383287D01*
X39293533Y-55192811D01*
X39293533Y-54811859D01*
X39341152Y-54716621D01*
X39388771Y-54669002D01*
X39484009Y-54621382D01*
X39674486Y-54621382D01*
X39769724Y-54669002D01*
X39817343Y-54716621D01*
X39864962Y-54811859D01*
X39864962Y-55049954D01*
X39817343Y-55145192D01*
X39769724Y-55192811D01*
X39674486Y-55240430D01*
X39484009Y-55240430D01*
X39388771Y-55192811D01*
X39341152Y-55145192D01*
X39293533Y-55049954D01*
%TO.C,SW10*%
X60436389Y-48715763D02*
X60293532Y-48763382D01*
X60055437Y-48763382D01*
X59960199Y-48715763D01*
X59912580Y-48668144D01*
X59864961Y-48572906D01*
X59864961Y-48477668D01*
X59912580Y-48382430D01*
X59960199Y-48334811D01*
X60055437Y-48287192D01*
X60245913Y-48239573D01*
X60341151Y-48191954D01*
X60388770Y-48144335D01*
X60436389Y-48049097D01*
X60436389Y-47953859D01*
X60388770Y-47858621D01*
X60341151Y-47811002D01*
X60245913Y-47763382D01*
X60007818Y-47763382D01*
X59864961Y-47811002D01*
X59531627Y-47763382D02*
X59293532Y-48763382D01*
X59103056Y-48049097D01*
X58912580Y-48763382D01*
X58674485Y-47763382D01*
X57769723Y-48763382D02*
X58341151Y-48763382D01*
X58055437Y-48763382D02*
X58055437Y-47763382D01*
X58150675Y-47906240D01*
X58245913Y-48001478D01*
X58341151Y-48049097D01*
X57150675Y-47763382D02*
X57055437Y-47763382D01*
X56960199Y-47811002D01*
X56912580Y-47858621D01*
X56864961Y-47953859D01*
X56817342Y-48144335D01*
X56817342Y-48382430D01*
X56864961Y-48572906D01*
X56912580Y-48668144D01*
X56960199Y-48715763D01*
X57055437Y-48763382D01*
X57150675Y-48763382D01*
X57245913Y-48715763D01*
X57293532Y-48668144D01*
X57341151Y-48572906D01*
X57388770Y-48382430D01*
X57388770Y-48144335D01*
X57341151Y-47953859D01*
X57293532Y-47858621D01*
X57245913Y-47811002D01*
X57150675Y-47763382D01*
%TO.C,SW11*%
X78436390Y-54049766D02*
X78293533Y-54097385D01*
X78055438Y-54097385D01*
X77960200Y-54049766D01*
X77912581Y-54002147D01*
X77864962Y-53906909D01*
X77864962Y-53811671D01*
X77912581Y-53716433D01*
X77960200Y-53668814D01*
X78055438Y-53621195D01*
X78245914Y-53573576D01*
X78341152Y-53525957D01*
X78388771Y-53478338D01*
X78436390Y-53383100D01*
X78436390Y-53287862D01*
X78388771Y-53192624D01*
X78341152Y-53145005D01*
X78245914Y-53097385D01*
X78007819Y-53097385D01*
X77864962Y-53145005D01*
X77531628Y-53097385D02*
X77293533Y-54097385D01*
X77103057Y-53383100D01*
X76912581Y-54097385D01*
X76674486Y-53097385D01*
X75769724Y-54097385D02*
X76341152Y-54097385D01*
X76055438Y-54097385D02*
X76055438Y-53097385D01*
X76150676Y-53240243D01*
X76245914Y-53335481D01*
X76341152Y-53383100D01*
X74817343Y-54097385D02*
X75388771Y-54097385D01*
X75103057Y-54097385D02*
X75103057Y-53097385D01*
X75198295Y-53240243D01*
X75293533Y-53335481D01*
X75388771Y-53383100D01*
%TO.C,SW12*%
X96416388Y-56589763D02*
X96273531Y-56637382D01*
X96035436Y-56637382D01*
X95940198Y-56589763D01*
X95892579Y-56542144D01*
X95844960Y-56446906D01*
X95844960Y-56351668D01*
X95892579Y-56256430D01*
X95940198Y-56208811D01*
X96035436Y-56161192D01*
X96225912Y-56113573D01*
X96321150Y-56065954D01*
X96368769Y-56018335D01*
X96416388Y-55923097D01*
X96416388Y-55827859D01*
X96368769Y-55732621D01*
X96321150Y-55685002D01*
X96225912Y-55637382D01*
X95987817Y-55637382D01*
X95844960Y-55685002D01*
X95511626Y-55637382D02*
X95273531Y-56637382D01*
X95083055Y-55923097D01*
X94892579Y-56637382D01*
X94654484Y-55637382D01*
X93749722Y-56637382D02*
X94321150Y-56637382D01*
X94035436Y-56637382D02*
X94035436Y-55637382D01*
X94130674Y-55780240D01*
X94225912Y-55875478D01*
X94321150Y-55923097D01*
X93368769Y-55732621D02*
X93321150Y-55685002D01*
X93225912Y-55637382D01*
X92987817Y-55637382D01*
X92892579Y-55685002D01*
X92844960Y-55732621D01*
X92797341Y-55827859D01*
X92797341Y-55923097D01*
X92844960Y-56065954D01*
X93416388Y-56637382D01*
X92797341Y-56637382D01*
%TO.C,SW14*%
X24436388Y-84599760D02*
X24293531Y-84647379D01*
X24055436Y-84647379D01*
X23960198Y-84599760D01*
X23912579Y-84552141D01*
X23864960Y-84456903D01*
X23864960Y-84361665D01*
X23912579Y-84266427D01*
X23960198Y-84218808D01*
X24055436Y-84171189D01*
X24245912Y-84123570D01*
X24341150Y-84075951D01*
X24388769Y-84028332D01*
X24436388Y-83933094D01*
X24436388Y-83837856D01*
X24388769Y-83742618D01*
X24341150Y-83694999D01*
X24245912Y-83647379D01*
X24007817Y-83647379D01*
X23864960Y-83694999D01*
X23531626Y-83647379D02*
X23293531Y-84647379D01*
X23103055Y-83933094D01*
X22912579Y-84647379D01*
X22674484Y-83647379D01*
X21769722Y-84647379D02*
X22341150Y-84647379D01*
X22055436Y-84647379D02*
X22055436Y-83647379D01*
X22150674Y-83790237D01*
X22245912Y-83885475D01*
X22341150Y-83933094D01*
X20912579Y-83980713D02*
X20912579Y-84647379D01*
X21150674Y-83599760D02*
X21388769Y-84314046D01*
X20769722Y-84314046D01*
%TO.C,SW15*%
X42436387Y-72591762D02*
X42293530Y-72639381D01*
X42055435Y-72639381D01*
X41960197Y-72591762D01*
X41912578Y-72544143D01*
X41864959Y-72448905D01*
X41864959Y-72353667D01*
X41912578Y-72258429D01*
X41960197Y-72210810D01*
X42055435Y-72163191D01*
X42245911Y-72115572D01*
X42341149Y-72067953D01*
X42388768Y-72020334D01*
X42436387Y-71925096D01*
X42436387Y-71829858D01*
X42388768Y-71734620D01*
X42341149Y-71687001D01*
X42245911Y-71639381D01*
X42007816Y-71639381D01*
X41864959Y-71687001D01*
X41531625Y-71639381D02*
X41293530Y-72639381D01*
X41103054Y-71925096D01*
X40912578Y-72639381D01*
X40674483Y-71639381D01*
X39769721Y-72639381D02*
X40341149Y-72639381D01*
X40055435Y-72639381D02*
X40055435Y-71639381D01*
X40150673Y-71782239D01*
X40245911Y-71877477D01*
X40341149Y-71925096D01*
X38864959Y-71639381D02*
X39341149Y-71639381D01*
X39388768Y-72115572D01*
X39341149Y-72067953D01*
X39245911Y-72020334D01*
X39007816Y-72020334D01*
X38912578Y-72067953D01*
X38864959Y-72115572D01*
X38817340Y-72210810D01*
X38817340Y-72448905D01*
X38864959Y-72544143D01*
X38912578Y-72591762D01*
X39007816Y-72639381D01*
X39245911Y-72639381D01*
X39341149Y-72591762D01*
X39388768Y-72544143D01*
%TO.C,SW16*%
X60436386Y-65733764D02*
X60293529Y-65781383D01*
X60055434Y-65781383D01*
X59960196Y-65733764D01*
X59912577Y-65686145D01*
X59864958Y-65590907D01*
X59864958Y-65495669D01*
X59912577Y-65400431D01*
X59960196Y-65352812D01*
X60055434Y-65305193D01*
X60245910Y-65257574D01*
X60341148Y-65209955D01*
X60388767Y-65162336D01*
X60436386Y-65067098D01*
X60436386Y-64971860D01*
X60388767Y-64876622D01*
X60341148Y-64829003D01*
X60245910Y-64781383D01*
X60007815Y-64781383D01*
X59864958Y-64829003D01*
X59531624Y-64781383D02*
X59293529Y-65781383D01*
X59103053Y-65067098D01*
X58912577Y-65781383D01*
X58674482Y-64781383D01*
X57769720Y-65781383D02*
X58341148Y-65781383D01*
X58055434Y-65781383D02*
X58055434Y-64781383D01*
X58150672Y-64924241D01*
X58245910Y-65019479D01*
X58341148Y-65067098D01*
X56912577Y-64781383D02*
X57103053Y-64781383D01*
X57198291Y-64829003D01*
X57245910Y-64876622D01*
X57341148Y-65019479D01*
X57388767Y-65209955D01*
X57388767Y-65590907D01*
X57341148Y-65686145D01*
X57293529Y-65733764D01*
X57198291Y-65781383D01*
X57007815Y-65781383D01*
X56912577Y-65733764D01*
X56864958Y-65686145D01*
X56817339Y-65590907D01*
X56817339Y-65352812D01*
X56864958Y-65257574D01*
X56912577Y-65209955D01*
X57007815Y-65162336D01*
X57198291Y-65162336D01*
X57293529Y-65209955D01*
X57341148Y-65257574D01*
X57388767Y-65352812D01*
%TO.C,SW17*%
X78436388Y-71067766D02*
X78293531Y-71115385D01*
X78055436Y-71115385D01*
X77960198Y-71067766D01*
X77912579Y-71020147D01*
X77864960Y-70924909D01*
X77864960Y-70829671D01*
X77912579Y-70734433D01*
X77960198Y-70686814D01*
X78055436Y-70639195D01*
X78245912Y-70591576D01*
X78341150Y-70543957D01*
X78388769Y-70496338D01*
X78436388Y-70401100D01*
X78436388Y-70305862D01*
X78388769Y-70210624D01*
X78341150Y-70163005D01*
X78245912Y-70115385D01*
X78007817Y-70115385D01*
X77864960Y-70163005D01*
X77531626Y-70115385D02*
X77293531Y-71115385D01*
X77103055Y-70401100D01*
X76912579Y-71115385D01*
X76674484Y-70115385D01*
X75769722Y-71115385D02*
X76341150Y-71115385D01*
X76055436Y-71115385D02*
X76055436Y-70115385D01*
X76150674Y-70258243D01*
X76245912Y-70353481D01*
X76341150Y-70401100D01*
X75436388Y-70115385D02*
X74769722Y-70115385D01*
X75198293Y-71115385D01*
%TO.C,SW18*%
X96410042Y-73607763D02*
X96267185Y-73655382D01*
X96029090Y-73655382D01*
X95933852Y-73607763D01*
X95886233Y-73560144D01*
X95838614Y-73464906D01*
X95838614Y-73369668D01*
X95886233Y-73274430D01*
X95933852Y-73226811D01*
X96029090Y-73179192D01*
X96219566Y-73131573D01*
X96314804Y-73083954D01*
X96362423Y-73036335D01*
X96410042Y-72941097D01*
X96410042Y-72845859D01*
X96362423Y-72750621D01*
X96314804Y-72703002D01*
X96219566Y-72655382D01*
X95981471Y-72655382D01*
X95838614Y-72703002D01*
X95505280Y-72655382D02*
X95267185Y-73655382D01*
X95076709Y-72941097D01*
X94886233Y-73655382D01*
X94648138Y-72655382D01*
X93743376Y-73655382D02*
X94314804Y-73655382D01*
X94029090Y-73655382D02*
X94029090Y-72655382D01*
X94124328Y-72798240D01*
X94219566Y-72893478D01*
X94314804Y-72941097D01*
X93171947Y-73083954D02*
X93267185Y-73036335D01*
X93314804Y-72988716D01*
X93362423Y-72893478D01*
X93362423Y-72845859D01*
X93314804Y-72750621D01*
X93267185Y-72703002D01*
X93171947Y-72655382D01*
X92981471Y-72655382D01*
X92886233Y-72703002D01*
X92838614Y-72750621D01*
X92790995Y-72845859D01*
X92790995Y-72893478D01*
X92838614Y-72988716D01*
X92886233Y-73036335D01*
X92981471Y-73083954D01*
X93171947Y-73083954D01*
X93267185Y-73131573D01*
X93314804Y-73179192D01*
X93362423Y-73274430D01*
X93362423Y-73464906D01*
X93314804Y-73560144D01*
X93267185Y-73607763D01*
X93171947Y-73655382D01*
X92981471Y-73655382D01*
X92886233Y-73607763D01*
X92838614Y-73560144D01*
X92790995Y-73464906D01*
X92790995Y-73274430D01*
X92838614Y-73179192D01*
X92886233Y-73131573D01*
X92981471Y-73083954D01*
%TO.C,SW20*%
X108100865Y-97630499D02*
X108250462Y-97647715D01*
X108466250Y-97748339D01*
X108532440Y-97831746D01*
X108555473Y-97895028D01*
X108558381Y-98001468D01*
X108518132Y-98087783D01*
X108434725Y-98153973D01*
X108371442Y-98177006D01*
X108265003Y-98179914D01*
X108072248Y-98142573D01*
X107965808Y-98145481D01*
X107902526Y-98168514D01*
X107819119Y-98234704D01*
X107778870Y-98321019D01*
X107781778Y-98427459D01*
X107804811Y-98490741D01*
X107871001Y-98574148D01*
X108086789Y-98674771D01*
X108236386Y-98691988D01*
X108518364Y-98876018D02*
X109156770Y-98070334D01*
X109027530Y-98798195D01*
X109502030Y-98231331D01*
X109295199Y-99238262D01*
X109637551Y-99292820D02*
X109660584Y-99356102D01*
X109726774Y-99439509D01*
X109942562Y-99540132D01*
X110049002Y-99537224D01*
X110112284Y-99514191D01*
X110195691Y-99448001D01*
X110235940Y-99361686D01*
X110253157Y-99212089D01*
X109976763Y-98452703D01*
X110537810Y-98714323D01*
X110676240Y-99882252D02*
X110762555Y-99922501D01*
X110868994Y-99919593D01*
X110932277Y-99896560D01*
X111015683Y-99830370D01*
X111139340Y-99677865D01*
X111239963Y-99462077D01*
X111277304Y-99269322D01*
X111274396Y-99162883D01*
X111251363Y-99099600D01*
X111185173Y-99016194D01*
X111098858Y-98975944D01*
X110992418Y-98978852D01*
X110929136Y-99001885D01*
X110845729Y-99068076D01*
X110722073Y-99220581D01*
X110621449Y-99436368D01*
X110584108Y-99629123D01*
X110587016Y-99735563D01*
X110610049Y-99798845D01*
X110676240Y-99882252D01*
%TO.C,SW21*%
X90982856Y-91732774D02*
X91133170Y-91723752D01*
X91363152Y-91785376D01*
X91442820Y-91856021D01*
X91476492Y-91914343D01*
X91497839Y-92018660D01*
X91473190Y-92110653D01*
X91402544Y-92190321D01*
X91344223Y-92223993D01*
X91239905Y-92245340D01*
X91043595Y-92242038D01*
X90939277Y-92263385D01*
X90880956Y-92297057D01*
X90810310Y-92376725D01*
X90785660Y-92468718D01*
X90807007Y-92573035D01*
X90840679Y-92631357D01*
X90920347Y-92702003D01*
X91150330Y-92763626D01*
X91300644Y-92754604D01*
X91610294Y-92886873D02*
X92099096Y-91982571D01*
X92098211Y-92721817D01*
X92467067Y-92081169D01*
X92438231Y-93108718D01*
X92784856Y-93102998D02*
X92818527Y-93161319D01*
X92898195Y-93231965D01*
X93128178Y-93293589D01*
X93232495Y-93272242D01*
X93290817Y-93238570D01*
X93361463Y-93158902D01*
X93386112Y-93066909D01*
X93377090Y-92916595D01*
X92973029Y-92216741D01*
X93570983Y-92376962D01*
X94490912Y-92623456D02*
X93938954Y-92475560D01*
X94214933Y-92549508D02*
X93956114Y-93515434D01*
X93901095Y-93352795D01*
X93833752Y-93236153D01*
X93754084Y-93165507D01*
D11*
%TO.C,REF\u002A\u002A*%
X67722080Y-42737503D02*
X68722080Y-42737503D01*
X67769699Y-42737503D02*
X67722080Y-42832741D01*
X67722080Y-43023217D01*
X67769699Y-43118455D01*
X67817318Y-43166074D01*
X67912556Y-43213693D01*
X68198270Y-43213693D01*
X68293508Y-43166074D01*
X68341127Y-43118455D01*
X68388746Y-43023217D01*
X68388746Y-42832741D01*
X68341127Y-42737503D01*
X67722080Y-44070836D02*
X68388746Y-44070836D01*
X67722080Y-43642264D02*
X68245889Y-43642264D01*
X68341127Y-43689883D01*
X68388746Y-43785122D01*
X68388746Y-43927979D01*
X68341127Y-44023217D01*
X68293508Y-44070836D01*
X68341127Y-44975598D02*
X68388746Y-44880360D01*
X68388746Y-44689883D01*
X68341127Y-44594645D01*
X68293508Y-44547026D01*
X68198270Y-44499407D01*
X67912556Y-44499407D01*
X67817318Y-44547026D01*
X67769699Y-44594645D01*
X67722080Y-44689883D01*
X67722080Y-44880360D01*
X67769699Y-44975598D01*
X68388746Y-45404169D02*
X67388746Y-45404169D01*
X68007794Y-45499407D02*
X68388746Y-45785122D01*
X67722080Y-45785122D02*
X68103032Y-45404169D01*
X67658580Y-28783503D02*
X67658580Y-29164455D01*
X67325246Y-28926360D02*
X68182389Y-28926360D01*
X68277627Y-28973979D01*
X68325246Y-29069217D01*
X68325246Y-29164455D01*
X68277627Y-29878741D02*
X68325246Y-29783503D01*
X68325246Y-29593026D01*
X68277627Y-29497788D01*
X68182389Y-29450169D01*
X67801437Y-29450169D01*
X67706199Y-29497788D01*
X67658580Y-29593026D01*
X67658580Y-29783503D01*
X67706199Y-29878741D01*
X67801437Y-29926360D01*
X67896675Y-29926360D01*
X67991913Y-29450169D01*
X67658580Y-30354931D02*
X68325246Y-30354931D01*
X67753818Y-30354931D02*
X67706199Y-30402550D01*
X67658580Y-30497788D01*
X67658580Y-30640645D01*
X67706199Y-30735883D01*
X67801437Y-30783503D01*
X68325246Y-30783503D01*
X67658580Y-31116836D02*
X67658580Y-31497788D01*
X67325246Y-31259693D02*
X68182389Y-31259693D01*
X68277627Y-31307312D01*
X68325246Y-31402550D01*
X68325246Y-31497788D01*
X68325246Y-31831122D02*
X67658580Y-31831122D01*
X67325246Y-31831122D02*
X67372866Y-31783503D01*
X67420485Y-31831122D01*
X67372866Y-31878741D01*
X67325246Y-31831122D01*
X67420485Y-31831122D01*
X67658580Y-32307312D02*
X68325246Y-32307312D01*
X67753818Y-32307312D02*
X67706199Y-32354931D01*
X67658580Y-32450169D01*
X67658580Y-32593026D01*
X67706199Y-32688264D01*
X67801437Y-32735883D01*
X68325246Y-32735883D01*
X67658580Y-33640645D02*
X68468104Y-33640645D01*
X68563342Y-33593026D01*
X68610961Y-33545407D01*
X68658580Y-33450169D01*
X68658580Y-33307312D01*
X68610961Y-33212074D01*
X68277627Y-33640645D02*
X68325246Y-33545407D01*
X68325246Y-33354931D01*
X68277627Y-33259693D01*
X68230008Y-33212074D01*
X68134770Y-33164455D01*
X67849056Y-33164455D01*
X67753818Y-33212074D01*
X67706199Y-33259693D01*
X67658580Y-33354931D01*
X67658580Y-33545407D01*
X67706199Y-33640645D01*
D10*
%TO.C,U1*%
X108639674Y-47303656D02*
X108563483Y-47303656D01*
X108487293Y-47341752D01*
X108449197Y-47379847D01*
X108411102Y-47456037D01*
X108373007Y-47608418D01*
X108373007Y-47798894D01*
X108411102Y-47951275D01*
X108449197Y-48027466D01*
X108487293Y-48065561D01*
X108563483Y-48103656D01*
X108639674Y-48103656D01*
X108715864Y-48065561D01*
X108753959Y-48027466D01*
X108792054Y-47951275D01*
X108830150Y-47798894D01*
X108830150Y-47608418D01*
X108792054Y-47456037D01*
X108753959Y-47379847D01*
X108715864Y-47341752D01*
X108639674Y-47303656D01*
X108068245Y-47379847D02*
X108030150Y-47341752D01*
X107953959Y-47303656D01*
X107763483Y-47303656D01*
X107687293Y-47341752D01*
X107649197Y-47379847D01*
X107611102Y-47456037D01*
X107611102Y-47532228D01*
X107649197Y-47646513D01*
X108106340Y-48103656D01*
X107611102Y-48103656D01*
X106925388Y-47570323D02*
X106925388Y-48103656D01*
X107115864Y-47265561D02*
X107306340Y-47836990D01*
X106811102Y-47836990D01*
X108373007Y-55733656D02*
X108830150Y-55733656D01*
X108601578Y-55733656D02*
X108601578Y-54933656D01*
X108677769Y-55047942D01*
X108753959Y-55124132D01*
X108830150Y-55162228D01*
X107877769Y-54933656D02*
X107801578Y-54933656D01*
X107725388Y-54971752D01*
X107687293Y-55009847D01*
X107649197Y-55086037D01*
X107611102Y-55238418D01*
X107611102Y-55428894D01*
X107649197Y-55581275D01*
X107687293Y-55657466D01*
X107725388Y-55695561D01*
X107801578Y-55733656D01*
X107877769Y-55733656D01*
X107953959Y-55695561D01*
X107992054Y-55657466D01*
X108030150Y-55581275D01*
X108068245Y-55428894D01*
X108068245Y-55238418D01*
X108030150Y-55086037D01*
X107992054Y-55009847D01*
X107953959Y-54971752D01*
X107877769Y-54933656D01*
X106925388Y-55200323D02*
X106925388Y-55733656D01*
X107115864Y-54895561D02*
X107306340Y-55466990D01*
X106811102Y-55466990D01*
X108639674Y-42303656D02*
X108563483Y-42303656D01*
X108487293Y-42341752D01*
X108449197Y-42379847D01*
X108411102Y-42456037D01*
X108373007Y-42608418D01*
X108373007Y-42798894D01*
X108411102Y-42951275D01*
X108449197Y-43027466D01*
X108487293Y-43065561D01*
X108563483Y-43103656D01*
X108639674Y-43103656D01*
X108715864Y-43065561D01*
X108753959Y-43027466D01*
X108792054Y-42951275D01*
X108830150Y-42798894D01*
X108830150Y-42608418D01*
X108792054Y-42456037D01*
X108753959Y-42379847D01*
X108715864Y-42341752D01*
X108639674Y-42303656D01*
X108068245Y-42379847D02*
X108030150Y-42341752D01*
X107953959Y-42303656D01*
X107763483Y-42303656D01*
X107687293Y-42341752D01*
X107649197Y-42379847D01*
X107611102Y-42456037D01*
X107611102Y-42532228D01*
X107649197Y-42646513D01*
X108106340Y-43103656D01*
X107611102Y-43103656D01*
X107115864Y-42303656D02*
X107039674Y-42303656D01*
X106963483Y-42341752D01*
X106925388Y-42379847D01*
X106887293Y-42456037D01*
X106849197Y-42608418D01*
X106849197Y-42798894D01*
X106887293Y-42951275D01*
X106925388Y-43027466D01*
X106963483Y-43065561D01*
X107039674Y-43103656D01*
X107115864Y-43103656D01*
X107192054Y-43065561D01*
X107230150Y-43027466D01*
X107268245Y-42951275D01*
X107306340Y-42798894D01*
X107306340Y-42608418D01*
X107268245Y-42456037D01*
X107230150Y-42379847D01*
X107192054Y-42341752D01*
X107115864Y-42303656D01*
X108373007Y-50653656D02*
X108830150Y-50653656D01*
X108601578Y-50653656D02*
X108601578Y-49853656D01*
X108677769Y-49967942D01*
X108753959Y-50044132D01*
X108830150Y-50082228D01*
X107877769Y-49853656D02*
X107801578Y-49853656D01*
X107725388Y-49891752D01*
X107687293Y-49929847D01*
X107649197Y-50006037D01*
X107611102Y-50158418D01*
X107611102Y-50348894D01*
X107649197Y-50501275D01*
X107687293Y-50577466D01*
X107725388Y-50615561D01*
X107801578Y-50653656D01*
X107877769Y-50653656D01*
X107953959Y-50615561D01*
X107992054Y-50577466D01*
X108030150Y-50501275D01*
X108068245Y-50348894D01*
X108068245Y-50158418D01*
X108030150Y-50006037D01*
X107992054Y-49929847D01*
X107953959Y-49891752D01*
X107877769Y-49853656D01*
X107115864Y-49853656D02*
X107039674Y-49853656D01*
X106963483Y-49891752D01*
X106925388Y-49929847D01*
X106887293Y-50006037D01*
X106849197Y-50158418D01*
X106849197Y-50348894D01*
X106887293Y-50501275D01*
X106925388Y-50577466D01*
X106963483Y-50615561D01*
X107039674Y-50653656D01*
X107115864Y-50653656D01*
X107192054Y-50615561D01*
X107230150Y-50577466D01*
X107268245Y-50501275D01*
X107306340Y-50348894D01*
X107306340Y-50158418D01*
X107268245Y-50006037D01*
X107230150Y-49929847D01*
X107192054Y-49891752D01*
X107115864Y-49853656D01*
X119447388Y-50653656D02*
X119904531Y-50653656D01*
X119675959Y-50653656D02*
X119675959Y-49853656D01*
X119752150Y-49967942D01*
X119828340Y-50044132D01*
X119904531Y-50082228D01*
X118685483Y-50653656D02*
X119142626Y-50653656D01*
X118914055Y-50653656D02*
X118914055Y-49853656D01*
X118990245Y-49967942D01*
X119066435Y-50044132D01*
X119142626Y-50082228D01*
X118418816Y-49853656D02*
X117923578Y-49853656D01*
X118190245Y-50158418D01*
X118075959Y-50158418D01*
X117999769Y-50196513D01*
X117961674Y-50234609D01*
X117923578Y-50310799D01*
X117923578Y-50501275D01*
X117961674Y-50577466D01*
X117999769Y-50615561D01*
X118075959Y-50653656D01*
X118304531Y-50653656D01*
X118380721Y-50615561D01*
X118418816Y-50577466D01*
X119447388Y-48113656D02*
X119904531Y-48113656D01*
X119675959Y-48113656D02*
X119675959Y-47313656D01*
X119752150Y-47427942D01*
X119828340Y-47504132D01*
X119904531Y-47542228D01*
X118685483Y-48113656D02*
X119142626Y-48113656D01*
X118914055Y-48113656D02*
X118914055Y-47313656D01*
X118990245Y-47427942D01*
X119066435Y-47504132D01*
X119142626Y-47542228D01*
X117961674Y-47313656D02*
X118342626Y-47313656D01*
X118380721Y-47694609D01*
X118342626Y-47656513D01*
X118266435Y-47618418D01*
X118075959Y-47618418D01*
X117999769Y-47656513D01*
X117961674Y-47694609D01*
X117923578Y-47770799D01*
X117923578Y-47961275D01*
X117961674Y-48037466D01*
X117999769Y-48075561D01*
X118075959Y-48113656D01*
X118266435Y-48113656D01*
X118342626Y-48075561D01*
X118380721Y-48037466D01*
X119980721Y-37153656D02*
X119714055Y-37953656D01*
X119447388Y-37153656D01*
X118723578Y-37877466D02*
X118761674Y-37915561D01*
X118875959Y-37953656D01*
X118952150Y-37953656D01*
X119066435Y-37915561D01*
X119142626Y-37839371D01*
X119180721Y-37763180D01*
X119218816Y-37610799D01*
X119218816Y-37496513D01*
X119180721Y-37344132D01*
X119142626Y-37267942D01*
X119066435Y-37191752D01*
X118952150Y-37153656D01*
X118875959Y-37153656D01*
X118761674Y-37191752D01*
X118723578Y-37229847D01*
X117923578Y-37877466D02*
X117961674Y-37915561D01*
X118075959Y-37953656D01*
X118152150Y-37953656D01*
X118266435Y-37915561D01*
X118342626Y-37839371D01*
X118380721Y-37763180D01*
X118418816Y-37610799D01*
X118418816Y-37496513D01*
X118380721Y-37344132D01*
X118342626Y-37267942D01*
X118266435Y-37191752D01*
X118152150Y-37153656D01*
X118075959Y-37153656D01*
X117961674Y-37191752D01*
X117923578Y-37229847D01*
X119714055Y-39693656D02*
X119637864Y-39693656D01*
X119561674Y-39731752D01*
X119523578Y-39769847D01*
X119485483Y-39846037D01*
X119447388Y-39998418D01*
X119447388Y-40188894D01*
X119485483Y-40341275D01*
X119523578Y-40417466D01*
X119561674Y-40455561D01*
X119637864Y-40493656D01*
X119714055Y-40493656D01*
X119790245Y-40455561D01*
X119828340Y-40417466D01*
X119866435Y-40341275D01*
X119904531Y-40188894D01*
X119904531Y-39998418D01*
X119866435Y-39846037D01*
X119828340Y-39769847D01*
X119790245Y-39731752D01*
X119714055Y-39693656D01*
X119180721Y-39693656D02*
X118685483Y-39693656D01*
X118952150Y-39998418D01*
X118837864Y-39998418D01*
X118761674Y-40036513D01*
X118723578Y-40074609D01*
X118685483Y-40150799D01*
X118685483Y-40341275D01*
X118723578Y-40417466D01*
X118761674Y-40455561D01*
X118837864Y-40493656D01*
X119066435Y-40493656D01*
X119142626Y-40455561D01*
X119180721Y-40417466D01*
X117923578Y-40493656D02*
X118380721Y-40493656D01*
X118152150Y-40493656D02*
X118152150Y-39693656D01*
X118228340Y-39807942D01*
X118304531Y-39884132D01*
X118380721Y-39922228D01*
X119402959Y-30333656D02*
X119669626Y-29952704D01*
X119860102Y-30333656D02*
X119860102Y-29533656D01*
X119555340Y-29533656D01*
X119479150Y-29571752D01*
X119441055Y-29609847D01*
X119402959Y-29686037D01*
X119402959Y-29800323D01*
X119441055Y-29876513D01*
X119479150Y-29914609D01*
X119555340Y-29952704D01*
X119860102Y-29952704D01*
X119098198Y-30105085D02*
X118717245Y-30105085D01*
X119174388Y-30333656D02*
X118907721Y-29533656D01*
X118641055Y-30333656D01*
X118450579Y-29533656D02*
X118260102Y-30333656D01*
X118107721Y-29762228D01*
X117955340Y-30333656D01*
X117764864Y-29533656D01*
X108525387Y-37191752D02*
X108601578Y-37153656D01*
X108715864Y-37153656D01*
X108830149Y-37191752D01*
X108906340Y-37267942D01*
X108944435Y-37344132D01*
X108982530Y-37496513D01*
X108982530Y-37610799D01*
X108944435Y-37763180D01*
X108906340Y-37839371D01*
X108830149Y-37915561D01*
X108715864Y-37953656D01*
X108639673Y-37953656D01*
X108525387Y-37915561D01*
X108487292Y-37877466D01*
X108487292Y-37610799D01*
X108639673Y-37610799D01*
X108144435Y-37953656D02*
X108144435Y-37153656D01*
X107687292Y-37953656D01*
X107687292Y-37153656D01*
X107306340Y-37953656D02*
X107306340Y-37153656D01*
X107115864Y-37153656D01*
X107001578Y-37191752D01*
X106925387Y-37267942D01*
X106887292Y-37344132D01*
X106849197Y-37496513D01*
X106849197Y-37610799D01*
X106887292Y-37763180D01*
X106925387Y-37839371D01*
X107001578Y-37915561D01*
X107115864Y-37953656D01*
X107306340Y-37953656D01*
X108639674Y-39693656D02*
X108563483Y-39693656D01*
X108487293Y-39731752D01*
X108449197Y-39769847D01*
X108411102Y-39846037D01*
X108373007Y-39998418D01*
X108373007Y-40188894D01*
X108411102Y-40341275D01*
X108449197Y-40417466D01*
X108487293Y-40455561D01*
X108563483Y-40493656D01*
X108639674Y-40493656D01*
X108715864Y-40455561D01*
X108753959Y-40417466D01*
X108792054Y-40341275D01*
X108830150Y-40188894D01*
X108830150Y-39998418D01*
X108792054Y-39846037D01*
X108753959Y-39769847D01*
X108715864Y-39731752D01*
X108639674Y-39693656D01*
X107611102Y-40493656D02*
X108068245Y-40493656D01*
X107839674Y-40493656D02*
X107839674Y-39693656D01*
X107915864Y-39807942D01*
X107992054Y-39884132D01*
X108068245Y-39922228D01*
X107344435Y-39693656D02*
X106811102Y-39693656D01*
X107153959Y-40493656D01*
X119714055Y-54933656D02*
X119637864Y-54933656D01*
X119561674Y-54971752D01*
X119523578Y-55009847D01*
X119485483Y-55086037D01*
X119447388Y-55238418D01*
X119447388Y-55428894D01*
X119485483Y-55581275D01*
X119523578Y-55657466D01*
X119561674Y-55695561D01*
X119637864Y-55733656D01*
X119714055Y-55733656D01*
X119790245Y-55695561D01*
X119828340Y-55657466D01*
X119866435Y-55581275D01*
X119904531Y-55428894D01*
X119904531Y-55238418D01*
X119866435Y-55086037D01*
X119828340Y-55009847D01*
X119790245Y-54971752D01*
X119714055Y-54933656D01*
X118685483Y-55733656D02*
X119142626Y-55733656D01*
X118914055Y-55733656D02*
X118914055Y-54933656D01*
X118990245Y-55047942D01*
X119066435Y-55124132D01*
X119142626Y-55162228D01*
X118190245Y-54933656D02*
X118114055Y-54933656D01*
X118037864Y-54971752D01*
X117999769Y-55009847D01*
X117961674Y-55086037D01*
X117923578Y-55238418D01*
X117923578Y-55428894D01*
X117961674Y-55581275D01*
X117999769Y-55657466D01*
X118037864Y-55695561D01*
X118114055Y-55733656D01*
X118190245Y-55733656D01*
X118266435Y-55695561D01*
X118304531Y-55657466D01*
X118342626Y-55581275D01*
X118380721Y-55428894D01*
X118380721Y-55238418D01*
X118342626Y-55086037D01*
X118304531Y-55009847D01*
X118266435Y-54971752D01*
X118190245Y-54933656D01*
X108639674Y-29533656D02*
X108563483Y-29533656D01*
X108487293Y-29571752D01*
X108449197Y-29609847D01*
X108411102Y-29686037D01*
X108373007Y-29838418D01*
X108373007Y-30028894D01*
X108411102Y-30181275D01*
X108449197Y-30257466D01*
X108487293Y-30295561D01*
X108563483Y-30333656D01*
X108639674Y-30333656D01*
X108715864Y-30295561D01*
X108753959Y-30257466D01*
X108792054Y-30181275D01*
X108830150Y-30028894D01*
X108830150Y-29838418D01*
X108792054Y-29686037D01*
X108753959Y-29609847D01*
X108715864Y-29571752D01*
X108639674Y-29533656D01*
X107877769Y-29533656D02*
X107801578Y-29533656D01*
X107725388Y-29571752D01*
X107687293Y-29609847D01*
X107649197Y-29686037D01*
X107611102Y-29838418D01*
X107611102Y-30028894D01*
X107649197Y-30181275D01*
X107687293Y-30257466D01*
X107725388Y-30295561D01*
X107801578Y-30333656D01*
X107877769Y-30333656D01*
X107953959Y-30295561D01*
X107992054Y-30257466D01*
X108030150Y-30181275D01*
X108068245Y-30028894D01*
X108068245Y-29838418D01*
X108030150Y-29686037D01*
X107992054Y-29609847D01*
X107953959Y-29571752D01*
X107877769Y-29533656D01*
X106925388Y-29533656D02*
X107077769Y-29533656D01*
X107153959Y-29571752D01*
X107192054Y-29609847D01*
X107268245Y-29724132D01*
X107306340Y-29876513D01*
X107306340Y-30181275D01*
X107268245Y-30257466D01*
X107230150Y-30295561D01*
X107153959Y-30333656D01*
X107001578Y-30333656D01*
X106925388Y-30295561D01*
X106887293Y-30257466D01*
X106849197Y-30181275D01*
X106849197Y-29990799D01*
X106887293Y-29914609D01*
X106925388Y-29876513D01*
X107001578Y-29838418D01*
X107153959Y-29838418D01*
X107230150Y-29876513D01*
X107268245Y-29914609D01*
X107306340Y-29990799D01*
X119714055Y-42233656D02*
X119637864Y-42233656D01*
X119561674Y-42271752D01*
X119523578Y-42309847D01*
X119485483Y-42386037D01*
X119447388Y-42538418D01*
X119447388Y-42728894D01*
X119485483Y-42881275D01*
X119523578Y-42957466D01*
X119561674Y-42995561D01*
X119637864Y-43033656D01*
X119714055Y-43033656D01*
X119790245Y-42995561D01*
X119828340Y-42957466D01*
X119866435Y-42881275D01*
X119904531Y-42728894D01*
X119904531Y-42538418D01*
X119866435Y-42386037D01*
X119828340Y-42309847D01*
X119790245Y-42271752D01*
X119714055Y-42233656D01*
X119142626Y-42309847D02*
X119104531Y-42271752D01*
X119028340Y-42233656D01*
X118837864Y-42233656D01*
X118761674Y-42271752D01*
X118723578Y-42309847D01*
X118685483Y-42386037D01*
X118685483Y-42462228D01*
X118723578Y-42576513D01*
X119180721Y-43033656D01*
X118685483Y-43033656D01*
X118304531Y-43033656D02*
X118152150Y-43033656D01*
X118075959Y-42995561D01*
X118037864Y-42957466D01*
X117961674Y-42843180D01*
X117923578Y-42690799D01*
X117923578Y-42386037D01*
X117961674Y-42309847D01*
X117999769Y-42271752D01*
X118075959Y-42233656D01*
X118228340Y-42233656D01*
X118304531Y-42271752D01*
X118342626Y-42309847D01*
X118380721Y-42386037D01*
X118380721Y-42576513D01*
X118342626Y-42652704D01*
X118304531Y-42690799D01*
X118228340Y-42728894D01*
X118075959Y-42728894D01*
X117999769Y-42690799D01*
X117961674Y-42652704D01*
X117923578Y-42576513D01*
X119714055Y-44773656D02*
X119637864Y-44773656D01*
X119561674Y-44811752D01*
X119523578Y-44849847D01*
X119485483Y-44926037D01*
X119447388Y-45078418D01*
X119447388Y-45268894D01*
X119485483Y-45421275D01*
X119523578Y-45497466D01*
X119561674Y-45535561D01*
X119637864Y-45573656D01*
X119714055Y-45573656D01*
X119790245Y-45535561D01*
X119828340Y-45497466D01*
X119866435Y-45421275D01*
X119904531Y-45268894D01*
X119904531Y-45078418D01*
X119866435Y-44926037D01*
X119828340Y-44849847D01*
X119790245Y-44811752D01*
X119714055Y-44773656D01*
X118952150Y-44773656D02*
X118875959Y-44773656D01*
X118799769Y-44811752D01*
X118761674Y-44849847D01*
X118723578Y-44926037D01*
X118685483Y-45078418D01*
X118685483Y-45268894D01*
X118723578Y-45421275D01*
X118761674Y-45497466D01*
X118799769Y-45535561D01*
X118875959Y-45573656D01*
X118952150Y-45573656D01*
X119028340Y-45535561D01*
X119066435Y-45497466D01*
X119104531Y-45421275D01*
X119142626Y-45268894D01*
X119142626Y-45078418D01*
X119104531Y-44926037D01*
X119066435Y-44849847D01*
X119028340Y-44811752D01*
X118952150Y-44773656D01*
X118380721Y-44849847D02*
X118342626Y-44811752D01*
X118266435Y-44773656D01*
X118075959Y-44773656D01*
X117999769Y-44811752D01*
X117961674Y-44849847D01*
X117923578Y-44926037D01*
X117923578Y-45002228D01*
X117961674Y-45116513D01*
X118418816Y-45573656D01*
X117923578Y-45573656D01*
X119441054Y-32111752D02*
X119517245Y-32073656D01*
X119631531Y-32073656D01*
X119745816Y-32111752D01*
X119822007Y-32187942D01*
X119860102Y-32264132D01*
X119898197Y-32416513D01*
X119898197Y-32530799D01*
X119860102Y-32683180D01*
X119822007Y-32759371D01*
X119745816Y-32835561D01*
X119631531Y-32873656D01*
X119555340Y-32873656D01*
X119441054Y-32835561D01*
X119402959Y-32797466D01*
X119402959Y-32530799D01*
X119555340Y-32530799D01*
X119060102Y-32873656D02*
X119060102Y-32073656D01*
X118602959Y-32873656D01*
X118602959Y-32073656D01*
X118222007Y-32873656D02*
X118222007Y-32073656D01*
X118031531Y-32073656D01*
X117917245Y-32111752D01*
X117841054Y-32187942D01*
X117802959Y-32264132D01*
X117764864Y-32416513D01*
X117764864Y-32530799D01*
X117802959Y-32683180D01*
X117841054Y-32759371D01*
X117917245Y-32835561D01*
X118031531Y-32873656D01*
X118222007Y-32873656D01*
X108639674Y-32003656D02*
X108563483Y-32003656D01*
X108487293Y-32041752D01*
X108449197Y-32079847D01*
X108411102Y-32156037D01*
X108373007Y-32308418D01*
X108373007Y-32498894D01*
X108411102Y-32651275D01*
X108449197Y-32727466D01*
X108487293Y-32765561D01*
X108563483Y-32803656D01*
X108639674Y-32803656D01*
X108715864Y-32765561D01*
X108753959Y-32727466D01*
X108792054Y-32651275D01*
X108830150Y-32498894D01*
X108830150Y-32308418D01*
X108792054Y-32156037D01*
X108753959Y-32079847D01*
X108715864Y-32041752D01*
X108639674Y-32003656D01*
X107877769Y-32003656D02*
X107801578Y-32003656D01*
X107725388Y-32041752D01*
X107687293Y-32079847D01*
X107649197Y-32156037D01*
X107611102Y-32308418D01*
X107611102Y-32498894D01*
X107649197Y-32651275D01*
X107687293Y-32727466D01*
X107725388Y-32765561D01*
X107801578Y-32803656D01*
X107877769Y-32803656D01*
X107953959Y-32765561D01*
X107992054Y-32727466D01*
X108030150Y-32651275D01*
X108068245Y-32498894D01*
X108068245Y-32308418D01*
X108030150Y-32156037D01*
X107992054Y-32079847D01*
X107953959Y-32041752D01*
X107877769Y-32003656D01*
X107153959Y-32346513D02*
X107230150Y-32308418D01*
X107268245Y-32270323D01*
X107306340Y-32194132D01*
X107306340Y-32156037D01*
X107268245Y-32079847D01*
X107230150Y-32041752D01*
X107153959Y-32003656D01*
X107001578Y-32003656D01*
X106925388Y-32041752D01*
X106887293Y-32079847D01*
X106849197Y-32156037D01*
X106849197Y-32194132D01*
X106887293Y-32270323D01*
X106925388Y-32308418D01*
X107001578Y-32346513D01*
X107153959Y-32346513D01*
X107230150Y-32384609D01*
X107268245Y-32422704D01*
X107306340Y-32498894D01*
X107306340Y-32651275D01*
X107268245Y-32727466D01*
X107230150Y-32765561D01*
X107153959Y-32803656D01*
X107001578Y-32803656D01*
X106925388Y-32765561D01*
X106887293Y-32727466D01*
X106849197Y-32651275D01*
X106849197Y-32498894D01*
X106887293Y-32422704D01*
X106925388Y-32384609D01*
X107001578Y-32346513D01*
X108525387Y-34651752D02*
X108601578Y-34613656D01*
X108715864Y-34613656D01*
X108830149Y-34651752D01*
X108906340Y-34727942D01*
X108944435Y-34804132D01*
X108982530Y-34956513D01*
X108982530Y-35070799D01*
X108944435Y-35223180D01*
X108906340Y-35299371D01*
X108830149Y-35375561D01*
X108715864Y-35413656D01*
X108639673Y-35413656D01*
X108525387Y-35375561D01*
X108487292Y-35337466D01*
X108487292Y-35070799D01*
X108639673Y-35070799D01*
X108144435Y-35413656D02*
X108144435Y-34613656D01*
X107687292Y-35413656D01*
X107687292Y-34613656D01*
X107306340Y-35413656D02*
X107306340Y-34613656D01*
X107115864Y-34613656D01*
X107001578Y-34651752D01*
X106925387Y-34727942D01*
X106887292Y-34804132D01*
X106849197Y-34956513D01*
X106849197Y-35070799D01*
X106887292Y-35223180D01*
X106925387Y-35299371D01*
X107001578Y-35375561D01*
X107115864Y-35413656D01*
X107306340Y-35413656D01*
X119402959Y-35413656D02*
X119669625Y-35032704D01*
X119860102Y-35413656D02*
X119860102Y-34613656D01*
X119555340Y-34613656D01*
X119479149Y-34651752D01*
X119441054Y-34689847D01*
X119402959Y-34766037D01*
X119402959Y-34880323D01*
X119441054Y-34956513D01*
X119479149Y-34994609D01*
X119555340Y-35032704D01*
X119860102Y-35032704D01*
X119098197Y-35375561D02*
X118983911Y-35413656D01*
X118793435Y-35413656D01*
X118717244Y-35375561D01*
X118679149Y-35337466D01*
X118641054Y-35261275D01*
X118641054Y-35185085D01*
X118679149Y-35108894D01*
X118717244Y-35070799D01*
X118793435Y-35032704D01*
X118945816Y-34994609D01*
X119022006Y-34956513D01*
X119060102Y-34918418D01*
X119098197Y-34842228D01*
X119098197Y-34766037D01*
X119060102Y-34689847D01*
X119022006Y-34651752D01*
X118945816Y-34613656D01*
X118755340Y-34613656D01*
X118641054Y-34651752D01*
X118412483Y-34613656D02*
X117955340Y-34613656D01*
X118183911Y-35413656D02*
X118183911Y-34613656D01*
X108639674Y-44803656D02*
X108563483Y-44803656D01*
X108487293Y-44841752D01*
X108449197Y-44879847D01*
X108411102Y-44956037D01*
X108373007Y-45108418D01*
X108373007Y-45298894D01*
X108411102Y-45451275D01*
X108449197Y-45527466D01*
X108487293Y-45565561D01*
X108563483Y-45603656D01*
X108639674Y-45603656D01*
X108715864Y-45565561D01*
X108753959Y-45527466D01*
X108792054Y-45451275D01*
X108830150Y-45298894D01*
X108830150Y-45108418D01*
X108792054Y-44956037D01*
X108753959Y-44879847D01*
X108715864Y-44841752D01*
X108639674Y-44803656D01*
X108068245Y-44879847D02*
X108030150Y-44841752D01*
X107953959Y-44803656D01*
X107763483Y-44803656D01*
X107687293Y-44841752D01*
X107649197Y-44879847D01*
X107611102Y-44956037D01*
X107611102Y-45032228D01*
X107649197Y-45146513D01*
X108106340Y-45603656D01*
X107611102Y-45603656D01*
X107306340Y-44879847D02*
X107268245Y-44841752D01*
X107192054Y-44803656D01*
X107001578Y-44803656D01*
X106925388Y-44841752D01*
X106887293Y-44879847D01*
X106849197Y-44956037D01*
X106849197Y-45032228D01*
X106887293Y-45146513D01*
X107344435Y-45603656D01*
X106849197Y-45603656D01*
X119447388Y-53193656D02*
X119904531Y-53193656D01*
X119675959Y-53193656D02*
X119675959Y-52393656D01*
X119752150Y-52507942D01*
X119828340Y-52584132D01*
X119904531Y-52622228D01*
X118685483Y-53193656D02*
X119142626Y-53193656D01*
X118914055Y-53193656D02*
X118914055Y-52393656D01*
X118990245Y-52507942D01*
X119066435Y-52584132D01*
X119142626Y-52622228D01*
X117923578Y-53193656D02*
X118380721Y-53193656D01*
X118152150Y-53193656D02*
X118152150Y-52393656D01*
X118228340Y-52507942D01*
X118304531Y-52584132D01*
X118380721Y-52622228D01*
%TO.C,SW1*%
X73609066Y-88941741D02*
X73755530Y-88906754D01*
X73992719Y-88927506D01*
X74083445Y-88983244D01*
X74126732Y-89034832D01*
X74165870Y-89133858D01*
X74157569Y-89228734D01*
X74101831Y-89319459D01*
X74050242Y-89362747D01*
X73951217Y-89401884D01*
X73757315Y-89432721D01*
X73658289Y-89471858D01*
X73606701Y-89515146D01*
X73550962Y-89605871D01*
X73542662Y-89700747D01*
X73581799Y-89799773D01*
X73625087Y-89851361D01*
X73715812Y-89907099D01*
X73953001Y-89927850D01*
X74099465Y-89892863D01*
X74427380Y-89969353D02*
X74751725Y-88993910D01*
X74879222Y-89722079D01*
X75131227Y-89027112D01*
X75281261Y-90044058D01*
X76269736Y-89126719D02*
X75700482Y-89076915D01*
X75985109Y-89101817D02*
X75897953Y-90098012D01*
X75815528Y-89947398D01*
X75728953Y-89844221D01*
X75638227Y-89788483D01*
%TO.C,Display2*%
X116292113Y-69778007D02*
X116292113Y-70444673D01*
X116292113Y-69873245D02*
X116244494Y-69825626D01*
X116149256Y-69778007D01*
X116006399Y-69778007D01*
X115911161Y-69825626D01*
X115863542Y-69920864D01*
X115863542Y-70444673D01*
X115387351Y-70444673D02*
X115387351Y-69778007D01*
X115387351Y-69444673D02*
X115434970Y-69492293D01*
X115387351Y-69539912D01*
X115339732Y-69492293D01*
X115387351Y-69444673D01*
X115387351Y-69539912D01*
X114482589Y-70397054D02*
X114577827Y-70444673D01*
X114768304Y-70444673D01*
X114863542Y-70397054D01*
X114911161Y-70349435D01*
X114958780Y-70254197D01*
X114958780Y-69968483D01*
X114911161Y-69873245D01*
X114863542Y-69825626D01*
X114768304Y-69778007D01*
X114577827Y-69778007D01*
X114482589Y-69825626D01*
X113673066Y-70397054D02*
X113768304Y-70444673D01*
X113958780Y-70444673D01*
X114054018Y-70397054D01*
X114101637Y-70301816D01*
X114101637Y-69920864D01*
X114054018Y-69825626D01*
X113958780Y-69778007D01*
X113768304Y-69778007D01*
X113673066Y-69825626D01*
X113625446Y-69920864D01*
X113625446Y-70016102D01*
X114101637Y-70111340D01*
X113196875Y-70349435D02*
X113149256Y-70397054D01*
X113196875Y-70444673D01*
X113244494Y-70397054D01*
X113196875Y-70349435D01*
X113196875Y-70444673D01*
X113196875Y-70063721D02*
X113244494Y-69492293D01*
X113196875Y-69444673D01*
X113149256Y-69492293D01*
X113196875Y-70063721D01*
X113196875Y-69444673D01*
X112815923Y-69778007D02*
X112577827Y-70444673D01*
X112339732Y-69778007D01*
X111958780Y-70444673D02*
X111958780Y-69778007D01*
X111958780Y-69444673D02*
X112006399Y-69492293D01*
X111958780Y-69539912D01*
X111911161Y-69492293D01*
X111958780Y-69444673D01*
X111958780Y-69539912D01*
X111101637Y-70397054D02*
X111196875Y-70444673D01*
X111387351Y-70444673D01*
X111482589Y-70397054D01*
X111530208Y-70301816D01*
X111530208Y-69920864D01*
X111482589Y-69825626D01*
X111387351Y-69778007D01*
X111196875Y-69778007D01*
X111101637Y-69825626D01*
X111054018Y-69920864D01*
X111054018Y-70016102D01*
X111530208Y-70111340D01*
X110720685Y-69778007D02*
X110530208Y-70444673D01*
X110339732Y-69968483D01*
X110149256Y-70444673D01*
X109958780Y-69778007D01*
X113720685Y-69041697D02*
X112720685Y-68708364D01*
X113720685Y-68375031D01*
X112815923Y-67470269D02*
X112768304Y-67517888D01*
X112720685Y-67660745D01*
X112720685Y-67755983D01*
X112768304Y-67898840D01*
X112863542Y-67994078D01*
X112958780Y-68041697D01*
X113149256Y-68089316D01*
X113292113Y-68089316D01*
X113482589Y-68041697D01*
X113577827Y-67994078D01*
X113673066Y-67898840D01*
X113720685Y-67755983D01*
X113720685Y-67660745D01*
X113673066Y-67517888D01*
X113625446Y-67470269D01*
X112815923Y-66470269D02*
X112768304Y-66517888D01*
X112720685Y-66660745D01*
X112720685Y-66755983D01*
X112768304Y-66898840D01*
X112863542Y-66994078D01*
X112958780Y-67041697D01*
X113149256Y-67089316D01*
X113292113Y-67089316D01*
X113482589Y-67041697D01*
X113577827Y-66994078D01*
X113673066Y-66898840D01*
X113720685Y-66755983D01*
X113720685Y-66660745D01*
X113673066Y-66517888D01*
X113625446Y-66470269D01*
X111133066Y-68565507D02*
X111180685Y-68660745D01*
X111180685Y-68803602D01*
X111133066Y-68946459D01*
X111037827Y-69041697D01*
X110942589Y-69089316D01*
X110752113Y-69136935D01*
X110609256Y-69136935D01*
X110418780Y-69089316D01*
X110323542Y-69041697D01*
X110228304Y-68946459D01*
X110180685Y-68803602D01*
X110180685Y-68708364D01*
X110228304Y-68565507D01*
X110275923Y-68517888D01*
X110609256Y-68517888D01*
X110609256Y-68708364D01*
X110180685Y-68089316D02*
X111180685Y-68089316D01*
X110180685Y-67517888D01*
X111180685Y-67517888D01*
X110180685Y-67041697D02*
X111180685Y-67041697D01*
X111180685Y-66803602D01*
X111133066Y-66660745D01*
X111037827Y-66565507D01*
X110942589Y-66517888D01*
X110752113Y-66470269D01*
X110609256Y-66470269D01*
X110418780Y-66517888D01*
X110323542Y-66565507D01*
X110228304Y-66660745D01*
X110180685Y-66803602D01*
X110180685Y-67041697D01*
X117800685Y-69660745D02*
X118800685Y-69660745D01*
X118086399Y-69327412D01*
X118800685Y-68994078D01*
X117800685Y-68994078D01*
X118800685Y-68327412D02*
X118800685Y-68136935D01*
X118753066Y-68041697D01*
X118657827Y-67946459D01*
X118467351Y-67898840D01*
X118134018Y-67898840D01*
X117943542Y-67946459D01*
X117848304Y-68041697D01*
X117800685Y-68136935D01*
X117800685Y-68327412D01*
X117848304Y-68422650D01*
X117943542Y-68517888D01*
X118134018Y-68565507D01*
X118467351Y-68565507D01*
X118657827Y-68517888D01*
X118753066Y-68422650D01*
X118800685Y-68327412D01*
X117848304Y-67517888D02*
X117800685Y-67375031D01*
X117800685Y-67136935D01*
X117848304Y-67041697D01*
X117895923Y-66994078D01*
X117991161Y-66946459D01*
X118086399Y-66946459D01*
X118181637Y-66994078D01*
X118229256Y-67041697D01*
X118276875Y-67136935D01*
X118324494Y-67327412D01*
X118372113Y-67422650D01*
X118419732Y-67470269D01*
X118514970Y-67517888D01*
X118610208Y-67517888D01*
X118705446Y-67470269D01*
X118753066Y-67422650D01*
X118800685Y-67327412D01*
X118800685Y-67089316D01*
X118753066Y-66946459D01*
X117800685Y-66517888D02*
X118800685Y-66517888D01*
X107735923Y-67422650D02*
X107688304Y-67470269D01*
X107640685Y-67613126D01*
X107640685Y-67708364D01*
X107688304Y-67851221D01*
X107783542Y-67946459D01*
X107878780Y-67994078D01*
X108069256Y-68041697D01*
X108212113Y-68041697D01*
X108402589Y-67994078D01*
X108497827Y-67946459D01*
X108593066Y-67851221D01*
X108640685Y-67708364D01*
X108640685Y-67613126D01*
X108593066Y-67470269D01*
X108545446Y-67422650D01*
X107688304Y-67041697D02*
X107640685Y-66898840D01*
X107640685Y-66660745D01*
X107688304Y-66565507D01*
X107735923Y-66517888D01*
X107831161Y-66470269D01*
X107926399Y-66470269D01*
X108021637Y-66517888D01*
X108069256Y-66565507D01*
X108116875Y-66660745D01*
X108164494Y-66851221D01*
X108212113Y-66946459D01*
X108259732Y-66994078D01*
X108354970Y-67041697D01*
X108450208Y-67041697D01*
X108545446Y-66994078D01*
X108593066Y-66946459D01*
X108640685Y-66851221D01*
X108640685Y-66613126D01*
X108593066Y-66470269D01*
X115308304Y-69041697D02*
X115260685Y-68898840D01*
X115260685Y-68660745D01*
X115308304Y-68565507D01*
X115355923Y-68517888D01*
X115451161Y-68470269D01*
X115546399Y-68470269D01*
X115641637Y-68517888D01*
X115689256Y-68565507D01*
X115736875Y-68660745D01*
X115784494Y-68851221D01*
X115832113Y-68946459D01*
X115879732Y-68994078D01*
X115974970Y-69041697D01*
X116070208Y-69041697D01*
X116165446Y-68994078D01*
X116213066Y-68946459D01*
X116260685Y-68851221D01*
X116260685Y-68613126D01*
X116213066Y-68470269D01*
X115355923Y-67470269D02*
X115308304Y-67517888D01*
X115260685Y-67660745D01*
X115260685Y-67755983D01*
X115308304Y-67898840D01*
X115403542Y-67994078D01*
X115498780Y-68041697D01*
X115689256Y-68089316D01*
X115832113Y-68089316D01*
X116022589Y-68041697D01*
X116117827Y-67994078D01*
X116213066Y-67898840D01*
X116260685Y-67755983D01*
X116260685Y-67660745D01*
X116213066Y-67517888D01*
X116165446Y-67470269D01*
X115260685Y-67041697D02*
X116260685Y-67041697D01*
X115260685Y-66470269D02*
X115832113Y-66898840D01*
X116260685Y-66470269D02*
X115689256Y-67041697D01*
%TO.C,SW13*%
X125437827Y-73862768D02*
X125485446Y-74005625D01*
X125485446Y-74243720D01*
X125437827Y-74338958D01*
X125390208Y-74386577D01*
X125294970Y-74434196D01*
X125199732Y-74434196D01*
X125104494Y-74386577D01*
X125056875Y-74338958D01*
X125009256Y-74243720D01*
X124961637Y-74053244D01*
X124914018Y-73958006D01*
X124866399Y-73910387D01*
X124771161Y-73862768D01*
X124675923Y-73862768D01*
X124580685Y-73910387D01*
X124533066Y-73958006D01*
X124485446Y-74053244D01*
X124485446Y-74291339D01*
X124533066Y-74434196D01*
X124485446Y-74767530D02*
X125485446Y-75005625D01*
X124771161Y-75196101D01*
X125485446Y-75386577D01*
X124485446Y-75624672D01*
X125485446Y-76529434D02*
X125485446Y-75958006D01*
X125485446Y-76243720D02*
X124485446Y-76243720D01*
X124628304Y-76148482D01*
X124723542Y-76053244D01*
X124771161Y-75958006D01*
X124485446Y-76862768D02*
X124485446Y-77481815D01*
X124866399Y-77148482D01*
X124866399Y-77291339D01*
X124914018Y-77386577D01*
X124961637Y-77434196D01*
X125056875Y-77481815D01*
X125294970Y-77481815D01*
X125390208Y-77434196D01*
X125437827Y-77386577D01*
X125485446Y-77291339D01*
X125485446Y-77005625D01*
X125437827Y-76910387D01*
X125390208Y-76862768D01*
D12*
X118184970Y-79334196D02*
X118184970Y-79086577D01*
X118123066Y-78962768D01*
X117999256Y-78838958D01*
X117751637Y-78777053D01*
X117318304Y-78777053D01*
X117070685Y-78838958D01*
X116946875Y-78962768D01*
X116884970Y-79086577D01*
X116884970Y-79334196D01*
X116946875Y-79458006D01*
X117070685Y-79581815D01*
X117318304Y-79643720D01*
X117751637Y-79643720D01*
X117999256Y-79581815D01*
X118123066Y-79458006D01*
X118184970Y-79334196D01*
X117751637Y-78219911D02*
X116884970Y-78219911D01*
X117627827Y-78219911D02*
X117689732Y-78158006D01*
X117751637Y-78034196D01*
X117751637Y-77848482D01*
X117689732Y-77724672D01*
X117565923Y-77662768D01*
X116884970Y-77662768D01*
X118184970Y-73788958D02*
X118184970Y-73541339D01*
X118123066Y-73417530D01*
X117999256Y-73293720D01*
X117751637Y-73231815D01*
X117318304Y-73231815D01*
X117070685Y-73293720D01*
X116946875Y-73417530D01*
X116884970Y-73541339D01*
X116884970Y-73788958D01*
X116946875Y-73912768D01*
X117070685Y-74036577D01*
X117318304Y-74098482D01*
X117751637Y-74098482D01*
X117999256Y-74036577D01*
X118123066Y-73912768D01*
X118184970Y-73788958D01*
X117751637Y-72860387D02*
X117751637Y-72365149D01*
X116884970Y-72674672D02*
X117999256Y-72674672D01*
X118123066Y-72612768D01*
X118184970Y-72488958D01*
X118184970Y-72365149D01*
X117751637Y-72117530D02*
X117751637Y-71622292D01*
X116884970Y-71931815D02*
X117999256Y-71931815D01*
X118123066Y-71869911D01*
X118184970Y-71746101D01*
X118184970Y-71622292D01*
D10*
%TO.C,SW2*%
X24626865Y-49005002D02*
X24126865Y-49505002D01*
X24626865Y-45505002D02*
X24126865Y-45005002D01*
X29626865Y-34305002D02*
X29626865Y-35305002D01*
X29626865Y-47305002D02*
X29626865Y-48305002D01*
X20126865Y-43505002D02*
X20126865Y-42805002D01*
X20126865Y-42805002D02*
X15626865Y-42805002D01*
X15626865Y-47505002D02*
X20126865Y-47505002D01*
X24126865Y-49505002D02*
X21126865Y-49505002D01*
X15626865Y-35305002D02*
X15626865Y-34305002D01*
X15626865Y-42805002D02*
X15626865Y-43305002D01*
X16626865Y-48305002D02*
X15626865Y-48305002D01*
X21126865Y-49505002D02*
X20626865Y-49005002D01*
X24126865Y-45005002D02*
X21626865Y-45005002D01*
X15626865Y-48305002D02*
X15626865Y-47305002D01*
X28626865Y-34305002D02*
X29626865Y-34305002D01*
X29626865Y-48305002D02*
X28626865Y-48305002D01*
X15626865Y-34305002D02*
X16626865Y-34305002D01*
X15626865Y-46905002D02*
X15626865Y-47505002D01*
X20626865Y-48005002D02*
X20626865Y-49005002D01*
X20626865Y-48005002D02*
G75*
G03*
X20126865Y-47505002I-500001J-1D01*
G01*
X20126865Y-43505002D02*
G75*
G03*
X21626865Y-45005002I1500001J1D01*
G01*
%TO.C,SW3*%
X33626867Y-22305002D02*
X34626867Y-22305002D01*
X39126867Y-37505002D02*
X38626867Y-37005002D01*
X38626867Y-36005002D02*
X38626867Y-37005002D01*
X42126867Y-37505002D02*
X39126867Y-37505002D01*
X46626867Y-22305002D02*
X47626867Y-22305002D01*
X47626867Y-22305002D02*
X47626867Y-23305002D01*
X33626867Y-35505002D02*
X38126867Y-35505002D01*
X42626867Y-33505002D02*
X42126867Y-33005002D01*
X33626867Y-23305002D02*
X33626867Y-22305002D01*
X33626867Y-30805002D02*
X33626867Y-31305002D01*
X33626867Y-36305002D02*
X33626867Y-35305002D01*
X42126867Y-33005002D02*
X39626867Y-33005002D01*
X47626867Y-35305002D02*
X47626867Y-36305002D01*
X38126867Y-31505002D02*
X38126867Y-30805002D01*
X42626867Y-37005002D02*
X42126867Y-37505002D01*
X47626867Y-36305002D02*
X46626867Y-36305002D01*
X34626867Y-36305002D02*
X33626867Y-36305002D01*
X38126867Y-30805002D02*
X33626867Y-30805002D01*
X33626867Y-34905002D02*
X33626867Y-35505002D01*
X38126867Y-31505002D02*
G75*
G03*
X39626867Y-33005002I1500001J1D01*
G01*
X38626867Y-36005002D02*
G75*
G03*
X38126867Y-35505002I-500001J-1D01*
G01*
%TO.C,SW4*%
X64626864Y-15305002D02*
X65626864Y-15305002D01*
X60626864Y-30005002D02*
X60126864Y-30505002D01*
X51626864Y-27905002D02*
X51626864Y-28505002D01*
X65626864Y-15305002D02*
X65626864Y-16305002D01*
X51626864Y-28505002D02*
X56126864Y-28505002D01*
X56126864Y-23805002D02*
X51626864Y-23805002D01*
X56126864Y-24505002D02*
X56126864Y-23805002D01*
X52626864Y-29305002D02*
X51626864Y-29305002D01*
X51626864Y-29305002D02*
X51626864Y-28305002D01*
X51626864Y-15305002D02*
X52626864Y-15305002D01*
X60126864Y-26005002D02*
X57626864Y-26005002D01*
X65626864Y-29305002D02*
X64626864Y-29305002D01*
X65626864Y-28305002D02*
X65626864Y-29305002D01*
X56626864Y-29005002D02*
X56626864Y-30005002D01*
X51626864Y-16305002D02*
X51626864Y-15305002D01*
X57126864Y-30505002D02*
X56626864Y-30005002D01*
X60126864Y-30505002D02*
X57126864Y-30505002D01*
X51626864Y-23805002D02*
X51626864Y-24305002D01*
X60626864Y-26505002D02*
X60126864Y-26005002D01*
X56626864Y-29005002D02*
G75*
G03*
X56126864Y-28505002I-500001J-1D01*
G01*
X56126864Y-24505002D02*
G75*
G03*
X57626864Y-26005002I1500001J1D01*
G01*
%TO.C,SW5*%
X74626865Y-34505003D02*
X74626865Y-35505003D01*
X83626865Y-34805003D02*
X82626865Y-34805003D01*
X69626865Y-21805003D02*
X69626865Y-20805003D01*
X74126865Y-29305003D02*
X69626865Y-29305003D01*
X83626865Y-20805003D02*
X83626865Y-21805003D01*
X74126865Y-30005003D02*
X74126865Y-29305003D01*
X78126865Y-36005003D02*
X75126865Y-36005003D01*
X70626865Y-34805003D02*
X69626865Y-34805003D01*
X69626865Y-20805003D02*
X70626865Y-20805003D01*
X69626865Y-29305003D02*
X69626865Y-29805003D01*
X83626865Y-33805003D02*
X83626865Y-34805003D01*
X82626865Y-20805003D02*
X83626865Y-20805003D01*
X78126865Y-31505003D02*
X75626865Y-31505003D01*
X78626865Y-35505003D02*
X78126865Y-36005003D01*
X69626865Y-34005003D02*
X74126865Y-34005003D01*
X69626865Y-33405003D02*
X69626865Y-34005003D01*
X69626865Y-34805003D02*
X69626865Y-33805003D01*
X78626865Y-32005003D02*
X78126865Y-31505003D01*
X75126865Y-36005003D02*
X74626865Y-35505003D01*
X74626865Y-34505003D02*
G75*
G03*
X74126865Y-34005003I-500001J-1D01*
G01*
X74126865Y-30005003D02*
G75*
G03*
X75626865Y-31505003I1500001J1D01*
G01*
%TO.C,SW6*%
X96126863Y-34005002D02*
X93626863Y-34005002D01*
X87626863Y-24305002D02*
X87626863Y-23305002D01*
X87626863Y-35905002D02*
X87626863Y-36505002D01*
X92126863Y-31805002D02*
X87626863Y-31805002D01*
X101626863Y-36305002D02*
X101626863Y-37305002D01*
X96626863Y-38005002D02*
X96126863Y-38505002D01*
X87626863Y-31805002D02*
X87626863Y-32305002D01*
X96626863Y-34505002D02*
X96126863Y-34005002D01*
X87626863Y-23305002D02*
X88626863Y-23305002D01*
X92626863Y-37005002D02*
X92626863Y-38005002D01*
X87626863Y-36505002D02*
X92126863Y-36505002D01*
X101626863Y-23305002D02*
X101626863Y-24305002D01*
X100626863Y-23305002D02*
X101626863Y-23305002D01*
X96126863Y-38505002D02*
X93126863Y-38505002D01*
X87626863Y-37305002D02*
X87626863Y-36305002D01*
X93126863Y-38505002D02*
X92626863Y-38005002D01*
X92126863Y-32505002D02*
X92126863Y-31805002D01*
X101626863Y-37305002D02*
X100626863Y-37305002D01*
X88626863Y-37305002D02*
X87626863Y-37305002D01*
X92626863Y-37005002D02*
G75*
G03*
X92126863Y-36505002I-500001J-1D01*
G01*
X92126863Y-32505002D02*
G75*
G03*
X93626863Y-34005002I1500001J1D01*
G01*
%TO.C,SW8*%
X15626865Y-59805002D02*
X15626865Y-60305002D01*
X29626865Y-64305002D02*
X29626865Y-65305002D01*
X15626865Y-52305002D02*
X15626865Y-51305002D01*
X28626865Y-51305002D02*
X29626865Y-51305002D01*
X29626865Y-51305002D02*
X29626865Y-52305002D01*
X15626865Y-64505002D02*
X20126865Y-64505002D01*
X24126865Y-62005002D02*
X21626865Y-62005002D01*
X20126865Y-59805002D02*
X15626865Y-59805002D01*
X20626865Y-65005002D02*
X20626865Y-66005002D01*
X24126865Y-66505002D02*
X21126865Y-66505002D01*
X24626865Y-66005002D02*
X24126865Y-66505002D01*
X29626865Y-65305002D02*
X28626865Y-65305002D01*
X21126865Y-66505002D02*
X20626865Y-66005002D01*
X16626865Y-65305002D02*
X15626865Y-65305002D01*
X20126865Y-60505002D02*
X20126865Y-59805002D01*
X15626865Y-51305002D02*
X16626865Y-51305002D01*
X15626865Y-65305002D02*
X15626865Y-64305002D01*
X24626865Y-62505002D02*
X24126865Y-62005002D01*
X15626865Y-63905002D02*
X15626865Y-64505002D01*
X20626865Y-65005002D02*
G75*
G03*
X20126865Y-64505002I-500001J-1D01*
G01*
X20126865Y-60505002D02*
G75*
G03*
X21626865Y-62005002I1500001J1D01*
G01*
%TO.C,SW9*%
X33626867Y-51879002D02*
X33626867Y-52479002D01*
X46626867Y-39279002D02*
X47626867Y-39279002D01*
X33626867Y-40279002D02*
X33626867Y-39279002D01*
X38126867Y-47779002D02*
X33626867Y-47779002D01*
X33626867Y-47779002D02*
X33626867Y-48279002D01*
X38626867Y-52979002D02*
X38626867Y-53979002D01*
X47626867Y-53279002D02*
X46626867Y-53279002D01*
X47626867Y-39279002D02*
X47626867Y-40279002D01*
X33626867Y-52479002D02*
X38126867Y-52479002D01*
X33626867Y-39279002D02*
X34626867Y-39279002D01*
X42126867Y-54479002D02*
X39126867Y-54479002D01*
X33626867Y-53279002D02*
X33626867Y-52279002D01*
X34626867Y-53279002D02*
X33626867Y-53279002D01*
X38126867Y-48479002D02*
X38126867Y-47779002D01*
X42126867Y-49979002D02*
X39626867Y-49979002D01*
X42626867Y-50479002D02*
X42126867Y-49979002D01*
X39126867Y-54479002D02*
X38626867Y-53979002D01*
X42626867Y-53979002D02*
X42126867Y-54479002D01*
X47626867Y-52279002D02*
X47626867Y-53279002D01*
X38126867Y-48479002D02*
G75*
G03*
X39626867Y-49979002I1500001J1D01*
G01*
X38626867Y-52979002D02*
G75*
G03*
X38126867Y-52479002I-500001J-1D01*
G01*
%TO.C,SW10*%
X52626866Y-46421002D02*
X51626866Y-46421002D01*
X51626866Y-46421002D02*
X51626866Y-45421002D01*
X64626866Y-32421002D02*
X65626866Y-32421002D01*
X51626866Y-32421002D02*
X52626866Y-32421002D01*
X51626866Y-33421002D02*
X51626866Y-32421002D01*
X60126866Y-43121002D02*
X57626866Y-43121002D01*
X60126866Y-47621002D02*
X57126866Y-47621002D01*
X60626866Y-43621002D02*
X60126866Y-43121002D01*
X56126866Y-41621002D02*
X56126866Y-40921002D01*
X51626866Y-40921002D02*
X51626866Y-41421002D01*
X51626866Y-45621002D02*
X56126866Y-45621002D01*
X65626866Y-32421002D02*
X65626866Y-33421002D01*
X60626866Y-47121002D02*
X60126866Y-47621002D01*
X65626866Y-45421002D02*
X65626866Y-46421002D01*
X65626866Y-46421002D02*
X64626866Y-46421002D01*
X51626866Y-45021002D02*
X51626866Y-45621002D01*
X57126866Y-47621002D02*
X56626866Y-47121002D01*
X56626866Y-46121002D02*
X56626866Y-47121002D01*
X56126866Y-40921002D02*
X51626866Y-40921002D01*
X56126866Y-41621002D02*
G75*
G03*
X57626866Y-43121002I1500001J1D01*
G01*
X56626866Y-46121002D02*
G75*
G03*
X56126866Y-45621002I-500001J-1D01*
G01*
%TO.C,SW11*%
X78126867Y-48455005D02*
X75626867Y-48455005D01*
X78626867Y-52455005D02*
X78126867Y-52955005D01*
X74126867Y-46955005D02*
X74126867Y-46255005D01*
X75126867Y-52955005D02*
X74626867Y-52455005D01*
X69626867Y-50955005D02*
X74126867Y-50955005D01*
X82626867Y-37755005D02*
X83626867Y-37755005D01*
X74126867Y-46255005D02*
X69626867Y-46255005D01*
X69626867Y-51755005D02*
X69626867Y-50755005D01*
X69626867Y-46255005D02*
X69626867Y-46755005D01*
X69626867Y-37755005D02*
X70626867Y-37755005D01*
X83626867Y-51755005D02*
X82626867Y-51755005D01*
X83626867Y-50755005D02*
X83626867Y-51755005D01*
X70626867Y-51755005D02*
X69626867Y-51755005D01*
X69626867Y-50355005D02*
X69626867Y-50955005D01*
X74626867Y-51455005D02*
X74626867Y-52455005D01*
X69626867Y-38755005D02*
X69626867Y-37755005D01*
X78126867Y-52955005D02*
X75126867Y-52955005D01*
X83626867Y-37755005D02*
X83626867Y-38755005D01*
X78626867Y-48955005D02*
X78126867Y-48455005D01*
X74126867Y-46955005D02*
G75*
G03*
X75626867Y-48455005I1500001J1D01*
G01*
X74626867Y-51455005D02*
G75*
G03*
X74126867Y-50955005I-500001J-1D01*
G01*
%TO.C,SW12*%
X92106865Y-48795002D02*
X87606865Y-48795002D01*
X87606865Y-48795002D02*
X87606865Y-49295002D01*
X87606865Y-41295002D02*
X87606865Y-40295002D01*
X96106865Y-55495002D02*
X93106865Y-55495002D01*
X101606865Y-54295002D02*
X100606865Y-54295002D01*
X96606865Y-54995002D02*
X96106865Y-55495002D01*
X88606865Y-54295002D02*
X87606865Y-54295002D01*
X92106865Y-49495002D02*
X92106865Y-48795002D01*
X87606865Y-52895002D02*
X87606865Y-53495002D01*
X87606865Y-53495002D02*
X92106865Y-53495002D01*
X96606865Y-51495002D02*
X96106865Y-50995002D01*
X101606865Y-53295002D02*
X101606865Y-54295002D01*
X92606865Y-53995002D02*
X92606865Y-54995002D01*
X101606865Y-40295002D02*
X101606865Y-41295002D01*
X96106865Y-50995002D02*
X93606865Y-50995002D01*
X100606865Y-40295002D02*
X101606865Y-40295002D01*
X87606865Y-40295002D02*
X88606865Y-40295002D01*
X87606865Y-54295002D02*
X87606865Y-53295002D01*
X93106865Y-55495002D02*
X92606865Y-54995002D01*
X92606865Y-53995002D02*
G75*
G03*
X92106865Y-53495002I-500001J-1D01*
G01*
X92106865Y-49495002D02*
G75*
G03*
X93606865Y-50995002I1500001J1D01*
G01*
%TO.C,SW14*%
X15626865Y-76804999D02*
X15626865Y-77304999D01*
X15626865Y-68304999D02*
X16626865Y-68304999D01*
X20126865Y-77504999D02*
X20126865Y-76804999D01*
X29626865Y-82304999D02*
X28626865Y-82304999D01*
X28626865Y-68304999D02*
X29626865Y-68304999D01*
X24126865Y-83504999D02*
X21126865Y-83504999D01*
X29626865Y-68304999D02*
X29626865Y-69304999D01*
X24626865Y-79504999D02*
X24126865Y-79004999D01*
X15626865Y-69304999D02*
X15626865Y-68304999D01*
X29626865Y-81304999D02*
X29626865Y-82304999D01*
X15626865Y-81504999D02*
X20126865Y-81504999D01*
X15626865Y-82304999D02*
X15626865Y-81304999D01*
X15626865Y-80904999D02*
X15626865Y-81504999D01*
X16626865Y-82304999D02*
X15626865Y-82304999D01*
X24126865Y-79004999D02*
X21626865Y-79004999D01*
X24626865Y-83004999D02*
X24126865Y-83504999D01*
X20626865Y-82004999D02*
X20626865Y-83004999D01*
X21126865Y-83504999D02*
X20626865Y-83004999D01*
X20126865Y-76804999D02*
X15626865Y-76804999D01*
X20626865Y-82004999D02*
G75*
G03*
X20126865Y-81504999I-500001J-1D01*
G01*
X20126865Y-77504999D02*
G75*
G03*
X21626865Y-79004999I1500001J1D01*
G01*
%TO.C,SW15*%
X33626864Y-70297001D02*
X33626864Y-69297001D01*
X42126864Y-66997001D02*
X39626864Y-66997001D01*
X39126864Y-71497001D02*
X38626864Y-70997001D01*
X38126864Y-64797001D02*
X33626864Y-64797001D01*
X46626864Y-56297001D02*
X47626864Y-56297001D01*
X33626864Y-64797001D02*
X33626864Y-65297001D01*
X33626864Y-57297001D02*
X33626864Y-56297001D01*
X47626864Y-70297001D02*
X46626864Y-70297001D01*
X47626864Y-56297001D02*
X47626864Y-57297001D01*
X38126864Y-65497001D02*
X38126864Y-64797001D01*
X42626864Y-67497001D02*
X42126864Y-66997001D01*
X38626864Y-69997001D02*
X38626864Y-70997001D01*
X42626864Y-70997001D02*
X42126864Y-71497001D01*
X33626864Y-69497001D02*
X38126864Y-69497001D01*
X33626864Y-56297001D02*
X34626864Y-56297001D01*
X42126864Y-71497001D02*
X39126864Y-71497001D01*
X47626864Y-69297001D02*
X47626864Y-70297001D01*
X34626864Y-70297001D02*
X33626864Y-70297001D01*
X33626864Y-68897001D02*
X33626864Y-69497001D01*
X38626864Y-69997001D02*
G75*
G03*
X38126864Y-69497001I-500001J-1D01*
G01*
X38126864Y-65497001D02*
G75*
G03*
X39626864Y-66997001I1500001J1D01*
G01*
%TO.C,SW16*%
X60126863Y-60139003D02*
X57626863Y-60139003D01*
X56126863Y-57939003D02*
X51626863Y-57939003D01*
X65626863Y-49439003D02*
X65626863Y-50439003D01*
X52626863Y-63439003D02*
X51626863Y-63439003D01*
X51626863Y-63439003D02*
X51626863Y-62439003D01*
X51626863Y-62639003D02*
X56126863Y-62639003D01*
X57126863Y-64639003D02*
X56626863Y-64139003D01*
X56626863Y-63139003D02*
X56626863Y-64139003D01*
X51626863Y-49439003D02*
X52626863Y-49439003D01*
X51626863Y-50439003D02*
X51626863Y-49439003D01*
X60626863Y-64139003D02*
X60126863Y-64639003D01*
X60126863Y-64639003D02*
X57126863Y-64639003D01*
X51626863Y-57939003D02*
X51626863Y-58439003D01*
X51626863Y-62039003D02*
X51626863Y-62639003D01*
X65626863Y-62439003D02*
X65626863Y-63439003D01*
X60626863Y-60639003D02*
X60126863Y-60139003D01*
X65626863Y-63439003D02*
X64626863Y-63439003D01*
X56126863Y-58639003D02*
X56126863Y-57939003D01*
X64626863Y-49439003D02*
X65626863Y-49439003D01*
X56126863Y-58639003D02*
G75*
G03*
X57626863Y-60139003I1500001J1D01*
G01*
X56626863Y-63139003D02*
G75*
G03*
X56126863Y-62639003I-500001J-1D01*
G01*
%TO.C,SW17*%
X83626865Y-54773005D02*
X83626865Y-55773005D01*
X69626865Y-67373005D02*
X69626865Y-67973005D01*
X74126865Y-63273005D02*
X69626865Y-63273005D01*
X70626865Y-68773005D02*
X69626865Y-68773005D01*
X83626865Y-68773005D02*
X82626865Y-68773005D01*
X78126865Y-65473005D02*
X75626865Y-65473005D01*
X69626865Y-54773005D02*
X70626865Y-54773005D01*
X82626865Y-54773005D02*
X83626865Y-54773005D01*
X78126865Y-69973005D02*
X75126865Y-69973005D01*
X69626865Y-55773005D02*
X69626865Y-54773005D01*
X69626865Y-63273005D02*
X69626865Y-63773005D01*
X74626865Y-68473005D02*
X74626865Y-69473005D01*
X69626865Y-67973005D02*
X74126865Y-67973005D01*
X83626865Y-67773005D02*
X83626865Y-68773005D01*
X78626865Y-65973005D02*
X78126865Y-65473005D01*
X75126865Y-69973005D02*
X74626865Y-69473005D01*
X78626865Y-69473005D02*
X78126865Y-69973005D01*
X74126865Y-63973005D02*
X74126865Y-63273005D01*
X69626865Y-68773005D02*
X69626865Y-67773005D01*
X74126865Y-63973005D02*
G75*
G03*
X75626865Y-65473005I1500001J1D01*
G01*
X74626865Y-68473005D02*
G75*
G03*
X74126865Y-67973005I-500001J-1D01*
G01*
%TO.C,SW18*%
X88600519Y-71313002D02*
X87600519Y-71313002D01*
X92100519Y-66513002D02*
X92100519Y-65813002D01*
X87600519Y-69913002D02*
X87600519Y-70513002D01*
X101600519Y-70313002D02*
X101600519Y-71313002D01*
X96600519Y-72013002D02*
X96100519Y-72513002D01*
X87600519Y-65813002D02*
X87600519Y-66313002D01*
X87600519Y-70513002D02*
X92100519Y-70513002D01*
X96100519Y-72513002D02*
X93100519Y-72513002D01*
X93100519Y-72513002D02*
X92600519Y-72013002D01*
X87600519Y-58313002D02*
X87600519Y-57313002D01*
X101600519Y-71313002D02*
X100600519Y-71313002D01*
X92100519Y-65813002D02*
X87600519Y-65813002D01*
X87600519Y-71313002D02*
X87600519Y-70313002D01*
X100600519Y-57313002D02*
X101600519Y-57313002D01*
X96600519Y-68513002D02*
X96100519Y-68013002D01*
X101600519Y-57313002D02*
X101600519Y-58313002D01*
X87600519Y-57313002D02*
X88600519Y-57313002D01*
X92600519Y-71013002D02*
X92600519Y-72013002D01*
X96100519Y-68013002D02*
X93600519Y-68013002D01*
X92600519Y-71013002D02*
G75*
G03*
X92100519Y-70513002I-500001J-1D01*
G01*
X92100519Y-66513002D02*
G75*
G03*
X93600519Y-68013002I1500001J1D01*
G01*
%TO.C,SW20*%
X110131337Y-91642331D02*
X110427170Y-91007916D01*
X117135312Y-99101175D02*
X116712694Y-100007482D01*
X109518422Y-82308825D02*
X109941040Y-81402518D01*
X109941040Y-81402518D02*
X110847348Y-81825136D01*
X116712694Y-100007482D02*
X115806386Y-99584864D01*
X113122641Y-94692266D02*
X110856872Y-93635721D01*
X110427170Y-91007916D02*
X106348785Y-89106134D01*
X108501936Y-97502796D02*
X108260091Y-96838333D01*
X104930692Y-94513445D02*
X104024385Y-94090827D01*
X108682709Y-95932026D02*
X108260091Y-96838333D01*
X122629349Y-87319173D02*
X122206731Y-88225481D01*
X106348785Y-89106134D02*
X106137476Y-89559288D01*
X111220859Y-98770651D02*
X108501936Y-97502796D01*
X111885322Y-98528806D02*
X111220859Y-98770651D01*
X104024385Y-94090827D02*
X104447003Y-93184519D01*
X121723042Y-86896555D02*
X122629349Y-87319173D01*
X104362479Y-93365780D02*
X108440864Y-95267563D01*
X104616050Y-92821996D02*
X104362479Y-93365780D01*
X113364486Y-95356729D02*
X113122641Y-94692266D01*
X108682708Y-95932026D02*
G75*
G03*
X108440864Y-95267563I-453154J211309D01*
G01*
X110131337Y-91642331D02*
G75*
G03*
X110856872Y-93635721I1359463J-633927D01*
G01*
%TO.C,SW21*%
X103500077Y-79055256D02*
X103241258Y-80021181D01*
X86715996Y-87602454D02*
X86560704Y-88182010D01*
X86353649Y-88954750D02*
X86612468Y-87988825D01*
X95418121Y-87967157D02*
X93003307Y-87320110D01*
X94253436Y-92313823D02*
X91355658Y-91537366D01*
X87777154Y-83642158D02*
X87647744Y-84125121D01*
X100135430Y-91612291D02*
X99876610Y-92578217D01*
X87319575Y-89213570D02*
X86353649Y-88954750D01*
X91355658Y-91537366D02*
X91002105Y-90924994D01*
X95771675Y-88579530D02*
X95418121Y-87967157D01*
X86560704Y-88182010D02*
X90907370Y-89346696D01*
X99876610Y-92578217D02*
X98910685Y-92319398D01*
X89977116Y-75431789D02*
X90943041Y-75690608D01*
X94865808Y-91960270D02*
X94253436Y-92313823D01*
X91942647Y-85482992D02*
X92123820Y-84806844D01*
X91260924Y-89959068D02*
X91002105Y-90924994D01*
X102534151Y-78796436D02*
X103500077Y-79055256D01*
X89718296Y-76397715D02*
X89977116Y-75431789D01*
X92123820Y-84806844D02*
X87777154Y-83642158D01*
X91942645Y-85482992D02*
G75*
G03*
X93003307Y-87320110I1448889J-388229D01*
G01*
X91260923Y-89959068D02*
G75*
G03*
X90907370Y-89346696I-482962J129410D01*
G01*
D12*
%TO.C,REF\u002A\u002A*%
X68126866Y-27410003D02*
G75*
G03*
X66998481Y-27469139I-6J-10794921D01*
G01*
X47806866Y-41062503D02*
G75*
G03*
X48840731Y-45213049I20320050J2857512D01*
G01*
X48840730Y-31196959D02*
G75*
G03*
X47806866Y-35347503I19286252J-7008071D01*
G01*
X61118821Y-57491138D02*
G75*
G03*
X65269366Y-58525003I7008051J19286154D01*
G01*
X69255251Y-27469139D02*
G75*
G03*
X68126866Y-27410003I-1128379J-10735785D01*
G01*
X70984366Y-58525003D02*
G75*
G03*
X75134911Y-57491138I-2857506J20320019D01*
G01*
X88446866Y-35347503D02*
G75*
G03*
X87413000Y-31196955I-20319983J-2857496D01*
G01*
X87413000Y-45213051D02*
G75*
G03*
X88446866Y-41062503I-19286117J7008044D01*
G01*
X68126866Y-49000003D02*
G75*
G03*
X69255251Y-48940867I6J10794921D01*
G01*
X65269366Y-17885003D02*
G75*
G03*
X61118820Y-18918868I2857512J-20320050D01*
G01*
X66998481Y-48940867D02*
G75*
G03*
X68126866Y-49000003I1128379J10735785D01*
G01*
X75134915Y-18918869D02*
G75*
G03*
X70984366Y-17885003I-7008041J-19286105D01*
G01*
D13*
X67506330Y-51188830D02*
X67506138Y-51293070D01*
X67506138Y-51293070D02*
X67505649Y-51389815D01*
X67505649Y-51389815D02*
X67504899Y-51476701D01*
X67504899Y-51476701D02*
X67503923Y-51551363D01*
X67503923Y-51551363D02*
X67502754Y-51611438D01*
X67502754Y-51611438D02*
X67501427Y-51654561D01*
X67501427Y-51654561D02*
X67499978Y-51678368D01*
X67499978Y-51678368D02*
X67499070Y-51682398D01*
X67499070Y-51682398D02*
X67486639Y-51676084D01*
X67486639Y-51676084D02*
X67461793Y-51659741D01*
X67461793Y-51659741D02*
X67437659Y-51642539D01*
X67437659Y-51642539D02*
X67322962Y-51571817D01*
X67322962Y-51571817D02*
X67200746Y-51522713D01*
X67200746Y-51522713D02*
X67070363Y-51495037D01*
X67070363Y-51495037D02*
X66931162Y-51488599D01*
X66931162Y-51488599D02*
X66913350Y-51489267D01*
X66913350Y-51489267D02*
X66823715Y-51495819D01*
X66823715Y-51495819D02*
X66747232Y-51507756D01*
X66747232Y-51507756D02*
X66675580Y-51527248D01*
X66675580Y-51527248D02*
X66600442Y-51556465D01*
X66600442Y-51556465D02*
X66530591Y-51589104D01*
X66530591Y-51589104D02*
X66402658Y-51664397D01*
X66402658Y-51664397D02*
X66289738Y-51756377D01*
X66289738Y-51756377D02*
X66192844Y-51863366D01*
X66192844Y-51863366D02*
X66112986Y-51983691D01*
X66112986Y-51983691D02*
X66051176Y-52115676D01*
X66051176Y-52115676D02*
X66008424Y-52257645D01*
X66008424Y-52257645D02*
X65985743Y-52407924D01*
X65985743Y-52407924D02*
X65982182Y-52497594D01*
X65982182Y-52497594D02*
X65992473Y-52650072D01*
X65992473Y-52650072D02*
X66023829Y-52794636D01*
X66023829Y-52794636D02*
X66076974Y-52933872D01*
X66076974Y-52933872D02*
X66134229Y-53040791D01*
X66134229Y-53040791D02*
X66219941Y-53161084D01*
X66219941Y-53161084D02*
X66321554Y-53265933D01*
X66321554Y-53265933D02*
X66436887Y-53354255D01*
X66436887Y-53354255D02*
X66563762Y-53424969D01*
X66563762Y-53424969D02*
X66699998Y-53476992D01*
X66699998Y-53476992D02*
X66843417Y-53509245D01*
X66843417Y-53509245D02*
X66991838Y-53520644D01*
X66991838Y-53520644D02*
X67092084Y-53516161D01*
X67092084Y-53516161D02*
X67236692Y-53491280D01*
X67236692Y-53491280D02*
X67377260Y-53445005D01*
X67377260Y-53445005D02*
X67510433Y-53379026D01*
X67510433Y-53379026D02*
X67632853Y-53295029D01*
X67632853Y-53295029D02*
X67741165Y-53194703D01*
X67741165Y-53194703D02*
X67749559Y-53185537D01*
X67749559Y-53185537D02*
X67830690Y-53081417D01*
X67830690Y-53081417D02*
X67900382Y-52963235D01*
X67900382Y-52963235D02*
X67955548Y-52837372D01*
X67955548Y-52837372D02*
X67993101Y-52710212D01*
X67993101Y-52710212D02*
X68001970Y-52663762D01*
X68001970Y-52663762D02*
X68004583Y-52635367D01*
X68004583Y-52635367D02*
X68006928Y-52585295D01*
X68006928Y-52585295D02*
X68008397Y-52534961D01*
X68008397Y-52534961D02*
X67512059Y-52534961D01*
X67512059Y-52534961D02*
X67501487Y-52632510D01*
X67501487Y-52632510D02*
X67471055Y-52726529D01*
X67471055Y-52726529D02*
X67442401Y-52780674D01*
X67442401Y-52780674D02*
X67375467Y-52868957D01*
X67375467Y-52868957D02*
X67295986Y-52939834D01*
X67295986Y-52939834D02*
X67206554Y-52992327D01*
X67206554Y-52992327D02*
X67109768Y-53025459D01*
X67109768Y-53025459D02*
X67008227Y-53038253D01*
X67008227Y-53038253D02*
X66904526Y-53029732D01*
X66904526Y-53029732D02*
X66831699Y-53010444D01*
X66831699Y-53010444D02*
X66788702Y-52994358D01*
X66788702Y-52994358D02*
X66747797Y-52976998D01*
X66747797Y-52976998D02*
X66731630Y-52969222D01*
X66731630Y-52969222D02*
X66686344Y-52938218D01*
X66686344Y-52938218D02*
X66637021Y-52892024D01*
X66637021Y-52892024D02*
X66588964Y-52836568D01*
X66588964Y-52836568D02*
X66547479Y-52777774D01*
X66547479Y-52777774D02*
X66525991Y-52739447D01*
X66525991Y-52739447D02*
X66505810Y-52695201D01*
X66505810Y-52695201D02*
X66493165Y-52656593D01*
X66493165Y-52656593D02*
X66485808Y-52614301D01*
X66485808Y-52614301D02*
X66481490Y-52558998D01*
X66481490Y-52558998D02*
X66481208Y-52553708D01*
X66481208Y-52553708D02*
X66484576Y-52446463D01*
X66484576Y-52446463D02*
X66507432Y-52348571D01*
X66507432Y-52348571D02*
X66551084Y-52255148D01*
X66551084Y-52255148D02*
X66568854Y-52226619D01*
X66568854Y-52226619D02*
X66633396Y-52148715D01*
X66633396Y-52148715D02*
X66712213Y-52086545D01*
X66712213Y-52086545D02*
X66801849Y-52041049D01*
X66801849Y-52041049D02*
X66898848Y-52013171D01*
X66898848Y-52013171D02*
X66999752Y-52003851D01*
X66999752Y-52003851D02*
X67101104Y-52014033D01*
X67101104Y-52014033D02*
X67199450Y-52044658D01*
X67199450Y-52044658D02*
X67213453Y-52050944D01*
X67213453Y-52050944D02*
X67301405Y-52103893D01*
X67301405Y-52103893D02*
X67375395Y-52172107D01*
X67375395Y-52172107D02*
X67434438Y-52252453D01*
X67434438Y-52252453D02*
X67477551Y-52341800D01*
X67477551Y-52341800D02*
X67503753Y-52437013D01*
X67503753Y-52437013D02*
X67512059Y-52534961D01*
X67512059Y-52534961D02*
X68008397Y-52534961D01*
X68008397Y-52534961D02*
X68008981Y-52514958D01*
X68008981Y-52514958D02*
X68010720Y-52425769D01*
X68010720Y-52425769D02*
X68012123Y-52319140D01*
X68012123Y-52319140D02*
X68013167Y-52196484D01*
X68013167Y-52196484D02*
X68013831Y-52059212D01*
X68013831Y-52059212D02*
X68014092Y-51908738D01*
X68014092Y-51908738D02*
X68014095Y-51897002D01*
X68014095Y-51897002D02*
X68014182Y-51205288D01*
X68014182Y-51205288D02*
X67506478Y-50695262D01*
X67506478Y-50695262D02*
X67506330Y-51188830D01*
X67506330Y-51188830D02*
X67506330Y-51188830D01*
G36*
X68004583Y-52635367D02*
G01*
X68001970Y-52663762D01*
X67993101Y-52710212D01*
X67955548Y-52837372D01*
X67900382Y-52963235D01*
X67830690Y-53081417D01*
X67749559Y-53185537D01*
X67741165Y-53194703D01*
X67632853Y-53295029D01*
X67510433Y-53379026D01*
X67377260Y-53445005D01*
X67236692Y-53491280D01*
X67092084Y-53516161D01*
X66991838Y-53520644D01*
X66843417Y-53509245D01*
X66699998Y-53476992D01*
X66563762Y-53424969D01*
X66436887Y-53354255D01*
X66321554Y-53265933D01*
X66219941Y-53161084D01*
X66134229Y-53040791D01*
X66076974Y-52933872D01*
X66023829Y-52794636D01*
X65992473Y-52650072D01*
X65985969Y-52553708D01*
X66481208Y-52553708D01*
X66481490Y-52558998D01*
X66485808Y-52614301D01*
X66493165Y-52656593D01*
X66505810Y-52695201D01*
X66525991Y-52739447D01*
X66547479Y-52777774D01*
X66588964Y-52836568D01*
X66637021Y-52892024D01*
X66686344Y-52938218D01*
X66731630Y-52969222D01*
X66747797Y-52976998D01*
X66788702Y-52994358D01*
X66831699Y-53010444D01*
X66904526Y-53029732D01*
X67008227Y-53038253D01*
X67109768Y-53025459D01*
X67206554Y-52992327D01*
X67295986Y-52939834D01*
X67375467Y-52868957D01*
X67442401Y-52780674D01*
X67471055Y-52726529D01*
X67501487Y-52632510D01*
X67512059Y-52534961D01*
X67503753Y-52437013D01*
X67477551Y-52341800D01*
X67434438Y-52252453D01*
X67375395Y-52172107D01*
X67301405Y-52103893D01*
X67213453Y-52050944D01*
X67199450Y-52044658D01*
X67101104Y-52014033D01*
X66999752Y-52003851D01*
X66898848Y-52013171D01*
X66801849Y-52041049D01*
X66712213Y-52086545D01*
X66633396Y-52148715D01*
X66568854Y-52226619D01*
X66551084Y-52255148D01*
X66507432Y-52348571D01*
X66484576Y-52446463D01*
X66481208Y-52553708D01*
X65985969Y-52553708D01*
X65982182Y-52497594D01*
X65985743Y-52407924D01*
X66008424Y-52257645D01*
X66051176Y-52115676D01*
X66112986Y-51983691D01*
X66192844Y-51863366D01*
X66289738Y-51756377D01*
X66402658Y-51664397D01*
X66530591Y-51589104D01*
X66600442Y-51556465D01*
X66675580Y-51527248D01*
X66747232Y-51507756D01*
X66823715Y-51495819D01*
X66913350Y-51489267D01*
X66931162Y-51488599D01*
X67070363Y-51495037D01*
X67200746Y-51522713D01*
X67322962Y-51571817D01*
X67437659Y-51642539D01*
X67461793Y-51659741D01*
X67486639Y-51676084D01*
X67499070Y-51682398D01*
X67499978Y-51678368D01*
X67501427Y-51654561D01*
X67502754Y-51611438D01*
X67503923Y-51551363D01*
X67504899Y-51476701D01*
X67505649Y-51389815D01*
X67506138Y-51293070D01*
X67506330Y-51188830D01*
X67506478Y-50695262D01*
X68014182Y-51205288D01*
X68014095Y-51897002D01*
X68014092Y-51908738D01*
X68013831Y-52059212D01*
X68013167Y-52196484D01*
X68012123Y-52319140D01*
X68010720Y-52425769D01*
X68008981Y-52514958D01*
X68008397Y-52534961D01*
X68006928Y-52585295D01*
X68004583Y-52635367D01*
G37*
X68004583Y-52635367D02*
X68001970Y-52663762D01*
X67993101Y-52710212D01*
X67955548Y-52837372D01*
X67900382Y-52963235D01*
X67830690Y-53081417D01*
X67749559Y-53185537D01*
X67741165Y-53194703D01*
X67632853Y-53295029D01*
X67510433Y-53379026D01*
X67377260Y-53445005D01*
X67236692Y-53491280D01*
X67092084Y-53516161D01*
X66991838Y-53520644D01*
X66843417Y-53509245D01*
X66699998Y-53476992D01*
X66563762Y-53424969D01*
X66436887Y-53354255D01*
X66321554Y-53265933D01*
X66219941Y-53161084D01*
X66134229Y-53040791D01*
X66076974Y-52933872D01*
X66023829Y-52794636D01*
X65992473Y-52650072D01*
X65985969Y-52553708D01*
X66481208Y-52553708D01*
X66481490Y-52558998D01*
X66485808Y-52614301D01*
X66493165Y-52656593D01*
X66505810Y-52695201D01*
X66525991Y-52739447D01*
X66547479Y-52777774D01*
X66588964Y-52836568D01*
X66637021Y-52892024D01*
X66686344Y-52938218D01*
X66731630Y-52969222D01*
X66747797Y-52976998D01*
X66788702Y-52994358D01*
X66831699Y-53010444D01*
X66904526Y-53029732D01*
X67008227Y-53038253D01*
X67109768Y-53025459D01*
X67206554Y-52992327D01*
X67295986Y-52939834D01*
X67375467Y-52868957D01*
X67442401Y-52780674D01*
X67471055Y-52726529D01*
X67501487Y-52632510D01*
X67512059Y-52534961D01*
X67503753Y-52437013D01*
X67477551Y-52341800D01*
X67434438Y-52252453D01*
X67375395Y-52172107D01*
X67301405Y-52103893D01*
X67213453Y-52050944D01*
X67199450Y-52044658D01*
X67101104Y-52014033D01*
X66999752Y-52003851D01*
X66898848Y-52013171D01*
X66801849Y-52041049D01*
X66712213Y-52086545D01*
X66633396Y-52148715D01*
X66568854Y-52226619D01*
X66551084Y-52255148D01*
X66507432Y-52348571D01*
X66484576Y-52446463D01*
X66481208Y-52553708D01*
X65985969Y-52553708D01*
X65982182Y-52497594D01*
X65985743Y-52407924D01*
X66008424Y-52257645D01*
X66051176Y-52115676D01*
X66112986Y-51983691D01*
X66192844Y-51863366D01*
X66289738Y-51756377D01*
X66402658Y-51664397D01*
X66530591Y-51589104D01*
X66600442Y-51556465D01*
X66675580Y-51527248D01*
X66747232Y-51507756D01*
X66823715Y-51495819D01*
X66913350Y-51489267D01*
X66931162Y-51488599D01*
X67070363Y-51495037D01*
X67200746Y-51522713D01*
X67322962Y-51571817D01*
X67437659Y-51642539D01*
X67461793Y-51659741D01*
X67486639Y-51676084D01*
X67499070Y-51682398D01*
X67499978Y-51678368D01*
X67501427Y-51654561D01*
X67502754Y-51611438D01*
X67503923Y-51551363D01*
X67504899Y-51476701D01*
X67505649Y-51389815D01*
X67506138Y-51293070D01*
X67506330Y-51188830D01*
X67506478Y-50695262D01*
X68014182Y-51205288D01*
X68014095Y-51897002D01*
X68014092Y-51908738D01*
X68013831Y-52059212D01*
X68013167Y-52196484D01*
X68012123Y-52319140D01*
X68010720Y-52425769D01*
X68008981Y-52514958D01*
X68008397Y-52534961D01*
X68006928Y-52585295D01*
X68004583Y-52635367D01*
X68904584Y-52729578D02*
X68881881Y-52752441D01*
X68881881Y-52752441D02*
X68847402Y-52787972D01*
X68847402Y-52787972D02*
X68803133Y-52834064D01*
X68803133Y-52834064D02*
X68751066Y-52888610D01*
X68751066Y-52888610D02*
X68693187Y-52949504D01*
X68693187Y-52949504D02*
X68631488Y-53014639D01*
X68631488Y-53014639D02*
X68567955Y-53081909D01*
X68567955Y-53081909D02*
X68504580Y-53149207D01*
X68504580Y-53149207D02*
X68443350Y-53214426D01*
X68443350Y-53214426D02*
X68386254Y-53275461D01*
X68386254Y-53275461D02*
X68335282Y-53330204D01*
X68335282Y-53330204D02*
X68292422Y-53376549D01*
X68292422Y-53376549D02*
X68259664Y-53412389D01*
X68259664Y-53412389D02*
X68238996Y-53435618D01*
X68238996Y-53435618D02*
X68236703Y-53438309D01*
X68236703Y-53438309D02*
X68208402Y-53471944D01*
X68208402Y-53471944D02*
X68828416Y-53471944D01*
X68828416Y-53471944D02*
X69001766Y-53295875D01*
X69001766Y-53295875D02*
X69055508Y-53241132D01*
X69055508Y-53241132D02*
X69105791Y-53189619D01*
X69105791Y-53189619D02*
X69149607Y-53144439D01*
X69149607Y-53144439D02*
X69183953Y-53108693D01*
X69183953Y-53108693D02*
X69205821Y-53085484D01*
X69205821Y-53085484D02*
X69208998Y-53081992D01*
X69208998Y-53081992D02*
X69242880Y-53044177D01*
X69242880Y-53044177D02*
X69081845Y-52882833D01*
X69081845Y-52882833D02*
X69032132Y-52833378D01*
X69032132Y-52833378D02*
X68987908Y-52790053D01*
X68987908Y-52790053D02*
X68951761Y-52755340D01*
X68951761Y-52755340D02*
X68926279Y-52731720D01*
X68926279Y-52731720D02*
X68914050Y-52721672D01*
X68914050Y-52721672D02*
X68913519Y-52721489D01*
X68913519Y-52721489D02*
X68904584Y-52729578D01*
X68904584Y-52729578D02*
X68904584Y-52729578D01*
G36*
X68914050Y-52721672D02*
G01*
X68926279Y-52731720D01*
X68951761Y-52755340D01*
X68987908Y-52790053D01*
X69032132Y-52833378D01*
X69081845Y-52882833D01*
X69242880Y-53044177D01*
X69208998Y-53081992D01*
X69205821Y-53085484D01*
X69183953Y-53108693D01*
X69149607Y-53144439D01*
X69105791Y-53189619D01*
X69055508Y-53241132D01*
X69001766Y-53295875D01*
X68828416Y-53471944D01*
X68208402Y-53471944D01*
X68236703Y-53438309D01*
X68238996Y-53435618D01*
X68259664Y-53412389D01*
X68292422Y-53376549D01*
X68335282Y-53330204D01*
X68386254Y-53275461D01*
X68443350Y-53214426D01*
X68504580Y-53149207D01*
X68567955Y-53081909D01*
X68631488Y-53014639D01*
X68693187Y-52949504D01*
X68751066Y-52888610D01*
X68803133Y-52834064D01*
X68847402Y-52787972D01*
X68881881Y-52752441D01*
X68904584Y-52729578D01*
X68913519Y-52721489D01*
X68914050Y-52721672D01*
G37*
X68914050Y-52721672D02*
X68926279Y-52731720D01*
X68951761Y-52755340D01*
X68987908Y-52790053D01*
X69032132Y-52833378D01*
X69081845Y-52882833D01*
X69242880Y-53044177D01*
X69208998Y-53081992D01*
X69205821Y-53085484D01*
X69183953Y-53108693D01*
X69149607Y-53144439D01*
X69105791Y-53189619D01*
X69055508Y-53241132D01*
X69001766Y-53295875D01*
X68828416Y-53471944D01*
X68208402Y-53471944D01*
X68236703Y-53438309D01*
X68238996Y-53435618D01*
X68259664Y-53412389D01*
X68292422Y-53376549D01*
X68335282Y-53330204D01*
X68386254Y-53275461D01*
X68443350Y-53214426D01*
X68504580Y-53149207D01*
X68567955Y-53081909D01*
X68631488Y-53014639D01*
X68693187Y-52949504D01*
X68751066Y-52888610D01*
X68803133Y-52834064D01*
X68847402Y-52787972D01*
X68881881Y-52752441D01*
X68904584Y-52729578D01*
X68913519Y-52721489D01*
X68914050Y-52721672D01*
X69711364Y-52323047D02*
X68908418Y-51520347D01*
X68908418Y-51520347D02*
X68620050Y-51523441D01*
X68620050Y-51523441D02*
X68331682Y-51526534D01*
X68331682Y-51526534D02*
X69178906Y-52386671D01*
X69178906Y-52386671D02*
X69296831Y-52506394D01*
X69296831Y-52506394D02*
X69411630Y-52622943D01*
X69411630Y-52622943D02*
X69522084Y-52735083D01*
X69522084Y-52735083D02*
X69626976Y-52841576D01*
X69626976Y-52841576D02*
X69725088Y-52941187D01*
X69725088Y-52941187D02*
X69815203Y-53032680D01*
X69815203Y-53032680D02*
X69896102Y-53114817D01*
X69896102Y-53114817D02*
X69966569Y-53186362D01*
X69966569Y-53186362D02*
X70025385Y-53246080D01*
X70025385Y-53246080D02*
X70071332Y-53292734D01*
X70071332Y-53292734D02*
X70103193Y-53325087D01*
X70103193Y-53325087D02*
X70116974Y-53339083D01*
X70116974Y-53339083D02*
X70207818Y-53431359D01*
X70207818Y-53431359D02*
X70207818Y-50689489D01*
X70207818Y-50689489D02*
X69711364Y-50689489D01*
X69711364Y-50689489D02*
X69711364Y-52323047D01*
X69711364Y-52323047D02*
X69711364Y-52323047D01*
G36*
X70207818Y-53431359D02*
G01*
X70116974Y-53339083D01*
X70103193Y-53325087D01*
X70071332Y-53292734D01*
X70025385Y-53246080D01*
X69966569Y-53186362D01*
X69896102Y-53114817D01*
X69815203Y-53032680D01*
X69725088Y-52941187D01*
X69626976Y-52841576D01*
X69522084Y-52735083D01*
X69411630Y-52622943D01*
X69296831Y-52506394D01*
X69178906Y-52386671D01*
X68331682Y-51526534D01*
X68620050Y-51523441D01*
X68908418Y-51520347D01*
X69711364Y-52323047D01*
X69711364Y-50689489D01*
X70207818Y-50689489D01*
X70207818Y-53431359D01*
G37*
X70207818Y-53431359D02*
X70116974Y-53339083D01*
X70103193Y-53325087D01*
X70071332Y-53292734D01*
X70025385Y-53246080D01*
X69966569Y-53186362D01*
X69896102Y-53114817D01*
X69815203Y-53032680D01*
X69725088Y-52941187D01*
X69626976Y-52841576D01*
X69522084Y-52735083D01*
X69411630Y-52622943D01*
X69296831Y-52506394D01*
X69178906Y-52386671D01*
X68331682Y-51526534D01*
X68620050Y-51523441D01*
X68908418Y-51520347D01*
X69711364Y-52323047D01*
X69711364Y-50689489D01*
X70207818Y-50689489D01*
X70207818Y-53431359D01*
D14*
%TO.C,U1*%
X122266864Y-26161752D02*
X104486864Y-26161752D01*
X104486864Y-26161752D02*
X104486864Y-59181752D01*
X122266864Y-59181752D02*
X122266864Y-26161752D01*
X104486864Y-59181752D02*
X122266864Y-59181752D01*
D10*
%TO.C,SW1*%
X76456479Y-88904530D02*
X73467895Y-88643063D01*
X69226436Y-74017742D02*
X69313591Y-73021547D01*
X82127292Y-87192258D02*
X82040137Y-88188453D01*
X73467895Y-88643063D02*
X73013375Y-88101388D01*
X69089606Y-87055428D02*
X68093411Y-86968273D01*
X68572767Y-81489202D02*
X68529190Y-81987299D01*
X72994635Y-82578739D02*
X73055644Y-81881403D01*
X73055644Y-81881403D02*
X68572767Y-81489202D01*
X76998154Y-88450011D02*
X76456479Y-88904530D01*
X69313591Y-73021547D02*
X70309786Y-73108703D01*
X82264122Y-74154572D02*
X83260317Y-74241727D01*
X82040137Y-88188453D02*
X81043942Y-88101297D01*
X73100531Y-87105193D02*
X73013375Y-88101388D01*
X68215429Y-85573600D02*
X68163136Y-86171317D01*
X68163136Y-86171317D02*
X72646012Y-86563518D01*
X83260317Y-74241727D02*
X83173161Y-75237922D01*
X68093411Y-86968273D02*
X68180567Y-85972078D01*
X77303199Y-84963329D02*
X76848680Y-84421654D01*
X76848680Y-84421654D02*
X74358193Y-84203765D01*
X73100531Y-87105193D02*
G75*
G03*
X72646012Y-86563518I-498098J43577D01*
G01*
X72994635Y-82578739D02*
G75*
G03*
X74358193Y-84203765I1494293J-130733D01*
G01*
D15*
%TO.C,Display2*%
X119523066Y-63582293D02*
X106823066Y-63582293D01*
X106823066Y-63582293D02*
X106823066Y-66182293D01*
X106823066Y-66182293D02*
X119523066Y-66182293D01*
X119523066Y-66182293D02*
X119523066Y-63582293D01*
%TD*%
D16*
%TO.C,U1*%
X105756864Y-29971752D03*
X105756864Y-32511752D03*
X105756864Y-35051752D03*
X105756864Y-37591752D03*
X105756864Y-40131752D03*
X105756864Y-42671752D03*
X105756864Y-45211752D03*
X105756864Y-47751752D03*
X105756864Y-50291752D03*
X105756864Y-52831752D03*
X105756864Y-55371752D03*
X105756864Y-57911752D03*
X120996864Y-57911752D03*
X120996864Y-55371752D03*
X120996864Y-52831752D03*
X120996864Y-50291752D03*
X120996864Y-47751752D03*
X120996864Y-45211752D03*
X120996864Y-42671752D03*
X120996864Y-40131752D03*
X120996864Y-37591752D03*
X120996864Y-35051752D03*
X120996864Y-32511752D03*
X120996864Y-29971752D03*
X108296864Y-52831752D03*
X110836864Y-52831752D03*
X113376864Y-52831752D03*
%TD*%
M02*
